<svg xmlns="http://www.w3.org/2000/svg" xmlns:xlink="http://www.w3.org/1999/xlink" width="94" height="94" viewBox="0 0 94 94">
  <defs>
    <linearGradient id="linear-gradient" x1="0.933" y1="0.25" x2="0.067" y2="0.75" gradientUnits="objectBoundingBox">
      <stop offset="0" stop-color="#20bdff"/>
      <stop offset="1" stop-color="#006bff"/>
    </linearGradient>
  </defs>
  <g id="Grupo_957293" data-name="Grupo 957293" transform="translate(-221 -6937)">
    <circle id="Elipse_5548" data-name="Elipse 5548" cx="47" cy="47" r="47" transform="translate(221 6937)" fill="#fff"/>
    <path id="numero-3" d="M35.3.8A34.5,34.5,0,1,0,69.8,35.3,34.5,34.5,0,0,0,35.3.8Zm7.526,47.383q-2.413,2.257-7.682,2.258a32.777,32.777,0,0,1-7.969-1.15l-1.418-.354.31-4.649a48.489,48.489,0,0,0,7.882.84,6.36,6.36,0,0,0,3.785-.907A3.181,3.181,0,0,0,38.952,41.5,3.576,3.576,0,0,0,37.8,38.642a4.577,4.577,0,0,0-3.1-1H28.813V32.6H34.7a3.418,3.418,0,0,0,2.59-1.239,4.142,4.142,0,0,0,1.13-2.878,2.494,2.494,0,0,0-1.174-2.28,7.2,7.2,0,0,0-3.7-.731,42.068,42.068,0,0,0-6.021.62l-1.152.177-.4-4.516a24.33,24.33,0,0,1,8.943-1.593q5.092,0,7.439,1.881t2.347,5.954a8.514,8.514,0,0,1-.82,3.962A7.993,7.993,0,0,1,41.3,34.768a12.07,12.07,0,0,1,2.367,1.593,4.4,4.4,0,0,1,1.2,1.883,9.7,9.7,0,0,1,.377,2.988q0,4.693-2.413,6.951Z" transform="translate(233.2 6949.2)" fill="url(#linear-gradient)"/>
  </g>
</svg>
