<svg id="Layer_x0020_1" xmlns="http://www.w3.org/2000/svg" width="130" height="130" viewBox="0 0 130 130">
  <circle id="Elipse_7635" data-name="Elipse 7635" cx="65" cy="65" r="65" transform="translate(0 0)" fill="#26a69a"/>
  <g id="_485963816" transform="translate(23.74 24.088)">
    <path id="_485962616" d="M82.624,40.685a.721.721,0,0,1-.7-.543A34.406,34.406,0,0,0,34.844,17.157a.723.723,0,0,1-.952-.375l-1.919-4.4a.724.724,0,0,1,.373-.954,40.665,40.665,0,0,1,45.3,8.823A42.216,42.216,0,0,1,88.209,39.486a.724.724,0,0,1-1.406.345,40.749,40.749,0,0,0-10.2-18.566,39.139,39.139,0,0,0-43.015-8.791l1.34,3.074A35.9,35.9,0,0,1,74.2,23.6a36.049,36.049,0,0,1,9.124,16.18.724.724,0,0,1-.7.9ZM25.1,81.745a.726.726,0,0,1-.426-.138A40.709,40.709,0,0,1,13.884,27.5a42.912,42.912,0,0,1,7.672-9.179.724.724,0,0,1,.971,1.074,41.542,41.542,0,0,0-7.408,8.859A39.238,39.238,0,0,0,24.948,80l1.972-2.72a35.862,35.862,0,0,1-2.686-54.907.724.724,0,0,1,.982,1.063,34.428,34.428,0,0,0,3.136,53.1.724.724,0,0,1,.16,1.01l-2.822,3.892a.721.721,0,0,1-.473.291.756.756,0,0,1-.113.009ZM48.51,89.29a42.191,42.191,0,0,1-10.916-1.434.724.724,0,0,1,.375-1.4,40.079,40.079,0,0,0,30.221-3.8A38.951,38.951,0,0,0,86.468,58.853l.076-.277c0-.013.005-.026.007-.04.235-.907.446-1.875.627-2.876.151-.831.275-1.67.372-2.5l-3.337-.315c-.086.749-.2,1.5-.331,2.23-.166.922-.388,1.9-.659,2.914a35.839,35.839,0,0,1-43.43,25.476.723.723,0,1,1,.354-1.4A34.393,34.393,0,0,0,81.822,57.616c.261-.978.476-1.92.637-2.8.167-.929.3-1.881.392-2.829a.723.723,0,0,1,.788-.652l4.776.453a.727.727,0,0,1,.492.26.737.737,0,0,1,.162.53c-.108,1.108-.264,2.234-.466,3.344-.186,1.022-.4,2.011-.641,2.942l-.011.051-.085.316A40.4,40.4,0,0,1,68.913,83.915a40.881,40.881,0,0,1-20.4,5.375Z" transform="translate(-7.916 -8.032)" fill="#fffffe"/>
    <path id="_485977616" d="M13.995,12.535l3.762,5.675,3.032-6.1Zm3.853,7.843a.722.722,0,0,1-.6-.324L12.095,12.29a.723.723,0,0,1,.558-1.122l9.3-.577a.723.723,0,0,1,.694,1.044L18.5,19.977a.725.725,0,0,1-.6.4.372.372,0,0,1-.045,0Z" transform="translate(0.195 -2.919)" fill="#fffffe"/>
    <path id="_485974232" d="M33.869,20.238l3.764,5.674,3.032-6.1Zm3.853,7.843a.723.723,0,0,1-.6-.324L31.97,19.993a.723.723,0,0,1,.558-1.122l9.3-.579a.725.725,0,0,1,.694,1.046L38.37,27.679a.721.721,0,0,1-.6.4A.391.391,0,0,1,37.721,28.081Z" transform="translate(39.923 12.473)" fill="#fffffe"/>
    <path id="_485968280" d="M17.61,34l3.762,5.676,3.033-6.1Zm3.853,7.843a.723.723,0,0,1-.6-.324l-5.149-7.764a.723.723,0,0,1,.558-1.122l9.3-.577A.724.724,0,0,1,26.26,33.1l-4.149,8.341a.726.726,0,0,1-.6.4h-.046Z" transform="translate(7.421 39.981)" fill="#fffffe"/>
    <path id="_485964008" d="M34.07,15.311a17.594,17.594,0,0,0-7.123,1.4,15.376,15.376,0,0,0-5.4,3.987,18.135,18.135,0,0,0-3.45,6.265,26.572,26.572,0,0,0-1.221,8.293V38.8a27.155,27.155,0,0,0,1.193,8.318,18.124,18.124,0,0,0,3.38,6.237,14.851,14.851,0,0,0,5.287,3.939,16.958,16.958,0,0,0,6.978,1.4,20.3,20.3,0,0,0,6.844-1.073A14.367,14.367,0,0,0,45.5,54.683a13.433,13.433,0,0,0,3.154-4.446,17.9,17.9,0,0,0,1.347-4.906h-6.11a16.43,16.43,0,0,1-.832,3.255,8.274,8.274,0,0,1-1.9,2.98,7.777,7.777,0,0,1-3.081,1.849,13.9,13.9,0,0,1-4.372.609,9.872,9.872,0,0,1-4.885-1.146,9.267,9.267,0,0,1-3.344-3.187,14.777,14.777,0,0,1-1.857-4.81,29.343,29.343,0,0,1-.59-6.083V35.2a27.356,27.356,0,0,1,.665-6.305A13.95,13.95,0,0,1,25.745,24.1a9.332,9.332,0,0,1,3.491-3.046A10.591,10.591,0,0,1,34.07,20a12.411,12.411,0,0,1,4.226.646,7.579,7.579,0,0,1,3.012,1.936,8.805,8.805,0,0,1,1.821,3.053,17.127,17.127,0,0,1,.775,3.242H50a19.1,19.1,0,0,0-1.355-5.016,13.8,13.8,0,0,0-3.108-4.518,14.012,14.012,0,0,0-4.825-2.954,18.552,18.552,0,0,0-6.641-1.08Zm-.358,44.829a18.393,18.393,0,0,1-7.568-1.525,16.3,16.3,0,0,1-5.8-4.322A19.581,19.581,0,0,1,16.69,47.56,28.61,28.61,0,0,1,15.427,38.8v-3.54a27.981,27.981,0,0,1,1.295-8.746,19.593,19.593,0,0,1,3.73-6.763,16.826,16.826,0,0,1,5.91-4.36,19.037,19.037,0,0,1,7.709-1.525,19.947,19.947,0,0,1,7.149,1.172A15.447,15.447,0,0,1,46.538,18.3a15.2,15.2,0,0,1,3.435,4.991,20.98,20.98,0,0,1,1.561,6.241.725.725,0,0,1-.72.8H43.265a.725.725,0,0,1-.72-.644,16.105,16.105,0,0,0-.78-3.563,7.393,7.393,0,0,0-1.517-2.552A6.153,6.153,0,0,0,37.8,22.008a11.008,11.008,0,0,0-3.732-.56,9.156,9.156,0,0,0-4.182.9,7.919,7.919,0,0,0-2.958,2.582,12.545,12.545,0,0,0-1.821,4.294,25.923,25.923,0,0,0-.626,5.97v3.6a27.931,27.931,0,0,0,.558,5.781,13.305,13.305,0,0,0,1.664,4.337,7.732,7.732,0,0,0,2.826,2.7,8.45,8.45,0,0,0,4.18.963,12.4,12.4,0,0,0,3.911-.535,6.35,6.35,0,0,0,2.523-1.5A6.836,6.836,0,0,0,41.71,48.07a15.594,15.594,0,0,0,.836-3.553.724.724,0,0,1,.719-.635h7.549a.725.725,0,0,1,.72.79,19.653,19.653,0,0,1-1.552,6.148,14.845,14.845,0,0,1-3.495,4.924,15.8,15.8,0,0,1-5.444,3.238,21.721,21.721,0,0,1-7.332,1.157Z" transform="translate(7.096 3.623)" fill="#fffffe"/>
  </g>
</svg>
