<svg xmlns="http://www.w3.org/2000/svg" width="130" height="130" viewBox="0 0 130 130">
  <g id="Layer_9" data-name="Layer 9" transform="translate(-16 -16)">
    <circle id="Elipse_7641" data-name="Elipse 7641" cx="65" cy="65" r="65" transform="translate(16 16)" fill="#669e4f"/>
    <circle id="Elipse_7642" data-name="Elipse 7642" cx="52" cy="52" r="52" transform="translate(29 29)" fill="#76ad5f"/>
    <path id="Trazado_721194" data-name="Trazado 721194" d="M293.04,65.331a16.165,16.165,0,0,0,15.573,4.176A65,65,0,0,0,244.646,16c-1.418,0-2.821.061-4.217.151a33.9,33.9,0,0,0,5.444,12.843,15.429,15.429,0,0,0,8.678,5.442,11.973,11.973,0,0,1,7.237,5.332q.387.589.836,1.153l.054.067a18.246,18.246,0,0,1,4.051,12.449,15.526,15.526,0,0,0,25.2,12.875c.391-.311.758-.641,1.11-.981Z" transform="translate(-163.646)" fill="#76ad5f"/>
    <path id="Trazado_721195" data-name="Trazado 721195" d="M260.667,64.118a15.427,15.427,0,0,0,8.64,5.4,11.973,11.973,0,0,1,7.237,5.332q.387.589.836,1.153l.054.067a18.246,18.246,0,0,1,4.051,12.449,15.526,15.526,0,0,0,25.2,12.875c.391-.311.758-.641,1.11-.981a15.485,15.485,0,0,0,1.634,1.491A52,52,0,0,0,260.667,64.118Z" transform="translate(-178.403 -35.086)" fill="#86bd6f"/>
    <path id="Trazado_721196" data-name="Trazado 721196" d="M399.164,248h-13a2.167,2.167,0,1,0,0,4.333h13a2.167,2.167,0,1,0,0-4.333Z" transform="translate(-268.333 -169.167)" fill="#96cc7f"/>
    <path id="Trazado_721197" data-name="Trazado 721197" d="M144.161,248h-78a2.167,2.167,0,1,0,0,4.333h78a2.167,2.167,0,1,0,0-4.333Z" transform="translate(-34.994 -169.167)" fill="#96cc7f"/>
    <path id="Trazado_721198" data-name="Trazado 721198" d="M89.184,362.938c.2-.339.385-.687.553-1.05A12.6,12.6,0,0,0,74.6,344.651a13.456,13.456,0,0,1-10.079-.738q-.181-.092-.366-.178-.532-.248-1.073-.441a11.71,11.71,0,0,1-5.958-5.361,12.569,12.569,0,0,0-21.2-.782A65.005,65.005,0,0,0,95.262,376.2a12.54,12.54,0,0,0-6.078-13.264Z" transform="translate(-14.532 -230.209)" fill="#76ad5f"/>
    <path id="Trazado_721199" data-name="Trazado 721199" d="M115.509,345.6a12.535,12.535,0,0,0-8.973-.64,13.457,13.457,0,0,1-10.079-.738q-.181-.092-.366-.178-.532-.248-1.073-.441a11.711,11.711,0,0,1-5.958-5.361,12.4,12.4,0,0,0-9.336-6.1,52.034,52.034,0,0,0,41.458,30.987c.173-.3.341-.608.49-.93A12.54,12.54,0,0,0,115.509,345.6Z" transform="translate(-46.465 -230.519)" fill="#86bd6f"/>
    <g id="Grupo_947995" data-name="Grupo 947995" transform="translate(70.167 44.167)">
      <path id="Trazado_721200" data-name="Trazado 721200" d="M232.667,148.165A2.167,2.167,0,0,1,230.5,146a34.8,34.8,0,0,1,4.576-17.245l2.525-4.419h-9.268V126.5a2.167,2.167,0,1,1-4.333,0v-4.333A2.167,2.167,0,0,1,226.167,120h15.167a2.167,2.167,0,0,1,1.881,3.242l-4.373,7.655a30.476,30.476,0,0,0-4.008,15.1,2.167,2.167,0,0,1-2.167,2.167Z" transform="translate(-221.833 -120)" fill="#96cc7f"/>
      <path id="Trazado_721201" data-name="Trazado 721201" d="M235.5,318.333a2.167,2.167,0,0,1-1.8-.965l-13.364-20.046v18.844a2.167,2.167,0,1,1-4.333,0v-26a2.167,2.167,0,0,1,3.969-1.2l13.364,20.046V290.166a2.167,2.167,0,0,1,4.333,0v26a2.167,2.167,0,0,1-1.538,2.073A2.137,2.137,0,0,1,235.5,318.333Z" transform="translate(-216 -242.5)" fill="#96cc7f"/>
    </g>
  </g>
</svg>
