<svg xmlns="http://www.w3.org/2000/svg" width="105" height="105" viewBox="0 0 105 105">
  <g id="Grupo_956487" data-name="Grupo 956487" transform="translate(835.828 -541.533)">
    <circle id="Elipse_7676" data-name="Elipse 7676" cx="52.5" cy="52.5" r="52.5" transform="translate(-835.828 541.533)" fill="#adc46c"/>
    <g id="taza-de-medir" transform="translate(-836.228 571.533)">
      <path id="Trazado_720738" data-name="Trazado 720738" d="M147.671,270.975v16.832a3.623,3.623,0,0,1-3.622,3.622H120.041a3.623,3.623,0,0,1-3.622-3.622V270.974c2.612,0,2.612,1.8,5.224,1.8s2.612-1.8,5.225-1.8,2.612,1.8,5.224,1.8,2.612-1.8,5.225-1.8,2.612,1.8,5.225,1.8C145.121,272.773,145.153,271.018,147.671,270.975Z" transform="translate(-76.379 -246.981)" fill="#00baff"/>
      <path id="Trazado_720739" data-name="Trazado 720739" d="M80.405,10V33.108c-2.518.043-2.55,1.8-5.13,1.8-2.613,0-2.613-1.8-5.225-1.8s-2.613,1.8-5.225,1.8-2.612-1.8-5.224-1.8-2.613,1.8-5.225,1.8-2.612-1.8-5.224-1.8V30.732L42.619,10Z" transform="translate(-9.114 -9.115)" fill="#efefef"/>
      <g id="Grupo_956429" data-name="Grupo 956429" transform="translate(32.62)">
        <path id="Trazado_720740" data-name="Trazado 720740" d="M71.292,0H33.505a.887.887,0,0,0-.845,1.152l6.494,20.6V40.826a4.513,4.513,0,0,0,4.508,4.508H67.67a4.513,4.513,0,0,0,4.508-4.508V.885A.886.886,0,0,0,71.292,0Zm-.885,40.826a2.74,2.74,0,0,1-2.737,2.737H43.662a2.74,2.74,0,0,1-2.737-2.737V24.983a3.822,3.822,0,0,1,1.225.638,5.118,5.118,0,0,0,6.228,0,3.365,3.365,0,0,1,4.22,0,5.118,5.118,0,0,0,6.228,0,3.366,3.366,0,0,1,4.221,0,4.934,4.934,0,0,0,3.1,1.055v2.681H63.9a.885.885,0,0,0,0,1.771h2.24v3.153H63.9a.885.885,0,0,0,0,1.771h2.24v3.154H63.9a.885.885,0,0,0,0,1.771H67.03a.886.886,0,0,0,.885-.885V26.38a6.092,6.092,0,0,0,1.36-.759,4,4,0,0,1,1.131-.612V40.826Zm0-17.635a5.152,5.152,0,0,0-2.135.972c-.122.084-.239.164-.356.239V5.621a.886.886,0,0,0-.885-.885H63.9a.885.885,0,0,0,0,1.771h2.24V9.66H63.9a.885.885,0,0,0,0,1.771h2.24v3.153H63.9a.885.885,0,0,0,0,1.771h2.24v3.154H63.9a.885.885,0,0,0,0,1.771h2.24v3.627a3.208,3.208,0,0,1-2.094-.743,5.12,5.12,0,0,0-6.229,0,3.364,3.364,0,0,1-4.219,0,5.12,5.12,0,0,0-6.229,0,3.365,3.365,0,0,1-4.22,0,5.1,5.1,0,0,0-2.229-.988V7.373a.885.885,0,0,0-1.771,0v8.49L34.713,1.771H70.407v21.42h0Z" transform="translate(-32.62)" fill="#231f20"/>
        <circle id="Elipse_5416" data-name="Elipse 5416" cx="0.885" cy="0.885" r="0.885" transform="translate(16.481 15.907)" fill="#231f20"/>
        <circle id="Elipse_5417" data-name="Elipse 5417" cx="0.885" cy="0.885" r="0.885" transform="translate(22.129 29.639)" fill="#231f20"/>
        <circle id="Elipse_5418" data-name="Elipse 5418" cx="0.885" cy="0.885" r="0.885" transform="translate(23.157 11.503)" fill="#231f20"/>
        <circle id="Elipse_5419" data-name="Elipse 5419" cx="0.885" cy="0.885" r="0.885" transform="translate(17.05 9.515)" fill="#231f20"/>
        <circle id="Elipse_5420" data-name="Elipse 5420" cx="0.885" cy="0.885" r="0.885" transform="translate(21.027 3.265)" fill="#231f20"/>
        <path id="Trazado_720741" data-name="Trazado 720741" d="M174.644,336.194a.886.886,0,0,0-.885-.885h-4.419a.885.885,0,1,0,0,1.771h4.419A.886.886,0,0,0,174.644,336.194Z" transform="translate(-156.427 -305.62)" fill="#231f20"/>
        <path id="Trazado_720742" data-name="Trazado 720742" d="M265.451,388.787H259.9a.885.885,0,1,0,0,1.771h5.556a.885.885,0,0,0,0-1.771Z" transform="translate(-238.965 -354.363)" fill="#231f20"/>
        <path id="Trazado_720743" data-name="Trazado 720743" d="M217.778,442.266h-4.23a.885.885,0,1,0,0,1.771h4.23a.885.885,0,1,0,0-1.771Z" transform="translate(-196.721 -403.106)" fill="#231f20"/>
      </g>
    </g>
  </g>
</svg>
