<svg xmlns="http://www.w3.org/2000/svg" width="94" height="94" viewBox="0 0 94 94">
  <g id="law" transform="translate(0.342 0.342)">
    <circle id="Elipse_5448" data-name="Elipse 5448" cx="47" cy="47" r="47" transform="translate(-0.342 -0.342)" fill="#ffc30a"/>
    <path id="Trazado_684823" data-name="Trazado 684823" d="M256.37,320.669H220.007a3.924,3.924,0,0,0-3.924,3.924v6.327h44.211v-6.327A3.924,3.924,0,0,0,256.37,320.669Z" transform="translate(-176.7 -262.225)" fill="#8e6325"/>
    <path id="Trazado_684824" data-name="Trazado 684824" d="M231.595,320.669H220.007a3.924,3.924,0,0,0-3.924,3.924v6.327h10.251v-4.991A5.26,5.26,0,0,1,231.595,320.669Z" transform="translate(-176.7 -262.225)" fill="#7f551d"/>
    <path id="Trazado_684825" data-name="Trazado 684825" d="M233.2,381.652a46.713,46.713,0,0,0,5.018-7.689H185.2a1.59,1.59,0,0,0-1.585,1.585v4.518a1.59,1.59,0,0,0,1.585,1.585Z" transform="translate(-150.146 -305.806)" fill="#9e7430"/>
    <g id="Grupo_946489" data-name="Grupo 946489" transform="translate(0.548 33.691)">
      <path id="Trazado_684826" data-name="Trazado 684826" d="M193.862,380.066v-4.518a1.59,1.59,0,0,1,1.585-1.585H185.2a1.59,1.59,0,0,0-1.585,1.585v4.518a1.59,1.59,0,0,0,1.585,1.585h10.251A1.59,1.59,0,0,1,193.862,380.066Z" transform="translate(-150.694 -339.497)" fill="#8e6325"/>
      <path id="Trazado_684827" data-name="Trazado 684827" d="M27.852,185.893a3.531,3.531,0,0,0-4.994,0l-19.853,19.1a46.331,46.331,0,0,0,2.413,9.216l22.434-23.32a3.531,3.531,0,0,0,0-4.994Z" transform="translate(-3.005 -184.859)" fill="#8e6325"/>
    </g>
    <path id="Trazado_684828" data-name="Trazado 684828" d="M91.573,190.887a3.532,3.532,0,0,0,0-4.994h0a3.531,3.531,0,0,0-4.994,0l-5.651,5.436,5.209,5.209Z" transform="translate(-66.178 -151.167)" fill="#7f551d"/>
    <path id="Trazado_684829" data-name="Trazado 684829" d="M106.434,179.691a2.843,2.843,0,0,0,0-4.02l-3.178-3.178-1.913-1.913a2.843,2.843,0,1,0-4.02,4.02l5.09,5.09A2.843,2.843,0,0,0,106.434,179.691Z" transform="translate(-78.905 -138.81)" fill="#9e7430"/>
    <path id="Trazado_684830" data-name="Trazado 684830" d="M100.891,174.149a2.843,2.843,0,0,1,4.02,0l-3.569-3.569a2.843,2.843,0,1,0-4.02,4.02l3.569,3.569A2.843,2.843,0,0,1,100.891,174.149Z" transform="translate(-78.904 -138.81)" fill="#8e6325"/>
    <rect id="Rect치ngulo_337597" data-name="Rect치ngulo 337597" width="34.477" height="21.019" transform="translate(27.515 7.405) rotate(45)" fill="#9e7430"/>
    <g id="Grupo_946490" data-name="Grupo 946490" transform="translate(12.652 14.488)">
      <rect id="Rect치ngulo_337598" data-name="Rect치ngulo 337598" width="34.477" height="11.003" transform="translate(7.78) rotate(45)" fill="#8e6325"/>
      <path id="Trazado_684831" data-name="Trazado 684831" d="M219.963,174.143l-2.908-2.908a1.833,1.833,0,0,0-2.584,0L200.02,185.686a1.833,1.833,0,0,0,0,2.584l2.908,2.908Z" transform="translate(-175.781 -154.078)" fill="#8e6325"/>
    </g>
    <path id="Trazado_684832" data-name="Trazado 684832" d="M207.394,212.447l-7.376,7.376a1.833,1.833,0,0,0,0,2.584l2.908,2.908,7.376-7.376-2.908-2.908A1.833,1.833,0,0,1,207.394,212.447Z" transform="translate(-163.128 -173.727)" fill="#7f551d"/>
    <path id="Trazado_684833" data-name="Trazado 684833" d="M228.236,178.573a2.843,2.843,0,0,0-4.02,0l-16.859,16.859a2.843,2.843,0,0,0,4.02,4.02l16.859-16.859A2.843,2.843,0,0,0,228.236,178.573Z" transform="translate(-168.884 -145.347)" fill="#9e7430"/>
    <g id="Grupo_946491" data-name="Grupo 946491" transform="translate(8.597 3.35)">
      <path id="Trazado_684834" data-name="Trazado 684834" d="M214.781,238.1a2.843,2.843,0,0,1,0-4.02l-7.423,7.423a2.843,2.843,0,0,0,4.02,4.02L218.8,238.1A2.843,2.843,0,0,1,214.781,238.1Z" transform="translate(-177.481 -194.768)" fill="#8e6325"/>
      <path id="Trazado_684835" data-name="Trazado 684835" d="M64.2,18.383l2.908,2.908a1.833,1.833,0,0,1,0,2.584L52.66,38.327a1.833,1.833,0,0,1-2.584,0l-2.908-2.908Z" transform="translate(-47.168 -18.383)" fill="#8e6325"/>
    </g>
    <path id="Trazado_684836" data-name="Trazado 684836" d="M60.036,74.293,52.66,81.669a1.833,1.833,0,0,1-2.584,0l-2.908-2.908,7.376-7.376,2.908,2.908A1.833,1.833,0,0,0,60.036,74.293Z" transform="translate(-38.571 -58.375)" fill="#7f551d"/>
    <path id="Trazado_684837" data-name="Trazado 684837" d="M50.5.832a2.843,2.843,0,0,1,0,4.02L38.627,16.722l-1.913,1.913L35.55,19.8l-1.912,1.913a2.843,2.843,0,0,1-4.02-4.02L46.476.832A2.843,2.843,0,0,1,50.5.832Z" transform="translate(-23.539)" fill="#9e7430"/>
    <path id="Trazado_684838" data-name="Trazado 684838" d="M37.04,60.359a2.843,2.843,0,0,0,4.02,0l-2.433,2.434-1.913,1.913L35.55,65.87l-1.912,1.912a2.843,2.843,0,0,1-4.02-4.02l7.423-7.423A2.842,2.842,0,0,0,37.04,60.359Z" transform="translate(-23.539 -46.071)" fill="#8e6325"/>
    <g id="Grupo_946492" data-name="Grupo 946492" transform="translate(64.203 29.262)">
      <path id="Trazado_684839" data-name="Trazado 684839" d="M353.317,169.883a1.367,1.367,0,0,1-1.015-1.645l1.57-6.63a1.367,1.367,0,0,1,2.66.63l-1.57,6.63A1.367,1.367,0,0,1,353.317,169.883Z" transform="translate(-352.265 -160.555)" fill="#e6e6e6"/>
      <path id="Trazado_684840" data-name="Trazado 684840" d="M393.037,212.243a1.367,1.367,0,0,1,.445-1.881l5.8-3.579a1.367,1.367,0,1,1,1.436,2.326l-5.8,3.579A1.367,1.367,0,0,1,393.037,212.243Z" transform="translate(-385.439 -198.191)" fill="#e6e6e6"/>
      <path id="Trazado_684841" data-name="Trazado 684841" d="M400.852,276.655a1.367,1.367,0,0,1,1.645-1.015l6.63,1.57a1.367,1.367,0,0,1-.63,2.66l-6.63-1.57A1.367,1.367,0,0,1,400.852,276.655Z" transform="translate(-391.967 -254.634)" fill="#e6e6e6"/>
    </g>
    <path id="Trazado_684842" data-name="Trazado 684842" d="M136.817,430.21H68.454a46.88,46.88,0,0,0,9.707,7.974h48.95A46.876,46.876,0,0,0,136.817,430.21Z" transform="translate(-55.978 -351.802)" fill="#0eb0ff"/>
    <g id="Grupo_946493" data-name="Grupo 946493" transform="translate(12.476 78.408)">
      <path id="Trazado_684843" data-name="Trazado 684843" d="M94.693,430.21H68.454a46.88,46.88,0,0,0,9.707,7.974H94.693A4.217,4.217,0,0,1,94.693,430.21Z" transform="translate(-68.454 -430.21)" fill="#009cf7"/>
      <path id="Trazado_684844" data-name="Trazado 684844" d="M121.713,473.961a46.668,46.668,0,0,0,48.95,0Z" transform="translate(-112.006 -465.987)" fill="#009cf7"/>
    </g>
    <path id="Trazado_684845" data-name="Trazado 684845" d="M138.246,473.961H121.713a46.4,46.4,0,0,0,14.08,5.764A4.214,4.214,0,0,1,138.246,473.961Z" transform="translate(-99.53 -387.579)" fill="#168ca8"/>
    <path id="Trazado_684846" data-name="Trazado 684846" d="M270.368,402.086H229.278a2.563,2.563,0,0,0-2.563,2.563h0a2.563,2.563,0,0,0,2.563,2.563h36.958A46.849,46.849,0,0,0,270.368,402.086Z" transform="translate(-185.395 -328.803)" fill="#8e6325"/>
    <path id="Trazado_684847" data-name="Trazado 684847" d="M182.724,402.087H172.611a2.563,2.563,0,0,0-2.563,2.563h0a2.563,2.563,0,0,0,2.563,2.563h10.113A2.61,2.61,0,0,1,182.724,402.087Z" transform="translate(-139.056 -328.804)" fill="#7f551d"/>
  </g>
</svg>
