<svg xmlns="http://www.w3.org/2000/svg" width="105" height="105" viewBox="0 0 105 105">
  <g id="Grupo_956484" data-name="Grupo 956484" transform="translate(-1102 -12242)">
    <circle id="Elipse_5348" data-name="Elipse 5348" cx="52.5" cy="52.5" r="52.5" transform="translate(1102 12242)" fill="#adc46c"/>
    <g id="clorofila" transform="translate(1131.991 12271)">
      <path id="Trazado_721728" data-name="Trazado 721728" d="M458.932,369.462A1.462,1.462,0,1,1,457.47,368,1.462,1.462,0,0,1,458.932,369.462Zm0,0" transform="translate(-414.322 -334.366)" fill="#fcd770"/>
      <path id="Trazado_721729" data-name="Trazado 721729" d="M384.782,98.194v5.849l-4.387,2.194-4.387-2.194V98.194L380.395,96Zm0,0" transform="translate(-341.634 -87.226)" fill="#fcd770"/>
      <path id="Trazado_721730" data-name="Trazado 721730" d="M336.782,186.194v5.849l-4.387,2.194-4.387-2.194v-5.849L332.395,184Zm0,0" transform="translate(-298.021 -167.183)" fill="#b4dd7f"/>
      <path id="Trazado_721731" data-name="Trazado 721731" d="M310.588,274.193v5.849l-4.387,2.194-1.894-.943a13.713,13.713,0,0,0,.431-3.444,14.011,14.011,0,0,0-.717-4.423l-.015-.329L306.2,272Zm0,0" transform="translate(-276.214 -247.14)" fill="#ffc729"/>
      <path id="Trazado_721732" data-name="Trazado 721732" d="M288.782,98.194v5.849l-4.387,2.194-4.387-2.194V98.194a1.458,1.458,0,0,0,1.163-.585L284.395,96Zm0,0" transform="translate(-254.408 -87.226)" fill="#b4dd7f"/>
      <path id="Trazado_721733" data-name="Trazado 721733" d="M246.524,186.194v5.849l-2.193,1.1-.087.044a13.956,13.956,0,0,0-5.8-7.114l-.117-.168,3.809-1.9Zm0,0" transform="translate(-216.538 -167.183)" fill="#fcd770"/>
      <path id="Trazado_721734" data-name="Trazado 721734" d="M35.095,77.168c-.036-.1-.073-.19-.1-.285a13.956,13.956,0,0,0-5.8-7.114c-.015-.007-.029-.022-.044-.029A2.957,2.957,0,0,1,27.768,67.2V56H16.07V67.224a2.92,2.92,0,0,1-1.36,2.508,13.888,13.888,0,1,0,20.67,15.3,13.712,13.712,0,0,0,.431-3.444A14.011,14.011,0,0,0,35.095,77.168Zm0,0" transform="translate(-7.287 -50.882)" fill="#e6e9ed"/>
      <path id="Trazado_721735" data-name="Trazado 721735" d="M265.47,88a1.462,1.462,0,1,0,1.163,2.34,1.432,1.432,0,0,0,.3-.878A1.467,1.467,0,0,0,265.47,88Zm0,0" transform="translate(-239.87 -79.957)" fill="#fcd770"/>
      <path id="Trazado_721736" data-name="Trazado 721736" d="M80.913,8.643a2.192,2.192,0,0,1-1.55,3.744H66.2A2.194,2.194,0,0,1,66.2,8H79.362A2.188,2.188,0,0,1,80.913,8.643Zm0,0" transform="translate(-58.15 -7.269)" fill="#aab2bd"/>
      <path id="Trazado_721737" data-name="Trazado 721737" d="M101.857,249.548h-.073a5.792,5.792,0,0,1-5.777-5.776,5.777,5.777,0,0,1,.76-2.866L101.857,232l5.089,8.906a5.777,5.777,0,0,1-5.016,8.642Zm0,0" transform="translate(-87.225 -210.796)" fill="#b4dd7f"/>
      <path id="Trazado_721738" data-name="Trazado 721738" d="M94.588,215.871l-5.723,10.015a6.509,6.509,0,0,0,4.991,9.706v2.958H95.32v-2.958a6.509,6.509,0,0,0,4.992-9.7Zm.731,18.243v-4.827l2.047-2.729-1.17-.877-.878,1.17v-4.387H93.857v7.74l-1.677-1.677-1.034,1.034,2.71,2.71v1.843a5.043,5.043,0,0,1-3.722-7.5l4.453-7.792,4.454,7.793a5.043,5.043,0,0,1-3.723,7.5Zm0,0" transform="translate(-79.956 -196.141)"/>
      <path id="Trazado_721739" data-name="Trazado 721739" d="M354.528,213.925l-.654-1.308-1.867.934v3.138l1.867.934.654-1.308-1.058-.529v-1.331Zm0,0" transform="translate(-319.827 -193.185)"/>
      <path id="Trazado_721740" data-name="Trazado 721740" d="M43.879,33.037V26.6l-4.387-2.194V19.462l3.983-1.992-.654-1.308-4.06,2.03-3.656-1.828V11.42l3.656-1.828,4.06,2.03.654-1.308L39.492,8.322v-5.4H38.03v5.4L34.374,10.15l-4.06-2.03L29.66,9.428l3.983,1.991v4.945l-3.656,1.828-3.656-1.828v-4.8a2.194,2.194,0,1,0-1.462,0v4.8l-3.05,1.525a2.3,2.3,0,0,1-.605-1.569V5.849a2.925,2.925,0,0,0,0-5.849H8.052a2.925,2.925,0,0,0,0,5.849v10.5a2.191,2.191,0,0,1-1.012,1.88A14.616,14.616,0,0,0,12.963,45.24a15.388,15.388,0,0,0,1.693.094,14.456,14.456,0,0,0,9.727-3.727,14.645,14.645,0,0,0,4.165-6.413l.708.354V41.4l4.792,2.4.654-1.308-3.984-1.991V35.548L34.7,33.556l.4-.2V27.505l3.656-1.828,3.656,1.828v5.532a2.194,2.194,0,1,0,1.462,0ZM29.256,19.462v4.945l-1.162.581a14.522,14.522,0,0,0-4.93-6.136L25.6,17.634ZM25.6,8.774a.731.731,0,1,1-.731.731A.731.731,0,0,1,25.6,8.774ZM23.408,40.518A13.156,13.156,0,1,1,7.8,19.476a3.582,3.582,0,0,0,1.511-1.928H13.9V16.086H9.514V14.623h5.849V13.161H9.514V11.7H13.9V10.236H9.514V8.774h5.849V7.312H9.514V4.387H8.052a1.462,1.462,0,0,1,0-2.925H21.213a1.462,1.462,0,0,1,0,2.925H12.439V5.849h7.312V16.321a3.705,3.705,0,0,0,1.729,3.163,13.147,13.147,0,0,1,1.929,21.034Zm6.579-6.239-1.053-.526a14.617,14.617,0,0,0-.335-7.381l1.388-.694,3.656,1.828v4.945Zm8.043-9.871-3.656,1.828-3.656-1.828V19.462l3.656-1.828,3.656,1.828Zm5.118,11.42a.731.731,0,1,1,.731-.731A.732.732,0,0,1,43.148,35.827Zm0,0" transform="translate(0)"/>
    </g>
  </g>
</svg>
