<svg xmlns="http://www.w3.org/2000/svg" width="105" height="105" viewBox="0 0 105 105">
  <g id="Grupo_956489" data-name="Grupo 956489" transform="translate(136 -542)">
    <circle id="Elipse_7680" data-name="Elipse 7680" cx="52.5" cy="52.5" r="52.5" transform="translate(-136 542)" fill="#adc46c"/>
    <g id="peroxido-de-hidrogeno" transform="translate(-112.707 564.293)">
      <g id="Grupo_956440" data-name="Grupo 956440" transform="translate(7.455 7.455)">
        <circle id="Elipse_7682" data-name="Elipse 7682" cx="21.919" cy="21.919" r="21.919" fill="#fff"/>
        <path id="Trazado_721761" data-name="Trazado 721761" d="M34.03,54.5q-.7.045-1.4.045a21.919,21.919,0,0,1,0-43.838q.706,0,1.4.045a21.919,21.919,0,0,0,0,43.748Z" transform="translate(-10.709 -10.709)" fill="#ffefee"/>
        <path id="Trazado_721762" data-name="Trazado 721762" d="M143.82,32.629A21.918,21.918,0,0,1,121.9,54.548q-.706,0-1.4-.045a21.919,21.919,0,0,0,0-43.748q.7-.045,1.4-.045A21.918,21.918,0,0,1,143.82,32.629Z" transform="translate(-99.982 -10.709)" fill="#ffcfcf"/>
        <g id="Grupo_956439" data-name="Grupo 956439" transform="translate(5.094 11.054)">
          <g id="Grupo_956438" data-name="Grupo 956438" transform="translate(0.001)">
            <circle id="Elipse_7683" data-name="Elipse 7683" cx="4.482" cy="4.482" r="4.482" transform="translate(0 0.814)" fill="#5fcdff"/>
            <circle id="Elipse_7684" data-name="Elipse 7684" cx="4.482" cy="4.482" r="4.482" transform="translate(6.266 12.766)" fill="#5fcdff"/>
            <circle id="Elipse_7685" data-name="Elipse 7685" cx="4.482" cy="4.482" r="4.482" transform="translate(15.231)" fill="#5fcdff"/>
            <circle id="Elipse_7686" data-name="Elipse 7686" cx="4.482" cy="4.482" r="4.482" transform="translate(24.686 12.766)" fill="#5fcdff"/>
          </g>
          <path id="Trazado_721763" data-name="Trazado 721763" d="M43.5,83.055a4.482,4.482,0,1,1,0-8.713,4.483,4.483,0,0,0,0,8.713Z" transform="translate(-37.963 -73.402)" fill="#73d7f9"/>
          <path id="Trazado_721764" data-name="Trazado 721764" d="M77.038,147.012a4.482,4.482,0,1,1,0-8.713,4.483,4.483,0,0,0,0,8.713Z" transform="translate(-65.23 -125.407)" fill="#73d7f9"/>
          <path id="Trazado_721765" data-name="Trazado 721765" d="M125.011,78.7a4.479,4.479,0,0,1-5.54-4.4,4.487,4.487,0,0,1,5.54-4.315,4.483,4.483,0,0,0,0,8.712Z" transform="translate(-104.238 -69.86)" fill="#73d7f9"/>
          <path id="Trazado_721766" data-name="Trazado 721766" d="M175.606,147.012a4.482,4.482,0,1,1,0-8.713,4.483,4.483,0,0,0,0,8.713Z" transform="translate(-145.378 -125.407)" fill="#73d7f9"/>
          <path id="Trazado_721767" data-name="Trazado 721767" d="M61.828,78.7a4.486,4.486,0,0,1-5.541,4.356,4.483,4.483,0,0,0,0-8.713A4.486,4.486,0,0,1,61.828,78.7Z" transform="translate(-52.863 -73.402)" fill="#30b6ff"/>
          <path id="Trazado_721768" data-name="Trazado 721768" d="M95.357,142.657a4.488,4.488,0,0,1-5.542,4.356,4.483,4.483,0,0,0,0-8.713,4.488,4.488,0,0,1,5.542,4.356Z" transform="translate(-80.125 -125.408)" fill="#30b6ff"/>
          <path id="Trazado_721769" data-name="Trazado 721769" d="M143.328,74.3a4.48,4.48,0,0,1-5.54,4.4,4.483,4.483,0,0,0,0-8.713,4.487,4.487,0,0,1,5.54,4.316Z" transform="translate(-119.133 -69.859)" fill="#30b6ff"/>
          <path id="Trazado_721770" data-name="Trazado 721770" d="M193.925,142.657a4.488,4.488,0,0,1-5.542,4.356,4.483,4.483,0,0,0,0-8.713,4.488,4.488,0,0,1,5.542,4.356Z" transform="translate(-160.273 -125.408)" fill="#30b6ff"/>
        </g>
      </g>
      <g id="Grupo_956441" data-name="Grupo 956441" transform="translate(6.707 6.707)">
        <path id="Trazado_721771" data-name="Trazado 721771" d="M61.427,79.238l-3.209-4.553a5.228,5.228,0,1,0-7.274.3l-3.025,4.254a5.213,5.213,0,0,0-4.885-.015l-1.582-2.6a5.228,5.228,0,1,0-1.474.454l1.842,3.032a5.228,5.228,0,1,0,7.3.019l3.066-4.311a5.213,5.213,0,0,0,4.854-.2l3.178,4.51a5.225,5.225,0,1,0,1.2-.885ZM35.461,71.9A3.735,3.735,0,1,1,39.2,75.637,3.739,3.739,0,0,1,35.461,71.9ZM49.2,83.854a3.735,3.735,0,1,1-3.735-3.735A3.739,3.739,0,0,1,49.2,83.854Zm1.5-12.766a3.735,3.735,0,1,1,3.735,3.735A3.739,3.739,0,0,1,50.692,71.088Zm13.19,16.5a3.735,3.735,0,1,1,3.735-3.735A3.739,3.739,0,0,1,63.882,87.589Z" transform="translate(-28.872 -54.804)" fill="#5f266d"/>
        <path id="Trazado_721772" data-name="Trazado 721772" d="M55.125,85.025c-1.087,0-.919-.108-.919,1.747H52.934V85.4a.374.374,0,0,0-.374-.374h-.539a.374.374,0,0,0-.374.374v4.175a.374.374,0,0,0,.374.374h.539a.374.374,0,0,0,.374-.374V87.99h1.272c0,2.108-.16,1.958.919,1.958a.374.374,0,0,0,.374-.374V85.4A.374.374,0,0,0,55.125,85.025Z" transform="translate(-43.25 -70.388)" fill="#5f266d"/>
        <path id="Trazado_721773" data-name="Trazado 721773" d="M187.221,148.98c-1.086,0-.919-.108-.919,1.747H185.03v-1.373a.374.374,0,0,0-.374-.374h-.539a.374.374,0,0,0-.374.374v4.175a.374.374,0,0,0,.374.374c1.1,0,.913.122.913-1.958H186.3c0,2.108-.16,1.958.919,1.958a.374.374,0,0,0,.374-.374v-4.175A.374.374,0,0,0,187.221,148.98Z" transform="translate(-150.66 -122.391)" fill="#5f266d"/>
        <path id="Trazado_721774" data-name="Trazado 721774" d="M83.271,151.164c0,3.342,4.563,3.352,4.563-.081C87.835,147.736,83.271,147.76,83.271,151.164Zm2.282,1.305c-1.286,0-1.28-2.684.006-2.684.758,0,.958.866.958,1.324C86.517,151.786,86.219,152.469,85.553,152.469Z" transform="translate(-68.963 -122.077)" fill="#5f266d"/>
        <path id="Trazado_721775" data-name="Trazado 721775" d="M131.243,82.851c0,3.346,4.563,3.348,4.563-.081C135.806,79.423,131.243,79.447,131.243,82.851Zm3.246-.056c0,1.835-1.922,1.8-1.922.043C132.566,80.977,134.489,81.045,134.489,82.8Z" transform="translate(-107.97 -66.53)" fill="#5f266d"/>
        <path id="Trazado_721776" data-name="Trazado 721776" d="M29.374,6.707A22.667,22.667,0,1,0,52.041,29.374,22.693,22.693,0,0,0,29.374,6.707Zm0,43.839A21.172,21.172,0,1,1,50.546,29.374,21.2,21.2,0,0,1,29.374,50.546Z" transform="translate(-6.707 -6.707)" fill="#5f266d"/>
        <path id="Trazado_721777" data-name="Trazado 721777" d="M213.147,103.692q.083.33.158.674a.748.748,0,1,0,1.461-.319q-.08-.367-.169-.719a.748.748,0,0,0-1.45.365Z" transform="translate(-174.549 -84.812)" fill="#5f266d"/>
        <path id="Trazado_721778" data-name="Trazado 721778" d="M184.039,55.328a13.71,13.71,0,0,1,4.352,6.1.747.747,0,1,0,1.388-.555,14.874,14.874,0,0,0-4.921-6.8A.747.747,0,0,0,184.039,55.328Z" transform="translate(-150.622 -45.118)" fill="#5f266d"/>
      </g>
    </g>
  </g>
</svg>
