<svg xmlns="http://www.w3.org/2000/svg" width="94" height="94.299" viewBox="0 0 94 94.299">
  <g id="agua-contaminada" transform="translate(-0.812)">
    <path id="Trazado_719248" data-name="Trazado 719248" d="M94.812,47.15A47.15,47.15,0,0,1,47.663,94.3c-62.476-2.311-62.459-92,0-94.3A47.149,47.149,0,0,1,94.812,47.15Z" transform="translate(0)" fill="#f1cc4b" fill-rule="evenodd"/>
    <path id="Trazado_719249" data-name="Trazado 719249" d="M171.4,129.444a1.63,1.63,0,1,1,1.63,1.629A1.631,1.631,0,0,1,171.4,129.444Zm4.955,12.839-4.609,4.609a1.63,1.63,0,0,0,2.3,2.3l4.609-4.609A1.63,1.63,0,0,0,176.35,142.282Zm-3.325,18.34a18.523,18.523,0,0,1-16.287-27.345l14.854-27.423a1.63,1.63,0,0,1,2.866,0l14.854,27.423a18.523,18.523,0,0,1-16.287,27.345Zm-4.889-31.179a4.889,4.889,0,1,0,4.889-4.889A4.894,4.894,0,0,0,168.136,129.444Zm-1.086,8.691a1.63,1.63,0,1,0-1.63,1.629A1.631,1.631,0,0,0,167.05,138.135Zm14.864,3.193.582-.582a1.629,1.629,0,1,0-2.3-2.3l-.581.582a4.9,4.9,0,0,0-4.214,0l-.582-.582a1.629,1.629,0,1,0-2.3,2.3l.384.384-2.3,2.3-.384-.384a1.629,1.629,0,1,0-2.3,2.3l.582.582a4.9,4.9,0,0,0,0,4.214l-.582.582a1.629,1.629,0,0,0,2.3,2.3l.581-.582a4.9,4.9,0,0,0,4.214,0l.582.582a1.629,1.629,0,0,0,2.3-2.3l-.384-.384,2.3-2.3.384.384a1.629,1.629,0,0,0,2.3-2.3l-.582-.582A4.9,4.9,0,0,0,181.914,141.327Z" transform="translate(-125.362 -85.662)" fill="#0540b7"/>
  </g>
</svg>
