<svg xmlns="http://www.w3.org/2000/svg" width="55" height="55" viewBox="0 0 55 55">
  <g id="Grupo_948336" data-name="Grupo 948336" transform="translate(-705 -1207)">
    <circle id="Elipse_4813" data-name="Elipse 4813" cx="27.5" cy="27.5" r="27.5" transform="translate(705 1207)" fill="#80cab6"/>
    <g id="matraz-2" transform="translate(697.963 1214.9)">
      <g id="Grupo_945649" data-name="Grupo 945649" transform="translate(17.067)">
        <path id="Trazado_683992" data-name="Trazado 683992" d="M43.577,94.928l-7.9-13.551a2.353,2.353,0,0,1-.321-1.186V71.649H25.94v8.543a2.353,2.353,0,0,1-.321,1.186l-7.9,13.551a4.706,4.706,0,0,0,4.065,7.077H39.512a4.706,4.706,0,0,0,4.065-7.077Z" transform="translate(-17.067 -66.71)" fill="#e6ffff"/>
        <path id="Trazado_683993" data-name="Trazado 683993" d="M268.479,94.928l-7.9-13.551a2.353,2.353,0,0,1-.321-1.186V71.649h-1.633v8.543a2.353,2.353,0,0,0,.321,1.186l7.9,13.551a4.706,4.706,0,0,1-4.065,7.077h1.633A4.706,4.706,0,0,0,268.479,94.928Z" transform="translate(-241.969 -66.71)" fill="#b3f2ff"/>
        <path id="Trazado_683994" data-name="Trazado 683994" d="M145.781,71.649h9.412v1.988h-9.412Z" transform="translate(-136.908 -66.71)" fill="#b3f2ff"/>
        <path id="Trazado_683995" data-name="Trazado 683995" d="M68.979,292.121l-.989-1.7a.588.588,0,0,0-.508-.292H57.331a.588.588,0,0,0-.508.292l-5.315,9.111a2.353,2.353,0,0,0,2.032,3.539H68.6Z" transform="translate(-48.827 -270.132)" fill="#2ee6a8"/>
        <circle id="Elipse_5400" data-name="Elipse 5400" cx="1.177" cy="1.177" r="1.177" transform="translate(6.754 30.058) rotate(-67.486)" fill="#24b3b3"/>
        <circle id="Elipse_5401" data-name="Elipse 5401" cx="1.177" cy="1.177" r="1.177" transform="matrix(0.987, -0.16, 0.16, 0.987, 13.989, 22.558)" fill="#24b3b3"/>
        <path id="Trazado_683996" data-name="Trazado 683996" d="M124.663,5.294H112.751a1.1,1.1,0,0,1-1.1-1.1V2.206A2.206,2.206,0,0,1,113.854,0h9.706a2.206,2.206,0,0,1,2.206,2.206V4.191A1.1,1.1,0,0,1,124.663,5.294Z" transform="translate(-105.128 0)" fill="#e6ffff"/>
        <path id="Trazado_683997" data-name="Trazado 683997" d="M261.421,0h-1.633a2.273,2.273,0,0,1,2.273,2.273V4.158a1.136,1.136,0,0,1-1.136,1.136h1.633a1.136,1.136,0,0,0,1.136-1.136V2.273A2.273,2.273,0,0,0,261.421,0Z" transform="translate(-243.056)" fill="#b3f2ff"/>
        <g id="Grupo_945648" data-name="Grupo 945648" transform="translate(16.576 7.703)">
          <path id="Trazado_683998" data-name="Trazado 683998" d="M258.055,112.805h1.177V111.74h-1.177a.533.533,0,0,0,0,1.065Z" transform="translate(-257.522 -111.74)" fill="#4d4d8c"/>
          <path id="Trazado_683999" data-name="Trazado 683999" d="M258.055,164.005h1.177V162.94h-1.177a.533.533,0,0,0,0,1.065Z" transform="translate(-257.522 -159.41)" fill="#4d4d8c"/>
        </g>
      </g>
      <g id="Grupo_945650" data-name="Grupo 945650" transform="translate(31.543 16.835)">
        <circle id="Elipse_5402" data-name="Elipse 5402" cx="7.647" cy="7.647" r="7.647" transform="translate(0 10.813) rotate(-45)" fill="#80d4ff"/>
        <path id="Trazado_684000" data-name="Trazado 684000" d="M372.97,290.133a7.737,7.737,0,0,0-.817.043,7.648,7.648,0,0,1,0,15.208,7.647,7.647,0,1,0,.817-15.251Z" transform="translate(-362.151 -286.967)" fill="#4da6ff"/>
        <path id="Trazado_684001" data-name="Trazado 684001" d="M340.449,327.348a5.092,5.092,0,0,0,.106-1.036v-.706a.533.533,0,1,0-1.065,0v.706a4.037,4.037,0,0,1-.036.526h-4.746a4.027,4.027,0,0,1-.036-.526v-.706a.533.533,0,1,0-1.065,0v.706a5.087,5.087,0,0,0,.106,1.036,4.245,4.245,0,0,0,2.142,2.964,4.245,4.245,0,0,0-2.142,2.964,5.083,5.083,0,0,0-.106,1.036v.706a.533.533,0,1,0,1.065,0v-.706a4.028,4.028,0,0,1,.036-.526h4.746a4.038,4.038,0,0,1,.036.526v.706a.533.533,0,1,0,1.065,0v-.706a5.092,5.092,0,0,0-.106-1.036,4.246,4.246,0,0,0-2.142-2.964A4.246,4.246,0,0,0,340.449,327.348Zm-1.293,5.373h-4.149a2.943,2.943,0,0,1,1.367-1.478l.708-.34.708.34A2.942,2.942,0,0,1,339.156,332.721Zm-1.367-3.339-.708.34-.708-.34a2.942,2.942,0,0,1-1.367-1.478h4.149A2.942,2.942,0,0,1,337.79,329.382Z" transform="translate(-326.263 -319.499)" fill="#fff5f5"/>
      </g>
    </g>
  </g>
</svg>
