<svg xmlns="http://www.w3.org/2000/svg" width="55" height="55.01" viewBox="0 0 55 55.01">
  <g id="Grupo_948342" data-name="Grupo 948342" transform="translate(-104 -267.69)">
    <circle id="Elipse_4814" data-name="Elipse 4814" cx="27.5" cy="27.5" r="27.5" transform="translate(104 267.7)" fill="#80cab6"/>
    <g id="escala-de-laboratorio" transform="translate(117.896 267.69)">
      <path id="Trazado_683959" data-name="Trazado 683959" d="M65.464,482.091l-.413.074v1.745a.4.4,0,0,0,.4.4h5.13a.4.4,0,0,0,.355-.21L72,482.165l-.446-.074Z" transform="translate(-65.051 -446.253)" fill="#766e6e"/>
      <path id="Trazado_683960" data-name="Trazado 683960" d="M360.019,482.091h-6.091l-.474.074,1.061,1.939a.4.4,0,0,0,.355.21H360a.4.4,0,0,0,.4-.4v-1.745Z" transform="translate(-332.015 -446.253)" fill="#766e6e"/>
      <g id="Grupo_945621" data-name="Grupo 945621" transform="translate(6.2 0)">
        <g id="Grupo_945620" data-name="Grupo 945620" transform="translate(0)">
          <path id="Trazado_683961" data-name="Trazado 683961" d="M162.339,0H148.811a.355.355,0,0,0-.3.552l1.216,1.824a.71.71,0,0,1,.119.394v7.909l.118.074H153.8a.309.309,0,0,1,.309.309V13.7a.309.309,0,0,1-.309.309h-3.843l-.1.074v4.223a.7.7,0,0,0,.063.292h13.072a.706.706,0,0,0,.063-.292V.71a.71.71,0,0,0-.71-.71Z" transform="translate(-148.455 0)" fill="#dff6fd"/>
          <g id="Grupo_945615" data-name="Grupo 945615" transform="translate(0 0)">
            <path id="Trazado_683962" data-name="Trazado 683962" d="M149.851,10.678H153.1V2.769a.71.71,0,0,0-.119-.394L151.762.552a.355.355,0,0,1,.3-.552h-3.247a.355.355,0,0,0-.3.552l1.216,1.824a.71.71,0,0,1,.119.394Z" transform="translate(-148.455 0)" fill="#c8effe"/>
            <path id="Trazado_683963" data-name="Trazado 683963" d="M170.475,189.461h-3.247v4.223a.7.7,0,0,0,.063.292h3.247a.707.707,0,0,1-.063-.292Z" transform="translate(-165.832 -175.377)" fill="#c8effe"/>
          </g>
          <g id="Grupo_945616" data-name="Grupo 945616" transform="translate(3.418 8.326)">
            <path id="Trazado_683964" data-name="Trazado 683964" d="M194.432,112.238v7.53a.243.243,0,0,0,.243.243h8.668a.243.243,0,0,0,.243-.243v-7.53a.243.243,0,0,0-.243-.243h-8.668A.243.243,0,0,0,194.432,112.238Z" transform="translate(-194.432 -111.995)" fill="#fac600"/>
          </g>
          <g id="Grupo_945617" data-name="Grupo 945617" transform="translate(3.418 8.326)">
            <path id="Trazado_683965" data-name="Trazado 683965" d="M197.018,119.768v-7.53a.243.243,0,0,1,.243-.243h-2.586a.243.243,0,0,0-.243.243v7.53a.243.243,0,0,0,.243.243h2.586A.243.243,0,0,1,197.018,119.768Z" transform="translate(-194.432 -111.995)" fill="#e8b800"/>
          </g>
          <g id="Grupo_945618" data-name="Grupo 945618" transform="translate(1.395 10.678)">
            <path id="Trazado_683966" data-name="Trazado 683966" d="M167.227,147.049h3.946a.383.383,0,0,0,.383-.383v-2.64a.383.383,0,0,0-.383-.383h-3.946Z" transform="translate(-167.227 -143.643)" fill="#b9acac"/>
          </g>
          <g id="Grupo_945619" data-name="Grupo 945619" transform="translate(1.395 10.678)">
            <path id="Trazado_683967" data-name="Trazado 683967" d="M167.227,143.643h1.928v3.406h-1.928Z" transform="translate(-167.227 -143.643)" fill="#9e9797"/>
          </g>
        </g>
        <path id="Trazado_683968" data-name="Trazado 683968" d="M255.3,41.305a.558.558,0,1,0,0-1.115h-1.141V38.231H255.3a.558.558,0,1,0,0-1.115h-1.7a.557.557,0,0,0-.558.558v9.95a.557.557,0,0,0,.558.558h1.7a.558.558,0,1,0,0-1.115h-1.141V45.107H255.3a.558.558,0,1,0,0-1.115h-1.141V41.305Z" transform="translate(-245.265 -34.357)" fill="#62dbfb"/>
      </g>
      <g id="Grupo_945647" data-name="Grupo 945647" transform="translate(0 18.525)">
        <g id="Grupo_945624" data-name="Grupo 945624" transform="translate(0 12.084)">
          <g id="Grupo_945622" data-name="Grupo 945622" transform="translate(0 5.304)">
            <path id="Trazado_683969" data-name="Trazado 683969" d="M67.653,484.836v-1.745h-2.6v1.745a.4.4,0,0,0,.4.4h2.6A.4.4,0,0,1,67.653,484.836Z" transform="translate(-65.051 -483.091)" fill="#5b5555"/>
          </g>
          <g id="Grupo_945623" data-name="Grupo 945623" transform="translate(21.439 5.304)">
            <path id="Trazado_683970" data-name="Trazado 683970" d="M357.092,485.03l-1.061-1.939h-2.577l1.061,1.939a.4.4,0,0,0,.355.21h2.577A.4.4,0,0,1,357.092,485.03Z" transform="translate(-353.454 -483.091)" fill="#5b5555"/>
          </g>
          <path id="Trazado_683971" data-name="Trazado 683971" d="M92.867,411.748H65.625l-.574.074v5.229h28.39v-5.229Z" transform="translate(-65.051 -411.748)" fill="#c8effe"/>
        </g>
        <g id="Grupo_945625" data-name="Grupo 945625" transform="translate(3.84 2.593)">
          <path id="Trazado_683972" data-name="Trazado 683972" d="M116.71,284.079h20.709v2.293H116.71Z" transform="translate(-116.71 -284.079)" fill="#766e6e"/>
        </g>
        <g id="Grupo_945626" data-name="Grupo 945626" transform="translate(3.84 2.593)">
          <path id="Trazado_683973" data-name="Trazado 683973" d="M116.71,284.079h3.232v2.293H116.71Z" transform="translate(-116.71 -284.079)" fill="#5b5555"/>
        </g>
        <g id="Grupo_945627" data-name="Grupo 945627" transform="translate(0 12.158)">
          <path id="Trazado_683974" data-name="Trazado 683974" d="M65.051,412.747h3.244v5.229H65.051Z" transform="translate(-65.051 -412.747)" fill="#99e6fc"/>
        </g>
        <g id="Grupo_945628" data-name="Grupo 945628" transform="translate(16.622 13.883)">
          <path id="Trazado_683975" data-name="Trazado 683975" d="M291.962,437.729h-3.074a.243.243,0,0,1-.243-.243v-1.294a.243.243,0,0,1,.243-.243h3.074a.243.243,0,0,1,.243.243v1.294A.243.243,0,0,1,291.962,437.729Z" transform="translate(-288.645 -435.949)" fill="#05e39c"/>
        </g>
        <g id="Grupo_945629" data-name="Grupo 945629" transform="translate(16.622 13.883)">
          <path id="Trazado_683976" data-name="Trazado 683976" d="M289.935,437.486v-1.294a.243.243,0,0,1,.243-.243h-1.289a.243.243,0,0,0-.243.243v1.294a.243.243,0,0,0,.243.243h1.289A.243.243,0,0,1,289.935,437.486Z" transform="translate(-288.646 -435.949)" fill="#0ed290"/>
        </g>
        <g id="Grupo_945630" data-name="Grupo 945630" transform="translate(22.042 13.883)">
          <path id="Trazado_683977" data-name="Trazado 683977" d="M364.872,437.729H361.8a.243.243,0,0,1-.243-.243v-1.294a.243.243,0,0,1,.243-.243h3.074a.243.243,0,0,1,.243.243v1.294A.243.243,0,0,1,364.872,437.729Z" transform="translate(-361.555 -435.949)" fill="#fe3d97"/>
        </g>
        <g id="Grupo_945631" data-name="Grupo 945631" transform="translate(22.042 13.883)">
          <path id="Trazado_683978" data-name="Trazado 683978" d="M362.822,437.486v-1.294a.243.243,0,0,1,.243-.243H361.8a.243.243,0,0,0-.243.243v1.294a.243.243,0,0,0,.243.243h1.266A.243.243,0,0,1,362.822,437.486Z" transform="translate(-361.555 -435.949)" fill="#e41e7f"/>
        </g>
        <g id="Grupo_945632" data-name="Grupo 945632" transform="translate(0 4.809)">
          <path id="Trazado_683979" data-name="Trazado 683979" d="M90.013,313.892H68.479a1.213,1.213,0,0,0-1.146.813l-2.282,6.535h28.39l-2.282-6.535A1.214,1.214,0,0,0,90.013,313.892Z" transform="translate(-65.051 -313.892)" fill="#b9acac"/>
        </g>
        <g id="Grupo_945633" data-name="Grupo 945633" transform="translate(0 4.809)">
          <path id="Trazado_683980" data-name="Trazado 683980" d="M71.723,313.892H68.479a1.214,1.214,0,0,0-1.146.813l-2.282,6.535h3.244l2.282-6.535A1.214,1.214,0,0,1,71.723,313.892Z" transform="translate(-65.051 -313.892)" fill="#9e9797"/>
        </g>
        <g id="Grupo_945634" data-name="Grupo 945634" transform="translate(3.318 7.048)">
          <path id="Trazado_683981" data-name="Trazado 683981" d="M109.7,346.34l.72-2.063a.4.4,0,0,1,.382-.271h19.5a.4.4,0,0,1,.382.271l.72,2.063a.4.4,0,0,1-.382.538H110.086A.4.4,0,0,1,109.7,346.34Z" transform="translate(-109.681 -344.006)" fill="#01c0fa"/>
        </g>
        <g id="Grupo_945635" data-name="Grupo 945635" transform="translate(3.318 7.048)">
          <path id="Trazado_683982" data-name="Trazado 683982" d="M112.922,346.34l.72-2.063a.4.4,0,0,1,.382-.271h-3.219a.4.4,0,0,0-.382.271l-.72,2.063a.4.4,0,0,0,.382.538H113.3A.4.4,0,0,1,112.922,346.34Z" transform="translate(-109.68 -344.006)" fill="#08a9f1"/>
        </g>
        <g id="Grupo_945636" data-name="Grupo 945636" transform="translate(2.761 6.49)">
          <path id="Trazado_683983" data-name="Trazado 683983" d="M124.094,340.493H103.149a.962.962,0,0,1-.908-1.279h0l.72-2.063a.963.963,0,0,1,.908-.645h19.5a.963.963,0,0,1,.908.645l.72,2.063a.962.962,0,0,1-.908,1.279Zm-20.8-.912h0Zm.071-.2h20.514l-.613-1.757H103.978Z" transform="translate(-102.187 -336.506)" fill="#766e6e"/>
        </g>
        <g id="Grupo_945644" data-name="Grupo 945644" transform="translate(2.352 14.246)">
          <g id="Grupo_945643" data-name="Grupo 945643">
            <g id="Grupo_945637" data-name="Grupo 945637">
              <path id="Trazado_683984" data-name="Trazado 683984" d="M97.658,441.955h-.4a.558.558,0,1,1,0-1.115h.4a.558.558,0,1,1,0,1.115Z" transform="translate(-96.696 -440.84)" fill="#01c0fa"/>
            </g>
            <g id="Grupo_945638" data-name="Grupo 945638" transform="translate(2.225)">
              <path id="Trazado_683985" data-name="Trazado 683985" d="M127.584,441.955h-.4a.558.558,0,1,1,0-1.115h.4a.558.558,0,1,1,0,1.115Z" transform="translate(-126.622 -440.84)" fill="#01c0fa"/>
            </g>
            <g id="Grupo_945639" data-name="Grupo 945639" transform="translate(4.449)">
              <path id="Trazado_683986" data-name="Trazado 683986" d="M157.509,441.955h-.4a.558.558,0,1,1,0-1.115h.4a.558.558,0,1,1,0,1.115Z" transform="translate(-156.547 -440.84)" fill="#01c0fa"/>
            </g>
            <g id="Grupo_945640" data-name="Grupo 945640" transform="translate(6.674)">
              <path id="Trazado_683987" data-name="Trazado 683987" d="M187.435,441.955h-.4a.558.558,0,1,1,0-1.115h.4a.558.558,0,1,1,0,1.115Z" transform="translate(-186.473 -440.84)" fill="#01c0fa"/>
            </g>
            <g id="Grupo_945641" data-name="Grupo 945641" transform="translate(8.899)">
              <path id="Trazado_683988" data-name="Trazado 683988" d="M217.361,441.955h-.4a.558.558,0,1,1,0-1.115h.4a.558.558,0,1,1,0,1.115Z" transform="translate(-216.399 -440.84)" fill="#01c0fa"/>
            </g>
            <g id="Grupo_945642" data-name="Grupo 945642" transform="translate(11.123)">
              <path id="Trazado_683989" data-name="Trazado 683989" d="M247.286,441.955h-.4a.558.558,0,1,1,0-1.115h.4a.558.558,0,1,1,0,1.115Z" transform="translate(-246.324 -440.84)" fill="#01c0fa"/>
            </g>
          </g>
        </g>
        <g id="Grupo_945645" data-name="Grupo 945645" transform="translate(1.858)">
          <path id="Trazado_683990" data-name="Trazado 683990" d="M114.318,251.868H90.453a.4.4,0,0,1-.4-.4V249.6a.4.4,0,0,1,.4-.4h23.864a.4.4,0,0,1,.4.4v1.861A.4.4,0,0,1,114.318,251.868Z" transform="translate(-90.049 -249.199)" fill="#b9acac"/>
        </g>
        <g id="Grupo_945646" data-name="Grupo 945646" transform="translate(1.858)">
          <path id="Trazado_683991" data-name="Trazado 683991" d="M93.948,251.464V249.6a.4.4,0,0,1,.4-.4h-3.9a.4.4,0,0,0-.4.4v1.861a.4.4,0,0,0,.4.4h3.9A.4.4,0,0,1,93.948,251.464Z" transform="translate(-90.049 -249.199)" fill="#9e9797"/>
        </g>
      </g>
    </g>
  </g>
</svg>
