<svg xmlns="http://www.w3.org/2000/svg" width="55" height="55" viewBox="0 0 55 55">
  <g id="Grupo_957292" data-name="Grupo 957292" transform="translate(-200.59 -2730.401)">
    <circle id="Elipse_4813" data-name="Elipse 4813" cx="27.5" cy="27.5" r="27.5" transform="translate(200.59 2730.401)" fill="#80cab6"/>
    <g id="experimentar" transform="translate(193.883 2742.073)">
      <g id="Grupo_944964" data-name="Grupo 944964" transform="translate(18.603 1.395)">
        <g id="Grupo_944953" data-name="Grupo 944953" transform="translate(0)">
          <path id="Trazado_683560" data-name="Trazado 683560" d="M25.009,38.276A1.1,1.1,0,0,1,26.1,37.181h2.231v-2h-.56a.268.268,0,0,1-.268-.268V33.165a.268.268,0,0,1,.268-.268h4.683a.268.268,0,0,1,.268.268v1.753a.268.268,0,0,1-.268.268H31.9v2h3.7v-2h-.56a.268.268,0,0,1-.268-.268V33.165a.268.268,0,0,1,.268-.268h1.348V21.883a.667.667,0,0,0-.667-.667H19.27a.667.667,0,0,0-.667.667V44.522a.667.667,0,0,0,.667.667h5.739Z" transform="translate(-18.603 -21.216)" fill="#ffdfcf"/>
          <path id="Trazado_683561" data-name="Trazado 683561" d="M129.064,277.338v6.913h2.471V277.1H129.3A.24.24,0,0,0,129.064,277.338Z" transform="translate(-121.803 -260.278)" fill="#ffdfcf"/>
          <path id="Trazado_683562" data-name="Trazado 683562" d="M220.863,277.1h3.7v7.154h-3.7Z" transform="translate(-207.568 -260.278)" fill="#ffdfcf"/>
        </g>
        <path id="Trazado_683563" data-name="Trazado 683563" d="M335.963,32.461h-9.418l-.3.066V40.6a.467.467,0,0,0,.467.467H335.8a.467.467,0,0,0,.467-.467V32.527Z" transform="translate(-306.021 -31.722)" fill="#f9f3f1"/>
        <g id="Grupo_944954" data-name="Grupo 944954" transform="translate(20.222 0.805)">
          <path id="Trazado_683564" data-name="Trazado 683564" d="M328.434,41.533V33.461h-2.191v8.072a.467.467,0,0,0,.467.467H328.9A.467.467,0,0,1,328.434,41.533Z" transform="translate(-326.243 -33.461)" fill="#efe2dd"/>
        </g>
        <g id="Grupo_944955" data-name="Grupo 944955" transform="translate(0 0)">
          <path id="Trazado_683565" data-name="Trazado 683565" d="M21.417,44.522V21.883a.667.667,0,0,1,.667-.667H19.27a.667.667,0,0,0-.667.667V44.522a.667.667,0,0,0,.667.667h2.814A.667.667,0,0,1,21.417,44.522Z" transform="translate(-18.603 -21.216)" fill="#ffcebf"/>
        </g>
        <g id="Grupo_944959" data-name="Grupo 944959" transform="translate(2.593 2.667)">
          <g id="Grupo_944956" data-name="Grupo 944956" transform="translate(0)">
            <path id="Trazado_683566" data-name="Trazado 683566" d="M61.718,61.793H59.5a.333.333,0,0,0-.289.167L58.1,63.883a.333.333,0,0,0,0,.334l1.207,2.09H61.91l1.3-2.257-1.207-2.09A.334.334,0,0,0,61.718,61.793Z" transform="translate(-58.053 -61.793)" fill="#ffd15b"/>
          </g>
          <g id="Grupo_944957" data-name="Grupo 944957" transform="translate(3.858 2.257)">
            <path id="Trazado_683567" data-name="Trazado 683567" d="M120.457,96.13h-2.414l-1.3,2.257,1.3,2.257h2.414a.333.333,0,0,0,.289-.167l1.11-1.923a.333.333,0,0,0,0-.334l-1.11-1.923A.333.333,0,0,0,120.457,96.13Z" transform="translate(-116.74 -96.13)" fill="#feb137"/>
          </g>
          <g id="Grupo_944958" data-name="Grupo 944958" transform="translate(0 4.514)">
            <path id="Trazado_683568" data-name="Trazado 683568" d="M61.91,130.466H59.3l-1.207,2.09a.333.333,0,0,0,0,.334l1.11,1.923a.334.334,0,0,0,.289.167h2.221a.333.333,0,0,0,.289-.167l1.207-2.09Z" transform="translate(-58.053 -130.466)" fill="#ffc344"/>
          </g>
        </g>
        <g id="Grupo_944960" data-name="Grupo 944960" transform="translate(2.1 13.842)">
          <path id="Trazado_683569" data-name="Trazado 683569" d="M55.077,232.78H51.046a.493.493,0,1,1,0-.986h4.031a.493.493,0,1,1,0,.986Z" transform="translate(-50.553 -231.794)" fill="#fff"/>
        </g>
        <g id="Grupo_944961" data-name="Grupo 944961" transform="translate(2.1 15.864)">
          <path id="Trazado_683570" data-name="Trazado 683570" d="M53.4,263.544H51.046a.493.493,0,0,1,0-.986H53.4a.493.493,0,0,1,0,.986Z" transform="translate(-50.553 -262.558)" fill="#fff"/>
        </g>
        <g id="Grupo_944962" data-name="Grupo 944962" transform="translate(2.1 17.886)">
          <path id="Trazado_683571" data-name="Trazado 683571" d="M53.4,294.307H51.046a.493.493,0,0,1,0-.986H53.4a.493.493,0,0,1,0,.986Z" transform="translate(-50.553 -293.321)" fill="#fff"/>
        </g>
        <g id="Grupo_944963" data-name="Grupo 944963" transform="translate(2.1 19.908)">
          <path id="Trazado_683572" data-name="Trazado 683572" d="M53.4,325.071H51.046a.493.493,0,1,1,0-.986H53.4a.493.493,0,0,1,0,.986Z" transform="translate(-50.553 -324.085)" fill="#fff"/>
        </g>
      </g>
      <g id="Grupo_944983" data-name="Grupo 944983" transform="translate(24.944 13.01)">
        <g id="Grupo_944982" data-name="Grupo 944982" transform="translate(2.498)">
          <g id="Grupo_944969" data-name="Grupo 944969">
            <g id="Grupo_944965" data-name="Grupo 944965" transform="translate(0.828 2.355)">
              <path id="Trazado_683573" data-name="Trazado 683573" d="M165.66,233.744h3.694v2H165.66Z" transform="translate(-165.66 -233.744)" fill="#c8effe"/>
            </g>
            <path id="Trazado_683574" data-name="Trazado 683574" d="M165.66,277.1v9.637a1.847,1.847,0,1,0,3.694,0V277.1Z" transform="translate(-164.832 -271.894)" fill="#01c0fa"/>
            <path id="Trazado_683575" data-name="Trazado 683575" d="M167.348,286.735V277.1H165.66v9.637a1.847,1.847,0,0,0,2.691,1.643A1.847,1.847,0,0,1,167.348,286.735Z" transform="translate(-164.832 -271.894)" fill="#08a9f1"/>
            <g id="Grupo_944966" data-name="Grupo 944966" transform="translate(0.828 6.514)">
              <path id="Trazado_683576" data-name="Trazado 683576" d="M166.807,297.014H165.66V298h1.146a.493.493,0,0,0,0-.986Z" transform="translate(-165.66 -297.014)" fill="#0290cf"/>
              <path id="Trazado_683577" data-name="Trazado 683577" d="M166.807,328.022H165.66v.986h1.146a.493.493,0,0,0,0-.986Z" transform="translate(-165.66 -325.984)" fill="#0290cf"/>
              <path id="Trazado_683578" data-name="Trazado 683578" d="M166.807,359.031H165.66v.986h1.146a.493.493,0,0,0,0-.986Z" transform="translate(-165.66 -354.954)" fill="#0290cf"/>
              <path id="Trazado_683579" data-name="Trazado 683579" d="M166.807,390.04H165.66v.986h1.146a.493.493,0,0,0,0-.986Z" transform="translate(-165.66 -383.925)" fill="#0290cf"/>
            </g>
            <g id="Grupo_944967" data-name="Grupo 944967" transform="translate(0 0)">
              <path id="Trazado_683580" data-name="Trazado 683580" d="M158.08,200.342H153.4a.334.334,0,0,1-.334-.334v-1.753a.334.334,0,0,1,.334-.334h4.683a.334.334,0,0,1,.334.334v1.753A.334.334,0,0,1,158.08,200.342Z" transform="translate(-153.063 -197.922)" fill="#c8effe"/>
            </g>
            <g id="Grupo_944968" data-name="Grupo 944968">
              <path id="Trazado_683581" data-name="Trazado 683581" d="M155.111,199.225a.334.334,0,0,1-.334-.334v-.969H153.4a.334.334,0,0,0-.334.334v1.753a.334.334,0,0,0,.334.334h4.683a.334.334,0,0,0,.334-.334v-.784Z" transform="translate(-153.063 -197.922)" fill="#99e6fc"/>
            </g>
          </g>
          <g id="Grupo_944977" data-name="Grupo 944977" transform="translate(7.261)">
            <g id="Grupo_944971" data-name="Grupo 944971" transform="translate(0.828 2.355)">
              <g id="Grupo_944970" data-name="Grupo 944970" transform="translate(0 2.85)">
                <path id="Trazado_683582" data-name="Trazado 683582" d="M276.129,277.1h3.694v1.868h-3.694Z" transform="translate(-276.129 -277.098)" fill="#c8effe"/>
              </g>
              <path id="Trazado_683583" data-name="Trazado 683583" d="M276.129,233.744h3.694v2h-3.694Z" transform="translate(-276.129 -233.744)" fill="#c8effe"/>
            </g>
            <g id="Grupo_944972" data-name="Grupo 944972" transform="translate(0.828 7.007)">
              <path id="Trazado_683584" data-name="Trazado 683584" d="M276.129,304.514v7.835a1.847,1.847,0,1,0,3.694,0v-7.835Z" transform="translate(-276.129 -304.514)" fill="#bbec6c"/>
            </g>
            <g id="Grupo_944973" data-name="Grupo 944973" transform="translate(0.828 7.007)">
              <path id="Trazado_683585" data-name="Trazado 683585" d="M277.8,312.349v-7.835h-1.675v7.835a1.847,1.847,0,0,0,2.685,1.646A1.847,1.847,0,0,1,277.8,312.349Z" transform="translate(-276.129 -304.514)" fill="#a2e62e"/>
            </g>
            <g id="Grupo_944974" data-name="Grupo 944974" transform="translate(0.828 8.552)">
              <path id="Trazado_683586" data-name="Trazado 683586" d="M277.275,328.022h-1.147v.986h1.147a.493.493,0,1,0,0-.986Z" transform="translate(-276.128 -328.022)" fill="#97d729"/>
              <path id="Trazado_683587" data-name="Trazado 683587" d="M277.275,359.031h-1.147v.986h1.147a.493.493,0,1,0,0-.986Z" transform="translate(-276.128 -356.993)" fill="#97d729"/>
              <path id="Trazado_683588" data-name="Trazado 683588" d="M277.275,390.04h-1.147v.986h1.147a.493.493,0,0,0,0-.986Z" transform="translate(-276.128 -385.963)" fill="#97d729"/>
            </g>
            <g id="Grupo_944975" data-name="Grupo 944975" transform="translate(0 0)">
              <path id="Trazado_683589" data-name="Trazado 683589" d="M268.549,200.342h-4.683a.334.334,0,0,1-.334-.334v-1.753a.334.334,0,0,1,.334-.334h4.683a.334.334,0,0,1,.334.334v1.753A.334.334,0,0,1,268.549,200.342Z" transform="translate(-263.532 -197.922)" fill="#c8effe"/>
            </g>
            <g id="Grupo_944976" data-name="Grupo 944976">
              <path id="Trazado_683590" data-name="Trazado 683590" d="M265.58,199.225a.334.334,0,0,1-.334-.334v-.969h-1.381a.334.334,0,0,0-.334.334v1.753a.334.334,0,0,0,.334.334h4.683a.334.334,0,0,0,.334-.334v-.784Z" transform="translate(-263.532 -197.922)" fill="#99e6fc"/>
            </g>
          </g>
          <g id="Grupo_944981" data-name="Grupo 944981" transform="translate(14.523)">
            <g id="Grupo_944978" data-name="Grupo 944978" transform="translate(0.828 2.355)">
              <path id="Trazado_683591" data-name="Trazado 683591" d="M386.6,233.744h3.694v2H386.6Z" transform="translate(-386.597 -233.744)" fill="#c8effe"/>
            </g>
            <path id="Trazado_683592" data-name="Trazado 683592" d="M386.6,277.1v9.637a1.847,1.847,0,1,0,3.694,0V277.1Z" transform="translate(-385.769 -271.894)" fill="#fd9468"/>
            <path id="Trazado_683593" data-name="Trazado 683593" d="M388.285,286.735V277.1H386.6v9.637a1.847,1.847,0,0,0,2.691,1.643A1.847,1.847,0,0,1,388.285,286.735Z" transform="translate(-385.77 -271.894)" fill="#fe7d43"/>
            <g id="Grupo_944979" data-name="Grupo 944979" transform="translate(0 0)">
              <path id="Trazado_683594" data-name="Trazado 683594" d="M379.018,200.342h-4.683a.334.334,0,0,1-.334-.334v-1.753a.334.334,0,0,1,.334-.334h4.683a.334.334,0,0,1,.334.334v1.753A.334.334,0,0,1,379.018,200.342Z" transform="translate(-374.001 -197.922)" fill="#c8effe"/>
            </g>
            <g id="Grupo_944980" data-name="Grupo 944980">
              <path id="Trazado_683595" data-name="Trazado 683595" d="M376.049,199.225a.334.334,0,0,1-.334-.334v-.969h-1.381a.334.334,0,0,0-.334.334v1.753a.334.334,0,0,0,.334.334h4.683a.334.334,0,0,0,.334-.334v-.784Z" transform="translate(-374.001 -197.922)" fill="#99e6fc"/>
            </g>
          </g>
        </g>
        <path id="Trazado_683596" data-name="Trazado 683596" d="M138.773,263.1H116.224a1.162,1.162,0,0,0-1.16,1.16v12.123l.112.066h.874V264.258a.174.174,0,0,1,.174-.174h22.548a.174.174,0,0,1,.174.174v12.189h.874l.112-.066V264.258A1.162,1.162,0,0,0,138.773,263.1Z" transform="translate(-115.064 -258.814)" fill="#e1d3ce"/>
      </g>
      <g id="Grupo_944992" data-name="Grupo 944992" transform="translate(38.825 0)">
        <g id="Grupo_944986" data-name="Grupo 944986">
          <g id="Grupo_944984" data-name="Grupo 944984" transform="translate(0)">
            <path id="Trazado_683597" data-name="Trazado 683597" d="M336.27,2.2H326.243V.467A.467.467,0,0,1,326.71,0H335.8a.467.467,0,0,1,.467.467V2.2Z" transform="translate(-326.243 0)" fill="#fd6930"/>
          </g>
          <g id="Grupo_944985" data-name="Grupo 944985">
            <path id="Trazado_683598" data-name="Trazado 683598" d="M328.441,2.2h-2.2V.467A.467.467,0,0,1,326.709,0h1.732Z" transform="translate(-326.242 0)" fill="#ef4424"/>
          </g>
        </g>
        <g id="Grupo_944991" data-name="Grupo 944991" transform="translate(1.804 3.802)">
          <g id="Grupo_944987" data-name="Grupo 944987">
            <path id="Trazado_683599" data-name="Trazado 683599" d="M359.607,58.83h-5.434a.493.493,0,0,1,0-.986h5.434a.493.493,0,0,1,0,.986Z" transform="translate(-353.68 -57.844)" fill="#b9acac"/>
          </g>
          <g id="Grupo_944988" data-name="Grupo 944988" transform="translate(2.315 1.915)">
            <path id="Trazado_683600" data-name="Trazado 683600" d="M392.505,87.964h-3.119a.493.493,0,1,1,0-.986h3.119a.493.493,0,0,1,0,.986Z" transform="translate(-388.893 -86.978)" fill="#b9acac"/>
          </g>
          <g id="Grupo_944989" data-name="Grupo 944989" transform="translate(0 1.915)">
            <path id="Trazado_683601" data-name="Trazado 683601" d="M354.953,87.964h-.78a.493.493,0,0,1,0-.986h.78a.493.493,0,0,1,0,.986Z" transform="translate(-353.68 -86.978)" fill="#b9acac"/>
          </g>
          <g id="Grupo_944990" data-name="Grupo 944990" transform="translate(0 3.83)">
            <path id="Trazado_683602" data-name="Trazado 683602" d="M357.308,117.1h-3.135a.493.493,0,0,1,0-.986h3.135a.493.493,0,0,1,0,.986Z" transform="translate(-353.68 -116.111)" fill="#b9acac"/>
          </g>
        </g>
      </g>
      <g id="Grupo_944993" data-name="Grupo 944993" transform="translate(32.934 3.569)">
        <path id="Trazado_683603" data-name="Trazado 683603" d="M237.856,55.279h-.734a.493.493,0,0,1,0-.986h.734a.493.493,0,0,1,0,.986Z" transform="translate(-236.629 -54.293)" fill="#fff"/>
      </g>
      <g id="Grupo_944994" data-name="Grupo 944994" transform="translate(27.463 3.569)">
        <path id="Trazado_683604" data-name="Trazado 683604" d="M157.955,55.279h-4.07a.493.493,0,0,1,0-.986h4.07a.493.493,0,0,1,0,.986Z" transform="translate(-153.392 -54.293)" fill="#fff"/>
      </g>
      <g id="Grupo_944995" data-name="Grupo 944995" transform="translate(31.2 5.504)">
        <path id="Trazado_683605" data-name="Trazado 683605" d="M213.2,84.716h-2.469a.493.493,0,1,1,0-.986H213.2a.493.493,0,0,1,0,.986Z" transform="translate(-210.236 -83.73)" fill="#fff"/>
      </g>
      <g id="Grupo_944996" data-name="Grupo 944996" transform="translate(31.2 7.439)">
        <path id="Trazado_683606" data-name="Trazado 683606" d="M213.2,114.154h-2.469a.493.493,0,0,1,0-.986H213.2a.493.493,0,0,1,0,.986Z" transform="translate(-210.236 -113.168)" fill="#fff"/>
      </g>
      <g id="Grupo_944997" data-name="Grupo 944997" transform="translate(31.2 9.374)">
        <path id="Trazado_683607" data-name="Trazado 683607" d="M213.2,143.592h-2.469a.493.493,0,1,1,0-.986H213.2a.493.493,0,1,1,0,.986Z" transform="translate(-210.236 -142.606)" fill="#fff"/>
      </g>
      <g id="Grupo_944998" data-name="Grupo 944998" transform="translate(24.944 30.577)">
        <path id="Trazado_683608" data-name="Trazado 683608" d="M138.773,468.253H116.224a1.16,1.16,0,0,1-1.16-1.16v-1.918h24.869v1.918A1.16,1.16,0,0,1,138.773,468.253Z" transform="translate(-115.064 -465.175)" fill="#cdbfba"/>
      </g>
      <path id="Trazado_683609" data-name="Trazado 683609" d="M118.275,467.093v-1.918h-3.211v1.918a1.16,1.16,0,0,0,1.16,1.16h3.211A1.16,1.16,0,0,1,118.275,467.093Z" transform="translate(-90.12 -434.598)" fill="#b9acac"/>
      <g id="Grupo_944999" data-name="Grupo 944999" transform="translate(42.792 19.524)">
        <path id="Trazado_683610" data-name="Trazado 683610" d="M387.744,328.022H386.6v.986h1.147a.493.493,0,0,0,0-.986Z" transform="translate(-386.597 -325.984)" fill="#ef4424"/>
        <path id="Trazado_683611" data-name="Trazado 683611" d="M388.237,359.524a.493.493,0,0,0-.493-.493H386.6v.986h1.147A.493.493,0,0,0,388.237,359.524Z" transform="translate(-386.597 -354.954)" fill="#ef4424"/>
        <path id="Trazado_683612" data-name="Trazado 683612" d="M388.237,390.533a.493.493,0,0,0-.493-.493H386.6v.986h1.147A.493.493,0,0,0,388.237,390.533Z" transform="translate(-386.597 -383.925)" fill="#ef4424"/>
        <path id="Trazado_683613" data-name="Trazado 683613" d="M387.744,297.014H386.6V298h1.147a.493.493,0,1,0,0-.986Z" transform="translate(-386.597 -297.014)" fill="#ef4424"/>
      </g>
    </g>
  </g>
</svg>
