<svg xmlns="http://www.w3.org/2000/svg" width="113" height="113" viewBox="0 0 113 113">
  <g id="Grupo_948333" data-name="Grupo 948333" transform="translate(-180 -852.095)">
    <circle id="Elipse_5223" data-name="Elipse 5223" cx="56.5" cy="56.5" r="56.5" transform="translate(180 852.095)" fill="#80cab6"/>
    <g id="_x33_3" transform="translate(192.678 862.086)">
      <g id="Grupo_945004" data-name="Grupo 945004" transform="translate(52.898 29.394)">
        <g id="Grupo_945003" data-name="Grupo 945003">
          <path id="Trazado_683614" data-name="Trazado 683614" d="M52.667,30.646l-5.394,3.235-3.98-1.09,1.545-6.283L50.094,24.5a9.814,9.814,0,0,0,.966,1.007C51.191,25.542,52.667,30.646,52.667,30.646Z" transform="translate(-43.294 -24.501)" fill="#f9c4c0"/>
        </g>
      </g>
      <g id="Grupo_945006" data-name="Grupo 945006" transform="translate(25.421 30.332)">
        <g id="Grupo_945005" data-name="Grupo 945005">
          <path id="Trazado_683615" data-name="Trazado 683615" d="M52.607,33.68l-7.886,8.905L39.34,48.178a6.291,6.291,0,0,1-5.063,2.449,4.061,4.061,0,0,1-.705-.058,6.179,6.179,0,0,1-3.262-1.411L30.119,49l-8.906-7.47,6.615-16.275,1.328.091A8.9,8.9,0,0,1,37,31.4l.838,2.507L49.359,25.32Z" transform="translate(-21.214 -25.255)" fill="#f1f7ff"/>
        </g>
      </g>
      <g id="Grupo_945008" data-name="Grupo 945008" transform="translate(33.557 36.017)">
        <g id="Grupo_945007" data-name="Grupo 945007">
          <path id="Trazado_683616" data-name="Trazado 683616" d="M44.483,39.933l-6.74,7.128a6.291,6.291,0,0,1-5.063,2.449,4.061,4.061,0,0,1-.705-.058,6.179,6.179,0,0,1-3.262-1.411l-.191-.158a14.358,14.358,0,0,1-.764-5.378,24.737,24.737,0,0,1,1.477-7.76c.747-2.05,1.934-4.15,3.967-4.922l-.622.764c.473,1.137.946,2.274,1.477,3.378a9.4,9.4,0,0,0,2.282,3.229,8.528,8.528,0,0,0,3.395,1.56A25.153,25.153,0,0,0,44.483,39.933Z" transform="translate(-27.752 -29.823)" fill="#c7dafa"/>
        </g>
      </g>
      <g id="Grupo_945100" data-name="Grupo 945100" transform="translate(8.54 4.481)">
        <g id="Grupo_945099" data-name="Grupo 945099" transform="translate(0)">
          <g id="Grupo_945011" data-name="Grupo 945011" transform="translate(15.499 61.731)">
            <g id="Grupo_945010" data-name="Grupo 945010">
              <g id="Grupo_945009" data-name="Grupo 945009">
                <path id="Trazado_683617" data-name="Trazado 683617" d="M20.446,70.2,20.1,54.087l13.108,1.2V70.2Z" transform="translate(-20.103 -54.087)" fill="#363383"/>
              </g>
            </g>
          </g>
          <g id="Grupo_945014" data-name="Grupo 945014" transform="translate(0.693 59.706)">
            <g id="Grupo_945013" data-name="Grupo 945013">
              <g id="Grupo_945012" data-name="Grupo 945012">
                <path id="Trazado_683618" data-name="Trazado 683618" d="M8.205,70.6V53.71l18.609-1.25L25.349,70.6Z" transform="translate(-8.205 -52.46)" fill="#5150ac"/>
              </g>
            </g>
          </g>
          <g id="Grupo_945098" data-name="Grupo 945098">
            <g id="Grupo_945086" data-name="Grupo 945086" transform="translate(3.285)">
              <g id="Grupo_945085" data-name="Grupo 945085">
                <g id="Grupo_945084" data-name="Grupo 945084">
                  <g id="Grupo_945083" data-name="Grupo 945083">
                    <g id="Grupo_945066" data-name="Grupo 945066">
                      <g id="Grupo_945065" data-name="Grupo 945065">
                        <g id="Grupo_945017" data-name="Grupo 945017" transform="translate(0.001 25.493)">
                          <g id="Grupo_945016" data-name="Grupo 945016">
                            <g id="Grupo_945015" data-name="Grupo 945015">
                              <path id="Trazado_683619" data-name="Trazado 683619" d="M35.389,32.7V58.235h-25.1V30.3a5.334,5.334,0,0,1,5.334-5.334H27.631A7.741,7.741,0,0,1,35.389,32.7Z" transform="translate(-10.289 -24.967)" fill="#79affe"/>
                            </g>
                          </g>
                        </g>
                        <g id="Grupo_945021" data-name="Grupo 945021" transform="translate(0 58.378)">
                          <g id="Grupo_945020" data-name="Grupo 945020">
                            <g id="Grupo_945019" data-name="Grupo 945019">
                              <g id="Grupo_945018" data-name="Grupo 945018">
                                <path id="Trazado_683620" data-name="Trazado 683620" d="M0,0H25.1V2.562H0Z" transform="translate(25.101 2.562) rotate(180)"/>
                              </g>
                            </g>
                          </g>
                        </g>
                        <g id="Grupo_945024" data-name="Grupo 945024" transform="translate(25.101 34.499)">
                          <g id="Grupo_945023" data-name="Grupo 945023">
                            <g id="Grupo_945022" data-name="Grupo 945022">
                              <path id="Trazado_683621" data-name="Trazado 683621" d="M31.315,32.716v13.29a4.9,4.9,0,0,1-.857-.624V32.716a.474.474,0,0,1,.428-.512A.481.481,0,0,1,31.315,32.716Z" transform="translate(-30.459 -32.204)" fill="#f2cf77"/>
                            </g>
                          </g>
                        </g>
                        <g id="Grupo_945028" data-name="Grupo 945028" transform="translate(14.255 57.68)">
                          <g id="Grupo_945027" data-name="Grupo 945027">
                            <g id="Grupo_945026" data-name="Grupo 945026">
                              <g id="Grupo_945025" data-name="Grupo 945025">
                                <path id="Trazado_683622" data-name="Trazado 683622" d="M21.743,54.071V51.643a.812.812,0,0,1,.812-.811h4.992a.812.812,0,0,1,.812.811v2.428a.813.813,0,0,1-.812.812H22.555A.813.813,0,0,1,21.743,54.071Zm.776-2.428v2.428a.036.036,0,0,0,.036.036l5.028-.036-.036-2.463Z" transform="translate(-21.743 -50.832)" fill="#fff"/>
                              </g>
                            </g>
                          </g>
                        </g>
                        <g id="Grupo_945061" data-name="Grupo 945061" transform="translate(2.422)">
                          <g id="Grupo_945031" data-name="Grupo 945031" transform="translate(13.706 2.464)">
                            <g id="Grupo_945030" data-name="Grupo 945030">
                              <g id="Grupo_945029" data-name="Grupo 945029">
                                <path id="Trazado_683623" data-name="Trazado 683623" d="M31.286,11.4c0,2.73-1.724,4.942-3.851,4.942a4.235,4.235,0,0,1-4.187-4.412c0-2.73,2.06-5.473,4.187-5.473S31.286,8.674,31.286,11.4Z" transform="translate(-23.249 -6.462)" fill="#333077"/>
                              </g>
                            </g>
                          </g>
                          <g id="Grupo_945034" data-name="Grupo 945034" transform="translate(0 3.908)">
                            <g id="Grupo_945033" data-name="Grupo 945033">
                              <g id="Grupo_945032" data-name="Grupo 945032">
                                <path id="Trazado_683624" data-name="Trazado 683624" d="M12.234,13.664c0,3.218,2.431,7.584,5.36,7.874.1.01.207.01.31.01,2.514,0,4.552-3.063,5.2-6a2.451,2.451,0,0,0,.052-.269,7.988,7.988,0,0,0,.166-1.614,6.286,6.286,0,0,0-.393-2.225,5.754,5.754,0,0,0-3.145-3.4,5.049,5.049,0,0,0-2.007-.414.682.682,0,0,0-.145.01A5.11,5.11,0,0,0,14.4,8.884a1.337,1.337,0,0,0-.186.166,6.034,6.034,0,0,0-.7.745A6.426,6.426,0,0,0,12.234,13.664Z" transform="translate(-12.234 -7.622)" fill="#333077"/>
                              </g>
                            </g>
                          </g>
                          <g id="Grupo_945037" data-name="Grupo 945037" transform="translate(0 6.081)" opacity="0.15">
                            <g id="Grupo_945036" data-name="Grupo 945036">
                              <g id="Grupo_945035" data-name="Grupo 945035">
                                <path id="Trazado_683625" data-name="Trazado 683625" d="M19.943,18.452a17.919,17.919,0,0,1,3.166-3.332c.1-.083.2-.155.3-.228a2.07,2.07,0,0,1-.248-.041,11.933,11.933,0,0,1-1.811-.362c-1.117,1.531-2.638,2.814-3.89,2.814-2.287,0-4.635-3.249-4.635-5.535a4.342,4.342,0,0,1,.745-2.338l-.062-.062a6.426,6.426,0,0,0-1.273,3.87c0,3.218,2.431,7.584,5.36,7.874" transform="translate(-12.234 -9.368)"/>
                              </g>
                            </g>
                          </g>
                          <g id="Grupo_945040" data-name="Grupo 945040" transform="translate(5.663 16.16)">
                            <g id="Grupo_945039" data-name="Grupo 945039">
                              <g id="Grupo_945038" data-name="Grupo 945038">
                                <path id="Trazado_683626" data-name="Trazado 683626" d="M16.785,17.467h7.686V26.8H16.785Z" transform="translate(-16.785 -17.467)" fill="#f9c4c0"/>
                              </g>
                            </g>
                          </g>
                          <g id="Grupo_945043" data-name="Grupo 945043" transform="translate(5.662 14.576)">
                            <g id="Grupo_945042" data-name="Grupo 945042">
                              <g id="Grupo_945041" data-name="Grupo 945041">
                                <path id="Trazado_683627" data-name="Trazado 683627" d="M24.47,16.194V23.36a13.721,13.721,0,0,1-7.686,1.1V16.194Z" transform="translate(-16.785 -16.194)" fill="#fd9997"/>
                              </g>
                            </g>
                          </g>
                          <g id="Grupo_945046" data-name="Grupo 945046" transform="translate(5.668 4.295)">
                            <g id="Grupo_945045" data-name="Grupo 945045">
                              <g id="Grupo_945044" data-name="Grupo 945044">
                                <path id="Trazado_683628" data-name="Trazado 683628" d="M30.233,14.655V19.28a6.722,6.722,0,1,1-13.444,0V14.655a6.722,6.722,0,0,1,13.444,0Z" transform="translate(-16.789 -7.932)" fill="#f9c4c0"/>
                              </g>
                            </g>
                          </g>
                          <g id="Grupo_945049" data-name="Grupo 945049" transform="translate(0.59 3.908)">
                            <g id="Grupo_945048" data-name="Grupo 945048">
                              <g id="Grupo_945047" data-name="Grupo 945047">
                                <path id="Trazado_683629" data-name="Trazado 683629" d="M12.708,12.2c0,2.287,2.349,5.535,4.635,5.535,1.252,0,2.773-1.283,3.89-2.814a7.229,7.229,0,0,0,1.614-3.766c0-2.287-3.373-3.528-5.649-3.528a4.715,4.715,0,0,0-3.745,2.235A4.342,4.342,0,0,0,12.708,12.2Z" transform="translate(-12.708 -7.622)" fill="#333077"/>
                              </g>
                            </g>
                          </g>
                          <g id="Grupo_945052" data-name="Grupo 945052" transform="translate(2.548)">
                            <g id="Grupo_945051" data-name="Grupo 945051">
                              <g id="Grupo_945050" data-name="Grupo 945050">
                                <path id="Trazado_683630" data-name="Trazado 683630" d="M33.021,9.959c.6,5.04-18.249,5.556-18.705.706-.581-6.183,6.4-6.183,11.022-6.183S32.667,7.006,33.021,9.959Z" transform="translate(-14.282 -4.481)" fill="#333077"/>
                              </g>
                            </g>
                          </g>
                          <g id="Grupo_945057" data-name="Grupo 945057" transform="translate(11.438 12.418)">
                            <g id="Grupo_945054" data-name="Grupo 945054">
                              <g id="Grupo_945053" data-name="Grupo 945053">
                                <path id="Trazado_683631" data-name="Trazado 683631" d="M22.683,15.312c0,.476-.284.862-.629.862s-.629-.385-.629-.862.284-.852.629-.852S22.683,14.835,22.683,15.312Z" transform="translate(-21.426 -14.46)" fill="#373754"/>
                              </g>
                            </g>
                            <g id="Grupo_945056" data-name="Grupo 945056" transform="translate(4.461)">
                              <g id="Grupo_945055" data-name="Grupo 945055">
                                <path id="Trazado_683632" data-name="Trazado 683632" d="M26.268,15.312c0,.476-.284.862-.629.862s-.629-.385-.629-.862.284-.852.629-.852S26.268,14.835,26.268,15.312Z" transform="translate(-25.01 -14.46)" fill="#373754"/>
                              </g>
                            </g>
                          </g>
                          <g id="Grupo_945060" data-name="Grupo 945060" transform="translate(11.883 17.037)">
                            <g id="Grupo_945059" data-name="Grupo 945059">
                              <g id="Grupo_945058" data-name="Grupo 945058">
                                <path id="Trazado_683633" data-name="Trazado 683633" d="M21.794,18.172c0,.037-.011.072-.011.109a2.55,2.55,0,1,0,5.1,0c0-.037-.009-.072-.011-.109Z" transform="translate(-21.783 -18.172)" fill="#fff"/>
                              </g>
                            </g>
                          </g>
                        </g>
                        <g id="Grupo_945064" data-name="Grupo 945064" transform="translate(3.012 6.143)" opacity="0.15">
                          <g id="Grupo_945063" data-name="Grupo 945063">
                            <g id="Grupo_945062" data-name="Grupo 945062">
                              <path id="Trazado_683634" data-name="Trazado 683634" d="M12.708,11.756c0,2.287,2.349,5.535,4.635,5.535,1.252,0,2.773-1.283,3.89-2.814a15.4,15.4,0,0,1-6.974-4.2c-.248-.248-.517-.559-.807-.859A4.342,4.342,0,0,0,12.708,11.756Z" transform="translate(-12.708 -9.418)"/>
                            </g>
                          </g>
                        </g>
                      </g>
                    </g>
                    <g id="Grupo_945073" data-name="Grupo 945073" transform="translate(13.127 25.848)">
                      <g id="Grupo_945069" data-name="Grupo 945069">
                        <g id="Grupo_945068" data-name="Grupo 945068">
                          <g id="Grupo_945067" data-name="Grupo 945067">
                            <path id="Trazado_683635" data-name="Trazado 683635" d="M28,52.832l-3.055,3.643-3.88-3.643-.23-27.58h1.748Z" transform="translate(-20.837 -25.252)" fill="#353e57"/>
                          </g>
                        </g>
                      </g>
                      <g id="Grupo_945072" data-name="Grupo 945072" transform="translate(1.246 0.004)" opacity="0.08">
                        <g id="Grupo_945071" data-name="Grupo 945071">
                          <g id="Grupo_945070" data-name="Grupo 945070">
                            <path id="Trazado_683636" data-name="Trazado 683636" d="M27.753,52.832l-3.047,3.639-.475-.448L27.18,52.5,21.838,25.256h.5Z" transform="translate(-21.838 -25.256)"/>
                          </g>
                        </g>
                      </g>
                    </g>
                    <g id="Grupo_945076" data-name="Grupo 945076" transform="translate(10.127 25.492)">
                      <g id="Grupo_945075" data-name="Grupo 945075">
                        <g id="Grupo_945074" data-name="Grupo 945074">
                          <path id="Trazado_683637" data-name="Trazado 683637" d="M25.009,24.966l-2.6,4.816-3.984-4.816Z" transform="translate(-18.426 -24.966)" fill="#353e57"/>
                        </g>
                      </g>
                    </g>
                    <g id="Grupo_945079" data-name="Grupo 945079" transform="translate(6.588 23.99)">
                      <g id="Grupo_945078" data-name="Grupo 945078">
                        <g id="Grupo_945077" data-name="Grupo 945077">
                          <path id="Trazado_683638" data-name="Trazado 683638" d="M15.582,25.26l1.5-1.5,5.013,1.5-1.4,3.128Z" transform="translate(-15.582 -23.759)" fill="#5592ff"/>
                        </g>
                      </g>
                    </g>
                    <g id="Grupo_945082" data-name="Grupo 945082" transform="translate(13.098 24.351)">
                      <g id="Grupo_945081" data-name="Grupo 945081">
                        <g id="Grupo_945080" data-name="Grupo 945080">
                          <path id="Trazado_683639" data-name="Trazado 683639" d="M23.916,28.025l-3.1-2.836,2.672-1.139.919,1.139Z" transform="translate(-20.813 -24.05)" fill="#5592ff"/>
                        </g>
                      </g>
                    </g>
                  </g>
                </g>
              </g>
            </g>
            <g id="Grupo_945089" data-name="Grupo 945089" transform="translate(0 25.494)">
              <g id="Grupo_945088" data-name="Grupo 945088">
                <g id="Grupo_945087" data-name="Grupo 945087">
                  <path id="Trazado_683640" data-name="Trazado 683640" d="M28.09,69.28a5.8,5.8,0,0,1-5.8,5.892H7.955l-.017-1.859L7.665,34.952l-.008-1.369-.008-1.56a7,7,0,0,1,7.013-7.055h2.855l9.437,10.964.249,7.287.332,9.761.539,15.852v.025Z" transform="translate(-7.648 -24.968)" fill="#f1f7ff"/>
                </g>
              </g>
            </g>
            <g id="Grupo_945092" data-name="Grupo 945092" transform="translate(19.303 25.49)">
              <g id="Grupo_945091" data-name="Grupo 945091" transform="translate(0)">
                <g id="Grupo_945090" data-name="Grupo 945090">
                  <path id="Trazado_683641" data-name="Trazado 683641" d="M33.1,74.689V33.115a8.15,8.15,0,0,0-8.15-8.15H23.831l-.672,10.963,1.124,32.9a6.3,6.3,0,0,0,5.7,6.052Z" transform="translate(-23.159 -24.965)" fill="#f1f7ff"/>
                </g>
              </g>
            </g>
            <g id="Grupo_945094" data-name="Grupo 945094" transform="translate(0.017 32.799)">
              <g id="Grupo_945093" data-name="Grupo 945093">
                <path id="Trazado_683642" data-name="Trazado 683642" d="M36.885,45.9a18.294,18.294,0,0,1-3.793,2.658,12.738,12.738,0,0,0-2.822,1.112,18.617,18.617,0,0,0-2.739,1.876c-.5.4-.988.813-1.477,1.228a68.326,68.326,0,0,0-7.611,7.171,52.154,52.154,0,0,0-6.656,10.333c-.44.838-.963,1.776-1.884,2.008A2.7,2.7,0,0,1,8.01,71.92c-.025-.017-.05-.025-.075-.041L7.662,33.517a13.493,13.493,0,0,1,2.473-1.967,4.27,4.27,0,0,1,1.892-.706,4.968,4.968,0,0,1,2.921,1.062c3.079,1.976,5.353,5.278,8.034,7.768,1.17,1.087,2.939,1.171,4.217,2.108a11.658,11.658,0,0,0,1.544,1c1.394.755,2.93,1.2,4.382,1.843C34.046,45.037,38.354,44.462,36.885,45.9Z" transform="translate(-7.662 -30.838)" fill="#c7dafa"/>
              </g>
            </g>
            <g id="Grupo_945097" data-name="Grupo 945097" transform="translate(19.038 36.431)">
              <g id="Grupo_945096" data-name="Grupo 945096" transform="translate(0)">
                <g id="Grupo_945095" data-name="Grupo 945095">
                  <path id="Trazado_683643" data-name="Trazado 683643" d="M0,0H.492V32.921H0Z" transform="translate(0 0.017) rotate(-1.949)" fill="#c7dafa"/>
                </g>
              </g>
            </g>
          </g>
        </g>
      </g>
      <g id="Grupo_945102" data-name="Grupo 945102" transform="translate(4 73.887)">
        <g id="Grupo_945101" data-name="Grupo 945101">
          <path id="Trazado_683644" data-name="Trazado 683644" d="M83.643,61.384v6.782a1.13,1.13,0,0,1-1.129,1.129H5.129A1.13,1.13,0,0,1,4,68.166V61.384a1.13,1.13,0,0,1,1.129-1.129H82.515A1.13,1.13,0,0,1,83.643,61.384Z" transform="translate(-4 -60.255)" fill="#387094"/>
        </g>
      </g>
      <g id="Grupo_945104" data-name="Grupo 945104" transform="translate(4 73.889)">
        <g id="Grupo_945103" data-name="Grupo 945103">
          <path id="Trazado_683645" data-name="Trazado 683645" d="M83.643,61.384v6.781a1.13,1.13,0,0,1-1.129,1.129H5.129A1.13,1.13,0,0,1,4,68.165V67.153H80.73a1.13,1.13,0,0,0,1.129-1.129V60.256h.656A1.13,1.13,0,0,1,83.643,61.384Z" transform="translate(-4 -60.256)" fill="#315a79"/>
        </g>
      </g>
      <g id="Grupo_945106" data-name="Grupo 945106" transform="translate(37.78 44.616)">
        <g id="Grupo_945105" data-name="Grupo 945105">
          <path id="Trazado_683646" data-name="Trazado 683646" d="M31.85,36.733V47.821a4.061,4.061,0,0,1-.705-.058V36.733Z" transform="translate(-31.145 -36.733)" fill="#c7dafa"/>
        </g>
      </g>
      <g id="Grupo_945108" data-name="Grupo 945108" transform="translate(7.298 31.861)">
        <g id="Grupo_945107" data-name="Grupo 945107">
          <path id="Trazado_683647" data-name="Trazado 683647" d="M16.76,28.22l7.515,12.422,20.638-6.465,2.659,8.2L23.892,52.771a5.772,5.772,0,0,1-7.25-2.285l-9.129-15a5.921,5.921,0,0,1,.838-7.231h0A5.921,5.921,0,0,1,16.76,28.22Z" transform="translate(-6.65 -26.483)" fill="#f1f7ff"/>
        </g>
      </g>
      <g id="Grupo_945142" data-name="Grupo 945142" transform="translate(58.141 51.944)">
        <g id="Grupo_945130" data-name="Grupo 945130" transform="translate(3.75)">
          <g id="Grupo_945115" data-name="Grupo 945115">
            <g id="Grupo_945110" data-name="Grupo 945110" transform="translate(0.919 0.326)">
              <g id="Grupo_945109" data-name="Grupo 945109">
                <path id="Trazado_683648" data-name="Trazado 683648" d="M51.259,42.884V57.625a1.752,1.752,0,0,0,3.5,0V42.884Zm2.886,14.741a1.134,1.134,0,0,1-2.268,0V43.5h2.268Z" transform="translate(-51.259 -42.884)" fill="#c7dafa"/>
              </g>
            </g>
            <g id="Grupo_945112" data-name="Grupo 945112" transform="translate(1.538 6.606)">
              <g id="Grupo_945111" data-name="Grupo 945111">
                <path id="Trazado_683649" data-name="Trazado 683649" d="M51.756,47.93v8.461a1.134,1.134,0,0,0,2.268,0V47.93Z" transform="translate(-51.756 -47.93)" fill="#79affe"/>
              </g>
            </g>
            <g id="Grupo_945114" data-name="Grupo 945114">
              <g id="Grupo_945113" data-name="Grupo 945113">
                <path id="Trazado_683650" data-name="Trazado 683650" d="M55.584,43.567H50.8a.279.279,0,0,1-.279-.279V42.9a.279.279,0,0,1,.279-.279h4.785a.279.279,0,0,1,.279.279v.387A.279.279,0,0,1,55.584,43.567Z" transform="translate(-50.52 -42.622)" fill="#edf5fc"/>
              </g>
            </g>
          </g>
          <g id="Grupo_945122" data-name="Grupo 945122" transform="translate(5.638)">
            <g id="Grupo_945117" data-name="Grupo 945117" transform="translate(0.919 0.326)">
              <g id="Grupo_945116" data-name="Grupo 945116">
                <path id="Trazado_683651" data-name="Trazado 683651" d="M55.789,42.884V57.625a1.752,1.752,0,0,0,3.5,0V42.884Zm2.886,14.741a1.134,1.134,0,0,1-2.268,0V43.5h2.268Z" transform="translate(-55.789 -42.884)" fill="#c7dafa"/>
              </g>
            </g>
            <g id="Grupo_945119" data-name="Grupo 945119" transform="translate(1.538 6.606)">
              <g id="Grupo_945118" data-name="Grupo 945118">
                <path id="Trazado_683652" data-name="Trazado 683652" d="M56.286,47.93v8.461a1.134,1.134,0,0,0,2.268,0V47.93Z" transform="translate(-56.286 -47.93)" fill="#65f0ac"/>
              </g>
            </g>
            <g id="Grupo_945121" data-name="Grupo 945121">
              <g id="Grupo_945120" data-name="Grupo 945120">
                <path id="Trazado_683653" data-name="Trazado 683653" d="M60.115,43.567H55.33a.279.279,0,0,1-.279-.279V42.9a.279.279,0,0,1,.279-.279h4.785a.279.279,0,0,1,.279.279v.387A.279.279,0,0,1,60.115,43.567Z" transform="translate(-55.051 -42.622)" fill="#edf5fc"/>
              </g>
            </g>
          </g>
          <g id="Grupo_945129" data-name="Grupo 945129" transform="translate(11.276)">
            <g id="Grupo_945124" data-name="Grupo 945124" transform="translate(0.919 0.326)">
              <g id="Grupo_945123" data-name="Grupo 945123">
                <path id="Trazado_683654" data-name="Trazado 683654" d="M60.32,42.884V57.625a1.752,1.752,0,0,0,3.5,0V42.884Zm2.886,14.741a1.134,1.134,0,0,1-2.268,0V43.5h2.268Z" transform="translate(-60.32 -42.884)" fill="#c7dafa"/>
              </g>
            </g>
            <g id="Grupo_945126" data-name="Grupo 945126" transform="translate(1.538 6.606)">
              <g id="Grupo_945125" data-name="Grupo 945125">
                <path id="Trazado_683655" data-name="Trazado 683655" d="M60.817,47.93v8.461a1.134,1.134,0,0,0,2.268,0V47.93Z" transform="translate(-60.817 -47.93)" fill="#fcba97"/>
              </g>
            </g>
            <g id="Grupo_945128" data-name="Grupo 945128">
              <g id="Grupo_945127" data-name="Grupo 945127">
                <path id="Trazado_683656" data-name="Trazado 683656" d="M64.645,43.567H59.86a.279.279,0,0,1-.279-.279V42.9a.279.279,0,0,1,.279-.279h4.785a.279.279,0,0,1,.279.279v.387A.279.279,0,0,1,64.645,43.567Z" transform="translate(-59.581 -42.622)" fill="#edf5fc"/>
              </g>
            </g>
          </g>
        </g>
        <g id="Grupo_945132" data-name="Grupo 945132" transform="translate(0 20.552)">
          <g id="Grupo_945131" data-name="Grupo 945131">
            <path id="Trazado_683657" data-name="Trazado 683657" d="M47.507,59.137h24.12v1.434H47.507Z" transform="translate(-47.507 -59.137)" fill="#daeaf9"/>
          </g>
        </g>
        <g id="Grupo_945134" data-name="Grupo 945134" transform="translate(0 19.051)">
          <g id="Grupo_945133" data-name="Grupo 945133">
            <path id="Trazado_683658" data-name="Trazado 683658" d="M47.507,57.931h24.12v1.5H47.507Z" transform="translate(-47.507 -57.931)" fill="#edf5fc"/>
          </g>
        </g>
        <g id="Grupo_945136" data-name="Grupo 945136" transform="translate(0 4.391)">
          <g id="Grupo_945135" data-name="Grupo 945135">
            <path id="Trazado_683659" data-name="Trazado 683659" d="M47.507,46.15h24.12v1.5H47.507Z" transform="translate(-47.507 -46.15)" fill="#edf5fc"/>
          </g>
        </g>
        <g id="Grupo_945141" data-name="Grupo 945141" transform="translate(1.877 5.891)">
          <g id="Grupo_945138" data-name="Grupo 945138" transform="translate(18.715)">
            <g id="Grupo_945137" data-name="Grupo 945137">
              <path id="Trazado_683660" data-name="Trazado 683660" d="M64.054,47.356h1.651V62.017H64.054Z" transform="translate(-64.054 -47.356)" fill="#edf5fc"/>
            </g>
          </g>
          <g id="Grupo_945140" data-name="Grupo 945140">
            <g id="Grupo_945139" data-name="Grupo 945139">
              <path id="Trazado_683661" data-name="Trazado 683661" d="M49.015,47.356h1.651V62.017H49.015Z" transform="translate(-49.015 -47.356)" fill="#edf5fc"/>
            </g>
          </g>
        </g>
      </g>
      <g id="Grupo_945161" data-name="Grupo 945161" transform="translate(44.185 53.583)">
        <g id="Grupo_945144" data-name="Grupo 945144" transform="translate(4.32 1.439)" opacity="0.7">
          <g id="Grupo_945143" data-name="Grupo 945143">
            <path id="Trazado_683662" data-name="Trazado 683662" d="M43.522,45.1v6.59a6.265,6.265,0,0,0-3.758,0V45.1Z" transform="translate(-39.763 -45.096)" fill="#5150ac"/>
          </g>
        </g>
        <g id="Grupo_945146" data-name="Grupo 945146" transform="translate(0 7.741)" opacity="0.7">
          <g id="Grupo_945145" data-name="Grupo 945145">
            <path id="Trazado_683663" data-name="Trazado 683663" d="M48.69,56.358a6.187,6.187,0,1,1-4.32-5.91A6.2,6.2,0,0,1,48.69,56.358Z" transform="translate(-36.292 -50.159)" fill="#5150ac"/>
          </g>
        </g>
        <g id="Grupo_945148" data-name="Grupo 945148" transform="translate(4.803 13.739)">
          <g id="Grupo_945147" data-name="Grupo 945147">
            <path id="Trazado_683664" data-name="Trazado 683664" d="M46.512,55.173a1.784,1.784,0,0,0-1.411-.092,4.851,4.851,0,0,0-1.273.692,6.463,6.463,0,0,1-1.248.741,3.017,3.017,0,0,1-2.359-.067,3.816,3.816,0,0,0-.06.93,1.284,1.284,0,0,0,.377.832,1.816,1.816,0,0,0,1.086.354,7.46,7.46,0,0,0,3.127-.273,4.1,4.1,0,0,0,1.5-.916,3.3,3.3,0,0,0,.557-.712c.12-.207.309-.443.278-.694A1.159,1.159,0,0,0,46.512,55.173Z" transform="translate(-40.152 -54.98)" fill="#f99072"/>
          </g>
        </g>
        <g id="Grupo_945150" data-name="Grupo 945150" transform="translate(0.586 11.979)">
          <g id="Grupo_945149" data-name="Grupo 945149">
            <path id="Trazado_683665" data-name="Trazado 683665" d="M47.921,56.39a5.612,5.612,0,0,1-11.158-.865,5.532,5.532,0,0,1,.334-1.9,1.689,1.689,0,0,1,.642-.051A5.969,5.969,0,0,1,41.534,55.3c.386.388.72.832,1.138,1.185a2.036,2.036,0,0,0,1.5.547,4.62,4.62,0,0,0,1.173-.449,4.566,4.566,0,0,1,2.413-.223C47.813,56.371,47.866,56.381,47.921,56.39Z" transform="translate(-36.763 -53.565)" fill="#fcba97"/>
          </g>
        </g>
        <g id="Grupo_945152" data-name="Grupo 945152" transform="translate(3.123)" opacity="0.7">
          <g id="Grupo_945151" data-name="Grupo 945151">
            <path id="Trazado_683666" data-name="Trazado 683666" d="M44.712,45.378H39.04a.239.239,0,0,1-.239-.239v-.962a.239.239,0,0,1,.239-.239h5.672a.239.239,0,0,1,.239.239v.962A.239.239,0,0,1,44.712,45.378Z" transform="translate(-38.801 -43.939)" fill="#363383"/>
          </g>
        </g>
        <g id="Grupo_945154" data-name="Grupo 945154" transform="translate(6.807 12.134)">
          <g id="Grupo_945153" data-name="Grupo 945153">
            <path id="Trazado_683667" data-name="Trazado 683667" d="M42.5,54.27a.393.393,0,1,1-.16-.533A.393.393,0,0,1,42.5,54.27Z" transform="translate(-41.762 -53.689)" fill="#fcba97"/>
          </g>
        </g>
        <g id="Grupo_945156" data-name="Grupo 945156" transform="translate(8.273 10.316)">
          <g id="Grupo_945155" data-name="Grupo 945155">
            <path id="Trazado_683668" data-name="Trazado 683668" d="M43.681,52.809a.393.393,0,1,1-.16-.533A.393.393,0,0,1,43.681,52.809Z" transform="translate(-42.94 -52.229)" fill="#fcba97"/>
          </g>
        </g>
        <g id="Grupo_945158" data-name="Grupo 945158" transform="translate(6.089 9.474)">
          <g id="Grupo_945157" data-name="Grupo 945157">
            <path id="Trazado_683669" data-name="Trazado 683669" d="M42.1,52.27a.487.487,0,1,1-.2-.659A.486.486,0,0,1,42.1,52.27Z" transform="translate(-41.186 -51.552)" fill="#fcba97"/>
          </g>
        </g>
        <g id="Grupo_945160" data-name="Grupo 945160" transform="translate(4.822 6.4)">
          <g id="Grupo_945159" data-name="Grupo 945159">
            <path id="Trazado_683670" data-name="Trazado 683670" d="M41.082,49.8a.487.487,0,1,1-.2-.659A.486.486,0,0,1,41.082,49.8Z" transform="translate(-40.167 -49.082)" fill="#fcba97"/>
          </g>
        </g>
      </g>
      <g id="Grupo_945168" data-name="Grupo 945168" transform="translate(56.795 24.375)">
        <g id="Grupo_945163" data-name="Grupo 945163" transform="translate(0.652 1.438)">
          <g id="Grupo_945162" data-name="Grupo 945162">
            <path id="Trazado_683671" data-name="Trazado 683671" d="M51.973,21.623V33.934a2.512,2.512,0,1,1-5.024,0V21.623Z" transform="translate(-46.949 -21.623)" fill="#f1f7ff"/>
          </g>
        </g>
        <g id="Grupo_945165" data-name="Grupo 945165" transform="translate(1.092 3.805)">
          <g id="Grupo_945164" data-name="Grupo 945164">
            <path id="Trazado_683672" data-name="Trazado 683672" d="M47.3,23.525v9.943a2.072,2.072,0,1,0,4.144,0V23.525Z" transform="translate(-47.302 -23.525)" fill="#fcba97"/>
          </g>
        </g>
        <g id="Grupo_945167" data-name="Grupo 945167">
          <g id="Grupo_945166" data-name="Grupo 945166">
            <path id="Trazado_683673" data-name="Trazado 683673" d="M52.753,20.883v1.675a.417.417,0,0,1-.43.415H46.855a.417.417,0,0,1-.43-.415V20.883a.418.418,0,0,1,.43-.415h5.468A.418.418,0,0,1,52.753,20.883Z" transform="translate(-46.425 -20.468)" fill="#48609d"/>
          </g>
        </g>
      </g>
      <g id="Grupo_945170" data-name="Grupo 945170" transform="translate(53.567 28.086)">
        <g id="Grupo_945169" data-name="Grupo 945169">
          <path id="Trazado_683674" data-name="Trazado 683674" d="M43.831,25.762l2.441-1.946a1.679,1.679,0,0,1,2.435.369h0a1.679,1.679,0,0,1-.353,2.266l-.565.443a1.679,1.679,0,0,1-.163.113l-2.663,1.62Z" transform="translate(-43.831 -23.449)" fill="#f9c4c0"/>
        </g>
      </g>
      <g id="Grupo_945172" data-name="Grupo 945172" transform="translate(45.565 37.294)">
        <g id="Grupo_945171" data-name="Grupo 945171">
          <path id="Trazado_683675" data-name="Trazado 683675" d="M41.816,34.884l.658,4.586a1.467,1.467,0,0,1-1.223,1.657l-1.195.189L37.4,33.108s.4-.822.787-1.556a.9.9,0,0,1,1.493-.146l.016.02a.893.893,0,0,1,.1.966l-.368.716,5.312-2.177a1.091,1.091,0,0,1,1.485.8h0a1.091,1.091,0,0,1-.571,1.181Z" transform="translate(-37.401 -30.849)" fill="#f9c4c0"/>
        </g>
      </g>
    </g>
  </g>
</svg>
