<svg xmlns="http://www.w3.org/2000/svg" width="113" height="113" viewBox="0 0 113 113">
  <g id="Grupo_948334" data-name="Grupo 948334" transform="translate(-180 -991)">
    <circle id="Elipse_5327" data-name="Elipse 5327" cx="56.5" cy="56.5" r="56.5" transform="translate(180 991)" fill="#80cab6"/>
    <g id="matraz" transform="translate(202.4 1015)">
      <path id="Trazado_683676" data-name="Trazado 683676" d="M134.506,89.378l-3.227,5.378h-6.453L121.6,89.378,124.827,84h6.453Z" transform="translate(-103.867 -72.707)" fill="#f48827"/>
      <path id="Trazado_683677" data-name="Trazado 683677" d="M350.506,129.378l-3.227,5.378h-6.453l-3.227-5.378L340.827,124h6.453Z" transform="translate(-290.828 -107.329)" fill="#789dc3"/>
      <path id="Trazado_683678" data-name="Trazado 683678" d="M278.506,169.378l-3.227,5.378h-6.453l-3.227-5.378L268.827,164h6.453Z" transform="translate(-228.507 -141.952)" fill="#d94a56"/>
      <path id="Trazado_683679" data-name="Trazado 683679" d="M278.506,89.378l-3.227,5.378h-6.453L265.6,89.378,268.827,84h6.453Z" transform="translate(-228.507 -72.707)" fill="#42a24f"/>
      <path id="Trazado_683680" data-name="Trazado 683680" d="M206.506,49.378l-3.227,5.378h-6.453L193.6,49.378,196.827,44h6.453Z" transform="translate(-166.187 -38.085)" fill="#789dc3"/>
      <path id="Trazado_683681" data-name="Trazado 683681" d="M278.506,9.378l-3.227,5.378h-6.453L265.6,9.378,268.827,4h6.453Z" transform="translate(-228.507 -3.462)" fill="#f48827"/>
      <path id="Trazado_683682" data-name="Trazado 683682" d="M350.506,49.378l-3.227,5.378h-6.453L337.6,49.378,340.827,44h6.453Z" transform="translate(-290.828 -38.085)" fill="#d94a56"/>
      <path id="Trazado_683683" data-name="Trazado 683683" d="M350.506,209.378l-3.227,5.378h-6.453l-3.227-5.378L340.827,204h6.453Z" transform="translate(-290.828 -176.574)" fill="#42a24f"/>
      <path id="Trazado_683684" data-name="Trazado 683684" d="M27.413,134.151h0A2.157,2.157,0,0,0,25.262,132H14.506a2.157,2.157,0,0,0-2.151,2.151h0a2.157,2.157,0,0,0,2.151,2.151h0v12.906L2.138,171.9a4.824,4.824,0,0,0-.538,2.044v1.076a4.315,4.315,0,0,0,4.3,4.3H33.866a4.315,4.315,0,0,0,4.3-4.3v-1.076a4.449,4.449,0,0,0-.538-2.044L25.262,149.209V136.3h0A2.157,2.157,0,0,0,27.413,134.151Z" transform="translate(0 -114.254)" fill="#d3d2d6"/>
      <path id="Trazado_683685" data-name="Trazado 683685" d="M33.866,345.511a4.315,4.315,0,0,0,4.3-4.3v-1.076a4.448,4.448,0,0,0-.538-2.043L29.994,324H28.381a2.123,2.123,0,0,0-1.506.645l-.86.86a2.123,2.123,0,0,1-1.506.645h-.323a2.123,2.123,0,0,1-1.506-.645l-.86-.86A2.123,2.123,0,0,0,20.314,324h-.323a2.123,2.123,0,0,0-1.506.645l-.86.86a2.123,2.123,0,0,1-1.506.645H15.8a2.123,2.123,0,0,1-1.506-.645l-.86-.86A2.123,2.123,0,0,0,11.925,324H9.774L2.138,338.089a4.448,4.448,0,0,0-.538,2.043v1.076a4.315,4.315,0,0,0,4.3,4.3Z" transform="translate(0 -280.441)" fill="#d94a56"/>
      <g id="Grupo_945173" data-name="Grupo 945173" transform="translate(6.978 50.012)">
        <circle id="Elipse_5391" data-name="Elipse 5391" cx="3.227" cy="3.227" r="3.227" transform="translate(0 4.302)" fill="#fff"/>
        <circle id="Elipse_5392" data-name="Elipse 5392" cx="2.151" cy="2.151" r="2.151" transform="translate(11.831 6.453)" fill="#fff"/>
        <circle id="Elipse_5393" data-name="Elipse 5393" cx="2.151" cy="2.151" r="2.151" transform="translate(18.284)" fill="#fff"/>
      </g>
      <g id="Grupo_945174" data-name="Grupo 945174" transform="translate(11.28 37.106)">
        <rect id="Rectángulo_337380" data-name="Rectángulo 337380" width="2.151" height="2.151" transform="translate(0 11.831)" fill="#d3d2d6"/>
        <rect id="Rectángulo_337381" data-name="Rectángulo 337381" width="2.151" height="2.151" transform="translate(4.302 11.831)" fill="#d3d2d6"/>
        <rect id="Rectángulo_337382" data-name="Rectángulo 337382" width="2.151" height="2.151" transform="translate(21.511 22.586)" fill="#d3d2d6"/>
        <rect id="Rectángulo_337383" data-name="Rectángulo 337383" width="2.151" height="2.151" transform="translate(17.209 22.586)" fill="#d3d2d6"/>
        <path id="Trazado_683686" data-name="Trazado 683686" d="M304.091,276v9.142a9.695,9.695,0,1,0,12.369,5.915,9.507,9.507,0,0,0-5.915-5.915V276" transform="translate(-267.523 -276)" fill="#d3d2d6"/>
      </g>
      <path id="Trazado_683687" data-name="Trazado 683687" d="M309.586,414.755a9.686,9.686,0,0,0,9.68-9.572,4.411,4.411,0,0,0-.108-1.183h-1.183a2.123,2.123,0,0,0-1.506.645l-.86.86a2.124,2.124,0,0,1-1.506.645h-.323a2.123,2.123,0,0,1-1.506-.645l-.86-.86a2.124,2.124,0,0,0-1.506-.645h-.323a2.124,2.124,0,0,0-1.506.645l-.86.86a2.123,2.123,0,0,1-1.506.645h-.323a2.124,2.124,0,0,1-1.506-.645l-.86-.86a2.123,2.123,0,0,0-1.506-.645h-1.183a9.506,9.506,0,0,0,8.389,10.648C308.833,414.755,309.156,414.755,309.586,414.755Z" transform="translate(-258.511 -349.686)" fill="#789dc3"/>
      <rect id="Rectángulo_337384" data-name="Rectángulo 337384" width="10.755" height="2.151" transform="translate(45.697 36.03)" fill="#858486"/>
      <g id="Grupo_945175" data-name="Grupo 945175" transform="translate(35.963)">
        <rect id="Rectángulo_337385" data-name="Rectángulo 337385" width="2.151" height="2.151" transform="translate(11.885 59.692)" fill="#d3d2d6"/>
        <rect id="Rectángulo_337386" data-name="Rectángulo 337386" width="2.151" height="2.151" transform="translate(16.187 59.692)" fill="#d3d2d6"/>
        <path id="Trazado_683688" data-name="Trazado 683688" d="M271.881,6.991h5.27l2.9,4.84a1.13,1.13,0,0,0,.968.538h6.453V10.218h-5.808l-2.581-4.3,2.9-4.84L280.163,0l-3.119,4.84h-5.808a1.129,1.129,0,0,0-.968.538l-2.9,4.84h-5.808a1.13,1.13,0,0,0-.968.538l-3.227,5.378a.977.977,0,0,0,0,1.076l3.227,5.378a1.13,1.13,0,0,0,.968.538h5.808l2.9,4.84a1.129,1.129,0,0,0,.968.538h6.453a1.13,1.13,0,0,0,.968-.538l2.9-4.84h5.808V20.973h-5.808l-2.9-4.84a1.13,1.13,0,0,0-.968-.538h-5.808l-1.291-2.151L269.3,11.293Zm-12.261,9.68,2.581-4.3h5.27l1.291,2.151,1.291,2.151-1.291,2.151-1.291,2.151H262.2Zm20,5.378-2.581,4.3h-5.27l-2.581-4.3,1.291-2.151,1.291-2.151h5.27Z" transform="translate(-257.2)" fill="#d3d2d6"/>
      </g>
      <g id="Grupo_945176" data-name="Grupo 945176" transform="translate(14.506 23.124)">
        <rect id="Rectángulo_337387" data-name="Rectángulo 337387" width="6.453" height="2.151" transform="translate(33.342 17.209)" fill="#858486"/>
        <rect id="Rectángulo_337388" data-name="Rectángulo 337388" width="10.755" height="2.151" fill="#858486"/>
      </g>
      <circle id="Elipse_5394" data-name="Elipse 5394" cx="2.151" cy="2.151" r="2.151" transform="translate(12.355 9.142)" fill="#789dc3"/>
      <circle id="Elipse_5395" data-name="Elipse 5395" cx="3.227" cy="3.227" r="3.227" transform="translate(18.809 0.538)" fill="#f48827"/>
      <circle id="Elipse_5396" data-name="Elipse 5396" cx="4.302" cy="4.302" r="4.302" transform="translate(1.6 0.538)" fill="#d94a56"/>
    </g>
  </g>
</svg>
