<svg xmlns="http://www.w3.org/2000/svg" width="282.344" height="43.299" viewBox="0 0 282.344 43.299">
  <g id="Grupo_948223" data-name="Grupo 948223" transform="translate(-882.945 -8601.804)">
    <path id="Trazado_723466" data-name="Trazado 723466" d="M.945,16.547V15a3,3,0,0,0,.637.422,5.159,5.159,0,0,0,.781.316,6.219,6.219,0,0,0,.824.2,4.6,4.6,0,0,0,.766.07,3,3,0,0,0,1.809-.449,1.685,1.685,0,0,0,.4-2.082,2.244,2.244,0,0,0-.551-.613,5.465,5.465,0,0,0-.832-.531q-.48-.254-1.035-.535-.586-.3-1.094-.6a4.739,4.739,0,0,1-.883-.672,2.8,2.8,0,0,1-.59-.832A2.575,2.575,0,0,1,.961,8.6,2.563,2.563,0,0,1,1.3,7.27a2.881,2.881,0,0,1,.883-.934,4,4,0,0,1,1.246-.547,5.706,5.706,0,0,1,1.426-.18,5.464,5.464,0,0,1,2.414.4V7.484A4.376,4.376,0,0,0,4.719,6.8a4.189,4.189,0,0,0-.859.09,2.428,2.428,0,0,0-.766.293,1.7,1.7,0,0,0-.547.523,1.389,1.389,0,0,0-.211.781,1.608,1.608,0,0,0,.16.742,1.819,1.819,0,0,0,.473.57,4.708,4.708,0,0,0,.762.5q.449.242,1.035.531.6.3,1.141.625a5.214,5.214,0,0,1,.945.727,3.229,3.229,0,0,1,.645.883,2.482,2.482,0,0,1,.238,1.109,2.813,2.813,0,0,1-.324,1.4,2.661,2.661,0,0,1-.875.934,3.822,3.822,0,0,1-1.27.52,6.953,6.953,0,0,1-1.516.16,6.176,6.176,0,0,1-.656-.043Q2.7,17.1,2.3,17.02a6.5,6.5,0,0,1-.77-.2A2.394,2.394,0,0,1,.945,16.547Z" transform="translate(882 8609.316)" fill="#12263f"/>
    <path id="Trazado_723465" data-name="Trazado 723465" d="M9.133,8.57a3.269,3.269,0,0,1-.254,1.313,3.031,3.031,0,0,1-.7,1.008,3.416,3.416,0,0,1-1.062.676,4.532,4.532,0,0,1-1.344.316v.031a1.3,1.3,0,0,1,.645.492,3.027,3.027,0,0,1,.449,1.008L7.8,17H6.367l-.828-3.344a2.026,2.026,0,0,0-.574-1.078,1.531,1.531,0,0,0-1.043-.344H2.945L1.922,17H.578L2.945,5.8H6.031a4.028,4.028,0,0,1,1.406.219,2.615,2.615,0,0,1,.961.6,2.373,2.373,0,0,1,.555.883A3.175,3.175,0,0,1,9.133,8.57Zm-1.375.141a1.976,1.976,0,0,0-.117-.691,1.431,1.431,0,0,0-.359-.547,1.666,1.666,0,0,0-.617-.359,2.747,2.747,0,0,0-.891-.129H4.047l-.859,4.063H4.734a4.36,4.36,0,0,0,1.395-.2,2.728,2.728,0,0,0,.938-.516,1.894,1.894,0,0,0,.527-.746A2.424,2.424,0,0,0,7.758,8.711Z" transform="translate(891 8617.257)" fill="#12263f"/>
    <text id="_" data-name="=" transform="translate(906.5 8609.316)" fill="#12263f" font-size="16" font-family="SegoeUI, Segoe UI"><tspan x="0" y="17">=</tspan></text>
    <text id="_2" data-name="=" transform="translate(986.5 8609.83)" fill="#12263f" font-size="16" font-family="SegoeUI, Segoe UI"><tspan x="0" y="17">=</tspan></text>
    <path id="Trazado_723463" data-name="Trazado 723463" d="M17.484,17H16.2V7.32a2.966,2.966,0,0,1-.434.34,7.068,7.068,0,0,1-.641.379q-.355.188-.75.352a5.451,5.451,0,0,1-.77.258v-1.3a7.448,7.448,0,0,0,.895-.316q.473-.2.93-.445t.863-.516a6.854,6.854,0,0,0,.7-.527h.484Zm8.625,0H24.828V7.32a2.966,2.966,0,0,1-.434.34,7.068,7.068,0,0,1-.641.379q-.355.188-.75.352a5.451,5.451,0,0,1-.77.258v-1.3a7.448,7.448,0,0,0,.895-.316q.473-.2.93-.445t.863-.516a6.854,6.854,0,0,0,.7-.527h.484Zm5.438-1.781L30.3,19.063h-.914l.914-3.844Zm8.844-4.492a11.159,11.159,0,0,1-.3,2.738A6.108,6.108,0,0,1,39.2,15.5a3.942,3.942,0,0,1-1.43,1.266,4.145,4.145,0,0,1-1.922.434,4.6,4.6,0,0,1-1.953-.391V15.578a3.981,3.981,0,0,0,1.984.523,2.881,2.881,0,0,0,1.355-.312,2.807,2.807,0,0,0,1.012-.91,4.468,4.468,0,0,0,.633-1.473,8.315,8.315,0,0,0,.219-2.008h-.031a2.559,2.559,0,0,1-2.5,1.445,3.361,3.361,0,0,1-1.32-.254,3.025,3.025,0,0,1-1.039-.719,3.289,3.289,0,0,1-.68-1.105,3.97,3.97,0,0,1-.242-1.414,4.119,4.119,0,0,1,.27-1.516,3.532,3.532,0,0,1,.75-1.184,3.356,3.356,0,0,1,1.141-.77,3.73,3.73,0,0,1,1.441-.273,3.191,3.191,0,0,1,1.5.34,3,3,0,0,1,1.1.992,4.9,4.9,0,0,1,.68,1.605A9.166,9.166,0,0,1,40.391,10.727ZM39.008,9.578A3.9,3.9,0,0,0,38.84,8.4a2.856,2.856,0,0,0-.465-.91,2.086,2.086,0,0,0-.707-.586,1.957,1.957,0,0,0-.895-.207,2.028,2.028,0,0,0-.859.184,2.066,2.066,0,0,0-.691.516,2.462,2.462,0,0,0-.461.789,2.866,2.866,0,0,0-.168,1,3.277,3.277,0,0,0,.16,1.063,2.219,2.219,0,0,0,.457.793,1.974,1.974,0,0,0,.715.5,2.412,2.412,0,0,0,.926.172,2.121,2.121,0,0,0,.84-.168,2.224,2.224,0,0,0,.688-.453,2.088,2.088,0,0,0,.461-.672A2.066,2.066,0,0,0,39.008,9.578Z" transform="translate(922 8596.257)" fill="#12263f"/>
    <path id="Trazado_723462" data-name="Trazado 723462" d="M9.715,11.352a11.005,11.005,0,0,1-.254,2.492,5.807,5.807,0,0,1-.734,1.832,3.305,3.305,0,0,1-1.18,1.133,3.23,3.23,0,0,1-1.59.387,3.016,3.016,0,0,1-1.5-.371A3.152,3.152,0,0,1,3.34,15.742,5.484,5.484,0,0,1,2.652,14a10.8,10.8,0,0,1-.234-2.371,12.222,12.222,0,0,1,.246-2.594,5.933,5.933,0,0,1,.723-1.887A3.216,3.216,0,0,1,4.57,6a3.323,3.323,0,0,1,1.621-.387Q9.715,5.609,9.715,11.352ZM8.4,11.477Q8.4,6.7,6.129,6.7q-2.4,0-2.4,4.867,0,4.539,2.352,4.539Q8.4,16.1,8.4,11.477Zm4.438,3.742-1.25,3.844h-.914l.914-3.844Zm8.969-3.867a11.005,11.005,0,0,1-.254,2.492,5.807,5.807,0,0,1-.734,1.832,3.305,3.305,0,0,1-1.18,1.133,3.23,3.23,0,0,1-1.59.387,3.016,3.016,0,0,1-1.5-.371,3.152,3.152,0,0,1-1.113-1.082A5.484,5.484,0,0,1,14.746,14a10.8,10.8,0,0,1-.234-2.371,12.222,12.222,0,0,1,.246-2.594,5.933,5.933,0,0,1,.723-1.887A3.216,3.216,0,0,1,16.664,6a3.323,3.323,0,0,1,1.621-.387Q21.809,5.609,21.809,11.352Zm-1.312.125Q20.5,6.7,18.223,6.7q-2.4,0-2.4,4.867,0,4.539,2.352,4.539Q20.5,16.1,20.5,11.477ZM29.105,5.8v7.4h1.438v1.172H29.105V17H27.84V14.367H22.574V13.258q.734-.828,1.484-1.77t1.434-1.91q.684-.969,1.266-1.934a17.671,17.671,0,0,0,.98-1.848ZM24.02,13.2h3.82V7.711q-.586,1.023-1.109,1.828t-1,1.461q-.473.656-.9,1.188T24.02,13.2Zm7.773.68a2.981,2.981,0,0,1,.141-.895,3.24,3.24,0,0,1,.4-.84,3.33,3.33,0,0,1,.648-.711,3.091,3.091,0,0,1,.879-.508,3.322,3.322,0,0,1-1.156-1.043,2.466,2.466,0,0,1-.43-1.41,2.72,2.72,0,0,1,.238-1.141,2.748,2.748,0,0,1,.66-.906,3.052,3.052,0,0,1,1-.6,3.735,3.735,0,0,1,2.508,0,3.106,3.106,0,0,1,1,.6,2.7,2.7,0,0,1,.656.906,2.74,2.74,0,0,1,.234,1.133,2.466,2.466,0,0,1-.43,1.41A3.363,3.363,0,0,1,37,10.922a3.064,3.064,0,0,1,.867.508,3.379,3.379,0,0,1,.645.711,3.24,3.24,0,0,1,.4.84,2.981,2.981,0,0,1,.141.895,3.327,3.327,0,0,1-.266,1.344,3,3,0,0,1-.746,1.043,3.444,3.444,0,0,1-1.148.676,4.293,4.293,0,0,1-1.473.242,4.235,4.235,0,0,1-1.461-.242,3.5,3.5,0,0,1-1.148-.676,3.023,3.023,0,0,1-.754-1.043A3.285,3.285,0,0,1,31.793,13.875Zm1.391-.109a2.647,2.647,0,0,0,.16.945,2.038,2.038,0,0,0,.453.719,1.978,1.978,0,0,0,.711.457,2.568,2.568,0,0,0,.926.16,2.439,2.439,0,0,0,.906-.164,2.112,2.112,0,0,0,.715-.461,2.073,2.073,0,0,0,.469-.719,2.514,2.514,0,0,0,.168-.937,2.4,2.4,0,0,0-.16-.879,2.2,2.2,0,0,0-.457-.723,2.147,2.147,0,0,0-.711-.492,2.313,2.313,0,0,0-.93-.18,2.338,2.338,0,0,0-.895.168,2.14,2.14,0,0,0-.711.469,2.171,2.171,0,0,0-.473.719A2.391,2.391,0,0,0,33.184,13.766Zm.4-5.2a1.86,1.86,0,0,0,1.133,1.73,1.846,1.846,0,0,0,1.441,0,1.867,1.867,0,0,0,.59-.4,1.95,1.95,0,0,0,.4-.594,1.8,1.8,0,0,0,.148-.73,1.916,1.916,0,0,0-.145-.75,1.841,1.841,0,0,0-1.715-1.133,1.864,1.864,0,0,0-.754.148,1.821,1.821,0,0,0-.586.4,1.759,1.759,0,0,0-.379.6A2.02,2.02,0,0,0,33.582,8.57Zm6.836,5.3a2.981,2.981,0,0,1,.141-.895,3.24,3.24,0,0,1,.4-.84,3.33,3.33,0,0,1,.648-.711,3.091,3.091,0,0,1,.879-.508,3.322,3.322,0,0,1-1.156-1.043,2.466,2.466,0,0,1-.43-1.41,2.72,2.72,0,0,1,.238-1.141,2.748,2.748,0,0,1,.66-.906,3.052,3.052,0,0,1,1-.6,3.735,3.735,0,0,1,2.508,0,3.106,3.106,0,0,1,1,.6,2.7,2.7,0,0,1,.656.906A2.74,2.74,0,0,1,47.2,8.469a2.466,2.466,0,0,1-.43,1.41,3.363,3.363,0,0,1-1.141,1.043,3.064,3.064,0,0,1,.867.508,3.379,3.379,0,0,1,.645.711,3.24,3.24,0,0,1,.4.84,2.981,2.981,0,0,1,.141.895,3.327,3.327,0,0,1-.266,1.344,3,3,0,0,1-.746,1.043,3.444,3.444,0,0,1-1.148.676,4.293,4.293,0,0,1-1.473.242,4.235,4.235,0,0,1-1.461-.242,3.5,3.5,0,0,1-1.148-.676,3.023,3.023,0,0,1-.754-1.043A3.285,3.285,0,0,1,40.418,13.875Zm1.391-.109a2.647,2.647,0,0,0,.16.945,2.038,2.038,0,0,0,.453.719,1.978,1.978,0,0,0,.711.457,2.568,2.568,0,0,0,.926.16,2.439,2.439,0,0,0,.906-.164,2.112,2.112,0,0,0,.715-.461,2.073,2.073,0,0,0,.469-.719,2.514,2.514,0,0,0,.168-.937,2.4,2.4,0,0,0-.16-.879,2.2,2.2,0,0,0-.457-.723,2.147,2.147,0,0,0-.711-.492,2.313,2.313,0,0,0-.93-.18,2.338,2.338,0,0,0-.895.168,2.14,2.14,0,0,0-.711.469,2.171,2.171,0,0,0-.473.719A2.391,2.391,0,0,0,41.809,13.766Zm.4-5.2A1.86,1.86,0,0,0,43.34,10.3a1.846,1.846,0,0,0,1.441,0,1.867,1.867,0,0,0,.59-.4,1.95,1.95,0,0,0,.4-.594,1.8,1.8,0,0,0,.148-.73,1.916,1.916,0,0,0-.145-.75,1.841,1.841,0,0,0-1.715-1.133,1.864,1.864,0,0,0-.754.148,1.821,1.821,0,0,0-.586.4,1.759,1.759,0,0,0-.379.6A2.02,2.02,0,0,0,42.207,8.57ZM54.98,5.8v7.4h1.438v1.172H54.98V17H53.715V14.367H48.449V13.258q.734-.828,1.484-1.77t1.434-1.91q.684-.969,1.266-1.934a17.672,17.672,0,0,0,.98-1.848Zm-5.086,7.4h3.82V7.711q-.586,1.023-1.109,1.828t-1,1.461q-.473.656-.9,1.188T49.895,13.2Zm14.641.383a3.771,3.771,0,0,1-.281,1.484,3.245,3.245,0,0,1-.8,1.141,3.586,3.586,0,0,1-1.254.734,4.9,4.9,0,0,1-1.633.258,4.511,4.511,0,0,1-2.32-.469V15.367a4.266,4.266,0,0,0,2.336.734,3.161,3.161,0,0,0,1.1-.18,2.439,2.439,0,0,0,.832-.5,2.141,2.141,0,0,0,.527-.773,2.618,2.618,0,0,0,.184-.992,2.125,2.125,0,0,0-.734-1.715,3.221,3.221,0,0,0-2.133-.621q-.227,0-.477.008t-.5.02q-.25.012-.488.027t-.434.039L58.84,5.8h5.18V6.953h-4.07l-.227,3.289q.25-.016.531-.027t.5-.012a5.028,5.028,0,0,1,1.594.234,3.377,3.377,0,0,1,1.191.668,2.8,2.8,0,0,1,.742,1.063A3.737,3.737,0,0,1,64.535,13.578Zm10.836,3.563a.816.816,0,0,1-.605-.25.836.836,0,0,1-.246-.609.876.876,0,0,1,.246-.621.8.8,0,0,1,.605-.262.815.815,0,0,1,.605.262.862.862,0,0,1,.254.621.823.823,0,0,1-.254.609A.833.833,0,0,1,75.371,17.141Zm-3.922,0a.842.842,0,0,1-.613-.25.823.823,0,0,1-.254-.609.862.862,0,0,1,.254-.621.823.823,0,0,1,.613-.262.815.815,0,0,1,.605.262.862.862,0,0,1,.254.621.823.823,0,0,1-.254.609A.833.833,0,0,1,71.449,17.141Zm-3.922,0a.8.8,0,0,1-.6-.25.843.843,0,0,1-.242-.609.884.884,0,0,1,.242-.621.786.786,0,0,1,.6-.262.815.815,0,0,1,.605.262.862.862,0,0,1,.254.621.854.854,0,0,1-.859.859Zm11.531.031a.829.829,0,0,1-.613-.258.849.849,0,0,1-.254-.617.862.862,0,0,1,.254-.621.823.823,0,0,1,.613-.262.845.845,0,0,1,.625.262.855.855,0,0,1,.258.621.842.842,0,0,1-.258.617A.851.851,0,0,1,79.059,17.172Zm3.469,0a.829.829,0,0,1-.613-.258.849.849,0,0,1-.254-.617.862.862,0,0,1,.254-.621.823.823,0,0,1,.613-.262.845.845,0,0,1,.625.262.855.855,0,0,1,.258.621.842.842,0,0,1-.258.617A.851.851,0,0,1,82.527,17.172Z" transform="translate(1004.5 8609.83)" fill="#12263f"/>
    <path id="Trazado_723461" data-name="Trazado 723461" d="M9.172,11.352a11.005,11.005,0,0,1-.254,2.492,5.807,5.807,0,0,1-.734,1.832A3.305,3.305,0,0,1,7,16.809a3.23,3.23,0,0,1-1.59.387,3.016,3.016,0,0,1-1.5-.371A3.152,3.152,0,0,1,2.8,15.742,5.484,5.484,0,0,1,2.109,14a10.8,10.8,0,0,1-.234-2.371,12.222,12.222,0,0,1,.246-2.594,5.933,5.933,0,0,1,.723-1.887A3.216,3.216,0,0,1,4.027,6a3.323,3.323,0,0,1,1.621-.387Q9.172,5.609,9.172,11.352Zm-1.312.125Q7.859,6.7,5.586,6.7q-2.4,0-2.4,4.867,0,4.539,2.352,4.539Q7.859,16.1,7.859,11.477ZM12.3,15.219l-1.25,3.844h-.914l.914-3.844Zm8.969-3.867a11.005,11.005,0,0,1-.254,2.492,5.807,5.807,0,0,1-.734,1.832,3.305,3.305,0,0,1-1.18,1.133,3.23,3.23,0,0,1-1.59.387,3.016,3.016,0,0,1-1.5-.371,3.152,3.152,0,0,1-1.113-1.082A5.484,5.484,0,0,1,14.2,14a10.8,10.8,0,0,1-.234-2.371,12.222,12.222,0,0,1,.246-2.594,5.933,5.933,0,0,1,.723-1.887A3.216,3.216,0,0,1,16.121,6a3.323,3.323,0,0,1,1.621-.387Q21.266,5.609,21.266,11.352Zm-1.312.125q0-4.781-2.273-4.781-2.4,0-2.4,4.867,0,4.539,2.352,4.539Q19.953,16.1,19.953,11.477ZM28.563,5.8v7.4H30v1.172H28.563V17H27.3V14.367H22.031V13.258q.734-.828,1.484-1.77t1.434-1.91q.684-.969,1.266-1.934A17.671,17.671,0,0,0,27.2,5.8Zm-5.086,7.4H27.3V7.711q-.586,1.023-1.109,1.828t-1,1.461q-.473.656-.9,1.188T23.477,13.2Zm7.773.68a2.981,2.981,0,0,1,.141-.895,3.24,3.24,0,0,1,.4-.84,3.33,3.33,0,0,1,.648-.711,3.091,3.091,0,0,1,.879-.508,3.322,3.322,0,0,1-1.156-1.043,2.466,2.466,0,0,1-.43-1.41,2.719,2.719,0,0,1,.9-2.047,3.052,3.052,0,0,1,1-.6,3.735,3.735,0,0,1,2.508,0,3.106,3.106,0,0,1,1,.6,2.7,2.7,0,0,1,.656.906,2.74,2.74,0,0,1,.234,1.133,2.466,2.466,0,0,1-.43,1.41,3.363,3.363,0,0,1-1.141,1.043,3.064,3.064,0,0,1,.867.508,3.379,3.379,0,0,1,.645.711,3.24,3.24,0,0,1,.4.84,2.981,2.981,0,0,1,.141.895,3.327,3.327,0,0,1-.266,1.344,3,3,0,0,1-.746,1.043,3.444,3.444,0,0,1-1.148.676,4.293,4.293,0,0,1-1.473.242,4.235,4.235,0,0,1-1.461-.242,3.5,3.5,0,0,1-1.148-.676,3.023,3.023,0,0,1-.754-1.043A3.285,3.285,0,0,1,31.25,13.875Zm1.391-.109a2.647,2.647,0,0,0,.16.945,2.038,2.038,0,0,0,.453.719,1.978,1.978,0,0,0,.711.457,2.568,2.568,0,0,0,.926.16,2.439,2.439,0,0,0,.906-.164,2.112,2.112,0,0,0,.715-.461,2.073,2.073,0,0,0,.469-.719,2.514,2.514,0,0,0,.168-.937,2.4,2.4,0,0,0-.16-.879,2.2,2.2,0,0,0-.457-.723,2.147,2.147,0,0,0-.711-.492,2.313,2.313,0,0,0-.93-.18A2.338,2.338,0,0,0,34,11.66a2.14,2.14,0,0,0-.711.469,2.171,2.171,0,0,0-.473.719A2.391,2.391,0,0,0,32.641,13.766Zm.4-5.2a1.86,1.86,0,0,0,1.133,1.73,1.846,1.846,0,0,0,1.441,0,1.867,1.867,0,0,0,.59-.4,1.95,1.95,0,0,0,.4-.594,1.8,1.8,0,0,0,.148-.73,1.916,1.916,0,0,0-.145-.75,1.841,1.841,0,0,0-1.715-1.133,1.864,1.864,0,0,0-.754.148,1.821,1.821,0,0,0-.586.4,1.759,1.759,0,0,0-.379.6A2.02,2.02,0,0,0,33.039,8.57Zm6.836,5.3a2.981,2.981,0,0,1,.141-.895,3.24,3.24,0,0,1,.4-.84,3.33,3.33,0,0,1,.648-.711,3.091,3.091,0,0,1,.879-.508,3.322,3.322,0,0,1-1.156-1.043,2.466,2.466,0,0,1-.43-1.41A2.72,2.72,0,0,1,40.6,7.328a2.748,2.748,0,0,1,.66-.906,3.052,3.052,0,0,1,1-.6,3.735,3.735,0,0,1,2.508,0,3.106,3.106,0,0,1,1,.6,2.7,2.7,0,0,1,.656.906,2.74,2.74,0,0,1,.234,1.133,2.466,2.466,0,0,1-.43,1.41,3.363,3.363,0,0,1-1.141,1.043,3.064,3.064,0,0,1,.867.508,3.379,3.379,0,0,1,.645.711,3.24,3.24,0,0,1,.4.84,2.981,2.981,0,0,1,.141.895,3.327,3.327,0,0,1-.266,1.344,3,3,0,0,1-.746,1.043,3.444,3.444,0,0,1-1.148.676,4.293,4.293,0,0,1-1.473.242,4.235,4.235,0,0,1-1.461-.242,3.5,3.5,0,0,1-1.148-.676,3.023,3.023,0,0,1-.754-1.043A3.285,3.285,0,0,1,39.875,13.875Zm1.391-.109a2.647,2.647,0,0,0,.16.945,2.038,2.038,0,0,0,.453.719,1.978,1.978,0,0,0,.711.457,2.568,2.568,0,0,0,.926.16,2.439,2.439,0,0,0,.906-.164,2.112,2.112,0,0,0,.715-.461,2.073,2.073,0,0,0,.469-.719,2.514,2.514,0,0,0,.168-.937,2.4,2.4,0,0,0-.16-.879,2.2,2.2,0,0,0-.457-.723,2.147,2.147,0,0,0-.711-.492,2.313,2.313,0,0,0-.93-.18,2.338,2.338,0,0,0-.895.168,2.14,2.14,0,0,0-.711.469,2.171,2.171,0,0,0-.473.719A2.391,2.391,0,0,0,41.266,13.766Zm.4-5.2A1.86,1.86,0,0,0,42.8,10.3a1.846,1.846,0,0,0,1.441,0,1.867,1.867,0,0,0,.59-.4,1.95,1.95,0,0,0,.4-.594,1.8,1.8,0,0,0,.148-.73,1.916,1.916,0,0,0-.145-.75,1.841,1.841,0,0,0-1.715-1.133,1.864,1.864,0,0,0-.754.148,1.821,1.821,0,0,0-.586.4,1.759,1.759,0,0,0-.379.6A2.02,2.02,0,0,0,41.664,8.57Z" transform="translate(1118.148 8609.83)" fill="#12263f"/>
    <path id="Trazado_723464" data-name="Trazado 723464" d="M8.047,8.734a2.316,2.316,0,0,0-.16-.9A1.739,1.739,0,0,0,6.8,6.82,2.555,2.555,0,0,0,5.984,6.7a2.688,2.688,0,0,0-.734.1,3.57,3.57,0,0,0-.7.281,4.3,4.3,0,0,0-.656.43,4.74,4.74,0,0,0-.59.555V6.688a3.831,3.831,0,0,1,1.207-.8,4.25,4.25,0,0,1,1.629-.277,3.932,3.932,0,0,1,1.273.2,2.92,2.92,0,0,1,1.016.582,2.691,2.691,0,0,1,.676.945,3.188,3.188,0,0,1,.246,1.289,4.42,4.42,0,0,1-.152,1.2,3.721,3.721,0,0,1-.461,1.016,4.9,4.9,0,0,1-.777.914,11.011,11.011,0,0,1-1.1.891q-.789.563-1.3.961a5.75,5.75,0,0,0-.812.746,2.165,2.165,0,0,0-.422.7,2.43,2.43,0,0,0-.121.8H9.781V17H2.867v-.555a4.622,4.622,0,0,1,.156-1.266,3.286,3.286,0,0,1,.516-1.039,5.767,5.767,0,0,1,.941-.984q.582-.492,1.426-1.109a9.014,9.014,0,0,0,1.02-.836,4.346,4.346,0,0,0,.66-.8,2.862,2.862,0,0,0,.355-.809A3.486,3.486,0,0,0,8.047,8.734ZM17.281,5.8v7.4h1.438v1.172H17.281V17H16.016V14.367H10.75V13.258q.734-.828,1.484-1.77t1.434-1.91q.684-.969,1.266-1.934a17.671,17.671,0,0,0,.98-1.848ZM12.2,13.2h3.82V7.711q-.586,1.023-1.109,1.828T13.91,11q-.473.656-.9,1.188T12.2,13.2Zm14.516.633a3.266,3.266,0,0,1-.285,1.379,3.045,3.045,0,0,1-.8,1.063,3.714,3.714,0,0,1-1.246.684,5.04,5.04,0,0,1-1.6.242,4.654,4.654,0,0,1-2.547-.609V15.211a4.081,4.081,0,0,0,2.594.891,3.525,3.525,0,0,0,1.059-.148,2.374,2.374,0,0,0,.813-.43,1.909,1.909,0,0,0,.523-.68,2.123,2.123,0,0,0,.184-.9q0-2.2-3.125-2.2h-.93V10.664h.883q2.766,0,2.766-2.062,0-1.906-2.109-1.906a3.592,3.592,0,0,0-2.227.8V6.25A4.868,4.868,0,0,1,23.2,5.609a3.913,3.913,0,0,1,1.273.2,2.918,2.918,0,0,1,.977.547,2.423,2.423,0,0,1,.629.844A2.6,2.6,0,0,1,26.3,8.281a2.735,2.735,0,0,1-2.234,2.844v.031a3.534,3.534,0,0,1,1.055.277,2.814,2.814,0,0,1,.836.559,2.49,2.49,0,0,1,.551.809A2.582,2.582,0,0,1,26.711,13.828Zm3.648,1.391-1.25,3.844H28.2l.914-3.844Zm8.57-1.641a3.771,3.771,0,0,1-.281,1.484,3.245,3.245,0,0,1-.8,1.141,3.586,3.586,0,0,1-1.254.734,4.9,4.9,0,0,1-1.633.258,4.511,4.511,0,0,1-2.32-.469V15.367a4.266,4.266,0,0,0,2.336.734,3.161,3.161,0,0,0,1.1-.18,2.439,2.439,0,0,0,.832-.5,2.141,2.141,0,0,0,.527-.773,2.618,2.618,0,0,0,.184-.992,2.125,2.125,0,0,0-.734-1.715,3.221,3.221,0,0,0-2.133-.621q-.227,0-.477.008t-.5.02q-.25.012-.488.027t-.434.039L33.234,5.8h5.18V6.953h-4.07l-.227,3.289q.25-.016.531-.027t.5-.012a5.028,5.028,0,0,1,1.594.234,3.377,3.377,0,0,1,1.191.668,2.8,2.8,0,0,1,.742,1.063A3.737,3.737,0,0,1,38.93,13.578Z" transform="translate(928 8626.04)" fill="#12263f"/>
    <path id="Trazado_721369" data-name="Trazado 721369" d="M17814.5-4923.5h52.922" transform="translate(-16892.42 13545.148)" fill="none" stroke="#000" stroke-width="1"/>
    <g id="Grupo_948220" data-name="Grupo 948220" transform="translate(140.506 380.257)">
      <path id="Trazado_721372" data-name="Trazado 721372" d="M17766-3463l5.145,5.145-5.145,5.145" transform="translate(-16799.504 11700)" fill="none" stroke="#000" stroke-width="2"/>
      <path id="Trazado_721373" data-name="Trazado 721373" d="M17742.994-3452.71h16.363" transform="translate(-16788 11694.854)" fill="none" stroke="#000" stroke-width="2"/>
      <path id="Trazado_721374" data-name="Trazado 721374" d="M17742.994-3463v10.569" transform="translate(-16788 11700)" fill="none" stroke="#000" stroke-width="2"/>
    </g>
  </g>
</svg>
