<svg xmlns="http://www.w3.org/2000/svg" width="208.528" height="92.972" viewBox="0 0 208.528 92.972">
  <g id="Grupo_948116" data-name="Grupo 948116" transform="translate(0)">
    <path id="Trazado_721312" data-name="Trazado 721312" d="M1081.483,294.092c.459,2.1-.579,2.367-2.428,2.365q-62.993-.077-125.986-.071c-1.737,0-2.538.224-2.911,2.271q-7.974,43.773-16.188,87.5a6.1,6.1,0,0,1-.388.9c-.489-.948-.9-1.673-1.246-2.429-3.627-7.907-7.272-15.806-10.836-23.741-.668-1.486-1.2-2.378-2.682-.81-.469.5-.989.9-1.62,0-.6-.858-.589-1.344.319-1.969,1.543-1.063,2.987-2.269,4.738-3.619l10.909,23.172c.68-3.541,1.257-6.477,1.806-9.419q6.836-36.652,13.669-73.305a5.654,5.654,0,0,1,.3-.848Z" transform="translate(-873.063 -294.092)" fill="#262626"/>
    <path id="Trazado_721313" data-name="Trazado 721313" d="M1059.176,419.5q-28.734,0-57.467.021c-1.3,0-2.155-.077-1.939-1.746.1-.8.35-1.054,1.089-.989.373.033.751,0,1.126,0q57.355,0,114.71.039c.724,0,2.028-.821,2.165,1,.111,1.471-.439,1.707-1.766,1.7-10.141-.054-20.282-.029-30.424-.029Z" transform="translate(-918.52 -361.253)" fill="#262626"/>
    <path id="Trazado_721314" data-name="Trazado 721314" d="M1097.171,467.708c0-4.842-.044-9.17.039-13.5.015-.807-.842-2.306,1.127-2.257,1.758.044,1.026,1.385,1.036,2.161q.1,7.56,0,15.121c-.008.686.626,1.76-.61,2.068a2.235,2.235,0,0,1-2.577-1.241c-2.834-4.247-5.776-8.423-8.686-12.619-.366-.527-.781-1.021-1.5-1.953,0,5,.025,9.478-.025,13.952-.008.725.606,1.892-1.038,1.915-1.579.022-1.149-1.058-1.153-1.858-.024-5.116-.036-10.232.014-15.347.007-.728-.536-1.814.571-2.142a2.186,2.186,0,0,1,2.621,1.127c2.746,4.126,5.617,8.168,8.449,12.236C1095.893,466.026,1096.384,466.649,1097.171,467.708Z" transform="translate(-964.518 -380.576)" fill="#282828"/>
    <path id="Trazado_721315" data-name="Trazado 721315" d="M826.761,396.9c-3.1-.056-5.667-1.648-6.4-4.057-.2-.645-.714-1.588.287-1.932.8-.275,1.556-.247,1.973,1.046a4.435,4.435,0,0,0,6.219,2.616,3.062,3.062,0,0,0,.68-5.425,14.72,14.72,0,0,0-3.479-1.524,23.892,23.892,0,0,1-3.261-1.452,4.358,4.358,0,0,1-1.766-5.5c.808-2.18,3.06-3.5,5.8-3.408,2.653.094,4.9,1.5,5.474,3.568.141.509.761,1.425-.272,1.645-.646.137-1.6.523-1.951-.788-.542-2.022-2.141-2.525-4.049-2.359a2.815,2.815,0,0,0-2.855,2.369,2.6,2.6,0,0,0,1.828,3.175c1.383.563,2.813,1.014,4.182,1.607,3.321,1.438,4.59,3.442,3.972,6.139C832.533,395.253,829.992,396.96,826.761,396.9Z" transform="translate(-820.05 -339.67)" fill="#282828"/>
    <path id="Trazado_721316" data-name="Trazado 721316" d="M1090.378,366.22c1.616-2.3,3.191-4.548,4.776-6.791,2.139-3.027,2.137-3.021.052-5.954-1.425-2-2.831-4.019-4.265-6.057,1.7-.808,2.706-.219,3.558,1.171.978,1.6,2.165,3.06,3.162,4.645.7,1.111,1.163,1.369,1.958.059.971-1.6,2.2-3.04,3.162-4.645a2.753,2.753,0,0,1,3.667-1.347c-1.778,2.516-3.418,5.043-5.281,7.393a2.324,2.324,0,0,0-.007,3.427c2.014,2.59,3.836,5.33,5.8,8.1-1.835.665-2.884.018-3.761-1.437-1.005-1.666-2.247-3.186-3.281-4.836-.846-1.35-1.44-1.962-2.479-.1-.981,1.76-2.349,3.3-3.38,5.036A2.694,2.694,0,0,1,1090.378,366.22Z" transform="translate(-968.193 -323.115)" fill="#272727"/>
    <path id="Trazado_721317" data-name="Trazado 721317" d="M1019.2,364.489c3.831,0,7.181,0,10.531,0,.716,0,1.559-.209,1.512,1.031-.043,1.134-.844.84-1.444.843-3.83.021-7.66.032-11.49-.012-.588-.007-1.466.443-1.737-.456a2.3,2.3,0,0,1,.522-2.3c1.811-2.009,3.529-4.1,5.378-6.075.842-.9.882-1.45-.042-2.339-1.73-1.665-3.269-3.529-4.977-5.219a2.316,2.316,0,0,1-.734-2.429c.307-1.029,1.278-.5,1.93-.506q5.068-.083,10.138,0c.743.012,2.007-.582,1.96,1.005-.042,1.4-1.179.864-1.869.877-2.975.056-5.952.024-9.514.024,1.845,1.949,3.31,3.494,4.772,5.042,2.194,2.322,2.188,2.319.152,4.65C1022.68,360.462,1021.086,362.31,1019.2,364.489Z" transform="translate(-927.684 -323.03)" fill="#272727"/>
    <path id="Trazado_721318" data-name="Trazado 721318" d="M1177.314,373.036c-4.359.381-4.262-3.946-6.714-5.389-2.429,1.226-2.3,5.8-6.7,5.38,1.573-2.129,2.92-4.09,4.418-5.926.846-1.037,1-1.775.046-2.864-1.32-1.514-2.433-3.209-3.658-4.859,2.2-.45,2.2-.451,3.438,1.252.788,1.083,1.572,2.17,2.273,3.139,2.367-1.224,2.19-5.36,6.235-4.579-1.353,1.791-2.555,3.49-3.876,5.091a1.743,1.743,0,0,0-.055,2.659C1174.29,368.817,1175.681,370.847,1177.314,373.036Z" transform="translate(-1008.482 -329.713)" fill="#282828"/>
    <path id="Trazado_721319" data-name="Trazado 721319" d="M1236.413,333.824c1.884,0,3.45-.056,5.01.027.627.033,1.707-.532,1.783.671.084,1.32-1.06.744-1.658.762-2.25.069-4.505.057-6.757,0-.5-.012-1.274.424-1.487-.488-.164-.7.359-1.063.815-1.473,1.394-1.255,2.79-2.512,4.127-3.827a9,9,0,0,0,2.447-3.731c.506-1.657.312-3.18-1.381-4.06-1.492-.776-3.017-.042-3.871,1.883-.321.725-.631,1.227-1.448.969-1.1-.348-.4-1.153-.25-1.667a4.712,4.712,0,0,1,6.087-2.759,4.488,4.488,0,0,1,2.728,5.682,10.825,10.825,0,0,1-2.708,4.357C1238.781,331.305,1237.716,332.44,1236.413,333.824Z" transform="translate(-1046.501 -308.219)" fill="#282828"/>
    <path id="Trazado_721320" data-name="Trazado 721320" d="M1165.705,454.881c-1.569.984-2.714,1.973-4.342,2.264-.391-1.159-.384-2.035,1.059-2.5a7.458,7.458,0,0,0,3.149-2.09,1.752,1.752,0,0,1,1.836-.528c.815.216.518.98.52,1.522.02,5.473,0,10.946.02,16.42,0,.831-.032,1.417-1.154,1.429-1.183.013-1.094-.671-1.093-1.444C1165.709,465.082,1165.705,460.211,1165.705,454.881Z" transform="translate(-1006.974 -380.601)" fill="#2c2c2c"/>
    <path id="Trazado_721321" data-name="Trazado 721321" d="M1068.668,365.418a1.678,1.678,0,0,1-2.457-.881q-6.5-11.459-.042-22.919c.528-.939,1.113-1.617,2.516-1.026C1063.948,348.809,1063.871,357.1,1068.668,365.418Z" transform="translate(-953.162 -319.453)" fill="#292929"/>
    <path id="Trazado_721322" data-name="Trazado 721322" d="M1208.678,365.423c4.628-10.215,4.625-13.258.033-24.886.993-.46,1.583-.122,2.19.776,4.385,6.5,4.41,16.6.066,23.307C1210.37,365.54,1209.8,365.9,1208.678,365.423Z" transform="translate(-1033.023 -319.432)" fill="#292929"/>
    <path id="Trazado_721323" data-name="Trazado 721323" d="M1169.738,345q3.381,0,6.762,0c.589,0,1.2-.118,1.191.852-.012.825-.2,1.231-1.124,1.225q-6.987-.044-13.975,0c-.855,0-1.176-.262-1.2-1.158-.026-1.148.725-.913,1.355-.916C1165.079,344.992,1167.408,345,1169.738,345Z" transform="translate(-1007.111 -321.983)" fill="#282a31"/>
    <path id="Trazado_721324" data-name="Trazado 721324" d="M1137.408,372.268c1.868,0,3.736.009,5.6,0,.686,0,1.147.16,1.155.979s-.448,1-1.137,1q-5.716-.011-11.432,0c-.691,0-1.129-.147-1.128-.98,0-.812.4-1.008,1.11-1C1133.522,372.281,1135.465,372.268,1137.408,372.268Z" transform="translate(-990.164 -336.929)" fill="#3e3e3e"/>
    <path id="Trazado_721325" data-name="Trazado 721325" d="M1132.431,477.16c1.868,0,3.736.009,5.6,0,.693-.005,1.141.176,1.145.99s-.465.986-1.148.985q-5.715-.01-11.432,0c-.7,0-1.121-.164-1.117-.991s.417-1,1.12-.99C1128.545,477.173,1130.488,477.16,1132.431,477.16Z" transform="translate(-987.431 -394.411)" fill="#3e3e3e"/>
    <path id="Trazado_721326" data-name="Trazado 721326" d="M876.587,394.041c1.416,0,2.831.018,4.246-.007.76-.014,1.061.3,1.042,1.063-.017.693-.381.911-.983.912-2.98,0-5.96,0-8.94.007-.678,0-.876-.339-.9-.965-.029-.788.318-1.038,1.064-1.021C873.606,394.064,875.1,394.04,876.587,394.041Z" transform="translate(-848 -348.859)" fill="#2d2d2d"/>
    <path id="Trazado_721327" data-name="Trazado 721327" d="M876.474,408.593c-1.415,0-2.829-.005-4.244,0-.621,0-1.183.025-1.179-.882,0-.745.231-1.077,1.017-1.069,2.9.026,5.808.013,8.712.008.692,0,1.1.2,1.1,1.019,0,.885-.519.927-1.158.924C879.3,408.588,877.889,408.592,876.474,408.593Z" transform="translate(-847.999 -355.772)" fill="#292929"/>
  </g>
</svg>
