<svg xmlns="http://www.w3.org/2000/svg" width="182" height="182" viewBox="0 0 182 182">
  <g id="Grupo_957298" data-name="Grupo 957298" transform="translate(-1017 -9933)">
    <circle id="Elipse_7709" data-name="Elipse 7709" cx="91" cy="91" r="91" transform="translate(1017 9933)" fill="#fff"/>
    <path id="Trazado_723473" data-name="Trazado 723473" d="M41.6,86H8V29.984h32.3V40.258H20.621V52.719h18.32V62.953H20.621V75.766H41.6Zm55.977,0H83.082L74.371,71.586q-.977-1.641-1.875-2.93a16.276,16.276,0,0,0-1.816-2.207,7.223,7.223,0,0,0-1.914-1.406,4.858,4.858,0,0,0-2.168-.488H63.2V86H50.582V29.984h20q20.391,0,20.391,15.234a15.776,15.776,0,0,1-.9,5.41A15.029,15.029,0,0,1,87.535,55.1a16.1,16.1,0,0,1-3.965,3.438A20.447,20.447,0,0,1,78.395,60.8v.156a8.028,8.028,0,0,1,2.422,1.27,17.342,17.342,0,0,1,2.266,2.051,28.612,28.612,0,0,1,2.09,2.52q1,1.348,1.816,2.637ZM63.2,39.438V55.023h5.469a9.067,9.067,0,0,0,6.523-2.344,7.822,7.822,0,0,0,2.5-5.9q0-7.344-8.789-7.344Z" transform="translate(1059 9971)" fill="#0540b7"/>
  </g>
</svg>
