<svg xmlns="http://www.w3.org/2000/svg" width="610" height="432.642" viewBox="0 0 610 432.642">
  <g id="Grupo_956619" data-name="Grupo 956619" transform="translate(-396.965 -13255.946)">
    <g id="Grupo_948320" data-name="Grupo 948320" transform="translate(445.135 13292.505)">
      <path id="Trazado_721934" data-name="Trazado 721934" d="M15.157,22.684a6.163,6.163,0,0,1-2.016,4.261,6.874,6.874,0,0,1-4.677,1.53,6.656,6.656,0,0,1-3.593-.967,6.348,6.348,0,0,1-2.4-2.749,9.921,9.921,0,0,1-.879-4.138V19.026a9.992,9.992,0,0,1,.856-4.255,6.45,6.45,0,0,1,2.456-2.837,6.851,6.851,0,0,1,3.7-1,6.582,6.582,0,0,1,4.549,1.536,6.416,6.416,0,0,1,2,4.338H12.2a4.216,4.216,0,0,0-1.073-2.655A3.545,3.545,0,0,0,8.6,13.341a3.464,3.464,0,0,0-2.972,1.413A7.055,7.055,0,0,0,4.571,18.9V20.41a7.484,7.484,0,0,0,.991,4.22,3.288,3.288,0,0,0,2.9,1.454,3.834,3.834,0,0,0,2.626-.785A4.1,4.1,0,0,0,12.2,22.684Zm9.906,5.557H22.226v-13.7l-4.185,1.43v-2.4l6.659-2.45h.363Z" transform="translate(23.996 113.086)" fill="#12263f"/>
      <path id="Trazado_721935" data-name="Trazado 721935" d="M15.157,22.684a6.163,6.163,0,0,1-2.016,4.261,6.874,6.874,0,0,1-4.677,1.53,6.656,6.656,0,0,1-3.593-.967,6.348,6.348,0,0,1-2.4-2.749,9.921,9.921,0,0,1-.879-4.138V19.026a9.992,9.992,0,0,1,.856-4.255,6.45,6.45,0,0,1,2.456-2.837,6.851,6.851,0,0,1,3.7-1,6.582,6.582,0,0,1,4.549,1.536,6.416,6.416,0,0,1,2,4.338H12.2a4.216,4.216,0,0,0-1.073-2.655A3.545,3.545,0,0,0,8.6,13.341a3.464,3.464,0,0,0-2.972,1.413A7.055,7.055,0,0,0,4.571,18.9V20.41a7.484,7.484,0,0,0,.991,4.22,3.288,3.288,0,0,0,2.9,1.454,3.834,3.834,0,0,0,2.626-.785A4.1,4.1,0,0,0,12.2,22.684Zm13.669,5.557H17.35V26.283l5.686-6.2a14.158,14.158,0,0,0,1.753-2.292,3.713,3.713,0,0,0,.522-1.846,2.805,2.805,0,0,0-.686-1.969,2.379,2.379,0,0,0-1.846-.75,2.742,2.742,0,0,0-2.145.844,3.319,3.319,0,0,0-.762,2.309H17.021a5.583,5.583,0,0,1,.709-2.808,4.884,4.884,0,0,1,2.028-1.94,6.455,6.455,0,0,1,3.042-.692,5.774,5.774,0,0,1,3.921,1.249,4.334,4.334,0,0,1,1.436,3.452,5.859,5.859,0,0,1-.721,2.679A15.232,15.232,0,0,1,25.075,21.5L20.9,25.966h7.925Z" transform="translate(118.957 113.086)" fill="#12263f"/>
      <path id="Trazado_721936" data-name="Trazado 721936" d="M15.157,22.684a6.163,6.163,0,0,1-2.016,4.261,6.874,6.874,0,0,1-4.677,1.53,6.656,6.656,0,0,1-3.593-.967,6.348,6.348,0,0,1-2.4-2.749,9.921,9.921,0,0,1-.879-4.138V19.026a9.992,9.992,0,0,1,.856-4.255,6.45,6.45,0,0,1,2.456-2.837,6.851,6.851,0,0,1,3.7-1,6.582,6.582,0,0,1,4.549,1.536,6.416,6.416,0,0,1,2,4.338H12.2a4.216,4.216,0,0,0-1.073-2.655A3.545,3.545,0,0,0,8.6,13.341a3.464,3.464,0,0,0-2.972,1.413A7.055,7.055,0,0,0,4.571,18.9V20.41a7.484,7.484,0,0,0,.991,4.22,3.288,3.288,0,0,0,2.9,1.454,3.834,3.834,0,0,0,2.626-.785A4.1,4.1,0,0,0,12.2,22.684Zm5.486-4.279h1.735a3.1,3.1,0,0,0,2.081-.68,2.426,2.426,0,0,0,.768-1.934,2.643,2.643,0,0,0-.639-1.893,2.571,2.571,0,0,0-1.952-.674,2.72,2.72,0,0,0-1.887.662,2.213,2.213,0,0,0-.739,1.729H17.162a4.312,4.312,0,0,1,.7-2.392,4.686,4.686,0,0,1,1.946-1.682,6.339,6.339,0,0,1,2.8-.6,5.871,5.871,0,0,1,4.015,1.284,4.5,4.5,0,0,1,1.46,3.57,3.627,3.627,0,0,1-.733,2.163,4.6,4.6,0,0,1-1.893,1.53A4.188,4.188,0,0,1,27.59,21a4.14,4.14,0,0,1,.733,2.462,4.584,4.584,0,0,1-1.577,3.658,6.122,6.122,0,0,1-4.144,1.36,6.076,6.076,0,0,1-4.033-1.313A4.324,4.324,0,0,1,17,23.669h2.849A2.383,2.383,0,0,0,20.6,25.5a2.867,2.867,0,0,0,2.034.7,2.958,2.958,0,0,0,2.087-.7,2.639,2.639,0,0,0,.762-2.04,2.666,2.666,0,0,0-.8-2.075,3.408,3.408,0,0,0-2.368-.727H20.644Z" transform="translate(215.865 113.086)" fill="#12263f"/>
      <path id="Trazado_721937" data-name="Trazado 721937" d="M15.157,22.684a6.163,6.163,0,0,1-2.016,4.261,6.874,6.874,0,0,1-4.677,1.53,6.656,6.656,0,0,1-3.593-.967,6.348,6.348,0,0,1-2.4-2.749,9.921,9.921,0,0,1-.879-4.138V19.026a9.992,9.992,0,0,1,.856-4.255,6.45,6.45,0,0,1,2.456-2.837,6.851,6.851,0,0,1,3.7-1,6.582,6.582,0,0,1,4.549,1.536,6.416,6.416,0,0,1,2,4.338H12.2a4.216,4.216,0,0,0-1.073-2.655A3.545,3.545,0,0,0,8.6,13.341a3.464,3.464,0,0,0-2.972,1.413A7.055,7.055,0,0,0,4.571,18.9V20.41a7.484,7.484,0,0,0,.991,4.22,3.288,3.288,0,0,0,2.9,1.454,3.834,3.834,0,0,0,2.626-.785A4.1,4.1,0,0,0,12.2,22.684Zm11.829-.528h2.122v2.286H26.986v3.8H24.137v-3.8H16.763l-.082-1.735,7.362-11.535h2.942Zm-7.315,0h4.466V15.029l-.211.375Z" transform="translate(310.825 113.086)" fill="#12263f"/>
      <path id="Trazado_721938" data-name="Trazado 721938" d="M15.157,22.684a6.163,6.163,0,0,1-2.016,4.261,6.874,6.874,0,0,1-4.677,1.53,6.656,6.656,0,0,1-3.593-.967,6.348,6.348,0,0,1-2.4-2.749,9.921,9.921,0,0,1-.879-4.138V19.026a9.992,9.992,0,0,1,.856-4.255,6.45,6.45,0,0,1,2.456-2.837,6.851,6.851,0,0,1,3.7-1,6.582,6.582,0,0,1,4.549,1.536,6.416,6.416,0,0,1,2,4.338H12.2a4.216,4.216,0,0,0-1.073-2.655A3.545,3.545,0,0,0,8.6,13.341a3.464,3.464,0,0,0-2.972,1.413A7.055,7.055,0,0,0,4.571,18.9V20.41a7.484,7.484,0,0,0,.991,4.22,3.288,3.288,0,0,0,2.9,1.454,3.834,3.834,0,0,0,2.626-.785A4.1,4.1,0,0,0,12.2,22.684Zm2.954-2.907.926-8.6h9.167v2.462h-6.8l-.469,4.08a5.27,5.27,0,0,1,2.673-.68A4.755,4.755,0,0,1,27.4,18.593a6.179,6.179,0,0,1,1.354,4.2,5.687,5.687,0,0,1-1.5,4.144,5.477,5.477,0,0,1-4.115,1.542,5.736,5.736,0,0,1-3.886-1.331,4.81,4.81,0,0,1-1.671-3.511h2.755a3.009,3.009,0,0,0,.891,1.9,2.71,2.71,0,0,0,1.9.662,2.449,2.449,0,0,0,2.046-.938,4.048,4.048,0,0,0,.733-2.556A3.577,3.577,0,0,0,25.1,20.24a2.829,2.829,0,0,0-2.227-.909,3.706,3.706,0,0,0-1.313.205,3.719,3.719,0,0,0-1.172.8Z" transform="translate(407.733 113.086)" fill="#12263f"/>
      <path id="Trazado_721939" data-name="Trazado 721939" d="M15.157,22.684a6.163,6.163,0,0,1-2.016,4.261,6.874,6.874,0,0,1-4.677,1.53,6.656,6.656,0,0,1-3.593-.967,6.348,6.348,0,0,1-2.4-2.749,9.921,9.921,0,0,1-.879-4.138V19.026a9.992,9.992,0,0,1,.856-4.255,6.45,6.45,0,0,1,2.456-2.837,6.851,6.851,0,0,1,3.7-1,6.582,6.582,0,0,1,4.549,1.536,6.416,6.416,0,0,1,2,4.338H12.2a4.216,4.216,0,0,0-1.073-2.655A3.545,3.545,0,0,0,8.6,13.341a3.464,3.464,0,0,0-2.972,1.413A7.055,7.055,0,0,0,4.571,18.9V20.41a7.484,7.484,0,0,0,.991,4.22,3.288,3.288,0,0,0,2.9,1.454,3.834,3.834,0,0,0,2.626-.785A4.1,4.1,0,0,0,12.2,22.684ZM26.212,11.09v2.356H25.86a5.655,5.655,0,0,0-3.822,1.313,5.494,5.494,0,0,0-1.7,3.622,4.626,4.626,0,0,1,3.505-1.442,4.369,4.369,0,0,1,3.57,1.594,6.279,6.279,0,0,1,1.307,4.115,5.87,5.87,0,0,1-1.53,4.214,5.281,5.281,0,0,1-4.015,1.612,5.158,5.158,0,0,1-4.144-1.887,7.424,7.424,0,0,1-1.588-4.947v-.973a10.446,10.446,0,0,1,2.186-7.034,7.839,7.839,0,0,1,6.289-2.544Zm-3.06,8.148a3,3,0,0,0-1.717.528,3.084,3.084,0,0,0-1.143,1.407v.868a5.11,5.11,0,0,0,.8,3.019,2.431,2.431,0,0,0,2.063,1.12,2.4,2.4,0,0,0,2-.95,3.954,3.954,0,0,0,.739-2.5,4.011,4.011,0,0,0-.75-2.52A2.392,2.392,0,0,0,23.152,19.237Z" transform="translate(502.694 113.086)" fill="#12263f"/>
      <g id="flask" transform="translate(0)">
        <path id="Trazado_721426" data-name="Trazado 721426" d="M188.528,75.934H137.467l11.594-18.953a2.219,2.219,0,0,0,.326-1.158V16.349h27.221V55.823a2.22,2.22,0,0,0,.326,1.158Z" transform="translate(-122.114 -12.828)" fill="#d3e1f4"/>
        <path id="Trazado_721427" data-name="Trazado 721427" d="M231.95,75.934H221.459l-11.92-19.486V32.708a5.849,5.849,0,0,0-5.849-5.849H192.809V16.348H220.03V55.822a2.217,2.217,0,0,0,.326,1.158Z" transform="translate(-165.536 -12.827)" fill="#b3cbea"/>
        <path id="Trazado_721428" data-name="Trazado 721428" d="M131.242,282.692H82.894L68.748,305.817A17.258,17.258,0,0,0,83.47,332.082h47.2a17.258,17.258,0,0,0,14.722-26.264Z" transform="translate(-66.185 -221.804)" fill="#31a7fb"/>
        <path id="Trazado_721429" data-name="Trazado 721429" d="M327.919,282.692H317.429l14.146,23.125a17.258,17.258,0,0,1-14.722,26.265h10.491a17.258,17.258,0,0,0,14.722-26.265Z" transform="translate(-262.863 -221.804)" fill="#1c96f9"/>
        <path id="Trazado_721430" data-name="Trazado 721430" d="M203.317,7.157h-30a3.579,3.579,0,0,1,0-7.157h30a3.579,3.579,0,0,1,0,7.157Z" transform="translate(-147.432)" fill="#eaf6ff"/>
        <path id="Trazado_721431" data-name="Trazado 721431" d="M301.593,3.579a3.575,3.575,0,0,1-3.579,3.579h-7.586a3.579,3.579,0,1,0,0-7.158h7.586a3.579,3.579,0,0,1,3.579,3.579Z" transform="translate(-242.129 0)" fill="#d3e1f4"/>
        <g id="Grupo_948285" data-name="Grupo 948285" transform="translate(33.664 35.421)">
          <g id="Grupo_948276" data-name="Grupo 948276" transform="translate(0)">
            <path id="Trazado_721432" data-name="Trazado 721432" d="M233.83,167.781h-9.684a1.664,1.664,0,1,1,0-3.328h9.684a1.664,1.664,0,0,1,0,3.328Z" transform="translate(-222.482 -164.453)" fill="#84aee1"/>
          </g>
          <g id="Grupo_948277" data-name="Grupo 948277" transform="translate(0 7.417)">
            <path id="Trazado_721433" data-name="Trazado 721433" d="M230.139,202.215h-5.993a1.664,1.664,0,0,1,0-3.328h5.993a1.664,1.664,0,0,1,0,3.328Z" transform="translate(-222.482 -198.887)" fill="#84aee1"/>
          </g>
          <g id="Grupo_948278" data-name="Grupo 948278" transform="translate(0 14.833)">
            <path id="Trazado_721434" data-name="Trazado 721434" d="M230.139,236.649h-5.993a1.664,1.664,0,1,1,0-3.328h5.993a1.664,1.664,0,0,1,0,3.328Z" transform="translate(-222.482 -233.321)" fill="#84aee1"/>
          </g>
          <g id="Grupo_948279" data-name="Grupo 948279" transform="translate(0 22.25)">
            <path id="Trazado_721435" data-name="Trazado 721435" d="M230.139,271.083h-5.993a1.664,1.664,0,1,1,0-3.328h5.993a1.664,1.664,0,0,1,0,3.328Z" transform="translate(-222.482 -267.755)" fill="#84aee1"/>
          </g>
          <g id="Grupo_948280" data-name="Grupo 948280" transform="translate(0 29.666)">
            <path id="Trazado_721436" data-name="Trazado 721436" d="M233.83,305.517h-9.684a1.664,1.664,0,1,1,0-3.328h9.684a1.664,1.664,0,0,1,0,3.328Z" transform="translate(-222.482 -302.189)" fill="#1c96f9"/>
          </g>
          <g id="Grupo_948281" data-name="Grupo 948281" transform="translate(0 59.333)">
            <path id="Trazado_721437" data-name="Trazado 721437" d="M233.83,443.254h-9.684a1.664,1.664,0,1,1,0-3.328h9.684a1.664,1.664,0,0,1,0,3.328Z" transform="translate(-222.482 -439.926)" fill="#1c96f9"/>
          </g>
          <g id="Grupo_948282" data-name="Grupo 948282" transform="translate(0 37.083)">
            <path id="Trazado_721438" data-name="Trazado 721438" d="M230.139,339.951h-5.993a1.664,1.664,0,1,1,0-3.328h5.993a1.664,1.664,0,0,1,0,3.328Z" transform="translate(-222.482 -336.623)" fill="#1c96f9"/>
          </g>
          <g id="Grupo_948283" data-name="Grupo 948283" transform="translate(0 44.5)">
            <path id="Trazado_721439" data-name="Trazado 721439" d="M230.139,374.386h-5.993a1.664,1.664,0,1,1,0-3.328h5.993a1.664,1.664,0,0,1,0,3.328Z" transform="translate(-222.482 -371.058)" fill="#1c96f9"/>
          </g>
          <g id="Grupo_948284" data-name="Grupo 948284" transform="translate(0 51.916)">
            <path id="Trazado_721440" data-name="Trazado 721440" d="M230.139,408.82h-5.993a1.664,1.664,0,1,1,0-3.328h5.993a1.664,1.664,0,0,1,0,3.328Z" transform="translate(-222.482 -405.492)" fill="#1c96f9"/>
          </g>
        </g>
      </g>
      <g id="flask-2" data-name="flask" transform="translate(287.803)">
        <path id="Trazado_721426-2" data-name="Trazado 721426" d="M188.528,75.934H137.467l11.594-18.953a2.219,2.219,0,0,0,.326-1.158V16.349h27.221V55.823a2.22,2.22,0,0,0,.326,1.158Z" transform="translate(-122.114 -12.828)" fill="#d3e1f4"/>
        <path id="Trazado_721427-2" data-name="Trazado 721427" d="M231.95,75.934H221.459l-11.92-19.486V32.708a5.849,5.849,0,0,0-5.849-5.849H192.809V16.348H220.03V55.822a2.217,2.217,0,0,0,.326,1.158Z" transform="translate(-165.536 -12.827)" fill="#b3cbea"/>
        <path id="Trazado_721428-2" data-name="Trazado 721428" d="M131.242,282.692H82.894L68.748,305.817A17.258,17.258,0,0,0,83.47,332.082h47.2a17.258,17.258,0,0,0,14.722-26.264Z" transform="translate(-66.185 -221.804)" fill="#31a7fb"/>
        <path id="Trazado_721429-2" data-name="Trazado 721429" d="M327.919,282.692H317.429l14.146,23.125a17.258,17.258,0,0,1-14.722,26.265h10.491a17.258,17.258,0,0,0,14.722-26.265Z" transform="translate(-262.863 -221.804)" fill="#1c96f9"/>
        <path id="Trazado_721430-2" data-name="Trazado 721430" d="M203.317,7.157h-30a3.579,3.579,0,0,1,0-7.157h30a3.579,3.579,0,0,1,0,7.157Z" transform="translate(-147.432)" fill="#eaf6ff"/>
        <path id="Trazado_721431-2" data-name="Trazado 721431" d="M301.593,3.579a3.575,3.575,0,0,1-3.579,3.579h-7.586a3.579,3.579,0,1,0,0-7.158h7.586a3.579,3.579,0,0,1,3.579,3.579Z" transform="translate(-242.129 0)" fill="#d3e1f4"/>
        <g id="Grupo_948285-2" data-name="Grupo 948285" transform="translate(33.664 35.421)">
          <g id="Grupo_948276-2" data-name="Grupo 948276" transform="translate(0)">
            <path id="Trazado_721432-2" data-name="Trazado 721432" d="M233.83,167.781h-9.684a1.664,1.664,0,1,1,0-3.328h9.684a1.664,1.664,0,0,1,0,3.328Z" transform="translate(-222.482 -164.453)" fill="#84aee1"/>
          </g>
          <g id="Grupo_948277-2" data-name="Grupo 948277" transform="translate(0 7.417)">
            <path id="Trazado_721433-2" data-name="Trazado 721433" d="M230.139,202.215h-5.993a1.664,1.664,0,0,1,0-3.328h5.993a1.664,1.664,0,0,1,0,3.328Z" transform="translate(-222.482 -198.887)" fill="#84aee1"/>
          </g>
          <g id="Grupo_948278-2" data-name="Grupo 948278" transform="translate(0 14.833)">
            <path id="Trazado_721434-2" data-name="Trazado 721434" d="M230.139,236.649h-5.993a1.664,1.664,0,1,1,0-3.328h5.993a1.664,1.664,0,0,1,0,3.328Z" transform="translate(-222.482 -233.321)" fill="#84aee1"/>
          </g>
          <g id="Grupo_948279-2" data-name="Grupo 948279" transform="translate(0 22.25)">
            <path id="Trazado_721435-2" data-name="Trazado 721435" d="M230.139,271.083h-5.993a1.664,1.664,0,1,1,0-3.328h5.993a1.664,1.664,0,0,1,0,3.328Z" transform="translate(-222.482 -267.755)" fill="#84aee1"/>
          </g>
          <g id="Grupo_948280-2" data-name="Grupo 948280" transform="translate(0 29.666)">
            <path id="Trazado_721436-2" data-name="Trazado 721436" d="M233.83,305.517h-9.684a1.664,1.664,0,1,1,0-3.328h9.684a1.664,1.664,0,0,1,0,3.328Z" transform="translate(-222.482 -302.189)" fill="#1c96f9"/>
          </g>
          <g id="Grupo_948281-2" data-name="Grupo 948281" transform="translate(0 59.333)">
            <path id="Trazado_721437-2" data-name="Trazado 721437" d="M233.83,443.254h-9.684a1.664,1.664,0,1,1,0-3.328h9.684a1.664,1.664,0,0,1,0,3.328Z" transform="translate(-222.482 -439.926)" fill="#1c96f9"/>
          </g>
          <g id="Grupo_948282-2" data-name="Grupo 948282" transform="translate(0 37.083)">
            <path id="Trazado_721438-2" data-name="Trazado 721438" d="M230.139,339.951h-5.993a1.664,1.664,0,1,1,0-3.328h5.993a1.664,1.664,0,0,1,0,3.328Z" transform="translate(-222.482 -336.623)" fill="#1c96f9"/>
          </g>
          <g id="Grupo_948283-2" data-name="Grupo 948283" transform="translate(0 44.5)">
            <path id="Trazado_721439-2" data-name="Trazado 721439" d="M230.139,374.386h-5.993a1.664,1.664,0,1,1,0-3.328h5.993a1.664,1.664,0,0,1,0,3.328Z" transform="translate(-222.482 -371.058)" fill="#1c96f9"/>
          </g>
          <g id="Grupo_948284-2" data-name="Grupo 948284" transform="translate(0 51.916)">
            <path id="Trazado_721440-2" data-name="Trazado 721440" d="M230.139,408.82h-5.993a1.664,1.664,0,1,1,0-3.328h5.993a1.664,1.664,0,0,1,0,3.328Z" transform="translate(-222.482 -405.492)" fill="#1c96f9"/>
          </g>
        </g>
      </g>
      <g id="flask-3" data-name="flask" transform="translate(95.934)">
        <path id="Trazado_721426-3" data-name="Trazado 721426" d="M188.528,75.934H137.467l11.594-18.953a2.219,2.219,0,0,0,.326-1.158V16.349h27.221V55.823a2.22,2.22,0,0,0,.326,1.158Z" transform="translate(-122.114 -12.828)" fill="#d3e1f4"/>
        <path id="Trazado_721427-3" data-name="Trazado 721427" d="M231.95,75.934H221.459l-11.92-19.486V32.708a5.849,5.849,0,0,0-5.849-5.849H192.809V16.348H220.03V55.822a2.217,2.217,0,0,0,.326,1.158Z" transform="translate(-165.536 -12.827)" fill="#b3cbea"/>
        <path id="Trazado_721428-3" data-name="Trazado 721428" d="M131.242,282.692H82.894L68.748,305.817A17.258,17.258,0,0,0,83.47,332.082h47.2a17.258,17.258,0,0,0,14.722-26.264Z" transform="translate(-66.185 -221.804)" fill="#31a7fb"/>
        <path id="Trazado_721429-3" data-name="Trazado 721429" d="M327.919,282.692H317.429l14.146,23.125a17.258,17.258,0,0,1-14.722,26.265h10.491a17.258,17.258,0,0,0,14.722-26.265Z" transform="translate(-262.863 -221.804)" fill="#1c96f9"/>
        <path id="Trazado_721430-3" data-name="Trazado 721430" d="M203.317,7.157h-30a3.579,3.579,0,0,1,0-7.157h30a3.579,3.579,0,0,1,0,7.157Z" transform="translate(-147.432)" fill="#eaf6ff"/>
        <path id="Trazado_721431-3" data-name="Trazado 721431" d="M301.593,3.579a3.575,3.575,0,0,1-3.579,3.579h-7.586a3.579,3.579,0,1,0,0-7.158h7.586a3.579,3.579,0,0,1,3.579,3.579Z" transform="translate(-242.129 0)" fill="#d3e1f4"/>
        <g id="Grupo_948285-3" data-name="Grupo 948285" transform="translate(33.664 35.421)">
          <g id="Grupo_948276-3" data-name="Grupo 948276" transform="translate(0)">
            <path id="Trazado_721432-3" data-name="Trazado 721432" d="M233.83,167.781h-9.684a1.664,1.664,0,1,1,0-3.328h9.684a1.664,1.664,0,0,1,0,3.328Z" transform="translate(-222.482 -164.453)" fill="#84aee1"/>
          </g>
          <g id="Grupo_948277-3" data-name="Grupo 948277" transform="translate(0 7.417)">
            <path id="Trazado_721433-3" data-name="Trazado 721433" d="M230.139,202.215h-5.993a1.664,1.664,0,0,1,0-3.328h5.993a1.664,1.664,0,0,1,0,3.328Z" transform="translate(-222.482 -198.887)" fill="#84aee1"/>
          </g>
          <g id="Grupo_948278-3" data-name="Grupo 948278" transform="translate(0 14.833)">
            <path id="Trazado_721434-3" data-name="Trazado 721434" d="M230.139,236.649h-5.993a1.664,1.664,0,1,1,0-3.328h5.993a1.664,1.664,0,0,1,0,3.328Z" transform="translate(-222.482 -233.321)" fill="#84aee1"/>
          </g>
          <g id="Grupo_948279-3" data-name="Grupo 948279" transform="translate(0 22.25)">
            <path id="Trazado_721435-3" data-name="Trazado 721435" d="M230.139,271.083h-5.993a1.664,1.664,0,1,1,0-3.328h5.993a1.664,1.664,0,0,1,0,3.328Z" transform="translate(-222.482 -267.755)" fill="#84aee1"/>
          </g>
          <g id="Grupo_948280-3" data-name="Grupo 948280" transform="translate(0 29.666)">
            <path id="Trazado_721436-3" data-name="Trazado 721436" d="M233.83,305.517h-9.684a1.664,1.664,0,1,1,0-3.328h9.684a1.664,1.664,0,0,1,0,3.328Z" transform="translate(-222.482 -302.189)" fill="#1c96f9"/>
          </g>
          <g id="Grupo_948281-3" data-name="Grupo 948281" transform="translate(0 59.333)">
            <path id="Trazado_721437-3" data-name="Trazado 721437" d="M233.83,443.254h-9.684a1.664,1.664,0,1,1,0-3.328h9.684a1.664,1.664,0,0,1,0,3.328Z" transform="translate(-222.482 -439.926)" fill="#1c96f9"/>
          </g>
          <g id="Grupo_948282-3" data-name="Grupo 948282" transform="translate(0 37.083)">
            <path id="Trazado_721438-3" data-name="Trazado 721438" d="M230.139,339.951h-5.993a1.664,1.664,0,1,1,0-3.328h5.993a1.664,1.664,0,0,1,0,3.328Z" transform="translate(-222.482 -336.623)" fill="#1c96f9"/>
          </g>
          <g id="Grupo_948283-3" data-name="Grupo 948283" transform="translate(0 44.5)">
            <path id="Trazado_721439-3" data-name="Trazado 721439" d="M230.139,374.386h-5.993a1.664,1.664,0,1,1,0-3.328h5.993a1.664,1.664,0,0,1,0,3.328Z" transform="translate(-222.482 -371.058)" fill="#1c96f9"/>
          </g>
          <g id="Grupo_948284-3" data-name="Grupo 948284" transform="translate(0 51.916)">
            <path id="Trazado_721440-3" data-name="Trazado 721440" d="M230.139,408.82h-5.993a1.664,1.664,0,1,1,0-3.328h5.993a1.664,1.664,0,0,1,0,3.328Z" transform="translate(-222.482 -405.492)" fill="#1c96f9"/>
          </g>
        </g>
      </g>
      <g id="flask-4" data-name="flask" transform="translate(383.737)">
        <path id="Trazado_721426-4" data-name="Trazado 721426" d="M188.528,75.934H137.467l11.594-18.953a2.219,2.219,0,0,0,.326-1.158V16.349h27.221V55.823a2.22,2.22,0,0,0,.326,1.158Z" transform="translate(-122.114 -12.828)" fill="#d3e1f4"/>
        <path id="Trazado_721427-4" data-name="Trazado 721427" d="M231.95,75.934H221.459l-11.92-19.486V32.708a5.849,5.849,0,0,0-5.849-5.849H192.809V16.348H220.03V55.822a2.217,2.217,0,0,0,.326,1.158Z" transform="translate(-165.536 -12.827)" fill="#b3cbea"/>
        <path id="Trazado_721428-4" data-name="Trazado 721428" d="M131.242,282.692H82.894L68.748,305.817A17.258,17.258,0,0,0,83.47,332.082h47.2a17.258,17.258,0,0,0,14.722-26.264Z" transform="translate(-66.185 -221.804)" fill="#31a7fb"/>
        <path id="Trazado_721429-4" data-name="Trazado 721429" d="M327.919,282.692H317.429l14.146,23.125a17.258,17.258,0,0,1-14.722,26.265h10.491a17.258,17.258,0,0,0,14.722-26.265Z" transform="translate(-262.863 -221.804)" fill="#1c96f9"/>
        <path id="Trazado_721430-4" data-name="Trazado 721430" d="M203.317,7.157h-30a3.579,3.579,0,0,1,0-7.157h30a3.579,3.579,0,0,1,0,7.157Z" transform="translate(-147.432)" fill="#eaf6ff"/>
        <path id="Trazado_721431-4" data-name="Trazado 721431" d="M301.593,3.579a3.575,3.575,0,0,1-3.579,3.579h-7.586a3.579,3.579,0,1,0,0-7.158h7.586a3.579,3.579,0,0,1,3.579,3.579Z" transform="translate(-242.129 0)" fill="#d3e1f4"/>
        <g id="Grupo_948285-4" data-name="Grupo 948285" transform="translate(33.664 35.421)">
          <g id="Grupo_948276-4" data-name="Grupo 948276" transform="translate(0)">
            <path id="Trazado_721432-4" data-name="Trazado 721432" d="M233.83,167.781h-9.684a1.664,1.664,0,1,1,0-3.328h9.684a1.664,1.664,0,0,1,0,3.328Z" transform="translate(-222.482 -164.453)" fill="#84aee1"/>
          </g>
          <g id="Grupo_948277-4" data-name="Grupo 948277" transform="translate(0 7.417)">
            <path id="Trazado_721433-4" data-name="Trazado 721433" d="M230.139,202.215h-5.993a1.664,1.664,0,0,1,0-3.328h5.993a1.664,1.664,0,0,1,0,3.328Z" transform="translate(-222.482 -198.887)" fill="#84aee1"/>
          </g>
          <g id="Grupo_948278-4" data-name="Grupo 948278" transform="translate(0 14.833)">
            <path id="Trazado_721434-4" data-name="Trazado 721434" d="M230.139,236.649h-5.993a1.664,1.664,0,1,1,0-3.328h5.993a1.664,1.664,0,0,1,0,3.328Z" transform="translate(-222.482 -233.321)" fill="#84aee1"/>
          </g>
          <g id="Grupo_948279-4" data-name="Grupo 948279" transform="translate(0 22.25)">
            <path id="Trazado_721435-4" data-name="Trazado 721435" d="M230.139,271.083h-5.993a1.664,1.664,0,1,1,0-3.328h5.993a1.664,1.664,0,0,1,0,3.328Z" transform="translate(-222.482 -267.755)" fill="#84aee1"/>
          </g>
          <g id="Grupo_948280-4" data-name="Grupo 948280" transform="translate(0 29.666)">
            <path id="Trazado_721436-4" data-name="Trazado 721436" d="M233.83,305.517h-9.684a1.664,1.664,0,1,1,0-3.328h9.684a1.664,1.664,0,0,1,0,3.328Z" transform="translate(-222.482 -302.189)" fill="#1c96f9"/>
          </g>
          <g id="Grupo_948281-4" data-name="Grupo 948281" transform="translate(0 59.333)">
            <path id="Trazado_721437-4" data-name="Trazado 721437" d="M233.83,443.254h-9.684a1.664,1.664,0,1,1,0-3.328h9.684a1.664,1.664,0,0,1,0,3.328Z" transform="translate(-222.482 -439.926)" fill="#1c96f9"/>
          </g>
          <g id="Grupo_948282-4" data-name="Grupo 948282" transform="translate(0 37.083)">
            <path id="Trazado_721438-4" data-name="Trazado 721438" d="M230.139,339.951h-5.993a1.664,1.664,0,1,1,0-3.328h5.993a1.664,1.664,0,0,1,0,3.328Z" transform="translate(-222.482 -336.623)" fill="#1c96f9"/>
          </g>
          <g id="Grupo_948283-4" data-name="Grupo 948283" transform="translate(0 44.5)">
            <path id="Trazado_721439-4" data-name="Trazado 721439" d="M230.139,374.386h-5.993a1.664,1.664,0,1,1,0-3.328h5.993a1.664,1.664,0,0,1,0,3.328Z" transform="translate(-222.482 -371.058)" fill="#1c96f9"/>
          </g>
          <g id="Grupo_948284-4" data-name="Grupo 948284" transform="translate(0 51.916)">
            <path id="Trazado_721440-4" data-name="Trazado 721440" d="M230.139,408.82h-5.993a1.664,1.664,0,1,1,0-3.328h5.993a1.664,1.664,0,0,1,0,3.328Z" transform="translate(-222.482 -405.492)" fill="#1c96f9"/>
          </g>
        </g>
      </g>
      <g id="flask-5" data-name="flask" transform="translate(191.869)">
        <path id="Trazado_721426-5" data-name="Trazado 721426" d="M188.528,75.934H137.467l11.594-18.953a2.219,2.219,0,0,0,.326-1.158V16.349h27.221V55.823a2.22,2.22,0,0,0,.326,1.158Z" transform="translate(-122.114 -12.828)" fill="#d3e1f4"/>
        <path id="Trazado_721427-5" data-name="Trazado 721427" d="M231.95,75.934H221.459l-11.92-19.486V32.708a5.849,5.849,0,0,0-5.849-5.849H192.809V16.348H220.03V55.822a2.217,2.217,0,0,0,.326,1.158Z" transform="translate(-165.536 -12.827)" fill="#b3cbea"/>
        <path id="Trazado_721428-5" data-name="Trazado 721428" d="M131.242,282.692H82.894L68.748,305.817A17.258,17.258,0,0,0,83.47,332.082h47.2a17.258,17.258,0,0,0,14.722-26.264Z" transform="translate(-66.185 -221.804)" fill="#31a7fb"/>
        <path id="Trazado_721429-5" data-name="Trazado 721429" d="M327.919,282.692H317.429l14.146,23.125a17.258,17.258,0,0,1-14.722,26.265h10.491a17.258,17.258,0,0,0,14.722-26.265Z" transform="translate(-262.863 -221.804)" fill="#1c96f9"/>
        <path id="Trazado_721430-5" data-name="Trazado 721430" d="M203.317,7.157h-30a3.579,3.579,0,0,1,0-7.157h30a3.579,3.579,0,0,1,0,7.157Z" transform="translate(-147.432)" fill="#eaf6ff"/>
        <path id="Trazado_721431-5" data-name="Trazado 721431" d="M301.593,3.579a3.575,3.575,0,0,1-3.579,3.579h-7.586a3.579,3.579,0,1,0,0-7.158h7.586a3.579,3.579,0,0,1,3.579,3.579Z" transform="translate(-242.129 0)" fill="#d3e1f4"/>
        <g id="Grupo_948285-5" data-name="Grupo 948285" transform="translate(33.664 35.421)">
          <g id="Grupo_948276-5" data-name="Grupo 948276" transform="translate(0)">
            <path id="Trazado_721432-5" data-name="Trazado 721432" d="M233.83,167.781h-9.684a1.664,1.664,0,1,1,0-3.328h9.684a1.664,1.664,0,0,1,0,3.328Z" transform="translate(-222.482 -164.453)" fill="#84aee1"/>
          </g>
          <g id="Grupo_948277-5" data-name="Grupo 948277" transform="translate(0 7.417)">
            <path id="Trazado_721433-5" data-name="Trazado 721433" d="M230.139,202.215h-5.993a1.664,1.664,0,0,1,0-3.328h5.993a1.664,1.664,0,0,1,0,3.328Z" transform="translate(-222.482 -198.887)" fill="#84aee1"/>
          </g>
          <g id="Grupo_948278-5" data-name="Grupo 948278" transform="translate(0 14.833)">
            <path id="Trazado_721434-5" data-name="Trazado 721434" d="M230.139,236.649h-5.993a1.664,1.664,0,1,1,0-3.328h5.993a1.664,1.664,0,0,1,0,3.328Z" transform="translate(-222.482 -233.321)" fill="#84aee1"/>
          </g>
          <g id="Grupo_948279-5" data-name="Grupo 948279" transform="translate(0 22.25)">
            <path id="Trazado_721435-5" data-name="Trazado 721435" d="M230.139,271.083h-5.993a1.664,1.664,0,1,1,0-3.328h5.993a1.664,1.664,0,0,1,0,3.328Z" transform="translate(-222.482 -267.755)" fill="#84aee1"/>
          </g>
          <g id="Grupo_948280-5" data-name="Grupo 948280" transform="translate(0 29.666)">
            <path id="Trazado_721436-5" data-name="Trazado 721436" d="M233.83,305.517h-9.684a1.664,1.664,0,1,1,0-3.328h9.684a1.664,1.664,0,0,1,0,3.328Z" transform="translate(-222.482 -302.189)" fill="#1c96f9"/>
          </g>
          <g id="Grupo_948281-5" data-name="Grupo 948281" transform="translate(0 59.333)">
            <path id="Trazado_721437-5" data-name="Trazado 721437" d="M233.83,443.254h-9.684a1.664,1.664,0,1,1,0-3.328h9.684a1.664,1.664,0,0,1,0,3.328Z" transform="translate(-222.482 -439.926)" fill="#1c96f9"/>
          </g>
          <g id="Grupo_948282-5" data-name="Grupo 948282" transform="translate(0 37.083)">
            <path id="Trazado_721438-5" data-name="Trazado 721438" d="M230.139,339.951h-5.993a1.664,1.664,0,1,1,0-3.328h5.993a1.664,1.664,0,0,1,0,3.328Z" transform="translate(-222.482 -336.623)" fill="#1c96f9"/>
          </g>
          <g id="Grupo_948283-5" data-name="Grupo 948283" transform="translate(0 44.5)">
            <path id="Trazado_721439-5" data-name="Trazado 721439" d="M230.139,374.386h-5.993a1.664,1.664,0,1,1,0-3.328h5.993a1.664,1.664,0,0,1,0,3.328Z" transform="translate(-222.482 -371.058)" fill="#1c96f9"/>
          </g>
          <g id="Grupo_948284-5" data-name="Grupo 948284" transform="translate(0 51.916)">
            <path id="Trazado_721440-5" data-name="Trazado 721440" d="M230.139,408.82h-5.993a1.664,1.664,0,1,1,0-3.328h5.993a1.664,1.664,0,0,1,0,3.328Z" transform="translate(-222.482 -405.492)" fill="#1c96f9"/>
          </g>
        </g>
      </g>
      <g id="flask-6" data-name="flask" transform="translate(479.67)">
        <path id="Trazado_721426-6" data-name="Trazado 721426" d="M188.528,75.934H137.467l11.594-18.953a2.219,2.219,0,0,0,.326-1.158V16.349h27.221V55.823a2.22,2.22,0,0,0,.326,1.158Z" transform="translate(-122.114 -12.828)" fill="#d3e1f4"/>
        <path id="Trazado_721427-6" data-name="Trazado 721427" d="M231.95,75.934H221.459l-11.92-19.486V32.708a5.849,5.849,0,0,0-5.849-5.849H192.809V16.348H220.03V55.822a2.217,2.217,0,0,0,.326,1.158Z" transform="translate(-165.536 -12.827)" fill="#b3cbea"/>
        <path id="Trazado_721428-6" data-name="Trazado 721428" d="M131.242,282.692H82.894L68.748,305.817A17.258,17.258,0,0,0,83.47,332.082h47.2a17.258,17.258,0,0,0,14.722-26.264Z" transform="translate(-66.185 -221.804)" fill="#31a7fb"/>
        <path id="Trazado_721429-6" data-name="Trazado 721429" d="M327.919,282.692H317.429l14.146,23.125a17.258,17.258,0,0,1-14.722,26.265h10.491a17.258,17.258,0,0,0,14.722-26.265Z" transform="translate(-262.863 -221.804)" fill="#1c96f9"/>
        <path id="Trazado_721430-6" data-name="Trazado 721430" d="M203.317,7.157h-30a3.579,3.579,0,0,1,0-7.157h30a3.579,3.579,0,0,1,0,7.157Z" transform="translate(-147.432)" fill="#eaf6ff"/>
        <path id="Trazado_721431-6" data-name="Trazado 721431" d="M301.593,3.579a3.575,3.575,0,0,1-3.579,3.579h-7.586a3.579,3.579,0,1,0,0-7.158h7.586a3.579,3.579,0,0,1,3.579,3.579Z" transform="translate(-242.129 0)" fill="#d3e1f4"/>
        <g id="Grupo_948285-6" data-name="Grupo 948285" transform="translate(33.664 35.421)">
          <g id="Grupo_948276-6" data-name="Grupo 948276" transform="translate(0)">
            <path id="Trazado_721432-6" data-name="Trazado 721432" d="M233.83,167.781h-9.684a1.664,1.664,0,1,1,0-3.328h9.684a1.664,1.664,0,0,1,0,3.328Z" transform="translate(-222.482 -164.453)" fill="#84aee1"/>
          </g>
          <g id="Grupo_948277-6" data-name="Grupo 948277" transform="translate(0 7.417)">
            <path id="Trazado_721433-6" data-name="Trazado 721433" d="M230.139,202.215h-5.993a1.664,1.664,0,0,1,0-3.328h5.993a1.664,1.664,0,0,1,0,3.328Z" transform="translate(-222.482 -198.887)" fill="#84aee1"/>
          </g>
          <g id="Grupo_948278-6" data-name="Grupo 948278" transform="translate(0 14.833)">
            <path id="Trazado_721434-6" data-name="Trazado 721434" d="M230.139,236.649h-5.993a1.664,1.664,0,1,1,0-3.328h5.993a1.664,1.664,0,0,1,0,3.328Z" transform="translate(-222.482 -233.321)" fill="#84aee1"/>
          </g>
          <g id="Grupo_948279-6" data-name="Grupo 948279" transform="translate(0 22.25)">
            <path id="Trazado_721435-6" data-name="Trazado 721435" d="M230.139,271.083h-5.993a1.664,1.664,0,1,1,0-3.328h5.993a1.664,1.664,0,0,1,0,3.328Z" transform="translate(-222.482 -267.755)" fill="#84aee1"/>
          </g>
          <g id="Grupo_948280-6" data-name="Grupo 948280" transform="translate(0 29.666)">
            <path id="Trazado_721436-6" data-name="Trazado 721436" d="M233.83,305.517h-9.684a1.664,1.664,0,1,1,0-3.328h9.684a1.664,1.664,0,0,1,0,3.328Z" transform="translate(-222.482 -302.189)" fill="#1c96f9"/>
          </g>
          <g id="Grupo_948281-6" data-name="Grupo 948281" transform="translate(0 59.333)">
            <path id="Trazado_721437-6" data-name="Trazado 721437" d="M233.83,443.254h-9.684a1.664,1.664,0,1,1,0-3.328h9.684a1.664,1.664,0,0,1,0,3.328Z" transform="translate(-222.482 -439.926)" fill="#1c96f9"/>
          </g>
          <g id="Grupo_948282-6" data-name="Grupo 948282" transform="translate(0 37.083)">
            <path id="Trazado_721438-6" data-name="Trazado 721438" d="M230.139,339.951h-5.993a1.664,1.664,0,1,1,0-3.328h5.993a1.664,1.664,0,0,1,0,3.328Z" transform="translate(-222.482 -336.623)" fill="#1c96f9"/>
          </g>
          <g id="Grupo_948283-6" data-name="Grupo 948283" transform="translate(0 44.5)">
            <path id="Trazado_721439-6" data-name="Trazado 721439" d="M230.139,374.386h-5.993a1.664,1.664,0,1,1,0-3.328h5.993a1.664,1.664,0,0,1,0,3.328Z" transform="translate(-222.482 -371.058)" fill="#1c96f9"/>
          </g>
          <g id="Grupo_948284-6" data-name="Grupo 948284" transform="translate(0 51.916)">
            <path id="Trazado_721440-6" data-name="Trazado 721440" d="M230.139,408.82h-5.993a1.664,1.664,0,1,1,0-3.328h5.993a1.664,1.664,0,0,1,0,3.328Z" transform="translate(-222.482 -405.492)" fill="#1c96f9"/>
          </g>
        </g>
      </g>
    </g>
    <path id="Trazado_721465" data-name="Trazado 721465" d="M17734.766,468.193H17156.5V249.055h2.25V465.942h576.018Z" transform="translate(-16728.193 13193.032)"/>
    <path id="Trazado_721466" data-name="Trazado 721466" d="M17158.176,467.1l-.533-1.4,577.141-219.612.535,1.4Z" transform="translate(-16728.479 13193.703)"/>
    <path id="Trazado_721468" data-name="Trazado 721468" d="M17226.848,446.8h-1.5V249.055h1.5Z" transform="translate(-16743 13193.032)"/>
    <path id="Trazado_721469" data-name="Trazado 721469" d="M17226.848,409.732h-1.5V249.055h1.5Z" transform="translate(-16644.844 13193.032)"/>
    <path id="Trazado_721470" data-name="Trazado 721470" d="M17226.848,372.76h-1.5V249.055h1.5Z" transform="translate(-16549.322 13193.032)"/>
    <path id="Trazado_721471" data-name="Trazado 721471" d="M17226.848,335.135h-1.5V249.055h1.5Z" transform="translate(-16451.168 13193.032)"/>
    <path id="Trazado_721472" data-name="Trazado 721472" d="M17226.848,298.332h-1.5V249.055h1.5Z" transform="translate(-16355.643 13193.032)"/>
    <path id="Trazado_721473" data-name="Trazado 721473" d="M17226.848,263.85h-1.5v-14.8h1.5Z" transform="translate(-16260.118 13193.032)"/>
    <circle id="Elipse_7664" data-name="Elipse 7664" cx="7.46" cy="7.46" r="7.46" transform="translate(475.758 13632.069)" fill="#0540b7"/>
    <circle id="Elipse_7665" data-name="Elipse 7665" cx="7.46" cy="7.46" r="7.46" transform="translate(573.913 13595.164)" fill="#0540b7"/>
    <circle id="Elipse_7666" data-name="Elipse 7666" cx="7.46" cy="7.46" r="7.46" transform="translate(669.71 13558.258)" fill="#0540b7"/>
    <circle id="Elipse_7667" data-name="Elipse 7667" cx="7.46" cy="7.46" r="7.46" transform="translate(767.863 13520.566)" fill="#0540b7"/>
    <circle id="Elipse_7668" data-name="Elipse 7668" cx="7.46" cy="7.46" r="7.46" transform="translate(862.876 13483.661)" fill="#0540b7"/>
    <circle id="Elipse_7669" data-name="Elipse 7669" cx="7.46" cy="7.46" r="7.46" transform="translate(958.673 13449.111)" fill="#0540b7"/>
    <rect id="Rect치ngulo_338051" data-name="Rect치ngulo 338051" width="66.775" height="27.76" transform="translate(939.44 13255.945)" fill="#f1cc4b"/>
    <rect id="Rect치ngulo_338052" data-name="Rect치ngulo 338052" width="149.586" height="27.483" transform="translate(857.379 13536.552)" fill="#f1cc4b"/>
    <path id="Trazado_721940" data-name="Trazado 721940" d="M2.774,11.152v3.007H1.016V5.625H4.345a3.852,3.852,0,0,1,1.691.352,2.592,2.592,0,0,1,1.122,1A2.787,2.787,0,0,1,7.551,8.45a2.45,2.45,0,0,1-.859,1.978,3.577,3.577,0,0,1-2.377.724Zm0-1.424H4.345A1.545,1.545,0,0,0,5.409,9.4a1.194,1.194,0,0,0,.366-.938,1.408,1.408,0,0,0-.369-1.014,1.379,1.379,0,0,0-1.02-.4H2.774Zm9.484,4.431a1.881,1.881,0,0,1-.17-.569,2.05,2.05,0,0,1-1.6.686,2.252,2.252,0,0,1-1.545-.539,1.734,1.734,0,0,1-.613-1.36,1.792,1.792,0,0,1,.747-1.547,3.688,3.688,0,0,1,2.16-.545h.78V9.921a1.045,1.045,0,0,0-.226-.7.888.888,0,0,0-.712-.264,1.009,1.009,0,0,0-.671.205.7.7,0,0,0-.243.563H8.471a1.7,1.7,0,0,1,.34-1.02,2.247,2.247,0,0,1,.961-.736,3.5,3.5,0,0,1,1.4-.267,2.768,2.768,0,0,1,1.861.589,2.061,2.061,0,0,1,.689,1.656v2.749a3.032,3.032,0,0,0,.252,1.366v.1Zm-1.4-1.178a1.459,1.459,0,0,0,.692-.167,1.1,1.1,0,0,0,.469-.448v-1.09h-.633q-1.272,0-1.354.879l-.006.1a.678.678,0,0,0,.223.522A.865.865,0,0,0,10.857,12.981Zm6.19-6.723V7.817h1.084V9.06H17.047v3.165a.756.756,0,0,0,.135.5.677.677,0,0,0,.516.152,2.7,2.7,0,0,0,.5-.041v1.284a3.487,3.487,0,0,1-1.026.152,1.617,1.617,0,0,1-1.817-1.8V9.06h-.926V7.817h.926V6.258Zm5.592,3.148a4.6,4.6,0,0,0-.61-.047,1.241,1.241,0,0,0-1.26.651v4.15H19.075V7.817h1.6l.047.756A1.57,1.57,0,0,1,22.135,7.7a1.775,1.775,0,0,1,.528.076Zm.34,1.524a3.761,3.761,0,0,1,.363-1.682A2.66,2.66,0,0,1,24.388,8.1a3.053,3.053,0,0,1,1.586-.4,2.888,2.888,0,0,1,2.1.785,3.152,3.152,0,0,1,.906,2.134l.012.434a3.315,3.315,0,0,1-.815,2.342,3.158,3.158,0,0,1-4.376,0,3.373,3.373,0,0,1-.818-2.392Zm1.694.123a2.364,2.364,0,0,0,.34,1.38,1.222,1.222,0,0,0,1.934.006,2.587,2.587,0,0,0,.346-1.509,2.341,2.341,0,0,0-.346-1.372,1.125,1.125,0,0,0-.973-.487,1.106,1.106,0,0,0-.961.484A2.631,2.631,0,0,0,24.673,11.053Zm6.917-3.236.053.733a2.214,2.214,0,0,1,1.823-.85,1.84,1.84,0,0,1,1.5.592,2.762,2.762,0,0,1,.5,1.77v4.1H33.776V10.1a1.1,1.1,0,0,0-.234-.783,1.05,1.05,0,0,0-.78-.243,1.165,1.165,0,0,0-1.073.61v4.472H30V7.817Zm8.083,6.459a3.113,3.113,0,0,1-2.271-.856,3.042,3.042,0,0,1-.876-2.28v-.164a3.831,3.831,0,0,1,.369-1.709A2.71,2.71,0,0,1,37.94,8.107,2.937,2.937,0,0,1,39.485,7.7a2.632,2.632,0,0,1,2.049.821,3.335,3.335,0,0,1,.747,2.327v.692H38.242a1.574,1.574,0,0,0,.5,1,1.5,1.5,0,0,0,1.046.375,1.828,1.828,0,0,0,1.53-.709l.832.932a2.543,2.543,0,0,1-1.032.841A3.385,3.385,0,0,1,39.672,14.277Zm-.193-5.205a1.061,1.061,0,0,0-.818.34,1.756,1.756,0,0,0-.4.973h2.356V10.25a1.252,1.252,0,0,0-.3-.87A1.1,1.1,0,0,0,39.479,9.072Zm7.2,3.335a.546.546,0,0,0-.308-.489,3.5,3.5,0,0,0-.988-.319q-2.263-.475-2.263-1.923a1.743,1.743,0,0,1,.7-1.41A2.826,2.826,0,0,1,45.651,7.7a3.041,3.041,0,0,1,1.931.569,1.792,1.792,0,0,1,.724,1.477H46.612a.82.82,0,0,0-.234-.6.992.992,0,0,0-.733-.237,1.014,1.014,0,0,0-.662.193.611.611,0,0,0-.234.492.522.522,0,0,0,.267.454,2.744,2.744,0,0,0,.9.3,7.349,7.349,0,0,1,1.067.284,1.753,1.753,0,0,1,1.342,1.706,1.654,1.654,0,0,1-.744,1.4,3.211,3.211,0,0,1-1.923.536,3.354,3.354,0,0,1-1.416-.284,2.375,2.375,0,0,1-.97-.78,1.811,1.811,0,0,1-.352-1.07h1.606a.884.884,0,0,0,.334.692,1.325,1.325,0,0,0,.832.24,1.227,1.227,0,0,0,.736-.185A.575.575,0,0,0,46.677,12.407Z" transform="translate(946.641 13260.037)" fill="#12263f"/>
    <path id="Trazado_721941" data-name="Trazado 721941" d="M5.322,11.456a.9.9,0,0,0-.352-.765A4.613,4.613,0,0,0,3.7,10.128a8.975,8.975,0,0,1-1.448-.583A2.366,2.366,0,0,1,.8,7.429,2.061,2.061,0,0,1,1.193,6.2a2.543,2.543,0,0,1,1.12-.847,4.214,4.214,0,0,1,1.638-.3,3.836,3.836,0,0,1,1.63.331,2.6,2.6,0,0,1,1.111.935,2.446,2.446,0,0,1,.4,1.372H5.328a1.151,1.151,0,0,0-.369-.911,1.518,1.518,0,0,0-1.037-.325,1.622,1.622,0,0,0-1,.273.86.86,0,0,0-.358.718.823.823,0,0,0,.419.7,4.735,4.735,0,0,0,1.234.528A5.331,5.331,0,0,1,6.4,9.78a2.23,2.23,0,0,1,.686,1.665,2.054,2.054,0,0,1-.838,1.738,3.669,3.669,0,0,1-2.257.63,4.358,4.358,0,0,1-1.794-.36,2.838,2.838,0,0,1-1.234-.988A2.529,2.529,0,0,1,.539,11.01H2.3q0,1.413,1.688,1.413a1.642,1.642,0,0,0,.979-.255A.83.83,0,0,0,5.322,11.456Zm5.762,2.356a3.113,3.113,0,0,1-2.271-.856,3.042,3.042,0,0,1-.876-2.28v-.164A3.831,3.831,0,0,1,8.306,8.8,2.71,2.71,0,0,1,9.352,7.643,2.937,2.937,0,0,1,10.9,7.236a2.632,2.632,0,0,1,2.049.821,3.335,3.335,0,0,1,.747,2.327v.692H9.654a1.574,1.574,0,0,0,.5,1,1.5,1.5,0,0,0,1.046.375,1.828,1.828,0,0,0,1.53-.709l.832.932a2.543,2.543,0,0,1-1.032.841A3.385,3.385,0,0,1,11.084,13.812Zm-.193-5.205a1.061,1.061,0,0,0-.818.34,1.756,1.756,0,0,0-.4.973h2.356V9.785a1.252,1.252,0,0,0-.3-.87A1.1,1.1,0,0,0,10.891,8.607Zm5.322-1.254.053.733a2.214,2.214,0,0,1,1.823-.85,1.84,1.84,0,0,1,1.5.592,2.762,2.762,0,0,1,.5,1.77v4.1H18.4V9.639a1.1,1.1,0,0,0-.234-.783,1.05,1.05,0,0,0-.78-.243,1.165,1.165,0,0,0-1.073.61V13.7H14.618V7.353Zm3.365-2.585a1.641,1.641,0,0,1-.387,1.111,1.2,1.2,0,0,1-.944.448,1.431,1.431,0,0,1-.4-.05,2.655,2.655,0,0,1-.478-.214,2.577,2.577,0,0,0-.44-.2,1.074,1.074,0,0,0-.293-.038.47.47,0,0,0-.349.147.57.57,0,0,0-.144.416l-.985-.059a1.665,1.665,0,0,1,.384-1.108,1.184,1.184,0,0,1,.941-.457,1.211,1.211,0,0,1,.331.044,3.647,3.647,0,0,1,.507.214,3.3,3.3,0,0,0,.487.205,1.11,1.11,0,0,0,.281.035.494.494,0,0,0,.355-.144A.546.546,0,0,0,18.6,4.7ZM25.052,13.7a1.881,1.881,0,0,1-.17-.569,2.05,2.05,0,0,1-1.6.686,2.252,2.252,0,0,1-1.545-.539,1.734,1.734,0,0,1-.613-1.36,1.792,1.792,0,0,1,.747-1.547,3.688,3.688,0,0,1,2.16-.545h.78V9.457a1.045,1.045,0,0,0-.226-.7.888.888,0,0,0-.712-.264A1.009,1.009,0,0,0,23.2,8.7a.7.7,0,0,0-.243.563H21.265a1.7,1.7,0,0,1,.34-1.02,2.247,2.247,0,0,1,.961-.736,3.5,3.5,0,0,1,1.4-.267,2.768,2.768,0,0,1,1.861.589,2.061,2.061,0,0,1,.689,1.656V12.23a3.032,3.032,0,0,0,.252,1.366v.1Zm-1.4-1.178a1.459,1.459,0,0,0,.692-.167,1.1,1.1,0,0,0,.469-.448v-1.09h-.633q-1.272,0-1.354.879l-.006.1a.678.678,0,0,0,.223.522A.865.865,0,0,0,23.651,12.517ZM29.6,13.7H27.9v-9h1.7Zm9.771-4.373h-5.24V7.939h5.24Zm0,2.538h-5.24V10.477h5.24ZM47.519,13.7a1.881,1.881,0,0,1-.17-.569,2.05,2.05,0,0,1-1.6.686,2.252,2.252,0,0,1-1.545-.539,1.734,1.734,0,0,1-.613-1.36,1.792,1.792,0,0,1,.747-1.547,3.688,3.688,0,0,1,2.16-.545h.78V9.457a1.045,1.045,0,0,0-.226-.7.888.888,0,0,0-.712-.264,1.009,1.009,0,0,0-.671.205.7.7,0,0,0-.243.563H43.733a1.7,1.7,0,0,1,.34-1.02,2.247,2.247,0,0,1,.961-.736,3.5,3.5,0,0,1,1.4-.267,2.768,2.768,0,0,1,1.861.589,2.061,2.061,0,0,1,.689,1.656V12.23a3.032,3.032,0,0,0,.252,1.366v.1Zm-1.4-1.178a1.459,1.459,0,0,0,.692-.167,1.1,1.1,0,0,0,.469-.448v-1.09h-.633q-1.272,0-1.354.879l-.006.1a.678.678,0,0,0,.223.522A.865.865,0,0,0,46.118,12.517Zm10.568-3.6H58.8v1.53H56.687v2.392H55.075V10.448H52.953V8.918h2.122V6.626h1.612Zm11.84,1.665a3.84,3.84,0,0,1-.651,2.377,2.155,2.155,0,0,1-1.817.853,1.98,1.98,0,0,1-1.647-.791l-.076.674H62.812v-9h1.694v3.23a1.929,1.929,0,0,1,1.542-.686,2.173,2.173,0,0,1,1.82.853,3.846,3.846,0,0,1,.659,2.4Zm-1.694-.123a2.523,2.523,0,0,0-.3-1.4,1.031,1.031,0,0,0-.909-.443,1.117,1.117,0,0,0-1.114.662v2.5a1.133,1.133,0,0,0,1.125.668,1.046,1.046,0,0,0,1.079-.809A4.173,4.173,0,0,0,66.833,10.459Zm8.312-5.387h-.832v9.3h.832v1.307H72.612V3.766h2.532ZM82.559,13.7a1.881,1.881,0,0,1-.17-.569,2.05,2.05,0,0,1-1.6.686,2.252,2.252,0,0,1-1.545-.539,1.734,1.734,0,0,1-.613-1.36,1.792,1.792,0,0,1,.747-1.547,3.688,3.688,0,0,1,2.16-.545h.78V9.457a1.045,1.045,0,0,0-.226-.7.888.888,0,0,0-.712-.264,1.009,1.009,0,0,0-.671.205.7.7,0,0,0-.243.563H78.773a1.7,1.7,0,0,1,.34-1.02,2.247,2.247,0,0,1,.961-.736,3.5,3.5,0,0,1,1.4-.267,2.768,2.768,0,0,1,1.861.589,2.061,2.061,0,0,1,.689,1.656V12.23a3.032,3.032,0,0,0,.252,1.366v.1Zm-1.4-1.178a1.459,1.459,0,0,0,.692-.167,1.1,1.1,0,0,0,.469-.448v-1.09h-.633q-1.272,0-1.354.879l-.006.1a.678.678,0,0,0,.223.522A.865.865,0,0,0,81.158,12.517Zm5.721-5.164.053.733a2.214,2.214,0,0,1,1.823-.85,1.84,1.84,0,0,1,1.5.592,2.762,2.762,0,0,1,.5,1.77v4.1H89.066V9.639a1.1,1.1,0,0,0-.234-.783,1.05,1.05,0,0,0-.78-.243,1.165,1.165,0,0,0-1.073.61V13.7H85.285V7.353ZM95.719,13.7a1.881,1.881,0,0,1-.17-.569,2.05,2.05,0,0,1-1.6.686,2.252,2.252,0,0,1-1.545-.539,1.734,1.734,0,0,1-.613-1.36,1.792,1.792,0,0,1,.747-1.547,3.688,3.688,0,0,1,2.16-.545h.78V9.457a1.045,1.045,0,0,0-.226-.7.888.888,0,0,0-.712-.264,1.009,1.009,0,0,0-.671.205.7.7,0,0,0-.243.563H91.932a1.7,1.7,0,0,1,.34-1.02,2.247,2.247,0,0,1,.961-.736,3.5,3.5,0,0,1,1.4-.267,2.768,2.768,0,0,1,1.861.589,2.061,2.061,0,0,1,.689,1.656V12.23A3.032,3.032,0,0,0,97.43,13.6v.1Zm-1.4-1.178a1.459,1.459,0,0,0,.692-.167,1.1,1.1,0,0,0,.469-.448v-1.09h-.633q-1.272,0-1.354.879l-.006.1a.678.678,0,0,0,.223.522A.865.865,0,0,0,94.318,12.517Zm5.949,1.178h-1.7v-9h1.7Zm3.183,0h-1.7V7.353h1.7Zm-1.8-7.983a.834.834,0,0,1,.255-.627,1.1,1.1,0,0,1,1.386,0,.9.9,0,0,1,0,1.26,1.086,1.086,0,0,1-1.377,0A.832.832,0,0,1,101.65,5.712Zm5.223.082V7.353h1.084V8.6h-1.084v3.165a.756.756,0,0,0,.135.5.677.677,0,0,0,.516.152,2.7,2.7,0,0,0,.5-.041V13.66a3.487,3.487,0,0,1-1.026.152,1.617,1.617,0,0,1-1.817-1.8V8.6h-.926V7.353h.926V5.794Zm1.588,4.672a3.761,3.761,0,0,1,.363-1.682,2.66,2.66,0,0,1,1.046-1.143,3.052,3.052,0,0,1,1.586-.4,2.888,2.888,0,0,1,2.1.785,3.152,3.152,0,0,1,.906,2.134l.012.434a3.315,3.315,0,0,1-.815,2.342,3.158,3.158,0,0,1-4.376,0,3.373,3.373,0,0,1-.818-2.392Zm1.694.123a2.364,2.364,0,0,0,.34,1.38,1.222,1.222,0,0,0,1.934.006,2.587,2.587,0,0,0,.346-1.509,2.341,2.341,0,0,0-.346-1.372,1.125,1.125,0,0,0-.973-.487,1.106,1.106,0,0,0-.961.484A2.631,2.631,0,0,0,110.155,10.588Zm7.772-6.823h2.532V15.682h-2.532V14.375h.838v-9.3h-.838Z" transform="translate(864.705 13541.108)" fill="#12263f"/>
    <path id="Trazado_721942" data-name="Trazado 721942" d="M5.275,7.171H4.237V20.922H5.275v2.154H1.266V5.008H5.275ZM16.063,20.007a3.346,3.346,0,0,1-.281-.853A2.755,2.755,0,0,1,13.5,20.183a3.375,3.375,0,0,1-2.286-.813,2.589,2.589,0,0,1-.941-2.044,2.661,2.661,0,0,1,1.143-2.339,5.823,5.823,0,0,1,3.323-.791h.914v-.5q0-1.31-1.134-1.31a.925.925,0,0,0-1.055,1.037H10.5a2.66,2.66,0,0,1,1.174-2.242,4.929,4.929,0,0,1,2.994-.862,4.325,4.325,0,0,1,2.875.888,3.087,3.087,0,0,1,1.081,2.435v4.212a4.313,4.313,0,0,0,.4,2v.149Zm-1.855-1.934a1.653,1.653,0,0,0,.919-.237,1.488,1.488,0,0,0,.523-.536V15.778h-.862q-1.547,0-1.547,1.389a.848.848,0,0,0,.273.655A.986.986,0,0,0,14.208,18.073Zm8.775-7.579.1,1.117A3.226,3.226,0,0,1,25.8,10.318a2.714,2.714,0,0,1,2.22.888,4.228,4.228,0,0,1,.761,2.673v6.128H25.8V14a1.605,1.605,0,0,0-.29-1.059A1.342,1.342,0,0,0,24.46,12.6a1.413,1.413,0,0,0-1.292.686v6.717H20.2V10.494Zm12.793,9.513a3.346,3.346,0,0,1-.281-.853,2.755,2.755,0,0,1-2.286,1.029,3.375,3.375,0,0,1-2.286-.813,2.589,2.589,0,0,1-.941-2.044,2.661,2.661,0,0,1,1.143-2.339,5.823,5.823,0,0,1,3.323-.791h.914v-.5q0-1.31-1.134-1.31a.925.925,0,0,0-1.055,1.037H30.21a2.66,2.66,0,0,1,1.174-2.242,4.929,4.929,0,0,1,2.994-.862,4.325,4.325,0,0,1,2.875.888,3.087,3.087,0,0,1,1.081,2.435v4.212a4.313,4.313,0,0,0,.4,2v.149ZM33.92,18.073a1.653,1.653,0,0,0,.919-.237,1.488,1.488,0,0,0,.523-.536V15.778H34.5q-1.547,0-1.547,1.389a.848.848,0,0,0,.273.655A.986.986,0,0,0,33.92,18.073ZM43.1,20.007H40.128V6.5H43.1Zm4.95,0H45.078V10.494h2.972ZM44.9,8.041A1.323,1.323,0,0,1,45.359,7a1.944,1.944,0,0,1,2.374,0,1.406,1.406,0,0,1,0,2.075,1.944,1.944,0,0,1-2.374,0A1.323,1.323,0,0,1,44.9,8.041Zm8.423.088v2.365H54.89v2.057H53.325V16.9a1.111,1.111,0,0,0,.193.747,1.038,1.038,0,0,0,.765.211,4.347,4.347,0,0,0,.739-.053v2.119a5.468,5.468,0,0,1-1.671.255,3.1,3.1,0,0,1-2.26-.721,2.955,2.955,0,0,1-.73-2.189V12.552H49.148V10.494h1.213V8.129Zm2.093,7.034a5.615,5.615,0,0,1,.554-2.537,3.961,3.961,0,0,1,1.591-1.71,4.793,4.793,0,0,1,2.435-.6,4.374,4.374,0,0,1,3.367,1.323,5.078,5.078,0,0,1,1.231,3.6v.106a4.927,4.927,0,0,1-1.235,3.53,4.386,4.386,0,0,1-3.345,1.306,4.436,4.436,0,0,1-3.262-1.218,4.763,4.763,0,0,1-1.328-3.3Zm2.963.185a3.54,3.54,0,0,0,.413,1.934,1.377,1.377,0,0,0,1.222.615q1.583,0,1.618-2.435v-.3Q61.633,12.6,60,12.6q-1.486,0-1.609,2.207Zm11.3-10.34h4.009V23.076H69.678V20.922h1.046V7.171H69.678Z" transform="translate(924.594 13665.511)" fill="#12263f"/>
    <path id="Trazado_721943" data-name="Trazado 721943" d="M7.007,10.129a1.268,1.268,0,0,0-.479-1.055,5.956,5.956,0,0,0-1.684-.783,16.153,16.153,0,0,1-1.969-.783Q.387,6.286.387,4.15a3.012,3.012,0,0,1,.62-1.877A4.009,4.009,0,0,1,2.761,1.007,6.826,6.826,0,0,1,5.311.554a5.971,5.971,0,0,1,2.475.492,3.919,3.919,0,0,1,1.7,1.4,3.662,3.662,0,0,1,.607,2.079H7.016a1.548,1.548,0,0,0-.479-1.213,1.868,1.868,0,0,0-1.3-.431,2.106,2.106,0,0,0-1.306.365,1.119,1.119,0,0,0-.479.928,1.127,1.127,0,0,0,.528.892A6.653,6.653,0,0,0,5.838,5.9a11.365,11.365,0,0,1,2.18.919,3.664,3.664,0,0,1,2.075,3.3,3.126,3.126,0,0,1-1.266,2.638,5.632,5.632,0,0,1-3.473.958,6.89,6.89,0,0,1-2.818-.558,4.249,4.249,0,0,1-1.9-1.53A3.986,3.986,0,0,1,0,9.381H3.095A1.963,1.963,0,0,0,3.627,10.9a2.514,2.514,0,0,0,1.728.488,1.986,1.986,0,0,0,1.209-.33A1.088,1.088,0,0,0,7.007,10.129Zm9.135,3.578A4.89,4.89,0,0,1,12.6,12.4,4.509,4.509,0,0,1,11.245,9V8.757a5.842,5.842,0,0,1,.541-2.576,3.957,3.957,0,0,1,1.578-1.728,4.764,4.764,0,0,1,2.462-.611,4.118,4.118,0,0,1,3.165,1.244,4.889,4.889,0,0,1,1.161,3.469V9.707H14.261a2.136,2.136,0,0,0,.695,1.257,2.067,2.067,0,0,0,1.389.457,2.663,2.663,0,0,0,2.2-.985l1.354,1.6a3.785,3.785,0,0,1-1.569,1.218A5.3,5.3,0,0,1,16.143,13.707Zm-.334-7.579q-1.3,0-1.547,1.723H17.25V7.623a1.468,1.468,0,0,0-.36-1.1A1.434,1.434,0,0,0,15.809,6.128Zm8.256-2.11.1,1.117a3.226,3.226,0,0,1,2.717-1.292,2.714,2.714,0,0,1,2.22.888A4.228,4.228,0,0,1,29.859,7.4v6.128H26.887V7.526a1.605,1.605,0,0,0-.29-1.059,1.342,1.342,0,0,0-1.055-.339,1.413,1.413,0,0,0-1.292.686v6.717H21.286V4.018ZM28.979.1a2.563,2.563,0,0,1-.585,1.7,1.814,1.814,0,0,1-1.446.7,2.853,2.853,0,0,1-1.292-.369A2.7,2.7,0,0,0,24.5,1.758a.66.66,0,0,0-.479.193.8.8,0,0,0-.2.6l-1.644-.088A2.577,2.577,0,0,1,22.768.774,1.793,1.793,0,0,1,24.205.062a3,3,0,0,1,1.152.321,7.118,7.118,0,0,0,.9.365,1.762,1.762,0,0,0,.4.044A.675.675,0,0,0,27.142.6a.793.793,0,0,0,.2-.6Zm7.878,13.435a3.346,3.346,0,0,1-.281-.853,2.755,2.755,0,0,1-2.286,1.029A3.375,3.375,0,0,1,32,12.894a2.589,2.589,0,0,1-.941-2.044,2.661,2.661,0,0,1,1.143-2.339A5.823,5.823,0,0,1,35.53,7.72h.914v-.5q0-1.31-1.134-1.31a.925.925,0,0,0-1.055,1.037H31.292A2.66,2.66,0,0,1,32.466,4.7a4.929,4.929,0,0,1,2.994-.862,4.325,4.325,0,0,1,2.875.888,3.087,3.087,0,0,1,1.081,2.435v4.212a4.313,4.313,0,0,0,.4,2v.149ZM35,11.6a1.653,1.653,0,0,0,.919-.237,1.488,1.488,0,0,0,.523-.536V9.3h-.862q-1.547,0-1.547,1.389a.848.848,0,0,0,.273.655A.986.986,0,0,0,35,11.6Zm9.179,1.934H41.209V.026h2.972Z" transform="translate(396.965 13489.754) rotate(-90)" fill="#12263f"/>
  </g>
</svg>
