<svg xmlns="http://www.w3.org/2000/svg" width="157" height="158" viewBox="0 0 157 158">
  <g id="Grupo_946941" data-name="Grupo 946941" transform="translate(-0.188 -0.104)">
    <g id="Grupo_946938" data-name="Grupo 946938" transform="translate(0 0)">
      <g id="Elipse_5524" data-name="Elipse 5524" transform="translate(0.188 0.103)" fill="#e8e8e8" stroke="#17263d" stroke-width="1">
        <ellipse cx="78.5" cy="79" rx="78.5" ry="79" stroke="none"/>
        <ellipse cx="78.5" cy="79" rx="78" ry="78.5" fill="none"/>
      </g>
      <g id="Elipse_5523" data-name="Elipse 5523" transform="translate(14.188 14.103)" fill="#fff" stroke="#17263d" stroke-width="1">
        <circle cx="64.5" cy="64.5" r="64.5" stroke="none"/>
        <circle cx="64.5" cy="64.5" r="64" fill="none"/>
      </g>
      <g id="Elipse_5522" data-name="Elipse 5522" transform="translate(27.188 27.103)" fill="#e8e8e8" stroke="#17263d" stroke-width="1">
        <circle cx="51.5" cy="51.5" r="51.5" stroke="none"/>
        <circle cx="51.5" cy="51.5" r="51" fill="none"/>
      </g>
      <g id="Elipse_5520" data-name="Elipse 5520" transform="translate(39.188 39.103)" fill="#fff" stroke="#17263d" stroke-width="1">
        <circle cx="39.5" cy="39.5" r="39.5" stroke="none"/>
        <circle cx="39.5" cy="39.5" r="39" fill="none"/>
      </g>
      <g id="Elipse_5521" data-name="Elipse 5521" transform="translate(53.188 53.103)" fill="#e8e8e8" stroke="#17263d" stroke-width="1">
        <circle cx="26" cy="26" r="26" stroke="none"/>
        <circle cx="26" cy="26" r="25.5" fill="none"/>
      </g>
    </g>
    <g id="Grupo_946933" data-name="Grupo 946933" transform="translate(26.425 93.853)">
      <g id="Elipse_5515" data-name="Elipse 5515" transform="translate(8.762 8.25)" fill="#f1cc4b" stroke="#17263d" stroke-width="1">
        <circle cx="5.5" cy="5.5" r="5.5" stroke="none"/>
        <circle cx="5.5" cy="5.5" r="5" fill="none"/>
      </g>
      <g id="Elipse_5516" data-name="Elipse 5516" transform="translate(16.762 16.251)" fill="#f1cc4b" stroke="#17263d" stroke-width="1">
        <circle cx="5.5" cy="5.5" r="5.5" stroke="none"/>
        <circle cx="5.5" cy="5.5" r="5" fill="none"/>
      </g>
      <g id="Elipse_5517" data-name="Elipse 5517" transform="translate(16.762 0.25)" fill="#f1cc4b" stroke="#17263d" stroke-width="1">
        <circle cx="5.5" cy="5.5" r="5.5" stroke="none"/>
        <circle cx="5.5" cy="5.5" r="5" fill="none"/>
      </g>
      <g id="Elipse_5518" data-name="Elipse 5518" transform="translate(1.762 0.25)" fill="#f1cc4b" stroke="#17263d" stroke-width="1">
        <circle cx="5.5" cy="5.5" r="5.5" stroke="none"/>
        <circle cx="5.5" cy="5.5" r="5" fill="none"/>
      </g>
      <g id="Elipse_5519" data-name="Elipse 5519" transform="translate(-0.238 15.251)" fill="#f1cc4b" stroke="#17263d" stroke-width="1">
        <circle cx="5.5" cy="5.5" r="5.5" stroke="none"/>
        <circle cx="5.5" cy="5.5" r="5" fill="none"/>
      </g>
    </g>
  </g>
</svg>
