<svg xmlns="http://www.w3.org/2000/svg" xmlns:xlink="http://www.w3.org/1999/xlink" width="398.491" height="604" viewBox="0 0 398.491 604">
  <defs>
    <clipPath id="clip-path">
      <path id="Trazado_719670" data-name="Trazado 719670" d="M230.325,271.553l-22.4,12.934-13.77,7.943a14.689,14.689,0,0,0-1.3.751,18.252,18.252,0,0,0-8.751,15.7l-.012,64.374a18.217,18.217,0,0,1-7.385,14.772,18.648,18.648,0,0,1-11.141,3.744,18.341,18.341,0,0,1-9.207-2.5,55.474,55.474,0,0,1-27.732-48.035V274.461a55.463,55.463,0,0,0-27.733-48.035l101.7-58.716h0a55.517,55.517,0,0,1,27.745,48.057v29.088C230.336,253.174,230.325,271.553,230.325,271.553Z" transform="translate(-100.894 -167.71)" fill="none"/>
    </clipPath>
  </defs>
  <g id="Grupo_946919" data-name="Grupo 946919" transform="translate(-70.75 -15.715)">
    <ellipse id="Shadow" cx="82.954" cy="47.894" rx="82.954" ry="47.894" transform="translate(303.335 472.03)" fill="#e0e0e0"/>
    <path id="Shadow-2" data-name="Shadow" d="M115,361.988,325.776,483.683l96.6-55.775L211.562,306.188Z" transform="translate(4.321 136.032)" fill="#e0e0e0"/>
    <g id="Device" transform="translate(70.75 15.715)">
      <g id="Device-2" data-name="Device">
        <g id="Grupo_946804" data-name="Grupo 946804" transform="translate(14.825 9.029)">
          <path id="Trazado_719577" data-name="Trazado 719577" d="M217.96,24.712,88.486,99.454a10.445,10.445,0,0,0-4.7,8.159V399.6c0,3,2.111,4.222,4.7,2.715L217.96,327.574a10.443,10.443,0,0,0,4.7-8.159V27.428C222.664,24.428,220.553,23.206,217.96,24.712Zm-2.074,267.8c0,2.567-1.8,4.2-4.035,5.488L94.127,365.963c-2.221,1.284-4.037.248-4.037-2.333V134.905a8.962,8.962,0,0,1,4.037-7L211.851,59.953c2.233-1.3,4.035-.246,4.035,2.321Z" transform="translate(-83.783 -24.067)" fill="#37474f"/>
        </g>
        <g id="Grupo_946805" data-name="Grupo 946805" transform="translate(0 79.38)">
          <path id="Trazado_719578" data-name="Trazado 719578" d="M89.011,397.341a10.539,10.539,0,0,1-8.836-.292l-5.385-3.112a10.377,10.377,0,0,1-4.721-8.159V93.808a8.9,8.9,0,0,1,.815-3.52,11.315,11.315,0,0,1,.56-1.131.012.012,0,0,0,.012-.012L86.271,97.7h.012a12.9,12.9,0,0,0-.816,1.725,8.569,8.569,0,0,0-.571,2.914v291.99C84.9,397.1,86.691,398.355,89.011,397.341Z" transform="translate(-70.069 -89.146)" fill="#263238"/>
        </g>
        <path id="Trazado_719579" data-name="Trazado 719579" d="M149.612,315.739c4.1-2.37,7.433-.449,7.433,4.292a16.433,16.433,0,0,1-7.433,12.875c-4.106,2.37-7.433.449-7.433-4.292A16.43,16.43,0,0,1,149.612,315.739Z" transform="translate(-64.227 8.509)" fill="#27debf"/>
        <g id="Grupo_946806" data-name="Grupo 946806" transform="translate(69.448 52.911)">
          <path id="Trazado_719580" data-name="Trazado 719580" d="M148.257,65.091c1.743-1.006,3.155-.19,3.155,1.823a6.977,6.977,0,0,1-3.155,5.467c-1.744,1.007-3.157.191-3.157-1.822A6.974,6.974,0,0,1,148.257,65.091Z" transform="translate(-133.438 -64.66)"/>
          <path id="Trazado_719581" data-name="Trazado 719581" d="M136.945,83.9l24.37-14.07c1.454-.839,2.632-.243,2.632,1.332a5.646,5.646,0,0,1-2.632,4.373l-24.371,14.07c-1.454.839-2.632.242-2.632-1.332A5.649,5.649,0,0,1,136.945,83.9Z" transform="translate(-134.312 -64.272)"/>
        </g>
        <path id="Trazado_719582" data-name="Trazado 719582" d="M215.413,289.641c0,2.567-1.8,4.2-4.035,5.487L93.655,363.094c-2.221,1.283-4.037.246-4.037-2.333V132.036a8.962,8.962,0,0,1,4.037-7L211.378,57.084c2.233-1.3,4.035-.246,4.035,2.321Z" transform="translate(-68.485 -12.408)" fill="#27debf" stroke="#fff" stroke-miterlimit="10" stroke-width="1"/>
        <g id="Grupo_946807" data-name="Grupo 946807" transform="translate(1.387)">
          <path id="Trazado_719583" data-name="Trazado 719583" d="M223.625,27.358c-.338-2.448-2.3-3.334-4.651-1.971L89.489,100.13a9.59,9.59,0,0,0-3.322,3.521L71.352,95.095a9.542,9.542,0,0,1,3.334-3.5l129.46-74.755a10.4,10.4,0,0,1,9.419,0l5.409,3.1A10.562,10.562,0,0,1,223.625,27.358Z" transform="translate(-71.352 -15.715)" fill="#455a64"/>
        </g>
      </g>
      <g id="Grupo_946808" data-name="Grupo 946808" transform="translate(47.664 116.661)">
        <path id="Trazado_719584" data-name="Trazado 719584" d="M122.722,155.074a7.927,7.927,0,0,1,3.694-1.209,4.342,4.342,0,0,1,2.887.93,6.3,6.3,0,0,1,1.906,2.894,15.29,15.29,0,0,1,.775,4.629q.032.931.031,1.72v3c0,.511-.01,1.075-.031,1.686a26,26,0,0,1-.761,5.54,24.259,24.259,0,0,1-1.861,5.046,20.055,20.055,0,0,1-2.83,4.23,14.47,14.47,0,0,1-3.664,3.04l-7.916,4.572a.425.425,0,0,1-.556-.041.96.96,0,0,1-.235-.722V161.234a2.3,2.3,0,0,1,.235-.992,1.475,1.475,0,0,1,.556-.682Zm3.84,10.2q-.177-5.09-3.988-2.888l-2.989,1.726v17.15l3.137-1.811q3.692-2.132,3.84-7.406c.018-.644.029-1.244.029-1.8v-3.227C126.59,166.47,126.58,165.889,126.561,165.269Z" transform="translate(-114.161 -121.184)" fill="#fff"/>
        <path id="Trazado_719585" data-name="Trazado 719585" d="M144.255,142.737q.587-.337.894-.021a1.722,1.722,0,0,1,.426.748l6.39,24.744a2.253,2.253,0,0,1,.118.611,1.883,1.883,0,0,1-.19.809,1.2,1.2,0,0,1-.454.556l-3.694,2.133q-.587.339-.837.1a1.024,1.024,0,0,1-.307-.568l-.82-3.272-7.8,4.5-.822,4.219a3.349,3.349,0,0,1-.308.923,1.98,1.98,0,0,1-.837.866l-3.693,2.132a.347.347,0,0,1-.455-.03.79.79,0,0,1-.189-.59,3.912,3.912,0,0,1,.117-.744l6.391-32.124a5.859,5.859,0,0,1,.425-1.239,2.169,2.169,0,0,1,.894-1.013ZM139.507,165.2l4.749-2.741L141.882,153Z" transform="translate(-112.742 -122.1)" fill="#fff"/>
        <path id="Trazado_719586" data-name="Trazado 719586" d="M166.031,130.329a.426.426,0,0,1,.557.04.967.967,0,0,1,.235.721v4.785a2.316,2.316,0,0,1-.235.993,1.492,1.492,0,0,1-.557.683l-5.16,2.979v23.153a2.316,2.316,0,0,1-.235.993,1.51,1.51,0,0,1-.557.683l-3.841,2.216a.422.422,0,0,1-.557-.04.96.96,0,0,1-.233-.722V143.661l-5.161,2.979a.426.426,0,0,1-.557-.04.958.958,0,0,1-.235-.722v-4.785a2.292,2.292,0,0,1,.235-.993,1.487,1.487,0,0,1,.557-.682Z" transform="translate(-111.298 -123.098)" fill="#fff"/>
        <path id="Trazado_719587" data-name="Trazado 719587" d="M177.042,123.807c.391-.225.689-.231.9-.021a1.737,1.737,0,0,1,.425.748l6.39,24.745a2.2,2.2,0,0,1,.118.61,1.867,1.867,0,0,1-.19.809,1.207,1.207,0,0,1-.454.557l-3.694,2.132q-.587.339-.836.1a1.019,1.019,0,0,1-.308-.566l-.82-3.273-7.8,4.5-.822,4.22a3.355,3.355,0,0,1-.308.922,1.977,1.977,0,0,1-.836.866l-3.694,2.133a.347.347,0,0,1-.455-.031.789.789,0,0,1-.189-.589,3.906,3.906,0,0,1,.117-.745l6.391-32.124a5.85,5.85,0,0,1,.425-1.238,2.177,2.177,0,0,1,.894-1.014Zm-4.749,22.466,4.749-2.741-2.374-9.462Z" transform="translate(-110.086 -123.633)" fill="#fff"/>
      </g>
    </g>
    <g id="Character" transform="translate(290.241 15.715)">
      <g id="Grupo_946810" data-name="Grupo 946810" transform="translate(26.361 90.595)">
        <g id="Grupo_946809" data-name="Grupo 946809">
          <path id="Trazado_719588" data-name="Trazado 719588" d="M415.178,127.452c-12.088.567-16.231,2.872-22.559,10.324-6.175,7.275-35.99,62.523-35.99,62.523s5.595,15.681,17.835,14.347l22.89-36.908Z" transform="translate(-356.629 -127.452)" fill="#ffa8a7"/>
        </g>
      </g>
      <path id="Trazado_719589" data-name="Trazado 719589" d="M408.775,127.6s-8.68-1.132-14.872,1.108-9.287,6.722-13.552,13.234c-3.3,5.037-14.859,25.958-14.859,25.958s5.631,15.658,21.641,15.658Z" transform="translate(-322.264 -36.981)" fill="#e0e0e0"/>
      <g id="Character-2" data-name="Character" transform="translate(34.29 0)">
        <g id="Grupo_946811" data-name="Grupo 946811" transform="translate(0 194.295)">
          <path id="Trazado_719590" data-name="Trazado 719590" d="M423.747,335.16V332.54c-1.031,3.073-5.823,16.3-13.091,22.928-5.778,5.271-13.66,11.357-15.664,17.232-2.084,6.111,10.967,8.162,16.366,7.207,6.272-1.109,14.385-4.668,18.8-10.1,3.106-3.814,5.083-8.337,7.3-11.338s7.329-6.349,8.528-9.822c.658-1.907-.124-6.086-1.049-9.616-.849-3.237-1.77-6.8-2.875-6.5,0,.4,0,2,0,2-1.328,1.473-5.009,2.935-9.157,3.094C430.227,337.735,423.726,337.2,423.747,335.16Z" transform="translate(-330.116 -45.961)" fill="#263238"/>
          <path id="Trazado_719591" data-name="Trazado 719591" d="M401.316,367.219c1.791-1.6,3.595-3.161,5.23-4.653,5.077-4.632,8.948-12.486,11.171-17.845a25.13,25.13,0,0,0,1.922-9.639v-10.44h18.317v16.992h0v.455l-.093.048c-.881,3.806-9.287,13.93-14.064,20.532-3.2,4.427-9.283,10.056-16.551,11.026C400.361,374.615,396.84,372.443,401.316,367.219Z" transform="translate(-326.006 -53.077)" fill="#ffa8a7"/>
          <path id="Trazado_719592" data-name="Trazado 719592" d="M389.774,325.672v-2.62c-1.033,3.073-5.825,16.3-13.093,22.93-5.776,5.27-13.658,11.355-15.662,17.23-2.086,6.111,10.967,8.162,16.364,7.207,6.272-1.109,14.387-4.668,18.8-10.1,3.1-3.814,5.083-8.337,7.3-11.337s7.329-6.35,8.527-9.824c.658-1.907-.124-6.086-1.049-9.614-.851-3.239-1.77-6.8-2.875-6.5,0,.4,0,2,0,2-1.33,1.475-5.009,2.938-9.157,3.1C396.252,328.247,389.751,327.716,389.774,325.672Z" transform="translate(-360.796 -54.53)" fill="#263238"/>
          <path id="Trazado_719593" data-name="Trazado 719593" d="M367.342,357.731c1.793-1.6,3.595-3.161,5.232-4.653,5.077-4.632,8.946-12.486,11.171-17.845a25.119,25.119,0,0,0,1.92-9.639v-10.44h18.317v16.992h0v.457l-.091.046c-.883,3.806-9.289,13.93-14.064,20.532-3.2,4.427-9.285,10.058-16.553,11.026C366.387,365.127,362.866,362.955,367.342,357.731Z" transform="translate(-356.686 -61.645)" fill="#ffa8a7"/>
          <path id="Trazado_719594" data-name="Trazado 719594" d="M459,186.482c14.2,31.014-.512,140.267-.512,140.267.428,5.034,6.181,14.937,8.326,37.087,2.533,26.173-3.976,91.893-3.976,91.893a19.818,19.818,0,0,1-18.511.735s-17.455-98.978-20.737-125c-2.864-22.711-8.364-72.647-8.364-72.647l-8.836,72.526s4.012,12.722,4.95,22.414c1.483,15.306-13.348,86.574-13.348,86.574s-6.32,2.32-18.317.552c0,0-5.245-94.574-6.628-113.015-2.322-30.967-.889-127.593,4.792-145.923Z" transform="translate(-350.694 -181.943)" fill="#455a64"/>
          <path id="Trazado_719595" data-name="Trazado 719595" d="M410.344,241.869l-4.611-28.807s-19.5-4.04-28.348-12.355c0,0,9.279,11.542,23.063,15.323l5.178,22.178-3.528,71.35Z" transform="translate(-345.814 -164.997)" fill="#37474f"/>
        </g>
        <path id="Trazado_719596" data-name="Trazado 719596" d="M432.232,127.941h0c5.4.373,7.2.24,11.119.643,7.829.8,9.713,12.254,12.916,19.017a31.164,31.164,0,0,1,.862,23.465l-12.688,36.7s5.941,14.357,12.836,27.924c-31.836,17.769-71.589,8.429-81.161-4.539-.405-2.75,2.055-24.253,3.57-38.3-5.608-14.065-7.087-22.981-4.721-32.28,4.39-17.257,20.125-33.138,24.629-33.121Z" transform="translate(-348.976 -36.857)" fill="#f0f0f0"/>
        <g id="Grupo_946819" data-name="Grupo 946819" transform="translate(24.466)">
          <path id="Trazado_719597" data-name="Trazado 719597" d="M459.656,101.268l-6.588-.573a5.085,5.085,0,0,0,1.958-1.97,5.629,5.629,0,0,0-2.112-7.485l-4.25,7.715A38.39,38.39,0,0,0,413.433,79.9l-3.4.181A38.423,38.423,0,0,0,373.707,120.5c1.165,21.893,2.453,46.381,2.453,46.381l39.538-2.1a40.661,40.661,0,0,0,38.441-42.766l-.293-5.778a38.348,38.348,0,0,0-2.093-10.56,5.13,5.13,0,0,0,1.914.56A5.629,5.629,0,0,0,459.656,101.268Z" transform="translate(-373.652 -79.847)" fill="#455a64"/>
          <g id="Grupo_946812" data-name="Grupo 946812" transform="translate(7.015 25.389)">
            <path id="Trazado_719598" data-name="Trazado 719598" d="M377.473,111.02a77.5,77.5,0,0,0,.325,12.591c1.507,19.7,8.16,24.232,11.445,25.465s9.431.049,15.4-1.273l0,11.649s-7.171,10.294-6.358,15.695,12.368,6.071,19.872.354S428.7,160.058,428.7,160.058l-.006-27.227s4.352,5.209,10.764.442,6.082-15.706,2.01-19.423-12.49-2.141-13.753,3.363c0,0-13.879-1.165-15.645-24.024C399.168,110.005,378.291,97.875,377.473,111.02Z" transform="translate(-377.338 -93.188)" fill="#ffa8a7"/>
          </g>
          <path id="Trazado_719599" data-name="Trazado 719599" d="M407.113,108.532l.52,9.761h0a6.65,6.65,0,0,1-7-6.29l-.58-10.893Z" transform="translate(-349.808 -60.645)" fill="#455a64"/>
          <g id="Grupo_946813" data-name="Grupo 946813" transform="translate(31.832 46.481)">
            <path id="Trazado_719600" data-name="Trazado 719600" d="M390.379,106.867a2.485,2.485,0,1,0,2.476-2.6A2.525,2.525,0,0,0,390.379,106.867Z" transform="translate(-390.379 -104.271)" fill="#263238"/>
          </g>
          <g id="Grupo_946814" data-name="Grupo 946814" transform="translate(25.025 66.556)">
            <path id="Trazado_719601" data-name="Trazado 719601" d="M393.444,114.82l-6.642,2.514a3.486,3.486,0,0,0,4.522,2.19A3.719,3.719,0,0,0,393.444,114.82Z" transform="translate(-386.802 -114.82)" fill="#f28f8f"/>
          </g>
          <g id="Grupo_946815" data-name="Grupo 946815" transform="translate(34.548 35.83)">
            <path id="Trazado_719602" data-name="Trazado 719602" d="M391.806,100.782l5.818,1.878a2.935,2.935,0,0,0-1.852-3.837A3.211,3.211,0,0,0,391.806,100.782Z" transform="translate(-391.806 -98.674)" fill="#455a64"/>
          </g>
          <g id="Grupo_946816" data-name="Grupo 946816" transform="translate(10.513 47.556)">
            <path id="Trazado_719603" data-name="Trazado 719603" d="M379.176,107.43a2.485,2.485,0,1,0,2.476-2.594A2.522,2.522,0,0,0,379.176,107.43Z" transform="translate(-379.176 -104.836)" fill="#263238"/>
          </g>
          <g id="Grupo_946817" data-name="Grupo 946817" transform="translate(17.415 48.045)">
            <path id="Trazado_719604" data-name="Trazado 719604" d="M390.391,105.093l.4,14.952L382.8,118.03Z" transform="translate(-382.803 -105.093)" fill="#f28f8f"/>
          </g>
          <g id="Grupo_946818" data-name="Grupo 946818" transform="translate(34.316 69.121)">
            <path id="Trazado_719605" data-name="Trazado 719605" d="M391.684,127.05c6.3-1.17,19.15-5.614,20.909-10.882,0,0-.5,3.279-4.225,6.828s-16.684,8-16.684,8Z" transform="translate(-391.684 -116.168)" fill="#f28f8f"/>
          </g>
        </g>
        <path id="Trazado_719606" data-name="Trazado 719606" d="M416.8,228.625c10.457-2.476,12.444-6.415,9.683-16.8a7.853,7.853,0,0,0-.325-1c-2.048-4.923-10.217-2-10.217-2s3.344-4.168,7.1-9.479,5.431-14.1,5.934-20.26,1.507-18.507,1.507-18.507,8.134-4.868,4.963-13.774L448,139.088s.917.639,2.364,1.644a31.921,31.921,0,0,1-.523,19.826l-12.688,36.7a207.715,207.715,0,0,1,12.836,27.924c-23.463,13.095-51.211,11.46-68.024,4.506A92.811,92.811,0,0,0,416.8,228.625Z" transform="translate(-341.682 -26.349)" fill="#e6e6e6"/>
        <path id="Trazado_719607" data-name="Trazado 719607" d="M431.441,106.487l-14.381.767a8.037,8.037,0,0,0-8.181-5.953l-1.239.067a8.036,8.036,0,0,0-7.142,5.357,6.9,6.9,0,0,0-4.786-1.787,5.9,5.9,0,0,0-4.071,1.454,8,8,0,0,0-7.207-3.789l-1.237.065a8.028,8.028,0,0,0,.853,16.033l1.239-.065a8.036,8.036,0,0,0,7.589-8.444,7.932,7.932,0,0,0-.588-2.52,4.434,4.434,0,0,1,3.425-1.382,5.3,5.3,0,0,1,4.35,1.932l.065-.044a8.126,8.126,0,0,0-.08,1.631,8.036,8.036,0,0,0,8.442,7.589l1.239-.065a8.039,8.039,0,0,0,7.591-8.444c-.006-.1-.036-.192-.046-.293l12.861-.685A6.922,6.922,0,0,1,431.441,106.487Zm-46.225,10.8-1.239.067a6.674,6.674,0,0,1-.708-13.329l1.237-.067a6.674,6.674,0,1,1,.71,13.329Zm24.443-1.3-1.237.067a6.674,6.674,0,0,1-.71-13.329l1.237-.067a6.674,6.674,0,1,1,.71,13.329Z" transform="translate(-347.43 -60.483)" fill="#263238"/>
      </g>
      <g id="Grupo_946827" data-name="Grupo 946827" transform="translate(0.001 150.802)">
        <g id="Grupo_946820" data-name="Grupo 946820" transform="translate(0 0.966)">
          <path id="Trazado_719608" data-name="Trazado 719608" d="M342.778,159.6l64.3,16.935,17.7,72.747-61.128-17.754Z" transform="translate(-342.778 -159.596)" fill="#27debf"/>
          <path id="Trazado_719609" data-name="Trazado 719609" d="M342.778,159.6l64.3,16.935,17.7,72.747-61.128-17.754Z" transform="translate(-342.778 -159.596)" opacity="0.25"/>
          <path id="Trazado_719610" data-name="Trazado 719610" d="M365.542,191.168c.409,3.937,3.169,8.493,11.2,12.33s23.68,1.694,23.68,1.694l-2.177-8.954Z" transform="translate(-322.22 -131.085)" opacity="0.2"/>
        </g>
        <g id="Grupo_946821" data-name="Grupo 946821" transform="translate(16.561 52.482)" opacity="0.2">
          <path id="Trazado_719611" data-name="Trazado 719611" d="M363.97,186.666c-.6,1.631-3.477,7.146-11.839,7.82l-.651-2.244Z" transform="translate(-351.48 -186.666)"/>
        </g>
        <g id="Grupo_946822" data-name="Grupo 946822" transform="translate(18.821 9.013)" opacity="0.1">
          <path id="Trazado_719612" data-name="Trazado 719612" d="M353.215,167.333l-.531-2.453c-.293-1.355,3.481-1.412,8.429-.129l9.473,2.457c4.946,1.283,9.194,3.422,9.487,4.775l.531,2.453Z" transform="translate(-352.668 -163.825)"/>
        </g>
        <g id="Grupo_946823" data-name="Grupo 946823" transform="translate(14.414)">
          <path id="Trazado_719613" data-name="Trazado 719613" d="M350.367,162.391c-.186-.847,1.342-1.068,3.414-.5l3.753,1.037s-1.119-5.3,7.2-3.45,10.143,7.877,10.143,7.877l4,1.136c2.213.628,4.217,1.821,4.48,2.664l.474,1.526-33.12-8.722S350.554,163.238,350.367,162.391Z" transform="translate(-350.352 -159.088)" fill="#37474f"/>
        </g>
        <g id="Grupo_946824" data-name="Grupo 946824" transform="translate(18.027 4.903)">
          <path id="Trazado_719614" data-name="Trazado 719614" d="M353.215,162.681c3.035.731,4.3,1.134,4.748,3.222.518,2.385.729,4.135.729,4.135l14.659,3.873s-.708-3.018-.934-4.2.272-1.886,2.605-1.267l.2-.934-22.97-5.848Z" transform="translate(-352.25 -161.665)" fill="#37474f"/>
        </g>
        <g id="Grupo_946825" data-name="Grupo 946825" transform="translate(17.94 9.244)">
          <path id="Trazado_719615" data-name="Trazado 719615" d="M352.752,167.453s-.238-1.1-.531-2.453,3.481-1.412,8.429-.129l9.473,2.457c4.946,1.283,9.194,3.422,9.487,4.777l.531,2.451Z" transform="translate(-352.205 -163.946)" fill="#37474f"/>
        </g>
        <g id="Grupo_946826" data-name="Grupo 946826" transform="translate(2.003 22.886)">
          <path id="Trazado_719616" data-name="Trazado 719616" d="M348.6,172.549s2.405,8.225,2.955,10.185,7.755,5.485,12.48,6.782,9.9,2.837,7.658,9.447c-2.061,6.092-9.839,7.483-13.8,7.312s-9.382-3.956-11.517-10.058c-2.723-7.782-1.256-16.092-2.337-20.637S346.234,169.839,348.6,172.549Z" transform="translate(-343.83 -171.114)" fill="#ffa8a7"/>
        </g>
      </g>
      <g id="Grupo_946828" data-name="Grupo 946828" transform="translate(41.921 91.311)">
        <path id="Trazado_719617" data-name="Trazado 719617" d="M450.094,127.976c8.337.529,16.956,5.045,18.263,15.059s9.416,62.725,6.234,68.659c-7.359,13.721-55.889,39.818-60.711,42.05s-12.838,5.9-22.391,6c-7.566.086-17.637-.164-22.728-7.005-4.518-6.073-7.072-17.278,3.136-15.35s23.392,1.028,23.392,1.028l-1.187-4.887s2.7-.244,7.789,1.271,9.721-2.862,18.713-8.417c11.6-7.165,29.246-22.313,29.246-22.313l-7.2-44.012S442.413,141.035,450.094,127.976Z" transform="translate(-364.805 -127.695)" fill="#ffa8a7"/>
        <path id="Trazado_719618" data-name="Trazado 719618" d="M412.882,128.109a17.736,17.736,0,0,1,9.363.841c4.9,1.867,9.249,4.348,11.283,14.218s6.059,45.944,6.059,45.944-10.676,7.721-28.064,4.052l-6.248-32.735S400.41,137.514,412.882,128.109Z" transform="translate(-329.103 -127.828)" fill="#e0e0e0"/>
      </g>
    </g>
    <g id="Analysis" transform="translate(94.826 279.179)">
      <g id="Grupo_946831" data-name="Grupo 946831">
        <g id="Grupo_946829" data-name="Grupo 946829">
          <path id="Trazado_719619" data-name="Trazado 719619" d="M96.617,224.556l115.565-66.721v16.012L96.616,240.57Z" transform="translate(-91.994 -155.165)" fill="#455a64"/>
          <path id="Trazado_719620" data-name="Trazado 719620" d="M100.894,226.626v5.336l106.32-61.383v-5.338Z" transform="translate(-91.647 -154.565)" fill="#263238"/>
          <path id="Trazado_719621" data-name="Trazado 719621" d="M96.963,224.756l-4.623-2.669,115.567-66.721,4.621,2.67Z" transform="translate(-92.34 -155.365)" fill="#37474f"/>
          <path id="Trazado_719622" data-name="Trazado 719622" d="M92.34,217.087l4.623,2.669V235.77l-4.621-2.67Z" transform="translate(-92.34 -150.365)" fill="#263238"/>
        </g>
        <g id="Grupo_946830" data-name="Grupo 946830" transform="translate(9.247 13.345)">
          <path id="Trazado_719623" data-name="Trazado 719623" d="M412.13,412.353,310.421,471.035v-2.606l101.7-58.682Z" transform="translate(-83.92 -148.102)" fill="#37474f"/>
          <path id="Trazado_719624" data-name="Trazado 719624" d="M230.325,271.553l-22.4,12.934-13.77,7.943a14.689,14.689,0,0,0-1.3.751,18.252,18.252,0,0,0-8.751,15.7l-.012,64.374a18.217,18.217,0,0,1-7.385,14.772,18.648,18.648,0,0,1-11.141,3.744,18.341,18.341,0,0,1-9.207-2.5,55.474,55.474,0,0,1-27.732-48.035V274.461a55.463,55.463,0,0,0-27.733-48.035l101.7-58.716h0a55.517,55.517,0,0,1,27.745,48.057v29.088C230.336,253.174,230.325,271.553,230.325,271.553Z" transform="translate(-100.894 -167.71)" fill="#f5f5f5"/>
          <path id="Trazado_719625" data-name="Trazado 719625" d="M267.309,448.936a55.443,55.443,0,0,1-27.732-48.024l-.006-64.414a55.307,55.307,0,0,0-4.359-21.542,56.937,56.937,0,0,0-3.072-6.191,55.475,55.475,0,0,0-20.3-20.291h0A18.487,18.487,0,0,0,184.116,304.5l0,6.561-.014-6.573-.012,64.374,0-13.394v13.37a18.5,18.5,0,0,1-27.736,16.036,55.473,55.473,0,0,1-27.733-48.035V270.061a55.469,55.469,0,0,0-27.733-48.035v2.663a53.321,53.321,0,0,1,25.457,45.372v66.776a57.9,57.9,0,0,0,28.872,50,20.551,20.551,0,0,0,20.768,0c.4-.227.785-.466,1.172-.728l.035-.023a20.537,20.537,0,0,0,9.172-17.23l.011-64.374a16.211,16.211,0,0,1,24.32-14.043A53.3,53.3,0,0,1,237.3,336.5v14.946l0,49.468a57.916,57.916,0,0,0,28.872,50L327.4,486.244v-2.606Z" transform="translate(-100.894 -163.31)" fill="#455a64"/>
          <path id="Trazado_719626" data-name="Trazado 719626" d="M422.1,424.561l-101.7,58.682-60.086-34.7a55.443,55.443,0,0,1-27.732-48.024l-.005-64.414a55.326,55.326,0,0,0-4.359-21.542,56.95,56.95,0,0,0-3.073-6.191,55.475,55.475,0,0,0-20.3-20.291,18.274,18.274,0,0,0-17.685-.443l13.77-7.943,27.7-16,59.3-34.231.147-.091a18.3,18.3,0,0,1,18.458.011,55.466,55.466,0,0,1,27.733,48.036l.005,64.4a55.475,55.475,0,0,0,27.733,48.035Z" transform="translate(-93.905 -162.916)" fill="#fafafa"/>
          <path id="Trazado_719627" data-name="Trazado 719627" d="M231.667,331.536a53.3,53.3,0,0,0-26.6-46.055,16.211,16.211,0,0,0-24.32,14.043l-.011,64.374a20.537,20.537,0,0,1-9.172,17.23l-.035.023c-.387.262-.774.5-1.172.728l61.305-35.4Z" transform="translate(-95.266 -158.348)" fill="#e0e0e0"/>
          <path id="Trazado_719628" data-name="Trazado 719628" d="M231.667,331.536a53.3,53.3,0,0,0-26.6-46.055,16.211,16.211,0,0,0-24.32,14.043l-.011,64.374a20.537,20.537,0,0,1-9.172,17.23l-.035.023c-.387.262-.774.5-1.172.728l61.305-35.4Z" transform="translate(-95.266 -158.348)" opacity="0.15"/>
        </g>
      </g>
      <g id="Grupo_946871" data-name="Grupo 946871" transform="translate(9.247 13.345)">
        <g id="Grupo_946870" data-name="Grupo 946870" clip-path="url(#clip-path)">
          <g id="Grupo_946869" data-name="Grupo 946869" transform="translate(16.662 10.014)">
            <path id="Trazado_719629" data-name="Trazado 719629" d="M117.708,226a7.916,7.916,0,0,0,8.635.651l72.568-41.9c2.721-1.572,3.364-4.511,1.235-6.347s-6.209-1.867-8.931-.3l-72.6,41.92C115.889,221.6,115.568,224.167,117.708,226Z" transform="translate(-116.307 -176.974)" fill="#27debf"/>
            <g id="Grupo_946832" data-name="Grupo 946832" transform="translate(59.102 11.971)">
              <path id="Trazado_719630" data-name="Trazado 719630" d="M171.788,209.251a.807.807,0,0,1-.405-1.5l33.931-19.59a.806.806,0,1,1,.806,1.4l-33.93,19.591A.811.811,0,0,1,171.788,209.251Z" transform="translate(-170.979 -188.048)" opacity="0.4"/>
            </g>
            <g id="Grupo_946833" data-name="Grupo 946833" transform="translate(61.72 16.34)">
              <path id="Trazado_719631" data-name="Trazado 719631" d="M174.21,213.292a.807.807,0,0,1-.4-1.5l33.93-19.59a.806.806,0,1,1,.806,1.4l-33.93,19.59A.8.8,0,0,1,174.21,213.292Z" transform="translate(-173.402 -192.09)" opacity="0.4"/>
            </g>
            <g id="Grupo_946834" data-name="Grupo 946834" transform="translate(63.92 20.89)">
              <path id="Trazado_719632" data-name="Trazado 719632" d="M176.245,217.5a.807.807,0,0,1-.4-1.5l33.931-19.59a.806.806,0,0,1,.806,1.4l-33.93,19.591A.8.8,0,0,1,176.245,217.5Z" transform="translate(-175.437 -196.298)" opacity="0.4"/>
            </g>
            <g id="Grupo_946835" data-name="Grupo 946835" transform="translate(65.688 25.622)">
              <path id="Trazado_719633" data-name="Trazado 719633" d="M177.88,221.878a.806.806,0,0,1-.4-1.5l33.929-19.59a.806.806,0,0,1,.806,1.4l-33.929,19.589A.8.8,0,0,1,177.88,221.878Z" transform="translate(-177.072 -200.676)" opacity="0.4"/>
            </g>
            <g id="Grupo_946836" data-name="Grupo 946836" transform="translate(66.979 30.259)">
              <path id="Trazado_719634" data-name="Trazado 719634" d="M179.075,226.168a.807.807,0,0,1-.405-1.5l33.93-19.59a.806.806,0,0,1,.806,1.4l-33.929,19.589A.8.8,0,0,1,179.075,226.168Z" transform="translate(-178.266 -204.965)" opacity="0.4"/>
            </g>
            <g id="Grupo_946837" data-name="Grupo 946837" transform="translate(67.851 35.244)">
              <path id="Trazado_719635" data-name="Trazado 719635" d="M179.882,230.779a.807.807,0,0,1-.405-1.5l33.93-19.591a.806.806,0,0,1,.806,1.4l-33.929,19.59A.8.8,0,0,1,179.882,230.779Z" transform="translate(-179.073 -209.576)" opacity="0.4"/>
            </g>
            <g id="Grupo_946838" data-name="Grupo 946838" transform="translate(68.326 40.563)">
              <path id="Trazado_719636" data-name="Trazado 719636" d="M180.321,235.7a.807.807,0,0,1-.405-1.5l33.931-19.59a.806.806,0,0,1,.806,1.4l-33.93,19.589A.8.8,0,0,1,180.321,235.7Z" transform="translate(-179.512 -214.496)" opacity="0.4"/>
            </g>
            <g id="Grupo_946839" data-name="Grupo 946839" transform="translate(20.188 51.022)">
              <path id="Trazado_719637" data-name="Trazado 719637" d="M135.552,272.842a.569.569,0,0,1-.285-1.062l82.328-47.532a.569.569,0,0,1,.57.985l-82.328,47.532A.568.568,0,0,1,135.552,272.842Z" transform="translate(-134.982 -224.172)" opacity="0.4"/>
              <path id="Trazado_719638" data-name="Trazado 719638" d="M135.552,277.544a.568.568,0,0,1-.285-1.06l82.328-47.534a.569.569,0,0,1,.57.985l-82.328,47.533A.557.557,0,0,1,135.552,277.544Z" transform="translate(-134.982 -223.791)" opacity="0.4"/>
              <path id="Trazado_719639" data-name="Trazado 719639" d="M135.552,282.245a.569.569,0,0,1-.285-1.062l82.328-47.533a.569.569,0,0,1,.57.985l-82.328,47.533A.568.568,0,0,1,135.552,282.245Z" transform="translate(-134.982 -223.41)" opacity="0.4"/>
              <path id="Trazado_719640" data-name="Trazado 719640" d="M135.552,286.946a.569.569,0,0,1-.285-1.062l82.328-47.532a.568.568,0,1,1,.57.984l-82.328,47.533A.568.568,0,0,1,135.552,286.946Z" transform="translate(-134.982 -223.029)" opacity="0.4"/>
            </g>
            <g id="Grupo_946844" data-name="Grupo 946844" transform="translate(8.19 47.363)">
              <g id="Grupo_946841" data-name="Grupo 946841" transform="translate(11.998 18.637)">
                <g id="Grupo_946840" data-name="Grupo 946840">
                  <path id="Trazado_719641" data-name="Trazado 719641" d="M135.552,264.332a.569.569,0,0,1-.285-1.062L178.852,238.1a.569.569,0,1,1,.57.985l-43.585,25.166A.568.568,0,0,1,135.552,264.332Z" transform="translate(-134.982 -238.028)" opacity="0.4"/>
                </g>
              </g>
              <g id="Grupo_946842" data-name="Grupo 946842" transform="translate(11.181 12.218)">
                <path id="Trazado_719642" data-name="Trazado 719642" d="M134.384,235.635a53.645,53.645,0,0,1,4.036,10.3,53.1,53.1,0,0,1,1.886,11.274.822.822,0,0,0,1.336.707l2.424-1.4a2.48,2.48,0,0,0,1.138-2.131,57.814,57.814,0,0,0-2.04-11.6,62.5,62.5,0,0,0-3.9-9.967,1.374,1.374,0,0,0-1.914-.536l-2.384,1.376A1.518,1.518,0,0,0,134.384,235.635Z" transform="translate(-134.226 -232.09)" fill="#27debf"/>
              </g>
              <g id="Grupo_946843" data-name="Grupo 946843" transform="translate(18.302 2.3)">
                <path id="Trazado_719643" data-name="Trazado 719643" d="M141.039,226.317a57.283,57.283,0,0,1,5.832,12.434,53.719,53.719,0,0,1,2.6,13.607.813.813,0,0,0,1.321.709l2.423-1.4a2.5,2.5,0,0,0,1.149-2.133,58.2,58.2,0,0,0-2.65-13.582,55.816,55.816,0,0,0-5.793-12.351,1.541,1.541,0,0,0-2.02-.5l-2.412,1.34A1.3,1.3,0,0,0,141.039,226.317Z" transform="translate(-140.814 -222.915)" fill="#27debf"/>
              </g>
              <path id="Trazado_719644" data-name="Trazado 719644" d="M155.377,232.391" transform="translate(-121.331 -219.848)" fill="#27debf"/>
              <path id="Trazado_719645" data-name="Trazado 719645" d="M158.963,230.474l-2.381,1.375a1.847,1.847,0,0,0-.792,2.064,55.5,55.5,0,0,1,2.163,12.255.812.812,0,0,0,1.321.708l2.423-1.4a2.5,2.5,0,0,0,1.149-2.133,57.87,57.87,0,0,0-2.232-12.221A1.08,1.08,0,0,0,158.963,230.474Z" transform="translate(-121.304 -220.017)" fill="#27debf"/>
              <path id="Trazado_719646" data-name="Trazado 719646" d="M168.058,221.576a1.218,1.218,0,0,0-1.779-.611l-2.4,1.365a1.663,1.663,0,0,0-.694,2.018q.652,1.631,1.255,3.39a53.719,53.719,0,0,1,2.6,13.607.812.812,0,0,0,1.321.709l2.423-1.4a2.5,2.5,0,0,0,1.148-2.133,58.142,58.142,0,0,0-2.65-13.582Q168.712,223.214,168.058,221.576Z" transform="translate(-120.708 -220.788)" fill="#27debf"/>
              <path id="Trazado_719647" data-name="Trazado 719647" d="M138.123,255.323a.4.4,0,0,0-.55-.147l-1.014.585c-.222-1.4-.483-2.784-.8-4.146l1.371-.791a.4.4,0,0,0-.4-.7l-1.175.678c-.342-1.372-.722-2.728-1.162-4.059l1.3-.752a.4.4,0,0,0-.4-.7l-1.174.678c-.45-1.3-.933-2.577-1.476-3.83l-.046-.1,1.294-.747a.4.4,0,1,0-.4-.7l-1.222.7q-.845-1.9-1.87-3.779l1.291-.746a.4.4,0,1,0-.4-.7l-1.279.738c-.683-1.208-1.426-2.405-2.218-3.592l1.452-.838a.4.4,0,1,0-.4-.7l-1.5.866c-.855-1.243-1.762-2.474-2.733-3.687a.4.4,0,1,0-.629.5q1.417,1.772,2.663,3.588l-1.384.8a.4.4,0,0,0,.2.752.41.41,0,0,0,.2-.054l1.433-.828q1.192,1.779,2.22,3.591l-1.607.929a.4.4,0,1,0,.4.7l1.6-.921q1.025,1.878,1.867,3.78l-1.664.961a.4.4,0,1,0,.4.7l1.59-.918.006.014c.556,1.284,1.051,2.6,1.507,3.925l-1.7.982a.4.4,0,0,0,.2.752.4.4,0,0,0,.2-.054l1.572-.907c.436,1.333.811,2.693,1.147,4.067l-1.686.974a.4.4,0,0,0,.2.752.4.4,0,0,0,.2-.054l1.49-.859c.312,1.366.565,2.754.781,4.158l-1.826,1.054a.4.4,0,1,0,.4.7l1.559-.9q.353,2.552.491,5.175a.4.4,0,0,0,.4.383h.021a.4.4,0,0,0,.382-.424c-.1-1.881-.285-3.736-.548-5.564l1.279-.738A.4.4,0,0,0,138.123,255.323Z" transform="translate(-123.883 -220.145)" opacity="0.4"/>
            </g>
            <g id="Grupo_946863" data-name="Grupo 946863" transform="translate(18.684 91.086)">
              <g id="Grupo_946847" data-name="Grupo 946847" transform="translate(6.908 8.135)" opacity="0.15">
                <g id="Grupo_946845" data-name="Grupo 946845" transform="translate(0.57 0.57)">
                  <path id="Trazado_719648" data-name="Trazado 719648" d="M140.9,331.044a65.55,65.55,0,0,1-.366-9.165c.331-1.173,5.241-18.025,14.274-23.277a6.17,6.17,0,0,1,1.78-.744,3.328,3.328,0,0,1,.739-.088c2.394,0,3.468,3.332,4.507,6.554a32.61,32.61,0,0,0,1.426,3.874c.615,1.294,1.664,3.017,3.657,3.017a5.052,5.052,0,0,0,2.476-.764c4.342-2.474,5.591-9.175,6.914-16.269a80.237,80.237,0,0,1,2.132-9.4c1.318-4.141,3.026-6.7,5.377-8.068a4.169,4.169,0,0,1,2.01-.656c2.517,0,3.469,4.484,4.391,8.819a36.1,36.1,0,0,0,1.829,6.643c.918,2.09,2.124,3.106,3.686,3.106a5.249,5.249,0,0,0,2.6-.817c5.329-3.077,6.942-8.292,8.5-13.335,1.325-4.282,2.575-8.326,6.09-10.371a5.264,5.264,0,0,1,2.614-.82,3.288,3.288,0,0,1,1.15.2,22.484,22.484,0,0,1,.17,2.414l.058,10.21c.1,1.952.225,3.487.405,4.807Z" transform="translate(-140.508 -269.286)" fill="#27debf"/>
                </g>
                <g id="Grupo_946846" data-name="Grupo 946846">
                  <path id="Trazado_719649" data-name="Trazado 719649" d="M217.99,287.263c-.228-1.525-.364-3.255-.455-5.11l-.057-10.208a23.36,23.36,0,0,0-.216-2.811,3.874,3.874,0,0,0-1.673-.375h0a5.784,5.784,0,0,0-2.9.9c-7.841,4.564-4.848,18.083-14.589,23.7a4.715,4.715,0,0,1-2.319.743c-1.453,0-2.432-1.1-3.166-2.767-2.293-5.173-2.23-15.8-6.741-15.8a4.68,4.68,0,0,0-2.295.734c-2.788,1.615-4.46,4.7-5.632,8.386-2.9,9.1-2.732,21.895-8.786,25.343a4.514,4.514,0,0,1-2.194.691c-1.44,0-2.39-1.11-3.142-2.694-1.873-3.927-2.532-10.753-6.446-10.753a3.918,3.918,0,0,0-.859.1,6.706,6.706,0,0,0-1.946.808c-9.627,5.6-14.556,23.682-14.556,23.682a65.875,65.875,0,0,0,.469,10.177l1.115-.643c-.057-.315-.112-.591-.175-1.213a64.876,64.876,0,0,1-.275-8.145c.456-1.595,5.283-17.806,14-22.875a5.607,5.607,0,0,1,1.619-.679,2.784,2.784,0,0,1,.61-.074c1.979,0,2.989,3.132,3.965,6.16a33.06,33.06,0,0,0,1.453,3.944c.393.827,1.588,3.343,4.171,3.343a5.585,5.585,0,0,0,2.759-.839c4.572-2.6,5.843-9.431,7.19-16.658A80.048,80.048,0,0,1,179.028,285c1.27-4,2.9-6.46,5.116-7.745a3.64,3.64,0,0,1,1.726-.582c2.057,0,3,4.446,3.834,8.368a36.561,36.561,0,0,0,1.865,6.752c1.005,2.287,2.421,3.447,4.208,3.447a5.783,5.783,0,0,0,2.887-.894c5.524-3.188,7.244-8.751,8.762-13.66,1.291-4.173,2.509-8.113,5.833-10.048a4.72,4.72,0,0,1,2.327-.743h0a2.725,2.725,0,0,1,.627.07c.122,1.153.124,1.97.124,1.984l.058,10.258c.086,1.76.2,3.2.361,4.451a7.933,7.933,0,0,0,.219,1.186l1.012-.583" transform="translate(-139.981 -268.759)"/>
                </g>
              </g>
              <g id="Grupo_946848" data-name="Grupo 946848" transform="translate(6.913 0.437)" opacity="0.4">
                <path id="Trazado_719650" data-name="Trazado 719650" d="M140.017,317.26v5.152a65.088,65.088,0,0,0,.465,10.176l77.5-44.746c-.224-1.522-.364-3.256-.456-5.116l-.055-10.2s0-15.246-9.686-9.653c-10.18,5.877-7.3,24.542-14.528,28.715-7.291,4.211-4.843-12.449-14.529-6.857s-4.843,18.041-14.528,23.633-4.843-22.613-14.529-17.021S139.988,310.821,140.017,317.26Z" transform="translate(-139.986 -261.638)" fill="#27debf"/>
              </g>
              <g id="Grupo_946849" data-name="Grupo 946849" transform="translate(2.993 31.244)">
                <path id="Trazado_719651" data-name="Trazado 719651" d="M136.763,338.144a.4.4,0,0,1-.2-.753L219,290.189a.4.4,0,0,1,.4.7l-82.436,47.2A.4.4,0,0,1,136.763,338.144Z" transform="translate(-136.36 -290.136)" opacity="0.4"/>
              </g>
              <g id="Grupo_946853" data-name="Grupo 946853" transform="translate(16.189 31.243)">
                <g id="Grupo_946850" data-name="Grupo 946850" transform="translate(0.008)">
                  <path id="Trazado_719652" data-name="Trazado 719652" d="M148.977,291.749a.4.4,0,0,1-.4-.4v-.806a.4.4,0,1,1,.808,0l0,.806A.4.4,0,0,1,148.977,291.749Z" transform="translate(-148.574 -290.135)" fill="#fff"/>
                </g>
                <g id="Grupo_946851" data-name="Grupo 946851" transform="translate(0 2.362)">
                  <path id="Trazado_719653" data-name="Trazado 719653" d="M149.21,322.578a.4.4,0,0,1-.4-.368c-.048-.515-.088-1.035-.12-1.556a.4.4,0,0,1,.377-.428.373.373,0,0,1,.427.377q.049.772.118,1.534a.4.4,0,0,1-.364.438Zm-.189-3.093a.4.4,0,0,1-.4-.4c-.006-.448-.012-.967-.016-1.554a.4.4,0,0,1,.4-.406.37.37,0,0,1,.406.4c0,.585.01,1.1.016,1.549a.4.4,0,0,1-.4.41Zm-.026-3.1a.4.4,0,0,1-.4-.4l-.009-1.552a.4.4,0,0,1,.4-.4h0a.4.4,0,0,1,.4.4l.008,1.55a.4.4,0,0,1-.4.405Zm-.015-3.1a.4.4,0,0,1-.4-.4l0-1.55a.4.4,0,0,1,.4-.4h0a.4.4,0,0,1,.4.4l0,1.55a.4.4,0,0,1-.4.4Zm-.007-3.1a.4.4,0,0,1-.4-.4v-1.551a.4.4,0,1,1,.806,0v1.551A.4.4,0,0,1,148.973,310.181Zm0-3.1a.4.4,0,0,1-.4-.4v-1.55a.4.4,0,0,1,.806,0v1.55A.4.4,0,0,1,148.97,307.078Zm0-3.1a.4.4,0,0,1-.4-.4v-1.55a.4.4,0,1,1,.806,0v1.55A.4.4,0,0,1,148.97,303.978Zm0-3.1h0a.4.4,0,0,1-.4-.4v-1.549a.4.4,0,1,1,.806,0v1.551A.4.4,0,0,1,148.97,300.876Zm0-3.1h0a.4.4,0,0,1-.4-.4V295.82a.4.4,0,0,1,.806,0v1.553A.4.4,0,0,1,148.972,297.776Zm0-3.1a.4.4,0,0,1-.4-.4l0-1.546a.407.407,0,0,1,.4-.405h0a.4.4,0,0,1,.4.4l0,1.55A.4.4,0,0,1,148.975,294.674Z" transform="translate(-148.567 -292.32)" fill="#fff"/>
                </g>
                <g id="Grupo_946852" data-name="Grupo 946852" transform="translate(0.401 33.35)">
                  <path id="Trazado_719654" data-name="Trazado 719654" d="M149.443,322.591a.4.4,0,0,1-.4-.35c-.036-.268-.07-.537-.1-.806a.4.4,0,0,1,.8-.093c.031.265.066.529.1.792a.4.4,0,0,1-.347.453A.292.292,0,0,1,149.443,322.591Z" transform="translate(-148.938 -320.986)" fill="#fff"/>
                </g>
              </g>
              <g id="Grupo_946857" data-name="Grupo 946857" transform="translate(74.313 1.266)">
                <g id="Grupo_946854" data-name="Grupo 946854" transform="translate(0.008)">
                  <path id="Trazado_719655" data-name="Trazado 719655" d="M202.745,264.019a.4.4,0,0,1-.4-.4v-.809a.4.4,0,0,1,.4-.4h0a.4.4,0,0,1,.4.4v.805A.4.4,0,0,1,202.745,264.019Z" transform="translate(-202.342 -262.405)" fill="#fff"/>
                </g>
                <g id="Grupo_946855" data-name="Grupo 946855" transform="translate(0 2.358)">
                  <path id="Trazado_719656" data-name="Trazado 719656" d="M202.978,294.847a.4.4,0,0,1-.4-.366c-.048-.515-.088-1.035-.12-1.556a.4.4,0,0,1,.376-.428.388.388,0,0,1,.428.376q.049.772.118,1.534a.4.4,0,0,1-.364.438Zm-.189-3.092a.4.4,0,0,1-.4-.4c-.007-.447-.012-.966-.016-1.553a.4.4,0,0,1,.4-.406h0a.4.4,0,0,1,.4.4c0,.584.01,1.1.016,1.549a.4.4,0,0,1-.4.409Zm-.027-3.1a.406.406,0,0,1-.4-.4l-.008-1.553a.4.4,0,0,1,.4-.4h0a.4.4,0,0,1,.4.4l.008,1.551a.4.4,0,0,1-.4.405Zm-.014-3.1a.4.4,0,0,1-.4-.4l0-1.55a.4.4,0,0,1,.4-.4h0a.4.4,0,0,1,.4.4l0,1.55a.4.4,0,0,1-.4.405Zm-.007-3.1a.4.4,0,0,1-.4-.4V280.5a.4.4,0,0,1,.806,0v1.55A.4.4,0,0,1,202.741,282.45Zm0-3.1a.4.4,0,0,1-.4-.4v-1.55a.4.4,0,1,1,.806,0v1.55A.4.4,0,0,1,202.738,279.348Zm0-3.1a.4.4,0,0,1-.4-.4v-1.551a.4.4,0,0,1,.806,0v1.551A.4.4,0,0,1,202.738,276.249Zm0-3.1h0a.4.4,0,0,1-.4-.4v-1.549a.4.4,0,1,1,.806,0v1.551A.4.4,0,0,1,202.738,273.145Zm0-3.1h0a.4.4,0,0,1-.4-.4v-1.55a.4.4,0,0,1,.806,0v1.552A.4.4,0,0,1,202.739,270.045Zm0-3.1h0a.4.4,0,0,1-.4-.4v-1.55a.4.4,0,1,1,.806,0v1.552A.4.4,0,0,1,202.743,266.945Z" transform="translate(-202.335 -264.586)" fill="#fff"/>
                </g>
                <g id="Grupo_946856" data-name="Grupo 946856" transform="translate(0.4 33.348)">
                  <path id="Trazado_719657" data-name="Trazado 719657" d="M203.211,294.86a.4.4,0,0,1-.4-.35c-.036-.266-.07-.535-.1-.8a.4.4,0,0,1,.351-.449.391.391,0,0,1,.449.351q.049.4.1.795a.405.405,0,0,1-.347.453A.435.435,0,0,1,203.211,294.86Z" transform="translate(-202.705 -293.254)" fill="#fff"/>
                </g>
              </g>
              <g id="Grupo_946861" data-name="Grupo 946861" transform="translate(45.25 24.522)">
                <g id="Grupo_946858" data-name="Grupo 946858" transform="translate(0.004)">
                  <path id="Trazado_719658" data-name="Trazado 719658" d="M175.858,285.531a.4.4,0,0,1-.4-.4v-.806a.4.4,0,0,1,.808,0v.806A.4.4,0,0,1,175.858,285.531Z" transform="translate(-175.454 -283.918)" fill="#fff"/>
                </g>
                <g id="Grupo_946859" data-name="Grupo 946859" transform="translate(0 2.318)">
                  <path id="Trazado_719659" data-name="Trazado 719659" d="M176.091,306.525a.4.4,0,0,1-.4-.365c-.048-.5-.086-1.011-.119-1.521a.4.4,0,0,1,.377-.428.382.382,0,0,1,.428.377q.049.752.117,1.5a.4.4,0,0,1-.364.439Zm-.19-3.02a.4.4,0,0,1-.4-.4l-.018-1.512a.4.4,0,0,1,.4-.408h0a.4.4,0,0,1,.4.4l.018,1.512a.406.406,0,0,1-.4.409Zm-.03-3.023a.4.4,0,0,1-.4-.4l-.008-1.513a.4.4,0,0,1,.4-.405h0a.4.4,0,0,1,.4.4l.008,1.513a.4.4,0,0,1-.4.405Zm-.012-3.026a.405.405,0,0,1-.4-.4l0-1.512a.405.405,0,0,1,.4-.405h0a.4.4,0,0,1,.4.4l0,1.513a.4.4,0,0,1-.4.4Zm0-3.024a.405.405,0,0,1-.4-.4v-1.513a.4.4,0,0,1,.808,0v1.513A.4.4,0,0,1,175.854,294.432Zm0-3.026h0a.4.4,0,0,1-.4-.4v-1.511a.4.4,0,0,1,.808,0V291A.4.4,0,0,1,175.854,291.407Zm0-3.025h0a.4.4,0,0,1-.4-.4v-1.512a.4.4,0,0,1,.807,0v1.515A.4.4,0,0,1,175.856,288.382Z" transform="translate(-175.45 -286.062)" fill="#fff"/>
                </g>
                <g id="Grupo_946860" data-name="Grupo 946860" transform="translate(0.396 23.474)">
                  <path id="Trazado_719660" data-name="Trazado 719660" d="M176.322,307.242a.406.406,0,0,1-.4-.35c-.036-.267-.07-.536-.1-.805a.4.4,0,0,1,.8-.1c.031.266.066.531.1.795a.4.4,0,0,1-.347.454A.427.427,0,0,1,176.322,307.242Z" transform="translate(-175.816 -305.633)" fill="#fff"/>
                </g>
              </g>
              <g id="Grupo_946862" data-name="Grupo 946862" transform="translate(15.199 28.338)">
                <path id="Trazado_719661" data-name="Trazado 719661" d="M149.044,287.655c.77-.444,1.393-.149,1.393.658a2.947,2.947,0,0,1-1.393,2.267c-.77.444-1.393.15-1.393-.658A2.944,2.944,0,0,1,149.044,287.655Z" transform="translate(-147.651 -287.448)" opacity="0.4"/>
              </g>
              <path id="Trazado_719662" data-name="Trazado 719662" d="M175.931,281.434c.77-.444,1.395-.149,1.395.658a2.948,2.948,0,0,1-1.395,2.267c-.77.444-1.393.15-1.393-.657A2.951,2.951,0,0,1,175.931,281.434Z" transform="translate(-130.274 -259.614)" opacity="0.4"/>
              <path id="Trazado_719663" data-name="Trazado 719663" d="M202.81,261.441c.77-.444,1.395-.15,1.395.657a2.948,2.948,0,0,1-1.395,2.268c-.77.444-1.393.149-1.393-.658A2.947,2.947,0,0,1,202.81,261.441Z" transform="translate(-128.096 -261.233)" opacity="0.4"/>
              <path id="Trazado_719664" data-name="Trazado 719664" d="M137.524,297.068a.4.4,0,0,0-.4-.7l-1.053.608v-4.162l1.457-.841a.4.4,0,0,0-.4-.7l-1.054.609V287.5a.4.4,0,0,0-.808,0v4.848l-1.459.843a.4.4,0,1,0,.4.7l1.057-.611v4.162l-1.46.843a.4.4,0,0,0,.2.752.413.413,0,0,0,.2-.054l1.058-.612v4.162l-1.462.844a.4.4,0,1,0,.4.7l1.059-.612v4.161l-1.463.845a.4.4,0,1,0,.4.7l1.06-.613v4.162l-1.465.845a.4.4,0,1,0,.4.7l1.062-.613v4.162l-1.466.846a.4.4,0,1,0,.4.7l1.063-.614V322.9l-1.467.848a.4.4,0,1,0,.4.7l1.056-.61c-.024,1.383-.012,2.762.049,4.134l-1.509.87a.4.4,0,0,0,.2.752.4.4,0,0,0,.2-.054l1.156-.667c.088,1.513.216,3.018.405,4.5a.4.4,0,0,0,.4.351.425.425,0,0,0,.051,0,.4.4,0,0,0,.349-.451c-.2-1.6-.343-3.215-.426-4.848l1.387-.8a.4.4,0,1,0-.4-.7l-1.019.588c-.051-1.375-.065-2.758-.03-4.145l1.453-.839a.4.4,0,0,0-.4-.7l-1.048.605v-4.161l1.451-.839a.4.4,0,1,0-.4-.7l-1.049.605v-4.162l1.453-.838a.4.4,0,0,0-.4-.7l-1.05.606v-4.162l1.454-.84a.4.4,0,1,0-.4-.7l-1.051.606V303l1.454-.84a.4.4,0,0,0-.4-.7l-1.052.608v-4.162Z" transform="translate(-133.591 -259.138)" opacity="0.4"/>
            </g>
            <path id="Trazado_719665" data-name="Trazado 719665" d="M237.193,320.029l-77.429,44.7c-2.722,1.571-6.667,1.384-8.617-.622s-1.152-5.065,1.57-6.635l77.406-44.692a7.068,7.068,0,0,1,8.3.939C240.377,315.726,239.914,318.457,237.193,320.029Z" transform="translate(-113.572 -166.046)" fill="#27debf"/>
            <g id="Grupo_946868" data-name="Grupo 946868" transform="translate(22.944 124.236)">
              <g id="Grupo_946864" data-name="Grupo 946864">
                <path id="Trazado_719666" data-name="Trazado 719666" d="M138.1,343.392a.569.569,0,0,1-.284-1.062l87.213-50.354a.569.569,0,1,1,.569.985l-87.213,50.354A.555.555,0,0,1,138.1,343.392Z" transform="translate(-137.532 -291.9)" opacity="0.4"/>
              </g>
              <g id="Grupo_946865" data-name="Grupo 946865" transform="translate(1.783 4.707)">
                <path id="Trazado_719667" data-name="Trazado 719667" d="M139.75,347.755a.569.569,0,0,1-.284-1.062l87.226-50.362a.569.569,0,1,1,.57.985l-87.227,50.362A.554.554,0,0,1,139.75,347.755Z" transform="translate(-139.181 -296.253)" opacity="0.4"/>
              </g>
              <g id="Grupo_946866" data-name="Grupo 946866" transform="translate(3.983 9.222)">
                <path id="Trazado_719668" data-name="Trazado 719668" d="M141.786,351.937a.569.569,0,0,1-.284-1.062l87.237-50.368a.569.569,0,1,1,.57.985L142.07,351.86A.557.557,0,0,1,141.786,351.937Z" transform="translate(-141.216 -300.43)" opacity="0.4"/>
              </g>
              <g id="Grupo_946867" data-name="Grupo 946867" transform="translate(6.581 13.518)">
                <path id="Trazado_719669" data-name="Trazado 719669" d="M144.189,355.919a.569.569,0,0,1-.284-1.062l87.25-50.375a.569.569,0,1,1,.57.985l-87.251,50.375A.565.565,0,0,1,144.189,355.919Z" transform="translate(-143.62 -304.404)" opacity="0.4"/>
              </g>
            </g>
          </g>
        </g>
      </g>
      <g id="Grupo_946918" data-name="Grupo 946918" transform="translate(129.861 85.864)">
        <path id="Trazado_719671" data-name="Trazado 719671" d="M214.753,278.147l71.765-41.428c2.722-1.572,7.057-2.5,9.5-1.52s1.973,3.536-.749,5.107l-72.6,41.91c-2.722,1.571-6.593,1.736-8.762.565S212.031,279.718,214.753,278.147Z" transform="translate(-212.469 -234.795)" fill="#27debf"/>
        <path id="Trazado_719672" data-name="Trazado 719672" d="M222.323,289.1a.569.569,0,0,1-.284-1.062l82.72-47.749a.569.569,0,0,1,.569.985l-82.72,47.749A.557.557,0,0,1,222.323,289.1Z" transform="translate(-211.717 -234.356)" opacity="0.4"/>
        <path id="Trazado_719673" data-name="Trazado 719673" d="M225.492,292.525a.568.568,0,0,1-.284-1.06l82.848-47.822a.569.569,0,0,1,.57.985l-82.848,47.822A.57.57,0,0,1,225.492,292.525Z" transform="translate(-211.46 -234.084)" opacity="0.4"/>
        <g id="Grupo_946872" data-name="Grupo 946872" transform="translate(16.768 61.388)">
          <path id="Trazado_719674" data-name="Trazado 719674" d="M238.962,330.928h0a.4.4,0,0,1-.4-.4l.016-4.389c.013-3.3.013-3.3-.082-5.539l-.017-.37a53.579,53.579,0,0,0-2.947-14.958,41.734,41.734,0,0,0-7.457-13.028.4.4,0,1,1,.627-.507A42.456,42.456,0,0,1,236.289,305a54.354,54.354,0,0,1,2.992,15.18l.016.376c.1,2.253.1,2.253.082,5.577l-.014,4.388A.4.4,0,0,1,238.962,330.928Z" transform="translate(-227.981 -291.583)" opacity="0.4"/>
        </g>
        <path id="Trazado_719675" data-name="Trazado 719675" d="M237.477,297.708c-.368-.646-.765-1.281-1.188-1.907a1.281,1.281,0,0,1,.41-1.873l31.608-18.246a1.506,1.506,0,0,1,2.014.476c.38.623.74,1.277,1.093,1.962a1.527,1.527,0,0,1-.6,1.986L239.38,298.252A1.38,1.38,0,0,1,237.477,297.708Z" transform="translate(-210.559 -231.499)" fill="#27debf"/>
        <path id="Trazado_719676" data-name="Trazado 719676" d="M240.222,306.189q.355,1.09.651,2.156a1.03,1.03,0,0,0,1.59.666l74.994-43.288a1.957,1.957,0,0,0,.871-2.087q-.31-1.127-.64-2.164a1.113,1.113,0,0,0-1.684-.637L241,304.131A1.814,1.814,0,0,0,240.222,306.189Z" transform="translate(-210.227 -232.7)" fill="#27debf"/>
        <path id="Trazado_719677" data-name="Trazado 719677" d="M240.222,306.189q.355,1.09.651,2.156a1.03,1.03,0,0,0,1.59.666l74.994-43.288a1.957,1.957,0,0,0,.871-2.087q-.31-1.127-.64-2.164a1.113,1.113,0,0,0-1.684-.637L241,304.131A1.814,1.814,0,0,0,240.222,306.189Z" transform="translate(-210.227 -232.7)" fill="#fff" opacity="0.7"/>
        <path id="Trazado_719678" data-name="Trazado 719678" d="M242.237,314.379c.1.8.178,1.576.24,2.33a.814.814,0,0,0,1.322.708l50.8-29.325a2.471,2.471,0,0,0,1.136-2.132q-.1-1.167-.24-2.321a.886.886,0,0,0-1.425-.7l-50.789,29.317A2.314,2.314,0,0,0,242.237,314.379Z" transform="translate(-210.059 -230.908)" fill="#27debf"/>
        <path id="Trazado_719679" data-name="Trazado 719679" d="M242.237,314.379c.1.8.178,1.576.24,2.33a.814.814,0,0,0,1.322.708l50.8-29.325a2.471,2.471,0,0,0,1.136-2.132q-.1-1.167-.24-2.321a.886.886,0,0,0-1.425-.7l-50.789,29.317A2.314,2.314,0,0,0,242.237,314.379Z" transform="translate(-210.059 -230.908)" opacity="0.15"/>
        <path id="Trazado_719680" data-name="Trazado 719680" d="M242.618,322.706v2.285c0,.785.552,1.1,1.232.711l21.75-12.556a2.723,2.723,0,0,0,1.231-2.134v-2.284c0-.786-.551-1.1-1.231-.712l-21.75,12.556A2.723,2.723,0,0,0,242.618,322.706Z" transform="translate(-210.027 -228.877)" fill="#27debf"/>
        <path id="Trazado_719681" data-name="Trazado 719681" d="M242.618,322.706v2.285c0,.785.552,1.1,1.232.711l21.75-12.556a2.723,2.723,0,0,0,1.231-2.134v-2.284c0-.786-.551-1.1-1.231-.712l-21.75,12.556A2.723,2.723,0,0,0,242.618,322.706Z" transform="translate(-210.027 -228.877)" fill="#fff" opacity="0.5"/>
        <path id="Trazado_719682" data-name="Trazado 719682" d="M320.161,288.184a.4.4,0,0,0-.4.4v1.957l-5.8,3.346v-1.464a.4.4,0,1,0-.806,0v1.93l-5.8,3.346v-1.438a.4.4,0,0,0-.806,0v1.9l-5.8,3.346V300.1a.4.4,0,0,0-.807,0v1.877l-5.8,3.347V303.94a.4.4,0,1,0-.806,0v1.851l-5.8,3.346v-1.359a.4.4,0,1,0-.806,0V309.6l-5.8,3.346v-1.333a.4.4,0,1,0-.807,0v1.8l-5.8,3.346v-1.308a.4.4,0,1,0-.806,0v1.774l-5.8,3.346V319.29a.4.4,0,1,0-.806,0v1.747l-5.8,3.346v-1.255a.4.4,0,0,0-.808,0v1.721l-5.8,3.346v-1.229a.4.4,0,0,0-.806,0v1.694l-5.8,3.347v-1.2a.4.4,0,0,0-.806,0v1.668l-5.031,2.9a.4.4,0,0,0,.2.752.4.4,0,0,0,.2-.054l4.629-2.672v1.638a.4.4,0,0,0,.806,0v-2.1l5.8-3.347V331.2a.4.4,0,1,0,.806,0v-2.078l5.8-3.346v1.586a.4.4,0,0,0,.808,0v-2.052l5.8-3.346v1.56a.4.4,0,1,0,.806,0V321.5l5.8-3.346v1.533a.4.4,0,1,0,.806,0v-2l5.8-3.346v1.507a.4.4,0,1,0,.807,0v-1.973l5.8-3.346v1.482a.4.4,0,1,0,.806,0v-1.948l5.8-3.346v1.455a.4.4,0,1,0,.806,0v-1.92l5.8-3.347v1.429a.4.4,0,0,0,.807,0v-1.9l5.8-3.346v1.4a.4.4,0,1,0,.806,0v-1.869l5.8-3.346v1.377a.4.4,0,0,0,.806,0v-1.843l5.8-3.346v1.35a.4.4,0,1,0,.808,0v-4.236A.4.4,0,0,0,320.161,288.184Z" transform="translate(-210.086 -230.47)" opacity="0.4"/>
        <g id="Grupo_946876" data-name="Grupo 946876" transform="translate(27.768 110.676)">
          <g id="Grupo_946873" data-name="Grupo 946873">
            <path id="Trazado_719683" data-name="Trazado 719683" d="M256.9,337.375a14.238,14.238,0,0,0-4.222,1.707c-8.023,4.711-14.521,16.5-14.521,26.333,0,.262,0,.512.012.762l14.5-6.634Z" transform="translate(-238.156 -337.161)" fill="#27debf"/>
            <path id="Trazado_719684" data-name="Trazado 719684" d="M255.812,337.391l-4.233,22.168,14.373-8.342a23.952,23.952,0,0,0,.159-2.685C266.111,340.441,261.775,336.139,255.812,337.391Z" transform="translate(-237.069 -337.177)" fill="#27debf"/>
            <path id="Trazado_719685" data-name="Trazado 719685" d="M264.131,357.642a30.929,30.929,0,0,0,1.822-7.477l-14.373,8.342Z" transform="translate(-237.069 -336.125)" fill="#27debf"/>
            <path id="Trazado_719686" data-name="Trazado 719686" d="M238.167,364.581c.33,9.3,6.7,13.179,14.509,8.672,5.361-3.095,10.037-9.377,12.541-16.171l-12.552.865Z" transform="translate(-238.155 -335.564)" fill="#27debf"/>
          </g>
          <g id="Grupo_946874" data-name="Grupo 946874" transform="translate(0.012)">
            <path id="Trazado_719687" data-name="Trazado 719687" d="M255.812,337.391l-4.233,22.168,14.373-8.342a23.952,23.952,0,0,0,.159-2.685C266.111,340.441,261.775,336.139,255.812,337.391Z" transform="translate(-237.08 -337.177)" fill="#fff" opacity="0.7"/>
            <path id="Trazado_719688" data-name="Trazado 719688" d="M264.131,357.642a30.929,30.929,0,0,0,1.822-7.477l-14.373,8.342Z" transform="translate(-237.08 -336.125)" opacity="0.15"/>
            <path id="Trazado_719689" data-name="Trazado 719689" d="M238.167,364.581c.33,9.3,6.7,13.179,14.509,8.672,5.361-3.095,10.037-9.377,12.541-16.171l-12.552.865Z" transform="translate(-238.167 -335.564)" fill="#fff" opacity="0.5"/>
          </g>
          <g id="Grupo_946875" data-name="Grupo 946875">
            <path id="Trazado_719690" data-name="Trazado 719690" d="M256.9,337.375a14.238,14.238,0,0,0-4.222,1.707c-8.023,4.711-14.521,16.5-14.521,26.333,0,.262,0,.512.012.762l14.5-6.634Z" transform="translate(-238.156 -337.161)" fill="none" stroke="#fff" stroke-linecap="round" stroke-linejoin="round" stroke-width="1.053"/>
            <path id="Trazado_719691" data-name="Trazado 719691" d="M255.812,337.391l-4.233,22.168,14.373-8.342a23.952,23.952,0,0,0,.159-2.685C266.111,340.441,261.775,336.139,255.812,337.391Z" transform="translate(-237.069 -337.177)" fill="none" stroke="#fff" stroke-linecap="round" stroke-linejoin="round" stroke-width="1.053"/>
            <path id="Trazado_719692" data-name="Trazado 719692" d="M264.131,357.642a30.929,30.929,0,0,0,1.822-7.477l-14.373,8.342Z" transform="translate(-237.069 -336.125)" fill="none" stroke="#fff" stroke-linecap="round" stroke-linejoin="round" stroke-width="1.053"/>
            <path id="Trazado_719693" data-name="Trazado 719693" d="M238.167,364.581c.33,9.3,6.7,13.179,14.509,8.672,5.361-3.095,10.037-9.377,12.541-16.171l-12.552.865Z" transform="translate(-238.155 -335.564)" fill="none" stroke="#fff" stroke-linecap="round" stroke-linejoin="round" stroke-width="1.053"/>
          </g>
        </g>
        <g id="Grupo_946877" data-name="Grupo 946877" transform="translate(81.027 79.814)">
          <path id="Trazado_719694" data-name="Trazado 719694" d="M295.378,315.678c-4.722,5.69-7.954,13.634-7.954,20.621a14.808,14.808,0,0,0,1.832,7.692L301.944,327.9Z" transform="translate(-287.424 -308.056)" fill="#27debf"/>
          <path id="Trazado_719695" data-name="Trazado 719695" d="M307.9,308.637a12.114,12.114,0,0,0-6.555,1.866,24.768,24.768,0,0,0-6.566,5.747l6.566,12.223Z" transform="translate(-286.828 -308.628)" fill="#27debf"/>
          <path id="Trazado_719696" data-name="Trazado 719696" d="M314.035,313.279a7.585,7.585,0,0,0-6.623-4.643l-6.555,19.836Z" transform="translate(-286.336 -308.627)" fill="#27debf"/>
          <path id="Trazado_719697" data-name="Trazado 719697" d="M314.986,312.931l-13.179,15.193-12.688,16.091c2.492,4.052,7.237,5.03,12.688,1.878,8.023-4.632,14.533-16.432,14.533-26.367A15.688,15.688,0,0,0,314.986,312.931Z" transform="translate(-287.287 -308.279)" fill="#27debf"/>
        </g>
        <g id="Grupo_946878" data-name="Grupo 946878" transform="translate(82.86 79.814)">
          <path id="Trazado_719698" data-name="Trazado 719698" d="M307.9,308.637a12.114,12.114,0,0,0-6.555,1.866,24.768,24.768,0,0,0-6.566,5.747l6.566,12.223Z" transform="translate(-288.66 -308.628)" fill="#fff" opacity="0.7"/>
          <path id="Trazado_719699" data-name="Trazado 719699" d="M314.035,313.279a7.585,7.585,0,0,0-6.623-4.643l-6.555,19.836Z" transform="translate(-288.168 -308.627)" opacity="0.15"/>
          <path id="Trazado_719700" data-name="Trazado 719700" d="M314.986,312.931l-13.179,15.193-12.688,16.091c2.492,4.052,7.237,5.03,12.688,1.878,8.023-4.632,14.533-16.432,14.533-26.367A15.688,15.688,0,0,0,314.986,312.931Z" transform="translate(-289.119 -308.279)" fill="#fff" opacity="0.5"/>
        </g>
        <g id="Grupo_946879" data-name="Grupo 946879" transform="translate(81.027 79.814)">
          <path id="Trazado_719701" data-name="Trazado 719701" d="M295.378,315.678c-4.722,5.69-7.954,13.634-7.954,20.621a14.808,14.808,0,0,0,1.832,7.692L301.944,327.9Z" transform="translate(-287.424 -308.056)" fill="none" stroke="#fff" stroke-linecap="round" stroke-linejoin="round" stroke-width="1.053"/>
          <path id="Trazado_719702" data-name="Trazado 719702" d="M307.9,308.637a12.114,12.114,0,0,0-6.555,1.866,24.768,24.768,0,0,0-6.566,5.747l6.566,12.223Z" transform="translate(-286.828 -308.628)" fill="none" stroke="#fff" stroke-linecap="round" stroke-linejoin="round" stroke-width="1.053"/>
          <path id="Trazado_719703" data-name="Trazado 719703" d="M314.035,313.279a7.585,7.585,0,0,0-6.623-4.643l-6.555,19.836Z" transform="translate(-286.336 -308.627)" fill="none" stroke="#fff" stroke-linecap="round" stroke-linejoin="round" stroke-width="1.053"/>
          <path id="Trazado_719704" data-name="Trazado 719704" d="M314.986,312.931l-13.179,15.193-12.688,16.091c2.492,4.052,7.237,5.03,12.688,1.878,8.023-4.632,14.533-16.432,14.533-26.367A15.688,15.688,0,0,0,314.986,312.931Z" transform="translate(-287.287 -308.279)" fill="none" stroke="#fff" stroke-linecap="round" stroke-linejoin="round" stroke-width="1.053"/>
        </g>
        <g id="Grupo_946884" data-name="Grupo 946884" transform="translate(61.652 99.046)">
          <g id="Grupo_946880" data-name="Grupo 946880">
            <path id="Trazado_719705" data-name="Trazado 719705" d="M270.733,327.96l2.378-1.373c.681-.392,1.232-.074,1.232.711v2.285a2.721,2.721,0,0,1-1.231,2.133l-2.379,1.374c-.68.392-1.231.074-1.231-.712v-2.284A2.725,2.725,0,0,1,270.733,327.96Z" transform="translate(-269.501 -326.419)" fill="#27debf"/>
          </g>
          <g id="Grupo_946881" data-name="Grupo 946881" transform="translate(0 10.251)">
            <path id="Trazado_719706" data-name="Trazado 719706" d="M270.733,337.444l2.378-1.374c.681-.392,1.232-.073,1.232.712v2.284a2.723,2.723,0,0,1-1.231,2.134l-2.379,1.373c-.68.392-1.231.073-1.231-.711v-2.285A2.722,2.722,0,0,1,270.733,337.444Z" transform="translate(-269.501 -335.902)" fill="#27debf"/>
            <path id="Trazado_719707" data-name="Trazado 719707" d="M270.733,337.444l2.378-1.374c.681-.392,1.232-.073,1.232.712v2.284a2.723,2.723,0,0,1-1.231,2.134l-2.379,1.373c-.68.392-1.231.073-1.231-.711v-2.285A2.722,2.722,0,0,1,270.733,337.444Z" transform="translate(-269.501 -335.902)" fill="#fff" opacity="0.7"/>
          </g>
          <g id="Grupo_946882" data-name="Grupo 946882" transform="translate(0 20.503)">
            <path id="Trazado_719708" data-name="Trazado 719708" d="M270.733,346.927l2.378-1.373c.681-.393,1.232-.075,1.232.711v2.284a2.723,2.723,0,0,1-1.231,2.134l-2.379,1.373c-.68.392-1.231.075-1.231-.711v-2.285A2.723,2.723,0,0,1,270.733,346.927Z" transform="translate(-269.501 -345.385)" fill="#27debf"/>
            <path id="Trazado_719709" data-name="Trazado 719709" d="M270.733,346.927l2.378-1.373c.681-.393,1.232-.075,1.232.711v2.284a2.723,2.723,0,0,1-1.231,2.134l-2.379,1.373c-.68.392-1.231.075-1.231-.711v-2.285A2.723,2.723,0,0,1,270.733,346.927Z" transform="translate(-269.501 -345.385)" opacity="0.15"/>
          </g>
          <g id="Grupo_946883" data-name="Grupo 946883" transform="translate(0 30.755)">
            <path id="Trazado_719710" data-name="Trazado 719710" d="M270.733,356.41l2.378-1.373c.681-.392,1.232-.075,1.232.711v2.285a2.722,2.722,0,0,1-1.231,2.133l-2.379,1.373c-.68.393-1.231.075-1.231-.711v-2.284A2.724,2.724,0,0,1,270.733,356.41Z" transform="translate(-269.501 -354.868)" fill="#27debf"/>
            <path id="Trazado_719711" data-name="Trazado 719711" d="M270.733,356.41l2.378-1.373c.681-.392,1.232-.075,1.232.711v2.285a2.722,2.722,0,0,1-1.231,2.133l-2.379,1.373c-.68.393-1.231.075-1.231-.711v-2.284A2.724,2.724,0,0,1,270.733,356.41Z" transform="translate(-269.501 -354.868)" fill="#fff" opacity="0.5"/>
          </g>
        </g>
        <g id="Grupo_946885" data-name="Grupo 946885" transform="translate(68.132 94.56)">
          <path id="Trazado_719712" data-name="Trazado 719712" d="M276.3,328.06a.807.807,0,0,1-.4-1.5l7.24-4.178a.806.806,0,1,1,.806,1.4l-7.24,4.178A.8.8,0,0,1,276.3,328.06Z" transform="translate(-275.495 -322.269)" opacity="0.4"/>
        </g>
        <g id="Grupo_946886" data-name="Grupo 946886" transform="translate(68.021 104.915)">
          <path id="Trazado_719713" data-name="Trazado 719713" d="M276.2,337.639a.807.807,0,0,1-.4-1.5l7.24-4.179a.806.806,0,1,1,.806,1.4L276.6,337.53A.8.8,0,0,1,276.2,337.639Z" transform="translate(-275.392 -331.847)" opacity="0.4"/>
        </g>
        <g id="Grupo_946887" data-name="Grupo 946887" transform="translate(67.91 115.269)">
          <path id="Trazado_719714" data-name="Trazado 719714" d="M276.1,347.217a.807.807,0,0,1-.405-1.5l7.24-4.179a.806.806,0,0,1,.806,1.4l-7.238,4.178A.8.8,0,0,1,276.1,347.217Z" transform="translate(-275.289 -341.426)" opacity="0.4"/>
        </g>
        <g id="Grupo_946888" data-name="Grupo 946888" transform="translate(67.797 125.624)">
          <path id="Trazado_719715" data-name="Trazado 719715" d="M275.994,356.794a.807.807,0,0,1-.405-1.506l7.24-4.177a.807.807,0,1,1,.808,1.4l-7.24,4.178A.824.824,0,0,1,275.994,356.794Z" transform="translate(-275.185 -351.004)" opacity="0.4"/>
        </g>
        <g id="Grupo_946892" data-name="Grupo 946892" transform="translate(27.864 146.663)">
          <g id="Grupo_946889" data-name="Grupo 946889">
            <path id="Trazado_719716" data-name="Trazado 719716" d="M239.053,391.645a.807.807,0,0,1-.4-1.506l33.9-19.564a.807.807,0,1,1,.807,1.4l-33.9,19.565A.814.814,0,0,1,239.053,391.645Z" transform="translate(-238.245 -370.467)" opacity="0.4"/>
          </g>
          <g id="Grupo_946890" data-name="Grupo 946890" transform="translate(1.092 5.018)">
            <path id="Trazado_719717" data-name="Trazado 719717" d="M240.064,396.287a.807.807,0,0,1-.405-1.506l33.9-19.564a.807.807,0,0,1,.806,1.4l-33.9,19.565A.828.828,0,0,1,240.064,396.287Z" transform="translate(-239.255 -375.11)" opacity="0.4"/>
          </g>
          <g id="Grupo_946891" data-name="Grupo 946891" transform="translate(2.654 9.872)">
            <path id="Trazado_719718" data-name="Trazado 719718" d="M241.508,400.778a.807.807,0,0,1-.4-1.506L275,379.708a.807.807,0,1,1,.808,1.4l-33.9,19.565A.814.814,0,0,1,241.508,400.778Z" transform="translate(-240.7 -379.6)" opacity="0.4"/>
          </g>
        </g>
        <g id="Grupo_946896" data-name="Grupo 946896" transform="translate(81.073 115.956)">
          <g id="Grupo_946893" data-name="Grupo 946893">
            <path id="Trazado_719719" data-name="Trazado 719719" d="M288.275,363.239a.807.807,0,0,1-.4-1.506l33.9-19.565a.807.807,0,0,1,.806,1.4l-33.9,19.564A.8.8,0,0,1,288.275,363.239Z" transform="translate(-287.467 -342.061)" opacity="0.4"/>
          </g>
          <g id="Grupo_946894" data-name="Grupo 946894" transform="translate(1.091 5.017)">
            <path id="Trazado_719720" data-name="Trazado 719720" d="M289.284,367.88a.807.807,0,0,1-.4-1.506l33.9-19.564a.807.807,0,0,1,.806,1.4l-33.9,19.565A.821.821,0,0,1,289.284,367.88Z" transform="translate(-288.476 -346.702)" opacity="0.4"/>
          </g>
          <g id="Grupo_946895" data-name="Grupo 946895" transform="translate(2.654 9.872)">
            <path id="Trazado_719721" data-name="Trazado 719721" d="M290.73,372.371a.807.807,0,0,1-.4-1.506l33.9-19.564a.806.806,0,1,1,.806,1.4l-33.9,19.565A.814.814,0,0,1,290.73,372.371Z" transform="translate(-289.922 -351.193)" opacity="0.4"/>
          </g>
        </g>
        <path id="Trazado_719722" data-name="Trazado 719722" d="M250.274,407.686l77.284-44.6a5.944,5.944,0,0,1,7.742,1.388c1.659,2.264.98,5.229-1.742,6.8l-77.31,44.616c-2.722,1.571-6.466,1.159-8.118-1.11S247.553,409.257,250.274,407.686Z" transform="translate(-209.644 -224.471)" fill="#27debf"/>
        <g id="Grupo_946900" data-name="Grupo 946900" transform="translate(48.333 180.907)">
          <g id="Grupo_946897" data-name="Grupo 946897" transform="translate(4.241 2.99)">
            <path id="Trazado_719723" data-name="Trazado 719723" d="M261.912,426.085a.807.807,0,0,1-.405-1.506l33.9-19.561a.807.807,0,1,1,.806,1.4l-33.9,19.562A.827.827,0,0,1,261.912,426.085Z" transform="translate(-261.103 -404.911)" opacity="0.4"/>
          </g>
          <g id="Grupo_946898" data-name="Grupo 946898">
            <path id="Trazado_719724" data-name="Trazado 719724" d="M257.988,423.318a.807.807,0,0,1-.4-1.506l33.9-19.561a.807.807,0,1,1,.806,1.4l-33.9,19.561A.815.815,0,0,1,257.988,423.318Z" transform="translate(-257.18 -402.145)" opacity="0.4"/>
          </g>
          <g id="Grupo_946899" data-name="Grupo 946899" transform="translate(8.698 5.628)">
            <path id="Trazado_719725" data-name="Trazado 719725" d="M266.035,428.525a.807.807,0,0,1-.4-1.506l33.9-19.562a.807.807,0,1,1,.808,1.4l-33.9,19.562A.811.811,0,0,1,266.035,428.525Z" transform="translate(-265.227 -407.351)" opacity="0.4"/>
          </g>
        </g>
        <g id="Grupo_946904" data-name="Grupo 946904" transform="translate(96.73 152.978)">
          <g id="Grupo_946901" data-name="Grupo 946901" transform="translate(4.241 2.99)">
            <path id="Trazado_719726" data-name="Trazado 719726" d="M306.681,400.249a.807.807,0,0,1-.4-1.506l33.9-19.561a.807.807,0,1,1,.808,1.4l-33.9,19.562A.824.824,0,0,1,306.681,400.249Z" transform="translate(-305.873 -379.075)" opacity="0.4"/>
          </g>
          <g id="Grupo_946902" data-name="Grupo 946902">
            <path id="Trazado_719727" data-name="Trazado 719727" d="M302.758,397.482a.807.807,0,0,1-.4-1.506l33.9-19.561a.807.807,0,0,1,.807,1.4l-33.9,19.561A.814.814,0,0,1,302.758,397.482Z" transform="translate(-301.95 -376.309)" opacity="0.4"/>
          </g>
          <g id="Grupo_946903" data-name="Grupo 946903" transform="translate(8.698 5.628)">
            <path id="Trazado_719728" data-name="Trazado 719728" d="M310.8,402.689a.807.807,0,0,1-.405-1.506l33.9-19.562a.807.807,0,1,1,.806,1.4l-33.9,19.561A.817.817,0,0,1,310.8,402.689Z" transform="translate(-309.996 -381.515)" opacity="0.4"/>
          </g>
        </g>
        <g id="Grupo_946908" data-name="Grupo 946908" transform="translate(72.504 187.284)">
          <g id="Grupo_946905" data-name="Grupo 946905" transform="translate(0 13.888)">
            <path id="Trazado_719729" data-name="Trazado 719729" d="M313.781,423.888c-7.359-4.251-19.83-3.942-27.853.688s-8.562,11.83-1.2,16.079,19.83,3.944,27.854-.686S321.141,428.138,313.781,423.888Zm-5.009,13.881c-5.73,3.307-14.638,3.526-19.895.491s-4.873-8.179.858-11.486,14.638-3.527,19.895-.491S314.5,434.461,308.772,437.769Z" transform="translate(-279.539 -420.891)" fill="#27debf"/>
            <path id="Trazado_719730" data-name="Trazado 719730" d="M292.7,428.485c3.439-1.984,8.783-2.116,11.938-.294s2.923,4.907-.516,6.891-8.783,2.116-11.937.294S289.259,430.47,292.7,428.485Z" transform="translate(-278.695 -420.403)" fill="#27debf"/>
          </g>
          <path id="Trazado_719731" data-name="Trazado 719731" d="M292.7,428.485c3.439-1.984,8.783-2.116,11.938-.294s2.923,4.907-.516,6.891-8.783,2.116-11.937.294S289.259,430.47,292.7,428.485Z" transform="translate(-278.695 -406.515)" opacity="0.5"/>
          <path id="Trazado_719732" data-name="Trazado 719732" d="M313.781,423.888c-7.359-4.251-19.83-3.942-27.853.688s-8.562,11.83-1.2,16.079,19.83,3.944,27.854-.686S321.141,428.138,313.781,423.888Zm-5.009,13.881c-5.73,3.307-14.638,3.526-19.895.491s-4.873-8.179.858-11.486,14.638-3.527,19.895-.491S314.5,434.461,308.772,437.769Z" transform="translate(-279.539 -407.003)" opacity="0.15"/>
          <g id="Grupo_946906" data-name="Grupo 946906" transform="translate(13.814 13.897)">
            <path id="Trazado_719733" data-name="Trazado 719733" d="M292.318,421.754,294,424.76a23.925,23.925,0,0,1,9.863-.185l2.269-3.077A33.5,33.5,0,0,0,292.318,421.754Z" transform="translate(-292.318 -420.899)" fill="#27debf"/>
            <path id="Trazado_719734" data-name="Trazado 719734" d="M292.318,421.754,294,424.76a23.925,23.925,0,0,1,9.863-.185l2.269-3.077A33.5,33.5,0,0,0,292.318,421.754Z" transform="translate(-292.318 -420.899)" fill="#fff" opacity="0.7"/>
          </g>
          <g id="Grupo_946907" data-name="Grupo 946907" transform="translate(19.916)">
            <path id="Trazado_719735" data-name="Trazado 719735" d="M298.77,421.308l-.049,0a.8.8,0,0,1-.757-.852l.218-3.7,14.9-8.6a.807.807,0,1,1,.808,1.4l-14.152,8.166-.169,2.835A.8.8,0,0,1,298.77,421.308Z" transform="translate(-297.963 -408.043)" opacity="0.4"/>
          </g>
        </g>
        <g id="Grupo_946913" data-name="Grupo 946913" transform="translate(116.075 162.069)">
          <g id="Grupo_946912" data-name="Grupo 946912">
            <g id="Grupo_946909" data-name="Grupo 946909" transform="translate(0 13.968)">
              <path id="Trazado_719736" data-name="Trazado 719736" d="M354.087,400.638c-7.361-4.251-19.831-3.944-27.854.686s-8.561,11.83-1.2,16.08,19.83,3.942,27.853-.688S361.447,404.888,354.087,400.638Zm-5.009,13.88c-5.73,3.307-14.639,3.527-19.895.491s-4.873-8.178.857-11.485,14.639-3.527,19.9-.492S354.809,411.211,349.078,414.518Z" transform="translate(-319.845 -397.64)" fill="#27debf"/>
              <path id="Trazado_719737" data-name="Trazado 719737" d="M333,405.235c3.438-1.985,8.783-2.117,11.937-.3s2.924,4.907-.515,6.891-8.783,2.117-11.938.3S329.565,407.219,333,405.235Z" transform="translate(-319.001 -397.153)" fill="#27debf"/>
            </g>
            <path id="Trazado_719738" data-name="Trazado 719738" d="M333,405.235c3.438-1.985,8.783-2.117,11.937-.3s2.924,4.907-.515,6.891-8.783,2.117-11.938.3S329.565,407.219,333,405.235Z" transform="translate(-319.001 -383.185)" opacity="0.5"/>
            <path id="Trazado_719739" data-name="Trazado 719739" d="M354.087,400.638c-7.361-4.251-19.831-3.944-27.854.686s-8.561,11.83-1.2,16.08,19.83,3.942,27.853-.688S361.447,404.888,354.087,400.638Zm-5.009,13.88c-5.73,3.307-14.639,3.527-19.895.491s-4.873-8.178.857-11.485,14.639-3.527,19.9-.492S354.809,411.211,349.078,414.518Z" transform="translate(-319.845 -383.672)" opacity="0.15"/>
            <g id="Grupo_946910" data-name="Grupo 946910" transform="translate(10.413 13.976)">
              <path id="Trazado_719740" data-name="Trazado 719740" d="M353.307,400.637c-6.219-3.592-16.078-3.917-23.829-1.142l2.659,2.721c5.536-1.982,12.577-1.749,17.018.815a9.337,9.337,0,0,1,2.018,1.549l4.961-1.773A13.037,13.037,0,0,0,353.307,400.637Z" transform="translate(-329.478 -397.647)" fill="#27debf"/>
              <path id="Trazado_719741" data-name="Trazado 719741" d="M353.307,400.637c-6.219-3.592-16.078-3.917-23.829-1.142l2.659,2.721c5.536-1.982,12.577-1.749,17.018.815a9.337,9.337,0,0,1,2.018,1.549l4.961-1.773A13.037,13.037,0,0,0,353.307,400.637Z" transform="translate(-329.478 -397.647)" fill="#fff" opacity="0.7"/>
            </g>
            <g id="Grupo_946911" data-name="Grupo 946911" transform="translate(20.039)">
              <path id="Trazado_719742" data-name="Trazado 719742" d="M339.189,397.983l-.049,0a.806.806,0,0,1-.757-.853l.219-3.7,14.9-8.6a.807.807,0,1,1,.808,1.4l-14.152,8.165-.17,2.837A.806.806,0,0,1,339.189,397.983Z" transform="translate(-338.383 -384.719)" opacity="0.4"/>
            </g>
          </g>
        </g>
        <g id="Grupo_946917" data-name="Grupo 946917" transform="translate(97.01 181.68)">
          <g id="Grupo_946914" data-name="Grupo 946914">
            <path id="Trazado_719743" data-name="Trazado 719743" d="M303.017,451.976a.807.807,0,0,1-.4-1.506l82.323-47.5a.807.807,0,1,1,.808,1.4l-82.325,47.505A.822.822,0,0,1,303.017,451.976Z" transform="translate(-302.209 -402.859)" opacity="0.4"/>
          </g>
          <g id="Grupo_946915" data-name="Grupo 946915" transform="translate(4.452 2.559)">
            <path id="Trazado_719744" data-name="Trazado 719744" d="M307.135,454.344a.807.807,0,0,1-.4-1.506l82.325-47.505a.807.807,0,1,1,.806,1.4l-82.323,47.505A.817.817,0,0,1,307.135,454.344Z" transform="translate(-306.327 -405.227)" opacity="0.4"/>
          </g>
          <g id="Grupo_946916" data-name="Grupo 946916" transform="translate(8.895 5.124)">
            <path id="Trazado_719745" data-name="Trazado 719745" d="M311.245,456.717a.807.807,0,0,1-.4-1.506l82.325-47.505a.807.807,0,1,1,.806,1.4l-82.323,47.505A.818.818,0,0,1,311.245,456.717Z" transform="translate(-310.437 -407.599)" opacity="0.4"/>
          </g>
        </g>
      </g>
    </g>
  </g>
</svg>
