<svg xmlns="http://www.w3.org/2000/svg" width="399.998" height="378" viewBox="0 0 399.998 378">
  <g id="Grupo_946763" data-name="Grupo 946763" transform="translate(-181.07 -37.447)">
    <ellipse id="Elipse_5493" data-name="Elipse 5493" cx="159.306" cy="158.221" rx="159.306" ry="158.221" transform="translate(229.082 37.447)" fill="#ebb044"/>
    <g id="Grupo_946776" data-name="Grupo 946776" transform="translate(282.953 136.147)">
      <g id="Grupo_946763-2" data-name="Grupo 946763" transform="translate(0)">
        <path id="Trazado_719542" data-name="Trazado 719542" d="M761.078,557.777H592.121V314.671h187.52V541.943C779.641,550.688,771.33,557.777,761.078,557.777Z" transform="translate(-592.077 -314.671)" fill="#fff"/>
        <rect id="Rectángulo_337743" data-name="Rectángulo 337743" width="187.207" height="11.287" transform="translate(0 0)" fill="#d34e4e"/>
      </g>
      <g id="Grupo_946765" data-name="Grupo 946765" transform="translate(44.416 130.844)">
        <g id="Grupo_946764" data-name="Grupo 946764">
          <path id="Trazado_719543" data-name="Trazado 719543" d="M819.1,704.169c2.525,0,2.525-2.854,0-2.854H725.134c-2.525,0-2.525,2.854,0,2.854H819.1Z" transform="translate(-723.24 -701.315)" fill="#fff"/>
        </g>
      </g>
      <g id="Grupo_946766" data-name="Grupo 946766" transform="translate(40.162 19.115)">
        <path id="Trazado_719544" data-name="Trazado 719544" d="M782.892,371.155a49.706,49.706,0,0,0-37.668,17.2L782.892,421l37.668-32.639A49.706,49.706,0,0,0,782.892,371.155Z" transform="translate(-733.531 -371.155)" fill="#ccd2d9"/>
        <path id="Trazado_719545" data-name="Trazado 719545" d="M916.477,496.858l-49.334,7.093v49.843a49.815,49.815,0,0,0,49.843-49.843A50.393,50.393,0,0,0,916.477,496.858Z" transform="translate(-814.191 -454.319)" fill="#3b455a"/>
        <path id="Trazado_719546" data-name="Trazado 719546" d="M722.417,422.48A49.825,49.825,0,0,0,734.154,496.9L760.526,454.6Z" transform="translate(-710.67 -405.111)" fill="#d34e4e"/>
        <path id="Trazado_719547" data-name="Trazado 719547" d="M805.116,567.455a49.609,49.609,0,0,1-26.945-7.915l26.95-41.926Z" transform="translate(-755.328 -468.05)" fill="#ebb044"/>
        <path id="Trazado_719548" data-name="Trazado 719548" d="M923.966,438.8A49.615,49.615,0,0,0,912.3,413.256L874.632,445.9Z" transform="translate(-819.146 -399.009)" fill="#474ebb"/>
      </g>
      <g id="Grupo_946771" data-name="Grupo 946771" transform="translate(22.09 146.132)">
        <g id="Grupo_946767" data-name="Grupo 946767" transform="translate(0 24.871)">
          <rect id="Rectángulo_337744" data-name="Rectángulo 337744" width="18.31" height="44.104" transform="translate(0 17.078)" fill="#3b455a"/>
          <rect id="Rectángulo_337745" data-name="Rectángulo 337745" width="18.31" height="20.726" fill="#ccd2d9"/>
        </g>
        <g id="Grupo_946768" data-name="Grupo 946768" transform="translate(120.544 6.715)">
          <rect id="Rectángulo_337746" data-name="Rectángulo 337746" width="18.31" height="44.104" transform="translate(0 37.223)" fill="#3b455a"/>
          <rect id="Rectángulo_337747" data-name="Rectángulo 337747" width="18.43" height="40.871" fill="#ccd2d9"/>
        </g>
        <g id="Grupo_946769" data-name="Grupo 946769" transform="translate(80.362 36.311)">
          <rect id="Rectángulo_337748" data-name="Rectángulo 337748" width="18.31" height="46.591" transform="translate(0 4.145)" fill="#3b455a"/>
          <rect id="Rectángulo_337749" data-name="Rectángulo 337749" width="18.31" height="30.922" fill="#ccd2d9"/>
        </g>
        <g id="Grupo_946770" data-name="Grupo 946770" transform="translate(40.181)">
          <rect id="Rectángulo_337750" data-name="Rectángulo 337750" width="18.31" height="62.57" transform="translate(0 24.228)" fill="#3b455a"/>
          <rect id="Rectángulo_337751" data-name="Rectángulo 337751" width="18.31" height="50.046" fill="#ccd2d9"/>
        </g>
      </g>
      <g id="Grupo_946775" data-name="Grupo 946775" transform="translate(4.745 4.019)">
        <g id="Grupo_946772" data-name="Grupo 946772">
          <path id="Trazado_719549" data-name="Trazado 719549" d="M608.419,331.364a2.408,2.408,0,1,1,2.408-2.408A2.411,2.411,0,0,1,608.419,331.364Zm0-4.415a2.007,2.007,0,1,0,2.007,2.006A2.009,2.009,0,0,0,608.419,326.949Z" transform="translate(-606.011 -326.548)" fill="#fff"/>
        </g>
        <g id="Grupo_946773" data-name="Grupo 946773" transform="translate(7.424)">
          <path id="Trazado_719550" data-name="Trazado 719550" d="M630.358,331.364a2.408,2.408,0,1,1,2.408-2.408A2.411,2.411,0,0,1,630.358,331.364Zm0-4.415a2.007,2.007,0,1,0,2.006,2.006A2.009,2.009,0,0,0,630.358,326.949Z" transform="translate(-627.95 -326.548)" fill="#fff"/>
        </g>
        <g id="Grupo_946774" data-name="Grupo 946774" transform="translate(14.849)">
          <path id="Trazado_719551" data-name="Trazado 719551" d="M652.3,331.364a2.408,2.408,0,1,1,2.408-2.408A2.411,2.411,0,0,1,652.3,331.364Zm0-4.415a2.007,2.007,0,1,0,2.006,2.006A2.009,2.009,0,0,0,652.3,326.949Z" transform="translate(-649.889 -326.548)" fill="#fff"/>
        </g>
      </g>
    </g>
    <path id="Trazado_719552" data-name="Trazado 719552" d="M373.359,693.07H253.83v-184.6H384.459v173.5A11.1,11.1,0,0,1,373.359,693.07Z" transform="translate(-48.137 -306.738)" fill="#2e4661" opacity="0.07"/>
    <g id="Grupo_946778" data-name="Grupo 946778" transform="translate(190.851 187.764)">
      <g id="Grupo_946777" data-name="Grupo 946777">
        <path id="Trazado_719553" data-name="Trazado 719553" d="M334.553,660.6H209.972V467.2H350.726V644.431A16.173,16.173,0,0,1,334.553,660.6Z" transform="translate(-209.972 -467.198)" fill="#3b455a"/>
      </g>
      <rect id="Rectángulo_337752" data-name="Rectángulo 337752" width="113.944" height="72.053" transform="translate(14.939 15.443)" fill="#fff"/>
      <path id="Trazado_719554" data-name="Trazado 719554" d="M344.813,550.129a4.762,4.762,0,0,0,2.839,2.346c2.886,1.077,6.764.3,8.427-2.116,2.78-4.039,2-9.818,4.991-14.014a9.816,9.816,0,0,1,5.248-3.707,8.977,8.977,0,0,1,6.629.63c3.164,1.743,4.259,5.344,4.289,8.612a101.794,101.794,0,0,1-1.949,18.959c-.547,3-1.389,6.076-3.562,8.444-2.946,3.212-7.8,4.549-12.436,5.264-11.738,1.809-23.777.7-35.628-.407l-28.6-2.68c-2.687-.252-10.6.155-12.208-1.707-1.571-1.818-.336-7.98.582-9.881,2.046-4.236,7.642-6.625,12.894-6.356,11.847.606,7.164-11.766,10.956-17.641,2.014-3.121,6.45-5.364,10.271-4.063,3.644,1.24,5.166,4.9,6.962,7.934.932,1.576,2.257,3.209,4.25,3.55,3.388.58,6.215-2.864,9.664-2.732a5.771,5.771,0,0,1,4.663,3.068C344.3,545.823,343.879,548.245,344.813,550.129Z" transform="translate(-257.693 -509.696)" fill="#d34e4e"/>
      <path id="Trazado_719555" data-name="Trazado 719555" d="M373.118,605.947c-.005,0,.019-5.186.02-5.471.028-7.739.027-15.478.036-23.217.009-7.395.619-14.786.5-22.162-.053-3.412-1.527-5.2-5.121-4.281a16.612,16.612,0,0,0-9,5.9c-1.508,1.962-2.762,4.42-5.108,5.21-4.192,1.413-7.622-3.309-11.387-5.632a11.7,11.7,0,0,0-13.333,1c-4.4,3.717-5.4,10.143-9.124,14.536a15.016,15.016,0,0,1-17.277,3.8c-2.36-1.1-4.389-2.805-6.716-3.972-9.228-4.626-22.057,2.03-23.589,12.238v21.123S373.3,606.134,373.118,605.947Z" transform="translate(-251.682 -522.361)" fill="#3b455a"/>
      <rect id="Rectángulo_337753" data-name="Rectángulo 337753" width="8.564" height="8.564" transform="translate(16.801 98.481)" fill="#ccd2d9"/>
      <rect id="Rectángulo_337754" data-name="Rectángulo 337754" width="8.564" height="8.564" transform="translate(16.801 111.141)" fill="#ccd2d9"/>
      <rect id="Rectángulo_337755" data-name="Rectángulo 337755" width="24.949" height="2.607" transform="translate(32.44 101.087)" fill="#fff"/>
      <rect id="Rectángulo_337756" data-name="Rectángulo 337756" width="24.949" height="2.607" transform="translate(32.068 114.865)" fill="#fff"/>
      <rect id="Rectángulo_337757" data-name="Rectángulo 337757" width="108.731" height="2.816" transform="translate(17.918 134.309)" fill="#fff"/>
      <rect id="Rectángulo_337758" data-name="Rectángulo 337758" width="48.408" height="38.586" transform="translate(17.918 142.49)" fill="#fff"/>
      <rect id="Rectángulo_337759" data-name="Rectángulo 337759" width="52.876" height="16.803" transform="translate(73.773 142.862)" fill="#fff"/>
      <rect id="Rectángulo_337760" data-name="Rectángulo 337760" width="52.876" height="16.803" transform="translate(73.214 164.087)" fill="#fff"/>
    </g>
    <g id="Grupo_946780" data-name="Grupo 946780" transform="translate(181.07 104.084)">
      <path id="Trazado_719556" data-name="Trazado 719556" d="M270.65,231.015h-88.96a.65.65,0,0,0-.621.676v47.127c0,11.619,8.644,21.038,19.308,21.038h36.885l15.082,21.159a.719.719,0,0,0,1.3-.407l.31-20.753H270.65a.65.65,0,0,0,.621-.676V231.691A.65.65,0,0,0,270.65,231.015Z" transform="translate(-181.07 -231.015)" fill="#d34e4e"/>
      <g id="Grupo_946779" data-name="Grupo 946779" transform="translate(11.65 11.262)">
        <rect id="Rectángulo_337761" data-name="Rectángulo 337761" width="55.413" height="2.309" fill="#ccd2d9"/>
        <rect id="Rectángulo_337762" data-name="Rectángulo 337762" width="66.092" height="2.309" transform="translate(0 17.605)" fill="#ccd2d9"/>
        <rect id="Rectángulo_337763" data-name="Rectángulo 337763" width="66.092" height="2.309" transform="translate(0 35.21)" fill="#ccd2d9"/>
      </g>
    </g>
    <g id="Grupo_946783" data-name="Grupo 946783" transform="translate(246.854 78.276)">
      <g id="Grupo_946781" data-name="Grupo 946781">
        <path id="Trazado_719557" data-name="Trazado 719557" d="M487.817,204.868H421.835V158.1h61.786l13.233,13.976V195.21C496.854,200.544,492.808,204.868,487.817,204.868Z" transform="translate(-421.835 -158.096)" fill="#fff"/>
        <path id="Trazado_719558" data-name="Trazado 719558" d="M617.687,172.184l-13.285.334V158.1Z" transform="translate(-542.62 -158.096)" fill="#d34e4e"/>
      </g>
      <g id="Grupo_946782" data-name="Grupo 946782" transform="translate(11.426 12.139)">
        <rect id="Rectángulo_337764" data-name="Rectángulo 337764" width="42.094" height="2.005" transform="translate(6.668)" fill="#ccd2d9"/>
        <rect id="Rectángulo_337765" data-name="Rectángulo 337765" width="48.762" height="2.005" transform="translate(0 9.688)" fill="#ccd2d9"/>
        <rect id="Rectángulo_337766" data-name="Rectángulo 337766" width="48.762" height="2.005" transform="translate(0 19.377)" fill="#ccd2d9"/>
      </g>
    </g>
    <g id="Grupo_946787" data-name="Grupo 946787" transform="translate(390.965 158.122)">
      <g id="Grupo_946784" data-name="Grupo 946784" transform="translate(0 59.375)">
        <path id="Trazado_719559" data-name="Trazado 719559" d="M1008.2,567.012a.507.507,0,0,1-.5-.438c-.095-.686-.157-1.382-.184-2.071a.508.508,0,1,1,1.014-.04c.026.656.085,1.32.175,1.973a.508.508,0,0,1-.434.572A.537.537,0,0,1,1008.2,567.012Z" transform="translate(-1007.514 -563.974)" fill="#fff"/>
      </g>
      <g id="Grupo_946785" data-name="Grupo 946785" transform="translate(0.227 5.533)">
        <path id="Trazado_719560" data-name="Trazado 719560" d="M1008.694,455.694a.536.536,0,0,1-.077-.006.507.507,0,0,1-.426-.578,23.842,23.842,0,0,1,.978-4.01.508.508,0,1,1,.963.324,22.819,22.819,0,0,0-.937,3.839A.507.507,0,0,1,1008.694,455.694Zm2.539-7.643a.508.508,0,0,1-.451-.74,31.93,31.93,0,0,1,2.121-3.519.508.508,0,1,1,.835.578,30.891,30.891,0,0,0-2.054,3.406A.508.508,0,0,1,1011.233,448.051Zm4.576-6.652a.507.507,0,0,1-.382-.841c.878-1.007,1.834-2,2.842-2.949a.508.508,0,0,1,.7.739c-.984.927-1.917,1.895-2.773,2.876A.507.507,0,0,1,1015.809,441.4Zm5.877-5.55a.507.507,0,0,1-.314-.907c1.064-.836,2.182-1.638,3.322-2.386a.508.508,0,1,1,.557.849c-1.117.732-2.211,1.517-3.252,2.335A.505.505,0,0,1,1021.686,435.849Zm6.762-4.437a.508.508,0,0,1-.245-.953c1.18-.648,2.4-1.272,3.63-1.855a.508.508,0,1,1,.435.917c-1.211.575-2.414,1.189-3.577,1.828A.5.5,0,0,1,1028.447,431.412Zm7.307-3.469a.508.508,0,0,1-.191-.978c1.241-.5,2.524-.984,3.815-1.428a.508.508,0,0,1,.33.96c-1.273.438-2.539.912-3.763,1.409A.507.507,0,0,1,1035.755,427.943Zm7.647-2.634a.508.508,0,0,1-.14-1c1.283-.369,2.608-.715,3.938-1.029a.508.508,0,0,1,.233.988c-1.314.31-2.623.652-3.89,1.017A.506.506,0,0,1,1043.4,425.308Zm64.722-1.438-.412,0a.507.507,0,0,1-.5-.511.5.5,0,0,1,.511-.5l.4,0c1.255,0,2.465-.044,3.6-.132a.508.508,0,1,1,.078,1.012C1110.642,423.825,1109.405,423.87,1108.124,423.87Zm-4.451-.156h-.033c-1.208-.079-2.533-.19-4.05-.34a.508.508,0,0,1,.1-1.01c1.506.149,2.819.259,4.016.337a.508.508,0,0,1-.032,1.014Zm-52.4-.269a.508.508,0,0,1-.094-1.006c1.308-.248,2.657-.474,4.01-.673a.508.508,0,1,1,.147,1c-1.339.2-2.675.421-3.969.666A.543.543,0,0,1,1051.273,423.445Zm64.5-.24a.508.508,0,0,1-.1-1.006,28.124,28.124,0,0,0,3.838-1.02.508.508,0,1,1,.332.959,29.176,29.176,0,0,1-3.977,1.057A.53.53,0,0,1,1115.768,423.206Zm-20.152-.257-.056,0-1.2-.131q-1.4-.152-2.814-.289a.508.508,0,1,1,.1-1.01q1.416.138,2.825.29l1.206.132a.508.508,0,0,1-.054,1.012Zm-36.341-.684a.508.508,0,0,1-.054-1.012c1.32-.143,2.682-.266,4.047-.365a.508.508,0,0,1,.074,1.013c-1.354.1-2.7.22-4.012.362A.5.5,0,0,1,1059.276,422.265Zm28.285-.1-.041,0c-1.359-.109-2.714-.2-4.027-.283a.508.508,0,0,1,.061-1.013c1.32.08,2.681.176,4.047.285a.508.508,0,0,1-.04,1.013Zm-8.079-.486h-.02c-1.361-.053-2.719-.09-4.033-.109a.507.507,0,0,1-.5-.515.5.5,0,0,1,.515-.5c1.323.02,2.688.056,4.057.11a.508.508,0,0,1-.019,1.015Zm-12.137-.011a.508.508,0,0,1-.02-1.015c1.326-.054,2.692-.09,4.06-.106a.515.515,0,0,1,.513.5.508.508,0,0,1-.5.514c-1.358.016-2.714.051-4.03.1Zm56.035-1.127a.508.508,0,0,1-.241-.955,25.759,25.759,0,0,0,3.332-2.147.508.508,0,1,1,.613.809,26.826,26.826,0,0,1-3.463,2.232A.508.508,0,0,1,1123.38,420.546Zm6.442-4.849a.507.507,0,0,1-.359-.867,34.423,34.423,0,0,0,2.647-2.978.508.508,0,1,1,.8.63,35.469,35.469,0,0,1-2.726,3.066A.505.505,0,0,1,1129.822,415.7Zm5.034-6.315a.508.508,0,0,1-.426-.782c.7-1.088,1.38-2.251,2.02-3.457a.508.508,0,1,1,.9.476c-.653,1.23-1.347,2.418-2.062,3.53A.507.507,0,0,1,1134.856,409.382Z" transform="translate(-1008.186 -404.873)" fill="#fff"/>
      </g>
      <g id="Grupo_946786" data-name="Grupo 946786" transform="translate(130.205)">
        <path id="Trazado_719561" data-name="Trazado 719561" d="M1392.778,391.408a.508.508,0,0,1-.464-.713c.266-.6.53-1.227.783-1.855a.508.508,0,0,1,.942.38c-.258.638-.525,1.273-.8,1.886A.508.508,0,0,1,1392.778,391.408Z" transform="translate(-1392.271 -388.522)" fill="#fff"/>
      </g>
    </g>
    <g id="Grupo_946788" data-name="Grupo 946788" transform="translate(496.873 118.494)">
      <path id="Trazado_719562" data-name="Trazado 719562" d="M1385.485,274.766l-2.121,48.144-15.9-16.689s18.085-32.805,18.211-32.263l-.694-.579c.535-.153-19.343,31.6-19.343,31.6l-22.312-5.781,41.043-25.256Z" transform="translate(-1343.329 -273.379)" fill="#d34e4e"/>
    </g>
    <g id="Grupo_946792" data-name="Grupo 946792" transform="translate(424.099 274.432)">
      <rect id="Rectángulo_337767" data-name="Rectángulo 337767" width="93.815" height="67.822" transform="translate(0 3.935)" fill="#2e4661" opacity="0.07"/>
      <g id="Grupo_946791" data-name="Grupo 946791" transform="translate(3.205)">
        <g id="Grupo_946790" data-name="Grupo 946790">
          <g id="Grupo_946789" data-name="Grupo 946789">
            <rect id="Rectángulo_337768" data-name="Rectángulo 337768" width="94.453" height="68.024" fill="#fff"/>
            <rect id="Rectángulo_337769" data-name="Rectángulo 337769" width="94.324" height="5.415" fill="#474ebb"/>
          </g>
          <path id="Trazado_719563" data-name="Trazado 719563" d="M1211.963,754.463v-.21h-11.594V742.876h-.21v11.377h-13.9V742.876h-.21v11.377h-13.9V742.876h-.21v11.377h-13.9V742.876h-.21v11.377h-13.9V742.876h-.21v11.377h-13.9V742.876h-.21v11.377h-11.576v.21h11.576v12.854h-11.576v.21h11.576v12.855h-11.576v.21h11.576v12.855h-11.576v.21h11.576v11.961h.21V793.657h13.9v11.961h.21V793.657h13.9v11.961h.21V793.657h13.9v11.961h.21V793.657h13.9v11.961h.21V793.657h13.9v11.961h.21V793.657h11.594v-.21h-11.594V780.592h11.594v-.21h-11.594V767.527h11.594v-.21h-11.594V754.463Zm-25.913,0v12.854h-13.9V754.463Zm-28.008,13.064h13.9v12.855h-13.9Zm-.21,12.855h-13.9V767.527h13.9Zm14.319-12.855h13.9v12.855h-13.9Zm-.21-13.064v12.854h-13.9V754.463Zm-14.109,0v12.854h-13.9V754.463Zm-28.008,0h13.9v12.854h-13.9Zm0,13.064h13.9v12.855h-13.9Zm0,25.92V780.592h13.9v12.855Zm14.109,0V780.592h13.9v12.855Zm14.109,0V780.592h13.9v12.855Zm14.109,0V780.592h13.9v12.855Zm28.008,0h-13.9V780.592h13.9Zm0-13.065h-13.9V767.527h13.9Zm0-13.065h-13.9V754.463h13.9Z" transform="translate(-1117.709 -737.357)" fill="#272525" opacity="0.03"/>
        </g>
        <path id="Trazado_719564" data-name="Trazado 719564" d="M1208.787,768.338a2.881,2.881,0,0,0-2.023,4.933l-10.025,8.633-.762.657a2.88,2.88,0,1,0-3.373,4.661l-2.2,5.287-.936,2.254a2.867,2.867,0,0,0-3.142,1.358L1176.645,790l-7.176-4.536a2.881,2.881,0,1,0-5.5-.481l-13.583,5.544-1.332.544a2.881,2.881,0,1,0-4.619,3.241l-2.017,2.29-9.628,10.93a2.9,2.9,0,1,0,.747.737l8.221-9.332,3.568-4.05a2.88,2.88,0,0,0,3.966-2.669c0-.039,0-.077-.006-.115l.2-.08,14.882-6.074a2.875,2.875,0,0,0,4.537.4l6.509,4.114,10.559,6.674a2.88,2.88,0,1,0,4.455-1.961l3.138-7.554a2.88,2.88,0,0,0,3.488-2.817,2.868,2.868,0,0,0-.395-1.451l1.774-1.527,7.6-6.541,1.638-1.411a2.882,2.882,0,1,0,1.12-5.538Z" transform="translate(-1124.498 -754.203)" fill="#d34e4e"/>
      </g>
    </g>
    <g id="Grupo_946803" data-name="Grupo 946803" transform="translate(326.553 104.895)">
      <g id="Grupo_946801" data-name="Grupo 946801" transform="translate(0)">
        <g id="Grupo_946799" data-name="Grupo 946799">
          <g id="Grupo_946796" data-name="Grupo 946796">
            <g id="Grupo_946794" data-name="Grupo 946794" transform="translate(120.748 100.233)">
              <g id="Grupo_946793" data-name="Grupo 946793">
                <path id="Trazado_719565" data-name="Trazado 719565" d="M1272.282,558.913l-11.3,18.1-64.135-40.4,11.3-18.1Z" transform="translate(-1196.844 -518.51)" fill="#fff"/>
                <path id="Trazado_719566" data-name="Trazado 719566" d="M1360.765,624.952l-.13.209c-3.565,5.711-9.928,8.173-14.211,5.5l-49.23-30.218,12.937-21.758,49.334,31.085C1363.748,612.444,1364.33,619.242,1360.765,624.952Z" transform="translate(-1263.235 -558.321)" fill="#8ec3cb"/>
              </g>
              <path id="Trazado_719567" data-name="Trazado 719567" d="M1210.1,540.934l3.1,2.261,28.1-7.295L1217.9,520.959Z" transform="translate(-1205.617 -520.13)" fill="#bbbcbf" opacity="0.2" style="mix-blend-mode: multiply;isolation: isolate"/>
            </g>
            <g id="Grupo_946795" data-name="Grupo 946795">
              <path id="Trazado_719568" data-name="Trazado 719568" d="M979.4,273.169a64.242,64.242,0,1,0,20.473,88.515A64.243,64.243,0,0,0,979.4,273.169Zm12.858,83.761a55.265,55.265,0,1,1-17.612-76.147A55.265,55.265,0,0,1,992.256,356.931Z" transform="translate(-867.22 -249.507)" fill="#8ec3cb"/>
              <circle id="Elipse_5494" data-name="Elipse 5494" cx="55.265" cy="55.265" r="55.265" transform="translate(0 78.157) rotate(-45)" fill="#d1e7f5" opacity="0.5"/>
            </g>
          </g>
          <g id="Grupo_946798" data-name="Grupo 946798" transform="translate(30.605 28.311)">
            <g id="Grupo_946797" data-name="Grupo 946797" opacity="0.22">
              <path id="Trazado_719569" data-name="Trazado 719569" d="M938.2,353.6a38.922,38.922,0,0,1,72.54-20.634c2.515,4.29,9.354.705,6.836-3.591a47.223,47.223,0,0,0-50.486-22.367c-19.565,4.164-34,20.98-36.354,40.636a42.648,42.648,0,0,0-.254,5.731c.076,4.958,7.8,5.219,7.718.225Z" transform="translate(-930.471 -305.98)" fill="#fff"/>
            </g>
            <circle id="Elipse_5495" data-name="Elipse 5495" cx="5.085" cy="5.085" r="5.085" transform="translate(83.402 34.475) rotate(-7.528)" fill="#fff" opacity="0.31"/>
          </g>
        </g>
        <path id="Trazado_719570" data-name="Trazado 719570" d="M1293.208,595.305l12.309-20.7a1.612,1.612,0,0,0-.426-2.119l-.216-.16a1.612,1.612,0,0,0-2.353.485L1290.4,593.655a1.612,1.612,0,0,0,.611,2.219l.028.016A1.612,1.612,0,0,0,1293.208,595.305Z" transform="translate(-1137.847 -453.671)" fill="#3b455a"/>
        <g id="Grupo_946800" data-name="Grupo 946800" transform="translate(19.776 20.929)">
          <path id="Trazado_719571" data-name="Trazado 719571" d="M1010.763,341.79a54.691,54.691,0,1,1-7.336-27.379,55.1,55.1,0,0,1,7.336,27.379,1.471,1.471,0,0,0,2.941,0,57.627,57.627,0,1,0-18.263,42.087A58.281,58.281,0,0,0,1013.7,341.79,1.471,1.471,0,0,0,1010.763,341.79Z" transform="translate(-898.471 -284.168)" fill="#fff"/>
        </g>
      </g>
      <path id="Trazado_719572" data-name="Trazado 719572" d="M1353.379,603.673c2.077-5.452,5.086-16.23,6.815-21.462-3.789-12.746-11.588-34.035-12.4-34.269-4.727-1.369-8.94-2.621-13.652-3.981-.218-.063-1.6,6.986-1.817,6.923a10.052,10.052,0,0,1-.3-3.07v0l-.908-9.162a1.73,1.73,0,0,0-1.294-1.616c-2.761-.717-8.724-2.117-8.983-1.684-.1.159-.611,8.113-1.039,10.385l-1-.519-1.3-14.841s-10.312-2.6-10.515-2.12c-.238.562-2.531,13.154-2.531,13.154s-3.989,30.049-4.443,32.185c-.664,3.129-2.754,5.932-2.453,9.051.336,3.484,1.861,6.717,3.368,9.889L1311.85,615.5c.794,5.2,1.626,17.1,2.822,22.219,13.456-2.715,26.971-4.77,41.947-9.536C1357.042,628.053,1352.484,606.023,1353.379,603.673Z" transform="translate(-1142.714 -424.685)" fill="#eac5b0"/>
      <g id="Grupo_946802" data-name="Grupo 946802" transform="translate(160.437 185.37)">
        <path id="Trazado_719573" data-name="Trazado 719573" d="M1331.17,817.32l-3.107-27.312,53.794-19.92,9.352,33.3-59.856,17.87Z" transform="translate(-1323.347 -770.088)" fill="#fff"/>
        <path id="Trazado_719574" data-name="Trazado 719574" d="M1384.057,817.74s-55.331,31.619-66.772,34.614l-3.159,74.442H1408.2Z" transform="translate(-1314.125 -801.614)" fill="#3b455a"/>
        <path id="Trazado_719575" data-name="Trazado 719575" d="M1350.053,854.267a3.067,3.067,0,1,1-2.178-3.751A3.067,3.067,0,0,1,1350.053,854.267Z" transform="translate(-1333.904 -823.231)" fill="#3b455a"/>
      </g>
      <path id="Trazado_719576" data-name="Trazado 719576" d="M1253.589,639.28l-7.177-11.316-10.387-9.673s-2.019-5.832,4.49-5.993,10.889,5.281,13.772,9.6c1.267,1.9,7.391,7.428,12.144,10.81,6.219,4.424-.278,23.906-.278,23.906S1254.31,640.36,1253.589,639.28Z" transform="translate(-1101.823 -480.324)" fill="#eac5b0"/>
    </g>
  </g>
</svg>
