<svg xmlns="http://www.w3.org/2000/svg" xmlns:xlink="http://www.w3.org/1999/xlink" width="289.15" height="261.876" viewBox="0 0 289.15 261.876">
  <defs>
    <clipPath id="clip-path">
      <ellipse id="Elipse_7704" data-name="Elipse 7704" cx="62.207" cy="128.677" rx="62.207" ry="128.677" fill="none" stroke="#000" stroke-miterlimit="10" stroke-width="4.523"/>
    </clipPath>
  </defs>
  <g id="Grupo_957297" data-name="Grupo 957297" transform="translate(-836.068 -1162.885)">
    <g id="Grupo_956606" data-name="Grupo 956606" transform="translate(837.068 1177.135)">
      <g id="Grupo_956604" data-name="Grupo 956604" transform="translate(5.147 99.355)">
        <g id="Grupo_956603" data-name="Grupo 956603">
          <path id="Trazado_721916" data-name="Trazado 721916" d="M989.894,728.691V842.565a4.445,4.445,0,0,0,.036.516,3.459,3.459,0,0,0-.036.455s3.746,17.454,8.368,17.454,8.369-17.454,8.369-17.454a3.438,3.438,0,0,0-.036-.455,4.419,4.419,0,0,0,.036-.516V728.691a28.731,28.731,0,0,1-16.737,0Z" transform="translate(-989.894 -728.691)" fill="silver"/>
        </g>
      </g>
      <path id="Trazado_721917" data-name="Trazado 721917" d="M1007.134,596.56a8.352,8.352,0,0,0-3.53-6.82c0-.083.012-.164.012-.248v-5.337a4.851,4.851,0,1,0-9.7,0v5.337c0,.084.009.165.013.248a8.35,8.35,0,0,0-3.53,6.82V785.374c0,.242.016.48.036.716-.02.209-.036.419-.036.632,0,0,3.746,24.234,8.369,24.234s8.369-24.234,8.369-24.234c0-.214-.017-.424-.037-.632.02-.236.037-.474.037-.716Z" transform="translate(-984.916 -579.304)" fill="none" stroke="#000" stroke-miterlimit="10" stroke-width="1"/>
      <line id="Línea_2870" data-name="Línea 2870" x2="16.737" transform="translate(5.481 202.637)" fill="none" stroke="#000" stroke-miterlimit="10" stroke-width="1"/>
      <line id="Línea_2871" data-name="Línea 2871" x2="16.737" transform="translate(5.445 184.936)" fill="none" stroke="#000" stroke-miterlimit="10" stroke-width="1"/>
      <line id="Línea_2872" data-name="Línea 2872" x2="16.737" transform="translate(5.445 150.435)" fill="none" stroke="#000" stroke-miterlimit="10" stroke-width="1"/>
      <line id="Línea_2873" data-name="Línea 2873" x2="16.737" transform="translate(5.445 132.564)" fill="none" stroke="#000" stroke-miterlimit="10" stroke-width="1"/>
      <line id="Línea_2874" data-name="Línea 2874" x2="16.737" transform="translate(5.445 114.663)" fill="none" stroke="#000" stroke-miterlimit="10" stroke-width="1"/>
      <line id="Línea_2875" data-name="Línea 2875" x2="16.737" transform="translate(5.445 80.294)" fill="none" stroke="#000" stroke-miterlimit="10" stroke-width="1"/>
      <line id="Línea_2876" data-name="Línea 2876" x2="16.737" transform="translate(5.445 62.238)" fill="none" stroke="#000" stroke-miterlimit="10" stroke-width="1"/>
      <line id="Línea_2877" data-name="Línea 2877" x2="16.737" transform="translate(5.445 27.657)" fill="none" stroke="#000" stroke-miterlimit="10" stroke-width="1"/>
      <line id="Línea_2878" data-name="Línea 2878" x2="8.035" transform="translate(5.481 199.038)" fill="none" stroke="#000" stroke-miterlimit="10" stroke-width="0.693"/>
      <line id="Línea_2879" data-name="Línea 2879" x2="8.035" transform="translate(5.481 196.586)" fill="none" stroke="#000" stroke-miterlimit="10" stroke-width="0.693"/>
      <line id="Línea_2880" data-name="Línea 2880" x2="10.57" transform="translate(5.481 192.662)" fill="none" stroke="#000" stroke-miterlimit="10" stroke-width="0.911"/>
      <line id="Línea_2881" data-name="Línea 2881" x2="10.57" transform="translate(5.481 188.739)" fill="none" stroke="#000" stroke-miterlimit="10" stroke-width="0.911"/>
      <line id="Línea_2882" data-name="Línea 2882" x2="10.57" transform="translate(5.481 182.348)" fill="none" stroke="#000" stroke-miterlimit="10" stroke-width="0.911"/>
      <line id="Línea_2883" data-name="Línea 2883" x2="10.57" transform="translate(5.481 178.589)" fill="none" stroke="#000" stroke-miterlimit="10" stroke-width="0.911"/>
      <line id="Línea_2884" data-name="Línea 2884" x2="10.57" transform="translate(5.481 174.83)" fill="none" stroke="#000" stroke-miterlimit="10" stroke-width="0.911"/>
      <line id="Línea_2885" data-name="Línea 2885" x2="10.57" transform="translate(5.481 171.072)" fill="none" stroke="#000" stroke-miterlimit="10" stroke-width="0.911"/>
      <line id="Línea_2886" data-name="Línea 2886" x2="10.57" transform="translate(5.481 168.235)" fill="none" stroke="#000" stroke-miterlimit="10" stroke-width="0.911"/>
      <line id="Línea_2887" data-name="Línea 2887" x2="10.57" transform="translate(5.481 164.477)" fill="none" stroke="#000" stroke-miterlimit="10" stroke-width="0.911"/>
      <line id="Línea_2888" data-name="Línea 2888" x2="10.57" transform="translate(5.481 160.718)" fill="none" stroke="#000" stroke-miterlimit="10" stroke-width="0.911"/>
      <line id="Línea_2889" data-name="Línea 2889" x2="10.57" transform="translate(5.481 156.605)" fill="none" stroke="#000" stroke-miterlimit="10" stroke-width="0.911"/>
      <line id="Línea_2890" data-name="Línea 2890" x2="10.57" transform="translate(5.481 152.917)" fill="none" stroke="#000" stroke-miterlimit="10" stroke-width="0.911"/>
      <line id="Línea_2891" data-name="Línea 2891" x2="10.57" transform="translate(5.481 146.677)" fill="none" stroke="#000" stroke-miterlimit="10" stroke-width="0.911"/>
      <line id="Línea_2892" data-name="Línea 2892" x2="10.57" transform="translate(5.481 142.918)" fill="none" stroke="#000" stroke-miterlimit="10" stroke-width="0.911"/>
      <line id="Línea_2893" data-name="Línea 2893" x2="10.57" transform="translate(5.481 139.16)" fill="none" stroke="#000" stroke-miterlimit="10" stroke-width="0.911"/>
      <line id="Línea_2894" data-name="Línea 2894" x2="10.57" transform="translate(5.481 136.252)" fill="none" stroke="#000" stroke-miterlimit="10" stroke-width="0.911"/>
      <line id="Línea_2895" data-name="Línea 2895" x2="10.57" transform="translate(5.481 128.451)" fill="none" stroke="#000" stroke-miterlimit="10" stroke-width="0.911"/>
      <line id="Línea_2896" data-name="Línea 2896" x2="10.57" transform="translate(5.778 124.693)" fill="none" stroke="#000" stroke-miterlimit="10" stroke-width="0.911"/>
      <line id="Línea_2897" data-name="Línea 2897" x2="10.57" transform="translate(5.778 122.31)" fill="none" stroke="#000" stroke-miterlimit="10" stroke-width="0.911"/>
      <line id="Línea_2898" data-name="Línea 2898" x2="10.57" transform="translate(5.778 118.486)" fill="none" stroke="#000" stroke-miterlimit="10" stroke-width="0.911"/>
      <line id="Línea_2899" data-name="Línea 2899" x2="10.57" transform="translate(5.778 110.839)" fill="none" stroke="#000" stroke-miterlimit="10" stroke-width="0.911"/>
      <line id="Línea_2900" data-name="Línea 2900" x2="10.57" transform="translate(5.778 108.333)" fill="none" stroke="#000" stroke-miterlimit="10" stroke-width="0.911"/>
      <line id="Línea_2901" data-name="Línea 2901" x2="10.57" transform="translate(5.778 104.467)" fill="none" stroke="#000" stroke-miterlimit="10" stroke-width="0.911"/>
      <line id="Línea_2902" data-name="Línea 2902" x2="10.57" transform="translate(5.778 100.601)" fill="none" stroke="#000" stroke-miterlimit="10" stroke-width="0.911"/>
      <line id="Línea_2903" data-name="Línea 2903" x2="10.57" transform="translate(5.778 94.186)" fill="none" stroke="#000" stroke-miterlimit="10" stroke-width="0.911"/>
      <line id="Línea_2904" data-name="Línea 2904" x2="10.57" transform="translate(5.778 90.447)" fill="none" stroke="#000" stroke-miterlimit="10" stroke-width="0.911"/>
      <line id="Línea_2905" data-name="Línea 2905" x2="10.57" transform="translate(5.778 86.369)" fill="none" stroke="#000" stroke-miterlimit="10" stroke-width="0.911"/>
      <line id="Línea_2906" data-name="Línea 2906" x2="10.57" transform="translate(5.778 76.3)" fill="none" stroke="#000" stroke-miterlimit="10" stroke-width="0.911"/>
      <line id="Línea_2907" data-name="Línea 2907" x2="10.57" transform="translate(5.778 73.794)" fill="none" stroke="#000" stroke-miterlimit="10" stroke-width="0.911"/>
      <line id="Línea_2908" data-name="Línea 2908" x2="10.57" transform="translate(5.778 71.287)" fill="none" stroke="#000" stroke-miterlimit="10" stroke-width="0.911"/>
      <line id="Línea_2909" data-name="Línea 2909" x2="10.57" transform="translate(5.778 68.78)" fill="none" stroke="#000" stroke-miterlimit="10" stroke-width="0.911"/>
      <line id="Línea_2910" data-name="Línea 2910" x2="10.57" transform="translate(5.778 65.977)" fill="none" stroke="#000" stroke-miterlimit="10" stroke-width="0.911"/>
      <line id="Línea_2911" data-name="Línea 2911" x2="10.57" transform="translate(5.778 59.774)" fill="none" stroke="#000" stroke-miterlimit="10" stroke-width="0.911"/>
      <line id="Línea_2912" data-name="Línea 2912" x2="10.57" transform="translate(5.778 57.31)" fill="none" stroke="#000" stroke-miterlimit="10" stroke-width="0.911"/>
      <line id="Línea_2913" data-name="Línea 2913" x2="10.57" transform="translate(5.778 54.591)" fill="none" stroke="#000" stroke-miterlimit="10" stroke-width="0.911"/>
      <line id="Línea_2914" data-name="Línea 2914" x2="10.57" transform="translate(5.778 51.872)" fill="none" stroke="#000" stroke-miterlimit="10" stroke-width="0.911"/>
      <line id="Línea_2915" data-name="Línea 2915" x2="10.57" transform="translate(5.778 49.366)" fill="none" stroke="#000" stroke-miterlimit="10" stroke-width="0.911"/>
      <line id="Línea_2916" data-name="Línea 2916" x2="10.57" transform="translate(5.778 46.859)" fill="none" stroke="#000" stroke-miterlimit="10" stroke-width="0.911"/>
      <line id="Línea_2917" data-name="Línea 2917" x2="10.57" transform="translate(5.778 44.353)" fill="none" stroke="#000" stroke-miterlimit="10" stroke-width="0.911"/>
      <line id="Línea_2918" data-name="Línea 2918" x2="10.57" transform="translate(5.778 41.634)" fill="none" stroke="#000" stroke-miterlimit="10" stroke-width="0.911"/>
      <line id="Línea_2919" data-name="Línea 2919" x2="10.57" transform="translate(5.778 37.938)" fill="none" stroke="#000" stroke-miterlimit="10" stroke-width="0.911"/>
      <line id="Línea_2920" data-name="Línea 2920" x2="10.57" transform="translate(5.778 34.241)" fill="none" stroke="#000" stroke-miterlimit="10" stroke-width="0.911"/>
      <g id="Grupo_956605" data-name="Grupo 956605" transform="translate(13.112 17.035)">
        <text id="_0" data-name="0" transform="translate(2.498 7)" fill="#a20b00" font-size="7" font-family="SegoeUI, Segoe UI"><tspan x="0" y="0">0</tspan></text>
        <text id="_1" data-name="1" transform="translate(4.301 24)" font-size="7" font-family="SegoeUI, Segoe UI"><tspan x="0" y="0">1</tspan></text>
        <text id="_2" data-name="2" transform="translate(4.301 42.837)" font-size="7" font-family="SegoeUI, Segoe UI"><tspan x="0" y="0">2</tspan></text>
        <text id="_3" data-name="3" transform="translate(4.301 59.993)" font-size="7" font-family="SegoeUI, Segoe UI"><tspan x="0" y="0">3</tspan></text>
        <text id="_4" data-name="4" transform="translate(4.301 76.915)" font-size="7" font-family="SegoeUI, Segoe UI"><tspan x="0" y="0">4</tspan></text>
        <text id="_5" data-name="5" transform="translate(4.301 94.52)" font-size="7" font-family="SegoeUI, Segoe UI"><tspan x="0" y="0">5</tspan></text>
        <text id="_6" data-name="6" transform="translate(4.301 112.771)" font-size="7" font-family="SegoeUI, Segoe UI"><tspan x="0" y="0">6</tspan></text>
        <text id="_7" data-name="7" transform="translate(4.301 129.589)" font-size="7" font-family="SegoeUI, Segoe UI"><tspan x="0" y="0">7</tspan></text>
        <text id="_8" data-name="8" transform="translate(4.301 147.395)" font-size="7" font-family="SegoeUI, Segoe UI"><tspan x="0" y="0">8</tspan></text>
        <text id="_9" data-name="9" transform="translate(4.301 165.441)" font-size="7" font-family="SegoeUI, Segoe UI"><tspan x="0" y="0">9</tspan></text>
        <text id="_10" data-name="10" transform="translate(0 183.826)" font-size="8" font-family="SegoeUI, Segoe UI"><tspan x="0" y="0">10</tspan></text>
      </g>
      <ellipse id="Elipse_7703" data-name="Elipse 7703" cx="13.753" cy="28.449" rx="13.753" ry="28.449" transform="translate(0 77.283)" fill="none" stroke="#000" stroke-miterlimit="10" stroke-width="2"/>
    </g>
    <g id="Grupo_956612" data-name="Grupo 956612" transform="translate(998.543 1165.146)">
      <g id="Grupo_956611" data-name="Grupo 956611" clip-path="url(#clip-path)">
        <g id="Grupo_956610" data-name="Grupo 956610" transform="translate(23.278 -349.557)">
          <g id="Grupo_956608" data-name="Grupo 956608" transform="translate(0 449.388)">
            <g id="Grupo_956607" data-name="Grupo 956607">
              <path id="Trazado_721918" data-name="Trazado 721918" d="M1259.945,711.382v515.059a19.967,19.967,0,0,0,.164,2.334,15.581,15.581,0,0,0-.164,2.059s16.947,78.943,37.852,78.943,37.852-78.943,37.852-78.943a15.581,15.581,0,0,0-.164-2.059,19.967,19.967,0,0,0,.164-2.334V711.382a129.942,129.942,0,0,1-75.7,0Z" transform="translate(-1259.945 -711.382)" fill="silver"/>
            </g>
          </g>
          <path id="Trazado_721919" data-name="Trazado 721919" d="M1337.92,113.745A37.775,37.775,0,0,0,1321.956,82.9c.019-.374.057-.744.057-1.123V57.638a21.944,21.944,0,0,0-43.887,0V81.776c0,.38.038.749.057,1.123a37.774,37.774,0,0,0-15.965,30.846v854.02c0,1.094.073,2.169.164,3.24-.091.944-.164,1.893-.164,2.858,0,0,16.947,109.614,37.852,109.614s37.851-109.614,37.851-109.614c0-.965-.073-1.914-.164-2.858.091-1.071.164-2.146.164-3.24Z" transform="translate(-1260.706 -35.694)" fill="none" stroke="#000" stroke-miterlimit="10" stroke-width="4.523"/>
          <line id="Línea_2921" data-name="Línea 2921" x2="75.703" transform="translate(1.511 916.539)" fill="none" stroke="#000" stroke-miterlimit="10" stroke-width="4.523"/>
          <line id="Línea_2922" data-name="Línea 2922" x2="75.703" transform="translate(1.351 836.478)" fill="none" stroke="#000" stroke-miterlimit="10" stroke-width="4.523"/>
          <line id="Línea_2923" data-name="Línea 2923" x2="75.703" transform="translate(1.351 680.429)" fill="none" stroke="#000" stroke-miterlimit="10" stroke-width="4.523"/>
          <line id="Línea_2924" data-name="Línea 2924" x2="75.703" transform="translate(1.351 599.597)" fill="none" stroke="#000" stroke-miterlimit="10" stroke-width="4.523"/>
          <line id="Línea_2925" data-name="Línea 2925" x2="75.703" transform="translate(1.351 518.626)" fill="none" stroke="#000" stroke-miterlimit="10" stroke-width="4.523"/>
          <line id="Línea_2926" data-name="Línea 2926" x2="75.703" transform="translate(1.351 363.173)" fill="none" stroke="#000" stroke-miterlimit="10" stroke-width="4.523"/>
          <line id="Línea_2927" data-name="Línea 2927" x2="75.703" transform="translate(1.351 281.507)" fill="none" stroke="#000" stroke-miterlimit="10" stroke-width="4.523"/>
          <line id="Línea_2928" data-name="Línea 2928" x2="75.703" transform="translate(1.351 125.093)" fill="none" stroke="#000" stroke-miterlimit="10" stroke-width="4.523"/>
          <line id="Línea_2929" data-name="Línea 2929" x2="36.341" transform="translate(1.511 900.26)" fill="none" stroke="#000" stroke-miterlimit="10" stroke-width="3.134"/>
          <line id="Línea_2930" data-name="Línea 2930" x2="36.341" transform="translate(1.511 889.17)" fill="none" stroke="#000" stroke-miterlimit="10" stroke-width="3.134"/>
          <line id="Línea_2931" data-name="Línea 2931" x2="47.808" transform="translate(1.511 871.424)" fill="none" stroke="#000" stroke-miterlimit="10" stroke-width="4.123"/>
          <line id="Línea_2932" data-name="Línea 2932" x2="47.808" transform="translate(1.511 853.679)" fill="none" stroke="#000" stroke-miterlimit="10" stroke-width="4.123"/>
          <line id="Línea_2933" data-name="Línea 2933" x2="47.808" transform="translate(1.511 824.77)" fill="none" stroke="#000" stroke-miterlimit="10" stroke-width="4.123"/>
          <line id="Línea_2934" data-name="Línea 2934" x2="47.808" transform="translate(1.511 807.77)" fill="none" stroke="#000" stroke-miterlimit="10" stroke-width="4.123"/>
          <line id="Línea_2935" data-name="Línea 2935" x2="47.808" transform="translate(1.511 790.769)" fill="none" stroke="#000" stroke-miterlimit="10" stroke-width="4.123"/>
          <line id="Línea_2936" data-name="Línea 2936" x2="47.808" transform="translate(1.511 773.769)" fill="none" stroke="#000" stroke-miterlimit="10" stroke-width="4.123"/>
          <line id="Línea_2937" data-name="Línea 2937" x2="47.808" transform="translate(1.511 760.939)" fill="none" stroke="#000" stroke-miterlimit="10" stroke-width="4.123"/>
          <line id="Línea_2938" data-name="Línea 2938" x2="47.808" transform="translate(1.511 743.939)" fill="none" stroke="#000" stroke-miterlimit="10" stroke-width="4.123"/>
          <line id="Línea_2939" data-name="Línea 2939" x2="47.808" transform="translate(1.511 726.938)" fill="none" stroke="#000" stroke-miterlimit="10" stroke-width="4.123"/>
          <line id="Línea_2940" data-name="Línea 2940" x2="47.808" transform="translate(1.511 708.334)" fill="none" stroke="#000" stroke-miterlimit="10" stroke-width="4.123"/>
          <line id="Línea_2941" data-name="Línea 2941" x2="47.808" transform="translate(1.511 691.655)" fill="none" stroke="#000" stroke-miterlimit="10" stroke-width="4.123"/>
          <line id="Línea_2942" data-name="Línea 2942" x2="47.808" transform="translate(1.511 663.428)" fill="none" stroke="#000" stroke-miterlimit="10" stroke-width="4.123"/>
          <line id="Línea_2943" data-name="Línea 2943" x2="47.808" transform="translate(1.511 646.428)" fill="none" stroke="#000" stroke-miterlimit="10" stroke-width="4.123"/>
          <line id="Línea_2944" data-name="Línea 2944" x2="47.808" transform="translate(1.511 629.428)" fill="none" stroke="#000" stroke-miterlimit="10" stroke-width="4.123"/>
          <line id="Línea_2945" data-name="Línea 2945" x2="47.808" transform="translate(1.511 616.277)" fill="none" stroke="#000" stroke-miterlimit="10" stroke-width="4.123"/>
          <line id="Línea_2946" data-name="Línea 2946" x2="47.808" transform="translate(1.511 580.993)" fill="none" stroke="#000" stroke-miterlimit="10" stroke-width="4.123"/>
          <line id="Línea_2947" data-name="Línea 2947" x2="47.808" transform="translate(2.856 563.993)" fill="none" stroke="#000" stroke-miterlimit="10" stroke-width="4.123"/>
          <line id="Línea_2948" data-name="Línea 2948" x2="47.808" transform="translate(2.856 553.214)" fill="none" stroke="#000" stroke-miterlimit="10" stroke-width="4.123"/>
          <line id="Línea_2949" data-name="Línea 2949" x2="47.808" transform="translate(2.856 535.92)" fill="none" stroke="#000" stroke-miterlimit="10" stroke-width="4.123"/>
          <line id="Línea_2950" data-name="Línea 2950" x2="47.808" transform="translate(2.856 501.332)" fill="none" stroke="#000" stroke-miterlimit="10" stroke-width="4.123"/>
          <line id="Línea_2951" data-name="Línea 2951" x2="47.808" transform="translate(2.856 489.995)" fill="none" stroke="#000" stroke-miterlimit="10" stroke-width="4.123"/>
          <line id="Línea_2952" data-name="Línea 2952" x2="47.808" transform="translate(2.856 472.509)" fill="none" stroke="#000" stroke-miterlimit="10" stroke-width="4.123"/>
          <line id="Línea_2953" data-name="Línea 2953" x2="47.808" transform="translate(2.856 455.023)" fill="none" stroke="#000" stroke-miterlimit="10" stroke-width="4.123"/>
          <line id="Línea_2954" data-name="Línea 2954" x2="47.808" transform="translate(2.856 426.008)" fill="none" stroke="#000" stroke-miterlimit="10" stroke-width="4.123"/>
          <line id="Línea_2955" data-name="Línea 2955" x2="47.808" transform="translate(2.856 409.098)" fill="none" stroke="#000" stroke-miterlimit="10" stroke-width="4.123"/>
          <line id="Línea_2956" data-name="Línea 2956" x2="47.808" transform="translate(2.856 390.651)" fill="none" stroke="#000" stroke-miterlimit="10" stroke-width="4.123"/>
          <line id="Línea_2957" data-name="Línea 2957" x2="47.808" transform="translate(2.856 345.11)" fill="none" stroke="#000" stroke-miterlimit="10" stroke-width="4.123"/>
          <line id="Línea_2958" data-name="Línea 2958" x2="47.808" transform="translate(2.856 333.773)" fill="none" stroke="#000" stroke-miterlimit="10" stroke-width="4.123"/>
          <line id="Línea_2959" data-name="Línea 2959" x2="47.808" transform="translate(2.856 322.436)" fill="none" stroke="#000" stroke-miterlimit="10" stroke-width="4.123"/>
          <line id="Línea_2960" data-name="Línea 2960" x2="47.808" transform="translate(2.856 311.099)" fill="none" stroke="#000" stroke-miterlimit="10" stroke-width="4.123"/>
          <line id="Línea_2961" data-name="Línea 2961" x2="47.808" transform="translate(2.856 298.417)" fill="none" stroke="#000" stroke-miterlimit="10" stroke-width="4.123"/>
          <line id="Línea_2962" data-name="Línea 2962" x2="47.808" transform="translate(2.856 270.362)" fill="none" stroke="#000" stroke-miterlimit="10" stroke-width="4.123"/>
          <line id="Línea_2963" data-name="Línea 2963" x2="47.808" transform="translate(2.856 259.217)" fill="none" stroke="#000" stroke-miterlimit="10" stroke-width="4.123"/>
          <line id="Línea_2964" data-name="Línea 2964" x2="47.808" transform="translate(2.856 246.919)" fill="none" stroke="#000" stroke-miterlimit="10" stroke-width="4.123"/>
          <line id="Línea_2965" data-name="Línea 2965" x2="47.808" transform="translate(2.856 234.621)" fill="none" stroke="#000" stroke-miterlimit="10" stroke-width="4.123"/>
          <line id="Línea_2966" data-name="Línea 2966" x2="47.808" transform="translate(2.856 223.284)" fill="none" stroke="#000" stroke-miterlimit="10" stroke-width="4.123"/>
          <line id="Línea_2967" data-name="Línea 2967" x2="47.808" transform="translate(2.856 211.947)" fill="none" stroke="#000" stroke-miterlimit="10" stroke-width="4.123"/>
          <line id="Línea_2968" data-name="Línea 2968" x2="47.808" transform="translate(2.856 200.61)" fill="none" stroke="#000" stroke-miterlimit="10" stroke-width="4.123"/>
          <line id="Línea_2969" data-name="Línea 2969" x2="47.808" transform="translate(2.856 188.312)" fill="none" stroke="#000" stroke-miterlimit="10" stroke-width="4.123"/>
          <line id="Línea_2970" data-name="Línea 2970" x2="47.808" transform="translate(2.856 171.594)" fill="none" stroke="#000" stroke-miterlimit="10" stroke-width="4.123"/>
          <line id="Línea_2971" data-name="Línea 2971" x2="47.808" transform="translate(2.856 154.877)" fill="none" stroke="#000" stroke-miterlimit="10" stroke-width="4.123"/>
          <g id="Grupo_956609" data-name="Grupo 956609" transform="translate(36.026 78.248)">
            <text id="_0-2" data-name="0" transform="translate(11.296 37)" fill="#a20b00" font-size="35" font-family="SegoeUI, Segoe UI"><tspan x="0" y="0">0</tspan></text>
            <text id="_1-2" data-name="1" transform="translate(19.454 113.89)" font-size="35" font-family="SegoeUI, Segoe UI"><tspan x="0" y="0">1</tspan></text>
            <text id="_2-2" data-name="2" transform="translate(19.454 199.094)" font-size="35" font-family="SegoeUI, Segoe UI"><tspan x="0" y="0">2</tspan></text>
            <text id="_3-2" data-name="3" transform="translate(19.454 276.691)" font-size="35" font-family="SegoeUI, Segoe UI"><tspan x="0" y="0">3</tspan></text>
            <text id="_4-2" data-name="4" transform="translate(19.454 353.229)" font-size="35" font-family="SegoeUI, Segoe UI"><tspan x="0" y="0">4</tspan></text>
            <text id="_5-2" data-name="5" transform="translate(19.454 432.86)" font-size="35" font-family="SegoeUI, Segoe UI"><tspan x="0" y="0">5</tspan></text>
            <text id="_6-2" data-name="6" transform="translate(19.454 515.408)" font-size="35" font-family="SegoeUI, Segoe UI"><tspan x="0" y="0">6</tspan></text>
            <text id="_7-2" data-name="7" transform="translate(19.454 591.477)" font-size="35" font-family="SegoeUI, Segoe UI"><tspan x="0" y="0">7</tspan></text>
            <text id="_8-2" data-name="8" transform="translate(19.454 672.014)" font-size="35" font-family="SegoeUI, Segoe UI"><tspan x="0" y="0">8</tspan></text>
            <text id="_9-2" data-name="9" transform="translate(19.454 753.637)" font-size="35" font-family="SegoeUI, Segoe UI"><tspan x="0" y="0">9</tspan></text>
            <text id="_10-2" data-name="10" transform="translate(0 832.274)" font-size="35" font-family="SegoeUI, Segoe UI"><tspan x="0" y="0">10</tspan></text>
          </g>
        </g>
      </g>
      <ellipse id="Elipse_7705" data-name="Elipse 7705" cx="62.207" cy="128.677" rx="62.207" ry="128.677" fill="none" stroke="#000" stroke-miterlimit="10" stroke-width="4.523"/>
    </g>
    <line id="Línea_2974" data-name="Línea 2974" x2="195.201" y2="106.886" transform="translate(848.923 1311.078)" fill="none" stroke="#000" stroke-miterlimit="10" stroke-width="2"/>
    <line id="Línea_2975" data-name="Línea 2975" y1="85.729" x2="195.201" transform="translate(848.923 1168.959)" fill="none" stroke="#000" stroke-miterlimit="10" stroke-width="2"/>
  </g>
</svg>
