<svg xmlns="http://www.w3.org/2000/svg" width="75.52" height="68.952" viewBox="0 0 75.52 68.952">
  <g id="Flat" transform="translate(-2 -4)">
    <ellipse id="Elipse_7710" data-name="Elipse 7710" cx="33" cy="32.5" rx="33" ry="32.5" transform="translate(7 5.952)" fill="#4dd0e1"/>
    <path id="Trazado_721964" data-name="Trazado 721964" d="M38.476,4A34.476,34.476,0,1,0,72.953,38.476,34.476,34.476,0,0,0,38.476,4ZM69.669,38.476a30.987,30.987,0,0,1-8.35,21.162,63.8,63.8,0,0,0-9.553-3.118,36.646,36.646,0,0,0,.02-36.093,63.8,63.8,0,0,0,9.54-3.114,31.041,31.041,0,0,1,8.343,21.162ZM58.745,14.814A59.357,59.357,0,0,1,50.1,17.453a67.119,67.119,0,0,0-7.516-9.867,31.041,31.041,0,0,1,16.164,7.229ZM40.118,9.753a65.716,65.716,0,0,1,6.522,8.355,53.209,53.209,0,0,1-6.522.6Zm8.344,11.373c6.436,11.6,6.425,23.1-.011,34.7a56.527,56.527,0,0,0-8.332-.869V22a56.523,56.523,0,0,0,8.344-.871ZM36.835,54.955a56.521,56.521,0,0,0-8.292.861A35.707,35.707,0,0,1,23.7,38.476a35.74,35.74,0,0,1,4.833-17.342,56.515,56.515,0,0,0,8.3.863Zm0-36.251a53.237,53.237,0,0,1-6.488-.591,65.038,65.038,0,0,1,6.488-8.355ZM34.374,7.585a66.858,66.858,0,0,0-7.5,9.872,59.33,59.33,0,0,1-8.666-2.643A31.042,31.042,0,0,1,34.374,7.585ZM15.626,17.314a63.794,63.794,0,0,0,9.562,3.118,38.536,38.536,0,0,0-4.771,18.044,38.486,38.486,0,0,0,4.775,18.042,63.779,63.779,0,0,0-9.561,3.118,31,31,0,0,1,0-42.322Zm2.609,44.813a59.306,59.306,0,0,1,8.648-2.634,66.921,66.921,0,0,0,7.491,9.874,31.1,31.1,0,0,1-16.139-7.24Zm12.121-3.289a53.241,53.241,0,0,1,6.479-.59v8.946a65.078,65.078,0,0,1-6.479-8.356Zm9.762-.59a53.251,53.251,0,0,1,6.509.594A65.552,65.552,0,0,1,40.118,67.2Zm9.949,1.244a59.319,59.319,0,0,1,8.65,2.635,31.1,31.1,0,0,1-16.136,7.24A66.762,66.762,0,0,0,50.067,59.493Z" transform="translate(1.283)" fill="#00bcd4"/>
    <path id="Trazado_721965" data-name="Trazado 721965" d="M55.7,22.925V36.059a4.94,4.94,0,0,1-4.925,4.925H36V18H50.776A4.94,4.94,0,0,1,55.7,22.925Z" transform="translate(21.819 8.984)" fill="#ffca28"/>
    <path id="Trazado_721966" data-name="Trazado 721966" d="M57.819,18V40.984H6.925A4.94,4.94,0,0,1,2,36.059V22.925A4.94,4.94,0,0,1,6.925,18Z" transform="translate(0 8.984)" fill="#ffe082"/>
    <g id="Grupo_956622" data-name="Grupo 956622" transform="translate(10.209 33.551)">
      <ellipse id="Elipse_7711" data-name="Elipse 7711" cx="5" cy="4.5" rx="5" ry="4.5" transform="translate(52.791 0.402)" fill="#fafafa"/>
      <path id="Trazado_721967" data-name="Trazado 721967" d="M9.463,23.5a2.463,2.463,0,1,0,2.463,2.463A2.463,2.463,0,0,0,9.463,23.5Z" transform="translate(-7 -21.037)" fill="#fafafa"/>
      <path id="Trazado_721968" data-name="Trazado 721968" d="M14.463,23.5a2.463,2.463,0,1,0,2.463,2.463A2.463,2.463,0,0,0,14.463,23.5Z" transform="translate(-3.791 -21.037)" fill="#fafafa"/>
      <path id="Trazado_721969" data-name="Trazado 721969" d="M19.463,23.5a2.463,2.463,0,1,0,2.463,2.463A2.463,2.463,0,0,0,19.463,23.5Z" transform="translate(-0.583 -21.037)" fill="#fafafa"/>
    </g>
  </g>
</svg>
