<svg xmlns="http://www.w3.org/2000/svg" width="96" height="96" viewBox="0 0 96 96">
  <g id="Grupo_957298" data-name="Grupo 957298" transform="translate(-1172 -866)">
    <circle id="Elipse_7689" data-name="Elipse 7689" cx="48" cy="48" r="48" transform="translate(1172 866)" fill="#adc46c"/>
    <g id="pueblo" transform="translate(1191 880.914)">
      <path id="Trazado_721879" data-name="Trazado 721879" d="M60.928,156.438l-2.119-3.708a7.07,7.07,0,0,0-5.54-3.215h-3.7v15.429l14.812-2.469Z" transform="translate(-43.95 -128.951)" fill="#63aba1"/>
      <path id="Trazado_721880" data-name="Trazado 721880" d="M18.884,152.73l5.569,9.745-11.109,2.469-4.629-2.469V149.515h4.629A7.07,7.07,0,0,1,18.884,152.73Z" transform="translate(-7.728 -128.951)" fill="#83c49a"/>
      <path id="Trazado_721881" data-name="Trazado 721881" d="M376.6,152.783l-5.678,4.259v3.7h11.356v-3.7Z" transform="translate(-328.889 -131.849)" fill="#ffe0a2"/>
      <path id="Trazado_721882" data-name="Trazado 721882" d="M376.6,185.464l-5.678,4.259v7.1h11.356v-7.1Z" transform="translate(-328.889 -160.827)" fill="#fff"/>
      <path id="Trazado_721883" data-name="Trazado 721883" d="M413.784,228.6a.926.926,0,0,1-.926-.926v-3.7a.926.926,0,1,1,1.851,0v3.7A.926.926,0,0,1,413.784,228.6Z" transform="translate(-366.077 -194.151)" fill="#d3552b"/>
      <path id="Trazado_721884" data-name="Trazado 721884" d="M452.92,263.9l-2.469,13.825,2.469,13.825h3.7V263.9Z" transform="translate(-399.411 -230.374)" fill="#a3dc93"/>
      <rect id="Rect치ngulo_339257" data-name="Rect치ngulo 339257" width="52.46" height="27.649" transform="translate(1.049 33.524)" fill="#caed73"/>
      <path id="Trazado_721885" data-name="Trazado 721885" d="M47.628,296.579l-5.678,4.259v3.7H53.306v-3.7Z" transform="translate(-37.197 -259.352)" fill="#ffe0a2"/>
      <path id="Trazado_721886" data-name="Trazado 721886" d="M47.628,329.26l-5.678,4.259v4.629H53.306v-4.629Z" transform="translate(-37.197 -288.33)" fill="#fff"/>
      <path id="Trazado_721887" data-name="Trazado 721887" d="M84.817,372.4a.926.926,0,0,1-.926-.926v-3.7a.926.926,0,1,1,1.851,0v3.7A.926.926,0,0,1,84.817,372.4Z" transform="translate(-74.385 -321.654)" fill="#d3552b"/>
      <path id="Trazado_721888" data-name="Trazado 721888" d="M97.739,375.013l-5.678,4.259v3.7h11.356v-3.7Z" transform="translate(-81.63 -328.898)" fill="#ffe0a2"/>
      <path id="Trazado_721889" data-name="Trazado 721889" d="M97.739,407.694l-5.678,4.259v4.629h11.356v-4.629Z" transform="translate(-81.63 -357.876)" fill="#fff"/>
      <path id="Trazado_721890" data-name="Trazado 721890" d="M134.928,450.832a.926.926,0,0,1-.926-.926v-3.7a.926.926,0,1,1,1.851,0v3.7A.926.926,0,0,1,134.928,450.832Z" transform="translate(-118.818 -391.201)" fill="#d3552b"/>
      <path id="Trazado_721891" data-name="Trazado 721891" d="M294.663,377.191v4.937l13.578,6.172h3.7V377.191Z" transform="translate(-261.275 -330.829)" fill="#ffe0a2"/>
      <path id="Trazado_721892" data-name="Trazado 721892" d="M305.556,420.766l1.234,6.172H317.9v-6.172Z" transform="translate(-270.934 -369.467)" fill="#fff"/>
      <path id="Trazado_721893" data-name="Trazado 721893" d="M330.028,342.332H316.45v5.184H332.5Z" transform="translate(-280.593 -299.92)" fill="#d3552b"/>
      <path id="Trazado_721894" data-name="Trazado 721894" d="M251.088,174.742h7.406v-6.11l-3.7-2.777-3.7,2.777Z" transform="translate(-222.637 -143.44)" fill="#ffe0a2"/>
      <path id="Trazado_721895" data-name="Trazado 721895" d="M251.088,229.889h7.406V201.313l-3.7-2.777-3.7,2.777Z" transform="translate(-222.637 -172.418)" fill="#fff"/>
      <path id="Trazado_721896" data-name="Trazado 721896" d="M276.525,439.938a.926.926,0,0,1-.926-.926v-3.7a.926.926,0,1,1,1.851,0v3.7A.926.926,0,0,1,276.525,439.938Z" transform="translate(-244.371 -381.541)" fill="#d3552b"/>
      <rect id="Rect치ngulo_339258" data-name="Rect치ngulo 339258" width="7.406" height="3.703" transform="translate(28.451 37.227)" fill="#ffe0a2"/>
      <g id="Grupo_956567" data-name="Grupo 956567" transform="translate(26.909 5.011)">
        <path id="Trazado_721897" data-name="Trazado 721897" d="M407.311,18.427h-3.7V12.255h3.7a3.086,3.086,0,1,1,0,6.172Z" transform="translate(-384.784 -12.255)" fill="#b3efff"/>
        <path id="Trazado_721898" data-name="Trazado 721898" d="M244.27,47.4l-6.789-2.469v5.555h3.7A3.085,3.085,0,0,0,244.27,47.4Z" transform="translate(-237.481 -41.233)" fill="#b3efff"/>
      </g>
      <path id="Trazado_721899" data-name="Trazado 721899" d="M89.682,18.427a3.086,3.086,0,0,0,0-6.172h-21.6A3.085,3.085,0,0,0,65,15.341H52.652a3.086,3.086,0,0,0,0,6.172H70.859a3.085,3.085,0,0,0,3.086-3.086H89.682Z" transform="translate(-43.95 -7.244)" fill="#d9f7ff"/>
      <path id="Trazado_721900" data-name="Trazado 721900" d="M57.089,130.157H54.31v-5.609a.925.925,0,0,0,.864-1.612l-6.912-5.184a.926.926,0,0,0-1.111,0l-6.913,5.184a.926.926,0,0,0,.864,1.614v5.607h-4.32v-5.609a.925.925,0,0,0,.864-1.612L33.08,119.51v-4.474a.926.926,0,0,0-1.851,0v4.474l-4.567,3.425a.926.926,0,0,0,.864,1.614v5.607H20.966l-5.3-9.279A7.961,7.961,0,0,0,9.319,117.2H.987a.926.926,0,1,0,0,1.851H9.319a6.126,6.126,0,0,1,4.737,2.749l4.777,8.361H.926a.926.926,0,0,0,0,1.851h26.6v1.851h-.309a.926.926,0,1,0,0,1.851h.309v19.318a.926.926,0,0,0,.926.926H50.669a.926.926,0,0,0,.926-.926V146.08H51.9a.926.926,0,0,0,.836-1.324l-2.469-5.184a.926.926,0,0,0-.836-.528H36.782v-3.333h.309a.926.926,0,1,0,0-1.851h-.309v-1.851H57.089a.926.926,0,1,0,0-1.851ZM49.743,154.1H36.783V146.08H49.743ZM48.85,140.9l1.587,3.333H36.783V140.9ZM34.931,154.1H29.377V135.711h5.555ZM29.376,133.86V123.214l2.777-2.083,2.777,2.083V133.86Zm13.578-10.646,4.752-3.564,4.752,3.564v6.943H48.632v-2.777a.926.926,0,1,0-1.851,0v2.777H42.954Z" transform="translate(0 -97.558)"/>
      <path id="Trazado_721901" data-name="Trazado 721901" d="M43.872,302.666l-6.542-4.907V295.39a.925.925,0,0,0,.864-1.612l-6.912-5.184a.926.926,0,0,0-1.111,0l-6.912,5.184a.926.926,0,0,0,.864,1.614v6.533a.926.926,0,0,0,.926.926h1.234a.926.926,0,0,0,0-1.852h-.309v-6.943l4.752-3.564,4.752,3.564v3.7l-3.826,2.87v-2.407a.926.926,0,0,0-1.851,0v3.7c0,.03,0,.06,0,.089l-.869.651a.926.926,0,0,0,.864,1.614v6.533a.926.926,0,0,0,.926.926H42.082a.926.926,0,0,0,.926-.926v-6.535a.925.925,0,0,0,.864-1.612Zm-6.542,7.221v-2.777a.926.926,0,1,0-1.851,0v2.777H31.652v-6.943l4.752-3.564,4.752,3.564v6.943Z" transform="translate(-20.294 -252.107)"/>
      <path id="Trazado_721902" data-name="Trazado 721902" d="M45.408,15.194h21.91a4.019,4.019,0,0,0,3.9-3.086h14.92a4.012,4.012,0,0,0,0-8.023h-3.7a.926.926,0,1,0,0,1.851h3.7a2.16,2.16,0,0,1,0,4.32H70.4a.926.926,0,0,0-.926.926,2.163,2.163,0,0,1-2.16,2.16H45.408a2.16,2.16,0,1,1,0-4.32H57.751a.926.926,0,0,0,.926-.926,2.163,2.163,0,0,1,2.16-2.16h17.9a.926.926,0,1,0,0-1.851h-17.9a4.019,4.019,0,0,0-3.9,3.086H45.408a4.012,4.012,0,1,0,0,8.023Z" transform="translate(-36.705)"/>
      <path id="Trazado_721903" data-name="Trazado 721903" d="M34.7,456.17a.926.926,0,0,0-.926.926v1.234a.926.926,0,1,0,1.851,0V457.1A.926.926,0,0,0,34.7,456.17Z" transform="translate(-29.944 -400.859)"/>
      <path id="Trazado_721904" data-name="Trazado 721904" d="M198.1,336.34a.926.926,0,0,0-.926.926V338.5a.926.926,0,1,0,1.851,0v-1.234A.926.926,0,0,0,198.1,336.34Z" transform="translate(-174.833 -294.607)"/>
      <path id="Trazado_721905" data-name="Trazado 721905" d="M464.994,288.409a.926.926,0,0,0-.926.926v1.234a.926.926,0,0,0,1.851,0v-1.234A.926.926,0,0,0,464.994,288.409Z" transform="translate(-411.485 -252.107)"/>
      <circle id="Elipse_7697" data-name="Elipse 7697" cx="0.926" cy="0.926" r="0.926" transform="translate(31.228 27.353)"/>
    </g>
  </g>
</svg>
