<svg xmlns="http://www.w3.org/2000/svg" width="96" height="96" viewBox="0 0 96 96">
  <g id="Grupo_957296" data-name="Grupo 957296" transform="translate(-332 -866)">
    <circle id="Elipse_7691" data-name="Elipse 7691" cx="48" cy="48" r="48" transform="translate(332 866)" fill="#adc46c"/>
    <g id="microorganismo" transform="translate(351 885)">
      <g id="Grupo_956471" data-name="Grupo 956471" transform="translate(2.173 30.593)">
        <path id="Trazado_721806" data-name="Trazado 721806" d="M19.087,275.387h1.087v3.8H22.89v-.862l-2.014-2.014.768-.768,1.246,1.245v-4.2a2.168,2.168,0,1,1,2.624-2.688,21.782,21.782,0,0,1,3.862-5.639,19.508,19.508,0,0,1-2.854-4.823A27.078,27.078,0,0,0,18,279.19h1.087Z" transform="translate(-18 -258.713)" fill="#c7d95d"/>
        <path id="Trazado_721807" data-name="Trazado 721807" d="M375.146,271.323l.154.154v-4.2a2.173,2.173,0,1,1,1.087,0v4.2l1.246-1.245.768.768-2.014,2.014v.862H379.1v-2.716h1.087v2.716h.543a27.093,27.093,0,0,0-9.326-20.476,19.511,19.511,0,0,1-2.657,4.933A21.664,21.664,0,0,1,375.146,271.323Z" transform="translate(-326.403 -253.398)" fill="#c7d95d"/>
        <path id="Trazado_721808" data-name="Trazado 721808" d="M67.5,366.615v1.776q.232-1.027.56-2.016A2.166,2.166,0,0,1,67.5,366.615Z" transform="translate(-61.524 -352.735)" fill="#c7d95d"/>
      </g>
      <g id="Grupo_956472" data-name="Grupo 956472" transform="translate(8.149 35.527)">
        <path id="Trazado_721809" data-name="Trazado 721809" d="M68.06,307.478q-.327.987-.56,2.016v2.423l1.246-1.246.768.768L67.5,313.453v.862h3.26V302.905h1.087v11.409h.543a16.333,16.333,0,0,1,.543-4.18v-3.97H74.02V307.2a16.307,16.307,0,0,1,2.576-3.815L73.1,299.646c-.07-.084-.135-.17-.2-.255a21.776,21.776,0,0,0-3.861,5.639,2.1,2.1,0,0,1-.977,2.449Z" transform="translate(-67.5 -298.771)" fill="#a7c23b"/>
        <path id="Trazado_721810" data-name="Trazado 721810" d="M342.093,303.95v-2.3h1.087V309.8h1.087V298.393h1.087V309.8h3.26c0-.3-.01-.591-.022-.884l-1.992-1.992.768-.768,1.092,1.092a21.663,21.663,0,0,0-6.4-12.991c-.22.3-.445.59-.682.874L338.4,298.27A16.319,16.319,0,0,1,342.093,303.95Zm0-6.644h1.087v2.716h-1.087Z" transform="translate(-305.692 -294.259)" fill="#a7c23b"/>
      </g>
      <g id="Grupo_956473" data-name="Grupo 956473" transform="translate(13.039 39.537)">
        <path id="Trazado_721811" data-name="Trazado 721811" d="M121.5,343.43h1.087v-7.063h1.087v7.063h1.087v-3.8h1.087v.423a10.836,10.836,0,0,1,2.06-3.665l-3.83-3.88a16.306,16.306,0,0,0-2.576,3.815Z" transform="translate(-119.87 -331.897)" fill="#89a320"/>
        <path id="Trazado_721812" data-name="Trazado 721812" d="M310.042,335.209h1.087v3.8h1.087V331.95H313.3v7.063h1.087v-5.852a16.32,16.32,0,0,0-3.695-5.681l-3.8,3.883a10.827,10.827,0,0,1,3.152,7.649v-3.8Z" transform="translate(-282.878 -327.48)" fill="#89a320"/>
        <path id="Trazado_721813" data-name="Trazado 721813" d="M108,392.559h.543v-4.18A16.334,16.334,0,0,0,108,392.559Z" transform="translate(-108 -381.026)" fill="#89a320"/>
      </g>
      <g id="Grupo_956474" data-name="Grupo 956474" transform="translate(19.015 43.42)">
        <path id="Trazado_721814" data-name="Trazado 721814" d="M157.5,371.687h9.016l-6.956-7.046a10.841,10.841,0,0,0-2.06,3.665v3.38Z" transform="translate(-157.5 -364.037)" fill="#6b8014"/>
        <path id="Trazado_721815" data-name="Trazado 721815" d="M252.3,359.641l-7.5,7.649h10.648A10.827,10.827,0,0,0,252.3,359.641Z" transform="translate(-234.261 -359.641)" fill="#6b8014"/>
      </g>
      <path id="Trazado_721816" data-name="Trazado 721816" d="M53.243,423H52.156v1.087H5.433V423H4.346v1.087H0v5.433H57.589v-5.433H53.243ZM9.236,426.26h-3.8v-1.087h3.8Zm3.8,2.173H10.323v-1.087h2.716Zm2.173-2.173H12.5v-1.087h2.716Zm28.795,0h-3.26v-1.087h3.26Zm5.433,2.173H44.55v-1.087h4.89Zm4.89-3.26v1.087h-3.8v-1.087Z" transform="translate(0 -371.93)" fill="#f5ce5a"/>
      <path id="Trazado_721817" data-name="Trazado 721817" d="M420.673,343.087a1.087,1.087,0,1,0-1.087,1.087A1.088,1.088,0,0,0,420.673,343.087Z" transform="translate(-367.973 -300.71)" fill="#ff5c5c"/>
      <path id="Trazado_721818" data-name="Trazado 721818" d="M412.216,337.269a1.947,1.947,0,1,0-.543.077A2.171,2.171,0,0,0,412.216,337.269Zm-1.63-2.1a1.087,1.087,0,1,1,1.087,1.087A1.088,1.088,0,0,1,410.587,335.173Z" transform="translate(-360.06 -292.796)" fill="#fff"/>
      <g id="Grupo_956475" data-name="Grupo 956475" transform="translate(46.723 39.661)">
        <path id="Trazado_721819" data-name="Trazado 721819" d="M411.436,372.081l-.768-.768-1.246,1.245v-4.2a1.946,1.946,0,0,1-1.087,0v4.2l-.154-.154-1.092-1.092-.768.768,1.992,1.992.022.022v.862h1.087V374.1Z" transform="translate(-403.989 -363.548)" fill="#5f7000"/>
        <rect id="Rectángulo_339240" data-name="Rectángulo 339240" width="1.087" height="11.409" fill="#5f7000"/>
      </g>
      <path id="Trazado_721820" data-name="Trazado 721820" d="M369,355.5v8.149h1.087V355.5Z" transform="translate(-324.45 -312.58)" fill="#ffff3d"/>
      <rect id="Rectángulo_339241" data-name="Rectángulo 339241" width="1.087" height="7.063" transform="translate(42.377 44.007)" fill="#5f7000"/>
      <g id="Grupo_956476" data-name="Grupo 956476" transform="translate(40.204 47.267)">
        <rect id="Rectángulo_339242" data-name="Rectángulo 339242" width="1.087" height="3.803" fill="#ffff3d"/>
        <rect id="Rectángulo_339243" data-name="Rectángulo 339243" width="1.087" height="2.716" transform="translate(14.669 1.087)" fill="#ffff3d"/>
      </g>
      <path id="Trazado_721821" data-name="Trazado 721821" d="M56.173,343.087a1.087,1.087,0,1,0-1.087,1.087A1.088,1.088,0,0,0,56.173,343.087Z" transform="translate(-47.48 -300.71)" fill="#ff5c5c"/>
      <path id="Trazado_721822" data-name="Trazado 721822" d="M47.716,337.269a2.211,2.211,0,0,0,1.63-2.1,2.14,2.14,0,0,0-.092-.592,2.192,2.192,0,1,0-1.537,2.688Zm-1.63-2.1a1.087,1.087,0,1,1,1.087,1.087A1.088,1.088,0,0,1,46.087,335.173Z" transform="translate(-39.567 -292.796)" fill="#fff"/>
      <g id="Grupo_956477" data-name="Grupo 956477" transform="translate(5.049 39.661)">
        <path id="Trazado_721823" data-name="Trazado 721823" d="M44.921,374.956v-.862l2.014-2.014-.768-.768-1.246,1.246v-4.2a1.946,1.946,0,0,1-1.087,0v4.2l-1.246-1.245-.768.768,2.014,2.014v.862Z" transform="translate(-41.821 -363.547)" fill="#5f7000"/>
        <rect id="Rectángulo_339244" data-name="Rectángulo 339244" width="1.087" height="11.409" transform="translate(6.36)" fill="#5f7000"/>
      </g>
      <path id="Trazado_721824" data-name="Trazado 721824" d="M113.587,355.5H112.5v8.149h1.087V355.5Z" transform="translate(-98.918 -312.58)" fill="#ffff3d"/>
      <rect id="Rectángulo_339245" data-name="Rectángulo 339245" width="1.087" height="7.063" transform="translate(15.756 44.007)" fill="#5f7000"/>
      <path id="Trazado_721825" data-name="Trazado 721825" d="M149.587,391.5H148.5v3.8h1.087v-3.8Z" transform="translate(-130.571 -344.233)" fill="#ffff3d"/>
      <rect id="Rectángulo_339246" data-name="Rectángulo 339246" width="1.087" height="3.803" transform="translate(3.26 47.267)" fill="#5f7000"/>
      <path id="Trazado_721826" data-name="Trazado 721826" d="M174.128,344.555a19.586,19.586,0,0,1-8.839-2.121l8.837,8.953,8.7-8.881A19.579,19.579,0,0,1,174.128,344.555Z" transform="translate(-145.333 -301.091)" fill="#ffd130"/>
      <path id="Trazado_721827" data-name="Trazado 721827" d="M81.015,68.055,84.509,71.8l3.83,3.88L95.3,82.724h1.524l7.5-7.649,3.8-3.883,2.982-3.137c.237-.285.462-.578.682-.874a19.575,19.575,0,1,0-30.972.62C80.88,67.886,80.945,67.971,81.015,68.055ZM96.057,81.95,87.22,73a19.487,19.487,0,0,0,17.539.072ZM77.587,55.56a18.471,18.471,0,1,1,4.925,12.558A18.493,18.493,0,0,1,77.587,55.56Z" transform="translate(-67.264 -31.655)"/>
      <path id="Trazado_721828" data-name="Trazado 721828" d="M132.29,191.735c1.88,1.88,4.937,3.777,7.53,3.777a3.934,3.934,0,0,0,2.892-1.138,4.177,4.177,0,0,0,1.416-2.64,2.684,2.684,0,0,0-.866-2.049,16.31,16.31,0,0,0-2.741-2,9.52,9.52,0,0,1-4.177-4.177,16.314,16.314,0,0,0-2-2.741,2.537,2.537,0,0,0-1.841-.717,4.117,4.117,0,0,0-2.849,1.266c-1.493,1.493-1.242,3.567-.769,5.044A14.232,14.232,0,0,0,132.29,191.735Zm6.787-.829a1.087,1.087,0,1,1-1.087-1.087A1.087,1.087,0,0,1,139.078,190.906Zm-4.346,1.087a.543.543,0,1,1,.543-.543A.543.543,0,0,1,134.731,191.993Zm5.433,2.716a.543.543,0,1,1,.543-.543A.543.543,0,0,1,140.164,194.709Zm1.087-4.346a.543.543,0,1,1-.543.543A.543.543,0,0,1,141.251,190.363Zm-9.236-8.693a1.087,1.087,0,1,1-1.087,1.087A1.087,1.087,0,0,1,132.015,181.67Zm2.716,5.433a1.63,1.63,0,1,1-1.63-1.63A1.63,1.63,0,0,1,134.731,187.1Zm-.543-2.716a.543.543,0,1,1,.543.543A.543.543,0,0,1,134.188,184.387ZM136.9,187.1a.543.543,0,1,1-.543.543A.543.543,0,0,1,136.9,187.1Z" transform="translate(-112.999 -158.309)" fill="#ccc600"/>
      <g id="Grupo_956478" data-name="Grupo 956478" transform="translate(17.929 23.362)">
        <circle id="Elipse_7692" data-name="Elipse 7692" cx="1.069" cy="1.069" r="1.069" transform="translate(6.126 8.177)" fill="#5f7000"/>
        <circle id="Elipse_7693" data-name="Elipse 7693" cx="1.087" cy="1.087" r="1.087" fill="#5f7000"/>
        <circle id="Elipse_7694" data-name="Elipse 7694" cx="1.604" cy="1.604" r="1.604" transform="translate(0.78 3.901)" fill="#5f7000"/>
        <path id="Trazado_721829" data-name="Trazado 721829" d="M176.043,212.587a.543.543,0,1,0-.543-.543A.543.543,0,0,0,176.043,212.587Z" transform="translate(-172.24 -209.327)" fill="#5f7000"/>
        <path id="Trazado_721830" data-name="Trazado 721830" d="M194.043,239.587a.543.543,0,1,0-.543-.543A.543.543,0,0,0,194.043,239.587Z" transform="translate(-188.067 -233.067)" fill="#5f7000"/>
        <path id="Trazado_721831" data-name="Trazado 721831" d="M176.043,270a.543.543,0,1,0,.543.543A.543.543,0,0,0,176.043,270Z" transform="translate(-172.24 -260.764)" fill="#5f7000"/>
        <path id="Trazado_721832" data-name="Trazado 721832" d="M221.043,292.5a.543.543,0,1,0,.543.543A.543.543,0,0,0,221.043,292.5Z" transform="translate(-211.807 -280.547)" fill="#5f7000"/>
        <path id="Trazado_721833" data-name="Trazado 721833" d="M230.043,266.587a.543.543,0,1,0-.543-.543A.543.543,0,0,0,230.043,266.587Z" transform="translate(-219.721 -256.807)" fill="#5f7000"/>
      </g>
      <path id="Trazado_721834" data-name="Trazado 721834" d="M109.579,171.928l-1.266.774.567.927,1.457-.891a15.454,15.454,0,0,0,5.754,3.614l-.415,1.662,1.054.263.414-1.653a7.419,7.419,0,0,0,1.432.15,5.561,5.561,0,0,0,1.647-.24l.927,1.854.972-.486-.9-1.8a4.947,4.947,0,0,0,1.016-.779,7.893,7.893,0,0,0,.641-.725l1.693,1.27.652-.869-1.747-1.31a4.16,4.16,0,0,0,.494-1.718,3.74,3.74,0,0,0-1.183-2.873,9.341,9.341,0,0,0-.888-.764l1.209-1.209-.768-.768L121,167.687c-.378-.255-.763-.5-1.146-.747a8.533,8.533,0,0,1-3.841-3.84c-.108-.171-.218-.342-.328-.514l1.442-1.442-.768-.768-1.288,1.287a10.981,10.981,0,0,0-1.211-1.492,3.494,3.494,0,0,0-1.464-.867v-1.8h-1.087v1.638l-.058,0a5.053,5.053,0,0,0-3,1.057l-1.99-1.99-.768.768,1.96,1.96a4.841,4.841,0,0,0-1.183,2.4l-1.718-.325-.2,1.068,1.836.347a8.174,8.174,0,0,0,.413,2.439A15.037,15.037,0,0,0,109.579,171.928Zm-1.174-10.44a4.117,4.117,0,0,1,2.849-1.266,2.538,2.538,0,0,1,1.841.717,16.32,16.32,0,0,1,2,2.741,9.521,9.521,0,0,0,4.177,4.177,16.309,16.309,0,0,1,2.741,2,2.684,2.684,0,0,1,.866,2.049,4.177,4.177,0,0,1-1.416,2.64,3.935,3.935,0,0,1-2.892,1.138c-2.593,0-5.65-1.9-7.53-3.777a14.232,14.232,0,0,1-3.408-5.378C107.163,165.056,106.912,162.981,108.405,161.488Z" transform="translate(-91.754 -138.485)"/>
      <rect id="Rectángulo_339247" data-name="Rectángulo 339247" width="1.087" height="2.716" transform="translate(44.55 38.574)" fill="#ffff3d"/>
      <path id="Trazado_721835" data-name="Trazado 721835" d="M297,256.5v.815a1.9,1.9,0,0,0,1.9,1.9.816.816,0,0,1,.815.815v.815H300.8v-.815a1.9,1.9,0,0,0-1.9-1.9.816.816,0,0,1-.815-.815V256.5Z" transform="translate(-261.142 -225.532)" fill="#de6e52"/>
      <path id="Trazado_721836" data-name="Trazado 721836" d="M321.4,195.4a.816.816,0,0,1-.815.815H319.5V197.3h1.087a1.9,1.9,0,0,0,1.9-1.9.816.816,0,0,1,.815-.815h.543V193.5H323.3A1.9,1.9,0,0,0,321.4,195.4Z" transform="translate(-280.926 -170.138)" fill="#4f7bd6"/>
      <path id="Trazado_721837" data-name="Trazado 721837" d="M137.988,109.9a.816.816,0,0,1,.815-.815h.543V108H138.8a1.9,1.9,0,0,0-1.9,1.9.816.816,0,0,1-.815.815H135V111.8h1.087A1.9,1.9,0,0,0,137.988,109.9Z" transform="translate(-118.701 -94.961)"/>
      <g id="Grupo_956479" data-name="Grupo 956479" transform="translate(5.976)">
        <path id="Trazado_721838" data-name="Trazado 721838" d="M51.673,4.89h6.52V3.8h-6.52a1.088,1.088,0,0,1-1.087-1.087V2.173a1.088,1.088,0,0,1,1.087-1.087h.543A1.088,1.088,0,0,1,53.3,2.173H54.39A2.176,2.176,0,0,0,52.216,0h-.543A2.176,2.176,0,0,0,49.5,2.173v.543A2.176,2.176,0,0,0,51.673,4.89Z" transform="translate(-49.5)" fill="#7bcad4"/>
        <rect id="Rectángulo_339248" data-name="Rectángulo 339248" width="2.173" height="1.087" transform="translate(9.779 3.803)" fill="#7bcad4"/>
        <rect id="Rectángulo_339249" data-name="Rectángulo 339249" width="4.346" height="1.087" transform="translate(41.29 7.606)" fill="#7bcad4"/>
        <rect id="Rectángulo_339250" data-name="Rectángulo 339250" width="2.173" height="1.087" transform="translate(38.031 7.606)" fill="#7bcad4"/>
      </g>
      <g id="Grupo_956480" data-name="Grupo 956480" transform="translate(0 51.067)">
        <path id="Trazado_721839" data-name="Trazado 721839" d="M87.377,422.983H45v1.087H91.723v-1.087H87.377Z" transform="translate(-39.567 -422.981)" fill="#d18947"/>
        <path id="Trazado_721840" data-name="Trazado 721840" d="M444.26,423H441v1.087h4.346V423Z" transform="translate(-387.757 -422.998)" fill="#d18947"/>
        <rect id="Rectángulo_339251" data-name="Rectángulo 339251" width="3.803" height="1.087" transform="translate(5.433 2.175)" fill="#d18947"/>
        <rect id="Rectángulo_339252" data-name="Rectángulo 339252" width="2.716" height="1.087" transform="translate(10.323 4.349)" fill="#d18947"/>
        <rect id="Rectángulo_339253" data-name="Rectángulo 339253" width="2.716" height="1.087" transform="translate(12.496 2.175)" fill="#d18947"/>
        <rect id="Rectángulo_339254" data-name="Rectángulo 339254" width="3.803" height="1.087" transform="translate(50.527 2.175)" fill="#d18947"/>
        <rect id="Rectángulo_339255" data-name="Rectángulo 339255" width="4.89" height="1.087" transform="translate(44.55 4.349)" fill="#d18947"/>
        <rect id="Rectángulo_339256" data-name="Rectángulo 339256" width="3.26" height="1.087" transform="translate(40.747 2.175)" fill="#d18947"/>
        <path id="Trazado_721841" data-name="Trazado 721841" d="M4.346,423H0v1.087H4.346Z" transform="translate(0 -422.998)" fill="#d18947"/>
      </g>
      <path id="Trazado_721842" data-name="Trazado 721842" d="M103.972,45a18.472,18.472,0,1,0,18.472,18.472A18.493,18.493,0,0,0,103.972,45Zm-12.5,10.323h1.087a.816.816,0,0,0,.815-.815,1.9,1.9,0,0,1,1.9-1.9h.543v1.087h-.543a.816.816,0,0,0-.815.815,1.9,1.9,0,0,1-1.9,1.9H91.476Zm16.516,21.623-1.693-1.27a7.86,7.86,0,0,1-.641.725,4.947,4.947,0,0,1-1.016.779l.9,1.8-.972.486-.927-1.854a5.557,5.557,0,0,1-1.647.24,7.417,7.417,0,0,1-1.432-.15l-.414,1.653L99.1,79.1l.415-1.662A15.453,15.453,0,0,1,93.76,73.82l-1.457.891-.567-.927L93,73.01a15.04,15.04,0,0,1-2.977-5.064,8.174,8.174,0,0,1-.413-2.439l-1.836-.347.2-1.068,1.718.325a4.84,4.84,0,0,1,1.183-2.4l-1.96-1.96.768-.768,1.99,1.99a5.053,5.053,0,0,1,3-1.057l.058,0V58.582h1.087v1.8a3.492,3.492,0,0,1,1.464.867A10.981,10.981,0,0,1,98.5,62.745l1.288-1.287.768.768-1.442,1.442c.11.171.22.342.328.514a13.972,13.972,0,0,0,1.607,2.234,14.011,14.011,0,0,0,2.234,1.606c.383.243.768.492,1.146.747l1.335-1.334.768.768-1.209,1.209a9.407,9.407,0,0,1,.888.764,3.74,3.74,0,0,1,1.183,2.873,4.16,4.16,0,0,1-.494,1.719l1.747,1.31Zm2.4-13.035-1.066.21-.459-2.331c-.185.017-.369.028-.547.028a5.794,5.794,0,0,1-2.912-.753L104.1,63.019l-.9-.605,1.326-1.977a6.261,6.261,0,0,1-1.595-2.056,6.186,6.186,0,0,1-.328-.9l-2.321.458-.21-1.066,2.339-.462c-.017-.177-.035-.352-.035-.545a5.924,5.924,0,0,1,.357-2.036,5.792,5.792,0,0,1,.4-.871l-1.961-1.315.6-.9,1.972,1.321a5.872,5.872,0,0,1,2.062-1.592,5.731,5.731,0,0,1,.9-.325l-.458-2.324,1.066-.21.461,2.336c.179-.017.359-.032.546-.032a5.778,5.778,0,0,1,2.913.748l1.309-1.952.9.605-1.324,1.975a6.416,6.416,0,0,1,1.593,2.058,6.226,6.226,0,0,1,.328.9l2.322-.458.21,1.066-2.339.462c.017.177.035.352.035.545a5.925,5.925,0,0,1-.357,2.036,5.792,5.792,0,0,1-.4.871l1.961,1.315-.6.9L112.9,59.67a5.872,5.872,0,0,1-2.062,1.592,5.781,5.781,0,0,1-.9.325Zm4.447,10.971h-1.087v-.815a.816.816,0,0,0-.815-.815,1.9,1.9,0,0,1-1.9-1.9v-.815h1.087v.815a.816.816,0,0,0,.815.815,1.9,1.9,0,0,1,1.9,1.9Zm2.716-10.866a.816.816,0,0,0-.815.815,1.9,1.9,0,0,1-1.9,1.9h-1.087V65.645h1.087a.816.816,0,0,0,.815-.815,1.9,1.9,0,0,1,1.9-1.9h.543v1.087Z" transform="translate(-75.177 -39.567)" fill="#fff"/>
      <path id="Trazado_721843" data-name="Trazado 721843" d="M243.485,101.628a4.851,4.851,0,1,0-2.746,2.517A4.839,4.839,0,0,0,243.485,101.628Zm-5.632,1.136a.657.657,0,1,1,.657-.657A.657.657,0,0,1,237.853,102.764Zm0-3.283a1.313,1.313,0,1,1,1.312-1.313A1.313,1.313,0,0,1,237.853,99.481Zm3.554,1.2a.928.928,0,1,1,.928-.928A.928.928,0,0,1,241.407,100.681Z" transform="translate(-205.934 -83.273)" fill="#de6e52"/>
      <path id="Trazado_721844" data-name="Trazado 721844" d="M218.961,78.69l1.972,1.321.6-.9-1.961-1.315a5.787,5.787,0,0,0,.4-.871,5.926,5.926,0,0,0,.357-2.036c0-.193-.018-.368-.035-.545l2.339-.462-.21-1.066-2.322.458a6.2,6.2,0,0,0-.328-.9,6.416,6.416,0,0,0-1.593-2.058l1.324-1.975-.9-.605L217.3,69.684a5.779,5.779,0,0,0-2.913-.748c-.186,0-.366.015-.546.032l-.461-2.336-1.066.21.458,2.324a5.731,5.731,0,0,0-.9.325,5.87,5.87,0,0,0-2.062,1.592l-1.972-1.321-.6.9,1.961,1.315a5.785,5.785,0,0,0-.4.871,5.924,5.924,0,0,0-.357,2.036c0,.193.018.368.035.545l-2.339.462.21,1.066,2.321-.458a6.158,6.158,0,0,0,.328.9,6.258,6.258,0,0,0,1.6,2.056l-1.326,1.977.9.605,1.311-1.955a5.794,5.794,0,0,0,2.912.753c.178,0,.361-.011.547-.028l.459,2.331,1.066-.21L216,80.607a5.783,5.783,0,0,0,.9-.325A5.873,5.873,0,0,0,218.961,78.69Zm-4.577,1.06a4.886,4.886,0,0,1-4.572-3.2,4.866,4.866,0,0,1,6.628-6.073,4.887,4.887,0,0,1,2.516,2.746,4.866,4.866,0,0,1-2.908,6.237A4.884,4.884,0,0,1,214.384,79.749Z" transform="translate(-181.243 -58.587)"/>
      <g id="Grupo_956481" data-name="Grupo 956481" transform="translate(30.605 13.582)">
        <circle id="Elipse_7695" data-name="Elipse 7695" cx="1.313" cy="1.313" r="1.313" fill="#fff"/>
        <circle id="Elipse_7696" data-name="Elipse 7696" cx="0.657" cy="0.657" r="0.657" transform="translate(0.656 4.596)" fill="#fff"/>
        <path id="Trazado_721845" data-name="Trazado 721845" d="M287.053,128.813a.928.928,0,1,0,.928.928A.928.928,0,0,0,287.053,128.813Z" transform="translate(-282.185 -126.843)" fill="#fff"/>
      </g>
    </g>
  </g>
</svg>
