<svg xmlns="http://www.w3.org/2000/svg" width="185" height="185" viewBox="0 0 185 185">
  <g id="_038---Improved-Sense-of-Smell" data-name="038---Improved-Sense-of-Smell" transform="translate(0 0.085)">
    <circle id="Oval" cx="34.5" cy="34.5" r="34.5" transform="translate(116 -0.086)" fill="#4fba6f"/>
    <path id="Shape" d="M52.378,37.346c-1.7,0-1.771-.473-8.485-7.188a3.135,3.135,0,0,1,4.432-4.432l3.715,3.715L68.678,7.254a3.135,3.135,0,1,1,5.015,3.762L54.885,36.092A3.135,3.135,0,0,1,52.378,37.346Z" transform="translate(91.815 12.78)" fill="#ecf0f1"/>
    <path id="Shape-2" data-name="Shape" d="M132.618,112.847a28.212,28.212,0,0,1-37.02,26.8,43.772,43.772,0,0,1-57.614,0A28.212,28.212,0,1,1,24.348,85.043L43.657,17.46a24.055,24.055,0,0,1,46.267,0l19.309,67.582a28.212,28.212,0,0,1,23.384,27.8Z" transform="translate(2.171 -0.029)" fill="#fdd7ad"/>
    <path id="Shape-3" data-name="Shape" d="M17.821,48.885a7.837,7.837,0,1,1-3.291-13.7Z" transform="translate(10.672 74.685)" fill="#59474e"/>
    <path id="Shape-4" data-name="Shape" d="M38.2,35.187a7.837,7.837,0,1,1-3.291,13.7Z" transform="translate(74.52 74.685)" fill="#59474e"/>
    <g id="Grupo_946427" data-name="Grupo 946427" transform="translate(0 150.433)">
      <path id="Shape-5" data-name="Shape" d="M36.7,48.92a3.135,3.135,0,0,0-3.417-.68c-.84.348-.235-.107-10.423,10.081a3.135,3.135,0,0,0,4.432,4.432L31.346,58.7v4.972A12.538,12.538,0,0,1,18.808,76.21H3.135a3.135,3.135,0,1,0,0,6.269H18.808A18.827,18.827,0,0,0,37.615,63.671V58.7l4.053,4.053A3.135,3.135,0,0,0,46.1,58.32Z" transform="translate(0 -47.998)" fill="#3b97d3"/>
      <path id="Shape-6" data-name="Shape" d="M72.861,76.212H57.188A12.538,12.538,0,0,1,44.649,63.673V58.7L48.7,62.755a3.135,3.135,0,0,0,4.432-4.432l-9.4-9.4a3.135,3.135,0,0,0-3.417-.68c-.84.348-.235-.107-10.423,10.081a3.135,3.135,0,0,0,4.432,4.432L38.38,58.7v4.972A18.827,18.827,0,0,0,57.188,82.481H72.861a3.135,3.135,0,1,0,0-6.269Z" transform="translate(61.928 -48)" fill="#3b97d3"/>
      <path id="Shape-7" data-name="Shape" d="M32.731,51.92a3.135,3.135,0,0,0-3.417-.68c-.84.348-.235-.107-10.423,10.081a3.135,3.135,0,0,0,4.432,4.432L27.38,61.7V72.941a3.135,3.135,0,1,0,6.269,0V61.7L37.7,65.753a3.135,3.135,0,1,0,4.432-4.432Z" transform="translate(38.447 -41.594)" fill="#3b97d3"/>
    </g>
    <path id="Shape-8" data-name="Shape" d="M54.019,83.154A47.073,47.073,0,0,1,7,36.135a3.135,3.135,0,0,1,6.269,0,40.75,40.75,0,0,0,81.5,0,3.135,3.135,0,0,1,6.269,0A47.073,47.073,0,0,1,54.019,83.154Z" transform="translate(14.942 70.414)" fill="#f9c795"/>
  </g>
</svg>
