<svg xmlns="http://www.w3.org/2000/svg" xmlns:xlink="http://www.w3.org/1999/xlink" width="400" height="391.085" viewBox="0 0 400 391.085">
  <defs>
    <clipPath id="clip-path">
      <path id="Trazado_684731" data-name="Trazado 684731" d="M184.863,418S86.206,403.151,61.1,318.37,26.939,181.726,68.523,147.509s49.01-26.791,83.663-56.494,74.194-72.276,153.433-60.89S415.055,82.1,432.382,125.174s.991,87.812-15.346,115.935-25.247,54.856-28.218,86.539S340.312,429.146,184.863,418Z" transform="translate(-39.797 -28.236)" fill="none"/>
    </clipPath>
  </defs>
  <g id="Grupo_946418" data-name="Grupo 946418" transform="translate(-39.797 -28.103)">
    <g id="Grupo_946416" data-name="Grupo 946416" transform="translate(39.797 28.103)">
      <path id="Trazado_684726" data-name="Trazado 684726" d="M184.863,417.995S86.206,403.146,61.1,318.365,26.939,181.721,68.523,147.5s42.714-30.136,77.367-59.839,80.49-68.932,159.729-57.545S415.055,82.1,432.382,125.168s.991,87.812-15.346,115.935-25.247,54.856-28.218,86.538S340.312,429.14,184.863,417.995Z" transform="translate(-39.797 -28.103)" fill="#c8bbd3"/>
      <g id="Grupo_946367" data-name="Grupo 946367" transform="translate(0 0.127)">
        <g id="Grupo_946366" data-name="Grupo 946366" clip-path="url(#clip-path)">
          <g id="Grupo_946365" data-name="Grupo 946365" transform="translate(-10.064 25.156)">
            <path id="Trazado_684727" data-name="Trazado 684727" d="M29.307,283.493s64.686-16.5,120.791-15.182,183.5,19.142,275.245-8.58c0,0-21.782,122.111-51.485,141.913s-148.513,67.987-248.183,21.782S29.307,283.493,29.307,283.493Z" transform="translate(-29.295 -63.032)" fill="#d4c6df"/>
            <path id="Trazado_684728" data-name="Trazado 684728" d="M95.427,120.491s44.224-12.541,112.21-12.541,151.155-14.521,207.92-44.224l-13.2-9.24S350.49,89.349,276.944,96.069,133.71,103.99,95.427,120.491Z" transform="translate(-32.049 -54.485)" fill="#d4c6df"/>
            <path id="Trazado_684729" data-name="Trazado 684729" d="M34.818,184.315s95.049-34.983,153.134-31.683S352.307,161.873,450,136.13l-7.261-7.261s-50.824,19.8-138.613,21.782-95.709-5.941-153.794-1.32S34.818,184.315,34.818,184.315Z" transform="translate(-29.525 -57.583)" fill="#d4c6df"/>
            <path id="Trazado_684730" data-name="Trazado 684730" d="M31.555,218.313s57.313-33.9,123.289-20.187,179.506,18.991,295.677-42.4l7.921,15.917S336.99,236.753,184.515,210.763C184.515,210.763,113.577,187.166,31.555,218.313Z" transform="translate(-29.389 -58.701)" fill="#d4c6df"/>
          </g>
        </g>
      </g>
      <g id="Grupo_946368" data-name="Grupo 946368" transform="translate(112.77 156.75)">
        <path id="Trazado_684732" data-name="Trazado 684732" d="M291.668,197.408c-2.629-.136-5.084-1.232-7.661-1.714-2.39-.447-4.784-.9-7.191-1.227-1.032-.139-2.035-.443-3.066-.544a21.265,21.265,0,0,0-3.692.315c-2.086.153-4.155.015-6.24-.03-2.285-1.692-6.146-1.014-8.725-1.008a50.413,50.413,0,0,1-5.781-.665,18.284,18.284,0,0,0-5.631.7,18.573,18.573,0,0,1-3.39.716,17.906,17.906,0,0,1-3.3-.5,31.556,31.556,0,0,0-4.244-.349,52.752,52.752,0,0,0-6.359.228c-1.968.195-4.015.9-5.96.973-1.837.07-3.388-1.07-5.178-1.291a23.8,23.8,0,0,0-6.089.247c-1.908.257-3.764.856-5.67,1.083-2.376.285-4.861-.511-7.282-.405a26.624,26.624,0,0,0-5.339.917c-.77.2-1.555.561-2.324.709-1.108.214-1.1-.161-1.76-.775a11.033,11.033,0,0,0-7.2-3.052c-3.686-.216-6.684-.086-9.487,2.4-.626.556.512.058-.765.536-.572.214-.753.051-1.3.418a2.541,2.541,0,0,0-1.227,2.132,4.7,4.7,0,0,0-3.473.9c-.31.227-.587.695-.869.874a9.132,9.132,0,0,1-2.382.621c-1.59.5-3.885,2.771-1.765,4.154a.463.463,0,0,0,.169.067.441.441,0,0,0,.413.248c1.97-.018,3.265.279,5.115-.3a9.546,9.546,0,0,0,1.61-.4c1.572-.841.633-1.691,3.194-1.294,1.386.216,3.214,0,4.49.435,1.8.614,3.1,1.5,5.141,1.31a7.1,7.1,0,0,0,2.2-.593,8.207,8.207,0,0,1,4.043-.882,10.85,10.85,0,0,0,5.607-.711,17.3,17.3,0,0,1,2.877-1.167,20.556,20.556,0,0,1,4.64-.363c2.47-.016,4.892.013,7.35-.185,2.114-.171,4.18-.152,6.291-.474,3.044-.464,6.409-1.311,9.414-.409a29.2,29.2,0,0,0,5.024.829c2.971.349,5.284-.266,8.195-.484a33.08,33.08,0,0,0,6.239-1.394,42.431,42.431,0,0,1,6.452-.993c2.136-.225,4.268.391,6.44.4a76.253,76.253,0,0,0,7.82.136,37.514,37.514,0,0,1,8.138.062c1.228.135,2.492-.109,3.7.038,1.174.144,2.117.864,3.283,1,2.565.3,5.208-.68,7.786-.506,1.274.086,2.424.659,3.687.737a31.27,31.27,0,0,0,4.023-.487A.5.5,0,0,0,291.668,197.408Z" transform="translate(-157.467 -191.664)" fill="#ded2e7"/>
        <path id="Trazado_684733" data-name="Trazado 684733" d="M158.1,309.043V204.093l7.426-.5,3.96,104.95Z" transform="translate(-157.493 -192.161)" fill="#baadc3"/>
      </g>
      <g id="Grupo_946369" data-name="Grupo 946369" transform="translate(17.925 172.64)">
        <path id="Trazado_684734" data-name="Trazado 684734" d="M135.537,209.745c-1.131-.5-2.433,0-3.612.038-2.321.084-4.606.478-6.938.4-1.874-.067-3.582-.941-5.463-1.024-.839-.036-1.729.159-2.57.19a9.934,9.934,0,0,1-2.6.087c-.186-.07-.451-.454-.7-.562a2.752,2.752,0,0,0-.96-.13,17.5,17.5,0,0,0-5.4.755c-.7.192-1.213.535-1.854.766-.844.306-.471.206-1.242-.2a8.172,8.172,0,0,0-4.137-.494c-1.73.053-3.492.137-5.209.346-1.385.169-2.764-1.028-4.273-1.145a22.883,22.883,0,0,0-3.1-.039c-.786.049-1.562.458-2.3.508-1,.068-1.238-.567-2.006-.84a6.939,6.939,0,0,0-2.559-.059,24.631,24.631,0,0,0-5.2,1.05c-1.3.347-1.679-.343-2.948-.547-1.829-.293-6.12-.173-6.294,2.383-.024.353.4,1.159.316,1.4-.063.183-1,.391-1.17.438a15.348,15.348,0,0,0-3.043.867c-.515.3-.338.391-.825.844-.908.846-2.161.6-2.63,1.967a2.16,2.16,0,0,0-.127.656.412.412,0,0,0,.285.692h.031a1.136,1.136,0,0,0,.4.187.376.376,0,0,0,.425-.155c1.889.095,4.153.291,5.594-.776.515-.381.838-.855,1.363-1.241.821-.6,1.763-.417,2.73-.509,2.886-.271,5.79-.22,8.669-.568,1.217-.148,2.416-.42,3.625-.582a39.93,39.93,0,0,1,4.12-.235c3.032-.1,5.633,1.277,8.686,1a11.666,11.666,0,0,1,5.459.523,9.838,9.838,0,0,0,3.433.553,11.493,11.493,0,0,0,3.878-.536c1.5-.533,2.6-1.835,4.12-2.245a32.88,32.88,0,0,1,8.808-.689,76.274,76.274,0,0,0,9.127-.678c1.5-.181,2.98-.688,4.455-1.015.6-.132,1.7-.151,1.822-.918A.416.416,0,0,0,135.537,209.745Z" transform="translate(-58.504 -208.245)" fill="#ded2e7"/>
        <path id="Trazado_684735" data-name="Trazado 684735" d="M58.5,304.233v-85.95l6.081-.405,3.243,85.95Z" transform="translate(-58.5 -208.646)" fill="#baadc3"/>
      </g>
      <path id="Trazado_684736" data-name="Trazado 684736" d="M211.506,85.19c-.544-4.5-5.988-6.736-9.89-7.129-2.774-.28-5,.381-7.615,1.157-1.727.513-2.328-.3-3.789-1.233a18.255,18.255,0,0,0-3.5-1.806c-3.581-1.327-8.137-.728-10.113,2.783a2.52,2.52,0,0,0-3-.022,6.284,6.284,0,0,0-4.505-2.35c-.794-.048-1.878.409-2.586.135-.681-.265-1.6-1.622-2.293-2.094a12.085,12.085,0,0,0-12.123-.831,10.171,10.171,0,0,0-17.192-.422,10.31,10.31,0,0,0-15.824,11.689,5.316,5.316,0,0,0-3.193.346c-1.358.552-.865.379-2.316-.218a6.191,6.191,0,0,0-6.532,1.229c-1.886-4.558-7.067-7.542-11.984-6.177-4.892,1.359-7.793,6.543-7.1,11.4a3.761,3.761,0,0,0-4.514,3.577,2.855,2.855,0,0,0-3.349,2.311A6.29,6.29,0,1,0,73.7,108.371a.421.421,0,0,0,.549-.044c3.778,3.014,9.919.925,14.061-.394,1.925-.613,4.106-1.828,6.133-1.648a10.919,10.919,0,0,0,3.352.035,8.1,8.1,0,0,0,5.491-4.032,14.792,14.792,0,0,0,16.917-.512c.139,1.87.531,3.9,2.044,5.105a3.852,3.852,0,0,0,4.512.346c.741-.544.835-1.21,1.217-1.992.965-1.979,2.241-2.239,3.52-3.64a2.988,2.988,0,0,0,.813-2.746,13.072,13.072,0,0,0,13.421-6.481,15.887,15.887,0,0,0,22.908,3.075,8.228,8.228,0,0,0,12.345,4.206,11.452,11.452,0,0,1,1.2-.983,4.08,4.08,0,0,1,2.082-.131,10.431,10.431,0,0,0,9.193-5.33c2.686,1.888,6.179,3.671,9.449,2.3a5.488,5.488,0,0,0,3.516-5.537C209.09,90.763,211.847,88.012,211.506,85.19Z" transform="translate(-41.079 -29.8)" fill="#b0a4b9"/>
      <path id="Trazado_684737" data-name="Trazado 684737" d="M298.025,74.11a9.652,9.652,0,0,0-7.637.664,6.985,6.985,0,0,0-1.683,1.353,15.448,15.448,0,0,0-7.5-2.145,22.277,22.277,0,0,0-15.3,5.935c-.018-.007-.041-.009-.059-.016-1.435-.618-2.8-2.158-4.117-3.021a23.731,23.731,0,0,0-5.243-2.67,13.322,13.322,0,0,0-9.458.051,4.786,4.786,0,0,1-2.249.775,18.717,18.717,0,0,1-2.319-.726,14.206,14.206,0,0,0-4.972.053c-1.117.166-1.111.268-1.779-.771a15.988,15.988,0,0,0-1.052-1.452,16.8,16.8,0,0,0-3.258-3.031,17.791,17.791,0,0,0-8.279-3.186,16.185,16.185,0,0,0-4.452.094,3.448,3.448,0,0,1-2.451-.118c-.688-.313-1.32-.725-2.043-.978a11,11,0,0,0-8.714.641c-1.755.937-2.506-.155-4.267-.639a10.231,10.231,0,0,0-4.14-.251c-1.228.173-2.833,1.265-3.821.612-1.326-.878-2.356-2.425-3.71-3.377a20.465,20.465,0,0,0-20.171-2,20.87,20.87,0,0,0-11.612,16.126,5.2,5.2,0,0,0-7.674,5.284,4.735,4.735,0,0,0-4.325,2.534,11.416,11.416,0,0,0-19.7,9.893,3.379,3.379,0,0,0-2.851,5.613,3.2,3.2,0,0,0-1.832,4.981.52.52,0,0,0,0,.055c.848,4.015,4.915,5.529,8.652,4.894a17.79,17.79,0,0,0,10.636-6.706,5.239,5.239,0,0,0,5.568-.221,3.7,3.7,0,0,0,4.152,2.459c.823-.152,1.54-1.03,2.287-1.06.371-.014,1.406.752,1.794.907a11.429,11.429,0,0,0,1.8.544,12.539,12.539,0,0,0,12.114-4.058c1.692,5.641,8.794,7.434,13.986,5.637a14.387,14.387,0,0,0,4.248-2.336,4.632,4.632,0,0,1,2.766-1.368c.759-.1,1.514-.089,2.272-.231a13.7,13.7,0,0,0,6.6-3.245c.8-.72.744-1.1,1.635-.7.707.311,1.49,1.438,2.078,1.962.812.725,1.648,1.421,2.516,2.078a26.909,26.909,0,0,0,4.915,3.012,17.253,17.253,0,0,0,9.492,1.6,14.143,14.143,0,0,0,4.614-1.392,11.829,11.829,0,0,0,1.784-1.12c.593-.45,1.276-1.538,1.9-1.837.869-.417,2.144.035,3.175-.3a4.749,4.749,0,0,0,2.276-1.65,7.1,7.1,0,0,0,6.907,1.122,11.452,11.452,0,0,0,10.26,10.1c6.446.641,12.1-3.218,16.194-7.814.941-1.056,1.827-2.161,2.688-3.282,1.352-1.76,1.557-1.406,3.554-1.138a16.05,16.05,0,0,0,7.709-.919,16.433,16.433,0,0,0,9.7-9.48c4.254,2.789,10.7,1.686,13.134-3.048C305.111,82.209,302.989,75.876,298.025,74.11Z" transform="translate(-43.168 -29.353)" fill="#ded2e7"/>
      <path id="Trazado_684738" data-name="Trazado 684738" d="M174.656,292.216l-1.238-18.589-28.684,1.639L134.27,108.021l-13.527.323.886,128.405h0l-10.091,9.883v20.413l-23.515.481-1.98,76.26,108.206-6.177V290.888Z" transform="translate(-41.722 -31.431)" fill="#b0a4b9"/>
      <g id="Grupo_946372" data-name="Grupo 946372" transform="translate(0 0.127)">
        <g id="Grupo_946371" data-name="Grupo 946371" clip-path="url(#clip-path)">
          <g id="Grupo_946370" data-name="Grupo 946370" transform="translate(316.351 48.448)">
            <path id="Trazado_684739" data-name="Trazado 684739" d="M474.892,138.765a21.188,21.188,0,0,0-14.8-16.679c6.734-12.059,4.032-28.787-6.876-37.388-10.946-8.632-29.177-8.039-38.222,3.316-3.831,4.808-4.661,12.893.609,16.513a6.317,6.317,0,0,0-4.43,9.76,9.383,9.383,0,0,0-3.99,4.9,9.735,9.735,0,0,0-.576,3.389c.024,1.613.682,2.115-.866,3.02a29.061,29.061,0,0,0-11.357,12.392,29.606,29.606,0,0,0,4.7,32.228c-4.5,2.456-5.214,9.293-1.571,12.816a8.6,8.6,0,0,0-1.952,12.807.412.412,0,0,0,.205.207l.032.014a.38.38,0,0,0,.079.035c9.43,4.421,19.96,6.466,30.22,4.2,4.8-1.059,10.151-3.047,13.995-6.26,2.16-1.806,3.492-5.005,1.526-7.235l3.86-1.625a.509.509,0,0,0,.356-.477l-.2-3.708a8.7,8.7,0,0,0,9.282-7.319,9.468,9.468,0,0,0,12.256-2.1,10.035,10.035,0,0,0-.585-12.445A21.628,21.628,0,0,0,474.892,138.765Z" transform="translate(-370.797 -78.788)" fill="#ded2e7"/>
            <path id="Trazado_684740" data-name="Trazado 684740" d="M369.894,318.961s22.279-41.953,23.57-119.84h46.172s-.619,93.271,16.02,119.84Z" transform="translate(-369.894 -83.8)" fill="#baadc3"/>
          </g>
        </g>
      </g>
      <g id="Grupo_946374" data-name="Grupo 946374" transform="translate(0 0.127)">
        <g id="Grupo_946373" data-name="Grupo 946373" clip-path="url(#clip-path)">
          <path id="Trazado_684742" data-name="Trazado 684742" d="M344.964,302.049v-26.2l-22.112-1.65,2.31-57.755L267.293,210.9l-6.556,92.916-110.273,6.031V290.9l-56.281,1.978-2.819-29.344-21.895.715-31.79,1.038-4.837,117.9,221.693,8.5H406.35l6.6-84.869Z" transform="translate(-39.507 -35.842)" fill="#988ca2"/>
        </g>
      </g>
      <path id="Trazado_684744" data-name="Trazado 684744" d="M87.152,109.1H73.62L71.06,260.01l21.895-.715Z" transform="translate(-41.098 -31.476)" fill="#988ca2"/>
      <g id="Grupo_946376" data-name="Grupo 946376" transform="translate(0 0.127)">
        <g id="Grupo_946375" data-name="Grupo 946375" clip-path="url(#clip-path)">
          <path id="Trazado_684745" data-name="Trazado 684745" d="M350.283,335.549l-3.3,26.6-157.639,6.64-1.106-16.3-65.346,6.86L119.883,316.9l-70.257,2.64,2.31,101.181,140.8-2.023s199.508-3.408,201.632-6.069,5.073-77.078,5.073-77.078Z" transform="translate(-40.206 -40.257)" fill="#8b8095"/>
        </g>
      </g>
      <g id="Grupo_946407" data-name="Grupo 946407" transform="translate(0 0.127)">
        <g id="Grupo_946406" data-name="Grupo 946406" clip-path="url(#clip-path)">
          <g id="Grupo_946405" data-name="Grupo 946405" transform="translate(-14.121 243.147)">
            <g id="Grupo_946377" data-name="Grupo 946377">
              <rect id="Rectángulo_337541" data-name="Rectángulo 337541" width="176.54" height="0.99" transform="translate(0 14.328) rotate(-4.655)" fill="#635b6a"/>
            </g>
            <g id="Grupo_946378" data-name="Grupo 946378" transform="translate(1.334 16.489)">
              <rect id="Rectángulo_337542" data-name="Rectángulo 337542" width="176.54" height="0.99" transform="translate(0 14.328) rotate(-4.655)" fill="#635b6a"/>
            </g>
            <g id="Grupo_946379" data-name="Grupo 946379" transform="translate(5.135 14.284)">
              <rect id="Rectángulo_337543" data-name="Rectángulo 337543" width="0.99" height="16.543" transform="translate(0 0.08) rotate(-4.626)" fill="#635b6a"/>
            </g>
            <g id="Grupo_946380" data-name="Grupo 946380" transform="translate(30.136 12.261)">
              <rect id="Rectángulo_337544" data-name="Rectángulo 337544" width="0.99" height="16.543" transform="translate(0 0.08) rotate(-4.626)" fill="#635b6a"/>
            </g>
            <g id="Grupo_946381" data-name="Grupo 946381" transform="translate(55.137 10.239)">
              <rect id="Rectángulo_337545" data-name="Rectángulo 337545" width="0.99" height="16.542" transform="translate(0 0.08) rotate(-4.627)" fill="#635b6a"/>
            </g>
            <g id="Grupo_946382" data-name="Grupo 946382" transform="translate(80.137 8.216)">
              <rect id="Rectángulo_337546" data-name="Rectángulo 337546" width="0.99" height="16.542" transform="translate(0 0.08) rotate(-4.627)" fill="#635b6a"/>
            </g>
            <g id="Grupo_946383" data-name="Grupo 946383" transform="translate(105.138 6.192)">
              <rect id="Rectángulo_337547" data-name="Rectángulo 337547" width="0.99" height="16.543" transform="matrix(0.997, -0.081, 0.081, 0.997, 0, 0.08)" fill="#635b6a"/>
            </g>
            <g id="Grupo_946384" data-name="Grupo 946384" transform="translate(130.138 4.169)">
              <rect id="Rectángulo_337548" data-name="Rectángulo 337548" width="0.99" height="16.543" transform="matrix(0.997, -0.081, 0.081, 0.997, 0, 0.08)" fill="#635b6a"/>
            </g>
            <g id="Grupo_946385" data-name="Grupo 946385" transform="translate(155.139 2.147)">
              <rect id="Rectángulo_337549" data-name="Rectángulo 337549" width="0.99" height="16.542" transform="translate(0 0.08) rotate(-4.625)" fill="#635b6a"/>
            </g>
            <g id="Grupo_946386" data-name="Grupo 946386" transform="translate(5.391 13.89)">
              <rect id="Rectángulo_337550" data-name="Rectángulo 337550" width="0.991" height="30.047" transform="translate(0 0.868) rotate(-61.218)" fill="#635b6a"/>
            </g>
            <g id="Grupo_946387" data-name="Grupo 946387" transform="translate(6.662 11.907)">
              <rect id="Rectángulo_337551" data-name="Rectángulo 337551" width="30.046" height="0.99" transform="translate(0 18.521) rotate(-38.055)" fill="#635b6a"/>
            </g>
            <g id="Grupo_946388" data-name="Grupo 946388" transform="translate(30.391 11.867)">
              <rect id="Rectángulo_337552" data-name="Rectángulo 337552" width="0.991" height="30.047" transform="translate(0 0.868) rotate(-61.22)" fill="#635b6a"/>
            </g>
            <g id="Grupo_946389" data-name="Grupo 946389" transform="translate(31.663 9.884)">
              <rect id="Rectángulo_337553" data-name="Rectángulo 337553" width="30.047" height="0.99" transform="matrix(0.787, -0.616, 0.616, 0.787, 0, 18.523)" fill="#635b6a"/>
            </g>
            <g id="Grupo_946390" data-name="Grupo 946390" transform="translate(55.392 9.844)">
              <rect id="Rectángulo_337554" data-name="Rectángulo 337554" width="0.991" height="30.047" transform="matrix(0.481, -0.876, 0.876, 0.481, 0, 0.868)" fill="#635b6a"/>
            </g>
            <g id="Grupo_946391" data-name="Grupo 946391" transform="translate(56.663 7.861)">
              <rect id="Rectángulo_337555" data-name="Rectángulo 337555" width="30.046" height="0.99" transform="translate(0 18.521) rotate(-38.055)" fill="#635b6a"/>
            </g>
            <g id="Grupo_946392" data-name="Grupo 946392" transform="translate(80.392 7.822)">
              <rect id="Rectángulo_337556" data-name="Rectángulo 337556" width="0.991" height="30.046" transform="translate(0 0.868) rotate(-61.22)" fill="#635b6a"/>
            </g>
            <g id="Grupo_946393" data-name="Grupo 946393" transform="translate(81.664 5.838)">
              <rect id="Rectángulo_337557" data-name="Rectángulo 337557" width="30.046" height="0.99" transform="translate(0 18.521) rotate(-38.055)" fill="#635b6a"/>
            </g>
            <g id="Grupo_946394" data-name="Grupo 946394" transform="translate(105.393 5.798)">
              <rect id="Rectángulo_337558" data-name="Rectángulo 337558" width="0.991" height="30.047" transform="translate(0 0.868) rotate(-61.219)" fill="#635b6a"/>
            </g>
            <g id="Grupo_946395" data-name="Grupo 946395" transform="translate(106.664 3.815)">
              <rect id="Rectángulo_337559" data-name="Rectángulo 337559" width="30.047" height="0.99" transform="translate(0 18.521) rotate(-38.055)" fill="#635b6a"/>
            </g>
            <g id="Grupo_946396" data-name="Grupo 946396" transform="translate(130.394 3.775)">
              <rect id="Rectángulo_337560" data-name="Rectángulo 337560" width="0.99" height="30.046" transform="translate(0 0.868) rotate(-61.22)" fill="#635b6a"/>
            </g>
            <g id="Grupo_946397" data-name="Grupo 946397" transform="translate(131.666 1.791)">
              <rect id="Rectángulo_337561" data-name="Rectángulo 337561" width="30.047" height="0.99" transform="translate(0 18.524) rotate(-38.063)" fill="#635b6a"/>
            </g>
            <g id="Grupo_946398" data-name="Grupo 946398" transform="translate(6.223 30.753)">
              <rect id="Rectángulo_337562" data-name="Rectángulo 337562" width="1.485" height="110.849" transform="matrix(0.997, -0.081, 0.081, 0.997, 0, 0.12)" fill="#635b6a"/>
            </g>
            <g id="Grupo_946399" data-name="Grupo 946399" transform="translate(31.223 28.731)">
              <rect id="Rectángulo_337563" data-name="Rectángulo 337563" width="1.485" height="110.849" transform="translate(0 0.12) rotate(-4.626)" fill="#635b6a"/>
            </g>
            <g id="Grupo_946400" data-name="Grupo 946400" transform="translate(56.224 26.707)">
              <rect id="Rectángulo_337564" data-name="Rectángulo 337564" width="1.485" height="110.849" transform="translate(0 0.12) rotate(-4.626)" fill="#635b6a"/>
            </g>
            <g id="Grupo_946401" data-name="Grupo 946401" transform="translate(81.225 24.684)">
              <rect id="Rectángulo_337565" data-name="Rectángulo 337565" width="1.485" height="110.849" transform="translate(0 0.12) rotate(-4.626)" fill="#635b6a"/>
            </g>
            <g id="Grupo_946402" data-name="Grupo 946402" transform="translate(106.225 22.661)">
              <rect id="Rectángulo_337566" data-name="Rectángulo 337566" width="1.485" height="110.849" transform="translate(0 0.12) rotate(-4.626)" fill="#635b6a"/>
            </g>
            <g id="Grupo_946403" data-name="Grupo 946403" transform="translate(131.226 20.639)">
              <rect id="Rectángulo_337567" data-name="Rectángulo 337567" width="1.485" height="110.848" transform="translate(0 0.12) rotate(-4.626)" fill="#635b6a"/>
            </g>
            <g id="Grupo_946404" data-name="Grupo 946404" transform="translate(156.226 18.615)">
              <rect id="Rectángulo_337568" data-name="Rectángulo 337568" width="1.485" height="110.849" transform="translate(0 0.12) rotate(-4.626)" fill="#635b6a"/>
            </g>
          </g>
        </g>
      </g>
      <g id="Grupo_946410" data-name="Grupo 946410" transform="translate(0 0.127)">
        <g id="Grupo_946409" data-name="Grupo 946409" clip-path="url(#clip-path)">
          <g id="Grupo_946408" data-name="Grupo 946408" transform="translate(-9.496 321.452)">
            <path id="Trazado_684748" data-name="Trazado 684748" d="M41.873,364.223S74.051,386.5,158.456,377.59s215.631-23.363,249.77-5.246l-3.485,9.324s-55.453-9.885-144.063,4.156-158.41,29.884-206.678,18-9.158-40.17-9.158-40.17Z" transform="translate(-29.887 -363.656)" fill="#baadc3"/>
            <path id="Trazado_684749" data-name="Trazado 684749" d="M385.193,401.03s-54.389-8.365-107.392-1.6S131.478,424.046,92.165,424.046s-10.134,34.626-10.134,34.626,211.453-.5,235.277-4.455S385.193,401.03,385.193,401.03Z" transform="translate(-31.625 -365.036)" fill="#baadc3"/>
          </g>
        </g>
      </g>
      <g id="Grupo_946413" data-name="Grupo 946413" transform="translate(0 0.127)">
        <g id="Grupo_946412" data-name="Grupo 946412" clip-path="url(#clip-path)">
          <g id="Grupo_946411" data-name="Grupo 946411" transform="translate(96.679 108.295)">
            <path id="Trazado_684751" data-name="Trazado 684751" d="M230.421,155.457s21.338-21.122,45.1-11.882,27.28,41.648,27.507,49.9,1.815,18.361,1.32,29.747-9.364,36.2-9.632,47.417,12.6,43.233,11.943,57.59c0,0,9.76,52.716-32.249,68.355,0,0,9.147-26.3-2.735-49.389s-40.107-71.606-32.265-97.678S237.517,174.087,230.421,155.457Z" transform="translate(-144.414 -141.236)" fill="#8b6748"/>
            <path id="Trazado_684752" data-name="Trazado 684752" d="M283.578,175.692c-2.357,8.829-14.228,13.329-26.517,10.049s-20.339-13.1-17.984-21.925,14.229-13.328,26.517-10.048S285.934,166.862,283.578,175.692Z" transform="translate(-144.758 -141.714)" fill="#fff2f2"/>
            <path id="Trazado_684753" data-name="Trazado 684753" d="M299.755,221.032s-6.056,33.292-8.779,40.718-6.166,24.257-4.568,35.149,6.129,24.061,3.491,25.026-29.848,5.97-33.569-2.969-5.7-14.384-2.978-29.236,2.5-21.769,10.643-32.672,13.665-19.522,19.614-25.3S299.755,221.032,299.755,221.032Z" transform="translate(-145.317 -144.559)" fill="#77583d"/>
            <path id="Trazado_684754" data-name="Trazado 684754" d="M275.615,143.575c-19.284-7.5-36.971,5-42.952,9.976l6.583,1.73s10.411-11.705,25.593-11.375c7.692.167,14.914,2.749,20.171,5.256A33.389,33.389,0,0,0,275.615,143.575Z" transform="translate(-144.508 -141.236)" fill="#a27854"/>
            <path id="Trazado_684755" data-name="Trazado 684755" d="M285.6,240.165s4.62-4.455,8.415-1.485,3.961,14.026,0,19.637a25.362,25.362,0,0,1-10.561,8.086Z" transform="translate(-146.623 -145.252)" fill="#ffd2c6"/>
            <path id="Trazado_684756" data-name="Trazado 684756" d="M191.842,240.1s-7.426-7.261-10.561-2.475-.825,15.677,1.155,19.637,11.221,7.921,11.221,7.921Z" transform="translate(-142.304 -145.182)" fill="#ffd2c6"/>
            <path id="Trazado_684757" data-name="Trazado 684757" d="M203.29,285.96s-9.777-15.1-11.263-31.931-.371-29.931-.866-42.574,14.109-39.6,45.3-39.109,46.782,29.475,47.525,47.164c0,0-.495,14.717,0,18.43s-4.951,49.5-27.228,56.931S211.954,296.6,203.29,285.96Z" transform="translate(-142.779 -142.532)" fill="#ffd2c6"/>
            <ellipse id="Elipse_5439" data-name="Elipse 5439" cx="5.834" cy="9.513" rx="5.834" ry="9.513" transform="translate(109.992 100.938) rotate(-81.411)" fill="#ffb5b5"/>
            <path id="Trazado_684758" data-name="Trazado 684758" d="M222.221,240.993c.766,3.129-2.893,6.714-8.175,8.008s-10.183-.2-10.949-3.326,2.893-6.715,8.175-8.008S221.454,237.863,222.221,240.993Z" transform="translate(-143.272 -145.233)" fill="#ffb5b5"/>
            <path id="Trazado_684759" data-name="Trazado 684759" d="M190.9,253.348s14.852-10.149,42.327-13.614,50.989,11.139,50.989,11.139-3.465,33.168-21.287,47.277-44.8,5.941-55.692-2.227S191.4,263.992,190.9,253.348Z" transform="translate(-142.769 -145.316)" fill="#f1e5e5"/>
            <path id="Trazado_684760" data-name="Trazado 684760" d="M191.248,257.425c4.582-3,22.87-13.975,46.35-15.1,20.9-1,38.912,7.859,46.158,12.03.041-.26.08-.5.115-.731-7.469-4.264-25.468-12.986-46.306-11.991-23.158,1.111-41.307,11.737-46.4,15.023C191.189,256.906,191.219,257.167,191.248,257.425Z" transform="translate(-142.78 -145.414)" fill="#d8cdcd"/>
            <path id="Trazado_684761" data-name="Trazado 684761" d="M280.1,268.72c-2.195,1.8-9.109,9.467-14.742,12.273s-23.079,6.27-23.079,6.27-10.4-6.1-1.815-9.9,8.041-9.736,8.041-9.736-16.787,1.65-21.727,5.082-4.631,5.974-6.611,13.9c-1.663,6.651-3.77,9.941-.794,16.336,13.007,5.021,31.394,6.894,44.688-3.63,9.918-7.852,15.386-21.6,18.289-32.257C281.516,267.629,280.715,268.214,280.1,268.72Z" transform="translate(-143.892 -146.476)" fill="#d8cdcd"/>
            <path id="Trazado_684762" data-name="Trazado 684762" d="M262.89,300.622s-2.227,15.346-1.484,17.079,36.633,4.455,36.633,4.455-5.941,18.861-21.287,22.549-40.584,10.684-57.92,4.661-28.961-29.191-28.961-29.191l32.426-5.395-1.485-16.2Z" transform="translate(-142.726 -147.789)" fill="#ffd2c6"/>
            <path id="Trazado_684763" data-name="Trazado 684763" d="M252.247,327.613c5.582-1.169,14.431-4.637,21.586-7.674-6.647-.748-12.141-1.561-12.427-2.228-.743-1.733,1.484-17.079,1.484-17.079l-37.137-1.8c-1.6.1-3.241.179-4.9.244l1.441,15.714-32.426,5.395s8.345,16.625,21.436,25.369c3.6-.459,6.039-.84,6.039-.84s6.188-6.212,11.139-9.182S241.6,329.841,252.247,327.613Z" transform="translate(-142.726 -147.8)" fill="#f1b4a7"/>
            <path id="Trazado_684764" data-name="Trazado 684764" d="M187.822,321.115s-30.693,8.457-37.623,18.215-13.614,48.984-6.436,77.018,105.693,23.942,133.416,18.067S339.8,415.983,339.8,415.983s2.971-62.443-3.465-74.212c0,0-9.405-13.972-40.346-18.675,0,0-23.535,23.578-62.376,20.68C202.426,341.449,187.822,321.115,187.822,321.115Z" transform="translate(-140.677 -148.727)" fill="#4a62c2"/>
            <path id="Trazado_684765" data-name="Trazado 684765" d="M187.206,341.831c-4.208,7.215-17.08,33.873-22.772,47.708-3.125,7.594-6.473,24.948-8.858,39.063,11.457,5.98,30.057,8.92,49.632,9.978.362-15.727,1.26-48.778,2.625-60.049,1.815-14.994,12.251-36.379,12.251-36.379-.015-.166-.048-.329-.075-.494a65.671,65.671,0,0,1-22.591-11.37C194.011,333.352,189.582,337.756,187.206,341.831Z" transform="translate(-141.298 -149.109)" fill="#364ca6"/>
            <path id="Trazado_684766" data-name="Trazado 684766" d="M327.256,424.729c-1.23-10.735-5.074-32.972-16.769-52.008,0,0,7.178,22,8.169,34.783a174.032,174.032,0,0,1,.283,19.828C321.853,426.442,324.639,425.567,327.256,424.729Z" transform="translate(-147.749 -150.877)" fill="#364ca6"/>
            <path id="Trazado_684767" data-name="Trazado 684767" d="M241.821,251.555c-3.219-2.308-5.682-.571-5.682-.571-.082.152-.175.317-.269.484h0a118.1,118.1,0,0,1-8.36,13.888,99.442,99.442,0,0,1-7.148,9.758l-.018.028.015-.025c-.44.464-.666.6-.736.5-.229-.317,2.916-5.98,2.916-5.98,7.043-12.889,9.422-19.475,9.422-19.475h0c.159-.733.171-1.23-.006-1.414-1.392-1.456-2.844-2.192-4.141-1.446s-4.147,5.148-10.006,15.871-13.763,22.314-13.763,22.314-5.526.2-.072-8.68c3.068-5,3.348-10.184,1.727-11.756-2.815-2.728-3.35-1.133-3.35-1.133-3.349,6.939-9.543,12.612-11.258,18.679-4.456,15.762,2.368,6.208-4.563,27.33S146.6,421.148,146.6,421.148c.536,7.426,34.612,24.133,40.3,8.416s11.263-54.332,18.07-77.6,29.972-48.543,34.369-53.613,16.878-26.731,15.114-30.432-3.94-1.3-3.94-1.3-8.225,11.261-12.682,15.78a14.548,14.548,0,0,1-2.773,2.4l-.071.082.058-.077c-1.071.573-.564-.743-.564-.743l2.875-4.234a81.085,81.085,0,0,0,10.075-16.341c.887-2.347,1.025-3.747.447-4.236-2.37-2-3.9-.51-3.9-.51-.745,1.255-1.566,2.538-2.431,3.82h0c-2.08,4.073-10.814,14.55-12.817,16.921s-2.347.83-2.347.83,6.05-8.758,10.984-16.49,5.074-11.17,5.074-11.17h0A1.645,1.645,0,0,0,241.821,251.555Z" transform="translate(-140.924 -145.641)" fill="#ffd2c6"/>
            <path id="Trazado_684768" data-name="Trazado 684768" d="M283.387,234.092l.059.995c1.692-.939,4.134-1.676,6.31.026a4.711,4.711,0,0,1,.726.729c2.981-5.925,9.3-20.6,7.194-35.135-2.723-18.812-17.079-39.109-37.871-40.1,0,0-21.941-21.3-56.683,3.126C175.016,183.5,180.666,219.142,184.1,232.5c2.088-.1,4.507,1.422,6.094,2.64h0c2.133-.955,4.944-3.447,7.489-9.681,4.951-12.128,25-46.781,52.723-44.554,0,0,7.981,27.122,33.2,39.675Z" transform="translate(-142.365 -141.685)" fill="#a27854"/>
            <path id="Trazado_684769" data-name="Trazado 684769" d="M203.123,163.734c-28.039,19.713-22.485,55.228-19.054,68.663q.335.068.633.13a6.458,6.458,0,0,1,1.584.366c-1.39-8.388-4.963-34.484,1.82-47.616,3.848-7.448,10.091-14.223,16.749-19.686,22.838-16.369,40.829-12.283,40.829-12.283h0C235.827,150.7,221.211,151.016,203.123,163.734Z" transform="translate(-142.365 -141.685)" fill="#bc9472"/>
            <path id="Trazado_684770" data-name="Trazado 684770" d="M285.371,221.185c-15.568-12.35-31.963-39.024-31.963-39.024S261.137,208.376,285.371,221.185Z" transform="translate(-145.372 -142.941)" fill="#bc9472"/>
            <path id="Trazado_684771" data-name="Trazado 684771" d="M194.844,228.554s3.465,27.971-2.6,38.489c0,0-3.242-26.113-1.126-35.148S194.844,228.554,194.844,228.554Z" transform="translate(-142.748 -144.799)" fill="#a27854"/>
            <path id="Trazado_684772" data-name="Trazado 684772" d="M286.9,221.032s-2.846,31.311-1.609,47.772c0,0,8.932-29.579,4.961-46.906Z" transform="translate(-146.687 -144.559)" fill="#a27854"/>
            <path id="Trazado_684773" data-name="Trazado 684773" d="M187.092,420.29A57.518,57.518,0,0,1,175.275,441.7c6.188.589,11.542-.968,13.509-6.4,5.694-15.718,10.574-55.527,17.381-78.794C207.585,351.658,192.043,403.127,187.092,420.29Z" transform="translate(-142.118 -150.188)" fill="#f1b4a7"/>
            <path id="Trazado_684774" data-name="Trazado 684774" d="M192.2,208.55s5.693-35.644,41.089-40.594C233.285,167.956,204.571,173.4,192.2,208.55Z" transform="translate(-142.823 -142.349)" fill="#bc9472"/>
          </g>
        </g>
      </g>
      <path id="Trazado_684776" data-name="Trazado 684776" d="M341.76,288.971a2.723,2.723,0,1,1-2.723-2.724A2.723,2.723,0,0,1,341.76,288.971Z" transform="translate(-52.145 -38.853)" fill="#ded2e7"/>
      <path id="Trazado_684777" data-name="Trazado 684777" d="M371.312,319.242a1.485,1.485,0,1,1-1.484-1.484A1.485,1.485,0,0,1,371.312,319.242Z" transform="translate(-53.479 -40.165)" fill="#ded2e7"/>
      <path id="Trazado_684778" data-name="Trazado 684778" d="M222.543,415.839a1.485,1.485,0,1,1-1.484-1.485A1.484,1.484,0,0,1,222.543,415.839Z" transform="translate(-47.283 -44.188)" fill="#ded2e7"/>
      <circle id="Elipse_5440" data-name="Elipse 5440" cx="2.475" cy="2.475" r="2.475" transform="translate(198.032 346.404)" fill="#ded2e7"/>
      <path id="Trazado_684779" data-name="Trazado 684779" d="M107.329,340.669a1.733,1.733,0,1,1-1.733-1.733A1.732,1.732,0,0,1,107.329,340.669Z" transform="translate(-42.465 -41.047)" fill="#ded2e7"/>
      <circle id="Elipse_5441" data-name="Elipse 5441" cx="3.218" cy="3.218" r="3.218" transform="translate(37.142 190.959)" fill="#ded2e7"/>
      <circle id="Elipse_5442" data-name="Elipse 5442" cx="2.475" cy="2.475" r="2.475" transform="translate(96.053 192.939)" fill="#ded2e7"/>
      <circle id="Elipse_5443" data-name="Elipse 5443" cx="2.228" cy="2.228" r="2.228" transform="translate(109.419 128.088)" fill="#ded2e7"/>
      <circle id="Elipse_5444" data-name="Elipse 5444" cx="1.485" cy="1.485" r="1.485" transform="translate(352.487 209.276)" fill="#ded2e7"/>
      <path id="Trazado_684780" data-name="Trazado 684780" d="M320.625,173.283a2.228,2.228,0,1,1-2.228-2.228A2.228,2.228,0,0,1,320.625,173.283Z" transform="translate(-51.306 -34.056)" fill="#ded2e7"/>
      <path id="Trazado_684781" data-name="Trazado 684781" d="M355.3,111.069a1.485,1.485,0,1,1-1.485-1.484A1.486,1.486,0,0,1,355.3,111.069Z" transform="translate(-52.812 -31.496)" fill="#ded2e7"/>
      <circle id="Elipse_5445" data-name="Elipse 5445" cx="1.98" cy="1.98" r="1.98" transform="translate(310.408 97.89)" fill="#ded2e7"/>
      <path id="Trazado_684782" data-name="Trazado 684782" d="M208.479,227.036s4.338,6.4,10.754,3.363,6.323-8.692,6.323-8.692S219.8,233.284,208.479,227.036Z" transform="translate(-46.821 -36.165)" fill="#77583d"/>
      <path id="Trazado_684783" data-name="Trazado 684783" d="M269.556,226.433s-4.338,6.4-10.754,3.364-6.323-8.692-6.323-8.692S258.237,232.682,269.556,226.433Z" transform="translate(-48.654 -36.14)" fill="#77583d"/>
      <g id="Grupo_946414" data-name="Grupo 946414" transform="translate(205.624 172.89)">
        <path id="Trazado_684784" data-name="Trazado 684784" d="M256.092,212.1a14.11,14.11,0,0,1,9.108,3.424c1.745,1.5,4.3-1.029,2.542-2.542a18.043,18.043,0,0,0-11.65-4.476c-2.313-.039-2.314,3.555,0,3.594Z" transform="translate(-254.356 -208.506)" fill="#a27854"/>
      </g>
      <g id="Grupo_946415" data-name="Grupo 946415" transform="translate(161.808 172.794)">
        <path id="Trazado_684785" data-name="Trazado 684785" d="M211.662,215.491a11.283,11.283,0,0,1,9.164-3.471c2.312.117,2.306-3.477,0-3.594a14.746,14.746,0,0,0-11.7,4.524c-1.552,1.709.982,4.258,2.541,2.541Z" transform="translate(-208.636 -208.405)" fill="#a27854"/>
      </g>
    </g>
    <g id="Grupo_946417" data-name="Grupo 946417" transform="translate(57.109 262.09)">
      <path id="Trazado_684786" data-name="Trazado 684786" d="M353.721,361.315a7.283,7.283,0,1,1-7.283-7.283A7.283,7.283,0,0,1,353.721,361.315Z" transform="translate(-69.576 -275.664)" fill="#ded2e7"/>
      <path id="Trazado_684787" data-name="Trazado 684787" d="M67.956,338.3a5.348,5.348,0,0,1-7.725,6.708,4.045,4.045,0,0,1-1.586-1.586,5.348,5.348,0,0,1,6.707-7.726A4.763,4.763,0,0,1,67.956,338.3Z" transform="translate(-57.862 -274.881)" fill="#ded2e7"/>
      <path id="Trazado_684788" data-name="Trazado 684788" d="M426.376,277.576a8.112,8.112,0,0,1-10.358,10.358,7.713,7.713,0,0,1-4.865-4.864,8.112,8.112,0,0,1,10.358-10.358A7.715,7.715,0,0,1,426.376,277.576Z" transform="translate(-72.555 -272.258)" fill="#ded2e7"/>
      <path id="Trazado_684789" data-name="Trazado 684789" d="M116.97,393.659a24.54,24.54,0,1,1-24.54-24.54A24.54,24.54,0,0,1,116.97,393.659Z" transform="translate(-58.279 -276.292)" fill="#ded2e7"/>
    </g>
  </g>
</svg>
