<svg xmlns="http://www.w3.org/2000/svg" xmlns:xlink="http://www.w3.org/1999/xlink" width="94" height="94" viewBox="0 0 94 94">
  <defs>
    <linearGradient id="linear-gradient" x1="0.933" y1="0.25" x2="0.067" y2="0.75" gradientUnits="objectBoundingBox">
      <stop offset="0" stop-color="#20bdff"/>
      <stop offset="1" stop-color="#006bff"/>
    </linearGradient>
  </defs>
  <g id="Grupo_957292" data-name="Grupo 957292" transform="translate(-221 -6800)">
    <circle id="Elipse_5547" data-name="Elipse 5547" cx="47" cy="47" r="47" transform="translate(221 6800)" fill="#fff"/>
    <path id="numero-2" d="M35.3.8A34.5,34.5,0,1,0,69.8,35.3,34.5,34.5,0,0,0,35.3.8Zm9.582,49.583H25.933V45.2l6.242-6.331q2.434-2.523,3.63-3.94a12,12,0,0,0,1.75-2.612,6.049,6.049,0,0,0,.552-2.568,3.522,3.522,0,0,0-1.04-2.856,4.81,4.81,0,0,0-3.122-.862,43.846,43.846,0,0,0-6.464.532L26.42,26.7l-.31-4.738A30.509,30.509,0,0,1,35.1,20.631q9.3,0,9.3,8.367a11.813,11.813,0,0,1-.6,3.919,11.958,11.958,0,0,1-1.992,3.453,37.5,37.5,0,0,1-3.964,4.1l-5.091,4.6h12.13Z" transform="translate(233.2 6812.2)" fill="url(#linear-gradient)"/>
  </g>
</svg>
