<svg xmlns="http://www.w3.org/2000/svg" xmlns:xlink="http://www.w3.org/1999/xlink" width="391.233" height="274.225" viewBox="0 0 391.233 274.225">
  <defs>
    <clipPath id="clip-path">
      <rect id="Rectángulo_5568" data-name="Rectángulo 5568" width="130.739" height="65.846" fill="none"/>
    </clipPath>
    <clipPath id="clip-path-2">
      <rect id="Rectángulo_5568-2" data-name="Rectángulo 5568" width="186.741" height="94.051" fill="none"/>
    </clipPath>
    <clipPath id="clip-path-3">
      <rect id="Rectángulo_5578" data-name="Rectángulo 5578" width="125.695" height="152.871" fill="none"/>
    </clipPath>
    <clipPath id="clip-path-5">
      <rect id="Rectángulo_5575" data-name="Rectángulo 5575" width="105.856" height="69.681" fill="none"/>
    </clipPath>
    <clipPath id="clip-path-6">
      <rect id="Rectángulo_5576" data-name="Rectángulo 5576" width="55.114" height="148.416" fill="none"/>
    </clipPath>
    <clipPath id="clip-path-7">
      <rect id="Rectángulo_5578-2" data-name="Rectángulo 5578" width="132.245" height="160.836" fill="none"/>
    </clipPath>
    <clipPath id="clip-path-9">
      <rect id="Rectángulo_5575-2" data-name="Rectángulo 5575" width="111.371" height="73.312" fill="none"/>
    </clipPath>
    <clipPath id="clip-path-10">
      <rect id="Rectángulo_5576-2" data-name="Rectángulo 5576" width="57.986" height="156.149" fill="none"/>
    </clipPath>
  </defs>
  <g id="Grupo_57041" data-name="Grupo 57041" transform="translate(-968.767 -278.626)">
    <g id="Grupo_56692" data-name="Grupo 56692" transform="translate(968.767 443.942)">
      <g id="Grupo_56691" data-name="Grupo 56691" transform="translate(0 0)" clip-path="url(#clip-path)">
        <path id="Trazado_104836" data-name="Trazado 104836" d="M129.345.26a130.824,130.824,0,0,1-28.143,22.9c-1.491-2.47-4.693-7.2-9-10.138C86.149,8.918,80.934,8.6,78.668,12.31c-1.809,3.932,1.358,8.082,8.154,10.813a31.223,31.223,0,0,0,11.253,1.871A133.566,133.566,0,0,1,81.8,32.857c-.965-2.405-3.579-8.1-7.768-11.9-5.43-4.912-10.552-5.937-13.3-2.585-2.33,3.654.233,8.2,6.585,11.84A32.543,32.543,0,0,0,79.45,33.772c-2.252.862-4.532,1.677-6.832,2.417-4.157,1.334-8.4,2.46-12.672,3.418-.669-2.453-2.595-8.479-6.359-12.772-4.819-5.5-9.784-7.111-12.905-4.108-2.734,3.364-.722,8.176,5.159,12.526a32.723,32.723,0,0,0,11.532,4.922A143.788,143.788,0,0,1,40.7,42.626c-.536-2.431-2.2-8.619-5.791-13.137-4.576-5.709-9.458-7.545-12.707-4.683-2.9,3.236-1.1,8.136,4.586,12.747a32.041,32.041,0,0,0,10.806,5.3c-2.831.178-5.658.3-8.482.324-1.173,0-2.427-.006-3.671-.039-2.2-1.53-7.389-4.8-12.859-5.687C5.354,36.26.493,38.165,0,42.48c.022,4.336,4.644,6.764,11.946,6.385,5.337-.275,10.646-2.761,13.134-4.094a124.6,124.6,0,0,0,19.882-.99,32.358,32.358,0,0,0-9.126,8c-4.279,5.937-4.741,11.139-1.094,13.5,3.893,1.923,8.133-1.137,11.042-7.85,2.241-5.179,2.263-11.442,2.163-14.027A150.378,150.378,0,0,0,68.04,39.22c-2.278,1.884-6.353,5.655-8.58,10.234-3.191,6.584-2.752,11.789,1.234,13.5,4.161,1.216,7.821-2.513,9.541-9.63,1.408-5.827.139-12.429-.369-14.624a142.2,142.2,0,0,0,18.649-6.959c-1.583,1.2-7.046,5.59-9.759,11.185-3.2,6.577-2.766,11.785,1.23,13.484,4.157,1.233,7.811-2.509,9.526-9.613,1.609-6.634-.249-14.263-.518-15.27q4.917-2.257,9.616-4.919c1.012-.561,2-1.162,2.988-1.752.33-.032.529-.061.529-.061s-.039-.071-.107-.19c2.269-1.376,4.508-2.82,6.684-4.336a30.135,30.135,0,0,0-4.972,9.03c-2.178,6.974-.968,12.057,3.224,13.154,4.3.583,7.357-3.65,8-10.939.5-5.648-1.47-11.61-2.392-14.017a133.124,133.124,0,0,0,17.959-16.15A.8.8,0,0,0,129.345.26" transform="translate(0 0)" fill="#246b1a"/>
      </g>
    </g>
    <g id="Grupo_56693" data-name="Grupo 56693" transform="matrix(0.259, 0.966, -0.966, 0.259, 1093.849, 289.655)">
      <g id="Grupo_56691-2" data-name="Grupo 56691" transform="translate(0 0)" clip-path="url(#clip-path-2)">
        <path id="Trazado_104836-2" data-name="Trazado 104836" d="M184.75.37a186.862,186.862,0,0,1-40.2,32.714c-2.129-3.528-6.7-10.283-12.857-14.481-8.644-5.866-16.093-6.315-19.33-1.021-2.584,5.616,1.939,11.544,11.647,15.445,5.437,2.191,11.66,2.672,16.073,2.672a190.78,190.78,0,0,1-23.243,11.232c-1.379-3.436-5.111-11.571-11.1-17-7.755-7.015-15.072-8.481-19-3.692-3.328,5.219.333,11.718,9.406,16.912,5.825,3.343,12.979,4.62,17.334,5.089-3.216,1.232-6.474,2.4-9.758,3.452-5.938,1.905-12,3.514-18.1,4.882-.955-3.5-3.706-12.111-9.083-18.243-6.883-7.863-13.975-10.157-18.433-5.868-3.9,4.805-1.031,11.678,7.368,17.891,5.345,3.946,12.193,6.03,16.472,7.03a205.379,205.379,0,0,1-23.82,3.5c-.765-3.472-3.14-12.311-8.272-18.764-6.536-8.154-13.51-10.778-18.15-6.689-4.14,4.621-1.567,11.621,6.55,18.208,4.876,3.967,11.182,6.311,15.434,7.567-4.043.255-8.082.434-12.115.463-1.676,0-3.466-.009-5.244-.056-3.146-2.185-10.554-6.851-18.367-8.123C7.648,51.792.7,54.513,0,60.676c.031,6.193,6.633,9.661,17.063,9.119,7.623-.393,15.206-3.943,18.76-5.847a177.977,177.977,0,0,0,28.4-1.414C60.438,64.858,54.9,68.81,51.186,73.961c-6.112,8.481-6.771,15.911-1.563,19.28,5.56,2.747,11.616-1.624,15.771-11.213,3.2-7.4,3.233-16.344,3.09-20.035a214.792,214.792,0,0,0,28.7-5.974C93.932,58.71,88.111,64.1,84.93,70.637c-4.558,9.4-3.931,16.839,1.763,19.28,5.943,1.736,11.17-3.59,13.628-13.756,2.011-8.323.2-17.753-.527-20.889a203.113,203.113,0,0,0,26.637-9.94c-2.261,1.71-10.064,7.985-13.939,15.976-4.574,9.395-3.951,16.834,1.757,19.26,5.938,1.761,11.157-3.584,13.607-13.731,2.3-9.475-.356-20.372-.74-21.811Q134.138,41.8,140.85,38c1.445-.8,2.859-1.66,4.268-2.5.471-.046.756-.087.756-.087s-.056-.1-.153-.271c3.241-1.966,6.439-4.029,9.548-6.193a43.044,43.044,0,0,0-7.1,12.9c-3.11,9.961-1.383,17.222,4.605,18.789,6.143.833,10.508-5.213,11.428-15.624.709-8.067-2.1-16.583-3.416-20.021A190.146,190.146,0,0,0,186.435,1.923,1.146,1.146,0,0,0,184.75.37" transform="translate(0 0.001)" fill="#246b1a"/>
      </g>
    </g>
    <g id="Grupo_56722" data-name="Grupo 56722" transform="translate(1175.865 399.98)">
      <g id="Grupo_56721" data-name="Grupo 56721" transform="translate(0 0)" clip-path="url(#clip-path-3)">
        <g id="Grupo_56720" data-name="Grupo 56720">
          <g id="Grupo_56719" data-name="Grupo 56719" clip-path="url(#clip-path-3)">
            <path id="Trazado_104883" data-name="Trazado 104883" d="M16.742,136.356s.107-.744.309-2.152c.3-1.271.526-3.423,1.2-5.583a81.28,81.28,0,0,1,6.147-16.859,84.2,84.2,0,0,1,12.189-18.18A81.206,81.206,0,0,1,54.266,78.724a79.564,79.564,0,0,1,21.151-9.241,82.876,82.876,0,0,1,21.7-2.8,89.712,89.712,0,0,1,9.759.621c2.978.333,5.813.976,8.1,1.457a55.458,55.458,0,0,1,5.538,1.439c1.312.383,2.077.691,2.077.691s-.06.814-.3,2.165c-.285,1.279-.523,3.439-1.186,5.6-.6,2.258-1.287,5.081-2.32,7.9a92.122,92.122,0,0,1-3.8,9.005,82.654,82.654,0,0,1-12.193,18.168,79.781,79.781,0,0,1-17.727,14.8,80.94,80.94,0,0,1-21.187,9.183,84.123,84.123,0,0,1-21.7,2.786,81.689,81.689,0,0,1-17.837-2.02c-2.23-.375-4.267-1.124-5.526-1.432-1.354-.445-2.073-.691-2.073-.691" transform="translate(3.106 12.369)" fill="#4cad3e"/>
            <path id="Trazado_104884" data-name="Trazado 104884" d="M67.338,128.135q-17.358-1.314-34.689-2.608l23.882-14.765a1.179,1.179,0,0,0,.44.21q18.359,1.376,36.706,2.756c1.193.078,1.131-1.772-.046-1.859q-17.34-1.309-34.693-2.6L82.823,94.5a1.093,1.093,0,0,0,.453.206q10.595.8,21.191,1.6c1.2.078,1.127-1.777-.041-1.864Q94.83,93.72,85.238,93l32.739-20.246-.819-1.308L85.123,91.254q3.085-8.641,6.154-17.283c.421-1.131-1.411-1.547-1.789-.42q-3.444,9.62-6.866,19.254l-23.8,14.716q.272-.747.543-1.5c1.342-3.752,2.671-7.528,4.015-11.293,2.025-5.706,4.069-11.412,6.08-17.109.424-1.131-1.4-1.544-1.794-.428Q62,93.139,56.313,109.079L32.526,123.791c.181-.5.358-1.009.543-1.5q2-5.646,4.024-11.3,3.037-8.564,6.085-17.114c.4-1.127-1.412-1.542-1.807-.42q-5.689,15.928-11.355,31.879l-6.878,4.249.819,1.321,6.269-3.884a1.031,1.031,0,0,0,.44.211q18.359,1.382,36.709,2.748c1.2.1,1.136-1.762-.037-1.852" transform="translate(4.292 13.254)" fill="#aacd44"/>
            <g id="Grupo_56715" data-name="Grupo 56715" transform="translate(19.84 79.044)" opacity="0.1">
              <g id="Grupo_56714" data-name="Grupo 56714">
                <g id="Grupo_56713" data-name="Grupo 56713" clip-path="url(#clip-path-5)">
                  <path id="Trazado_104885" data-name="Trazado 104885" d="M122.591,70.887s-.769-.317-2.069-.695a54.779,54.779,0,0,0-5.542-1.449c-2.292-.469-5.126-1.114-8.109-1.447a87.4,87.4,0,0,0-9.754-.618,82.425,82.425,0,0,0-21.7,2.8,79.978,79.978,0,0,0-21.158,9.236A81.772,81.772,0,0,0,36.577,93.572a84.167,84.167,0,0,0-12.182,18.183,81.369,81.369,0,0,0-6.15,16.864,55.732,55.732,0,0,0-1.193,5.583c-.193,1.391-.3,2.147-.317,2.155Z" transform="translate(-16.735 -66.675)" fill="#211a72"/>
                </g>
              </g>
            </g>
            <path id="Trazado_104886" data-name="Trazado 104886" d="M43.6,115.464a103.3,103.3,0,0,1,9.931-26.795A26.793,26.793,0,0,0,63.69,91.948c5.751.363,9.416-1.509,9.473-4.928-.345-3.394-4.159-4.941-9.856-4.073a24.427,24.427,0,0,0-8.385,3.234,103.92,103.92,0,0,1,7.9-11.844A26.867,26.867,0,0,0,72.843,79.3C78.5,80.467,82.38,79.118,82.9,75.74c.12-3.415-3.434-5.472-9.2-5.4a25.7,25.7,0,0,0-9.655,2.44q1.769-2.233,3.661-4.373c2.292-2.563,4.715-5.031,7.232-7.388,1.432,1.394,5.151,4.714,9.418,6.125,5.471,1.806,9.483.9,10.4-2.378.505-3.373-2.778-5.837-8.508-6.434A25.724,25.724,0,0,0,76.456,59.6,112.339,112.339,0,0,1,86.79,51.27a27.244,27.244,0,0,0,9.178,6.6c5.389,2.04,9.433,1.337,10.5-1.909.666-3.354-2.514-5.957-8.212-6.81a25.3,25.3,0,0,0-9.45.724c1.852-1.254,3.715-2.468,5.629-3.616.793-.465,1.645-.959,2.5-1.44a27,27,0,0,0,11-1.283c5.377-2.082,7.919-5.316,6.525-8.442-1.752-2.933-5.858-2.736-10.655.448a26.525,26.525,0,0,0-7.273,8.026,98.366,98.366,0,0,0-13.1,8.627,25.538,25.538,0,0,0,2.995-9.079c.531-5.744-1.242-9.454-4.657-9.59-3.411.25-5.06,4.024-4.352,9.737a27.361,27.361,0,0,0,4.142,10.38A118.721,118.721,0,0,0,69.606,64.517a26.412,26.412,0,0,0,1.727-10.376c-.473-5.739-2.851-9.1-6.232-8.665-3.312.848-4.308,4.839-2.621,10.355,1.374,4.513,4.871,8.483,6.1,9.771A110.556,110.556,0,0,0,58.712,77.78c.592-1.444,2.542-6.612,2.139-11.486-.456-5.747-2.835-9.108-6.225-8.657-3.315.823-4.3,4.826-2.616,10.327,1.568,5.146,5.879,9.576,6.46,10.157-1.625,2.332-3.136,4.727-4.555,7.183-.461.781-.893,1.584-1.329,2.382-.209.148-.337.251-.337.251s.057.032.152.082q-1.487,2.765-2.8,5.616a23.684,23.684,0,0,0-.235-8.112c-1.312-5.607-4.167-8.565-7.45-7.631-3.148,1.319-3.53,5.413-1.054,10.617a27.019,27.019,0,0,0,7.224,8.553A104.392,104.392,0,0,0,42.371,115.2a.627.627,0,0,0,1.226.263" transform="translate(7.28 6.125)" fill="#aed144"/>
            <path id="Trazado_104887" data-name="Trazado 104887" d="M20,148.411s-.551-.741-1.6-2.135c-.848-1.357-2.5-3.427-3.792-5.875a99.191,99.191,0,0,1-9.253-19.94A102.939,102.939,0,0,1,.171,94.14,99.511,99.511,0,0,1,2.648,65.951,97.554,97.554,0,0,1,12.987,39.626,101.646,101.646,0,0,1,29.381,18.405a107.924,107.924,0,0,1,9.005-7.9,100.724,100.724,0,0,1,8.285-5.756A65.521,65.521,0,0,1,52.715,1.2C54.184.4,55.113,0,55.113,0s.65.761,1.621,2.127c.856,1.362,2.522,3.44,3.822,5.892,1.432,2.48,3.283,5.529,4.826,8.865a110.7,110.7,0,0,1,4.5,11.092,101.464,101.464,0,0,1,5.158,26.309,97.945,97.945,0,0,1-2.555,28.181,98.744,98.744,0,0,1-10.441,26.309,102.667,102.667,0,0,1-16.406,21.207,99.97,99.97,0,0,1-17.2,13.687c-2.263,1.6-4.686,2.724-6.04,3.547C20.844,148,20,148.411,20,148.411" transform="translate(0.001 0.001)" fill="#3a8931"/>
            <path id="Trazado_104888" data-name="Trazado 104888" d="M57.63,96.454Q41.45,110.333,25.3,124.223l7.919-33.48a1.348,1.348,0,0,0,.563-.2Q50.894,75.843,68,61.156c1.106-.967-.551-2.518-1.647-1.572Q50.177,73.462,34.02,87.357l7.916-33.492a1.368,1.368,0,0,0,.58-.2q9.869-8.491,19.76-16.961c1.1-.964-.563-2.526-1.645-1.577Q51.676,42.816,42.743,50.48L53.6,4.585l-1.847-.424-10.617,44.9Q36.325,38.9,31.5,28.754c-.613-1.341-2.554-.123-1.909,1.177Q34.928,41.261,40.3,52.578L32.4,85.947c-.276-.6-.548-1.193-.831-1.772-2.086-4.42-4.2-8.85-6.29-13.276q-4.771-10.052-9.536-20.1c-.616-1.341-2.555-.127-1.922,1.182Q22.7,70.725,31.573,89.469L23.686,122.82q-.42-.884-.838-1.778-3.148-6.626-6.275-13.272Q11.791,97.72,7.025,87.662C6.4,86.329,4.466,87.539,5.1,88.856q8.856,18.746,17.745,37.481l-2.275,9.639,1.839.449,2.077-8.808a1.282,1.282,0,0,0,.568-.2q17.112-14.7,34.216-29.4c1.123-.95-.543-2.5-1.642-1.567" transform="translate(0.923 0.772)" fill="#aacd44"/>
            <g id="Grupo_56718" data-name="Grupo 56718" opacity="0.1">
              <g id="Grupo_56717" data-name="Grupo 56717">
                <g id="Grupo_56716" data-name="Grupo 56716" clip-path="url(#clip-path-6)">
                  <path id="Trazado_104889" data-name="Trazado 104889" d="M55.114,0c-.008,0-.938.391-2.407,1.193a69.833,69.833,0,0,0-6.056,3.539C44.27,6.308,41.243,8.2,38.375,10.5a106.159,106.159,0,0,0-9,7.9,101.126,101.126,0,0,0-16.4,21.212A98.183,98.183,0,0,0,2.633,65.939a99.841,99.841,0,0,0-2.465,28.2,102.5,102.5,0,0,0,5.176,26.309A99.84,99.84,0,0,0,14.6,140.4c1.289,2.447,2.954,4.533,3.8,5.871,1.041,1.369,1.605,2.135,1.605,2.143Z" transform="translate(0 0)" fill="#211a72"/>
                </g>
              </g>
            </g>
          </g>
        </g>
      </g>
    </g>
    <g id="Grupo_56723" data-name="Grupo 56723" transform="translate(1068.052 392.015)">
      <g id="Grupo_56721-2" data-name="Grupo 56721" clip-path="url(#clip-path-7)">
        <g id="Grupo_56720-2" data-name="Grupo 56720">
          <g id="Grupo_56719-2" data-name="Grupo 56719" clip-path="url(#clip-path-7)">
            <path id="Trazado_104883-2" data-name="Trazado 104883" d="M128.1,139.986s-.112-.783-.326-2.264c-.316-1.337-.554-3.6-1.258-5.873a85.518,85.518,0,0,0-6.467-17.738,88.589,88.589,0,0,0-12.824-19.127,85.438,85.438,0,0,0-18.6-15.633,83.71,83.71,0,0,0-22.253-9.723,87.194,87.194,0,0,0-22.835-2.947,94.391,94.391,0,0,0-10.268.654c-3.133.35-6.115,1.027-8.518,1.533a58.339,58.339,0,0,0-5.826,1.514c-1.381.4-2.185.727-2.185.727s.064.857.311,2.278c.3,1.346.55,3.618,1.247,5.895.631,2.376,1.355,5.346,2.441,8.311a96.927,96.927,0,0,0,4,9.474,86.962,86.962,0,0,0,12.828,19.115,83.938,83.938,0,0,0,18.651,15.572,85.159,85.159,0,0,0,22.291,9.661,88.506,88.506,0,0,0,22.833,2.931,85.946,85.946,0,0,0,18.766-2.125c2.346-.394,4.489-1.182,5.814-1.507,1.424-.468,2.182-.727,2.182-.727" transform="translate(-16.742 16.488)" fill="#4cad3e"/>
            <path id="Trazado_104884-2" data-name="Trazado 104884" d="M76.415,131.089q18.262-1.383,36.5-2.744L87.786,112.81a1.241,1.241,0,0,1-.463.221q-19.315,1.448-38.618,2.9c-1.255.082-1.19-1.865.049-1.956Q67,112.6,85.254,111.243L60.123,95.7a1.15,1.15,0,0,1-.476.217q-11.147.844-22.3,1.688c-1.26.082-1.186-1.87.044-1.961q10.1-.76,20.187-1.514l-34.445-21.3L24,71.449,57.7,92.286Q54.458,83.2,51.229,74.1c-.443-1.19,1.484-1.628,1.882-.442q3.624,10.122,7.224,20.257L85.371,109.4q-.286-.786-.571-1.58c-1.412-3.948-2.81-7.92-4.225-11.882-2.13-6-4.281-12.006-6.4-18-.447-1.19,1.471-1.624,1.887-.45q5.966,16.782,11.95,33.553l25.027,15.479c-.191-.529-.377-1.061-.571-1.577q-2.1-5.94-4.233-11.885-3.2-9.01-6.4-18.006c-.424-1.186,1.486-1.623,1.9-.442q5.985,16.758,11.946,33.541l7.237,4.47-.862,1.389-6.6-4.086a1.085,1.085,0,0,1-.463.222q-19.315,1.454-38.622,2.891c-1.26.1-1.195-1.853.039-1.948" transform="translate(-19.533 17.668)" fill="#aacd44"/>
            <g id="Grupo_56715-2" data-name="Grupo 56715" transform="translate(0 83.163)" opacity="0.1">
              <g id="Grupo_56714-2" data-name="Grupo 56714">
                <g id="Grupo_56713-2" data-name="Grupo 56713" clip-path="url(#clip-path-9)">
                  <path id="Trazado_104885-2" data-name="Trazado 104885" d="M16.735,71.106s.809-.333,2.177-.731a57.632,57.632,0,0,1,5.831-1.524c2.411-.494,5.393-1.172,8.531-1.523a91.964,91.964,0,0,1,10.263-.65,86.72,86.72,0,0,1,22.831,2.944,84.145,84.145,0,0,1,22.26,9.718,86.033,86.033,0,0,1,18.6,15.633A88.553,88.553,0,0,1,120.048,114.1a85.609,85.609,0,0,1,6.471,17.743,58.637,58.637,0,0,1,1.255,5.873c.2,1.463.321,2.259.333,2.268Z" transform="translate(-16.735 -66.675)" fill="#211a72"/>
                </g>
              </g>
            </g>
            <path id="Trazado_104886-2" data-name="Trazado 104886" d="M114.192,119.76a108.679,108.679,0,0,0-10.448-28.191,28.189,28.189,0,0,1-10.692,3.45c-6.051.382-9.907-1.588-9.967-5.185.363-3.571,4.375-5.2,10.37-4.286a25.7,25.7,0,0,1,8.822,3.4A109.336,109.336,0,0,0,93.97,76.489c-1.7,1.316-5.956,4.277-10.548,5.225-5.947,1.225-10.033-.195-10.582-3.748-.126-3.593,3.613-5.757,9.678-5.684a27.037,27.037,0,0,1,10.158,2.567q-1.862-2.35-3.852-4.6c-2.411-2.7-4.96-5.293-7.608-7.773-1.507,1.467-5.419,4.959-9.908,6.445-5.756,1.9-9.977.952-10.942-2.5-.531-3.548,2.922-6.142,8.952-6.769a27.064,27.064,0,0,1,10.3,1.341,118.2,118.2,0,0,0-10.872-8.768c-1.407,1.51-5.194,5.229-9.656,6.942-5.67,2.147-9.925,1.407-11.046-2.008-.7-3.529,2.645-6.268,8.64-7.164a26.623,26.623,0,0,1,9.942.762c-1.948-1.32-3.909-2.6-5.922-3.8-.834-.489-1.731-1.009-2.63-1.515-2.221.165-7.294.312-11.57-1.35-5.658-2.19-8.332-5.593-6.865-8.882,1.843-3.086,6.163-2.879,11.211.471A27.907,27.907,0,0,1,58.5,44.118a103.491,103.491,0,0,1,13.777,9.076,26.868,26.868,0,0,1-3.151-9.552c-.559-6.043,1.307-9.947,4.9-10.089,3.588.263,5.323,4.233,4.579,10.244-.589,4.641-3.2,9.12-4.358,10.921a124.907,124.907,0,0,1,12.578,11.44A27.788,27.788,0,0,1,85.01,55.242c.5-6.038,3-9.57,6.557-9.116,3.485.892,4.533,5.091,2.758,10.895C92.88,61.769,89.2,65.946,87.91,67.3A116.319,116.319,0,0,1,98.289,80.113c-.622-1.519-2.674-6.956-2.25-12.085.48-6.047,2.982-9.583,6.549-9.108,3.487.866,4.523,5.078,2.753,10.865-1.65,5.414-6.185,10.076-6.8,10.687,1.71,2.453,3.3,4.973,4.792,7.557.485.822.939,1.666,1.4,2.506.22.156.354.264.354.264s-.06.034-.16.086q1.564,2.909,2.947,5.908a24.918,24.918,0,0,1,.247-8.535c1.381-5.9,4.384-9.012,7.838-8.029,3.312,1.388,3.714,5.7,1.109,11.171-2.022,4.242-5.935,7.666-7.6,9a109.832,109.832,0,0,1,6.012,19.083.66.66,0,0,1-1.29.277" transform="translate(-35.475 8.164)" fill="#aed144"/>
            <path id="Trazado_104887-2" data-name="Trazado 104887" d="M58.072,156.144s.58-.78,1.684-2.246c.892-1.428,2.635-3.606,3.99-6.182a104.36,104.36,0,0,0,9.735-20.979,108.3,108.3,0,0,0,5.458-27.692,104.7,104.7,0,0,0-2.606-29.658,102.637,102.637,0,0,0-10.877-27.7A106.942,106.942,0,0,0,48.208,19.364a113.548,113.548,0,0,0-9.474-8.314,105.973,105.973,0,0,0-8.717-6.056,68.935,68.935,0,0,0-6.359-3.731C22.112.416,21.134,0,21.134,0s-.683.8-1.705,2.238c-.9,1.433-2.653,3.62-4.021,6.2-1.507,2.609-3.454,5.817-5.078,9.327A116.466,116.466,0,0,0,5.6,29.437,106.751,106.751,0,0,0,.172,57.117a103.965,103.965,0,0,0,13.673,57.329,108.017,108.017,0,0,0,17.261,22.313,105.179,105.179,0,0,0,18.1,14.4c2.381,1.688,4.93,2.866,6.355,3.732,1.631.818,2.515,1.255,2.515,1.255" transform="translate(53.125 0.001)" fill="#3a8931"/>
            <path id="Trazado_104888-2" data-name="Trazado 104888" d="M16.273,101.263q17.023,14.6,34.016,29.216L41.956,95.255a1.418,1.418,0,0,1-.592-.212q-18-15.465-36-30.916c-1.164-1.018.58-2.649,1.732-1.654q17.022,14.6,34.021,29.22L32.785,56.456a1.44,1.44,0,0,1-.61-.212Q21.792,47.31,11.386,38.4c-1.16-1.014.592-2.658,1.731-1.659q9.42,8.09,18.819,16.153L20.514,4.608l1.943-.447L33.628,51.405q5.059-10.694,10.138-21.37c.645-1.411,2.687-.13,2.008,1.239Q40.158,43.194,34.5,55.1l8.311,35.107c.291-.627.576-1.255.874-1.865,2.2-4.65,4.415-9.311,6.618-13.968Q55.325,63.8,60.339,53.226c.649-1.411,2.688-.133,2.022,1.244Q53.025,74.193,43.688,93.914l8.3,35.09q.442-.93.882-1.871,3.312-6.971,6.6-13.963Q64.5,102.595,69.515,92.013c.657-1.4,2.692-.13,2.022,1.256Q62.22,112.992,52.868,132.7l2.394,10.142-1.935.473-2.185-9.267a1.348,1.348,0,0,1-.6-.208q-18-15.465-36-30.93c-1.181-1,.571-2.632,1.727-1.649" transform="translate(54.368 1.029)" fill="#aacd44"/>
            <g id="Grupo_56718-2" data-name="Grupo 56718" transform="translate(74.259)" opacity="0.1">
              <g id="Grupo_56717-2" data-name="Grupo 56717">
                <g id="Grupo_56716-2" data-name="Grupo 56716" clip-path="url(#clip-path-10)">
                  <path id="Trazado_104889-2" data-name="Trazado 104889" d="M0,0c.009,0,.987.412,2.532,1.255A73.471,73.471,0,0,1,8.9,4.979c2.506,1.658,5.691,3.648,8.708,6.068a111.693,111.693,0,0,1,9.466,8.314A106.4,106.4,0,0,1,44.331,41.679a103.3,103.3,0,0,1,10.885,27.7,105.044,105.044,0,0,1,2.593,29.668,107.843,107.843,0,0,1-5.446,27.68,105.042,105.042,0,0,1-9.737,21c-1.356,2.574-3.108,4.77-4,6.177-1.1,1.441-1.689,2.246-1.689,2.255Z" transform="translate(0 0)" fill="#211a72"/>
                </g>
              </g>
            </g>
          </g>
        </g>
      </g>
    </g>
    <g id="Grupo_56751" data-name="Grupo 56751" transform="matrix(-0.259, 0.966, -0.966, -0.259, 1360, 302.968)">
      <g id="Grupo_56691-3" data-name="Grupo 56691" clip-path="url(#clip-path-2)">
        <path id="Trazado_104836-3" data-name="Trazado 104836" d="M184.75,93.68a186.863,186.863,0,0,0-40.2-32.714c-2.129,3.528-6.7,10.283-12.857,14.481-8.644,5.866-16.094,6.315-19.33,1.021-2.584-5.616,1.939-11.544,11.647-15.445,5.437-2.191,11.66-2.672,16.073-2.672A190.778,190.778,0,0,0,116.842,47.12c-1.379,3.436-5.111,11.571-11.1,17-7.755,7.015-15.072,8.481-19,3.692C83.415,62.6,87.075,56.1,96.149,50.9c5.825-3.343,12.979-4.62,17.334-5.089-3.216-1.232-6.474-2.4-9.758-3.452-5.938-1.905-12-3.514-18.1-4.882-.955,3.5-3.706,12.111-9.083,18.243-6.883,7.863-13.975,10.157-18.433,5.868-3.9-4.805-1.031-11.678,7.368-17.891,5.345-3.946,12.193-6.03,16.472-7.03a205.378,205.378,0,0,0-23.819-3.5c-.765,3.472-3.14,12.311-8.272,18.764-6.536,8.154-13.51,10.778-18.15,6.689C27.567,54,30.14,47,38.258,40.41c4.876-3.967,11.182-6.311,15.434-7.567-4.043-.255-8.082-.434-12.115-.463-1.676,0-3.466.009-5.244.056-3.146,2.185-10.554,6.851-18.367,8.123C7.648,42.258.7,39.538,0,33.374c.031-6.193,6.633-9.661,17.063-9.119,7.623.393,15.206,3.943,18.76,5.847a177.976,177.976,0,0,1,28.4,1.414C60.438,29.193,54.9,25.241,51.186,20.09,45.074,11.609,44.415,4.179,49.624.809,55.184-1.938,61.24,2.434,65.4,12.022c3.2,7.4,3.233,16.344,3.09,20.035a214.794,214.794,0,0,1,28.7,5.974c-3.253-2.691-9.074-8.078-12.255-14.618C80.372,14.009,81,6.574,86.693,4.133c5.943-1.736,11.17,3.59,13.628,13.756,2.011,8.323.2,17.753-.527,20.889a203.115,203.115,0,0,1,26.637,9.94c-2.261-1.71-10.064-7.985-13.939-15.976-4.574-9.394-3.951-16.834,1.757-19.26,5.938-1.761,11.157,3.584,13.607,13.731,2.3,9.475-.356,20.372-.74,21.811q7.023,3.224,13.735,7.026c1.445.8,2.859,1.66,4.268,2.5.471.046.756.087.756.087s-.056.1-.153.271c3.241,1.966,6.439,4.029,9.547,6.193a43.043,43.043,0,0,1-7.1-12.9c-3.11-9.961-1.383-17.222,4.605-18.789,6.143-.833,10.508,5.213,11.428,15.624.709,8.067-2.1,16.583-3.416,20.02a190.148,190.148,0,0,1,25.651,23.068,1.146,1.146,0,0,1-1.685,1.552" transform="translate(0 0)" fill="#246b1a"/>
      </g>
    </g>
  </g>
</svg>
