<svg xmlns="http://www.w3.org/2000/svg" width="75.519" height="75.519" viewBox="0 0 75.519 75.519">
  <g id="descargar-pdf" transform="translate(0)">
    <path id="Trazado_684676" data-name="Trazado 684676" d="M97.575,8.256,92.059,0H83.477a2.2,2.2,0,0,0-.889.187L76.932,11.13,65.771,16.325a2.219,2.219,0,0,0-.211.944V68.6a2.213,2.213,0,0,0,2.212,2.212H92.059l5.515-6.5Z" transform="translate(-55.89)" fill="#e4ebf2"/>
    <g id="Grupo_946316" data-name="Grupo 946316" transform="translate(9.881 0.187)">
      <path id="Trazado_684677" data-name="Trazado 684677" d="M83.805,1.27V15.2a2.213,2.213,0,0,1-2.212,2.212h-14.6a2.222,2.222,0,0,1,.471-.653L83.164,1.7a2.171,2.171,0,0,1,.642-.428Z" transform="translate(-66.989 -1.27)" fill="#ccd6e7"/>
    </g>
    <path id="Trazado_684678" data-name="Trazado 684678" d="M271.719,2.212V68.6a2.213,2.213,0,0,1-2.212,2.212H245.22V0h24.287A2.213,2.213,0,0,1,271.719,2.212Z" transform="translate(-209.051)" fill="#ccd6e7"/>
    <g id="Grupo_946317" data-name="Grupo 946317" transform="translate(26.61 19.25)">
      <path id="Trazado_684679" data-name="Trazado 684679" d="M192.609,134.853l-2.64-4.342h-4.932a4.632,4.632,0,0,0-4.627,4.627V154.8a4.632,4.632,0,0,0,4.627,4.627h4.932l2.64-3.964Z" transform="translate(-180.41 -130.511)" fill="#a4ddcd"/>
    </g>
    <path id="Trazado_684680" data-name="Trazado 684680" d="M284.569,135.138V154.8a4.633,4.633,0,0,1-4.629,4.627H245.22V130.511h34.721A4.633,4.633,0,0,1,284.569,135.138Z" transform="translate(-209.051 -111.261)" fill="#80cab6"/>
    <g id="Grupo_946318" data-name="Grupo 946318" transform="translate(0 38.044)">
      <path id="Trazado_684681" data-name="Trazado 684681" d="M29.072,279.086l-12.57,15.5a2.215,2.215,0,0,1-3.438,0l-12.57-15.5a2.212,2.212,0,0,1,1.718-3.6H6.49V260.144A2.212,2.212,0,0,1,8.7,257.932H20.863a2.212,2.212,0,0,1,2.212,2.212v15.337h4.277a2.212,2.212,0,0,1,1.718,3.6Z" transform="translate(0 -257.932)" fill="#adc46c"/>
    </g>
    <path id="Trazado_684682" data-name="Trazado 684682" d="M410.262,184.079h-2.928v-2.838h3.307a1.475,1.475,0,0,0,0-2.95h-4.782a1.475,1.475,0,0,0-1.475,1.475v11.8a1.475,1.475,0,1,0,2.95,0v-4.537h2.928a1.475,1.475,0,0,0,0-2.95Z" transform="translate(-344.738 -151.993)" fill="#fff"/>
    <path id="Trazado_684683" data-name="Trazado 684683" d="M320.067,178.219c-3.537,0-3.827-.127-4.386.433a1.475,1.475,0,0,0-.431,1.045v.009h0c0,12.567-.013,11.676.029,11.886a1.472,1.472,0,0,0,1.47,1.377h.006c.1,0,2.484-.01,3.436-.026,3.544-.062,6.117-3.152,6.117-7.349C326.307,181.183,323.8,178.219,320.067,178.219Zm.072,11.774c-.441.008-1.22.014-1.92.018,0-1.4-.01-3.423-.01-4.431,0-.848,0-2.961-.006-4.412h1.864c2.426,0,3.29,2.286,3.29,4.425C323.357,187.756,322.362,189.955,320.139,189.993Z" transform="translate(-268.75 -151.922)" fill="#fff"/>
    <path id="Trazado_684684" data-name="Trazado 684684" d="M237.212,180.415l-.517-2.124a1.477,1.477,0,0,0-1.475,1.475v11.8a1.476,1.476,0,0,0,1.475,1.475l.517-2.342Z" transform="translate(-200.526 -151.993)" fill="#fff"/>
    <path id="Trazado_684685" data-name="Trazado 684685" d="M248.506,178.291H245.22v14.75a1.475,1.475,0,0,0,1.475-1.475v-3.659c.664,0,1.392-.006,1.811-.006a4.805,4.805,0,1,0,0-9.61Zm0,6.66c-.417,0-1.137,0-1.8.006-.009-1.934,0-1.18-.01-3.715h1.807a1.856,1.856,0,1,1,0,3.71Z" transform="translate(-209.051 -151.993)" fill="#fff"/>
  </g>
</svg>
