<svg xmlns="http://www.w3.org/2000/svg" width="400" height="189" viewBox="0 0 400 189">
  <g id="Grupo_957298" data-name="Grupo 957298" transform="translate(-810 -10549)">
    <g id="Rectángulo_337981" data-name="Rectángulo 337981" transform="translate(810 10549)" fill="#fff" stroke="#000" stroke-width="1">
      <rect width="400" height="189" rx="20" stroke="none"/>
      <rect x="0.5" y="0.5" width="399" height="188" rx="19.5" fill="none"/>
    </g>
    <g id="Grupo_947754" data-name="Grupo 947754" transform="translate(6 1964)">
      <path id="Trazado_723469" data-name="Trazado 723469" d="M1.836,22V8H5.7q7.4,0,7.4,6.826a6.879,6.879,0,0,1-2.056,5.21A7.626,7.626,0,0,1,5.547,22ZM3.477,9.48V20.516h2.09a5.931,5.931,0,0,0,4.287-1.475,5.528,5.528,0,0,0,1.533-4.18q0-5.381-5.723-5.381ZM23.682,17.4H16.621a3.74,3.74,0,0,0,.9,2.578,3.1,3.1,0,0,0,2.363.908,4.913,4.913,0,0,0,3.105-1.113v1.5a5.8,5.8,0,0,1-3.486.957,4.227,4.227,0,0,1-3.33-1.362,5.576,5.576,0,0,1-1.211-3.833,5.468,5.468,0,0,1,1.323-3.8,4.243,4.243,0,0,1,3.286-1.47,3.76,3.76,0,0,1,3.037,1.27,5.293,5.293,0,0,1,1.074,3.525Zm-1.641-1.357a3.259,3.259,0,0,0-.669-2.158,2.279,2.279,0,0,0-1.831-.771,2.587,2.587,0,0,0-1.924.811,3.678,3.678,0,0,0-.977,2.119ZM34.4,22H32.8V16.3q0-3.184-2.324-3.184a2.521,2.521,0,0,0-1.987.9,3.348,3.348,0,0,0-.786,2.28V22H26.1V12h1.6v1.66h.039a3.609,3.609,0,0,1,3.281-1.895,3.059,3.059,0,0,1,2.51,1.06,4.72,4.72,0,0,1,.869,3.062Zm2.412-.361V19.92a4.74,4.74,0,0,0,2.881.967q2.109,0,2.109-1.406a1.22,1.22,0,0,0-.181-.679,1.8,1.8,0,0,0-.488-.493,3.759,3.759,0,0,0-.723-.386q-.415-.171-.894-.356a11.508,11.508,0,0,1-1.167-.532,3.525,3.525,0,0,1-.84-.605,2.253,2.253,0,0,1-.508-.767,2.712,2.712,0,0,1-.171-1.006,2.389,2.389,0,0,1,.322-1.245,2.858,2.858,0,0,1,.859-.908,4.007,4.007,0,0,1,1.226-.552,5.436,5.436,0,0,1,1.421-.186,5.737,5.737,0,0,1,2.324.449v1.621a4.53,4.53,0,0,0-2.539-.723,2.968,2.968,0,0,0-.811.1,1.984,1.984,0,0,0-.62.288,1.331,1.331,0,0,0-.4.444,1.17,1.17,0,0,0-.142.571,1.37,1.37,0,0,0,.142.654,1.44,1.44,0,0,0,.415.469,3.172,3.172,0,0,0,.664.371q.391.166.889.361a12.368,12.368,0,0,1,1.191.522,4.086,4.086,0,0,1,.9.605,2.366,2.366,0,0,1,.571.776,2.5,2.5,0,0,1,.2,1.045,2.464,2.464,0,0,1-.327,1.289,2.8,2.8,0,0,1-.874.908,4,4,0,0,1-1.26.537,6.22,6.22,0,0,1-1.494.176A5.674,5.674,0,0,1,36.816,21.639ZM46.729,9.461A1.015,1.015,0,0,1,46,9.168a.989.989,0,0,1-.3-.742,1.026,1.026,0,0,1,1.035-1.045,1.034,1.034,0,0,1,.747.3,1.043,1.043,0,0,1,0,1.479A1.025,1.025,0,0,1,46.729,9.461ZM47.51,22h-1.6V12h1.6Zm11.777,0h-1.6V20.3h-.039a3.7,3.7,0,0,1-3.437,1.934A3.735,3.735,0,0,1,51.2,20.892a5.509,5.509,0,0,1-1.128-3.657,5.993,5.993,0,0,1,1.25-3.975,4.123,4.123,0,0,1,3.33-1.494,3.206,3.206,0,0,1,3,1.621h.039V7.2h1.6Zm-1.6-4.521V16a2.861,2.861,0,0,0-.8-2.051,2.686,2.686,0,0,0-2.031-.84,2.766,2.766,0,0,0-2.3,1.074,4.707,4.707,0,0,0-.84,2.969,4.234,4.234,0,0,0,.806,2.729,2.633,2.633,0,0,0,2.163,1,2.735,2.735,0,0,0,2.173-.967A3.6,3.6,0,0,0,57.686,17.479Zm12,4.521h-1.6V20.438h-.039a3.353,3.353,0,0,1-3.076,1.8,3.288,3.288,0,0,1-2.339-.791,2.741,2.741,0,0,1-.845-2.1q0-2.8,3.3-3.262l3-.42q0-2.549-2.061-2.549a4.923,4.923,0,0,0-3.262,1.23V12.7a6.2,6.2,0,0,1,3.4-.937q3.525,0,3.525,3.73Zm-1.6-5.059-2.412.332a3.916,3.916,0,0,0-1.68.552,1.591,1.591,0,0,0-.566,1.4,1.526,1.526,0,0,0,.522,1.2,2.019,2.019,0,0,0,1.392.464,2.571,2.571,0,0,0,1.968-.835,2.983,2.983,0,0,0,.776-2.114ZM81.24,22h-1.6V20.3H79.6a3.7,3.7,0,0,1-3.437,1.934,3.735,3.735,0,0,1-3.013-1.343,5.509,5.509,0,0,1-1.128-3.657,5.993,5.993,0,0,1,1.25-3.975,4.123,4.123,0,0,1,3.33-1.494,3.206,3.206,0,0,1,3,1.621h.039V7.2h1.6Zm-1.6-4.521V16a2.861,2.861,0,0,0-.8-2.051,2.686,2.686,0,0,0-2.031-.84,2.766,2.766,0,0,0-2.3,1.074,4.707,4.707,0,0,0-.84,2.969,4.234,4.234,0,0,0,.806,2.729,2.633,2.633,0,0,0,2.163,1A2.735,2.735,0,0,0,78.8,19.92,3.6,3.6,0,0,0,79.639,17.479ZM94.16,25.184H92.734a12.48,12.48,0,0,1-3.027-8.525A12.953,12.953,0,0,1,92.734,8H94.18a13.161,13.161,0,0,0-3.066,8.643A12.931,12.931,0,0,0,94.16,25.184Zm1.4-3.75V19.5a3.755,3.755,0,0,0,.8.527,6.448,6.448,0,0,0,.977.4,7.774,7.774,0,0,0,1.03.249,5.744,5.744,0,0,0,.957.088,3.749,3.749,0,0,0,2.261-.562,2.106,2.106,0,0,0,.5-2.6,2.805,2.805,0,0,0-.688-.767,6.832,6.832,0,0,0-1.04-.664q-.6-.317-1.294-.669-.732-.371-1.367-.752a5.924,5.924,0,0,1-1.1-.84,3.5,3.5,0,0,1-.737-1.04,3.219,3.219,0,0,1-.269-1.362A3.2,3.2,0,0,1,96,9.837,3.6,3.6,0,0,1,97.1,8.67a5,5,0,0,1,1.558-.684,7.132,7.132,0,0,1,1.782-.225,6.83,6.83,0,0,1,3.018.5v1.846a5.47,5.47,0,0,0-3.184-.859,5.236,5.236,0,0,0-1.074.112,3.034,3.034,0,0,0-.957.366,2.12,2.12,0,0,0-.684.654,1.737,1.737,0,0,0-.264.977,2.011,2.011,0,0,0,.2.928,2.274,2.274,0,0,0,.591.713,5.884,5.884,0,0,0,.952.625q.562.3,1.294.664.752.371,1.426.781a6.517,6.517,0,0,1,1.182.908,4.036,4.036,0,0,1,.806,1.1,3.1,3.1,0,0,1,.3,1.387,3.517,3.517,0,0,1-.405,1.753,3.326,3.326,0,0,1-1.094,1.167,4.777,4.777,0,0,1-1.587.649,8.691,8.691,0,0,1-1.895.2,7.721,7.721,0,0,1-.82-.054q-.488-.054-1-.156a8.128,8.128,0,0,1-.962-.254A2.993,2.993,0,0,1,95.557,21.434Zm11.1,3.75h-1.426a12.931,12.931,0,0,0,3.047-8.545A13.161,13.161,0,0,0,105.215,8h1.445a12.9,12.9,0,0,1,3.047,8.662A12.432,12.432,0,0,1,106.66,25.184Z" transform="translate(828 8642)" fill="#12263f"/>
      <path id="Trazado_723474" data-name="Trazado 723474" d="M11.709,13.3H9.541v6.045q0,1.367.986,1.367a2.729,2.729,0,0,0,.859-.186v1.367a3.356,3.356,0,0,1-1.191.225q-2.266,0-2.266-2.705V13.3h-3.8v5.967A8.673,8.673,0,0,1,3.818,22H2.188a7.719,7.719,0,0,0,.352-2.734V13.3a4.228,4.228,0,0,0-2.373.869V12.7A3.379,3.379,0,0,1,2.559,12h9.15Z" transform="translate(1046.501 8676)" fill="#12263f"/>
      <text id="_" data-name="=" transform="translate(952 8642)" fill="#12263f" font-size="20" font-family="SegoeUI, Segoe UI"><tspan x="0" y="22">=</tspan></text>
      <text id="_2" data-name="=" transform="translate(1019 8642)" fill="#12263f" font-size="20" font-family="SegoeUI, Segoe UI"><tspan x="0" y="22">=</tspan></text>
      <text id="D" transform="translate(1090.252 8662.5)" fill="#12263f" font-size="20" font-family="SegoeUI, Segoe UI"><tspan x="0" y="22">D</tspan></text>
      <path id="Trazado_723470" data-name="Trazado 723470" d="M18.438,8,14.482,22H12.559L9.678,11.766a6.407,6.407,0,0,1-.225-1.426H9.414a7.234,7.234,0,0,1-.254,1.406L6.26,22h-1.9L.254,8H2.061L5.039,18.738a7.05,7.05,0,0,1,.234,1.406h.049a8.3,8.3,0,0,1,.3-1.406L8.721,8h1.572l2.969,10.82a7.915,7.915,0,0,1,.234,1.309h.039a7.845,7.845,0,0,1,.264-1.348L16.66,8Z" transform="translate(981.5 8627)" fill="#12263f"/>
      <path id="Trazado_723473" data-name="Trazado 723473" d="M16.588,71.073H12.524Q3.9,61.221,3.9,46.776q0-14.5,8.628-24.687h4.119A37.509,37.509,0,0,0,7.9,46.72,36.854,36.854,0,0,0,16.588,71.073Zm36.571,0H49.1A36.854,36.854,0,0,0,57.779,46.72,37.509,37.509,0,0,0,49.04,22.089h4.119q8.684,10.187,8.684,24.687Q61.843,61.221,53.159,71.073Z" transform="translate(1064.5 8648.5)" fill="#12263f"/>
      <path id="Trazado_723472" data-name="Trazado 723472" d="M18.438,8,14.482,22H12.559L9.678,11.766a6.407,6.407,0,0,1-.225-1.426H9.414a7.234,7.234,0,0,1-.254,1.406L6.26,22h-1.9L.254,8H2.061L5.039,18.738a7.05,7.05,0,0,1,.234,1.406h.049a8.3,8.3,0,0,1,.3-1.406L8.721,8h1.572l2.969,10.82a7.915,7.915,0,0,1,.234,1.309h.039a7.845,7.845,0,0,1,.264-1.348L16.66,8Z" transform="translate(1102 8627)" fill="#12263f"/>
      <path id="Trazado_723476" data-name="Trazado 723476" d="M5.82,25.184H4.395a12.48,12.48,0,0,1-3.027-8.525A12.953,12.953,0,0,1,4.395,8H5.84a13.161,13.161,0,0,0-3.066,8.643A12.931,12.931,0,0,0,5.82,25.184ZM18.4,22H16.758V15.613H9.512V22H7.871V8H9.512v6.143h7.246V8H18.4Zm3.5,3.184H20.469a12.931,12.931,0,0,0,3.047-8.545A13.161,13.161,0,0,0,20.449,8h1.445a12.9,12.9,0,0,1,3.047,8.662A12.432,12.432,0,0,1,21.895,25.184Z" transform="translate(1150 8676)" fill="#12263f"/>
      <text id="_2-2" data-name="2" transform="translate(1090.252 8692.5)" fill="#12263f" font-size="20" font-family="SegoeUI, Segoe UI"><tspan x="0" y="22">2</tspan></text>
      <path id="Trazado_723471" data-name="Trazado 723471" d="M12.246,8,7.061,22H5.254L.176,8H2L5.879,19.1a6.593,6.593,0,0,1,.283,1.24H6.2a6.083,6.083,0,0,1,.322-1.26L10.479,8Z" transform="translate(981.5 8657)" fill="#12263f"/>
      <text id="_2-3" data-name="2" transform="translate(1130.251 8661)" fill="#12263f" font-size="14" font-family="SegoeUI, Segoe UI"><tspan x="0" y="15">2</tspan></text>
      <path id="Trazado_723475" data-name="Trazado 723475" d="M8.053,15h-1.4L4.4,11.247a3.366,3.366,0,0,1-.226-.485H4.143q-.068.157-.232.485L1.586,15H.178l3.281-4.929L.438,5.2H1.846l2,3.445a6.911,6.911,0,0,1,.349.684h.027a7.548,7.548,0,0,1,.383-.711L6.692,5.2H8.012l-3.083,4.86Z" transform="translate(1139 8681)" fill="#12263f"/>
      <path id="Trazado_720982" data-name="Trazado 720982" d="M12555.877-5586h29.5" transform="translate(-11472.126 14276.5)" fill="none" stroke="#000" stroke-width="2"/>
      <path id="Trazado_720987" data-name="Trazado 720987" d="M12555.877-5586h29.5" transform="translate(-11580.877 14241)" fill="none" stroke="#000" stroke-width="2"/>
      <path id="Trazado_720986" data-name="Trazado 720986" d="M12555.88-5586h133.5" transform="translate(-11509.378 14241)" fill="none" stroke="#000" stroke-width="2"/>
    </g>
  </g>
</svg>
