<svg xmlns="http://www.w3.org/2000/svg" width="400" height="141" viewBox="0 0 400 141">
  <g id="Grupo_947730" data-name="Grupo 947730" transform="translate(-810 -5999)">
    <g id="Rectángulo_337981" data-name="Rectángulo 337981" transform="translate(810 5999)" fill="#fff" stroke="#000" stroke-width="1">
      <rect width="400" height="141" rx="20" stroke="none"/>
      <rect x="0.5" y="0.5" width="399" height="140" rx="19.5" fill="none"/>
    </g>
    <g id="Grupo_947729" data-name="Grupo 947729" transform="translate(205.333 -44)">
      <path id="Trazado_723463" data-name="Trazado 723463" d="M3.945,15.018a2.952,2.952,0,0,1-2.3-.952,3.653,3.653,0,0,1-.859-2.544,3.925,3.925,0,0,1,.908-2.739,3.146,3.146,0,0,1,2.451-1,2.942,2.942,0,0,1,2.319.928,3.791,3.791,0,0,1,.825,2.607,3.836,3.836,0,0,1-.923,2.69A3.119,3.119,0,0,1,3.945,15.018Zm.137-6.162a1.758,1.758,0,0,0-1.465.688,3,3,0,0,0-.537,1.89,2.875,2.875,0,0,0,.527,1.841,1.74,1.74,0,0,0,1.436.659,1.7,1.7,0,0,0,1.436-.684A3.076,3.076,0,0,0,6,11.355a2.934,2.934,0,0,0-.513-1.841A1.679,1.679,0,0,0,4.082,8.855ZM13.32,8,4.336,22.1h-1.4L11.914,8ZM12.285,22.215a2.944,2.944,0,0,1-2.3-.957,3.657,3.657,0,0,1-.859-2.539,3.935,3.935,0,0,1,.918-2.749,3.138,3.138,0,0,1,2.441-1.011,2.93,2.93,0,0,1,2.314.938,3.83,3.83,0,0,1,.83,2.627A3.821,3.821,0,0,1,14.7,21.2,3.119,3.119,0,0,1,12.285,22.215Zm.137-6.152a1.759,1.759,0,0,0-1.47.684,3.014,3.014,0,0,0-.532,1.895,2.841,2.841,0,0,0,.527,1.821,1.74,1.74,0,0,0,1.436.659,1.7,1.7,0,0,0,1.436-.688,3.08,3.08,0,0,0,.518-1.89,2.887,2.887,0,0,0-.513-1.836A1.694,1.694,0,0,0,12.422,16.063ZM34.209,22H32.568V15.613H25.322V22H23.682V8h1.641v6.143h7.246V8h1.641Zm11.543,0h-1.6V20.418h-.039a3.289,3.289,0,0,1-3.086,1.816q-3.574,0-3.574-4.258V12h1.592v5.723q0,3.164,2.422,3.164a2.45,2.45,0,0,0,1.929-.864,3.307,3.307,0,0,0,.757-2.261V12h1.6Zm17.432,0h-1.6V16.258a4.332,4.332,0,0,0-.513-2.4,1.944,1.944,0,0,0-1.724-.742,2.134,2.134,0,0,0-1.743.938,3.586,3.586,0,0,0-.718,2.246V22h-1.6V16.063q0-2.949-2.275-2.949A2.108,2.108,0,0,0,51.27,14a3.653,3.653,0,0,0-.684,2.3V22h-1.6V12h1.6v1.582h.039a3.4,3.4,0,0,1,3.105-1.816,2.888,2.888,0,0,1,2.832,2.07,3.569,3.569,0,0,1,3.32-2.07q3.3,0,3.3,4.072Zm11.064-4.6H67.188a3.74,3.74,0,0,0,.9,2.578,3.1,3.1,0,0,0,2.363.908,4.913,4.913,0,0,0,3.105-1.113v1.5a5.8,5.8,0,0,1-3.486.957,4.227,4.227,0,0,1-3.33-1.362,5.576,5.576,0,0,1-1.211-3.833,5.468,5.468,0,0,1,1.323-3.8,4.243,4.243,0,0,1,3.286-1.47,3.76,3.76,0,0,1,3.037,1.27,5.293,5.293,0,0,1,1.074,3.525Zm-1.641-1.357a3.259,3.259,0,0,0-.669-2.158,2.279,2.279,0,0,0-1.831-.771,2.587,2.587,0,0,0-1.924.811,3.678,3.678,0,0,0-.977,2.119ZM85.205,22H83.6V20.3h-.039a3.7,3.7,0,0,1-3.437,1.934,3.735,3.735,0,0,1-3.013-1.343,5.509,5.509,0,0,1-1.128-3.657,5.993,5.993,0,0,1,1.25-3.975,4.123,4.123,0,0,1,3.33-1.494,3.206,3.206,0,0,1,3,1.621H83.6V7.2h1.6Zm-1.6-4.521V16a2.861,2.861,0,0,0-.8-2.051,2.686,2.686,0,0,0-2.031-.84,2.766,2.766,0,0,0-2.3,1.074,4.707,4.707,0,0,0-.84,2.969,4.234,4.234,0,0,0,.806,2.729,2.633,2.633,0,0,0,2.163,1,2.735,2.735,0,0,0,2.173-.967A3.6,3.6,0,0,0,83.6,17.479Zm12,4.521H94V20.438h-.039a3.353,3.353,0,0,1-3.076,1.8,3.288,3.288,0,0,1-2.339-.791,2.741,2.741,0,0,1-.845-2.1q0-2.8,3.3-3.262l3-.42q0-2.549-2.061-2.549a4.923,4.923,0,0,0-3.262,1.23V12.7a6.2,6.2,0,0,1,3.4-.937q3.525,0,3.525,3.73ZM94,16.941l-2.412.332a3.916,3.916,0,0,0-1.68.552,1.591,1.591,0,0,0-.566,1.4,1.526,1.526,0,0,0,.522,1.2,2.019,2.019,0,0,0,1.392.464,2.571,2.571,0,0,0,1.968-.835A2.983,2.983,0,0,0,94,17.938ZM107.158,22h-1.6V20.3h-.039a3.7,3.7,0,0,1-3.437,1.934,3.735,3.735,0,0,1-3.013-1.343,5.509,5.509,0,0,1-1.128-3.657,5.993,5.993,0,0,1,1.25-3.975,4.123,4.123,0,0,1,3.33-1.494,3.206,3.206,0,0,1,3,1.621h.039V7.2h1.6Zm-1.6-4.521V16a2.861,2.861,0,0,0-.8-2.051,2.686,2.686,0,0,0-2.031-.84,2.766,2.766,0,0,0-2.3,1.074,4.707,4.707,0,0,0-.84,2.969,4.234,4.234,0,0,0,.806,2.729,2.633,2.633,0,0,0,2.163,1,2.735,2.735,0,0,0,2.173-.967A3.6,3.6,0,0,0,105.557,17.479Z" transform="translate(636.667 6101)" fill="#12263f"/>
      <path id="Trazado_723461" data-name="Trazado 723461" d="M7.07,22h-1.6V9.9a3.707,3.707,0,0,1-.542.425,8.835,8.835,0,0,1-.8.474q-.444.234-.937.439a6.813,6.813,0,0,1-.962.322V9.939a9.311,9.311,0,0,0,1.118-.4q.591-.249,1.162-.557t1.079-.645a8.567,8.567,0,0,0,.879-.659H7.07Zm13.672-7.061a13.757,13.757,0,0,1-.317,3.115,7.259,7.259,0,0,1-.918,2.29,4.132,4.132,0,0,1-1.475,1.416,4.037,4.037,0,0,1-1.987.483,3.77,3.77,0,0,1-1.88-.464,3.94,3.94,0,0,1-1.392-1.353,6.855,6.855,0,0,1-.859-2.183,13.5,13.5,0,0,1-.293-2.964,15.277,15.277,0,0,1,.308-3.242,7.416,7.416,0,0,1,.9-2.358,4.021,4.021,0,0,1,1.479-1.436,4.154,4.154,0,0,1,2.026-.483Q20.742,7.762,20.742,14.939ZM19.1,15.1q0-5.977-2.842-5.977-3,0-3,6.084,0,5.674,2.939,5.674Q19.1,20.877,19.1,15.1Zm12.422-.156a13.757,13.757,0,0,1-.317,3.115,7.259,7.259,0,0,1-.918,2.29,4.132,4.132,0,0,1-1.475,1.416,4.037,4.037,0,0,1-1.987.483,3.77,3.77,0,0,1-1.88-.464,3.94,3.94,0,0,1-1.392-1.353,6.855,6.855,0,0,1-.859-2.183,13.5,13.5,0,0,1-.293-2.964,15.277,15.277,0,0,1,.308-3.242,7.416,7.416,0,0,1,.9-2.358,4.021,4.021,0,0,1,1.479-1.436,4.154,4.154,0,0,1,2.026-.483Q31.523,7.762,31.523,14.939Zm-1.641.156q0-5.977-2.842-5.977-3,0-3,6.084,0,5.674,2.939,5.674Q29.883,20.877,29.883,15.1Z" transform="translate(947.667 6097)" fill="#12263f"/>
      <text id="_" data-name="=" transform="translate(777.667 6101)" fill="#12263f" font-size="20" font-family="SegoeUI, Segoe UI"><tspan x="0" y="22">=</tspan></text>
      <path id="Trazado_723462" data-name="Trazado 723462" d="M7.617,11.219l-2.676.547L6.8,14.139l-1.074.742L4.2,12.293,2.656,14.881l-1.074-.742,1.855-2.373-2.7-.547L1.182,10l2.559.967L3.516,8H4.863l-.225,2.969L7.207,10Z" transform="translate(911.667 6101)" fill="#12263f"/>
      <g id="Grupo_947728" data-name="Grupo 947728" transform="translate(819.309 6086)">
        <text id="A_-_B" data-name="A  -  B" transform="translate(7.358)" fill="#12263f" font-size="20" font-family="SegoeUI, Segoe UI"><tspan x="0" y="22" xml:space="preserve">A  -  B</tspan></text>
        <text id="A_-_C" data-name="A  -  C" transform="translate(7.358 30)" fill="#12263f" font-size="20" font-family="SegoeUI, Segoe UI"><tspan x="0" y="22" xml:space="preserve">A  -  C</tspan></text>
        <path id="Trazado_720982" data-name="Trazado 720982" d="M12555.879-5586h78.167" transform="translate(-12555.879 5614)" fill="none" stroke="#000" stroke-width="2"/>
      </g>
    </g>
  </g>
</svg>
