<svg xmlns="http://www.w3.org/2000/svg" width="505" height="128.409" viewBox="0 0 505 128.409">
  <g id="Grupo_956618" data-name="Grupo 956618" transform="translate(-180 -12669.45)">
    <path id="Trazado_721931" data-name="Trazado 721931" d="M14.362,22a5.8,5.8,0,0,1-1.9,4.012,6.471,6.471,0,0,1-4.4,1.44,6.266,6.266,0,0,1-3.382-.91,5.976,5.976,0,0,1-2.257-2.588,9.339,9.339,0,0,1-.828-3.9v-1.5A9.407,9.407,0,0,1,2.4,14.546a6.071,6.071,0,0,1,2.312-2.671,6.449,6.449,0,0,1,3.482-.938,6.2,6.2,0,0,1,4.282,1.446,6.04,6.04,0,0,1,1.887,4.083H11.581a3.969,3.969,0,0,0-1.01-2.5A3.337,3.337,0,0,0,8.193,13.2a3.261,3.261,0,0,0-2.8,1.33,6.642,6.642,0,0,0-1,3.9v1.424a7.046,7.046,0,0,0,.933,3.973A3.1,3.1,0,0,0,8.061,25.2a3.61,3.61,0,0,0,2.472-.739A3.855,3.855,0,0,0,11.581,22Zm9.325,5.231H21.017v-12.9l-3.94,1.346V13.41L23.345,11.1h.342Z" transform="translate(201.474 12770.412)" fill="#12263f"/>
    <path id="Trazado_721930" data-name="Trazado 721930" d="M14.362,22a5.8,5.8,0,0,1-1.9,4.012,6.471,6.471,0,0,1-4.4,1.44,6.266,6.266,0,0,1-3.382-.91,5.976,5.976,0,0,1-2.257-2.588,9.339,9.339,0,0,1-.828-3.9v-1.5A9.407,9.407,0,0,1,2.4,14.546a6.071,6.071,0,0,1,2.312-2.671,6.449,6.449,0,0,1,3.482-.938,6.2,6.2,0,0,1,4.282,1.446,6.04,6.04,0,0,1,1.887,4.083H11.581a3.969,3.969,0,0,0-1.01-2.5A3.337,3.337,0,0,0,8.193,13.2a3.261,3.261,0,0,0-2.8,1.33,6.642,6.642,0,0,0-1,3.9v1.424a7.046,7.046,0,0,0,.933,3.973A3.1,3.1,0,0,0,8.061,25.2a3.61,3.61,0,0,0,2.472-.739A3.855,3.855,0,0,0,11.581,22ZM27.23,27.226h-10.8V25.383l5.352-5.838a13.328,13.328,0,0,0,1.65-2.158,3.5,3.5,0,0,0,.491-1.738,2.641,2.641,0,0,0-.646-1.854,2.239,2.239,0,0,0-1.738-.706,2.581,2.581,0,0,0-2.02.795,3.125,3.125,0,0,0-.717,2.174H16.117a5.256,5.256,0,0,1,.668-2.643,4.6,4.6,0,0,1,1.909-1.826,6.077,6.077,0,0,1,2.864-.651,5.436,5.436,0,0,1,3.691,1.175,4.08,4.08,0,0,1,1.352,3.25,5.515,5.515,0,0,1-.679,2.522,14.339,14.339,0,0,1-2.224,3l-3.929,4.2h7.46Z" transform="translate(286.889 12770.412)" fill="#12263f"/>
    <path id="Trazado_721929" data-name="Trazado 721929" d="M14.362,22a5.8,5.8,0,0,1-1.9,4.012,6.471,6.471,0,0,1-4.4,1.44,6.266,6.266,0,0,1-3.382-.91,5.976,5.976,0,0,1-2.257-2.588,9.339,9.339,0,0,1-.828-3.9v-1.5A9.407,9.407,0,0,1,2.4,14.546a6.071,6.071,0,0,1,2.312-2.671,6.449,6.449,0,0,1,3.482-.938,6.2,6.2,0,0,1,4.282,1.446,6.04,6.04,0,0,1,1.887,4.083H11.581a3.969,3.969,0,0,0-1.01-2.5A3.337,3.337,0,0,0,8.193,13.2a3.261,3.261,0,0,0-2.8,1.33,6.642,6.642,0,0,0-1,3.9v1.424a7.046,7.046,0,0,0,.933,3.973A3.1,3.1,0,0,0,8.061,25.2a3.61,3.61,0,0,0,2.472-.739A3.855,3.855,0,0,0,11.581,22Zm5.165-4.028H21.16a2.923,2.923,0,0,0,1.959-.64,2.284,2.284,0,0,0,.723-1.821,2.489,2.489,0,0,0-.6-1.782,2.421,2.421,0,0,0-1.837-.635,2.561,2.561,0,0,0-1.777.624,2.083,2.083,0,0,0-.7,1.628H16.249a4.059,4.059,0,0,1,.657-2.251,4.412,4.412,0,0,1,1.832-1.584,5.968,5.968,0,0,1,2.632-.568,5.527,5.527,0,0,1,3.78,1.208,4.241,4.241,0,0,1,1.374,3.36,3.415,3.415,0,0,1-.69,2.036,4.325,4.325,0,0,1-1.782,1.44,3.942,3.942,0,0,1,2.014,1.424,3.9,3.9,0,0,1,.69,2.318,4.315,4.315,0,0,1-1.484,3.443,5.763,5.763,0,0,1-3.9,1.28,5.719,5.719,0,0,1-3.8-1.236,4.071,4.071,0,0,1-1.479-3.289h2.682a2.243,2.243,0,0,0,.712,1.722,2.7,2.7,0,0,0,1.915.662,2.784,2.784,0,0,0,1.964-.662,2.484,2.484,0,0,0,.717-1.92,2.509,2.509,0,0,0-.75-1.953,3.208,3.208,0,0,0-2.229-.684H19.527Z" transform="translate(374.055 12770.412)" fill="#12263f"/>
    <path id="Trazado_721928" data-name="Trazado 721928" d="M14.362,22a5.8,5.8,0,0,1-1.9,4.012,6.471,6.471,0,0,1-4.4,1.44,6.266,6.266,0,0,1-3.382-.91,5.976,5.976,0,0,1-2.257-2.588,9.339,9.339,0,0,1-.828-3.9v-1.5A9.407,9.407,0,0,1,2.4,14.546a6.071,6.071,0,0,1,2.312-2.671,6.449,6.449,0,0,1,3.482-.938,6.2,6.2,0,0,1,4.282,1.446,6.04,6.04,0,0,1,1.887,4.083H11.581a3.969,3.969,0,0,0-1.01-2.5A3.337,3.337,0,0,0,8.193,13.2a3.261,3.261,0,0,0-2.8,1.33,6.642,6.642,0,0,0-1,3.9v1.424a7.046,7.046,0,0,0,.933,3.973A3.1,3.1,0,0,0,8.061,25.2a3.61,3.61,0,0,0,2.472-.739A3.855,3.855,0,0,0,11.581,22ZM25.5,21.5h2v2.152h-2v3.576H22.816V23.651H15.874L15.8,22.017l6.931-10.859H25.5Zm-6.886,0h4.2v-6.71l-.2.353Z" transform="translate(459.47 12770.412)" fill="#12263f"/>
    <path id="Trazado_721927" data-name="Trazado 721927" d="M14.362,22a5.8,5.8,0,0,1-1.9,4.012,6.471,6.471,0,0,1-4.4,1.44,6.266,6.266,0,0,1-3.382-.91,5.976,5.976,0,0,1-2.257-2.588,9.339,9.339,0,0,1-.828-3.9v-1.5A9.407,9.407,0,0,1,2.4,14.546a6.071,6.071,0,0,1,2.312-2.671,6.449,6.449,0,0,1,3.482-.938,6.2,6.2,0,0,1,4.282,1.446,6.04,6.04,0,0,1,1.887,4.083H11.581a3.969,3.969,0,0,0-1.01-2.5A3.337,3.337,0,0,0,8.193,13.2a3.261,3.261,0,0,0-2.8,1.33,6.642,6.642,0,0,0-1,3.9v1.424a7.046,7.046,0,0,0,.933,3.973A3.1,3.1,0,0,0,8.061,25.2a3.61,3.61,0,0,0,2.472-.739A3.855,3.855,0,0,0,11.581,22Zm2.781-2.737.872-8.1h8.63v2.318h-6.4l-.441,3.84a4.961,4.961,0,0,1,2.516-.64,4.476,4.476,0,0,1,3.57,1.468,5.816,5.816,0,0,1,1.275,3.951A5.354,5.354,0,0,1,25.751,26a5.156,5.156,0,0,1-3.874,1.451,5.4,5.4,0,0,1-3.658-1.253,4.528,4.528,0,0,1-1.573-3.305H19.24a2.832,2.832,0,0,0,.839,1.793,2.551,2.551,0,0,0,1.788.624,2.305,2.305,0,0,0,1.926-.883,3.81,3.81,0,0,0,.69-2.406,3.367,3.367,0,0,0-.761-2.323,2.663,2.663,0,0,0-2.1-.855,3.488,3.488,0,0,0-1.236.193,3.5,3.5,0,0,0-1.1.756Z" transform="translate(546.636 12770.412)" fill="#12263f"/>
    <path id="Trazado_721926" data-name="Trazado 721926" d="M14.362,22a5.8,5.8,0,0,1-1.9,4.012,6.471,6.471,0,0,1-4.4,1.44,6.266,6.266,0,0,1-3.382-.91,5.976,5.976,0,0,1-2.257-2.588,9.339,9.339,0,0,1-.828-3.9v-1.5A9.407,9.407,0,0,1,2.4,14.546a6.071,6.071,0,0,1,2.312-2.671,6.449,6.449,0,0,1,3.482-.938,6.2,6.2,0,0,1,4.282,1.446,6.04,6.04,0,0,1,1.887,4.083H11.581a3.969,3.969,0,0,0-1.01-2.5A3.337,3.337,0,0,0,8.193,13.2a3.261,3.261,0,0,0-2.8,1.33,6.642,6.642,0,0,0-1,3.9v1.424a7.046,7.046,0,0,0,.933,3.973A3.1,3.1,0,0,0,8.061,25.2a3.61,3.61,0,0,0,2.472-.739A3.855,3.855,0,0,0,11.581,22ZM24.769,11.081V13.3h-.331a5.323,5.323,0,0,0-3.6,1.236,5.172,5.172,0,0,0-1.6,3.41,4.355,4.355,0,0,1,3.3-1.357,4.113,4.113,0,0,1,3.36,1.5,5.911,5.911,0,0,1,1.23,3.874,5.526,5.526,0,0,1-1.44,3.967,4.971,4.971,0,0,1-3.78,1.517,4.856,4.856,0,0,1-3.9-1.777,6.989,6.989,0,0,1-1.5-4.657V20.1a9.834,9.834,0,0,1,2.058-6.622,7.38,7.38,0,0,1,5.921-2.395Zm-2.88,7.67a2.823,2.823,0,0,0-1.617.5A2.9,2.9,0,0,0,19.2,20.572v.817a4.81,4.81,0,0,0,.75,2.842,2.289,2.289,0,0,0,1.942,1.054,2.264,2.264,0,0,0,1.887-.894,3.722,3.722,0,0,0,.7-2.351,3.776,3.776,0,0,0-.706-2.373A2.251,2.251,0,0,0,21.889,18.751Z" transform="translate(632.051 12770.412)" fill="#12263f"/>
    <g id="flask" transform="translate(180 12669.45)">
      <path id="Trazado_721426" data-name="Trazado 721426" d="M183.395,69.945H137.467L147.9,52.9a2,2,0,0,0,.293-1.042V16.349h24.485V51.855a2,2,0,0,0,.293,1.042Z" transform="translate(-123.657 -13.182)" fill="#d3e1f4"/>
      <path id="Trazado_721427" data-name="Trazado 721427" d="M228.015,69.944h-9.436L207.858,52.417V31.063A5.261,5.261,0,0,0,202.6,25.8h-9.787V16.348h24.485V51.854a1.994,1.994,0,0,0,.293,1.042Z" transform="translate(-168.277 -13.181)" fill="#b3cbea"/>
      <path id="Trazado_721428" data-name="Trazado 721428" d="M124.7,282.692H81.214l-12.724,20.8a15.524,15.524,0,0,0,13.242,23.624h42.452a15.524,15.524,0,0,0,13.242-23.624Z" transform="translate(-66.185 -227.925)" fill="#31a7fb"/>
      <path id="Trazado_721429" data-name="Trazado 721429" d="M326.807,282.692h-9.436l12.724,20.8a15.523,15.523,0,0,1-13.242,23.625h9.436a15.523,15.523,0,0,0,13.242-23.625Z" transform="translate(-268.29 -227.925)" fill="#1c96f9"/>
      <path id="Trazado_721430" data-name="Trazado 721430" d="M199.942,6.438H172.955a3.219,3.219,0,1,1,0-6.438h26.987a3.219,3.219,0,1,1,0,6.438Z" transform="translate(-149.674)" fill="#eaf6ff"/>
      <path id="Trazado_721431" data-name="Trazado 721431" d="M300.471,3.219a3.216,3.216,0,0,1-3.219,3.219h-6.824a3.219,3.219,0,1,0,0-6.438h6.824a3.219,3.219,0,0,1,3.219,3.219Z" transform="translate(-246.984 0)" fill="#d3e1f4"/>
      <g id="Grupo_948285" data-name="Grupo 948285" transform="translate(30.28 31.86)">
        <g id="Grupo_948276" data-name="Grupo 948276" transform="translate(0)">
          <path id="Trazado_721432" data-name="Trazado 721432" d="M232.689,167.447h-8.711a1.5,1.5,0,1,1,0-2.994h8.711a1.5,1.5,0,0,1,0,2.994Z" transform="translate(-222.482 -164.453)" fill="#84aee1"/>
        </g>
        <g id="Grupo_948277" data-name="Grupo 948277" transform="translate(0 6.671)">
          <path id="Trazado_721433" data-name="Trazado 721433" d="M229.369,201.881h-5.391a1.5,1.5,0,1,1,0-2.994h5.391a1.5,1.5,0,0,1,0,2.994Z" transform="translate(-222.482 -198.887)" fill="#84aee1"/>
        </g>
        <g id="Grupo_948278" data-name="Grupo 948278" transform="translate(0 13.342)">
          <path id="Trazado_721434" data-name="Trazado 721434" d="M229.369,236.315h-5.391a1.5,1.5,0,1,1,0-2.994h5.391a1.5,1.5,0,1,1,0,2.994Z" transform="translate(-222.482 -233.321)" fill="#84aee1"/>
        </g>
        <g id="Grupo_948279" data-name="Grupo 948279" transform="translate(0 20.013)">
          <path id="Trazado_721435" data-name="Trazado 721435" d="M229.369,270.749h-5.391a1.5,1.5,0,1,1,0-2.994h5.391a1.5,1.5,0,0,1,0,2.994Z" transform="translate(-222.482 -267.755)" fill="#84aee1"/>
        </g>
        <g id="Grupo_948280" data-name="Grupo 948280" transform="translate(0 26.684)">
          <path id="Trazado_721436" data-name="Trazado 721436" d="M232.689,305.183h-8.711a1.5,1.5,0,1,1,0-2.994h8.711a1.5,1.5,0,0,1,0,2.994Z" transform="translate(-222.482 -302.189)" fill="#1c96f9"/>
        </g>
        <g id="Grupo_948281" data-name="Grupo 948281" transform="translate(0 53.369)">
          <path id="Trazado_721437" data-name="Trazado 721437" d="M232.689,442.92h-8.711a1.5,1.5,0,1,1,0-2.994h8.711a1.5,1.5,0,0,1,0,2.994Z" transform="translate(-222.482 -439.926)" fill="#1c96f9"/>
        </g>
        <g id="Grupo_948282" data-name="Grupo 948282" transform="translate(0 33.355)">
          <path id="Trazado_721438" data-name="Trazado 721438" d="M229.369,339.617h-5.391a1.5,1.5,0,1,1,0-2.994h5.391a1.5,1.5,0,0,1,0,2.994Z" transform="translate(-222.482 -336.623)" fill="#1c96f9"/>
        </g>
        <g id="Grupo_948283" data-name="Grupo 948283" transform="translate(0 40.027)">
          <path id="Trazado_721439" data-name="Trazado 721439" d="M229.369,374.052h-5.391a1.5,1.5,0,1,1,0-2.994h5.391a1.5,1.5,0,0,1,0,2.994Z" transform="translate(-222.482 -371.058)" fill="#1c96f9"/>
        </g>
        <g id="Grupo_948284" data-name="Grupo 948284" transform="translate(0 46.698)">
          <path id="Trazado_721440" data-name="Trazado 721440" d="M229.369,408.486h-5.391a1.5,1.5,0,1,1,0-2.994h5.391a1.5,1.5,0,0,1,0,2.994Z" transform="translate(-222.482 -405.492)" fill="#1c96f9"/>
        </g>
      </g>
    </g>
    <g id="flask-2" data-name="flask" transform="translate(438.872 12669.45)">
      <path id="Trazado_721426-2" data-name="Trazado 721426" d="M183.395,69.945H137.467L147.9,52.9a2,2,0,0,0,.293-1.042V16.349h24.485V51.855a2,2,0,0,0,.293,1.042Z" transform="translate(-123.657 -13.182)" fill="#d3e1f4"/>
      <path id="Trazado_721427-2" data-name="Trazado 721427" d="M228.015,69.944h-9.436L207.858,52.417V31.063A5.261,5.261,0,0,0,202.6,25.8h-9.787V16.348h24.485V51.854a1.994,1.994,0,0,0,.293,1.042Z" transform="translate(-168.277 -13.181)" fill="#b3cbea"/>
      <path id="Trazado_721428-2" data-name="Trazado 721428" d="M124.7,282.692H81.214l-12.724,20.8a15.524,15.524,0,0,0,13.242,23.624h42.452a15.524,15.524,0,0,0,13.242-23.624Z" transform="translate(-66.185 -227.925)" fill="#31a7fb"/>
      <path id="Trazado_721429-2" data-name="Trazado 721429" d="M326.807,282.692h-9.436l12.724,20.8a15.523,15.523,0,0,1-13.242,23.625h9.436a15.523,15.523,0,0,0,13.242-23.625Z" transform="translate(-268.29 -227.925)" fill="#1c96f9"/>
      <path id="Trazado_721430-2" data-name="Trazado 721430" d="M199.942,6.438H172.955a3.219,3.219,0,1,1,0-6.438h26.987a3.219,3.219,0,1,1,0,6.438Z" transform="translate(-149.674)" fill="#eaf6ff"/>
      <path id="Trazado_721431-2" data-name="Trazado 721431" d="M300.471,3.219a3.216,3.216,0,0,1-3.219,3.219h-6.824a3.219,3.219,0,1,0,0-6.438h6.824a3.219,3.219,0,0,1,3.219,3.219Z" transform="translate(-246.984 0)" fill="#d3e1f4"/>
      <g id="Grupo_948285-2" data-name="Grupo 948285" transform="translate(30.28 31.86)">
        <g id="Grupo_948276-2" data-name="Grupo 948276" transform="translate(0)">
          <path id="Trazado_721432-2" data-name="Trazado 721432" d="M232.689,167.447h-8.711a1.5,1.5,0,1,1,0-2.994h8.711a1.5,1.5,0,0,1,0,2.994Z" transform="translate(-222.482 -164.453)" fill="#84aee1"/>
        </g>
        <g id="Grupo_948277-2" data-name="Grupo 948277" transform="translate(0 6.671)">
          <path id="Trazado_721433-2" data-name="Trazado 721433" d="M229.369,201.881h-5.391a1.5,1.5,0,1,1,0-2.994h5.391a1.5,1.5,0,0,1,0,2.994Z" transform="translate(-222.482 -198.887)" fill="#84aee1"/>
        </g>
        <g id="Grupo_948278-2" data-name="Grupo 948278" transform="translate(0 13.342)">
          <path id="Trazado_721434-2" data-name="Trazado 721434" d="M229.369,236.315h-5.391a1.5,1.5,0,1,1,0-2.994h5.391a1.5,1.5,0,1,1,0,2.994Z" transform="translate(-222.482 -233.321)" fill="#84aee1"/>
        </g>
        <g id="Grupo_948279-2" data-name="Grupo 948279" transform="translate(0 20.013)">
          <path id="Trazado_721435-2" data-name="Trazado 721435" d="M229.369,270.749h-5.391a1.5,1.5,0,1,1,0-2.994h5.391a1.5,1.5,0,0,1,0,2.994Z" transform="translate(-222.482 -267.755)" fill="#84aee1"/>
        </g>
        <g id="Grupo_948280-2" data-name="Grupo 948280" transform="translate(0 26.684)">
          <path id="Trazado_721436-2" data-name="Trazado 721436" d="M232.689,305.183h-8.711a1.5,1.5,0,1,1,0-2.994h8.711a1.5,1.5,0,0,1,0,2.994Z" transform="translate(-222.482 -302.189)" fill="#1c96f9"/>
        </g>
        <g id="Grupo_948281-2" data-name="Grupo 948281" transform="translate(0 53.369)">
          <path id="Trazado_721437-2" data-name="Trazado 721437" d="M232.689,442.92h-8.711a1.5,1.5,0,1,1,0-2.994h8.711a1.5,1.5,0,0,1,0,2.994Z" transform="translate(-222.482 -439.926)" fill="#1c96f9"/>
        </g>
        <g id="Grupo_948282-2" data-name="Grupo 948282" transform="translate(0 33.355)">
          <path id="Trazado_721438-2" data-name="Trazado 721438" d="M229.369,339.617h-5.391a1.5,1.5,0,1,1,0-2.994h5.391a1.5,1.5,0,0,1,0,2.994Z" transform="translate(-222.482 -336.623)" fill="#1c96f9"/>
        </g>
        <g id="Grupo_948283-2" data-name="Grupo 948283" transform="translate(0 40.027)">
          <path id="Trazado_721439-2" data-name="Trazado 721439" d="M229.369,374.052h-5.391a1.5,1.5,0,1,1,0-2.994h5.391a1.5,1.5,0,0,1,0,2.994Z" transform="translate(-222.482 -371.058)" fill="#1c96f9"/>
        </g>
        <g id="Grupo_948284-2" data-name="Grupo 948284" transform="translate(0 46.698)">
          <path id="Trazado_721440-2" data-name="Trazado 721440" d="M229.369,408.486h-5.391a1.5,1.5,0,1,1,0-2.994h5.391a1.5,1.5,0,0,1,0,2.994Z" transform="translate(-222.482 -405.492)" fill="#1c96f9"/>
        </g>
      </g>
    </g>
    <g id="flask-3" data-name="flask" transform="translate(266.291 12669.45)">
      <path id="Trazado_721426-3" data-name="Trazado 721426" d="M183.395,69.945H137.467L147.9,52.9a2,2,0,0,0,.293-1.042V16.349h24.485V51.855a2,2,0,0,0,.293,1.042Z" transform="translate(-123.657 -13.182)" fill="#d3e1f4"/>
      <path id="Trazado_721427-3" data-name="Trazado 721427" d="M228.015,69.944h-9.436L207.858,52.417V31.063A5.261,5.261,0,0,0,202.6,25.8h-9.787V16.348h24.485V51.854a1.994,1.994,0,0,0,.293,1.042Z" transform="translate(-168.277 -13.181)" fill="#b3cbea"/>
      <path id="Trazado_721428-3" data-name="Trazado 721428" d="M124.7,282.692H81.214l-12.724,20.8a15.524,15.524,0,0,0,13.242,23.624h42.452a15.524,15.524,0,0,0,13.242-23.624Z" transform="translate(-66.185 -227.925)" fill="#31a7fb"/>
      <path id="Trazado_721429-3" data-name="Trazado 721429" d="M326.807,282.692h-9.436l12.724,20.8a15.523,15.523,0,0,1-13.242,23.625h9.436a15.523,15.523,0,0,0,13.242-23.625Z" transform="translate(-268.29 -227.925)" fill="#1c96f9"/>
      <path id="Trazado_721430-3" data-name="Trazado 721430" d="M199.942,6.438H172.955a3.219,3.219,0,1,1,0-6.438h26.987a3.219,3.219,0,1,1,0,6.438Z" transform="translate(-149.674)" fill="#eaf6ff"/>
      <path id="Trazado_721431-3" data-name="Trazado 721431" d="M300.471,3.219a3.216,3.216,0,0,1-3.219,3.219h-6.824a3.219,3.219,0,1,0,0-6.438h6.824a3.219,3.219,0,0,1,3.219,3.219Z" transform="translate(-246.984 0)" fill="#d3e1f4"/>
      <g id="Grupo_948285-3" data-name="Grupo 948285" transform="translate(30.28 31.86)">
        <g id="Grupo_948276-3" data-name="Grupo 948276" transform="translate(0)">
          <path id="Trazado_721432-3" data-name="Trazado 721432" d="M232.689,167.447h-8.711a1.5,1.5,0,1,1,0-2.994h8.711a1.5,1.5,0,0,1,0,2.994Z" transform="translate(-222.482 -164.453)" fill="#84aee1"/>
        </g>
        <g id="Grupo_948277-3" data-name="Grupo 948277" transform="translate(0 6.671)">
          <path id="Trazado_721433-3" data-name="Trazado 721433" d="M229.369,201.881h-5.391a1.5,1.5,0,1,1,0-2.994h5.391a1.5,1.5,0,0,1,0,2.994Z" transform="translate(-222.482 -198.887)" fill="#84aee1"/>
        </g>
        <g id="Grupo_948278-3" data-name="Grupo 948278" transform="translate(0 13.342)">
          <path id="Trazado_721434-3" data-name="Trazado 721434" d="M229.369,236.315h-5.391a1.5,1.5,0,1,1,0-2.994h5.391a1.5,1.5,0,1,1,0,2.994Z" transform="translate(-222.482 -233.321)" fill="#84aee1"/>
        </g>
        <g id="Grupo_948279-3" data-name="Grupo 948279" transform="translate(0 20.013)">
          <path id="Trazado_721435-3" data-name="Trazado 721435" d="M229.369,270.749h-5.391a1.5,1.5,0,1,1,0-2.994h5.391a1.5,1.5,0,0,1,0,2.994Z" transform="translate(-222.482 -267.755)" fill="#84aee1"/>
        </g>
        <g id="Grupo_948280-3" data-name="Grupo 948280" transform="translate(0 26.684)">
          <path id="Trazado_721436-3" data-name="Trazado 721436" d="M232.689,305.183h-8.711a1.5,1.5,0,1,1,0-2.994h8.711a1.5,1.5,0,0,1,0,2.994Z" transform="translate(-222.482 -302.189)" fill="#1c96f9"/>
        </g>
        <g id="Grupo_948281-3" data-name="Grupo 948281" transform="translate(0 53.369)">
          <path id="Trazado_721437-3" data-name="Trazado 721437" d="M232.689,442.92h-8.711a1.5,1.5,0,1,1,0-2.994h8.711a1.5,1.5,0,0,1,0,2.994Z" transform="translate(-222.482 -439.926)" fill="#1c96f9"/>
        </g>
        <g id="Grupo_948282-3" data-name="Grupo 948282" transform="translate(0 33.355)">
          <path id="Trazado_721438-3" data-name="Trazado 721438" d="M229.369,339.617h-5.391a1.5,1.5,0,1,1,0-2.994h5.391a1.5,1.5,0,0,1,0,2.994Z" transform="translate(-222.482 -336.623)" fill="#1c96f9"/>
        </g>
        <g id="Grupo_948283-3" data-name="Grupo 948283" transform="translate(0 40.027)">
          <path id="Trazado_721439-3" data-name="Trazado 721439" d="M229.369,374.052h-5.391a1.5,1.5,0,1,1,0-2.994h5.391a1.5,1.5,0,0,1,0,2.994Z" transform="translate(-222.482 -371.058)" fill="#1c96f9"/>
        </g>
        <g id="Grupo_948284-3" data-name="Grupo 948284" transform="translate(0 46.698)">
          <path id="Trazado_721440-3" data-name="Trazado 721440" d="M229.369,408.486h-5.391a1.5,1.5,0,1,1,0-2.994h5.391a1.5,1.5,0,0,1,0,2.994Z" transform="translate(-222.482 -405.492)" fill="#1c96f9"/>
        </g>
      </g>
    </g>
    <g id="flask-4" data-name="flask" transform="translate(525.162 12669.45)">
      <path id="Trazado_721426-4" data-name="Trazado 721426" d="M183.395,69.945H137.467L147.9,52.9a2,2,0,0,0,.293-1.042V16.349h24.485V51.855a2,2,0,0,0,.293,1.042Z" transform="translate(-123.657 -13.182)" fill="#d3e1f4"/>
      <path id="Trazado_721427-4" data-name="Trazado 721427" d="M228.015,69.944h-9.436L207.858,52.417V31.063A5.261,5.261,0,0,0,202.6,25.8h-9.787V16.348h24.485V51.854a1.994,1.994,0,0,0,.293,1.042Z" transform="translate(-168.277 -13.181)" fill="#b3cbea"/>
      <path id="Trazado_721428-4" data-name="Trazado 721428" d="M124.7,282.692H81.214l-12.724,20.8a15.524,15.524,0,0,0,13.242,23.624h42.452a15.524,15.524,0,0,0,13.242-23.624Z" transform="translate(-66.185 -227.925)" fill="#31a7fb"/>
      <path id="Trazado_721429-4" data-name="Trazado 721429" d="M326.807,282.692h-9.436l12.724,20.8a15.523,15.523,0,0,1-13.242,23.625h9.436a15.523,15.523,0,0,0,13.242-23.625Z" transform="translate(-268.29 -227.925)" fill="#1c96f9"/>
      <path id="Trazado_721430-4" data-name="Trazado 721430" d="M199.942,6.438H172.955a3.219,3.219,0,1,1,0-6.438h26.987a3.219,3.219,0,1,1,0,6.438Z" transform="translate(-149.674)" fill="#eaf6ff"/>
      <path id="Trazado_721431-4" data-name="Trazado 721431" d="M300.471,3.219a3.216,3.216,0,0,1-3.219,3.219h-6.824a3.219,3.219,0,1,0,0-6.438h6.824a3.219,3.219,0,0,1,3.219,3.219Z" transform="translate(-246.984 0)" fill="#d3e1f4"/>
      <g id="Grupo_948285-4" data-name="Grupo 948285" transform="translate(30.28 31.86)">
        <g id="Grupo_948276-4" data-name="Grupo 948276" transform="translate(0)">
          <path id="Trazado_721432-4" data-name="Trazado 721432" d="M232.689,167.447h-8.711a1.5,1.5,0,1,1,0-2.994h8.711a1.5,1.5,0,0,1,0,2.994Z" transform="translate(-222.482 -164.453)" fill="#84aee1"/>
        </g>
        <g id="Grupo_948277-4" data-name="Grupo 948277" transform="translate(0 6.671)">
          <path id="Trazado_721433-4" data-name="Trazado 721433" d="M229.369,201.881h-5.391a1.5,1.5,0,1,1,0-2.994h5.391a1.5,1.5,0,0,1,0,2.994Z" transform="translate(-222.482 -198.887)" fill="#84aee1"/>
        </g>
        <g id="Grupo_948278-4" data-name="Grupo 948278" transform="translate(0 13.342)">
          <path id="Trazado_721434-4" data-name="Trazado 721434" d="M229.369,236.315h-5.391a1.5,1.5,0,1,1,0-2.994h5.391a1.5,1.5,0,1,1,0,2.994Z" transform="translate(-222.482 -233.321)" fill="#84aee1"/>
        </g>
        <g id="Grupo_948279-4" data-name="Grupo 948279" transform="translate(0 20.013)">
          <path id="Trazado_721435-4" data-name="Trazado 721435" d="M229.369,270.749h-5.391a1.5,1.5,0,1,1,0-2.994h5.391a1.5,1.5,0,0,1,0,2.994Z" transform="translate(-222.482 -267.755)" fill="#84aee1"/>
        </g>
        <g id="Grupo_948280-4" data-name="Grupo 948280" transform="translate(0 26.684)">
          <path id="Trazado_721436-4" data-name="Trazado 721436" d="M232.689,305.183h-8.711a1.5,1.5,0,1,1,0-2.994h8.711a1.5,1.5,0,0,1,0,2.994Z" transform="translate(-222.482 -302.189)" fill="#1c96f9"/>
        </g>
        <g id="Grupo_948281-4" data-name="Grupo 948281" transform="translate(0 53.369)">
          <path id="Trazado_721437-4" data-name="Trazado 721437" d="M232.689,442.92h-8.711a1.5,1.5,0,1,1,0-2.994h8.711a1.5,1.5,0,0,1,0,2.994Z" transform="translate(-222.482 -439.926)" fill="#1c96f9"/>
        </g>
        <g id="Grupo_948282-4" data-name="Grupo 948282" transform="translate(0 33.355)">
          <path id="Trazado_721438-4" data-name="Trazado 721438" d="M229.369,339.617h-5.391a1.5,1.5,0,1,1,0-2.994h5.391a1.5,1.5,0,0,1,0,2.994Z" transform="translate(-222.482 -336.623)" fill="#1c96f9"/>
        </g>
        <g id="Grupo_948283-4" data-name="Grupo 948283" transform="translate(0 40.027)">
          <path id="Trazado_721439-4" data-name="Trazado 721439" d="M229.369,374.052h-5.391a1.5,1.5,0,1,1,0-2.994h5.391a1.5,1.5,0,0,1,0,2.994Z" transform="translate(-222.482 -371.058)" fill="#1c96f9"/>
        </g>
        <g id="Grupo_948284-4" data-name="Grupo 948284" transform="translate(0 46.698)">
          <path id="Trazado_721440-4" data-name="Trazado 721440" d="M229.369,408.486h-5.391a1.5,1.5,0,1,1,0-2.994h5.391a1.5,1.5,0,0,1,0,2.994Z" transform="translate(-222.482 -405.492)" fill="#1c96f9"/>
        </g>
      </g>
    </g>
    <g id="flask-5" data-name="flask" transform="translate(352.581 12669.45)">
      <path id="Trazado_721426-5" data-name="Trazado 721426" d="M183.395,69.945H137.467L147.9,52.9a2,2,0,0,0,.293-1.042V16.349h24.485V51.855a2,2,0,0,0,.293,1.042Z" transform="translate(-123.657 -13.182)" fill="#d3e1f4"/>
      <path id="Trazado_721427-5" data-name="Trazado 721427" d="M228.015,69.944h-9.436L207.858,52.417V31.063A5.261,5.261,0,0,0,202.6,25.8h-9.787V16.348h24.485V51.854a1.994,1.994,0,0,0,.293,1.042Z" transform="translate(-168.277 -13.181)" fill="#b3cbea"/>
      <path id="Trazado_721428-5" data-name="Trazado 721428" d="M124.7,282.692H81.214l-12.724,20.8a15.524,15.524,0,0,0,13.242,23.624h42.452a15.524,15.524,0,0,0,13.242-23.624Z" transform="translate(-66.185 -227.925)" fill="#31a7fb"/>
      <path id="Trazado_721429-5" data-name="Trazado 721429" d="M326.807,282.692h-9.436l12.724,20.8a15.523,15.523,0,0,1-13.242,23.625h9.436a15.523,15.523,0,0,0,13.242-23.625Z" transform="translate(-268.29 -227.925)" fill="#1c96f9"/>
      <path id="Trazado_721430-5" data-name="Trazado 721430" d="M199.942,6.438H172.955a3.219,3.219,0,1,1,0-6.438h26.987a3.219,3.219,0,1,1,0,6.438Z" transform="translate(-149.674)" fill="#eaf6ff"/>
      <path id="Trazado_721431-5" data-name="Trazado 721431" d="M300.471,3.219a3.216,3.216,0,0,1-3.219,3.219h-6.824a3.219,3.219,0,1,0,0-6.438h6.824a3.219,3.219,0,0,1,3.219,3.219Z" transform="translate(-246.984 0)" fill="#d3e1f4"/>
      <g id="Grupo_948285-5" data-name="Grupo 948285" transform="translate(30.28 31.86)">
        <g id="Grupo_948276-5" data-name="Grupo 948276" transform="translate(0)">
          <path id="Trazado_721432-5" data-name="Trazado 721432" d="M232.689,167.447h-8.711a1.5,1.5,0,1,1,0-2.994h8.711a1.5,1.5,0,0,1,0,2.994Z" transform="translate(-222.482 -164.453)" fill="#84aee1"/>
        </g>
        <g id="Grupo_948277-5" data-name="Grupo 948277" transform="translate(0 6.671)">
          <path id="Trazado_721433-5" data-name="Trazado 721433" d="M229.369,201.881h-5.391a1.5,1.5,0,1,1,0-2.994h5.391a1.5,1.5,0,0,1,0,2.994Z" transform="translate(-222.482 -198.887)" fill="#84aee1"/>
        </g>
        <g id="Grupo_948278-5" data-name="Grupo 948278" transform="translate(0 13.342)">
          <path id="Trazado_721434-5" data-name="Trazado 721434" d="M229.369,236.315h-5.391a1.5,1.5,0,1,1,0-2.994h5.391a1.5,1.5,0,1,1,0,2.994Z" transform="translate(-222.482 -233.321)" fill="#84aee1"/>
        </g>
        <g id="Grupo_948279-5" data-name="Grupo 948279" transform="translate(0 20.013)">
          <path id="Trazado_721435-5" data-name="Trazado 721435" d="M229.369,270.749h-5.391a1.5,1.5,0,1,1,0-2.994h5.391a1.5,1.5,0,0,1,0,2.994Z" transform="translate(-222.482 -267.755)" fill="#84aee1"/>
        </g>
        <g id="Grupo_948280-5" data-name="Grupo 948280" transform="translate(0 26.684)">
          <path id="Trazado_721436-5" data-name="Trazado 721436" d="M232.689,305.183h-8.711a1.5,1.5,0,1,1,0-2.994h8.711a1.5,1.5,0,0,1,0,2.994Z" transform="translate(-222.482 -302.189)" fill="#1c96f9"/>
        </g>
        <g id="Grupo_948281-5" data-name="Grupo 948281" transform="translate(0 53.369)">
          <path id="Trazado_721437-5" data-name="Trazado 721437" d="M232.689,442.92h-8.711a1.5,1.5,0,1,1,0-2.994h8.711a1.5,1.5,0,0,1,0,2.994Z" transform="translate(-222.482 -439.926)" fill="#1c96f9"/>
        </g>
        <g id="Grupo_948282-5" data-name="Grupo 948282" transform="translate(0 33.355)">
          <path id="Trazado_721438-5" data-name="Trazado 721438" d="M229.369,339.617h-5.391a1.5,1.5,0,1,1,0-2.994h5.391a1.5,1.5,0,0,1,0,2.994Z" transform="translate(-222.482 -336.623)" fill="#1c96f9"/>
        </g>
        <g id="Grupo_948283-5" data-name="Grupo 948283" transform="translate(0 40.027)">
          <path id="Trazado_721439-5" data-name="Trazado 721439" d="M229.369,374.052h-5.391a1.5,1.5,0,1,1,0-2.994h5.391a1.5,1.5,0,0,1,0,2.994Z" transform="translate(-222.482 -371.058)" fill="#1c96f9"/>
        </g>
        <g id="Grupo_948284-5" data-name="Grupo 948284" transform="translate(0 46.698)">
          <path id="Trazado_721440-5" data-name="Trazado 721440" d="M229.369,408.486h-5.391a1.5,1.5,0,1,1,0-2.994h5.391a1.5,1.5,0,0,1,0,2.994Z" transform="translate(-222.482 -405.492)" fill="#1c96f9"/>
        </g>
      </g>
    </g>
    <g id="flask-6" data-name="flask" transform="translate(611.452 12669.45)">
      <path id="Trazado_721426-6" data-name="Trazado 721426" d="M183.395,69.945H137.467L147.9,52.9a2,2,0,0,0,.293-1.042V16.349h24.485V51.855a2,2,0,0,0,.293,1.042Z" transform="translate(-123.657 -13.182)" fill="#d3e1f4"/>
      <path id="Trazado_721427-6" data-name="Trazado 721427" d="M228.015,69.944h-9.436L207.858,52.417V31.063A5.261,5.261,0,0,0,202.6,25.8h-9.787V16.348h24.485V51.854a1.994,1.994,0,0,0,.293,1.042Z" transform="translate(-168.277 -13.181)" fill="#b3cbea"/>
      <path id="Trazado_721428-6" data-name="Trazado 721428" d="M124.7,282.692H81.214l-12.724,20.8a15.524,15.524,0,0,0,13.242,23.624h42.452a15.524,15.524,0,0,0,13.242-23.624Z" transform="translate(-66.185 -227.925)" fill="#31a7fb"/>
      <path id="Trazado_721429-6" data-name="Trazado 721429" d="M326.807,282.692h-9.436l12.724,20.8a15.523,15.523,0,0,1-13.242,23.625h9.436a15.523,15.523,0,0,0,13.242-23.625Z" transform="translate(-268.29 -227.925)" fill="#1c96f9"/>
      <path id="Trazado_721430-6" data-name="Trazado 721430" d="M199.942,6.438H172.955a3.219,3.219,0,1,1,0-6.438h26.987a3.219,3.219,0,1,1,0,6.438Z" transform="translate(-149.674)" fill="#eaf6ff"/>
      <path id="Trazado_721431-6" data-name="Trazado 721431" d="M300.471,3.219a3.216,3.216,0,0,1-3.219,3.219h-6.824a3.219,3.219,0,1,0,0-6.438h6.824a3.219,3.219,0,0,1,3.219,3.219Z" transform="translate(-246.984 0)" fill="#d3e1f4"/>
      <g id="Grupo_948285-6" data-name="Grupo 948285" transform="translate(30.28 31.86)">
        <g id="Grupo_948276-6" data-name="Grupo 948276" transform="translate(0)">
          <path id="Trazado_721432-6" data-name="Trazado 721432" d="M232.689,167.447h-8.711a1.5,1.5,0,1,1,0-2.994h8.711a1.5,1.5,0,0,1,0,2.994Z" transform="translate(-222.482 -164.453)" fill="#84aee1"/>
        </g>
        <g id="Grupo_948277-6" data-name="Grupo 948277" transform="translate(0 6.671)">
          <path id="Trazado_721433-6" data-name="Trazado 721433" d="M229.369,201.881h-5.391a1.5,1.5,0,1,1,0-2.994h5.391a1.5,1.5,0,0,1,0,2.994Z" transform="translate(-222.482 -198.887)" fill="#84aee1"/>
        </g>
        <g id="Grupo_948278-6" data-name="Grupo 948278" transform="translate(0 13.342)">
          <path id="Trazado_721434-6" data-name="Trazado 721434" d="M229.369,236.315h-5.391a1.5,1.5,0,1,1,0-2.994h5.391a1.5,1.5,0,1,1,0,2.994Z" transform="translate(-222.482 -233.321)" fill="#84aee1"/>
        </g>
        <g id="Grupo_948279-6" data-name="Grupo 948279" transform="translate(0 20.013)">
          <path id="Trazado_721435-6" data-name="Trazado 721435" d="M229.369,270.749h-5.391a1.5,1.5,0,1,1,0-2.994h5.391a1.5,1.5,0,0,1,0,2.994Z" transform="translate(-222.482 -267.755)" fill="#84aee1"/>
        </g>
        <g id="Grupo_948280-6" data-name="Grupo 948280" transform="translate(0 26.684)">
          <path id="Trazado_721436-6" data-name="Trazado 721436" d="M232.689,305.183h-8.711a1.5,1.5,0,1,1,0-2.994h8.711a1.5,1.5,0,0,1,0,2.994Z" transform="translate(-222.482 -302.189)" fill="#1c96f9"/>
        </g>
        <g id="Grupo_948281-6" data-name="Grupo 948281" transform="translate(0 53.369)">
          <path id="Trazado_721437-6" data-name="Trazado 721437" d="M232.689,442.92h-8.711a1.5,1.5,0,1,1,0-2.994h8.711a1.5,1.5,0,0,1,0,2.994Z" transform="translate(-222.482 -439.926)" fill="#1c96f9"/>
        </g>
        <g id="Grupo_948282-6" data-name="Grupo 948282" transform="translate(0 33.355)">
          <path id="Trazado_721438-6" data-name="Trazado 721438" d="M229.369,339.617h-5.391a1.5,1.5,0,1,1,0-2.994h5.391a1.5,1.5,0,0,1,0,2.994Z" transform="translate(-222.482 -336.623)" fill="#1c96f9"/>
        </g>
        <g id="Grupo_948283-6" data-name="Grupo 948283" transform="translate(0 40.027)">
          <path id="Trazado_721439-6" data-name="Trazado 721439" d="M229.369,374.052h-5.391a1.5,1.5,0,1,1,0-2.994h5.391a1.5,1.5,0,0,1,0,2.994Z" transform="translate(-222.482 -371.058)" fill="#1c96f9"/>
        </g>
        <g id="Grupo_948284-6" data-name="Grupo 948284" transform="translate(0 46.698)">
          <path id="Trazado_721440-6" data-name="Trazado 721440" d="M229.369,408.486h-5.391a1.5,1.5,0,1,1,0-2.994h5.391a1.5,1.5,0,0,1,0,2.994Z" transform="translate(-222.482 -405.492)" fill="#1c96f9"/>
        </g>
      </g>
    </g>
    <rect id="Rectángulo_338050" data-name="Rectángulo 338050" width="60" height="24" transform="translate(625 12752.301)" fill="#f1cc4b"/>
    <path id="Trazado_721932" data-name="Trazado 721932" d="M2.671,10.828v2.831H1.016V5.625H4.15a3.626,3.626,0,0,1,1.592.331A2.44,2.44,0,0,1,6.8,6.9a2.623,2.623,0,0,1,.37,1.388,2.307,2.307,0,0,1-.808,1.862,3.367,3.367,0,0,1-2.238.681Zm0-1.341H4.15a1.454,1.454,0,0,0,1-.309A1.124,1.124,0,0,0,5.5,8.3a1.325,1.325,0,0,0-.348-.955,1.3,1.3,0,0,0-.96-.375H2.671ZM11.6,13.659a1.771,1.771,0,0,1-.16-.535,1.93,1.93,0,0,1-1.506.646,2.12,2.12,0,0,1-1.454-.508,1.633,1.633,0,0,1-.577-1.28,1.687,1.687,0,0,1,.7-1.457,3.472,3.472,0,0,1,2.033-.513h.734V9.67a.984.984,0,0,0-.212-.662.836.836,0,0,0-.67-.248.95.95,0,0,0-.632.193.656.656,0,0,0-.229.53H8.034a1.6,1.6,0,0,1,.32-.96,2.116,2.116,0,0,1,.9-.692,3.3,3.3,0,0,1,1.313-.251,2.606,2.606,0,0,1,1.752.555,1.94,1.94,0,0,1,.648,1.559V12.28a2.854,2.854,0,0,0,.237,1.286v.094ZM10.28,12.55a1.373,1.373,0,0,0,.651-.157,1.033,1.033,0,0,0,.441-.422V10.944h-.6q-1.2,0-1.275.828l-.006.094a.638.638,0,0,0,.21.491A.814.814,0,0,0,10.28,12.55Zm5.827-6.329V7.689h1.021v1.17H16.107v2.98a.711.711,0,0,0,.127.475.637.637,0,0,0,.486.143,2.543,2.543,0,0,0,.469-.039v1.208a3.283,3.283,0,0,1-.966.143,1.523,1.523,0,0,1-1.711-1.694V8.859h-.872V7.689h.872V6.221Zm5.264,2.963A4.332,4.332,0,0,0,20.8,9.14a1.168,1.168,0,0,0-1.186.612v3.907H18.016V7.689h1.506l.044.712a1.478,1.478,0,0,1,1.33-.822,1.671,1.671,0,0,1,.5.072Zm.32,1.435a3.541,3.541,0,0,1,.342-1.584,2.5,2.5,0,0,1,.985-1.076,2.874,2.874,0,0,1,1.493-.381,2.719,2.719,0,0,1,1.973.739,2.967,2.967,0,0,1,.853,2.009l.011.408a3.121,3.121,0,0,1-.767,2.2,2.973,2.973,0,0,1-4.119,0,3.175,3.175,0,0,1-.77-2.251Zm1.595.116a2.226,2.226,0,0,0,.32,1.3,1.151,1.151,0,0,0,1.821.006,2.435,2.435,0,0,0,.326-1.421,2.2,2.2,0,0,0-.326-1.291,1.059,1.059,0,0,0-.916-.458,1.041,1.041,0,0,0-.9.455A2.476,2.476,0,0,0,23.286,10.735ZM29.8,7.689l.05.69a2.084,2.084,0,0,1,1.716-.8,1.732,1.732,0,0,1,1.413.557A2.6,2.6,0,0,1,33.45,9.8v3.857H31.855V9.841a1.035,1.035,0,0,0-.221-.737.988.988,0,0,0-.734-.229,1.1,1.1,0,0,0-1.01.574v4.21H28.3V7.689Zm7.609,6.081a2.931,2.931,0,0,1-2.138-.806,2.864,2.864,0,0,1-.825-2.146v-.155a3.607,3.607,0,0,1,.348-1.608,2.551,2.551,0,0,1,.985-1.093,2.765,2.765,0,0,1,1.454-.383,2.478,2.478,0,0,1,1.929.773,3.139,3.139,0,0,1,.7,2.191v.651h-3.8a1.481,1.481,0,0,0,.466.938,1.409,1.409,0,0,0,.985.353,1.721,1.721,0,0,0,1.44-.668l.784.877a2.394,2.394,0,0,1-.971.792A3.186,3.186,0,0,1,37.406,13.769Zm-.182-4.9a1,1,0,0,0-.77.32,1.653,1.653,0,0,0-.378.916h2.218V9.979a1.179,1.179,0,0,0-.287-.819A1.031,1.031,0,0,0,37.224,8.87ZM44,12.009a.514.514,0,0,0-.29-.461,3.291,3.291,0,0,0-.93-.3q-2.13-.447-2.13-1.81a1.641,1.641,0,0,1,.659-1.327,2.66,2.66,0,0,1,1.724-.532,2.863,2.863,0,0,1,1.818.535A1.687,1.687,0,0,1,45.534,9.5H43.94a.772.772,0,0,0-.221-.566.934.934,0,0,0-.69-.223.954.954,0,0,0-.624.182.575.575,0,0,0-.221.464.491.491,0,0,0,.251.428,2.583,2.583,0,0,0,.847.281,6.918,6.918,0,0,1,1,.268,1.65,1.65,0,0,1,1.264,1.606,1.557,1.557,0,0,1-.7,1.322,3.023,3.023,0,0,1-1.81.5,3.157,3.157,0,0,1-1.333-.268,2.236,2.236,0,0,1-.913-.734,1.705,1.705,0,0,1-.331-1.007h1.512a.832.832,0,0,0,.315.651,1.248,1.248,0,0,0,.784.226,1.155,1.155,0,0,0,.693-.174A.541.541,0,0,0,44,12.009Z" transform="translate(631.377 12755.061)" fill="#12263f"/>
  </g>
</svg>
