<svg id="carbon" xmlns="http://www.w3.org/2000/svg" width="130" height="130" viewBox="0 0 130 130">
  <path id="Trazado_721163" data-name="Trazado 721163" d="M130,65A65.009,65.009,0,0,1,8.12,96.484c-.115-.208,1.139-.769,1.026-.978-.46-.851-.841-1.347-1.264-2.221-.084-.174-1.6-.363-1.678-.537A65.3,65.3,0,0,1,1.46,51.237c.048-.222,1.939-.226,1.989-.447q.284-1.254.616-2.489c.054-.2-1.733-.62-1.677-.821A65.01,65.01,0,0,1,130,65Z" transform="translate(0 0)" fill="#865cb2"/>
  <path id="Trazado_721164" data-name="Trazado 721164" d="M166.741,82.425a53.893,53.893,0,1,1-53.893-53.893A53.893,53.893,0,0,1,166.741,82.425Z" transform="translate(-43.985 -21.288)" fill="#9773bd"/>
  <path id="Trazado_721165" data-name="Trazado 721165" d="M99.891,67.062h17.595a2.539,2.539,0,0,0,2.539-2.539V54.188h16.661q-.657-1.932-1.431-3.809h-15.23V18.312a2.539,2.539,0,0,0-2.539-2.539H99.891v-.757q-1.876-.773-3.809-1.431v2.188H71.275a2.539,2.539,0,0,0-2.539,2.539V50.379H54.188v-36.8q-1.932.657-3.809,1.431V50.379H15.015q-.773,1.876-1.431,3.809h36.8V96.082h-36.8q.657,1.932,1.431,3.809H50.379v35.364q1.876.773,3.809,1.431v-36.8H96.082v36.8q1.932-.657,3.809-1.431V99.891h35.364q.773-1.876,1.431-3.809h-36.8Zm-45.7,29.02V54.188H68.735V64.523a2.539,2.539,0,0,0,2.539,2.539H96.082v29.02Z" transform="translate(-10.135 -10.135)" fill="#865cb2"/>
  <path id="Trazado_721166" data-name="Trazado 721166" d="M34.035,76.535a1.27,1.27,0,0,1-.374-.9V73.141q1.217-1.7,2.539-3.32V74.36c1.371-.006,3.456-.014,4.227-.014a3.067,3.067,0,1,0,0-6.134h-2.87Q38.7,66.9,39.916,65.649a2.443,2.443,0,0,0,2.107-2.075q1.109-1.044,2.267-2.036a4.972,4.972,0,0,1-.932,4.964,5.6,5.6,0,0,1-2.931,10.383c-1.187,0-5.491.019-5.491.019h-.006a1.269,1.269,0,0,1-.9-.369Zm96.985,38.881c-.74,0-2.176.007-3.216.013v5.735a1.27,1.27,0,0,1-2.539,0V105.043c0-.007,0-.013,0-.02s0-.012,0-.018,0-.009,0-.013l0-.027a.008.008,0,0,1,0,0,1.265,1.265,0,0,1,.263-.688l.018-.023,0,0,.017-.02,0,0,.014-.016.007-.008.012-.013.009-.009.013-.013.008-.008h0l.021-.02h0a1.265,1.265,0,0,1,.813-.349h4.549a5.816,5.816,0,1,1,0,11.631Zm3.366-5.816a3.367,3.367,0,0,0-3.366-3.277h-3.212c0,1.113.007,2.647.007,3.277,0,.752.007,2.222.013,3.29,1.041-.006,2.458-.013,3.192-.013A3.367,3.367,0,0,0,134.386,109.6ZM42.9,122.434a1.27,1.27,0,0,1-1.188-.821l-1.183-3.135H32.557l-1.2,3.138a1.269,1.269,0,1,1-2.373-.9l6.049-15.884.011-.029a1.629,1.629,0,0,1,1.512-1.015h0a1.629,1.629,0,0,1,1.512,1.013l.014.035,5.994,15.884a1.27,1.27,0,0,1-1.188,1.718Zm-3.329-6.5-3.007-7.969-3.035,7.969Zm9.954,6.495a1.27,1.27,0,0,0,1.27-1.27V105.327a1.27,1.27,0,0,0-2.539,0v15.837A1.27,1.27,0,0,0,49.52,122.434Zm35.317-10.389c-2.1-.775-4.048-1.622-4.507-1.824a1.843,1.843,0,0,1-.753-1.8,2.394,2.394,0,0,1,1.8-1.9,6.119,6.119,0,0,1,5.121,1.163,1.269,1.269,0,0,0,1.63-1.947c-.139-.117-3.462-2.859-7.483-1.647a4.931,4.931,0,0,0-3.584,3.968,4.383,4.383,0,0,0,1.954,4.34,1.259,1.259,0,0,0,.176.1c.092.041,2.289,1.019,4.765,1.932,1.864.688,2.808,1.789,2.587,3.022A3.416,3.416,0,0,1,83,119.895a6.363,6.363,0,0,1-4.673-1.971,1.27,1.27,0,0,0-1.882,1.7A8.939,8.939,0,0,0,83,122.434a5.979,5.979,0,0,0,6.047-4.538c.349-1.95-.574-4.51-4.208-5.851Zm10.489-3.12a1.269,1.269,0,0,0-1.27,1.27v10.97a1.27,1.27,0,0,0,2.539,0v-10.97A1.269,1.269,0,0,0,95.325,108.925Zm-.006-2.207a1.7,1.7,0,1,0-1.7-1.7A1.7,1.7,0,0,0,95.319,106.718ZM56.731,149.257V162.68a1.27,1.27,0,0,1-2.539,0v-1.231a7.189,7.189,0,0,1-6.692,1.419q-2.246-1.691-4.336-3.568a7.19,7.19,0,0,1,11.029-8.812v-1.231a1.27,1.27,0,1,1,2.539,0Zm-2.539,6.712a4.654,4.654,0,1,0-4.654,4.654A4.66,4.66,0,0,0,54.192,155.968Zm83.946-7.438a4.253,4.253,0,0,0-3.088,3.427,3.867,3.867,0,0,0,.231,1.989,65.263,65.263,0,0,0,4.483-5.676A6.106,6.106,0,0,0,138.139,148.53Zm-52.4,4.555H80.916a1.27,1.27,0,0,0,0,2.539h3.468c-.363,2.77-1.965,5.516-5.6,5.516a6.786,6.786,0,1,1,3.793-12.413,1.27,1.27,0,0,0,1.421-2.1,9.325,9.325,0,1,0-5.215,17.057c4.842,0,8.223-3.835,8.223-9.325a1.269,1.269,0,0,0-1.269-1.27Zm40.289-7.008,4.722,12.514q-1,.924-2.032,1.807l-.254-.674h-7.967l-1.2,3.138a1.27,1.27,0,1,1-2.373-.9l6.05-15.884.011-.028a1.629,1.629,0,0,1,1.511-1.016h0a1.629,1.629,0,0,1,1.512,1.012l.014.035Zm1.478,11.107-3.007-7.969-3.035,7.969Zm-88.26-4.1H37.1q1.542,1.807,3.212,3.5a12.269,12.269,0,0,0,.2-2.228A1.27,1.27,0,0,0,39.242,153.085Zm64.433,2.216v.92a1.27,1.27,0,0,1-1.27,1.27h0l-10.345-.02a5.359,5.359,0,0,0,5.142,3.874,3.941,3.941,0,0,0,3.2-1.414,1.269,1.269,0,1,1,1.946,1.63,6.472,6.472,0,0,1-5.143,2.323,7.9,7.9,0,0,1-7.888-7.888v0l-.023-.635q0-.023,0-.046a7.193,7.193,0,1,1,14.387-.009Zm-2.552-.352a4.654,4.654,0,0,0-9.28-.018Zm-63.279-6.563a1.27,1.27,0,0,0-.341-1.763,9.34,9.34,0,0,0-6.24-1.537q.79,1.275,1.635,2.51a6.736,6.736,0,0,1,3.183,1.131,1.27,1.27,0,0,0,1.763-.342Z" transform="translate(-21.566 -45.913)" fill="#533672"/>
  <path id="Trazado_721167" data-name="Trazado 721167" d="M52.279,22.9a1.9,1.9,0,0,1,1.9-1.9h5.078a1.9,1.9,0,0,1,0,3.809H54.183A1.9,1.9,0,0,1,52.279,22.9ZM79.574,40.043H59.008a1.9,1.9,0,0,0,0,3.809H79.574a1.9,1.9,0,0,0,0-3.809Zm-21.582,68.3H52.914a1.9,1.9,0,0,0,0,3.809h5.078a1.9,1.9,0,0,0,0-3.809Zm0-45.2H52.914a1.9,1.9,0,0,0,0,3.809h5.078a1.9,1.9,0,0,0,0-3.809ZM16.1,108.344H11.019a1.911,1.911,0,0,0-.525.073q.9,1.9,1.916,3.735H16.1a1.9,1.9,0,0,0,0-3.809Zm-2.92-43.291a1.9,1.9,0,0,0-1.9-1.9H6.679Q6.161,65,5.751,66.9a1.9,1.9,0,0,0,.444.052h5.078A1.9,1.9,0,0,0,13.178,65.053Zm91.533,43.291H99.633a1.9,1.9,0,1,0,0,3.809h5.078a1.9,1.9,0,0,0,0-3.809ZM74.75,47.66H63.832a1.9,1.9,0,0,0,0,3.809H74.75a1.9,1.9,0,0,0,0-3.809Z" transform="translate(-4.291 -15.668)" fill="#b9a1d3"/>
  <path id="Trazado_721168" data-name="Trazado 721168" d="M270.871,2.539V48.75a2.539,2.539,0,0,1-2.539,2.539H255.539A2.539,2.539,0,0,1,253,48.75V2.539A2.539,2.539,0,0,1,255.539,0h12.793A2.539,2.539,0,0,1,270.871,2.539Z" transform="translate(-188.762)" fill="#93dcfc"/>
  <path id="Trazado_721169" data-name="Trazado 721169" d="M322.033,2.539V48.75a2.539,2.539,0,0,1-2.539,2.539H279.322a2.539,2.539,0,0,1-2.539-2.539V2.539A2.539,2.539,0,0,1,279.322,0h40.172A2.539,2.539,0,0,1,322.033,2.539Z" transform="translate(-206.506)" fill="#b4e7fd"/>
  <path id="Trazado_721170" data-name="Trazado 721170" d="M279.887,21.9a1.9,1.9,0,0,1-1.9,1.9H272.9a1.9,1.9,0,0,1,0-3.809h5.078A1.9,1.9,0,0,1,279.887,21.9Z" transform="translate(-202.191 -14.922)" fill="#fff5f5"/>
  <path id="Trazado_721171" data-name="Trazado 721171" d="M328.677,67.974a12.461,12.461,0,0,1-9.908,4.466,15.315,15.315,0,1,1,8.564-28.013,1.9,1.9,0,1,1-2.132,3.156,11.507,11.507,0,1,0-6.432,21.049,8.655,8.655,0,0,0,6.99-3.106,1.9,1.9,0,1,1,2.918,2.448Z" transform="translate(-226.405 -31.195)" fill="#232e7a"/>
</svg>
