<svg xmlns="http://www.w3.org/2000/svg" width="742.443" height="425.638" viewBox="0 0 742.443 425.638">
  <g id="Grupo_956620" data-name="Grupo 956620" transform="translate(-180 -14612.161)">
    <g id="Grupo_948320" data-name="Grupo 948320" transform="translate(457.188 14642.435)">
      <path id="Trazado_721962" data-name="Trazado 721962" d="M12.825,20.664a5.1,5.1,0,0,1-1.67,3.529A5.692,5.692,0,0,1,7.282,25.46a5.511,5.511,0,0,1-2.975-.8,5.257,5.257,0,0,1-1.985-2.276,8.215,8.215,0,0,1-.728-3.427v-1.32A8.274,8.274,0,0,1,2.3,14.112a5.341,5.341,0,0,1,2.034-2.349A5.673,5.673,0,0,1,7.4,10.938a5.45,5.45,0,0,1,3.766,1.272,5.312,5.312,0,0,1,1.66,3.592H10.379a3.491,3.491,0,0,0-.888-2.2A2.936,2.936,0,0,0,7.4,12.927,2.869,2.869,0,0,0,4.938,14.1a5.842,5.842,0,0,0-.879,3.432v1.252a6.2,6.2,0,0,0,.82,3.495,2.723,2.723,0,0,0,2.4,1.2,3.175,3.175,0,0,0,2.174-.65,3.391,3.391,0,0,0,.922-2.165Zm8.2,4.6H18.679V13.918L15.213,15.1v-1.99l5.514-2.029h.3Z" transform="translate(19.596 91.76)" fill="#12263f"/>
      <path id="Trazado_721961" data-name="Trazado 721961" d="M12.825,20.664a5.1,5.1,0,0,1-1.67,3.529A5.692,5.692,0,0,1,7.282,25.46a5.511,5.511,0,0,1-2.975-.8,5.257,5.257,0,0,1-1.985-2.276,8.215,8.215,0,0,1-.728-3.427v-1.32A8.274,8.274,0,0,1,2.3,14.112a5.341,5.341,0,0,1,2.034-2.349A5.673,5.673,0,0,1,7.4,10.938a5.45,5.45,0,0,1,3.766,1.272,5.312,5.312,0,0,1,1.66,3.592H10.379a3.491,3.491,0,0,0-.888-2.2A2.936,2.936,0,0,0,7.4,12.927,2.869,2.869,0,0,0,4.938,14.1a5.842,5.842,0,0,0-.879,3.432v1.252a6.2,6.2,0,0,0,.82,3.495,2.723,2.723,0,0,0,2.4,1.2,3.175,3.175,0,0,0,2.174-.65,3.391,3.391,0,0,0,.922-2.165Zm11.319,4.6h-9.5V23.644l4.708-5.135a11.724,11.724,0,0,0,1.451-1.9,3.075,3.075,0,0,0,.432-1.529,2.323,2.323,0,0,0-.568-1.631,1.97,1.97,0,0,0-1.529-.621,2.27,2.27,0,0,0-1.776.7,2.749,2.749,0,0,0-.631,1.912H14.368a4.623,4.623,0,0,1,.587-2.325,4.044,4.044,0,0,1,1.679-1.607,5.345,5.345,0,0,1,2.519-.573A4.781,4.781,0,0,1,22.4,11.971,3.589,3.589,0,0,1,23.59,14.83a4.851,4.851,0,0,1-.6,2.218,12.613,12.613,0,0,1-1.956,2.636l-3.456,3.7h6.562Z" transform="translate(98.228 91.76)" fill="#12263f"/>
      <path id="Trazado_721960" data-name="Trazado 721960" d="M12.825,20.664a5.1,5.1,0,0,1-1.67,3.529A5.692,5.692,0,0,1,7.282,25.46a5.511,5.511,0,0,1-2.975-.8,5.257,5.257,0,0,1-1.985-2.276,8.215,8.215,0,0,1-.728-3.427v-1.32A8.274,8.274,0,0,1,2.3,14.112a5.341,5.341,0,0,1,2.034-2.349A5.673,5.673,0,0,1,7.4,10.938a5.45,5.45,0,0,1,3.766,1.272,5.312,5.312,0,0,1,1.66,3.592H10.379a3.491,3.491,0,0,0-.888-2.2A2.936,2.936,0,0,0,7.4,12.927,2.869,2.869,0,0,0,4.938,14.1a5.842,5.842,0,0,0-.879,3.432v1.252a6.2,6.2,0,0,0,.82,3.495,2.723,2.723,0,0,0,2.4,1.2,3.175,3.175,0,0,0,2.174-.65,3.391,3.391,0,0,0,.922-2.165Zm4.543-3.543H18.8a2.571,2.571,0,0,0,1.723-.563,2.009,2.009,0,0,0,.636-1.6,2.189,2.189,0,0,0-.529-1.568,2.129,2.129,0,0,0-1.616-.558,2.252,2.252,0,0,0-1.563.548,1.833,1.833,0,0,0-.612,1.432H14.485a3.57,3.57,0,0,1,.578-1.98,3.88,3.88,0,0,1,1.611-1.393,5.249,5.249,0,0,1,2.315-.5A4.861,4.861,0,0,1,22.314,12a3.73,3.73,0,0,1,1.209,2.956,3,3,0,0,1-.607,1.791,3.8,3.8,0,0,1-1.568,1.267,3.468,3.468,0,0,1,1.772,1.252,3.429,3.429,0,0,1,.607,2.039,3.8,3.8,0,0,1-1.306,3.029,5.069,5.069,0,0,1-3.432,1.126,5.031,5.031,0,0,1-3.339-1.087,3.58,3.58,0,0,1-1.3-2.893h2.359a1.973,1.973,0,0,0,.626,1.514,2.374,2.374,0,0,0,1.684.582,2.449,2.449,0,0,0,1.728-.582,2.185,2.185,0,0,0,.631-1.689,2.207,2.207,0,0,0-.66-1.718,2.822,2.822,0,0,0-1.961-.6H17.368Z" transform="translate(178.472 91.76)" fill="#12263f"/>
      <path id="Trazado_721959" data-name="Trazado 721959" d="M12.825,20.664a5.1,5.1,0,0,1-1.67,3.529A5.692,5.692,0,0,1,7.282,25.46a5.511,5.511,0,0,1-2.975-.8,5.257,5.257,0,0,1-1.985-2.276,8.215,8.215,0,0,1-.728-3.427v-1.32A8.274,8.274,0,0,1,2.3,14.112a5.341,5.341,0,0,1,2.034-2.349A5.673,5.673,0,0,1,7.4,10.938a5.45,5.45,0,0,1,3.766,1.272,5.312,5.312,0,0,1,1.66,3.592H10.379a3.491,3.491,0,0,0-.888-2.2A2.936,2.936,0,0,0,7.4,12.927,2.869,2.869,0,0,0,4.938,14.1a5.842,5.842,0,0,0-.879,3.432v1.252a6.2,6.2,0,0,0,.82,3.495,2.723,2.723,0,0,0,2.4,1.2,3.175,3.175,0,0,0,2.174-.65,3.391,3.391,0,0,0,.922-2.165Zm9.795-.437h1.757V22.12H22.62v3.145H20.261V22.12H14.155l-.068-1.437,6.1-9.552H22.62Zm-6.057,0h3.7v-5.9l-.175.311Z" transform="translate(257.104 91.76)" fill="#12263f"/>
      <path id="Trazado_721958" data-name="Trazado 721958" d="M12.825,20.664a5.1,5.1,0,0,1-1.67,3.529A5.692,5.692,0,0,1,7.282,25.46a5.511,5.511,0,0,1-2.975-.8,5.257,5.257,0,0,1-1.985-2.276,8.215,8.215,0,0,1-.728-3.427v-1.32A8.274,8.274,0,0,1,2.3,14.112a5.341,5.341,0,0,1,2.034-2.349A5.673,5.673,0,0,1,7.4,10.938a5.45,5.45,0,0,1,3.766,1.272,5.312,5.312,0,0,1,1.66,3.592H10.379a3.491,3.491,0,0,0-.888-2.2A2.936,2.936,0,0,0,7.4,12.927,2.869,2.869,0,0,0,4.938,14.1a5.842,5.842,0,0,0-.879,3.432v1.252a6.2,6.2,0,0,0,.82,3.495,2.723,2.723,0,0,0,2.4,1.2,3.175,3.175,0,0,0,2.174-.65,3.391,3.391,0,0,0,.922-2.165Zm2.446-2.407.767-7.125h7.591V13.17H18l-.388,3.378a4.364,4.364,0,0,1,2.213-.563,3.937,3.937,0,0,1,3.14,1.291,5.116,5.116,0,0,1,1.121,3.475,4.709,4.709,0,0,1-1.243,3.432,4.535,4.535,0,0,1-3.407,1.277,4.749,4.749,0,0,1-3.218-1.1,3.983,3.983,0,0,1-1.383-2.907h2.281a2.491,2.491,0,0,0,.738,1.577,2.244,2.244,0,0,0,1.573.548A2.028,2.028,0,0,0,21.12,22.8a3.352,3.352,0,0,0,.607-2.116,2.962,2.962,0,0,0-.67-2.043,2.343,2.343,0,0,0-1.844-.752,3.068,3.068,0,0,0-1.087.17,3.079,3.079,0,0,0-.971.665Z" transform="translate(337.349 91.76)" fill="#12263f"/>
      <path id="Trazado_721957" data-name="Trazado 721957" d="M12.825,20.664a5.1,5.1,0,0,1-1.67,3.529A5.692,5.692,0,0,1,7.282,25.46a5.511,5.511,0,0,1-2.975-.8,5.257,5.257,0,0,1-1.985-2.276,8.215,8.215,0,0,1-.728-3.427v-1.32A8.274,8.274,0,0,1,2.3,14.112a5.341,5.341,0,0,1,2.034-2.349A5.673,5.673,0,0,1,7.4,10.938a5.45,5.45,0,0,1,3.766,1.272,5.312,5.312,0,0,1,1.66,3.592H10.379a3.491,3.491,0,0,0-.888-2.2A2.936,2.936,0,0,0,7.4,12.927,2.869,2.869,0,0,0,4.938,14.1a5.842,5.842,0,0,0-.879,3.432v1.252a6.2,6.2,0,0,0,.82,3.495,2.723,2.723,0,0,0,2.4,1.2,3.175,3.175,0,0,0,2.174-.65,3.391,3.391,0,0,0,.922-2.165Zm9.154-9.6v1.951h-.291A4.682,4.682,0,0,0,18.523,14.1a4.549,4.549,0,0,0-1.408,3,3.83,3.83,0,0,1,2.9-1.194,3.618,3.618,0,0,1,2.956,1.32,5.2,5.2,0,0,1,1.082,3.407,4.861,4.861,0,0,1-1.267,3.49,4.373,4.373,0,0,1-3.325,1.335A4.271,4.271,0,0,1,16.033,23.9a6.148,6.148,0,0,1-1.315-4.1v-.806a8.65,8.65,0,0,1,1.81-5.824,6.491,6.491,0,0,1,5.208-2.106ZM19.445,17.81a2.484,2.484,0,0,0-1.422.437,2.553,2.553,0,0,0-.946,1.165v.718a4.231,4.231,0,0,0,.66,2.5,2.013,2.013,0,0,0,1.708.927,1.991,1.991,0,0,0,1.66-.786,3.274,3.274,0,0,0,.612-2.068,3.322,3.322,0,0,0-.621-2.087A1.98,1.98,0,0,0,19.445,17.81Z" transform="translate(415.98 91.76)" fill="#12263f"/>
      <g id="flask" transform="translate(0)">
        <path id="Trazado_721426" data-name="Trazado 721426" d="M179.748,65.689H137.467l9.6-15.694a1.837,1.837,0,0,0,.27-.959V16.349h22.54V49.036a1.838,1.838,0,0,0,.27.959Z" transform="translate(-124.754 -13.433)" fill="#d3e1f4"/>
        <path id="Trazado_721427" data-name="Trazado 721427" d="M225.219,65.688h-8.687l-9.87-16.136V29.895a4.843,4.843,0,0,0-4.843-4.843h-9.01v-8.7h22.54V49.034a1.836,1.836,0,0,0,.27.959Z" transform="translate(-170.226 -13.432)" fill="#b3cbea"/>
        <path id="Trazado_721428" data-name="Trazado 721428" d="M120.056,282.692H80.021L68.307,301.841A14.291,14.291,0,0,0,80.5,323.589h39.081a14.291,14.291,0,0,0,12.191-21.748Z" transform="translate(-66.185 -232.274)" fill="#31a7fb"/>
        <path id="Trazado_721429" data-name="Trazado 721429" d="M326.017,282.692H317.33l11.714,19.149a14.29,14.29,0,0,1-12.191,21.749h8.687a14.29,14.29,0,0,0,12.191-21.749Z" transform="translate(-272.146 -232.274)" fill="#1c96f9"/>
        <path id="Trazado_721430" data-name="Trazado 721430" d="M197.543,5.927H172.7A2.963,2.963,0,1,1,172.7,0h24.844a2.963,2.963,0,0,1,0,5.927Z" transform="translate(-151.268)" fill="#eaf6ff"/>
        <path id="Trazado_721431" data-name="Trazado 721431" d="M299.673,2.964a2.961,2.961,0,0,1-2.964,2.963h-6.282a2.964,2.964,0,1,0,0-5.927h6.282a2.963,2.963,0,0,1,2.964,2.964Z" transform="translate(-250.434 0)" fill="#d3e1f4"/>
        <g id="Grupo_948285" data-name="Grupo 948285" transform="translate(27.876 29.33)">
          <g id="Grupo_948276" data-name="Grupo 948276" transform="translate(0)">
            <path id="Trazado_721432" data-name="Trazado 721432" d="M231.879,167.209H223.86a1.378,1.378,0,1,1,0-2.756h8.019a1.378,1.378,0,0,1,0,2.756Z" transform="translate(-222.482 -164.453)" fill="#84aee1"/>
          </g>
          <g id="Grupo_948277" data-name="Grupo 948277" transform="translate(0 6.141)">
            <path id="Trazado_721433" data-name="Trazado 721433" d="M228.823,201.643H223.86a1.378,1.378,0,1,1,0-2.756h4.963a1.378,1.378,0,0,1,0,2.756Z" transform="translate(-222.482 -198.887)" fill="#84aee1"/>
          </g>
          <g id="Grupo_948278" data-name="Grupo 948278" transform="translate(0 12.283)">
            <path id="Trazado_721434" data-name="Trazado 721434" d="M228.823,236.077H223.86a1.378,1.378,0,1,1,0-2.756h4.963a1.378,1.378,0,0,1,0,2.756Z" transform="translate(-222.482 -233.321)" fill="#84aee1"/>
          </g>
          <g id="Grupo_948279" data-name="Grupo 948279" transform="translate(0 18.424)">
            <path id="Trazado_721435" data-name="Trazado 721435" d="M228.823,270.511H223.86a1.378,1.378,0,1,1,0-2.756h4.963a1.378,1.378,0,0,1,0,2.756Z" transform="translate(-222.482 -267.755)" fill="#84aee1"/>
          </g>
          <g id="Grupo_948280" data-name="Grupo 948280" transform="translate(0 24.565)">
            <path id="Trazado_721436" data-name="Trazado 721436" d="M231.879,304.945H223.86a1.378,1.378,0,1,1,0-2.756h8.019a1.378,1.378,0,0,1,0,2.756Z" transform="translate(-222.482 -302.189)" fill="#1c96f9"/>
          </g>
          <g id="Grupo_948281" data-name="Grupo 948281" transform="translate(0 49.131)">
            <path id="Trazado_721437" data-name="Trazado 721437" d="M231.879,442.682H223.86a1.378,1.378,0,1,1,0-2.756h8.019a1.378,1.378,0,0,1,0,2.756Z" transform="translate(-222.482 -439.926)" fill="#1c96f9"/>
          </g>
          <g id="Grupo_948282" data-name="Grupo 948282" transform="translate(0 30.706)">
            <path id="Trazado_721438" data-name="Trazado 721438" d="M228.823,339.379H223.86a1.378,1.378,0,1,1,0-2.756h4.963a1.378,1.378,0,1,1,0,2.756Z" transform="translate(-222.482 -336.623)" fill="#1c96f9"/>
          </g>
          <g id="Grupo_948283" data-name="Grupo 948283" transform="translate(0 36.848)">
            <path id="Trazado_721439" data-name="Trazado 721439" d="M228.823,373.814H223.86a1.378,1.378,0,1,1,0-2.756h4.963a1.378,1.378,0,0,1,0,2.756Z" transform="translate(-222.482 -371.058)" fill="#1c96f9"/>
          </g>
          <g id="Grupo_948284" data-name="Grupo 948284" transform="translate(0 42.989)">
            <path id="Trazado_721440" data-name="Trazado 721440" d="M228.823,408.248H223.86a1.378,1.378,0,1,1,0-2.756h4.963a1.378,1.378,0,0,1,0,2.756Z" transform="translate(-222.482 -405.492)" fill="#1c96f9"/>
          </g>
        </g>
      </g>
      <g id="flask-2" data-name="flask" transform="translate(238.314)">
        <path id="Trazado_721426-2" data-name="Trazado 721426" d="M179.748,65.689H137.467l9.6-15.694a1.837,1.837,0,0,0,.27-.959V16.349h22.54V49.036a1.838,1.838,0,0,0,.27.959Z" transform="translate(-124.754 -13.433)" fill="#d3e1f4"/>
        <path id="Trazado_721427-2" data-name="Trazado 721427" d="M225.219,65.688h-8.687l-9.87-16.136V29.895a4.843,4.843,0,0,0-4.843-4.843h-9.01v-8.7h22.54V49.034a1.836,1.836,0,0,0,.27.959Z" transform="translate(-170.226 -13.432)" fill="#b3cbea"/>
        <path id="Trazado_721428-2" data-name="Trazado 721428" d="M120.056,282.692H80.021L68.307,301.841A14.291,14.291,0,0,0,80.5,323.589h39.081a14.291,14.291,0,0,0,12.191-21.748Z" transform="translate(-66.185 -232.274)" fill="#31a7fb"/>
        <path id="Trazado_721429-2" data-name="Trazado 721429" d="M326.017,282.692H317.33l11.714,19.149a14.29,14.29,0,0,1-12.191,21.749h8.687a14.29,14.29,0,0,0,12.191-21.749Z" transform="translate(-272.146 -232.274)" fill="#1c96f9"/>
        <path id="Trazado_721430-2" data-name="Trazado 721430" d="M197.543,5.927H172.7A2.963,2.963,0,1,1,172.7,0h24.844a2.963,2.963,0,0,1,0,5.927Z" transform="translate(-151.268)" fill="#eaf6ff"/>
        <path id="Trazado_721431-2" data-name="Trazado 721431" d="M299.673,2.964a2.961,2.961,0,0,1-2.964,2.963h-6.282a2.964,2.964,0,1,0,0-5.927h6.282a2.963,2.963,0,0,1,2.964,2.964Z" transform="translate(-250.434 0)" fill="#d3e1f4"/>
        <g id="Grupo_948285-2" data-name="Grupo 948285" transform="translate(27.876 29.33)">
          <g id="Grupo_948276-2" data-name="Grupo 948276" transform="translate(0)">
            <path id="Trazado_721432-2" data-name="Trazado 721432" d="M231.879,167.209H223.86a1.378,1.378,0,1,1,0-2.756h8.019a1.378,1.378,0,0,1,0,2.756Z" transform="translate(-222.482 -164.453)" fill="#84aee1"/>
          </g>
          <g id="Grupo_948277-2" data-name="Grupo 948277" transform="translate(0 6.141)">
            <path id="Trazado_721433-2" data-name="Trazado 721433" d="M228.823,201.643H223.86a1.378,1.378,0,1,1,0-2.756h4.963a1.378,1.378,0,0,1,0,2.756Z" transform="translate(-222.482 -198.887)" fill="#84aee1"/>
          </g>
          <g id="Grupo_948278-2" data-name="Grupo 948278" transform="translate(0 12.283)">
            <path id="Trazado_721434-2" data-name="Trazado 721434" d="M228.823,236.077H223.86a1.378,1.378,0,1,1,0-2.756h4.963a1.378,1.378,0,0,1,0,2.756Z" transform="translate(-222.482 -233.321)" fill="#84aee1"/>
          </g>
          <g id="Grupo_948279-2" data-name="Grupo 948279" transform="translate(0 18.424)">
            <path id="Trazado_721435-2" data-name="Trazado 721435" d="M228.823,270.511H223.86a1.378,1.378,0,1,1,0-2.756h4.963a1.378,1.378,0,0,1,0,2.756Z" transform="translate(-222.482 -267.755)" fill="#84aee1"/>
          </g>
          <g id="Grupo_948280-2" data-name="Grupo 948280" transform="translate(0 24.565)">
            <path id="Trazado_721436-2" data-name="Trazado 721436" d="M231.879,304.945H223.86a1.378,1.378,0,1,1,0-2.756h8.019a1.378,1.378,0,0,1,0,2.756Z" transform="translate(-222.482 -302.189)" fill="#1c96f9"/>
          </g>
          <g id="Grupo_948281-2" data-name="Grupo 948281" transform="translate(0 49.131)">
            <path id="Trazado_721437-2" data-name="Trazado 721437" d="M231.879,442.682H223.86a1.378,1.378,0,1,1,0-2.756h8.019a1.378,1.378,0,0,1,0,2.756Z" transform="translate(-222.482 -439.926)" fill="#1c96f9"/>
          </g>
          <g id="Grupo_948282-2" data-name="Grupo 948282" transform="translate(0 30.706)">
            <path id="Trazado_721438-2" data-name="Trazado 721438" d="M228.823,339.379H223.86a1.378,1.378,0,1,1,0-2.756h4.963a1.378,1.378,0,1,1,0,2.756Z" transform="translate(-222.482 -336.623)" fill="#1c96f9"/>
          </g>
          <g id="Grupo_948283-2" data-name="Grupo 948283" transform="translate(0 36.848)">
            <path id="Trazado_721439-2" data-name="Trazado 721439" d="M228.823,373.814H223.86a1.378,1.378,0,1,1,0-2.756h4.963a1.378,1.378,0,0,1,0,2.756Z" transform="translate(-222.482 -371.058)" fill="#1c96f9"/>
          </g>
          <g id="Grupo_948284-2" data-name="Grupo 948284" transform="translate(0 42.989)">
            <path id="Trazado_721440-2" data-name="Trazado 721440" d="M228.823,408.248H223.86a1.378,1.378,0,1,1,0-2.756h4.963a1.378,1.378,0,0,1,0,2.756Z" transform="translate(-222.482 -405.492)" fill="#1c96f9"/>
          </g>
        </g>
      </g>
      <g id="flask-3" data-name="flask" transform="translate(79.438)">
        <path id="Trazado_721426-3" data-name="Trazado 721426" d="M179.748,65.689H137.467l9.6-15.694a1.837,1.837,0,0,0,.27-.959V16.349h22.54V49.036a1.838,1.838,0,0,0,.27.959Z" transform="translate(-124.754 -13.433)" fill="#d3e1f4"/>
        <path id="Trazado_721427-3" data-name="Trazado 721427" d="M225.219,65.688h-8.687l-9.87-16.136V29.895a4.843,4.843,0,0,0-4.843-4.843h-9.01v-8.7h22.54V49.034a1.836,1.836,0,0,0,.27.959Z" transform="translate(-170.226 -13.432)" fill="#b3cbea"/>
        <path id="Trazado_721428-3" data-name="Trazado 721428" d="M120.056,282.692H80.021L68.307,301.841A14.291,14.291,0,0,0,80.5,323.589h39.081a14.291,14.291,0,0,0,12.191-21.748Z" transform="translate(-66.185 -232.274)" fill="#31a7fb"/>
        <path id="Trazado_721429-3" data-name="Trazado 721429" d="M326.017,282.692H317.33l11.714,19.149a14.29,14.29,0,0,1-12.191,21.749h8.687a14.29,14.29,0,0,0,12.191-21.749Z" transform="translate(-272.146 -232.274)" fill="#1c96f9"/>
        <path id="Trazado_721430-3" data-name="Trazado 721430" d="M197.543,5.927H172.7A2.963,2.963,0,1,1,172.7,0h24.844a2.963,2.963,0,0,1,0,5.927Z" transform="translate(-151.268)" fill="#eaf6ff"/>
        <path id="Trazado_721431-3" data-name="Trazado 721431" d="M299.673,2.964a2.961,2.961,0,0,1-2.964,2.963h-6.282a2.964,2.964,0,1,0,0-5.927h6.282a2.963,2.963,0,0,1,2.964,2.964Z" transform="translate(-250.434 0)" fill="#d3e1f4"/>
        <g id="Grupo_948285-3" data-name="Grupo 948285" transform="translate(27.876 29.33)">
          <g id="Grupo_948276-3" data-name="Grupo 948276" transform="translate(0)">
            <path id="Trazado_721432-3" data-name="Trazado 721432" d="M231.879,167.209H223.86a1.378,1.378,0,1,1,0-2.756h8.019a1.378,1.378,0,0,1,0,2.756Z" transform="translate(-222.482 -164.453)" fill="#84aee1"/>
          </g>
          <g id="Grupo_948277-3" data-name="Grupo 948277" transform="translate(0 6.141)">
            <path id="Trazado_721433-3" data-name="Trazado 721433" d="M228.823,201.643H223.86a1.378,1.378,0,1,1,0-2.756h4.963a1.378,1.378,0,0,1,0,2.756Z" transform="translate(-222.482 -198.887)" fill="#84aee1"/>
          </g>
          <g id="Grupo_948278-3" data-name="Grupo 948278" transform="translate(0 12.283)">
            <path id="Trazado_721434-3" data-name="Trazado 721434" d="M228.823,236.077H223.86a1.378,1.378,0,1,1,0-2.756h4.963a1.378,1.378,0,0,1,0,2.756Z" transform="translate(-222.482 -233.321)" fill="#84aee1"/>
          </g>
          <g id="Grupo_948279-3" data-name="Grupo 948279" transform="translate(0 18.424)">
            <path id="Trazado_721435-3" data-name="Trazado 721435" d="M228.823,270.511H223.86a1.378,1.378,0,1,1,0-2.756h4.963a1.378,1.378,0,0,1,0,2.756Z" transform="translate(-222.482 -267.755)" fill="#84aee1"/>
          </g>
          <g id="Grupo_948280-3" data-name="Grupo 948280" transform="translate(0 24.565)">
            <path id="Trazado_721436-3" data-name="Trazado 721436" d="M231.879,304.945H223.86a1.378,1.378,0,1,1,0-2.756h8.019a1.378,1.378,0,0,1,0,2.756Z" transform="translate(-222.482 -302.189)" fill="#1c96f9"/>
          </g>
          <g id="Grupo_948281-3" data-name="Grupo 948281" transform="translate(0 49.131)">
            <path id="Trazado_721437-3" data-name="Trazado 721437" d="M231.879,442.682H223.86a1.378,1.378,0,1,1,0-2.756h8.019a1.378,1.378,0,0,1,0,2.756Z" transform="translate(-222.482 -439.926)" fill="#1c96f9"/>
          </g>
          <g id="Grupo_948282-3" data-name="Grupo 948282" transform="translate(0 30.706)">
            <path id="Trazado_721438-3" data-name="Trazado 721438" d="M228.823,339.379H223.86a1.378,1.378,0,1,1,0-2.756h4.963a1.378,1.378,0,1,1,0,2.756Z" transform="translate(-222.482 -336.623)" fill="#1c96f9"/>
          </g>
          <g id="Grupo_948283-3" data-name="Grupo 948283" transform="translate(0 36.848)">
            <path id="Trazado_721439-3" data-name="Trazado 721439" d="M228.823,373.814H223.86a1.378,1.378,0,1,1,0-2.756h4.963a1.378,1.378,0,0,1,0,2.756Z" transform="translate(-222.482 -371.058)" fill="#1c96f9"/>
          </g>
          <g id="Grupo_948284-3" data-name="Grupo 948284" transform="translate(0 42.989)">
            <path id="Trazado_721440-3" data-name="Trazado 721440" d="M228.823,408.248H223.86a1.378,1.378,0,1,1,0-2.756h4.963a1.378,1.378,0,0,1,0,2.756Z" transform="translate(-222.482 -405.492)" fill="#1c96f9"/>
          </g>
        </g>
      </g>
      <g id="flask-4" data-name="flask" transform="translate(317.753)">
        <path id="Trazado_721426-4" data-name="Trazado 721426" d="M179.748,65.689H137.467l9.6-15.694a1.837,1.837,0,0,0,.27-.959V16.349h22.54V49.036a1.838,1.838,0,0,0,.27.959Z" transform="translate(-124.754 -13.433)" fill="#d3e1f4"/>
        <path id="Trazado_721427-4" data-name="Trazado 721427" d="M225.219,65.688h-8.687l-9.87-16.136V29.895a4.843,4.843,0,0,0-4.843-4.843h-9.01v-8.7h22.54V49.034a1.836,1.836,0,0,0,.27.959Z" transform="translate(-170.226 -13.432)" fill="#b3cbea"/>
        <path id="Trazado_721428-4" data-name="Trazado 721428" d="M120.056,282.692H80.021L68.307,301.841A14.291,14.291,0,0,0,80.5,323.589h39.081a14.291,14.291,0,0,0,12.191-21.748Z" transform="translate(-66.185 -232.274)" fill="#31a7fb"/>
        <path id="Trazado_721429-4" data-name="Trazado 721429" d="M326.017,282.692H317.33l11.714,19.149a14.29,14.29,0,0,1-12.191,21.749h8.687a14.29,14.29,0,0,0,12.191-21.749Z" transform="translate(-272.146 -232.274)" fill="#1c96f9"/>
        <path id="Trazado_721430-4" data-name="Trazado 721430" d="M197.543,5.927H172.7A2.963,2.963,0,1,1,172.7,0h24.844a2.963,2.963,0,0,1,0,5.927Z" transform="translate(-151.268)" fill="#eaf6ff"/>
        <path id="Trazado_721431-4" data-name="Trazado 721431" d="M299.673,2.964a2.961,2.961,0,0,1-2.964,2.963h-6.282a2.964,2.964,0,1,0,0-5.927h6.282a2.963,2.963,0,0,1,2.964,2.964Z" transform="translate(-250.434 0)" fill="#d3e1f4"/>
        <g id="Grupo_948285-4" data-name="Grupo 948285" transform="translate(27.876 29.33)">
          <g id="Grupo_948276-4" data-name="Grupo 948276" transform="translate(0)">
            <path id="Trazado_721432-4" data-name="Trazado 721432" d="M231.879,167.209H223.86a1.378,1.378,0,1,1,0-2.756h8.019a1.378,1.378,0,0,1,0,2.756Z" transform="translate(-222.482 -164.453)" fill="#84aee1"/>
          </g>
          <g id="Grupo_948277-4" data-name="Grupo 948277" transform="translate(0 6.141)">
            <path id="Trazado_721433-4" data-name="Trazado 721433" d="M228.823,201.643H223.86a1.378,1.378,0,1,1,0-2.756h4.963a1.378,1.378,0,0,1,0,2.756Z" transform="translate(-222.482 -198.887)" fill="#84aee1"/>
          </g>
          <g id="Grupo_948278-4" data-name="Grupo 948278" transform="translate(0 12.283)">
            <path id="Trazado_721434-4" data-name="Trazado 721434" d="M228.823,236.077H223.86a1.378,1.378,0,1,1,0-2.756h4.963a1.378,1.378,0,0,1,0,2.756Z" transform="translate(-222.482 -233.321)" fill="#84aee1"/>
          </g>
          <g id="Grupo_948279-4" data-name="Grupo 948279" transform="translate(0 18.424)">
            <path id="Trazado_721435-4" data-name="Trazado 721435" d="M228.823,270.511H223.86a1.378,1.378,0,1,1,0-2.756h4.963a1.378,1.378,0,0,1,0,2.756Z" transform="translate(-222.482 -267.755)" fill="#84aee1"/>
          </g>
          <g id="Grupo_948280-4" data-name="Grupo 948280" transform="translate(0 24.565)">
            <path id="Trazado_721436-4" data-name="Trazado 721436" d="M231.879,304.945H223.86a1.378,1.378,0,1,1,0-2.756h8.019a1.378,1.378,0,0,1,0,2.756Z" transform="translate(-222.482 -302.189)" fill="#1c96f9"/>
          </g>
          <g id="Grupo_948281-4" data-name="Grupo 948281" transform="translate(0 49.131)">
            <path id="Trazado_721437-4" data-name="Trazado 721437" d="M231.879,442.682H223.86a1.378,1.378,0,1,1,0-2.756h8.019a1.378,1.378,0,0,1,0,2.756Z" transform="translate(-222.482 -439.926)" fill="#1c96f9"/>
          </g>
          <g id="Grupo_948282-4" data-name="Grupo 948282" transform="translate(0 30.706)">
            <path id="Trazado_721438-4" data-name="Trazado 721438" d="M228.823,339.379H223.86a1.378,1.378,0,1,1,0-2.756h4.963a1.378,1.378,0,1,1,0,2.756Z" transform="translate(-222.482 -336.623)" fill="#1c96f9"/>
          </g>
          <g id="Grupo_948283-4" data-name="Grupo 948283" transform="translate(0 36.848)">
            <path id="Trazado_721439-4" data-name="Trazado 721439" d="M228.823,373.814H223.86a1.378,1.378,0,1,1,0-2.756h4.963a1.378,1.378,0,0,1,0,2.756Z" transform="translate(-222.482 -371.058)" fill="#1c96f9"/>
          </g>
          <g id="Grupo_948284-4" data-name="Grupo 948284" transform="translate(0 42.989)">
            <path id="Trazado_721440-4" data-name="Trazado 721440" d="M228.823,408.248H223.86a1.378,1.378,0,1,1,0-2.756h4.963a1.378,1.378,0,0,1,0,2.756Z" transform="translate(-222.482 -405.492)" fill="#1c96f9"/>
          </g>
        </g>
      </g>
      <g id="flask-5" data-name="flask" transform="translate(158.876)">
        <path id="Trazado_721426-5" data-name="Trazado 721426" d="M179.748,65.689H137.467l9.6-15.694a1.837,1.837,0,0,0,.27-.959V16.349h22.54V49.036a1.838,1.838,0,0,0,.27.959Z" transform="translate(-124.754 -13.433)" fill="#d3e1f4"/>
        <path id="Trazado_721427-5" data-name="Trazado 721427" d="M225.219,65.688h-8.687l-9.87-16.136V29.895a4.843,4.843,0,0,0-4.843-4.843h-9.01v-8.7h22.54V49.034a1.836,1.836,0,0,0,.27.959Z" transform="translate(-170.226 -13.432)" fill="#b3cbea"/>
        <path id="Trazado_721428-5" data-name="Trazado 721428" d="M120.056,282.692H80.021L68.307,301.841A14.291,14.291,0,0,0,80.5,323.589h39.081a14.291,14.291,0,0,0,12.191-21.748Z" transform="translate(-66.185 -232.274)" fill="#31a7fb"/>
        <path id="Trazado_721429-5" data-name="Trazado 721429" d="M326.017,282.692H317.33l11.714,19.149a14.29,14.29,0,0,1-12.191,21.749h8.687a14.29,14.29,0,0,0,12.191-21.749Z" transform="translate(-272.146 -232.274)" fill="#1c96f9"/>
        <path id="Trazado_721430-5" data-name="Trazado 721430" d="M197.543,5.927H172.7A2.963,2.963,0,1,1,172.7,0h24.844a2.963,2.963,0,0,1,0,5.927Z" transform="translate(-151.268)" fill="#eaf6ff"/>
        <path id="Trazado_721431-5" data-name="Trazado 721431" d="M299.673,2.964a2.961,2.961,0,0,1-2.964,2.963h-6.282a2.964,2.964,0,1,0,0-5.927h6.282a2.963,2.963,0,0,1,2.964,2.964Z" transform="translate(-250.434 0)" fill="#d3e1f4"/>
        <g id="Grupo_948285-5" data-name="Grupo 948285" transform="translate(27.876 29.33)">
          <g id="Grupo_948276-5" data-name="Grupo 948276" transform="translate(0)">
            <path id="Trazado_721432-5" data-name="Trazado 721432" d="M231.879,167.209H223.86a1.378,1.378,0,1,1,0-2.756h8.019a1.378,1.378,0,0,1,0,2.756Z" transform="translate(-222.482 -164.453)" fill="#84aee1"/>
          </g>
          <g id="Grupo_948277-5" data-name="Grupo 948277" transform="translate(0 6.141)">
            <path id="Trazado_721433-5" data-name="Trazado 721433" d="M228.823,201.643H223.86a1.378,1.378,0,1,1,0-2.756h4.963a1.378,1.378,0,0,1,0,2.756Z" transform="translate(-222.482 -198.887)" fill="#84aee1"/>
          </g>
          <g id="Grupo_948278-5" data-name="Grupo 948278" transform="translate(0 12.283)">
            <path id="Trazado_721434-5" data-name="Trazado 721434" d="M228.823,236.077H223.86a1.378,1.378,0,1,1,0-2.756h4.963a1.378,1.378,0,0,1,0,2.756Z" transform="translate(-222.482 -233.321)" fill="#84aee1"/>
          </g>
          <g id="Grupo_948279-5" data-name="Grupo 948279" transform="translate(0 18.424)">
            <path id="Trazado_721435-5" data-name="Trazado 721435" d="M228.823,270.511H223.86a1.378,1.378,0,1,1,0-2.756h4.963a1.378,1.378,0,0,1,0,2.756Z" transform="translate(-222.482 -267.755)" fill="#84aee1"/>
          </g>
          <g id="Grupo_948280-5" data-name="Grupo 948280" transform="translate(0 24.565)">
            <path id="Trazado_721436-5" data-name="Trazado 721436" d="M231.879,304.945H223.86a1.378,1.378,0,1,1,0-2.756h8.019a1.378,1.378,0,0,1,0,2.756Z" transform="translate(-222.482 -302.189)" fill="#1c96f9"/>
          </g>
          <g id="Grupo_948281-5" data-name="Grupo 948281" transform="translate(0 49.131)">
            <path id="Trazado_721437-5" data-name="Trazado 721437" d="M231.879,442.682H223.86a1.378,1.378,0,1,1,0-2.756h8.019a1.378,1.378,0,0,1,0,2.756Z" transform="translate(-222.482 -439.926)" fill="#1c96f9"/>
          </g>
          <g id="Grupo_948282-5" data-name="Grupo 948282" transform="translate(0 30.706)">
            <path id="Trazado_721438-5" data-name="Trazado 721438" d="M228.823,339.379H223.86a1.378,1.378,0,1,1,0-2.756h4.963a1.378,1.378,0,1,1,0,2.756Z" transform="translate(-222.482 -336.623)" fill="#1c96f9"/>
          </g>
          <g id="Grupo_948283-5" data-name="Grupo 948283" transform="translate(0 36.848)">
            <path id="Trazado_721439-5" data-name="Trazado 721439" d="M228.823,373.814H223.86a1.378,1.378,0,1,1,0-2.756h4.963a1.378,1.378,0,0,1,0,2.756Z" transform="translate(-222.482 -371.058)" fill="#1c96f9"/>
          </g>
          <g id="Grupo_948284-5" data-name="Grupo 948284" transform="translate(0 42.989)">
            <path id="Trazado_721440-5" data-name="Trazado 721440" d="M228.823,408.248H223.86a1.378,1.378,0,1,1,0-2.756h4.963a1.378,1.378,0,0,1,0,2.756Z" transform="translate(-222.482 -405.492)" fill="#1c96f9"/>
          </g>
        </g>
      </g>
      <g id="flask-6" data-name="flask" transform="translate(397.189)">
        <path id="Trazado_721426-6" data-name="Trazado 721426" d="M179.748,65.689H137.467l9.6-15.694a1.837,1.837,0,0,0,.27-.959V16.349h22.54V49.036a1.838,1.838,0,0,0,.27.959Z" transform="translate(-124.754 -13.433)" fill="#d3e1f4"/>
        <path id="Trazado_721427-6" data-name="Trazado 721427" d="M225.219,65.688h-8.687l-9.87-16.136V29.895a4.843,4.843,0,0,0-4.843-4.843h-9.01v-8.7h22.54V49.034a1.836,1.836,0,0,0,.27.959Z" transform="translate(-170.226 -13.432)" fill="#b3cbea"/>
        <path id="Trazado_721428-6" data-name="Trazado 721428" d="M120.056,282.692H80.021L68.307,301.841A14.291,14.291,0,0,0,80.5,323.589h39.081a14.291,14.291,0,0,0,12.191-21.748Z" transform="translate(-66.185 -232.274)" fill="#31a7fb"/>
        <path id="Trazado_721429-6" data-name="Trazado 721429" d="M326.017,282.692H317.33l11.714,19.149a14.29,14.29,0,0,1-12.191,21.749h8.687a14.29,14.29,0,0,0,12.191-21.749Z" transform="translate(-272.146 -232.274)" fill="#1c96f9"/>
        <path id="Trazado_721430-6" data-name="Trazado 721430" d="M197.543,5.927H172.7A2.963,2.963,0,1,1,172.7,0h24.844a2.963,2.963,0,0,1,0,5.927Z" transform="translate(-151.268)" fill="#eaf6ff"/>
        <path id="Trazado_721431-6" data-name="Trazado 721431" d="M299.673,2.964a2.961,2.961,0,0,1-2.964,2.963h-6.282a2.964,2.964,0,1,0,0-5.927h6.282a2.963,2.963,0,0,1,2.964,2.964Z" transform="translate(-250.434 0)" fill="#d3e1f4"/>
        <g id="Grupo_948285-6" data-name="Grupo 948285" transform="translate(27.876 29.33)">
          <g id="Grupo_948276-6" data-name="Grupo 948276" transform="translate(0)">
            <path id="Trazado_721432-6" data-name="Trazado 721432" d="M231.879,167.209H223.86a1.378,1.378,0,1,1,0-2.756h8.019a1.378,1.378,0,0,1,0,2.756Z" transform="translate(-222.482 -164.453)" fill="#84aee1"/>
          </g>
          <g id="Grupo_948277-6" data-name="Grupo 948277" transform="translate(0 6.141)">
            <path id="Trazado_721433-6" data-name="Trazado 721433" d="M228.823,201.643H223.86a1.378,1.378,0,1,1,0-2.756h4.963a1.378,1.378,0,0,1,0,2.756Z" transform="translate(-222.482 -198.887)" fill="#84aee1"/>
          </g>
          <g id="Grupo_948278-6" data-name="Grupo 948278" transform="translate(0 12.283)">
            <path id="Trazado_721434-6" data-name="Trazado 721434" d="M228.823,236.077H223.86a1.378,1.378,0,1,1,0-2.756h4.963a1.378,1.378,0,0,1,0,2.756Z" transform="translate(-222.482 -233.321)" fill="#84aee1"/>
          </g>
          <g id="Grupo_948279-6" data-name="Grupo 948279" transform="translate(0 18.424)">
            <path id="Trazado_721435-6" data-name="Trazado 721435" d="M228.823,270.511H223.86a1.378,1.378,0,1,1,0-2.756h4.963a1.378,1.378,0,0,1,0,2.756Z" transform="translate(-222.482 -267.755)" fill="#84aee1"/>
          </g>
          <g id="Grupo_948280-6" data-name="Grupo 948280" transform="translate(0 24.565)">
            <path id="Trazado_721436-6" data-name="Trazado 721436" d="M231.879,304.945H223.86a1.378,1.378,0,1,1,0-2.756h8.019a1.378,1.378,0,0,1,0,2.756Z" transform="translate(-222.482 -302.189)" fill="#1c96f9"/>
          </g>
          <g id="Grupo_948281-6" data-name="Grupo 948281" transform="translate(0 49.131)">
            <path id="Trazado_721437-6" data-name="Trazado 721437" d="M231.879,442.682H223.86a1.378,1.378,0,1,1,0-2.756h8.019a1.378,1.378,0,0,1,0,2.756Z" transform="translate(-222.482 -439.926)" fill="#1c96f9"/>
          </g>
          <g id="Grupo_948282-6" data-name="Grupo 948282" transform="translate(0 30.706)">
            <path id="Trazado_721438-6" data-name="Trazado 721438" d="M228.823,339.379H223.86a1.378,1.378,0,1,1,0-2.756h4.963a1.378,1.378,0,1,1,0,2.756Z" transform="translate(-222.482 -336.623)" fill="#1c96f9"/>
          </g>
          <g id="Grupo_948283-6" data-name="Grupo 948283" transform="translate(0 36.848)">
            <path id="Trazado_721439-6" data-name="Trazado 721439" d="M228.823,373.814H223.86a1.378,1.378,0,1,1,0-2.756h4.963a1.378,1.378,0,0,1,0,2.756Z" transform="translate(-222.482 -371.058)" fill="#1c96f9"/>
          </g>
          <g id="Grupo_948284-6" data-name="Grupo 948284" transform="translate(0 42.989)">
            <path id="Trazado_721440-6" data-name="Trazado 721440" d="M228.823,408.248H223.86a1.378,1.378,0,1,1,0-2.756h4.963a1.378,1.378,0,0,1,0,2.756Z" transform="translate(-222.482 -405.492)" fill="#1c96f9"/>
          </g>
        </g>
      </g>
    </g>
    <path id="Trazado_721465" data-name="Trazado 721465" d="M17158,249.055V429.58h477.9" transform="translate(-16713.814 14517.241)" fill="none" stroke="#000" stroke-width="3"/>
    <path id="Trazado_721466" data-name="Trazado 721466" d="M17158,428.867l477.9-181.849" transform="translate(-16713.814 14517.953)" fill="none" stroke="#000" stroke-width="2"/>
    <path id="Trazado_721468" data-name="Trazado 721468" d="M17226.348,249.055V412.8" transform="translate(-16737.725 14517.241)" fill="none" stroke="#000" stroke-width="2"/>
    <path id="Trazado_721469" data-name="Trazado 721469" d="M17226.348,249.055V382.1" transform="translate(-16656.449 14517.241)" fill="none" stroke="#000" stroke-width="2"/>
    <path id="Trazado_721470" data-name="Trazado 721470" d="M17226.348,249.055V351.489" transform="translate(-16577.35 14517.241)" fill="none" stroke="#000" stroke-width="2"/>
    <path id="Trazado_721471" data-name="Trazado 721471" d="M17226.348,249.055v71.279" transform="translate(-16496.074 14517.241)" fill="none" stroke="#000" stroke-width="2"/>
    <path id="Trazado_721472" data-name="Trazado 721472" d="M17226.348,249.055v40.8" transform="translate(-16416.975 14517.241)" fill="none" stroke="#000" stroke-width="2"/>
    <path id="Trazado_721473" data-name="Trazado 721473" d="M17226.348,249.055v12.251" transform="translate(-16337.875 14517.241)" fill="none" stroke="#000" stroke-width="2"/>
    <circle id="Elipse_7664" data-name="Elipse 7664" cx="6.177" cy="6.177" r="6.177" transform="translate(482.546 14923.61)" fill="#0540b7"/>
    <circle id="Elipse_7665" data-name="Elipse 7665" cx="6.177" cy="6.177" r="6.177" transform="translate(563.822 14893.05)" fill="#0540b7"/>
    <circle id="Elipse_7666" data-name="Elipse 7666" cx="6.177" cy="6.177" r="6.177" transform="translate(643.147 14862.491)" fill="#0540b7"/>
    <circle id="Elipse_7667" data-name="Elipse 7667" cx="6.177" cy="6.177" r="6.177" transform="translate(724.422 14831.281)" fill="#0540b7"/>
    <circle id="Elipse_7668" data-name="Elipse 7668" cx="6.177" cy="6.177" r="6.177" transform="translate(803.097 14800.72)" fill="#0540b7"/>
    <circle id="Elipse_7669" data-name="Elipse 7669" cx="6.177" cy="6.177" r="6.177" transform="translate(882.422 14772.112)" fill="#0540b7"/>
    <rect id="Rectángulo_338051" data-name="Rectángulo 338051" width="55.292" height="22.987" transform="translate(866.496 14612.161)" fill="#f1cc4b"/>
    <rect id="Rectángulo_338052" data-name="Rectángulo 338052" width="123.864" height="22.757" transform="translate(798.546 14844.517)" fill="#f1cc4b"/>
    <rect id="Rectángulo_338065" data-name="Rectángulo 338065" width="96.529" height="31.417" transform="translate(517.346 15006.382)" fill="#0540b7"/>
    <path id="Trazado_721956" data-name="Trazado 721956" d="M2.472,10.2v2.49H1.016V5.625H3.772a3.19,3.19,0,0,1,1.4.291,2.146,2.146,0,0,1,.929.828,2.307,2.307,0,0,1,.325,1.221A2.029,2.029,0,0,1,5.716,9.6a2.962,2.962,0,0,1-1.968.6Zm0-1.179h1.3a1.279,1.279,0,0,0,.881-.272.989.989,0,0,0,.3-.777,1.166,1.166,0,0,0-.306-.84,1.142,1.142,0,0,0-.845-.33H2.472Zm7.853,3.669a1.558,1.558,0,0,1-.141-.471,1.7,1.7,0,0,1-1.325.568,1.865,1.865,0,0,1-1.279-.447,1.436,1.436,0,0,1-.507-1.126,1.484,1.484,0,0,1,.619-1.281A3.054,3.054,0,0,1,9.48,9.484h.646v-.3A.865.865,0,0,0,9.939,8.6a.735.735,0,0,0-.59-.218.836.836,0,0,0-.556.17.577.577,0,0,0-.2.466h-1.4a1.409,1.409,0,0,1,.282-.845,1.861,1.861,0,0,1,.8-.609,2.9,2.9,0,0,1,1.155-.221,2.292,2.292,0,0,1,1.541.488,1.706,1.706,0,0,1,.57,1.371v2.276a2.511,2.511,0,0,0,.209,1.131v.083Zm-1.16-.976a1.208,1.208,0,0,0,.573-.138.909.909,0,0,0,.388-.371v-.9H9.6q-1.053,0-1.121.728l0,.083a.562.562,0,0,0,.184.432A.716.716,0,0,0,9.165,11.716ZM14.29,6.149V7.44h.9V8.469h-.9V11.09a.626.626,0,0,0,.112.417.561.561,0,0,0,.427.126,2.237,2.237,0,0,0,.413-.034v1.063a2.888,2.888,0,0,1-.849.126,1.339,1.339,0,0,1-1.5-1.49V8.469h-.767V7.44h.767V6.149Zm4.63,2.606a3.811,3.811,0,0,0-.5-.039,1.027,1.027,0,0,0-1.044.539v3.436h-1.4V7.44h1.325l.039.626a1.3,1.3,0,0,1,1.17-.723,1.47,1.47,0,0,1,.437.063Zm.282,1.262a3.115,3.115,0,0,1,.3-1.393,2.2,2.2,0,0,1,.866-.946,2.528,2.528,0,0,1,1.313-.335,2.391,2.391,0,0,1,1.735.65,2.61,2.61,0,0,1,.75,1.767l.01.359a2.745,2.745,0,0,1-.675,1.939,2.615,2.615,0,0,1-3.623,0,2.793,2.793,0,0,1-.677-1.98Zm1.4.1a1.958,1.958,0,0,0,.282,1.143,1.012,1.012,0,0,0,1.6,0,2.142,2.142,0,0,0,.286-1.25,1.938,1.938,0,0,0-.286-1.136.931.931,0,0,0-.806-.4.916.916,0,0,0-.8.4A2.178,2.178,0,0,0,20.6,10.119ZM26.332,7.44l.044.607a1.834,1.834,0,0,1,1.509-.7,1.524,1.524,0,0,1,1.243.49A2.287,2.287,0,0,1,29.545,9.3v3.393h-1.4V9.333a.91.91,0,0,0-.194-.648.869.869,0,0,0-.646-.2.965.965,0,0,0-.888.5v3.7h-1.4V7.44Zm6.693,5.349a2.578,2.578,0,0,1-1.881-.709,2.519,2.519,0,0,1-.726-1.888v-.136a3.172,3.172,0,0,1,.306-1.415,2.244,2.244,0,0,1,.866-.961,2.432,2.432,0,0,1,1.279-.337,2.18,2.18,0,0,1,1.7.68,2.761,2.761,0,0,1,.619,1.927v.573H31.841a1.3,1.3,0,0,0,.41.825,1.24,1.24,0,0,0,.866.311,1.514,1.514,0,0,0,1.267-.587l.689.772a2.106,2.106,0,0,1-.854.7A2.8,2.8,0,0,1,33.025,12.789Zm-.16-4.31a.878.878,0,0,0-.677.282,1.454,1.454,0,0,0-.332.806h1.951V9.455a1.037,1.037,0,0,0-.252-.721A.907.907,0,0,0,32.865,8.479Zm5.96,2.762a.452.452,0,0,0-.255-.405,2.9,2.9,0,0,0-.818-.265q-1.873-.393-1.873-1.592a1.443,1.443,0,0,1,.58-1.167,2.34,2.34,0,0,1,1.517-.468,2.518,2.518,0,0,1,1.6.471,1.484,1.484,0,0,1,.6,1.223h-1.4a.679.679,0,0,0-.194-.5.822.822,0,0,0-.607-.2.84.84,0,0,0-.548.16.506.506,0,0,0-.194.408.432.432,0,0,0,.221.376,2.272,2.272,0,0,0,.745.248,6.085,6.085,0,0,1,.883.235,1.451,1.451,0,0,1,1.111,1.412,1.37,1.37,0,0,1-.616,1.162,2.659,2.659,0,0,1-1.592.444,2.777,2.777,0,0,1-1.172-.235,1.967,1.967,0,0,1-.8-.646,1.5,1.5,0,0,1-.291-.886h1.33a.732.732,0,0,0,.277.573,1.1,1.1,0,0,0,.689.2,1.016,1.016,0,0,0,.609-.153A.476.476,0,0,0,38.825,11.241Z" transform="translate(872.284 14614.582)" fill="#12263f"/>
    <path id="Trazado_721955" data-name="Trazado 721955" d="M4.5,10.134A.747.747,0,0,0,4.208,9.5,3.82,3.82,0,0,0,3.16,9.034a7.432,7.432,0,0,1-1.2-.483A1.959,1.959,0,0,1,.757,6.8,1.707,1.707,0,0,1,1.08,5.777a2.105,2.105,0,0,1,.927-.7,3.489,3.489,0,0,1,1.357-.252A3.176,3.176,0,0,1,4.713,5.1a2.148,2.148,0,0,1,.92.774,2.026,2.026,0,0,1,.328,1.136H4.5A.953.953,0,0,0,4.2,6.253a1.257,1.257,0,0,0-.859-.269,1.343,1.343,0,0,0-.83.226.712.712,0,0,0-.3.595.682.682,0,0,0,.347.578,3.921,3.921,0,0,0,1.022.437,4.414,4.414,0,0,1,1.81.927,1.846,1.846,0,0,1,.568,1.378,1.7,1.7,0,0,1-.694,1.439,3.038,3.038,0,0,1-1.869.522,3.608,3.608,0,0,1-1.485-.3,2.35,2.35,0,0,1-1.022-.818,2.094,2.094,0,0,1-.352-1.2H2q0,1.17,1.4,1.17a1.36,1.36,0,0,0,.811-.211A.687.687,0,0,0,4.5,10.134Zm4.771,1.951a2.578,2.578,0,0,1-1.881-.709,2.519,2.519,0,0,1-.726-1.888V9.352A3.172,3.172,0,0,1,6.97,7.937a2.244,2.244,0,0,1,.866-.961,2.432,2.432,0,0,1,1.279-.337,2.18,2.18,0,0,1,1.7.68,2.761,2.761,0,0,1,.619,1.927v.573H8.086a1.3,1.3,0,0,0,.41.825,1.24,1.24,0,0,0,.866.311,1.514,1.514,0,0,0,1.267-.587l.689.772a2.106,2.106,0,0,1-.854.7A2.8,2.8,0,0,1,9.271,12.085Zm-.16-4.31a.878.878,0,0,0-.677.282,1.454,1.454,0,0,0-.332.806h1.951V8.75A1.037,1.037,0,0,0,9.8,8.03.907.907,0,0,0,9.111,7.775Zm4.407-1.039.044.607a1.834,1.834,0,0,1,1.509-.7,1.524,1.524,0,0,1,1.243.49,2.287,2.287,0,0,1,.417,1.466v3.393h-1.4V8.629a.91.91,0,0,0-.194-.648.869.869,0,0,0-.646-.2.965.965,0,0,0-.888.5v3.7H12.2V6.736ZM16.3,4.6a1.358,1.358,0,0,1-.32.92,1,1,0,0,1-.781.371,1.185,1.185,0,0,1-.328-.041,2.2,2.2,0,0,1-.4-.177,2.134,2.134,0,0,0-.364-.167.89.89,0,0,0-.243-.032.389.389,0,0,0-.289.121.472.472,0,0,0-.119.345l-.815-.049a1.379,1.379,0,0,1,.318-.917.981.981,0,0,1,.779-.379,1,1,0,0,1,.274.036,3.02,3.02,0,0,1,.42.177,2.729,2.729,0,0,0,.4.17A.919.919,0,0,0,15.076,5a.409.409,0,0,0,.294-.119.452.452,0,0,0,.124-.342Zm4.533,7.392a1.558,1.558,0,0,1-.141-.471,1.7,1.7,0,0,1-1.325.568,1.865,1.865,0,0,1-1.279-.447,1.436,1.436,0,0,1-.507-1.126A1.484,1.484,0,0,1,18.2,9.231a3.054,3.054,0,0,1,1.789-.451h.646v-.3a.865.865,0,0,0-.187-.582.735.735,0,0,0-.59-.218.836.836,0,0,0-.556.17.577.577,0,0,0-.2.466H17.7a1.409,1.409,0,0,1,.282-.845,1.861,1.861,0,0,1,.8-.609,2.9,2.9,0,0,1,1.155-.221,2.292,2.292,0,0,1,1.541.488,1.706,1.706,0,0,1,.57,1.371v2.276a2.511,2.511,0,0,0,.209,1.131v.083Zm-1.16-.976a1.208,1.208,0,0,0,.573-.138.909.909,0,0,0,.388-.371V9.6h-.524q-1.053,0-1.121.728l0,.083a.562.562,0,0,0,.184.432A.716.716,0,0,0,19.677,11.012Zm4.926.976H23.2V4.532H24.6Zm8.091-3.621H28.355V7.221h4.339Zm0,2.1H28.355V9.323h4.339Zm6.747,1.519a1.558,1.558,0,0,1-.141-.471,1.7,1.7,0,0,1-1.325.568,1.865,1.865,0,0,1-1.279-.447,1.436,1.436,0,0,1-.507-1.126,1.484,1.484,0,0,1,.619-1.281A3.054,3.054,0,0,1,38.6,8.779h.646v-.3a.865.865,0,0,0-.187-.582.735.735,0,0,0-.59-.218.836.836,0,0,0-.556.17.577.577,0,0,0-.2.466h-1.4a1.409,1.409,0,0,1,.282-.845,1.861,1.861,0,0,1,.8-.609,2.9,2.9,0,0,1,1.155-.221,2.292,2.292,0,0,1,1.541.488,1.706,1.706,0,0,1,.57,1.371v2.276a2.511,2.511,0,0,0,.209,1.131v.083Zm-1.16-.976a1.208,1.208,0,0,0,.573-.138.909.909,0,0,0,.388-.371V9.6h-.524q-1.053,0-1.121.728l0,.083a.562.562,0,0,0,.184.432A.716.716,0,0,0,38.281,11.012Zm8.751-2.98h1.752V9.3H47.032v1.98H45.7V9.3H43.94V8.032H45.7v-1.9h1.335Zm9.8,1.378a3.18,3.18,0,0,1-.539,1.968,1.785,1.785,0,0,1-1.5.706,1.64,1.64,0,0,1-1.364-.655l-.063.558H52.1V4.532h1.4V7.207a1.6,1.6,0,0,1,1.277-.568,1.8,1.8,0,0,1,1.507.706,3.185,3.185,0,0,1,.546,1.988Zm-1.4-.1a2.089,2.089,0,0,0-.252-1.162.853.853,0,0,0-.752-.366.925.925,0,0,0-.922.548V10.4a.938.938,0,0,0,.932.553.866.866,0,0,0,.893-.67A3.455,3.455,0,0,0,55.434,9.308Zm6.882-4.46h-.689v7.7h.689v1.082h-2.1V3.766h2.1Zm6.14,7.14a1.558,1.558,0,0,1-.141-.471,1.7,1.7,0,0,1-1.325.568,1.865,1.865,0,0,1-1.279-.447,1.436,1.436,0,0,1-.507-1.126,1.484,1.484,0,0,1,.619-1.281,3.054,3.054,0,0,1,1.789-.451h.646v-.3A.865.865,0,0,0,68.07,7.9a.735.735,0,0,0-.59-.218.836.836,0,0,0-.556.17.577.577,0,0,0-.2.466h-1.4a1.409,1.409,0,0,1,.282-.845,1.861,1.861,0,0,1,.8-.609,2.9,2.9,0,0,1,1.155-.221,2.292,2.292,0,0,1,1.541.488,1.706,1.706,0,0,1,.57,1.371v2.276a2.511,2.511,0,0,0,.209,1.131v.083Zm-1.16-.976a1.208,1.208,0,0,0,.573-.138.909.909,0,0,0,.388-.371V9.6h-.524q-1.053,0-1.121.728l0,.083a.562.562,0,0,0,.184.432A.716.716,0,0,0,67.3,11.012Zm4.737-4.276.044.607a1.834,1.834,0,0,1,1.509-.7,1.524,1.524,0,0,1,1.243.49,2.287,2.287,0,0,1,.417,1.466v3.393h-1.4V8.629a.91.91,0,0,0-.194-.648A.869.869,0,0,0,73,7.78a.965.965,0,0,0-.888.5v3.7h-1.4V6.736Zm7.319,5.252a1.558,1.558,0,0,1-.141-.471,1.7,1.7,0,0,1-1.325.568,1.865,1.865,0,0,1-1.279-.447,1.436,1.436,0,0,1-.507-1.126,1.484,1.484,0,0,1,.619-1.281,3.054,3.054,0,0,1,1.789-.451h.646v-.3a.865.865,0,0,0-.187-.582.735.735,0,0,0-.59-.218.836.836,0,0,0-.556.17.577.577,0,0,0-.2.466h-1.4a1.409,1.409,0,0,1,.282-.845,1.861,1.861,0,0,1,.8-.609,2.9,2.9,0,0,1,1.155-.221,2.292,2.292,0,0,1,1.541.488,1.706,1.706,0,0,1,.57,1.371v2.276a2.511,2.511,0,0,0,.209,1.131v.083Zm-1.16-.976a1.208,1.208,0,0,0,.573-.138.909.909,0,0,0,.388-.371V9.6h-.524q-1.053,0-1.121.728l0,.083a.562.562,0,0,0,.184.432A.716.716,0,0,0,78.192,11.012Zm4.926.976H81.711V4.532h1.408Zm2.636,0H84.347V6.736h1.408Zm-1.49-6.611a.691.691,0,0,1,.211-.519.91.91,0,0,1,1.148,0,.741.741,0,0,1,0,1.044.9.9,0,0,1-1.141,0A.689.689,0,0,1,84.264,5.377Zm4.325.068V6.736h.9V7.765h-.9v2.621a.626.626,0,0,0,.112.417.561.561,0,0,0,.427.126,2.237,2.237,0,0,0,.413-.034v1.063a2.888,2.888,0,0,1-.849.126,1.339,1.339,0,0,1-1.5-1.49V7.765h-.767V6.736h.767V5.445ZM89.9,9.313a3.114,3.114,0,0,1,.3-1.393,2.2,2.2,0,0,1,.866-.946,2.528,2.528,0,0,1,1.313-.335,2.391,2.391,0,0,1,1.735.65,2.61,2.61,0,0,1,.75,1.767l.01.359a2.745,2.745,0,0,1-.675,1.939,2.615,2.615,0,0,1-3.623,0,2.793,2.793,0,0,1-.677-1.98Zm1.4.1a1.958,1.958,0,0,0,.282,1.143,1.012,1.012,0,0,0,1.6,0,2.142,2.142,0,0,0,.286-1.25,1.938,1.938,0,0,0-.286-1.136.931.931,0,0,0-.806-.4.916.916,0,0,0-.8.4A2.178,2.178,0,0,0,91.307,9.415Zm6.436-5.65h2.1v9.867h-2.1V12.551h.694v-7.7h-.694Z" transform="translate(804.519 14847.643)" fill="#12263f"/>
    <path id="Trazado_721954" data-name="Trazado 721954" d="M4.586,6.8H3.726V18.185h.859v1.784H1.266V5.008h3.32Zm8.933,10.629a2.77,2.77,0,0,1-.233-.706,2.281,2.281,0,0,1-1.893.852A2.8,2.8,0,0,1,9.5,16.9a2.144,2.144,0,0,1-.779-1.693,2.2,2.2,0,0,1,.946-1.937,4.822,4.822,0,0,1,2.752-.655h.757V12.2q0-1.085-.939-1.085a.766.766,0,0,0-.874.859H8.91a2.2,2.2,0,0,1,.972-1.857,4.081,4.081,0,0,1,2.479-.713,3.581,3.581,0,0,1,2.381.735,2.557,2.557,0,0,1,.9,2.017v3.487a3.571,3.571,0,0,0,.335,1.66v.124Zm-1.536-1.6a1.369,1.369,0,0,0,.761-.2,1.232,1.232,0,0,0,.433-.444v-1.26h-.713q-1.281,0-1.281,1.15a.7.7,0,0,0,.226.542A.817.817,0,0,0,11.982,15.827Zm7.266-6.276.08.925a2.671,2.671,0,0,1,2.25-1.07,2.247,2.247,0,0,1,1.838.735,3.5,3.5,0,0,1,.63,2.213v5.074H21.585V12.456a1.329,1.329,0,0,0-.24-.877,1.111,1.111,0,0,0-.874-.28,1.17,1.17,0,0,0-1.07.568v5.562H16.948V9.551Zm10.593,7.877a2.77,2.77,0,0,1-.233-.706,2.281,2.281,0,0,1-1.893.852,2.8,2.8,0,0,1-1.893-.673,2.144,2.144,0,0,1-.779-1.693,2.2,2.2,0,0,1,.946-1.937,4.822,4.822,0,0,1,2.752-.655H29.5V12.2q0-1.085-.939-1.085a.766.766,0,0,0-.874.859H25.233a2.2,2.2,0,0,1,.972-1.857,4.081,4.081,0,0,1,2.479-.713,3.581,3.581,0,0,1,2.381.735,2.557,2.557,0,0,1,.9,2.017v3.487a3.571,3.571,0,0,0,.335,1.66v.124Zm-1.536-1.6a1.369,1.369,0,0,0,.761-.2,1.232,1.232,0,0,0,.433-.444v-1.26h-.713q-1.281,0-1.281,1.15a.7.7,0,0,0,.226.542A.817.817,0,0,0,28.305,15.827Zm7.6,1.6H33.445V6.245h2.461Zm4.1,0H37.544V9.551H40ZM37.4,7.52a1.1,1.1,0,0,1,.379-.859,1.61,1.61,0,0,1,1.966,0,1.164,1.164,0,0,1,0,1.718,1.61,1.61,0,0,1-1.966,0A1.1,1.1,0,0,1,37.4,7.52Zm6.975.073V9.551h1.3v1.7h-1.3v3.6a.92.92,0,0,0,.16.619.859.859,0,0,0,.633.175,3.6,3.6,0,0,0,.612-.044v1.755a4.528,4.528,0,0,1-1.383.211,2.57,2.57,0,0,1-1.871-.6,2.447,2.447,0,0,1-.6-1.813v-3.91h-1v-1.7h1V7.592Zm1.733,5.824a4.649,4.649,0,0,1,.459-2.1A3.28,3.28,0,0,1,47.882,9.9a3.969,3.969,0,0,1,2.017-.5,3.622,3.622,0,0,1,2.788,1.1,4.2,4.2,0,0,1,1.019,2.981v.087a4.079,4.079,0,0,1-1.023,2.923,3.632,3.632,0,0,1-2.77,1.081,3.673,3.673,0,0,1-2.7-1.008,3.944,3.944,0,0,1-1.1-2.734Zm2.454.153a2.931,2.931,0,0,0,.342,1.6,1.14,1.14,0,0,0,1.012.51q1.31,0,1.34-2.017v-.248q0-2.119-1.354-2.119-1.23,0-1.332,1.827Zm9.355-8.562h3.32V19.969h-3.32V18.185h.866V6.8h-.866Z" transform="translate(853.985 14950.439)" fill="#12263f"/>
    <path id="Trazado_721952" data-name="Trazado 721952" d="M4.586,6.8H3.726V18.185h.859v1.784H1.266V5.008h3.32Zm8.933,10.629a2.77,2.77,0,0,1-.233-.706,2.281,2.281,0,0,1-1.893.852A2.8,2.8,0,0,1,9.5,16.9a2.144,2.144,0,0,1-.779-1.693,2.2,2.2,0,0,1,.946-1.937,4.822,4.822,0,0,1,2.752-.655h.757V12.2q0-1.085-.939-1.085a.766.766,0,0,0-.874.859H8.91a2.2,2.2,0,0,1,.972-1.857,4.081,4.081,0,0,1,2.479-.713,3.581,3.581,0,0,1,2.381.735,2.557,2.557,0,0,1,.9,2.017v3.487a3.571,3.571,0,0,0,.335,1.66v.124Zm-1.536-1.6a1.369,1.369,0,0,0,.761-.2,1.232,1.232,0,0,0,.433-.444v-1.26h-.713q-1.281,0-1.281,1.15a.7.7,0,0,0,.226.542A.817.817,0,0,0,11.982,15.827Zm7.266-6.276.08.925a2.671,2.671,0,0,1,2.25-1.07,2.247,2.247,0,0,1,1.838.735,3.5,3.5,0,0,1,.63,2.213v5.074H21.585V12.456a1.329,1.329,0,0,0-.24-.877,1.111,1.111,0,0,0-.874-.28,1.17,1.17,0,0,0-1.07.568v5.562H16.948V9.551Zm10.593,7.877a2.77,2.77,0,0,1-.233-.706,2.281,2.281,0,0,1-1.893.852,2.8,2.8,0,0,1-1.893-.673,2.144,2.144,0,0,1-.779-1.693,2.2,2.2,0,0,1,.946-1.937,4.822,4.822,0,0,1,2.752-.655H29.5V12.2q0-1.085-.939-1.085a.766.766,0,0,0-.874.859H25.233a2.2,2.2,0,0,1,.972-1.857,4.081,4.081,0,0,1,2.479-.713,3.581,3.581,0,0,1,2.381.735,2.557,2.557,0,0,1,.9,2.017v3.487a3.571,3.571,0,0,0,.335,1.66v.124Zm-1.536-1.6a1.369,1.369,0,0,0,.761-.2,1.232,1.232,0,0,0,.433-.444v-1.26h-.713q-1.281,0-1.281,1.15a.7.7,0,0,0,.226.542A.817.817,0,0,0,28.305,15.827Zm7.6,1.6H33.445V6.245h2.461Zm4.1,0H37.544V9.551H40ZM37.4,7.52a1.1,1.1,0,0,1,.379-.859,1.61,1.61,0,0,1,1.966,0,1.164,1.164,0,0,1,0,1.718,1.61,1.61,0,0,1-1.966,0A1.1,1.1,0,0,1,37.4,7.52Zm6.975.073V9.551h1.3v1.7h-1.3v3.6a.92.92,0,0,0,.16.619.859.859,0,0,0,.633.175,3.6,3.6,0,0,0,.612-.044v1.755a4.528,4.528,0,0,1-1.383.211,2.57,2.57,0,0,1-1.871-.6,2.447,2.447,0,0,1-.6-1.813v-3.91h-1v-1.7h1V7.592Zm1.733,5.824a4.649,4.649,0,0,1,.459-2.1A3.28,3.28,0,0,1,47.882,9.9a3.969,3.969,0,0,1,2.017-.5,3.622,3.622,0,0,1,2.788,1.1,4.2,4.2,0,0,1,1.019,2.981v.087a4.079,4.079,0,0,1-1.023,2.923,3.632,3.632,0,0,1-2.77,1.081,3.673,3.673,0,0,1-2.7-1.008,3.944,3.944,0,0,1-1.1-2.734Zm2.454.153a2.931,2.931,0,0,0,.342,1.6,1.14,1.14,0,0,0,1.012.51q1.31,0,1.34-2.017v-.248q0-2.119-1.354-2.119-1.23,0-1.332,1.827Zm9.355-8.562h3.32V19.969h-3.32V18.185h.866V6.8h-.866Z" transform="translate(531.156 15010.679)" fill="#fff"/>
    <path id="Trazado_721953" data-name="Trazado 721953" d="M4.456,6.607H3.065V18.78H4.456v1.107H1.711V5.5H4.456Zm9.719,11.008a2.829,2.829,0,0,1-.189-.83,3.005,3.005,0,0,1-2.242.976A2.781,2.781,0,0,1,9.832,17.1a2.132,2.132,0,0,1-.746-1.671,2.227,2.227,0,0,1,.936-1.911,4.411,4.411,0,0,1,2.632-.681h1.31V12.22a1.513,1.513,0,0,0-.422-1.125,1.7,1.7,0,0,0-1.245-.419,1.964,1.964,0,0,0-1.209.364,1.073,1.073,0,0,0-.488.881H9.246a1.859,1.859,0,0,1,.419-1.139,2.857,2.857,0,0,1,1.136-.87,3.821,3.821,0,0,1,1.576-.32,3.114,3.114,0,0,1,2.133.681,2.456,2.456,0,0,1,.8,1.875v3.626a4.433,4.433,0,0,0,.277,1.725v.116ZM11.94,16.588a2.367,2.367,0,0,0,1.2-.328,1.982,1.982,0,0,0,.823-.852V13.792H12.908q-2.475,0-2.475,1.449a1.226,1.226,0,0,0,.422.99A1.623,1.623,0,0,0,11.94,16.588ZM18.7,9.737l.044.99A2.871,2.871,0,0,1,21.1,9.592q2.5,0,2.519,2.818v5.206H22.271V12.4a1.813,1.813,0,0,0-.39-1.26,1.561,1.561,0,0,0-1.19-.408,1.944,1.944,0,0,0-1.15.349,2.373,2.373,0,0,0-.772.917v5.613H17.422V9.737Zm11.816,7.877a2.829,2.829,0,0,1-.189-.83,3.005,3.005,0,0,1-2.242.976A2.781,2.781,0,0,1,26.17,17.1a2.132,2.132,0,0,1-.746-1.671,2.227,2.227,0,0,1,.936-1.911,4.411,4.411,0,0,1,2.632-.681H30.3V12.22a1.513,1.513,0,0,0-.422-1.125,1.7,1.7,0,0,0-1.245-.419,1.964,1.964,0,0,0-1.209.364,1.073,1.073,0,0,0-.488.881H25.583A1.859,1.859,0,0,1,26,10.782a2.857,2.857,0,0,1,1.136-.87,3.821,3.821,0,0,1,1.576-.32,3.114,3.114,0,0,1,2.133.681,2.456,2.456,0,0,1,.8,1.875v3.626a4.433,4.433,0,0,0,.277,1.725v.116Zm-2.235-1.027a2.367,2.367,0,0,0,1.2-.328,1.982,1.982,0,0,0,.823-.852V13.792H29.246q-2.475,0-2.475,1.449a1.226,1.226,0,0,0,.422.99A1.623,1.623,0,0,0,28.277,16.588Zm6.946,1.027H33.876V6.432h1.347Zm3.618,0H37.494V9.737h1.347ZM37.385,7.648a.8.8,0,0,1,.2-.553.752.752,0,0,1,.593-.226.763.763,0,0,1,.6.226.8.8,0,0,1,.2.553.769.769,0,0,1-.2.546.777.777,0,0,1-.6.218.765.765,0,0,1-.593-.218A.777.777,0,0,1,37.385,7.648Zm5.438.182V9.737h1.471v1.041H42.824v4.885a1.091,1.091,0,0,0,.2.71.828.828,0,0,0,.67.237,3.261,3.261,0,0,0,.641-.087v1.092a3.9,3.9,0,0,1-1.034.146,1.677,1.677,0,0,1-1.361-.546,2.346,2.346,0,0,1-.459-1.551V10.778H40.042V9.737h1.434V7.83ZM45.364,13.6a4.653,4.653,0,0,1,.455-2.082,3.394,3.394,0,0,1,1.267-1.427,3.448,3.448,0,0,1,1.853-.5,3.322,3.322,0,0,1,2.6,1.114,4.286,4.286,0,0,1,.994,2.963v.095a4.693,4.693,0,0,1-.44,2.064,3.345,3.345,0,0,1-1.26,1.423,3.488,3.488,0,0,1-1.882.51,3.314,3.314,0,0,1-2.6-1.114,4.264,4.264,0,0,1-.994-2.949Zm1.354.16a3.37,3.37,0,0,0,.608,2.1,2.06,2.06,0,0,0,3.258-.011,3.685,3.685,0,0,0,.6-2.253,3.364,3.364,0,0,0-.615-2.1,1.956,1.956,0,0,0-1.634-.8,1.934,1.934,0,0,0-1.609.794A3.658,3.658,0,0,0,46.719,13.763ZM56.962,5.5h2.752V19.886H56.962V18.78h1.405V6.607H56.962Z" transform="translate(645.755 14950.253)" fill="#12263f"/>
    <path id="Trazado_721949" data-name="Trazado 721949" d="M5.8,8.387a1.05,1.05,0,0,0-.4-.874,4.932,4.932,0,0,0-1.394-.648,13.376,13.376,0,0,1-1.631-.648A3.088,3.088,0,0,1,.32,3.436,2.494,2.494,0,0,1,.834,1.882,3.32,3.32,0,0,1,2.286.834,5.652,5.652,0,0,1,4.4.459,4.944,4.944,0,0,1,6.447.866,3.245,3.245,0,0,1,7.856,2.028a3.032,3.032,0,0,1,.5,1.722H5.81a1.281,1.281,0,0,0-.4-1,1.547,1.547,0,0,0-1.074-.357,1.744,1.744,0,0,0-1.081.3.927.927,0,0,0-.4.768A.933.933,0,0,0,3.3,4.2a5.509,5.509,0,0,0,1.536.684,9.41,9.41,0,0,1,1.806.761,3.034,3.034,0,0,1,1.718,2.73A2.588,2.588,0,0,1,7.31,10.557a4.663,4.663,0,0,1-2.876.794A5.705,5.705,0,0,1,2.1,10.888,3.518,3.518,0,0,1,.528,9.621,3.3,3.3,0,0,1,0,7.768H2.563A1.626,1.626,0,0,0,3,9.024a2.082,2.082,0,0,0,1.431.4,1.645,1.645,0,0,0,1-.273A.9.9,0,0,0,5.8,8.387Zm7.564,2.963a4.049,4.049,0,0,1-2.934-1.081A3.733,3.733,0,0,1,9.312,7.455v-.2a4.838,4.838,0,0,1,.448-2.133,3.276,3.276,0,0,1,1.307-1.431A3.945,3.945,0,0,1,13.1,3.182a3.41,3.41,0,0,1,2.621,1.03,4.048,4.048,0,0,1,.961,2.872v.954H11.809a1.768,1.768,0,0,0,.575,1.041,1.711,1.711,0,0,0,1.15.379,2.205,2.205,0,0,0,1.82-.815l1.121,1.325a3.134,3.134,0,0,1-1.3,1.008A4.392,4.392,0,0,1,13.367,11.35ZM13.09,5.074q-1.078,0-1.281,1.427h2.475V6.312a1.215,1.215,0,0,0-.3-.914A1.188,1.188,0,0,0,13.09,5.074Zm6.836-1.747.08.925a2.671,2.671,0,0,1,2.25-1.07,2.247,2.247,0,0,1,1.838.735,3.5,3.5,0,0,1,.63,2.213V11.2H22.264V6.232a1.329,1.329,0,0,0-.24-.877,1.111,1.111,0,0,0-.874-.28,1.17,1.17,0,0,0-1.07.568V11.2H17.626V3.327ZM24,.08a2.123,2.123,0,0,1-.484,1.409,1.5,1.5,0,0,1-1.2.579,2.363,2.363,0,0,1-1.07-.306,2.232,2.232,0,0,0-.954-.306.547.547,0,0,0-.4.16.665.665,0,0,0-.164.5l-1.361-.073a2.134,2.134,0,0,1,.484-1.4,1.485,1.485,0,0,1,1.19-.59A2.48,2.48,0,0,1,21,.317a5.894,5.894,0,0,0,.746.3,1.459,1.459,0,0,0,.331.036.559.559,0,0,0,.4-.16.656.656,0,0,0,.167-.5ZM30.52,11.2a2.77,2.77,0,0,1-.233-.706,2.281,2.281,0,0,1-1.893.852,2.8,2.8,0,0,1-1.893-.673,2.144,2.144,0,0,1-.779-1.693,2.2,2.2,0,0,1,.946-1.937,4.822,4.822,0,0,1,2.752-.655h.757V5.977q0-1.085-.939-1.085a.766.766,0,0,0-.874.859H25.911A2.2,2.2,0,0,1,26.883,3.9a4.081,4.081,0,0,1,2.479-.713,3.581,3.581,0,0,1,2.381.735,2.557,2.557,0,0,1,.9,2.017V9.421a3.571,3.571,0,0,0,.335,1.66V11.2ZM28.983,9.6a1.369,1.369,0,0,0,.761-.2,1.232,1.232,0,0,0,.433-.444V7.7h-.713q-1.281,0-1.281,1.15a.7.7,0,0,0,.226.542A.817.817,0,0,0,28.983,9.6Zm7.6,1.6H34.123V.022h2.461Z" transform="translate(417.301 14805.766) rotate(-90)" fill="#12263f"/>
    <path id="Trazado_721950" data-name="Trazado 721950" d="M8.191,19.289a1.312,1.312,0,0,0-.5-1.092,6.165,6.165,0,0,0-1.743-.81,16.719,16.719,0,0,1-2.039-.81Q1.338,15.312,1.338,13.1a3.117,3.117,0,0,1,.642-1.943A4.15,4.15,0,0,1,3.8,9.848a7.065,7.065,0,0,1,2.639-.469A6.18,6.18,0,0,1,9,9.889a4.056,4.056,0,0,1,1.761,1.452,3.791,3.791,0,0,1,.628,2.152H8.2a1.6,1.6,0,0,0-.5-1.256,1.933,1.933,0,0,0-1.342-.446,2.18,2.18,0,0,0-1.351.378,1.112,1.112,0,0,0,.05,1.884,6.886,6.886,0,0,0,1.92.855,11.763,11.763,0,0,1,2.257.951,3.793,3.793,0,0,1,2.148,3.413A3.235,3.235,0,0,1,10.074,22a5.829,5.829,0,0,1-3.595.992,7.132,7.132,0,0,1-2.917-.578A4.4,4.4,0,0,1,1.6,20.832a4.126,4.126,0,0,1-.66-2.316h3.2a2.032,2.032,0,0,0,.551,1.57,2.6,2.6,0,0,0,1.788.505,2.056,2.056,0,0,0,1.251-.341A1.126,1.126,0,0,0,8.191,19.289Z" transform="translate(402.057 14839.026)" fill="#0540b7"/>
    <path id="Trazado_721951" data-name="Trazado 721951" d="M2.9,12.232l.036.874a2.909,2.909,0,0,1,2.337-1.019,2.252,2.252,0,0,1,2.25,1.267,2.984,2.984,0,0,1,1.023-.917,3.021,3.021,0,0,1,1.489-.349q2.592,0,2.636,2.745v5.278H11.326v-5.2a1.809,1.809,0,0,0-.386-1.263,1.7,1.7,0,0,0-1.3-.419,1.786,1.786,0,0,0-1.245.448,1.816,1.816,0,0,0-.575,1.2v5.227H6.47V14.947a1.5,1.5,0,0,0-1.682-1.718,1.8,1.8,0,0,0-1.813,1.128v5.752H1.629V12.232Z" transform="translate(414.842 14846.078)" fill="#0540b7"/>
    <path id="Trazado_721492" data-name="Trazado 721492" d="M17230.381,1742.51h231.059l.076,79.895" transform="translate(-16786.197 13115.888)" fill="none" stroke="#1843b0" stroke-width="3" stroke-dasharray="9"/>
    <circle id="Elipse_7671" data-name="Elipse 7671" cx="6.177" cy="6.177" r="6.177" transform="translate(667.908 14852.221)" fill="#db981b"/>
    <g id="Grupo_948329" data-name="Grupo 948329" transform="translate(180 14719.357)">
      <path id="Trazado_721946" data-name="Trazado 721946" d="M6.395,11.22l4.077,10.833L14.539,11.22h3.174V25.354H15.267V20.695l.243-6.232L11.336,25.354H9.579L5.414,14.472l.243,6.222v4.659H3.211V11.22Zm20.23,14.134H24.276V14.006L20.81,15.191V13.2l5.514-2.029h.3Z" transform="translate(11.395 73.34)" fill="#12263f"/>
      <path id="Trazado_721947" data-name="Trazado 721947" d="M11.395,11.132l4.077,10.833,4.067-10.833h3.174V25.265H20.267V20.606l.243-6.232L16.336,25.265H14.579L10.414,14.384l.243,6.222v4.659H8.211V11.132ZM34.741,25.265h-9.5V23.644l4.708-5.135a11.724,11.724,0,0,0,1.451-1.9,3.075,3.075,0,0,0,.432-1.529,2.323,2.323,0,0,0-.568-1.631,1.97,1.97,0,0,0-1.529-.621,2.271,2.271,0,0,0-1.776.7,2.749,2.749,0,0,0-.631,1.912H24.966a4.623,4.623,0,0,1,.587-2.325,4.044,4.044,0,0,1,1.679-1.607,5.345,5.345,0,0,1,2.519-.573A4.781,4.781,0,0,1,33,11.971a3.589,3.589,0,0,1,1.189,2.859,4.851,4.851,0,0,1-.6,2.218,12.613,12.613,0,0,1-1.956,2.636l-3.456,3.7h6.562Z" transform="translate(69.995 73.429)" fill="#12263f"/>
      <path id="Trazado_721948" data-name="Trazado 721948" d="M9.395,11.132l4.077,10.833,4.067-10.833h3.174V25.265H18.267V20.606l.243-6.232L14.336,25.265H12.579L8.414,14.384l.243,6.222v4.659H6.211V11.132Zm16.57,5.989H27.4a2.571,2.571,0,0,0,1.723-.563,2.009,2.009,0,0,0,.636-1.6,2.189,2.189,0,0,0-.529-1.568,2.129,2.129,0,0,0-1.616-.558,2.252,2.252,0,0,0-1.563.548,1.833,1.833,0,0,0-.612,1.432H23.082a3.57,3.57,0,0,1,.578-1.98,3.88,3.88,0,0,1,1.611-1.393,5.249,5.249,0,0,1,2.315-.5A4.861,4.861,0,0,1,30.911,12a3.73,3.73,0,0,1,1.209,2.956,3,3,0,0,1-.607,1.791,3.8,3.8,0,0,1-1.568,1.267,3.468,3.468,0,0,1,1.772,1.252,3.428,3.428,0,0,1,.607,2.039,3.8,3.8,0,0,1-1.306,3.029,5.069,5.069,0,0,1-3.432,1.126,5.031,5.031,0,0,1-3.339-1.087,3.58,3.58,0,0,1-1.3-2.893h2.359a1.973,1.973,0,0,0,.626,1.514,2.374,2.374,0,0,0,1.684.582,2.449,2.449,0,0,0,1.728-.582,2.185,2.185,0,0,0,.631-1.689,2.207,2.207,0,0,0-.66-1.718,2.822,2.822,0,0,0-1.961-.6H25.965Z" transform="translate(136.902 73.429)" fill="#12263f"/>
      <g id="flask-7" data-name="flask">
        <path id="Trazado_721426-7" data-name="Trazado 721426" d="M171.666,56.258h-34.2l7.765-12.694a1.486,1.486,0,0,0,.218-.776V16.349h18.232V42.788a1.487,1.487,0,0,0,.218.776Z" transform="translate(-127.184 -13.99)" fill="#d3e1f4"/>
        <path id="Trazado_721427-7" data-name="Trazado 721427" d="M219.024,56.257H212l-7.983-13.051v-15.9a3.917,3.917,0,0,0-3.917-3.918h-7.288v-7.04h18.232V42.786a1.485,1.485,0,0,0,.218.776Z" transform="translate(-174.542 -13.99)" fill="#b3cbea"/>
        <path id="Trazado_721428-7" data-name="Trazado 721428" d="M109.758,282.692H77.376L67.9,298.181a11.559,11.559,0,0,0,9.861,17.591h31.61a11.559,11.559,0,0,0,9.861-17.591Z" transform="translate(-66.185 -241.911)" fill="#31a7fb"/>
        <path id="Trazado_721429-7" data-name="Trazado 721429" d="M324.265,282.692h-7.026l9.475,15.488a11.559,11.559,0,0,1-9.86,17.591h7.026a11.559,11.559,0,0,0,9.861-17.591Z" transform="translate(-280.692 -241.911)" fill="#1c96f9"/>
        <path id="Trazado_721430-7" data-name="Trazado 721430" d="M192.228,4.794H172.133a2.4,2.4,0,0,1,0-4.794h20.095a2.4,2.4,0,0,1,0,4.794Z" transform="translate(-154.798)" fill="#eaf6ff"/>
        <path id="Trazado_721431-7" data-name="Trazado 721431" d="M297.906,2.4a2.395,2.395,0,0,1-2.4,2.4h-5.081a2.4,2.4,0,1,0,0-4.794h5.081a2.4,2.4,0,0,1,2.4,2.4Z" transform="translate(-258.079 0)" fill="#d3e1f4"/>
        <g id="Grupo_948285-7" data-name="Grupo 948285" transform="translate(22.547 23.724)">
          <g id="Grupo_948276-7" data-name="Grupo 948276" transform="translate(0)">
            <path id="Trazado_721432-7" data-name="Trazado 721432" d="M230.083,166.682H223.6a1.115,1.115,0,1,1,0-2.229h6.486a1.115,1.115,0,0,1,0,2.229Z" transform="translate(-222.482 -164.453)" fill="#84aee1"/>
          </g>
          <g id="Grupo_948277-7" data-name="Grupo 948277" transform="translate(0 4.967)">
            <path id="Trazado_721433-7" data-name="Trazado 721433" d="M227.611,201.116H223.6a1.115,1.115,0,1,1,0-2.229h4.014a1.115,1.115,0,0,1,0,2.229Z" transform="translate(-222.482 -198.887)" fill="#84aee1"/>
          </g>
          <g id="Grupo_948278-7" data-name="Grupo 948278" transform="translate(0 9.935)">
            <path id="Trazado_721434-7" data-name="Trazado 721434" d="M227.611,235.55H223.6a1.115,1.115,0,1,1,0-2.229h4.014a1.115,1.115,0,0,1,0,2.229Z" transform="translate(-222.482 -233.321)" fill="#84aee1"/>
          </g>
          <g id="Grupo_948279-7" data-name="Grupo 948279" transform="translate(0 14.902)">
            <path id="Trazado_721435-7" data-name="Trazado 721435" d="M227.611,269.984H223.6a1.115,1.115,0,1,1,0-2.229h4.014a1.115,1.115,0,0,1,0,2.229Z" transform="translate(-222.482 -267.755)" fill="#84aee1"/>
          </g>
          <g id="Grupo_948280-7" data-name="Grupo 948280" transform="translate(0 19.87)">
            <path id="Trazado_721436-7" data-name="Trazado 721436" d="M230.083,304.418H223.6a1.115,1.115,0,0,1,0-2.229h6.486a1.115,1.115,0,0,1,0,2.229Z" transform="translate(-222.482 -302.189)" fill="#1c96f9"/>
          </g>
          <g id="Grupo_948281-7" data-name="Grupo 948281" transform="translate(0 39.74)">
            <path id="Trazado_721437-7" data-name="Trazado 721437" d="M230.083,442.155H223.6a1.115,1.115,0,1,1,0-2.229h6.486a1.115,1.115,0,0,1,0,2.229Z" transform="translate(-222.482 -439.926)" fill="#1c96f9"/>
          </g>
          <g id="Grupo_948282-7" data-name="Grupo 948282" transform="translate(0 24.837)">
            <path id="Trazado_721438-7" data-name="Trazado 721438" d="M227.611,338.852H223.6a1.115,1.115,0,1,1,0-2.229h4.014a1.115,1.115,0,0,1,0,2.229Z" transform="translate(-222.482 -336.623)" fill="#1c96f9"/>
          </g>
          <g id="Grupo_948283-7" data-name="Grupo 948283" transform="translate(0 29.805)">
            <path id="Trazado_721439-7" data-name="Trazado 721439" d="M227.611,373.287H223.6a1.115,1.115,0,0,1,0-2.229h4.014a1.115,1.115,0,0,1,0,2.229Z" transform="translate(-222.482 -371.058)" fill="#1c96f9"/>
          </g>
          <g id="Grupo_948284-7" data-name="Grupo 948284" transform="translate(0 34.772)">
            <path id="Trazado_721440-7" data-name="Trazado 721440" d="M227.611,407.721H223.6a1.115,1.115,0,1,1,0-2.229h4.014a1.115,1.115,0,1,1,0,2.229Z" transform="translate(-222.482 -405.492)" fill="#1c96f9"/>
          </g>
        </g>
      </g>
      <g id="flask-8" data-name="flask" transform="translate(64.253)">
        <path id="Trazado_721426-8" data-name="Trazado 721426" d="M171.666,56.258h-34.2l7.765-12.694a1.486,1.486,0,0,0,.218-.776V16.349h18.232V42.788a1.487,1.487,0,0,0,.218.776Z" transform="translate(-127.184 -13.99)" fill="#d3e1f4"/>
        <path id="Trazado_721427-8" data-name="Trazado 721427" d="M219.024,56.257H212l-7.983-13.051v-15.9a3.917,3.917,0,0,0-3.917-3.918h-7.288v-7.04h18.232V42.786a1.485,1.485,0,0,0,.218.776Z" transform="translate(-174.542 -13.99)" fill="#b3cbea"/>
        <path id="Trazado_721428-8" data-name="Trazado 721428" d="M109.758,282.692H77.376L67.9,298.181a11.559,11.559,0,0,0,9.861,17.591h31.61a11.559,11.559,0,0,0,9.861-17.591Z" transform="translate(-66.185 -241.911)" fill="#31a7fb"/>
        <path id="Trazado_721429-8" data-name="Trazado 721429" d="M324.265,282.692h-7.026l9.475,15.488a11.559,11.559,0,0,1-9.86,17.591h7.026a11.559,11.559,0,0,0,9.861-17.591Z" transform="translate(-280.692 -241.911)" fill="#1c96f9"/>
        <path id="Trazado_721430-8" data-name="Trazado 721430" d="M192.228,4.794H172.133a2.4,2.4,0,0,1,0-4.794h20.095a2.4,2.4,0,0,1,0,4.794Z" transform="translate(-154.798)" fill="#eaf6ff"/>
        <path id="Trazado_721431-8" data-name="Trazado 721431" d="M297.906,2.4a2.395,2.395,0,0,1-2.4,2.4h-5.081a2.4,2.4,0,1,0,0-4.794h5.081a2.4,2.4,0,0,1,2.4,2.4Z" transform="translate(-258.079 0)" fill="#d3e1f4"/>
        <g id="Grupo_948285-8" data-name="Grupo 948285" transform="translate(22.547 23.724)">
          <g id="Grupo_948276-8" data-name="Grupo 948276" transform="translate(0)">
            <path id="Trazado_721432-8" data-name="Trazado 721432" d="M230.083,166.682H223.6a1.115,1.115,0,1,1,0-2.229h6.486a1.115,1.115,0,0,1,0,2.229Z" transform="translate(-222.482 -164.453)" fill="#84aee1"/>
          </g>
          <g id="Grupo_948277-8" data-name="Grupo 948277" transform="translate(0 4.967)">
            <path id="Trazado_721433-8" data-name="Trazado 721433" d="M227.611,201.116H223.6a1.115,1.115,0,1,1,0-2.229h4.014a1.115,1.115,0,0,1,0,2.229Z" transform="translate(-222.482 -198.887)" fill="#84aee1"/>
          </g>
          <g id="Grupo_948278-8" data-name="Grupo 948278" transform="translate(0 9.935)">
            <path id="Trazado_721434-8" data-name="Trazado 721434" d="M227.611,235.55H223.6a1.115,1.115,0,1,1,0-2.229h4.014a1.115,1.115,0,0,1,0,2.229Z" transform="translate(-222.482 -233.321)" fill="#84aee1"/>
          </g>
          <g id="Grupo_948279-8" data-name="Grupo 948279" transform="translate(0 14.902)">
            <path id="Trazado_721435-8" data-name="Trazado 721435" d="M227.611,269.984H223.6a1.115,1.115,0,1,1,0-2.229h4.014a1.115,1.115,0,0,1,0,2.229Z" transform="translate(-222.482 -267.755)" fill="#84aee1"/>
          </g>
          <g id="Grupo_948280-8" data-name="Grupo 948280" transform="translate(0 19.87)">
            <path id="Trazado_721436-8" data-name="Trazado 721436" d="M230.083,304.418H223.6a1.115,1.115,0,0,1,0-2.229h6.486a1.115,1.115,0,0,1,0,2.229Z" transform="translate(-222.482 -302.189)" fill="#1c96f9"/>
          </g>
          <g id="Grupo_948281-8" data-name="Grupo 948281" transform="translate(0 39.74)">
            <path id="Trazado_721437-8" data-name="Trazado 721437" d="M230.083,442.155H223.6a1.115,1.115,0,1,1,0-2.229h6.486a1.115,1.115,0,0,1,0,2.229Z" transform="translate(-222.482 -439.926)" fill="#1c96f9"/>
          </g>
          <g id="Grupo_948282-8" data-name="Grupo 948282" transform="translate(0 24.837)">
            <path id="Trazado_721438-8" data-name="Trazado 721438" d="M227.611,338.852H223.6a1.115,1.115,0,1,1,0-2.229h4.014a1.115,1.115,0,0,1,0,2.229Z" transform="translate(-222.482 -336.623)" fill="#1c96f9"/>
          </g>
          <g id="Grupo_948283-8" data-name="Grupo 948283" transform="translate(0 29.805)">
            <path id="Trazado_721439-8" data-name="Trazado 721439" d="M227.611,373.287H223.6a1.115,1.115,0,0,1,0-2.229h4.014a1.115,1.115,0,0,1,0,2.229Z" transform="translate(-222.482 -371.058)" fill="#1c96f9"/>
          </g>
          <g id="Grupo_948284-8" data-name="Grupo 948284" transform="translate(0 34.772)">
            <path id="Trazado_721440-8" data-name="Trazado 721440" d="M227.611,407.721H223.6a1.115,1.115,0,1,1,0-2.229h4.014a1.115,1.115,0,1,1,0,2.229Z" transform="translate(-222.482 -405.492)" fill="#1c96f9"/>
          </g>
        </g>
      </g>
      <g id="flask-9" data-name="flask" transform="translate(128.507)">
        <path id="Trazado_721426-9" data-name="Trazado 721426" d="M171.666,56.258h-34.2l7.765-12.694a1.486,1.486,0,0,0,.218-.776V16.349h18.232V42.788a1.487,1.487,0,0,0,.218.776Z" transform="translate(-127.184 -13.99)" fill="#d3e1f4"/>
        <path id="Trazado_721427-9" data-name="Trazado 721427" d="M219.024,56.257H212l-7.983-13.051v-15.9a3.917,3.917,0,0,0-3.917-3.918h-7.288v-7.04h18.232V42.786a1.485,1.485,0,0,0,.218.776Z" transform="translate(-174.542 -13.99)" fill="#b3cbea"/>
        <path id="Trazado_721428-9" data-name="Trazado 721428" d="M109.758,282.692H77.376L67.9,298.181a11.559,11.559,0,0,0,9.861,17.591h31.61a11.559,11.559,0,0,0,9.861-17.591Z" transform="translate(-66.185 -241.911)" fill="#31a7fb"/>
        <path id="Trazado_721429-9" data-name="Trazado 721429" d="M324.265,282.692h-7.026l9.475,15.488a11.559,11.559,0,0,1-9.86,17.591h7.026a11.559,11.559,0,0,0,9.861-17.591Z" transform="translate(-280.692 -241.911)" fill="#1c96f9"/>
        <path id="Trazado_721430-9" data-name="Trazado 721430" d="M192.228,4.794H172.133a2.4,2.4,0,0,1,0-4.794h20.095a2.4,2.4,0,0,1,0,4.794Z" transform="translate(-154.798)" fill="#eaf6ff"/>
        <path id="Trazado_721431-9" data-name="Trazado 721431" d="M297.906,2.4a2.395,2.395,0,0,1-2.4,2.4h-5.081a2.4,2.4,0,1,0,0-4.794h5.081a2.4,2.4,0,0,1,2.4,2.4Z" transform="translate(-258.079 0)" fill="#d3e1f4"/>
        <g id="Grupo_948285-9" data-name="Grupo 948285" transform="translate(22.547 23.724)">
          <g id="Grupo_948276-9" data-name="Grupo 948276" transform="translate(0)">
            <path id="Trazado_721432-9" data-name="Trazado 721432" d="M230.083,166.682H223.6a1.115,1.115,0,1,1,0-2.229h6.486a1.115,1.115,0,0,1,0,2.229Z" transform="translate(-222.482 -164.453)" fill="#84aee1"/>
          </g>
          <g id="Grupo_948277-9" data-name="Grupo 948277" transform="translate(0 4.967)">
            <path id="Trazado_721433-9" data-name="Trazado 721433" d="M227.611,201.116H223.6a1.115,1.115,0,1,1,0-2.229h4.014a1.115,1.115,0,0,1,0,2.229Z" transform="translate(-222.482 -198.887)" fill="#84aee1"/>
          </g>
          <g id="Grupo_948278-9" data-name="Grupo 948278" transform="translate(0 9.935)">
            <path id="Trazado_721434-9" data-name="Trazado 721434" d="M227.611,235.55H223.6a1.115,1.115,0,1,1,0-2.229h4.014a1.115,1.115,0,0,1,0,2.229Z" transform="translate(-222.482 -233.321)" fill="#84aee1"/>
          </g>
          <g id="Grupo_948279-9" data-name="Grupo 948279" transform="translate(0 14.902)">
            <path id="Trazado_721435-9" data-name="Trazado 721435" d="M227.611,269.984H223.6a1.115,1.115,0,1,1,0-2.229h4.014a1.115,1.115,0,0,1,0,2.229Z" transform="translate(-222.482 -267.755)" fill="#84aee1"/>
          </g>
          <g id="Grupo_948280-9" data-name="Grupo 948280" transform="translate(0 19.87)">
            <path id="Trazado_721436-9" data-name="Trazado 721436" d="M230.083,304.418H223.6a1.115,1.115,0,0,1,0-2.229h6.486a1.115,1.115,0,0,1,0,2.229Z" transform="translate(-222.482 -302.189)" fill="#1c96f9"/>
          </g>
          <g id="Grupo_948281-9" data-name="Grupo 948281" transform="translate(0 39.74)">
            <path id="Trazado_721437-9" data-name="Trazado 721437" d="M230.083,442.155H223.6a1.115,1.115,0,1,1,0-2.229h6.486a1.115,1.115,0,0,1,0,2.229Z" transform="translate(-222.482 -439.926)" fill="#1c96f9"/>
          </g>
          <g id="Grupo_948282-9" data-name="Grupo 948282" transform="translate(0 24.837)">
            <path id="Trazado_721438-9" data-name="Trazado 721438" d="M227.611,338.852H223.6a1.115,1.115,0,1,1,0-2.229h4.014a1.115,1.115,0,0,1,0,2.229Z" transform="translate(-222.482 -336.623)" fill="#1c96f9"/>
          </g>
          <g id="Grupo_948283-9" data-name="Grupo 948283" transform="translate(0 29.805)">
            <path id="Trazado_721439-9" data-name="Trazado 721439" d="M227.611,373.287H223.6a1.115,1.115,0,0,1,0-2.229h4.014a1.115,1.115,0,0,1,0,2.229Z" transform="translate(-222.482 -371.058)" fill="#1c96f9"/>
          </g>
          <g id="Grupo_948284-9" data-name="Grupo 948284" transform="translate(0 34.772)">
            <path id="Trazado_721440-9" data-name="Trazado 721440" d="M227.611,407.721H223.6a1.115,1.115,0,1,1,0-2.229h4.014a1.115,1.115,0,1,1,0,2.229Z" transform="translate(-222.482 -405.492)" fill="#1c96f9"/>
          </g>
        </g>
      </g>
    </g>
    <path id="Polígono_5" data-name="Polígono 5" d="M5,0l5,8H0Z" transform="translate(680.498 14944.247) rotate(180)" fill="#0540b7"/>
    <g id="Rectángulo_338066" data-name="Rectángulo 338066" transform="translate(214.498 14835.247)" fill="#fff" stroke="#1843b0" stroke-width="2" stroke-dasharray="9">
      <rect width="114" height="33" stroke="none"/>
      <rect x="1" y="1" width="112" height="31" fill="none"/>
    </g>
    <path id="Trazado_721945" data-name="Trazado 721945" d="M11.093,9.672l2.958,9.219L17,9.672h4.2v13.25H18V19.828l.309-6.334-3.2,9.428H13L9.783,13.485l.309,6.343v3.094H6.9V9.672ZM28.958,21.858a3.162,3.162,0,0,1-2.63,1.247,3.1,3.1,0,0,1-2.453-.942,3.961,3.961,0,0,1-.833-2.707V13.075h3.067v6.4a1.1,1.1,0,0,0,1.229,1.265,1.6,1.6,0,0,0,1.5-.755V13.075h3.085v9.847H29.049Zm9.41,1.247A5.062,5.062,0,0,1,34.7,21.753a4.667,4.667,0,0,1-1.4-3.517v-.255a6.047,6.047,0,0,1,.56-2.666,4.1,4.1,0,0,1,1.634-1.788,4.931,4.931,0,0,1,2.548-.632,4.262,4.262,0,0,1,3.276,1.288,5.06,5.06,0,0,1,1.2,3.59v1.192h-6.1a2.21,2.21,0,0,0,.719,1.3,2.139,2.139,0,0,0,1.438.473,2.756,2.756,0,0,0,2.275-1.019l1.4,1.656a3.918,3.918,0,0,1-1.624,1.26A5.49,5.49,0,0,1,38.368,23.1Zm-.346-7.845q-1.347,0-1.6,1.784h3.094v-.237a1.519,1.519,0,0,0-.373-1.142A1.485,1.485,0,0,0,38.022,15.26Zm10.884,4.9a.709.709,0,0,0-.41-.628,6.23,6.23,0,0,0-1.556-.491,7.1,7.1,0,0,1-1.893-.669,3.171,3.171,0,0,1-1.138-1.006,2.4,2.4,0,0,1-.391-1.356,2.722,2.722,0,0,1,1.119-2.234,4.611,4.611,0,0,1,2.93-.878,5.109,5.109,0,0,1,3.131.883A2.76,2.76,0,0,1,51.882,16.1H48.806q0-1.183-1.247-1.183a1.236,1.236,0,0,0-.81.268.831.831,0,0,0-.328.669.763.763,0,0,0,.4.664,3.783,3.783,0,0,0,1.279.419,11.049,11.049,0,0,1,1.543.391,2.8,2.8,0,0,1,2.221,2.739,2.579,2.579,0,0,1-1.2,2.193,5.248,5.248,0,0,1-3.1.846,5.355,5.355,0,0,1-2.257-.455,3.774,3.774,0,0,1-1.547-1.238,2.8,2.8,0,0,1-.555-1.647h2.867a1.185,1.185,0,0,0,.455,1,1.872,1.872,0,0,0,1.119.314,1.472,1.472,0,0,0,.942-.255A.815.815,0,0,0,48.906,20.156Zm7.963-9.528v2.448h1.62v2.13h-1.62v4.5a1.15,1.15,0,0,0,.2.774,1.074,1.074,0,0,0,.792.218,4.5,4.5,0,0,0,.764-.055V22.84A5.66,5.66,0,0,1,56.9,23.1a3.213,3.213,0,0,1-2.339-.746,3.059,3.059,0,0,1-.755-2.266V15.205H52.546v-2.13H53.8V10.627Zm8.782,5.224-1.01-.073a1.814,1.814,0,0,0-1.857.91v6.234H59.718V13.075h2.876l.1,1.265a2.375,2.375,0,0,1,2.157-1.447,2.991,2.991,0,0,1,.855.109Zm6.379,7.071a3.463,3.463,0,0,1-.291-.883A2.852,2.852,0,0,1,69.373,23.1a3.494,3.494,0,0,1-2.366-.842,2.679,2.679,0,0,1-.974-2.116,2.754,2.754,0,0,1,1.183-2.421,6.027,6.027,0,0,1,3.44-.819H71.6v-.519q0-1.356-1.174-1.356a.957.957,0,0,0-1.092,1.074H66.27a2.754,2.754,0,0,1,1.215-2.321,5.1,5.1,0,0,1,3.1-.892,4.476,4.476,0,0,1,2.976.919,3.2,3.2,0,0,1,1.119,2.521v4.359a4.464,4.464,0,0,0,.419,2.075v.155Zm-1.92-2a1.711,1.711,0,0,0,.951-.246,1.54,1.54,0,0,0,.541-.555V18.545h-.892q-1.6,0-1.6,1.438a.878.878,0,0,0,.282.678A1.021,1.021,0,0,0,70.11,20.92Zm11.421-.764a.709.709,0,0,0-.41-.628,6.229,6.229,0,0,0-1.556-.491,7.1,7.1,0,0,1-1.893-.669,3.171,3.171,0,0,1-1.138-1.006,2.4,2.4,0,0,1-.391-1.356,2.722,2.722,0,0,1,1.119-2.234,4.611,4.611,0,0,1,2.93-.878,5.109,5.109,0,0,1,3.131.883A2.76,2.76,0,0,1,84.507,16.1H81.431q0-1.183-1.247-1.183a1.236,1.236,0,0,0-.81.268.831.831,0,0,0-.328.669.763.763,0,0,0,.4.664,3.783,3.783,0,0,0,1.279.419,11.049,11.049,0,0,1,1.543.391,2.8,2.8,0,0,1,2.221,2.739,2.579,2.579,0,0,1-1.2,2.193,5.248,5.248,0,0,1-3.1.846,5.355,5.355,0,0,1-2.257-.455,3.774,3.774,0,0,1-1.547-1.238,2.8,2.8,0,0,1-.555-1.647H78.7a1.185,1.185,0,0,0,.455,1,1.872,1.872,0,0,0,1.119.314,1.472,1.472,0,0,0,.942-.255A.815.815,0,0,0,81.532,20.156Z" transform="translate(226.467 14835.78)" fill="#0540b7"/>
    <g id="_003---Right-Arrow" data-name="003---Right-Arrow" transform="translate(648.998 14994.813) rotate(150)">
      <path id="Shape" d="M35.561,12.6,22.366,0l-2.8,1.684a.608.608,0,0,0-.3.534V7.679L3.106,6.213.3,7.9a.608.608,0,0,0-.3.534v9.232a.608.608,0,0,0,.3.534l2.8,1.684,16.153-1.466v5.461a.608.608,0,0,0,.3.534l2.8,1.684,13.2-12.6a.621.621,0,0,0,0-.895Z" transform="translate(0 0)" fill="#26b99a"/>
      <g id="Grupo_948330" data-name="Grupo 948330" transform="translate(0 0)">
        <path id="Shape-2" data-name="Shape" d="M3.106,0V7.281a.614.614,0,0,1-.677.615L0,7.679V2.218a.608.608,0,0,1,.3-.534Z" transform="translate(19.259 0)" fill="#14a085"/>
        <path id="Shape-3" data-name="Shape" d="M3.106.618V7.9L.3,6.216A.608.608,0,0,1,0,5.682V.221L2.429,0a.614.614,0,0,1,.677.615Z" transform="translate(19.259 18.194)" fill="#14a085"/>
        <path id="Shape-4" data-name="Shape" d="M3.106,0V13.668L.3,11.984A.608.608,0,0,1,0,11.45V2.218a.608.608,0,0,1,.3-.534Z" transform="translate(0 6.213)" fill="#14a085"/>
      </g>
      <path id="Shape-5" data-name="Shape" d="M10.562,1.609c-.835,0,2.9.107-9.963-.368A.621.621,0,0,1,0,.6.615.615,0,0,1,.645,0l9.94.368a.621.621,0,0,1-.023,1.243Z" transform="translate(10.561 9.528)" fill="#81ccb8"/>
      <path id="Shape-6" data-name="Shape" d="M3.728,1.358c-.249,0,.878.033-3.129-.115A.621.621,0,0,1,0,.6.61.61,0,0,1,.645,0L3.751.117a.621.621,0,0,1-.023,1.243Z" transform="translate(4.97 9.318)" fill="#81ccb8"/>
    </g>
  </g>
</svg>
