<svg xmlns="http://www.w3.org/2000/svg" width="181.999" height="164" viewBox="0 0 181.999 164">
  <g id="Grupo_946943" data-name="Grupo 946943" transform="translate(0.186 -0.015)">
    <g id="Grupo_946939" data-name="Grupo 946939" transform="translate(0 0.911)">
      <g id="Elipse_5524" data-name="Elipse 5524" transform="translate(-0.186 0.103)" fill="#e8e8e8" stroke="#17263d" stroke-width="1">
        <circle cx="79" cy="79" r="79" stroke="none"/>
        <circle cx="79" cy="79" r="78.5" fill="none"/>
      </g>
      <g id="Elipse_5523" data-name="Elipse 5523" transform="translate(14.814 14.103)" fill="#fff" stroke="#17263d" stroke-width="1">
        <ellipse cx="64" cy="64.5" rx="64" ry="64.5" stroke="none"/>
        <ellipse cx="64" cy="64.5" rx="63.5" ry="64" fill="none"/>
      </g>
      <g id="Elipse_5522" data-name="Elipse 5522" transform="translate(27.814 27.103)" fill="#e8e8e8" stroke="#17263d" stroke-width="1">
        <ellipse cx="51" cy="51.5" rx="51" ry="51.5" stroke="none"/>
        <ellipse cx="51" cy="51.5" rx="50.5" ry="51" fill="none"/>
      </g>
      <g id="Elipse_5520" data-name="Elipse 5520" transform="translate(38.814 39.103)" fill="#fff" stroke="#17263d" stroke-width="1">
        <ellipse cx="40" cy="39.5" rx="40" ry="39.5" stroke="none"/>
        <ellipse cx="40" cy="39.5" rx="39.5" ry="39" fill="none"/>
      </g>
      <g id="Elipse_5521" data-name="Elipse 5521" transform="translate(52.814 53.103)" fill="#e8e8e8" stroke="#17263d" stroke-width="1">
        <circle cx="26" cy="26" r="26" stroke="none"/>
        <circle cx="26" cy="26" r="25.5" fill="none"/>
      </g>
    </g>
    <g id="Grupo_946935" data-name="Grupo 946935" transform="translate(55.583 0)">
      <g id="Elipse_5506" data-name="Elipse 5506" transform="translate(0.23 9.015)" fill="#f1cc4b" stroke="#17263d" stroke-width="1">
        <circle cx="5.5" cy="5.5" r="5.5" stroke="none"/>
        <circle cx="5.5" cy="5.5" r="5" fill="none"/>
      </g>
      <g id="Elipse_5507" data-name="Elipse 5507" transform="translate(1.23 96.015)" fill="#f1cc4b" stroke="#17263d" stroke-width="1">
        <circle cx="5.5" cy="5.5" r="5.5" stroke="none"/>
        <circle cx="5.5" cy="5.5" r="5" fill="none"/>
      </g>
      <g id="Elipse_5508" data-name="Elipse 5508" transform="translate(59.23 0.015)" fill="#f1cc4b" stroke="#17263d" stroke-width="1">
        <circle cx="5.5" cy="5.5" r="5.5" stroke="none"/>
        <circle cx="5.5" cy="5.5" r="5" fill="none"/>
      </g>
      <g id="Elipse_5509" data-name="Elipse 5509" transform="translate(115.23 52.015)" fill="#f1cc4b" stroke="#17263d" stroke-width="1">
        <circle cx="5.5" cy="5.5" r="5.5" stroke="none"/>
        <circle cx="5.5" cy="5.5" r="5" fill="none"/>
      </g>
      <g id="Elipse_5510" data-name="Elipse 5510" transform="translate(57.23 153.015)" fill="#f1cc4b" stroke="#17263d" stroke-width="1">
        <circle cx="5.5" cy="5.5" r="5.5" stroke="none"/>
        <circle cx="5.5" cy="5.5" r="5" fill="none"/>
      </g>
    </g>
  </g>
</svg>
