<svg id="doctorado" xmlns="http://www.w3.org/2000/svg" width="94" height="94.001" viewBox="0 0 94 94.001">
  <path id="Trazado_719393" data-name="Trazado 719393" d="M94,47A46.861,46.861,0,0,1,79.7,80.759c-8.46,8.2-19.992,4.712-32.7,4.712A46.81,46.81,0,0,1,18.312,75.7c-1.4-1.081-2.741,6.289-4.012,5.059l0,0A47,47,0,1,1,94,47Z" fill="#ed9200"/>
  <g id="Grupo_946584" data-name="Grupo 946584" transform="translate(37.956 37.401)">
    <path id="Trazado_719394" data-name="Trazado 719394" d="M206.737,203.714h5.569v45.8h-5.569Z" transform="translate(-206.737 -203.714)" fill="#dddaec"/>
    <path id="Trazado_719395" data-name="Trazado 719395" d="M206.737,203.714h2.785v45.8h-2.785Z" transform="translate(-206.737 -203.714)" fill="#d0cee7"/>
    <path id="Trazado_719396" data-name="Trazado 719396" d="M274.927,203.714H280.5v45.8h-5.569Z" transform="translate(-262.408 -203.714)" fill="#dddaec"/>
    <path id="Trazado_719397" data-name="Trazado 719397" d="M274.927,203.714h2.785v45.8h-2.785Z" transform="translate(-262.408 -203.714)" fill="#d0cee7"/>
  </g>
  <g id="Grupo_946586" data-name="Grupo 946586" transform="translate(7.252 48.307)">
    <path id="Trazado_719398" data-name="Trazado 719398" d="M135.873,360.34l-1.181,8.01-.971,6.593a46.993,46.993,0,0,1-65.4,0l-.971-6.593-1.181-8.01Z" transform="translate(-61.274 -342.491)" fill="#b1e4f9"/>
    <path id="Trazado_719399" data-name="Trazado 719399" d="M154.655,432.38l-.714,4.847a47,47,0,0,1-57.377,0l-.714-4.847Z" transform="translate(-85.504 -401.305)" fill="#75cef9"/>
    <path id="Trazado_719400" data-name="Trazado 719400" d="M85.385,385.518a47.13,47.13,0,0,1-17.063-10.575l0,0-2.15-14.6H84Z" transform="translate(-61.274 -342.491)" fill="#90d8f9"/>
    <path id="Trazado_719401" data-name="Trazado 719401" d="M109.616,444.332a46.819,46.819,0,0,1-13.052-7.105l-.714-4.847h13.109Z" transform="translate(-85.504 -401.305)" fill="#6bbef6"/>
    <path id="Trazado_719402" data-name="Trazado 719402" d="M135.877,360.341l-1.179,8.011H67.355l-1.179-8.011Z" transform="translate(-61.278 -342.492)" fill="#90d8f9"/>
    <path id="Trazado_719403" data-name="Trazado 719403" d="M119,268.026V279.7a4.9,4.9,0,0,1-4.9,4.9H44.4a4.9,4.9,0,0,1-4.9-4.9V268.026a4.9,4.9,0,0,1,4.9-4.9h69.7A4.9,4.9,0,0,1,119,268.026Z" transform="translate(-39.5 -263.128)" fill="#b1e4f9"/>
    <path id="Trazado_719404" data-name="Trazado 719404" d="M70.553,284.583H44.4a4.9,4.9,0,0,1-4.9-4.9V268.018a4.9,4.9,0,0,1,4.9-4.9H70.553a4.9,4.9,0,0,0-4.9,4.9v11.668A4.9,4.9,0,0,0,70.553,284.583Z" transform="translate(-39.503 -263.12)" fill="#90d8f9"/>
    <g id="Grupo_946585" data-name="Grupo 946585" transform="translate(30.704 0.002)">
      <path id="Trazado_719405" data-name="Trazado 719405" d="M206.74,263.13h5.568v34.894H206.74Z" transform="translate(-206.74 -263.13)" fill="#75cef9"/>
      <path id="Trazado_719406" data-name="Trazado 719406" d="M274.93,263.13H280.5v34.894H274.93Z" transform="translate(-262.411 -263.13)" fill="#75cef9"/>
    </g>
  </g>
  <path id="Trazado_719407" data-name="Trazado 719407" d="M186.226,77.383V93.846a6.325,6.325,0,0,1-6.323,6.325h-27.84a6.325,6.325,0,0,1-6.323-6.325V77.383a6.323,6.323,0,0,1,6.323-6.323H179.9A6.323,6.323,0,0,1,186.226,77.383Z" transform="translate(-118.983 -58.014)" fill="#f9f6f6"/>
  <path id="Trazado_719408" data-name="Trazado 719408" d="M186.226,77.383V93.846a6.284,6.284,0,0,1-.887,3.229,8.1,8.1,0,0,1-1.472.134H148.1a8.1,8.1,0,0,1-1.472-.134,6.283,6.283,0,0,1-.887-3.229V77.383a6.323,6.323,0,0,1,6.323-6.323H179.9A6.323,6.323,0,0,1,186.226,77.383Z" transform="translate(-118.983 -58.014)" fill="#dddaec"/>
  <path id="Trazado_719409" data-name="Trazado 719409" d="M155.176,100.171h-3.118a6.323,6.323,0,0,1-6.323-6.323V77.384a6.323,6.323,0,0,1,6.323-6.323h3.118a6.324,6.324,0,0,0-6.325,6.323V93.848A6.324,6.324,0,0,0,155.176,100.171Z" transform="translate(-118.979 -58.015)" fill="#dddaec"/>
  <path id="Trazado_719410" data-name="Trazado 719410" d="M158.228,37.4H122.46a8.125,8.125,0,0,1-8.125-8.125V8.125A8.125,8.125,0,0,1,122.46,0h35.768a8.125,8.125,0,0,1,8.125,8.125V29.276a8.124,8.124,0,0,1-8.124,8.125Z" transform="translate(-93.344)" fill="#f9f6f6"/>
  <path id="Trazado_719411" data-name="Trazado 719411" d="M126.465,37.4h-4.006a8.124,8.124,0,0,1-8.124-8.124V8.127A8.124,8.124,0,0,1,122.459,0h4.006a8.125,8.125,0,0,0-8.126,8.124V29.279A8.125,8.125,0,0,0,126.465,37.4Z" transform="translate(-93.344 -0.002)" fill="#dddaec"/>
  <path id="Trazado_719412" data-name="Trazado 719412" d="M149.769,56.385a5.434,5.434,0,0,1-5.434-5.434V35.434A5.434,5.434,0,0,1,149.769,30H179.9a5.434,5.434,0,0,1,5.434,5.434V50.951a5.434,5.434,0,0,1-5.434,5.434Z" transform="translate(-117.836 -24.492)" fill="#90d8f9"/>
  <path id="Trazado_719413" data-name="Trazado 719413" d="M154.449,56.384h-4.678a5.435,5.435,0,0,1-5.436-5.434V35.434A5.435,5.435,0,0,1,149.771,30h4.678a5.435,5.435,0,0,0-5.434,5.434V50.95A5.435,5.435,0,0,0,154.449,56.384Z" transform="translate(-117.836 -24.492)" fill="#75cef9"/>
  <g id="Grupo_946587" data-name="Grupo 946587" transform="translate(33.816 10.169)">
    <path id="Trazado_719414" data-name="Trazado 719414" d="M268.654,55.386a1.778,1.778,0,0,0-1.778,1.778v4.745h-5.793V57.164a1.778,1.778,0,0,0-3.555,0V70.672a1.778,1.778,0,0,0,3.555,0V65.464h5.793v5.208a1.778,1.778,0,0,0,3.555,0V57.164A1.778,1.778,0,0,0,268.654,55.386Z" transform="translate(-244.064 -55.386)" fill="#5a97ca"/>
    <path id="Trazado_719415" data-name="Trazado 719415" d="M190.466,55.433a5.612,5.612,0,0,0-.736-.047h-3.761a1.776,1.776,0,0,0-1.778,1.783v13.5a1.778,1.778,0,1,0,3.555,0v-4.1l1.984-.007a5.586,5.586,0,0,0,.736-11.132Zm-.736,7.577c-.617,0-1.25,0-1.968.007,0-.757-.008-3.286-.011-4.077h2a2.036,2.036,0,1,1-.023,4.069Z" transform="translate(-184.191 -55.386)" fill="#5a97ca"/>
  </g>
  <g id="Grupo_946588" data-name="Grupo 946588" transform="translate(37.956 69.771)">
    <path id="Trazado_719416" data-name="Trazado 719416" d="M206.74,380.03h5.568v4.4H206.74Z" transform="translate(-206.74 -380.03)" fill="#6bbef6"/>
    <path id="Trazado_719417" data-name="Trazado 719417" d="M274.93,380.03H280.5v4.4H274.93Z" transform="translate(-262.411 -380.03)" fill="#6bbef6"/>
  </g>
</svg>
