<svg id="antiolor" xmlns="http://www.w3.org/2000/svg" width="185" height="185" viewBox="0 0 185 185">
  <g id="Grupo_946428" data-name="Grupo 946428" transform="translate(39.133 2.484)">
    <path id="Trazado_684800" data-name="Trazado 684800" d="M108.3,60.24a53.367,53.367,0,0,0,53.367,53.367l34.994-59.751L161.671,6.874A53.367,53.367,0,0,0,108.3,60.24Z" transform="translate(-108.304 -6.874)" fill="#fff5f5"/>
    <path id="Trazado_684801" data-name="Trazado 684801" d="M256,6.874V113.607A53.367,53.367,0,1,0,256,6.874Z" transform="translate(-202.633 -6.874)" fill="#dfe9f2"/>
  </g>
  <g id="Grupo_946440" data-name="Grupo 946440" transform="translate(0 95.749)">
    <g id="Grupo_946429" data-name="Grupo 946429" transform="translate(3.867)">
      <path id="Trazado_684802" data-name="Trazado 684802" d="M61.907,319.7V285.741l6.078,6.077,7.665-7.665L56.487,264.991l-4.1,24.028,4.1,30.679,2.677,3.307Z" transform="translate(-37.325 -264.991)" fill="#00ca76"/>
      <path id="Trazado_684803" data-name="Trazado 684803" d="M18.367,291.818l6.077-6.077V319.7l2.566,2.761,2.854-2.761V264.991L10.7,284.153Z" transform="translate(-10.702 -264.991)" fill="#a3e686"/>
    </g>
    <g id="Grupo_946430" data-name="Grupo 946430" transform="translate(142.809)">
      <path id="Trazado_684804" data-name="Trazado 684804" d="M446.439,319.7V285.741l6.077,6.077,7.665-7.665-19.162-19.162-4.1,24.028,4.1,30.679,2.826,2.761Z" transform="translate(-421.857 -264.991)" fill="#00ca76"/>
      <path id="Trazado_684805" data-name="Trazado 684805" d="M402.9,291.818l6.078-6.077V319.7L412,321.811l2.4-2.112V264.991l-19.162,19.162Z" transform="translate(-395.233 -264.991)" fill="#a3e686"/>
    </g>
    <g id="Grupo_946439" data-name="Grupo 946439" transform="translate(0 54.708)">
      <g id="Grupo_946431" data-name="Grupo 946431">
        <path id="Trazado_684806" data-name="Trazado 684806" d="M0,416.4v34.544H92.5l19.162-19.014L92.5,416.4H51.478l-5.42,3.785-5.42-3.785H28.449l-5.42,3.785-5.42-3.785Z" transform="translate(0 -416.398)" fill="#ffd82e"/>
        <path id="Trazado_684807" data-name="Trazado 684807" d="M348.5,416.4H256v34.544h41.022l5.42-3.309,5.42,3.309h12.189l5.42-2.968,5.42,2.968H348.5Z" transform="translate(-163.5 -416.398)" fill="#fdbe00"/>
      </g>
      <g id="Grupo_946432" data-name="Grupo 946432" transform="translate(156.551 17.272)">
        <path id="Trazado_684808" data-name="Trazado 684808" d="M433.266,464.2h10.84v17.272h-10.84Z" transform="translate(-433.266 -464.199)" fill="#fd9d23"/>
      </g>
      <g id="Grupo_946434" data-name="Grupo 946434" transform="translate(133.522 17.272)">
        <g id="Grupo_946433" data-name="Grupo 946433">
          <path id="Trazado_684809" data-name="Trazado 684809" d="M369.531,464.2h10.84v17.272h-10.84Z" transform="translate(-369.531 -464.199)" fill="#fd9d23"/>
        </g>
      </g>
      <g id="Grupo_946436" data-name="Grupo 946436" transform="translate(40.638 0)">
        <g id="Grupo_946435" data-name="Grupo 946435">
          <path id="Trazado_684810" data-name="Trazado 684810" d="M112.469,416.4h10.84V433.67h-10.84Z" transform="translate(-112.469 -416.398)" fill="#fdbe00"/>
        </g>
      </g>
      <g id="Grupo_946438" data-name="Grupo 946438" transform="translate(17.609 0)">
        <g id="Grupo_946437" data-name="Grupo 946437">
          <path id="Trazado_684811" data-name="Trazado 684811" d="M48.734,416.4h10.84V433.67H48.734Z" transform="translate(-48.734 -416.398)" fill="#fdbe00"/>
        </g>
      </g>
    </g>
  </g>
  <g id="Grupo_946441" data-name="Grupo 946441" transform="translate(36.65)">
    <path id="Trazado_684812" data-name="Trazado 684812" d="M112.271,55.85a45.061,45.061,0,0,1,45.01-45.01l6.5-4.783L157.281,0a55.85,55.85,0,0,0,0,111.7l4.777-5.882-4.777-4.957A45.061,45.061,0,0,1,112.271,55.85Z" transform="translate(-101.431)" fill="#ff6379"/>
    <path id="Trazado_684813" data-name="Trazado 684813" d="M256,0V10.84a45.01,45.01,0,0,1,0,90.021V111.7A55.85,55.85,0,0,0,256,0Z" transform="translate(-200.15)" fill="#e30058"/>
  </g>
  <g id="Grupo_946442" data-name="Grupo 946442" transform="translate(63.955 36.7)">
    <path id="Trazado_684814" data-name="Trazado 684814" d="M240.168,101.569a11.806,11.806,0,0,1-.8,4.64,24.753,24.753,0,0,0,0,16.253,13.927,13.927,0,0,1,0,9.282A22.332,22.332,0,0,0,238,139.87h6.5l4.777-16.366L244.5,101.569Z" transform="translate(-215.959 -101.569)" fill="#adcfff"/>
    <path id="Trazado_684815" data-name="Trazado 684815" d="M262.5,101.569H256v38.3h4.336a11.818,11.818,0,0,1,.8-4.641,24.754,24.754,0,0,0,0-16.253,13.924,13.924,0,0,1,0-9.281A22.328,22.328,0,0,0,262.5,101.569Z" transform="translate(-227.455 -101.569)" fill="#9af"/>
    <path id="Trazado_684816" data-name="Trazado 684816" d="M190.008,101.569h-10.84a11.806,11.806,0,0,1-.8,4.64,24.753,24.753,0,0,0,0,16.253,13.924,13.924,0,0,1,0,9.282A22.341,22.341,0,0,0,177,139.87h10.84a11.809,11.809,0,0,1,.8-4.641,24.753,24.753,0,0,0,0-16.253,13.926,13.926,0,0,1,0-9.281A22.324,22.324,0,0,0,190.008,101.569Z" transform="translate(-177 -101.569)" fill="#adcfff"/>
    <path id="Trazado_684817" data-name="Trazado 684817" d="M309.84,114.335a11.805,11.805,0,0,1,.8-4.64,22.338,22.338,0,0,0,1.372-8.126h-10.84a11.805,11.805,0,0,1-.8,4.64,24.753,24.753,0,0,0,0,16.253,13.928,13.928,0,0,1,0,9.282A22.34,22.34,0,0,0,299,139.87h10.84a11.818,11.818,0,0,1,.8-4.641,24.754,24.754,0,0,0,0-16.253A11.818,11.818,0,0,1,309.84,114.335Z" transform="translate(-254.918 -101.569)" fill="#9af"/>
  </g>
</svg>
