<svg xmlns="http://www.w3.org/2000/svg" width="105" height="105" viewBox="0 0 105 105">
  <g id="Grupo_956483" data-name="Grupo 956483" transform="translate(-751 -12242)">
    <circle id="Elipse_5347" data-name="Elipse 5347" cx="52.5" cy="52.5" r="52.5" transform="translate(751 12242)" fill="#adc46c"/>
    <g id="bascula" transform="translate(776.444 12266.443)">
      <path id="Trazado_721718" data-name="Trazado 721718" d="M6.306,69.84,9.918,48.084a4.9,4.9,0,0,1,4.834-4.1H42.02a4.9,4.9,0,0,1,4.834,4.1L50.466,69.84Z" transform="translate(-1.08 -24.339)" fill="#f45858"/>
      <path id="Trazado_721719" data-name="Trazado 721719" d="M14,111.542h38.27v3.885H14Z" transform="translate(-5.831 -66.041)" fill="#6d7a84"/>
      <path id="Trazado_721720" data-name="Trazado 721720" d="M6.306,6.306V8.114a6.94,6.94,0,0,0,6.94,6.94H43.526a6.94,6.94,0,0,0,6.94-6.94V6.306Z" transform="translate(-1.08 -1.08)" fill="#f45858"/>
      <path id="Trazado_721721" data-name="Trazado 721721" d="M55.745,29.166h6.318v5.672H55.745Z" transform="translate(-31.598 -15.191)" fill="#f2da30"/>
      <circle id="Elipse_7681" data-name="Elipse 7681" cx="9.16" cy="9.16" r="9.16" transform="translate(18.146 23.414)" fill="#dfeef4"/>
      <g id="Grupo_956431" data-name="Grupo 956431" transform="translate(4.556 4.557)">
        <path id="Trazado_721722" data-name="Trazado 721722" d="M35.972,119.943H34.25a.67.67,0,0,0,0,1.339h1.722a.67.67,0,1,0,0-1.339Z" transform="translate(-22.472 -75.783)"/>
        <path id="Trazado_721723" data-name="Trazado 721723" d="M42.446,14.645a7.619,7.619,0,0,0,7.61-7.61V5.227a.669.669,0,0,0-.67-.67H43.049a.67.67,0,0,0,0,1.339h5.667V7.035a6.276,6.276,0,0,1-6.27,6.271H12.166A6.276,6.276,0,0,1,5.9,7.035V5.9H40.111a.67.67,0,1,0,0-1.339H5.226a.669.669,0,0,0-.67.67V7.035a7.619,7.619,0,0,0,7.61,7.61H23.479v4.332H13.672a5.552,5.552,0,0,0-5.495,4.658L4.565,45.392a.67.67,0,0,0,.661.779H7.5v3.215a.669.669,0,0,0,.67.67h4.85a.67.67,0,1,0,0-1.339H8.841V46.171H45.773v2.545H21.209a.67.67,0,0,0,0,1.339H46.442a.669.669,0,0,0,.67-.67V46.171h2.275a.67.67,0,0,0,.661-.779L46.436,23.635a5.552,5.552,0,0,0-5.5-4.658h-9.8V14.645Zm2.667,9.21L48.6,44.832H6.016L9.5,23.854a4.216,4.216,0,0,1,4.173-3.538H40.94a4.216,4.216,0,0,1,4.173,3.538ZM29.8,18.977H24.819V14.645H29.8Z" transform="translate(-4.556 -4.557)"/>
        <path id="Trazado_721724" data-name="Trazado 721724" d="M38.314,61.909a9.83,9.83,0,1,0,9.83-9.83,9.83,9.83,0,0,0-9.83,9.83Zm18.294-.67H55.485a.67.67,0,0,0,0,1.339h1.121a8.5,8.5,0,0,1-7.792,7.792V69.25a.67.67,0,0,0-1.339,0v1.121a8.5,8.5,0,0,1-7.792-7.792H40.8a.67.67,0,1,0,0-1.339H39.683a8.5,8.5,0,0,1,7.792-7.792v1.121a.67.67,0,1,0,1.339,0V53.447a8.5,8.5,0,0,1,7.792,7.792Z" transform="translate(-25.395 -33.892)"/>
        <path id="Trazado_721725" data-name="Trazado 721725" d="M61.6,68.429a2.053,2.053,0,1,0,.946.947l2.638-2.638a.67.67,0,0,0-.947-.947Zm-.876,2.513a.689.689,0,1,1,.689-.689A.689.689,0,0,1,60.728,70.942Z" transform="translate(-37.979 -42.235)"/>
        <path id="Trazado_721726" data-name="Trazado 721726" d="M20.788,12.012a.67.67,0,1,0,0,1.339h6.965a.67.67,0,1,0,0-1.339Z" transform="translate(-14.162 -9.159)"/>
        <path id="Trazado_721727" data-name="Trazado 721727" d="M46.46,12.012a.67.67,0,0,0,0,1.339h2.049a.67.67,0,0,0,0-1.339Z" transform="translate(-30.009 -9.159)"/>
      </g>
    </g>
  </g>
</svg>
