<svg xmlns="http://www.w3.org/2000/svg" width="105" height="105" viewBox="0 0 105 105">
  <g id="Grupo_956482" data-name="Grupo 956482" transform="translate(-401 -12242)">
    <circle id="Elipse_5346" data-name="Elipse 5346" cx="52.5" cy="52.5" r="52.5" transform="translate(401 12242)" fill="#adc46c"/>
    <g id="libre-de-grasas-trans-2" transform="translate(399.835 12272)">
      <path id="Trazado_721711" data-name="Trazado 721711" d="M162.926,9.315c4.96,8.865,15.986,19.331,9.533,29.661a13.988,13.988,0,0,1-23.523,0c-6.453-10.331,4.575-20.8,9.535-29.663A2.555,2.555,0,0,1,162.926,9.315Z" transform="translate(-102.147 -7.254)" fill="#facf5f"/>
      <path id="Trazado_721712" data-name="Trazado 721712" d="M163.4,10.134a2.509,2.509,0,0,0-1.149,1.068c-4.96,8.864-15.988,19.332-9.535,29.663a13.459,13.459,0,0,0,3.608,3.846,13.486,13.486,0,0,1-7.385-5.734c-6.453-10.331,4.575-20.8,9.535-29.663a2.555,2.555,0,0,1,4.455,0Q163.154,9.722,163.4,10.134Z" transform="translate(-102.147 -7.254)" fill="#fada86"/>
      <path id="Trazado_721713" data-name="Trazado 721713" d="M59.693,39.84a2.8,2.8,0,0,0-4.879,0C49.381,49.548,37.3,61.016,44.369,72.332a15.323,15.323,0,0,0,25.767,0C77.206,61.016,65.128,49.551,59.693,39.84Z" transform="translate(-7.284 -34.783)" fill="#ffe773"/>
      <path id="Trazado_721714" data-name="Trazado 721714" d="M60.481,42.671c-5.433,9.71-17.515,21.178-10.445,32.494A14.779,14.779,0,0,0,53.3,78.859a14.814,14.814,0,0,1-8.933-6.527C37.3,61.016,49.381,49.548,54.815,39.838a2.8,2.8,0,0,1,4.879,0c.4.714.835,1.437,1.3,2.17a2.822,2.822,0,0,0-.509.661Z" transform="translate(-7.284 -34.783)" fill="#fff0a6"/>
      <path id="Trazado_721715" data-name="Trazado 721715" d="M99.022,279.217a2.081,2.081,0,0,1-1.8,3.7c-4.4-1.4-7.9-5.623-7.365-12.819a2.016,2.016,0,0,1,4.018-.023A12.092,12.092,0,0,0,99.022,279.217Z" transform="translate(-50.384 -242.902)" fill="#fff8d6"/>
      <g id="Grupo_956430" data-name="Grupo 956430" transform="translate(34.165 0)">
        <path id="Trazado_721716" data-name="Trazado 721716" d="M61.439,1.693a3.309,3.309,0,0,0-5.773,0c-.674,1.2-1.477,2.458-2.245,3.612-.005-.009-.352-.605-.352-.615a3.553,3.553,0,0,0-6.2,0c-5.415,9.679-17.793,21.471-10.426,33.263a16.077,16.077,0,0,0,27.049,0c6.858-10.978-3.4-21.961-9.209-31.221.9-1.332,1.884-2.843,2.7-4.3a1.8,1.8,0,0,1,3.136,0c4.972,8.885,15.7,19.045,9.552,28.892a12.784,12.784,0,0,1-2.53,2.947.756.756,0,0,0,.982,1.148,14.294,14.294,0,0,0,2.829-3.294c6.754-10.811-4.582-21.615-9.515-30.43Zm.773,35.456a14.567,14.567,0,0,1-24.486,0c-6.767-10.833,5.033-22.02,10.463-31.725a2.042,2.042,0,0,1,3.561,0C57.181,15.131,68.979,26.317,62.212,37.149Z" transform="translate(-34.165 0)"/>
        <path id="Trazado_721717" data-name="Trazado 721717" d="M92.729,274.393a.755.755,0,0,0-1.057.155,1.238,1.238,0,0,1-1.435.449c-4.732-1.507-7.289-6.01-6.84-12.044a1.26,1.26,0,0,1,2.513-.009,13,13,0,0,0,4.968,9.333.756.756,0,0,0,.913-1.2,11.361,11.361,0,0,1-4.377-8.269,2.772,2.772,0,0,0-5.524.037c-.461,6.2,2.06,11.739,7.889,13.6a2.737,2.737,0,0,0,3.106-.987.756.756,0,0,0-.155-1.057Z" transform="translate(-77.334 -235.702)"/>
      </g>
    </g>
  </g>
</svg>
