<svg xmlns="http://www.w3.org/2000/svg" width="610" height="457" viewBox="0 0 610 457">
  <g id="Grupo_957292" data-name="Grupo 957292" transform="translate(-495 -2266)">
    <g id="Industrial_pollution" data-name="Industrial pollution" transform="translate(265.844 1976.136)">
      <path id="Trazado_684725" data-name="Trazado 684725" d="M199.719,0c110.3,0,199.719,89.39,199.719,199.657S310.02,399.314,199.719,399.314,0,309.925,0,199.657,89.417,0,199.719,0Z" transform="translate(334.719 335)" fill="#80cab6"/>
      <g id="Grupo_946323" data-name="Grupo 946323" transform="translate(428.889 335.071)">
        <path id="Trazado_684686" data-name="Trazado 684686" d="M1037.483,462.2s3.807,47.708-8.11,65.031a122.6,122.6,0,0,1-210.9-123.9c7.133-14.338,38.057-21.467,38.057-21.467s12.315-32.035,24.82-37.227A122.821,122.821,0,0,1,996.5,356.029c6.014,4.034,12.255,18.946,12.255,18.946s12.332,2.638,15.785,7.013a122.766,122.766,0,0,1,17.643,30.5C1048.858,429.2,1037.483,462.2,1037.483,462.2Z" transform="translate(-797.096 -335.324)" fill="#9e9569"/>
        <path id="Trazado_684687" data-name="Trazado 684687" d="M959.653,408c-3.644,1.873-2.105,7.484-5.727,9.214-6.211,2.968-21.53-8.374-20.078-16,1.572-8.252,23.048-13.494,30.236-6.55,4.627,4.47,1.479,12.2,6.092,14.546,3.912,1.991,11.179-1.016,13.042-6.191,2.46-6.835-5.92-13.526-6.628-14.077-8.487-6.6-20.951-4.137-25.538-3.231-9.908,1.955-12.378,5.634-16.929,3.91-4.806-1.82-5.46-7.212-6.943-11.589a123.013,123.013,0,0,0-62.872,58.691c3.95,6.482,14.542,7.932,17.389,19.043,1.5,5.843-.135,10.5,3.612,13.874,3.816,3.431,8.3,1.1,11.293,4.8,1.776,2.191.9,3.875,1.77,11.226.838,7.093,1.257,10.64,3.177,12.835,5.537,6.33,20.441,2.781,20.68.381.158-1.589-6.223-1.543-8.175-6.1-2.035-4.756,3.265-8.635,1.382-13.033-2.066-4.825-9.679-3.044-11.626-7.345-2.01-4.439,2.985-13.217,10.2-16.479,10.581-4.785,17.153,6.269,27.583,2.864,12.98-4.237,10.62-23.9,26.262-30.04,7.887-3.094,13.588-.095,14.85-3.04C985.089,420.133,966.884,404.284,959.653,408Z" transform="translate(-842.921 -368.715)" fill="#d3bba3"/>
        <path id="Trazado_684688" data-name="Trazado 684688" d="M1147.768,897.163c8.375-2.641,15.792-.3,18.67.61a32.094,32.094,0,0,1,12.668,7.192c7.787,7.339,4.985,12.8,11.615,17.864,7.166,5.475,15.6,3.04,16.618,6.99.552,2.139-1.9,2.937-4.258,7.722-4.183,8.491-.929,15.041-4.9,17.288-2.17,1.228-6.487,1.166-6.487,1.165a25.391,25.391,0,0,1-1.671,8.963c-1.2,2.673-2.273,2.513-5.214,6.056-4.119,4.963-3.191,6.705-6.163,9.949-4.444,4.851-8.246,2.84-10.941,6.162-5.685,7.008,6.786,21.431,2.537,25.8-3.219,3.306-15.279.071-20.127-7.76-3.418-5.522-.4-8.731-1.736-21.827a110.627,110.627,0,0,0-5.515-23.86c-3.391-9.935-6.2-13.725-4.656-19.815,1.327-5.242,4.268-5.837,4.154-9.759-.218-7.468-10.984-8.822-11.758-15.738S1139.635,899.728,1147.768,897.163Z" transform="translate(-1051.075 -773.615)" fill="#d3bba3"/>
        <path id="Trazado_684689" data-name="Trazado 684689" d="M1647.956,668.2c-16.752-5.238-21.093-6.759-28.631-5.23-6.519,1.323-11.881,4.256-22.605,10.124-10.225,5.595-12.131,8.143-12.964,9.4-4.738,7.154-3.252,15.526-1.652,24.546,1.4,7.874,2.924,16.478,8.356,18.369,2.6.906,4.1-.427,12.552-3.266,10.794-3.625,16.191-5.438,18.054-3.581,3.711,3.7-9.694,16.17-5.2,26.362,3.008,6.819,11.187,6.175,13.451,13.918,1.544,5.277-1.666,7.59-.872,12.955.611,4.124,3.3,8.076,6.7,11.135A122.668,122.668,0,0,0,1647.956,668.2Z" transform="translate(-1402.876 -591.035)" fill="#d3bba3"/>
        <path id="Trazado_684690" data-name="Trazado 684690" d="M1591.84,456.188a123.086,123.086,0,0,0-28.04-25.958c-1.01,3.428-1.185,6.849-.021,9.669,1.626,3.939,5.436,5.7,4.86,9.23-.568,3.487-4.986,6.138-8.689,6.95-6.316,1.385-9.994-2.705-12.276-.825-3.427,2.822,3.111,13.482-.419,16.41-2.311,1.917-6-1.919-10.276-.006-4.05,1.811-7.029,8.062-4.964,12.68,1.606,3.59,5.854,5.284,9.227,5.415,2.83.11,6.7-.817,17.923-11.808,10.367-10.155,12.026-14.227,16.014-13.991,6.7.4,10.9,12.415,12.225,11.78,1.235-.589-4.9-9.755-2.4-15.229C1586.058,458.189,1588.513,456.864,1591.84,456.188Z" transform="translate(-1364.402 -409.521)" fill="#d3bba3"/>
        <path id="Trazado_684691" data-name="Trazado 684691" d="M890.935,585.647a124.277,124.277,0,1,1,48.518-9.792A123.9,123.9,0,0,1,890.935,585.647Zm0-248.78c-68.489,0-124.21,55.7-124.21,124.172s55.721,124.172,124.21,124.172,124.21-55.7,124.21-124.172S959.425,336.867,890.935,336.867Z" transform="translate(-766.289 -336.189)" fill="#363e44"/>
      </g>
      <g id="Grupo_946342" data-name="Grupo 946342" transform="translate(356.942 340.952)">
        <g id="Grupo_946334" data-name="Grupo 946334" transform="translate(2.7 88.396)">
          <g id="Grupo_946324" data-name="Grupo 946324" transform="translate(83.07 106.599)">
            <path id="Trazado_684692" data-name="Trazado 684692" d="M949.351,1405.64a566.156,566.156,0,0,1-15.4-130.9l-.094-.792H845.034c0,.053,0,.106,0,.159a566.189,566.189,0,0,1-15.4,131.533Z" transform="translate(-829.632 -1270.012)" fill="#e0aa63"/>
            <rect id="Rectángulo_337510" data-name="Rectángulo 337510" width="92.279" height="3.936" transform="translate(13.72)" fill="#efbc73"/>
          </g>
          <g id="Grupo_946325" data-name="Grupo 946325" transform="translate(145.632 74.928)">
            <path id="Trazado_684693" data-name="Trazado 684693" d="M1264.021,1295.462a698.389,698.389,0,0,1-19-161.466l-.116-.977H1135.345c0,.065,0,.13,0,.2a698.4,698.4,0,0,1-19,162.248Z" transform="translate(-1116.347 -1128.163)" fill="#efbc73"/>
            <path id="Trazado_684694" data-name="Trazado 684694" d="M1608.011,1295.461h34.235a698.369,698.369,0,0,1-19-161.466l-.116-.977h-21.45A806.005,806.005,0,0,0,1608.011,1295.461Z" transform="translate(-1494.572 -1128.163)" fill="#ffd092"/>
            <rect id="Rectángulo_337511" data-name="Rectángulo 337511" width="113.827" height="4.855" transform="translate(16.923)" fill="#e0aa63"/>
          </g>
          <g id="Grupo_946326" data-name="Grupo 946326" transform="translate(303.704)">
            <path id="Trazado_684695" data-name="Trazado 684695" d="M1867.325,1009.4h-26.558l4.813-242.012h16.933Z" transform="translate(-1840.767 -767.386)" fill="#fff"/>
            <path id="Trazado_684696" data-name="Trazado 684696" d="M1907.94,1009.4h11.9l-4.812-242.012h-7.088Z" transform="translate(-1893.282 -767.385)" fill="#f7f1eb"/>
            <path id="Trazado_684697" data-name="Trazado 684697" d="M1879.007,781.957l-.29-14.572h-16.933l-.29,14.572Z" transform="translate(-1856.971 -767.385)" fill="#d87355"/>
            <path id="Trazado_684698" data-name="Trazado 684698" d="M1858.863,914.246h18.661l-.29-14.572h-18.081Z" transform="translate(-1854.915 -870.808)" fill="#d87355"/>
            <path id="Trazado_684699" data-name="Trazado 684699" d="M1856.232,1046.536h19.809l-.29-14.572h-19.229Z" transform="translate(-1852.858 -974.231)" fill="#d87355"/>
            <path id="Trazado_684700" data-name="Trazado 684700" d="M1853.6,1178.825h20.957l-.29-14.572h-20.377Z" transform="translate(-1850.801 -1077.654)" fill="#d87355"/>
          </g>
          <g id="Grupo_946327" data-name="Grupo 946327" transform="translate(347.016)">
            <path id="Trazado_684701" data-name="Trazado 684701" d="M2065.819,1009.4h-26.558l4.813-242.012h16.933Z" transform="translate(-2039.261 -767.386)" fill="#fff"/>
            <path id="Trazado_684702" data-name="Trazado 684702" d="M2106.435,1009.4h11.9l-4.812-242.012h-7.088Z" transform="translate(-2091.777 -767.385)" fill="#f7f1eb"/>
            <path id="Trazado_684703" data-name="Trazado 684703" d="M2077.5,781.957l-.29-14.572h-16.933l-.29,14.572Z" transform="translate(-2055.466 -767.385)" fill="#d87355"/>
            <path id="Trazado_684704" data-name="Trazado 684704" d="M2057.358,914.246h18.661l-.29-14.572h-18.081Z" transform="translate(-2053.409 -870.808)" fill="#d87355"/>
            <path id="Trazado_684705" data-name="Trazado 684705" d="M2054.727,1046.536h19.808l-.289-14.572h-19.229Z" transform="translate(-2051.352 -974.231)" fill="#d87355"/>
            <path id="Trazado_684706" data-name="Trazado 684706" d="M2052.1,1178.825h20.957l-.29-14.572h-20.377Z" transform="translate(-2049.295 -1077.654)" fill="#d87355"/>
          </g>
          <g id="Grupo_946328" data-name="Grupo 946328" transform="translate(79.984 136.792)">
            <rect id="Rectángulo_337512" data-name="Rectángulo 337512" width="62.814" height="73.534" transform="translate(2.86 32.026)" fill="#ffd092"/>
            <path id="Trazado_684707" data-name="Trazado 684707" d="M828.6,1427.276a31.4,31.4,0,0,1,31.407-31.4h0a31.4,31.4,0,0,1,31.407,31.4Z" transform="translate(-825.741 -1395.531)" fill="#ffd092"/>
            <rect id="Rectángulo_337513" data-name="Rectángulo 337513" width="68.31" height="4.672" transform="translate(0 31.746)" fill="#efbc73"/>
            <path id="Trazado_684708" data-name="Trazado 684708" d="M889.614,1500.06a.218.218,0,0,1-.218-.218v-77.4A30.721,30.721,0,0,1,907.39,1394.3a.218.218,0,1,1,.178.4,30.284,30.284,0,0,0-17.735,27.741v77.4A.218.218,0,0,1,889.614,1500.06Z" transform="translate(-873.27 -1394.282)" fill="#363e44"/>
          </g>
          <g id="Grupo_946330" data-name="Grupo 946330" transform="translate(268.536 194.301)">
            <rect id="Rectángulo_337514" data-name="Rectángulo 337514" width="61.571" height="48.051" transform="translate(25.935)" fill="#e0aa63"/>
            <rect id="Rectángulo_337515" data-name="Rectángulo 337515" width="61.571" height="48.051" fill="#efbc73"/>
            <g id="Grupo_946329" data-name="Grupo 946329" transform="translate(6.323 6.679)">
              <rect id="Rectángulo_337516" data-name="Rectángulo 337516" width="9.642" height="9.639" fill="#e0aa63"/>
              <rect id="Rectángulo_337517" data-name="Rectángulo 337517" width="9.642" height="9.639" transform="translate(0 19.244)" fill="#e0aa63"/>
              <rect id="Rectángulo_337518" data-name="Rectángulo 337518" width="9.642" height="9.639" transform="translate(19.25)" fill="#e0aa63"/>
              <rect id="Rectángulo_337519" data-name="Rectángulo 337519" width="9.642" height="9.639" transform="translate(19.25 19.244)" fill="#e0aa63"/>
              <rect id="Rectángulo_337520" data-name="Rectángulo 337520" width="9.642" height="9.639" transform="translate(38.5)" fill="#e0aa63"/>
              <rect id="Rectángulo_337521" data-name="Rectángulo 337521" width="9.642" height="9.639" transform="translate(38.5 19.244)" fill="#e0aa63"/>
            </g>
          </g>
          <g id="Grupo_946333" data-name="Grupo 946333" transform="translate(0 144.12)">
            <path id="Trazado_684709" data-name="Trazado 684709" d="M465.669,1446.813v-18.948l16.731,18.948v-18.948l16.731,18.948v-18.948l32.7,37.038-32.478,4.337-50.42-4.337v-37.038Z" transform="translate(-448.938 -1427.865)" fill="#efbc73"/>
            <g id="Grupo_946332" data-name="Grupo 946332" transform="translate(0 37.037)">
              <rect id="Rectángulo_337522" data-name="Rectángulo 337522" width="82.898" height="61.069" transform="translate(82.898 61.069) rotate(180)" fill="#efbc73"/>
              <g id="Grupo_946331" data-name="Grupo 946331" transform="translate(12.353 8.27)">
                <path id="Trazado_684710" data-name="Trazado 684710" d="M737.8,1654.481h-9.929a.218.218,0,0,1-.218-.218v-18.546a.218.218,0,0,1,.218-.218H737.8a.218.218,0,0,1,.218.218v18.546A.218.218,0,0,1,737.8,1654.481Zm-9.711-.437h9.493v-18.109h-9.493Z" transform="translate(-679.191 -1635.499)" fill="#363e44"/>
                <path id="Trazado_684711" data-name="Trazado 684711" d="M626.75,1654.481h-9.929a.218.218,0,0,1-.218-.218v-18.546a.218.218,0,0,1,.218-.218h9.929a.218.218,0,0,1,.218.218v18.546A.218.218,0,0,1,626.75,1654.481Zm-9.711-.437h9.493v-18.109h-9.493Z" transform="translate(-592.371 -1635.499)" fill="#363e44"/>
                <path id="Trazado_684712" data-name="Trazado 684712" d="M515.7,1654.481h-9.93a.218.218,0,0,1-.218-.218v-18.546a.218.218,0,0,1,.218-.218h9.93a.218.218,0,0,1,.218.218v18.546A.218.218,0,0,1,515.7,1654.481Zm-9.711-.437h9.493v-18.109h-9.493Z" transform="translate(-505.549 -1635.499)" fill="#363e44"/>
              </g>
            </g>
          </g>
        </g>
        <g id="Grupo_946341" data-name="Grupo 946341" transform="translate(0)">
          <path id="Trazado_684713" data-name="Trazado 684713" d="M805.1,449.826c7.87-6.117,8.029-28.077,4.362-34.8-8.526-15.621-23.183-13.358-23.183-13.358s-.93-30.343-22.7-37.333c-12.063-3.872-31.005-5.216-44.631,23.363-2.565-2.307-10.688-11.617-32.184-12.062-17.474-.362-31.143,9.6-36.927,31.215-6.064-16.653-27.169-25.573-44.054-23.182-36.327,5.143-44.5,34.639-44.974,55.11-14.348-18.753-32.279-21.383-51.5-14.111-15.607,5.9-22.716,29.524-22.641,47.743-4.582-1.9-22.189-2.42-35.681,6.309-16.955,10.97-26.055,46.518,14.03,67.906,2.571,43.6,79.615,52.332,108.83-2.074,3.081,3.011,13.718,21.831,37.55,21.686,21.768-.132,29.667-13.171,33.651-17.185,2.481,17.271,15.084,29.63,31.963,32.12,12.41,1.831,31.057-8.57,29.115-23.01,2.018,1.358,17.238,11.227,35.817,5.551,21.921-6.7,28.06-28.781,28.394-30.069,15.95,3.621,27.891-9.552,30.027-14.077a37.474,37.474,0,0,0,1.431-29.435c-.9-1.843-3.159-13.134-23.44-16.471-14.764-2.429-24.911,3.295-27.75,5.137a50.957,50.957,0,0,0,8.663-30.069,48.971,48.971,0,0,0-4.091-17.56,8.8,8.8,0,0,0,16.339-2.371c6.613-13.774,25.184-.3,25.84,9.024.449,6.383-1.122,11.318-1.534,11.954C799.539,449.77,801.874,449.826,805.1,449.826Z" transform="translate(-436.565 -362.277)" fill="#363e44" opacity="0.2"/>
          <g id="Grupo_946340" data-name="Grupo 946340" transform="translate(36.598 38.013)">
            <g id="Grupo_946336" data-name="Grupo 946336" transform="translate(82.801 108.918)">
              <path id="Trazado_684714" data-name="Trazado 684714" d="M1006.393,1112.061a.218.218,0,0,1-.218-.218V1098.37c0-8.71-5.793-15.8-12.913-15.8h-9.289a.218.218,0,1,1,0-.436h9.289c7.361,0,13.35,7.282,13.35,16.233v13.472A.218.218,0,0,1,1006.393,1112.061Z" transform="translate(-983.754 -1071.992)" fill="#f7f1eb"/>
              <g id="Grupo_946335" data-name="Grupo 946335" transform="translate(33.971)">
                <path id="Trazado_684715" data-name="Trazado 684715" d="M1139.656,1073.282a.218.218,0,0,1-.218-.218v-17c0-11.262,7.3-20.424,16.267-20.424h11.354a.218.218,0,1,1,0,.437h-11.354c-8.729,0-15.831,8.967-15.831,19.988v17A.218.218,0,0,1,1139.656,1073.282Z" transform="translate(-1139.438 -1035.641)" fill="#f7f1eb"/>
              </g>
            </g>
            <g id="Grupo_946339" data-name="Grupo 946339" transform="translate(137.149 71.285)">
              <g id="Grupo_946337" data-name="Grupo 946337" transform="translate(0 8.71)">
                <path id="Trazado_684716" data-name="Trazado 684716" d="M1267.553,940.733a.218.218,0,0,1-.218-.218v-17a20.014,20.014,0,0,0-19.994-19.988h-14.3a.218.218,0,1,1,0-.436h14.3a20.451,20.451,0,0,1,20.431,20.424v17A.218.218,0,0,1,1267.553,940.733Z" transform="translate(-1232.824 -903.091)" fill="#f7f1eb"/>
              </g>
              <g id="Grupo_946338" data-name="Grupo 946338" transform="translate(66.474 8.71)">
                <path id="Trazado_684717" data-name="Trazado 684717" d="M1537.684,940.733a.218.218,0,0,1-.218-.218v-17c0-11.262,7.3-20.424,16.267-20.424h11.353a.218.218,0,1,1,0,.436h-11.353c-8.729,0-15.831,8.967-15.831,19.988v17A.218.218,0,0,1,1537.684,940.733Z" transform="translate(-1537.466 -903.091)" fill="#f7f1eb"/>
              </g>
              <path id="Trazado_684718" data-name="Trazado 684718" d="M1467.5,909.156a.218.218,0,0,1-.218-.218V863.393a.218.218,0,0,1,.437,0v45.544A.218.218,0,0,1,1467.5,909.156Z" transform="translate(-1416.125 -863.175)" fill="#f7f1eb"/>
            </g>
            <path id="Trazado_684719" data-name="Trazado 684719" d="M638.276,1115.02a13.548,13.548,0,0,1-13.445-12.03,19.943,19.943,0,0,1-5.654-39.222.218.218,0,0,1,.111.422,19.506,19.506,0,0,0,5.73,38.357.219.219,0,0,1,.226.2,13.116,13.116,0,0,0,24.986,4.171.218.218,0,0,1,.4.181A13.573,13.573,0,0,1,638.276,1115.02Z" transform="translate(-604.29 -948.708)" fill="#f7f1eb"/>
            <path id="Trazado_684720" data-name="Trazado 684720" d="M1039.826,572.51a.219.219,0,0,1-.2-.124c-.036-.076-3.583-7.659,2.328-12.256,4.453-3.462,11.941-.871,13.719-.18a19.717,19.717,0,0,1,.414-8.835,19.952,19.952,0,0,1,37.483-2.708.218.218,0,0,1-.4.176,19.512,19.512,0,0,0-36.994,11.676.218.218,0,0,1-.3.243c-.088-.038-8.887-3.735-13.654-.028-5.631,4.379-2.237,11.65-2.2,11.723a.218.218,0,0,1-.2.313Z" transform="translate(-943.785 -536.496)" fill="#f7f1eb"/>
            <path id="Trazado_684721" data-name="Trazado 684721" d="M1523.528,562.347a.218.218,0,0,1-.218-.218,25.65,25.65,0,0,1,46.939-14.3,11.008,11.008,0,0,1,18.21,8.321.218.218,0,1,1-.436,0,10.571,10.571,0,0,0-17.67-7.83.218.218,0,0,1-.329-.041,25.213,25.213,0,0,0-46.277,13.85A.218.218,0,0,1,1523.528,562.347Z" transform="translate(-1322.776 -536.487)" fill="#f7f1eb"/>
          </g>
        </g>
      </g>
      <g id="Grupo_946345" data-name="Grupo 946345" transform="translate(375.763 363.332)">
        <g id="Grupo_946343" data-name="Grupo 946343" transform="translate(0 0.218)">
          <path id="Trazado_684722" data-name="Trazado 684722" d="M549.2,541.848H527.63l-4.812-76.006h31.191Z" transform="translate(-522.818 -465.843)" fill="#d87355"/>
          <rect id="Rectángulo_337523" data-name="Rectángulo 337523" width="21.566" height="18.39" transform="translate(4.813 86.482)" fill="#d87355"/>
        </g>
        <g id="Grupo_946344" data-name="Grupo 946344" transform="translate(4.594)">
          <path id="Trazado_684723" data-name="Trazado 684723" d="M570.469,541.284H548.9a.218.218,0,0,1-.218-.2l-4.813-76.006a.218.218,0,0,1,.218-.232h31.191a.218.218,0,0,1,.218.232l-4.813,76.006A.218.218,0,0,1,570.469,541.284Zm-21.361-.437h21.156l4.785-75.569H544.323Z" transform="translate(-543.872 -464.842)" fill="#363e44"/>
          <path id="Trazado_684724" data-name="Trazado 684724" d="M587.712,880H566.146a.218.218,0,0,1-.218-.218V861.4a.218.218,0,0,1,.218-.218h21.566a.218.218,0,0,1,.218.218v18.39A.218.218,0,0,1,587.712,880Zm-21.348-.436h21.13V861.614h-21.13Z" transform="translate(-561.115 -774.696)" fill="#363e44"/>
        </g>
      </g>
      <rect id="Rectángulo_337524" data-name="Rectángulo 337524" width="356.042" height="6.342" transform="translate(359.641 671.574)" fill="#e6d0be"/>
    </g>
    <g id="Grupo_944846" data-name="Grupo 944846" transform="translate(-535 1377.609)">
      <path id="Trazado_683361" data-name="Trazado 683361" d="M15,0H152.606a15,15,0,0,1,15,15V27.862a15,15,0,0,1-15,15H15a15,15,0,0,1-15-15V15A15,15,0,0,1,15,0Z" transform="matrix(1, -0.017, 0.017, 1, 1030, 1112.925)" fill="#f1cc4b"/>
      <path id="Trazado_723458" data-name="Trazado 723458" d="M32.377,19H29.117l-1.96-3.243q-.22-.369-.422-.659a3.662,3.662,0,0,0-.409-.5,1.625,1.625,0,0,0-.431-.316,1.093,1.093,0,0,0-.488-.11h-.765V19H21.8V6.4h4.5q4.588,0,4.588,3.428a3.55,3.55,0,0,1-.2,1.217,3.382,3.382,0,0,1-.571,1.006,3.621,3.621,0,0,1-.892.773,4.6,4.6,0,0,1-1.165.51v.035a1.806,1.806,0,0,1,.545.286,3.9,3.9,0,0,1,.51.461,6.438,6.438,0,0,1,.47.567q.224.3.409.593ZM24.643,8.523V12.03h1.23a2.04,2.04,0,0,0,1.468-.527,1.76,1.76,0,0,0,.563-1.327q0-1.652-1.978-1.652ZM40.92,15.291H35.049q.141,1.96,2.47,1.96a4.822,4.822,0,0,0,2.61-.7v2a6.858,6.858,0,0,1-3.243.668A4.565,4.565,0,0,1,33.5,18.011a4.566,4.566,0,0,1-1.2-3.371,4.816,4.816,0,0,1,1.3-3.551,4.334,4.334,0,0,1,3.2-1.31,3.933,3.933,0,0,1,3.045,1.169,4.5,4.5,0,0,1,1.077,3.173Zm-2.575-1.705q0-1.934-1.564-1.934a1.494,1.494,0,0,0-1.156.554,2.513,2.513,0,0,0-.593,1.38Zm3.639,5.177v-2.25a5.913,5.913,0,0,0,1.367.615,4.531,4.531,0,0,0,1.288.2,2.762,2.762,0,0,0,1.165-.2.653.653,0,0,0,.426-.615.569.569,0,0,0-.193-.439,1.8,1.8,0,0,0-.5-.308,5.635,5.635,0,0,0-.664-.237q-.36-.105-.694-.237a6.653,6.653,0,0,1-.945-.435,2.731,2.731,0,0,1-.686-.541,2.125,2.125,0,0,1-.422-.712,2.841,2.841,0,0,1-.145-.958,2.466,2.466,0,0,1,.33-1.3,2.692,2.692,0,0,1,.879-.892,4.016,4.016,0,0,1,1.257-.51,6.553,6.553,0,0,1,1.472-.163,8.168,8.168,0,0,1,1.213.092,9.053,9.053,0,0,1,1.213.268v2.145a4.383,4.383,0,0,0-1.129-.461,4.764,4.764,0,0,0-1.182-.154,2.619,2.619,0,0,0-.514.048,1.693,1.693,0,0,0-.426.141.783.783,0,0,0-.29.237.546.546,0,0,0-.105.33.609.609,0,0,0,.158.422,1.374,1.374,0,0,0,.413.3,4.078,4.078,0,0,0,.567.229q.312.1.62.207a8.056,8.056,0,0,1,1,.422,3.2,3.2,0,0,1,.769.536,2.105,2.105,0,0,1,.492.721,2.884,2.884,0,0,1-.176,2.351,2.78,2.78,0,0,1-.923.923,4.185,4.185,0,0,1-1.327.519,7.357,7.357,0,0,1-1.56.163A8.042,8.042,0,0,1,41.984,18.763Zm12.8.457a4.838,4.838,0,0,1-3.538-1.261,4.573,4.573,0,0,1-1.288-3.423,4.573,4.573,0,0,1,1.336-3.494A5.048,5.048,0,0,1,54.9,9.78a4.78,4.78,0,0,1,3.516,1.261,4.483,4.483,0,0,1,1.274,3.335,4.759,4.759,0,0,1-1.314,3.542A4.892,4.892,0,0,1,54.781,19.22Zm.07-7.312a1.852,1.852,0,0,0-1.529.677,2.984,2.984,0,0,0-.545,1.916q0,2.593,2.092,2.593,2,0,2-2.663Q56.864,11.907,54.851,11.907ZM64.273,19H61.5V5.676h2.777Zm10.89,0H72.394V17.629H72.35A3.141,3.141,0,0,1,69.6,19.22q-3.129,0-3.129-3.788V10h2.769v5.186q0,1.907,1.512,1.907a1.5,1.5,0,0,0,1.2-.523,2.109,2.109,0,0,0,.448-1.419V10h2.769Zm9.158-.325a5.492,5.492,0,0,1-2.716.545,4.593,4.593,0,0,1-3.357-1.257,4.341,4.341,0,0,1-1.283-3.243A4.782,4.782,0,0,1,78.34,11.1,5.083,5.083,0,0,1,82.018,9.78a4.72,4.72,0,0,1,2.3.422v2.355a3.166,3.166,0,0,0-1.942-.65,2.559,2.559,0,0,0-1.894.7,2.607,2.607,0,0,0-.7,1.929,2.565,2.565,0,0,0,.668,1.876,2.455,2.455,0,0,0,1.837.681,3.666,3.666,0,0,0,2.03-.65Zm3.226-10.1A1.622,1.622,0,0,1,86.4,8.159a1.345,1.345,0,0,1-.448-1.024,1.3,1.3,0,0,1,.448-1.02,1.88,1.88,0,0,1,2.307,0,1.3,1.3,0,0,1,.444,1.02A1.34,1.34,0,0,1,88.7,8.172,1.65,1.65,0,0,1,87.546,8.576ZM88.917,19H86.14V10h2.777Zm6.627.22a4.838,4.838,0,0,1-3.538-1.261,4.573,4.573,0,0,1-1.288-3.423,4.573,4.573,0,0,1,1.336-3.494A5.048,5.048,0,0,1,95.667,9.78a4.78,4.78,0,0,1,3.516,1.261,4.483,4.483,0,0,1,1.274,3.335,4.759,4.759,0,0,1-1.314,3.542A4.892,4.892,0,0,1,95.544,19.22Zm.07-7.312a1.852,1.852,0,0,0-1.529.677,2.984,2.984,0,0,0-.545,1.916q0,2.593,2.092,2.593,2,0,2-2.663Q97.627,11.907,95.615,11.907ZM110.952,19h-2.769V14q0-2.092-1.494-2.092a1.483,1.483,0,0,0-1.187.554,2.109,2.109,0,0,0-.466,1.406V19h-2.777V10h2.777v1.424h.035a3.183,3.183,0,0,1,2.892-1.644q2.988,0,2.988,3.709Zm10.283-3.709h-5.871q.141,1.96,2.47,1.96a4.822,4.822,0,0,0,2.61-.7v2a6.858,6.858,0,0,1-3.243.668,4.565,4.565,0,0,1-3.384-1.208,4.566,4.566,0,0,1-1.2-3.371,4.816,4.816,0,0,1,1.3-3.551,4.334,4.334,0,0,1,3.2-1.31,3.933,3.933,0,0,1,3.045,1.169,4.5,4.5,0,0,1,1.077,3.173Zm-2.575-1.705q0-1.934-1.564-1.934a1.494,1.494,0,0,0-1.156.554,2.513,2.513,0,0,0-.593,1.38Zm3.639,5.177v-2.25a5.913,5.913,0,0,0,1.367.615,4.531,4.531,0,0,0,1.288.2,2.762,2.762,0,0,0,1.165-.2.653.653,0,0,0,.426-.615.569.569,0,0,0-.193-.439,1.8,1.8,0,0,0-.5-.308,5.635,5.635,0,0,0-.664-.237q-.36-.105-.694-.237a6.653,6.653,0,0,1-.945-.435,2.731,2.731,0,0,1-.686-.541,2.125,2.125,0,0,1-.422-.712,2.841,2.841,0,0,1-.145-.958,2.466,2.466,0,0,1,.33-1.3,2.692,2.692,0,0,1,.879-.892,4.016,4.016,0,0,1,1.257-.51,6.553,6.553,0,0,1,1.472-.163,8.168,8.168,0,0,1,1.213.092,9.053,9.053,0,0,1,1.213.268v2.145a4.383,4.383,0,0,0-1.129-.461,4.764,4.764,0,0,0-1.182-.154,2.619,2.619,0,0,0-.514.048,1.693,1.693,0,0,0-.426.141.783.783,0,0,0-.29.237.546.546,0,0,0-.105.33.609.609,0,0,0,.158.422,1.374,1.374,0,0,0,.413.3,4.078,4.078,0,0,0,.567.229q.312.1.62.207a8.056,8.056,0,0,1,1,.422,3.2,3.2,0,0,1,.769.536,2.105,2.105,0,0,1,.492.721,2.884,2.884,0,0,1-.176,2.351,2.78,2.78,0,0,1-.923.923,4.185,4.185,0,0,1-1.327.519,7.357,7.357,0,0,1-1.56.163A8.042,8.042,0,0,1,122.3,18.763Z" transform="translate(1040 1121)" fill="#12263f"/>
    </g>
    <rect id="Rectángulo_337525" data-name="Rectángulo 337525" width="168" height="65" rx="15" transform="translate(716 2266)" fill="#f1cc4b"/>
    <path id="Trazado_723459" data-name="Trazado 723459" d="M18.249,19H15.384l-5.194-7.919a11.451,11.451,0,0,1-.633-1.046H9.521q.07.668.07,2.039V19H6.911V6.4H9.97l5,7.673q.343.519.633,1.028h.035a13.476,13.476,0,0,1-.07-1.731V6.4h2.681Zm6.9.22a4.838,4.838,0,0,1-3.538-1.261,4.573,4.573,0,0,1-1.288-3.423,4.573,4.573,0,0,1,1.336-3.494A5.048,5.048,0,0,1,25.271,9.78a4.78,4.78,0,0,1,3.516,1.261,4.483,4.483,0,0,1,1.274,3.335,4.759,4.759,0,0,1-1.314,3.542A4.892,4.892,0,0,1,25.148,19.22Zm.07-7.312a1.852,1.852,0,0,0-1.529.677,2.984,2.984,0,0,0-.545,1.916q0,2.593,2.092,2.593,2,0,2-2.663Q27.231,11.907,25.219,11.907Zm12.516.6a2.409,2.409,0,0,0-1.169-.272,1.684,1.684,0,0,0-1.415.664,2.9,2.9,0,0,0-.51,1.806V19H31.863V10h2.777v1.67h.035a2.4,2.4,0,0,1,2.373-1.828,1.788,1.788,0,0,1,.686.105ZM53.37,19H50.6V13.867q0-1.96-1.441-1.96a1.324,1.324,0,0,0-1.116.589,2.42,2.42,0,0,0-.431,1.468V19H44.836V13.814q0-1.907-1.415-1.907a1.356,1.356,0,0,0-1.138.563A2.475,2.475,0,0,0,41.856,14v5H39.079V10h2.777v1.406h.035A3.41,3.41,0,0,1,44.8,9.78a2.592,2.592,0,0,1,2.61,1.679A3.329,3.329,0,0,1,50.435,9.78q2.936,0,2.936,3.621Zm9.686,0H60.428V17.708h-.035a2.933,2.933,0,0,1-2.681,1.512,2.8,2.8,0,0,1-2.061-.743A2.661,2.661,0,0,1,54.9,16.5q0-2.619,3.1-3.023l2.443-.325q0-1.477-1.6-1.477a5.46,5.46,0,0,0-3.059.958V10.536a6.881,6.881,0,0,1,1.586-.527,8.339,8.339,0,0,1,1.833-.229q3.85,0,3.85,3.841Zm-2.61-3.656v-.606l-1.635.211q-1.354.176-1.354,1.222a1.01,1.01,0,0,0,.33.778,1.266,1.266,0,0,0,.892.3,1.644,1.644,0,0,0,1.274-.541A1.952,1.952,0,0,0,60.445,15.344Zm4.219,3.419v-2.25a5.913,5.913,0,0,0,1.367.615,4.531,4.531,0,0,0,1.288.2,2.762,2.762,0,0,0,1.165-.2.653.653,0,0,0,.426-.615.569.569,0,0,0-.193-.439,1.8,1.8,0,0,0-.5-.308,5.635,5.635,0,0,0-.664-.237q-.36-.105-.694-.237a6.653,6.653,0,0,1-.945-.435,2.731,2.731,0,0,1-.686-.541,2.125,2.125,0,0,1-.422-.712,2.841,2.841,0,0,1-.145-.958,2.466,2.466,0,0,1,.33-1.3,2.692,2.692,0,0,1,.879-.892,4.016,4.016,0,0,1,1.257-.51A6.553,6.553,0,0,1,68.6,9.78a8.168,8.168,0,0,1,1.213.092,9.053,9.053,0,0,1,1.213.268v2.145a4.383,4.383,0,0,0-1.129-.461,4.764,4.764,0,0,0-1.182-.154,2.619,2.619,0,0,0-.514.048,1.693,1.693,0,0,0-.426.141.783.783,0,0,0-.29.237.546.546,0,0,0-.105.33.609.609,0,0,0,.158.422,1.374,1.374,0,0,0,.413.3,4.078,4.078,0,0,0,.567.229q.312.1.62.207a8.056,8.056,0,0,1,1,.422,3.2,3.2,0,0,1,.769.536,2.105,2.105,0,0,1,.492.721,2.884,2.884,0,0,1-.176,2.351,2.78,2.78,0,0,1-.923.923,4.185,4.185,0,0,1-1.327.519,7.357,7.357,0,0,1-1.56.163A8.042,8.042,0,0,1,64.664,18.763Zm18.914.132a4.105,4.105,0,0,1-1.854.325q-2.936,0-2.936-3.05V12.048H77.329V10h1.459V8.058l2.769-.791V10h2.021v2.048H81.557v3.639q0,1.406,1.116,1.406a1.882,1.882,0,0,0,.905-.255Zm9.58-3.6H87.287q.141,1.96,2.47,1.96a4.822,4.822,0,0,0,2.61-.7v2a6.858,6.858,0,0,1-3.243.668,4.565,4.565,0,0,1-3.384-1.208,4.566,4.566,0,0,1-1.2-3.371,4.816,4.816,0,0,1,1.3-3.551,4.334,4.334,0,0,1,3.2-1.31,3.933,3.933,0,0,1,3.045,1.169,4.5,4.5,0,0,1,1.077,3.173Zm-2.575-1.705q0-1.934-1.564-1.934a1.494,1.494,0,0,0-1.156.554,2.513,2.513,0,0,0-.593,1.38ZM92,5.737,89.247,8.576h-2l2.285-2.839Zm9.633,12.938a5.492,5.492,0,0,1-2.716.545,4.593,4.593,0,0,1-3.357-1.257,4.341,4.341,0,0,1-1.283-3.243A4.782,4.782,0,0,1,95.65,11.1,5.083,5.083,0,0,1,99.328,9.78a4.72,4.72,0,0,1,2.3.422v2.355a3.166,3.166,0,0,0-1.942-.65,2.559,2.559,0,0,0-1.894.7,2.607,2.607,0,0,0-.7,1.929,2.565,2.565,0,0,0,.668,1.876,2.455,2.455,0,0,0,1.837.681,3.666,3.666,0,0,0,2.03-.65ZM112.143,19h-2.769V14q0-2.092-1.494-2.092a1.483,1.483,0,0,0-1.187.554,2.109,2.109,0,0,0-.466,1.406V19H103.45V10h2.777v1.424h.035a3.183,3.183,0,0,1,2.892-1.644q2.988,0,2.988,3.709Zm3.6-10.424a1.622,1.622,0,0,1-1.151-.417,1.345,1.345,0,0,1-.448-1.024,1.3,1.3,0,0,1,.448-1.02,1.88,1.88,0,0,1,2.307,0,1.3,1.3,0,0,1,.444,1.02,1.34,1.34,0,0,1-.444,1.037A1.65,1.65,0,0,1,115.746,8.576ZM117.117,19H114.34V10h2.777Zm9.158-.325a5.492,5.492,0,0,1-2.716.545,4.593,4.593,0,0,1-3.357-1.257,4.341,4.341,0,0,1-1.283-3.243,4.782,4.782,0,0,1,1.375-3.617,5.083,5.083,0,0,1,3.678-1.323,4.72,4.72,0,0,1,2.3.422v2.355a3.166,3.166,0,0,0-1.942-.65,2.559,2.559,0,0,0-1.894.7,2.607,2.607,0,0,0-.7,1.929,2.565,2.565,0,0,0,.668,1.876,2.455,2.455,0,0,0,1.837.681,3.666,3.666,0,0,0,2.03-.65Zm9.308.325h-2.628V17.708h-.035a2.933,2.933,0,0,1-2.681,1.512,2.8,2.8,0,0,1-2.061-.743,2.661,2.661,0,0,1-.751-1.982q0-2.619,3.1-3.023l2.443-.325q0-1.477-1.6-1.477a5.46,5.46,0,0,0-3.059.958V10.536a6.881,6.881,0,0,1,1.586-.527,8.339,8.339,0,0,1,1.833-.229q3.85,0,3.85,3.841Zm-2.61-3.656v-.606l-1.635.211q-1.354.176-1.354,1.222a1.01,1.01,0,0,0,.33.778,1.266,1.266,0,0,0,.892.3,1.644,1.644,0,0,0,1.274-.541A1.952,1.952,0,0,0,132.973,15.344Zm4.219,3.419v-2.25a5.913,5.913,0,0,0,1.367.615,4.531,4.531,0,0,0,1.288.2,2.762,2.762,0,0,0,1.165-.2.653.653,0,0,0,.426-.615.569.569,0,0,0-.193-.439,1.8,1.8,0,0,0-.5-.308,5.635,5.635,0,0,0-.664-.237q-.36-.105-.694-.237a6.653,6.653,0,0,1-.945-.435,2.731,2.731,0,0,1-.686-.541,2.125,2.125,0,0,1-.422-.712,2.841,2.841,0,0,1-.145-.958,2.466,2.466,0,0,1,.33-1.3,2.692,2.692,0,0,1,.879-.892,4.016,4.016,0,0,1,1.257-.51,6.553,6.553,0,0,1,1.472-.163,8.168,8.168,0,0,1,1.213.092,9.053,9.053,0,0,1,1.213.268v2.145a4.383,4.383,0,0,0-1.129-.461,4.764,4.764,0,0,0-1.182-.154,2.619,2.619,0,0,0-.514.048,1.693,1.693,0,0,0-.426.141.783.783,0,0,0-.29.237.546.546,0,0,0-.105.33.609.609,0,0,0,.158.422,1.374,1.374,0,0,0,.413.3,4.078,4.078,0,0,0,.567.229q.312.1.62.207a8.056,8.056,0,0,1,1,.422,3.2,3.2,0,0,1,.769.536,2.105,2.105,0,0,1,.492.721,2.884,2.884,0,0,1-.176,2.351,2.78,2.78,0,0,1-.923.923,4.185,4.185,0,0,1-1.327.519,7.357,7.357,0,0,1-1.56.163A8.042,8.042,0,0,1,137.191,18.763ZM29.635,43.675a5.492,5.492,0,0,1-2.716.545,4.593,4.593,0,0,1-3.357-1.257,4.341,4.341,0,0,1-1.283-3.243A4.782,4.782,0,0,1,23.654,36.1a5.083,5.083,0,0,1,3.678-1.323,4.72,4.72,0,0,1,2.3.422v2.355a3.166,3.166,0,0,0-1.942-.65,2.559,2.559,0,0,0-1.894.7,2.607,2.607,0,0,0-.7,1.929,2.565,2.565,0,0,0,.668,1.876,2.455,2.455,0,0,0,1.837.681,3.666,3.666,0,0,0,2.03-.65Zm6.108.545a4.838,4.838,0,0,1-3.538-1.261,4.573,4.573,0,0,1-1.288-3.423,4.573,4.573,0,0,1,1.336-3.494,5.048,5.048,0,0,1,3.612-1.261,4.78,4.78,0,0,1,3.516,1.261,4.483,4.483,0,0,1,1.274,3.335,4.759,4.759,0,0,1-1.314,3.542A4.892,4.892,0,0,1,35.744,44.22Zm.07-7.312a1.852,1.852,0,0,0-1.529.677A2.984,2.984,0,0,0,33.74,39.5q0,2.593,2.092,2.593,2,0,2-2.663Q37.827,36.907,35.814,36.907ZM45.236,44H42.458V30.676h2.777Zm6.627.22a4.838,4.838,0,0,1-3.538-1.261,4.573,4.573,0,0,1-1.288-3.423,4.573,4.573,0,0,1,1.336-3.494,5.048,5.048,0,0,1,3.612-1.261A4.78,4.78,0,0,1,55.5,36.042a4.483,4.483,0,0,1,1.274,3.335,4.759,4.759,0,0,1-1.314,3.542A4.892,4.892,0,0,1,51.863,44.22Zm.07-7.312a1.852,1.852,0,0,0-1.529.677,2.984,2.984,0,0,0-.545,1.916q0,2.593,2.092,2.593,2,0,2-2.663Q53.946,36.907,51.933,36.907ZM72.869,44H70.1V38.867q0-1.96-1.441-1.96a1.324,1.324,0,0,0-1.116.589,2.42,2.42,0,0,0-.431,1.468V44H64.334V38.814q0-1.907-1.415-1.907a1.356,1.356,0,0,0-1.138.563A2.475,2.475,0,0,0,61.355,39v5H58.578V35h2.777v1.406h.035A3.41,3.41,0,0,1,64.3,34.78a2.592,2.592,0,0,1,2.61,1.679,3.329,3.329,0,0,1,3.023-1.679q2.936,0,2.936,3.621Zm5.01-1.046h-.035V44H75.066V30.676h2.777v5.678h.035a3.3,3.3,0,0,1,2.927-1.573,3.211,3.211,0,0,1,2.681,1.2,5.155,5.155,0,0,1,.94,3.27,5.582,5.582,0,0,1-1.1,3.612,3.579,3.579,0,0,1-2.936,1.362A2.836,2.836,0,0,1,77.878,42.954Zm-.079-3.8v.923a2.107,2.107,0,0,0,.5,1.441,1.63,1.63,0,0,0,1.283.571,1.7,1.7,0,0,0,1.472-.734,3.543,3.543,0,0,0,.523-2.079,2.819,2.819,0,0,0-.479-1.745,1.616,1.616,0,0,0-1.367-.628,1.766,1.766,0,0,0-1.384.624A2.37,2.37,0,0,0,77.8,39.157Zm9.835-5.581a1.622,1.622,0,0,1-1.151-.417,1.345,1.345,0,0,1-.448-1.024,1.3,1.3,0,0,1,.448-1.02,1.88,1.88,0,0,1,2.307,0,1.3,1.3,0,0,1,.444,1.02,1.34,1.34,0,0,1-.444,1.037A1.65,1.65,0,0,1,87.634,33.576ZM89.005,44H86.228V35h2.777Zm9.826,0H96.2V42.708h-.035a2.933,2.933,0,0,1-2.681,1.512,2.8,2.8,0,0,1-2.061-.743,2.661,2.661,0,0,1-.751-1.982q0-2.619,3.1-3.023l2.443-.325q0-1.477-1.6-1.477a5.46,5.46,0,0,0-3.059.958V35.536a6.881,6.881,0,0,1,1.586-.527,8.339,8.339,0,0,1,1.833-.229q3.85,0,3.85,3.841Zm-2.61-3.656v-.606l-1.635.211q-1.354.176-1.354,1.222a1.01,1.01,0,0,0,.33.778,1.266,1.266,0,0,0,.892.3,1.644,1.644,0,0,0,1.274-.541A1.952,1.952,0,0,0,96.221,40.344ZM109.721,44h-2.769V39q0-2.092-1.494-2.092a1.483,1.483,0,0,0-1.187.554,2.109,2.109,0,0,0-.466,1.406V44h-2.777V35h2.777v1.424h.035a3.183,3.183,0,0,1,2.892-1.644q2.988,0,2.988,3.709Zm9.686,0h-2.628V42.708h-.035a2.933,2.933,0,0,1-2.681,1.512A2.8,2.8,0,0,1,112,43.477a2.661,2.661,0,0,1-.751-1.982q0-2.619,3.1-3.023l2.443-.325q0-1.477-1.6-1.477a5.46,5.46,0,0,0-3.059.958V35.536a6.881,6.881,0,0,1,1.586-.527,8.339,8.339,0,0,1,1.833-.229q3.85,0,3.85,3.841Zm-2.61-3.656v-.606l-1.635.211q-1.354.176-1.354,1.222a1.01,1.01,0,0,0,.33.778,1.266,1.266,0,0,0,.892.3,1.644,1.644,0,0,0,1.274-.541A1.952,1.952,0,0,0,116.8,40.344Zm4.219,3.419v-2.25a5.913,5.913,0,0,0,1.367.615,4.531,4.531,0,0,0,1.288.2,2.762,2.762,0,0,0,1.165-.2.653.653,0,0,0,.426-.615.569.569,0,0,0-.193-.439,1.8,1.8,0,0,0-.5-.308,5.635,5.635,0,0,0-.664-.237q-.36-.105-.694-.237a6.653,6.653,0,0,1-.945-.435,2.731,2.731,0,0,1-.686-.541,2.125,2.125,0,0,1-.422-.712,2.841,2.841,0,0,1-.145-.958,2.466,2.466,0,0,1,.33-1.3,2.692,2.692,0,0,1,.879-.892,4.016,4.016,0,0,1,1.257-.51,6.553,6.553,0,0,1,1.472-.163,8.168,8.168,0,0,1,1.213.092,9.053,9.053,0,0,1,1.213.268v2.145a4.383,4.383,0,0,0-1.129-.461,4.764,4.764,0,0,0-1.182-.154,2.619,2.619,0,0,0-.514.048,1.693,1.693,0,0,0-.426.141.783.783,0,0,0-.29.237.546.546,0,0,0-.105.33.609.609,0,0,0,.158.422,1.374,1.374,0,0,0,.413.3,4.078,4.078,0,0,0,.567.229q.312.1.62.207a8.056,8.056,0,0,1,1,.422,3.2,3.2,0,0,1,.769.536,2.105,2.105,0,0,1,.492.721,2.884,2.884,0,0,1-.176,2.351,2.78,2.78,0,0,1-.923.923,4.185,4.185,0,0,1-1.327.519,7.357,7.357,0,0,1-1.56.163A8.042,8.042,0,0,1,121.015,43.763Z" transform="translate(725 2274)" fill="#12263f"/>
    <g id="Grupo_946350" data-name="Grupo 946350" transform="translate(0 -1)">
      <rect id="Rectángulo_337527" data-name="Rectángulo 337527" width="168" height="65" rx="15" transform="translate(716 2659)" fill="#f1cc4b"/>
      <path id="Trazado_723461" data-name="Trazado 723461" d="M22.042,19H19.176l-5.194-7.919a11.451,11.451,0,0,1-.633-1.046h-.035q.07.668.07,2.039V19H10.7V6.4h3.059l5,7.673q.343.519.633,1.028h.035a13.476,13.476,0,0,1-.07-1.731V6.4h2.681Zm6.9.22A4.838,4.838,0,0,1,25.4,17.958a4.573,4.573,0,0,1-1.288-3.423,4.573,4.573,0,0,1,1.336-3.494A5.048,5.048,0,0,1,29.064,9.78a4.78,4.78,0,0,1,3.516,1.261,4.483,4.483,0,0,1,1.274,3.335,4.759,4.759,0,0,1-1.314,3.542A4.892,4.892,0,0,1,28.941,19.22Zm.07-7.312a1.852,1.852,0,0,0-1.529.677,2.984,2.984,0,0,0-.545,1.916q0,2.593,2.092,2.593,2,0,2-2.663Q31.024,11.907,29.011,11.907Zm12.516.6a2.409,2.409,0,0,0-1.169-.272,1.684,1.684,0,0,0-1.415.664,2.9,2.9,0,0,0-.51,1.806V19H35.656V10h2.777v1.67h.035a2.4,2.4,0,0,1,2.373-1.828,1.788,1.788,0,0,1,.686.105ZM57.163,19H54.394V13.867q0-1.96-1.441-1.96a1.324,1.324,0,0,0-1.116.589,2.42,2.42,0,0,0-.431,1.468V19H48.628V13.814q0-1.907-1.415-1.907a1.356,1.356,0,0,0-1.138.563A2.475,2.475,0,0,0,45.649,14v5H42.872V10h2.777v1.406h.035A3.41,3.41,0,0,1,48.593,9.78a2.592,2.592,0,0,1,2.61,1.679A3.329,3.329,0,0,1,54.227,9.78q2.936,0,2.936,3.621Zm9.686,0H64.22V17.708h-.035A2.933,2.933,0,0,1,61.5,19.22a2.8,2.8,0,0,1-2.061-.743,2.661,2.661,0,0,1-.751-1.982q0-2.619,3.1-3.023l2.443-.325q0-1.477-1.6-1.477a5.46,5.46,0,0,0-3.059.958V10.536a6.881,6.881,0,0,1,1.586-.527A8.339,8.339,0,0,1,63,9.78q3.85,0,3.85,3.841Zm-2.61-3.656v-.606l-1.635.211q-1.354.176-1.354,1.222a1.01,1.01,0,0,0,.33.778,1.266,1.266,0,0,0,.892.3,1.644,1.644,0,0,0,1.274-.541A1.952,1.952,0,0,0,64.238,15.344Zm20.32-1.8q0,5.678-5.291,5.678-5.133,0-5.133-5.546V6.4h2.848v7.313q0,3.059,2.391,3.059,2.347,0,2.347-2.953V6.4h2.839ZM98.638,19H95.773l-5.194-7.919a11.451,11.451,0,0,1-.633-1.046h-.035q.07.668.07,2.039V19H87.3V6.4h3.059l5,7.673q.343.519.633,1.028h.035a13.476,13.476,0,0,1-.07-1.731V6.4h2.681Zm10.441,0h-7.559V6.4h7.269V8.708h-4.43v2.8h4.122v2.3H104.36V16.7h4.72Zm6.645-3.832h-4.808V13.226h4.808ZM125.937,19h-7.559V6.4h7.269V8.708h-4.43v2.8h4.122v2.3h-4.122V16.7h4.72ZM139.3,19h-2.865l-5.194-7.919a11.451,11.451,0,0,1-.633-1.046h-.035q.07.668.07,2.039V19h-2.681V6.4h3.059l5,7.673q.343.519.633,1.028h.035a13.476,13.476,0,0,1-.07-1.731V6.4H139.3ZM30.8,31.115V44H28.031V34.244a3.315,3.315,0,0,1-.541.382,5.58,5.58,0,0,1-.664.325,5.925,5.925,0,0,1-.729.246,5.328,5.328,0,0,1-.747.145V33a11.739,11.739,0,0,0,3.771-1.89Zm4.069,12.472V41.17a4.878,4.878,0,0,0,2.953.923,2.659,2.659,0,0,0,1.657-.457,1.517,1.517,0,0,0,.593-1.274,1.449,1.449,0,0,0-.734-1.3,3.8,3.8,0,0,0-2.017-.457H36.152V36.477h1.081q2.461,0,2.461-1.635,0-1.538-1.89-1.538a4.308,4.308,0,0,0-2.461.817V31.854a6.8,6.8,0,0,1,3.094-.668,4.669,4.669,0,0,1,3.01.87,2.769,2.769,0,0,1,1.077,2.259,2.937,2.937,0,0,1-2.5,3.094v.044a3.405,3.405,0,0,1,2.109.971A2.738,2.738,0,0,1,42.9,40.4a3.382,3.382,0,0,1-1.292,2.795,5.586,5.586,0,0,1-3.568,1.028A6.9,6.9,0,0,1,34.869,43.587ZM53.81,33q-.844,1.521-1.512,2.852T51.12,38.476a24.783,24.783,0,0,0-.87,2.637A25.468,25.468,0,0,0,49.661,44h-2.9a23.731,23.731,0,0,1,.65-2.83,26.541,26.541,0,0,1,.936-2.641q.532-1.279,1.178-2.492t1.367-2.373H45.038V31.4H53.81Zm4.509,8.7h5.344V44H55.277v-.949a4.418,4.418,0,0,1,.325-1.736,5.76,5.76,0,0,1,.817-1.38A7.09,7.09,0,0,1,57.5,38.854q.584-.47,1.112-.848.554-.4.971-.756a5.534,5.534,0,0,0,.7-.716,2.723,2.723,0,0,0,.426-.721,2.143,2.143,0,0,0,.141-.778,1.563,1.563,0,0,0-.457-1.222A2.032,2.032,0,0,0,59,33.4a4.694,4.694,0,0,0-3.111,1.292V32.249a6.679,6.679,0,0,1,3.709-1.063,5.478,5.478,0,0,1,1.718.25,3.635,3.635,0,0,1,1.288.716,3.055,3.055,0,0,1,.8,1.129,3.811,3.811,0,0,1,.277,1.481,4.176,4.176,0,0,1-.268,1.547,4.753,4.753,0,0,1-.712,1.23,6.458,6.458,0,0,1-1.024,1.015q-.58.461-1.2.892-.422.3-.813.593a7.707,7.707,0,0,0-.69.58,3.149,3.149,0,0,0-.475.558A.963.963,0,0,0,58.318,41.7Zm7.831,1.978V41.3a5.181,5.181,0,0,0,2.751.791,2.584,2.584,0,0,0,1.718-.523,1.76,1.76,0,0,0,.62-1.419q0-1.872-2.646-1.872a19.59,19.59,0,0,0-2.25.149l.475-7.031h6.671v2.268H68.936l-.176,2.522q.677-.053,1.169-.053a4.3,4.3,0,0,1,3.041,1.02,3.56,3.56,0,0,1,1.1,2.742,4.048,4.048,0,0,1-1.31,3.116,5.032,5.032,0,0,1-3.551,1.208A7.6,7.6,0,0,1,66.149,43.675Zm11.514-5.889a1.63,1.63,0,0,1-1.143-.417,1.343,1.343,0,0,1-.457-1.033,1.306,1.306,0,0,1,.47-1.037,1.736,1.736,0,0,1,1.173-.4,1.671,1.671,0,0,1,1.165.409,1.41,1.41,0,0,1-.009,2.079A1.754,1.754,0,0,1,77.663,37.786Zm0,6.434a1.62,1.62,0,0,1-1.143-.422,1.356,1.356,0,0,1-.457-1.037,1.306,1.306,0,0,1,.47-1.037,1.736,1.736,0,0,1,1.173-.4,1.671,1.671,0,0,1,1.165.409,1.415,1.415,0,0,1-.009,2.083A1.742,1.742,0,0,1,77.663,44.22ZM88.869,41.7h5.344V44H85.828v-.949a4.418,4.418,0,0,1,.325-1.736,5.76,5.76,0,0,1,.817-1.38,7.09,7.09,0,0,1,1.077-1.081q.584-.47,1.112-.848.554-.4.971-.756a5.534,5.534,0,0,0,.7-.716,2.723,2.723,0,0,0,.426-.721,2.143,2.143,0,0,0,.141-.778,1.563,1.563,0,0,0-.457-1.222,2.032,2.032,0,0,0-1.4-.413,4.694,4.694,0,0,0-3.111,1.292V32.249a6.679,6.679,0,0,1,3.709-1.063,5.478,5.478,0,0,1,1.718.25,3.635,3.635,0,0,1,1.288.716,3.055,3.055,0,0,1,.8,1.129,3.811,3.811,0,0,1,.277,1.481,4.176,4.176,0,0,1-.268,1.547,4.753,4.753,0,0,1-.712,1.23,6.458,6.458,0,0,1-1.024,1.015q-.58.461-1.2.892-.422.3-.813.593a7.707,7.707,0,0,0-.69.58,3.149,3.149,0,0,0-.475.558A.963.963,0,0,0,88.869,41.7Zm11.689,2.522q-4.5,0-4.5-6.319a8.6,8.6,0,0,1,1.217-5,4.056,4.056,0,0,1,3.529-1.718q4.395,0,4.395,6.425a8.466,8.466,0,0,1-1.2,4.9A3.952,3.952,0,0,1,100.559,44.22Zm.123-10.916q-1.8,0-1.8,4.526,0,4.263,1.767,4.263,1.723,0,1.723-4.395T100.682,33.3Zm10.23,10.916q-4.5,0-4.5-6.319a8.6,8.6,0,0,1,1.217-5,4.056,4.056,0,0,1,3.529-1.718q4.395,0,4.395,6.425a8.466,8.466,0,0,1-1.2,4.9A3.952,3.952,0,0,1,110.912,44.22Zm.123-10.916q-1.8,0-1.8,4.526,0,4.263,1.767,4.263,1.723,0,1.723-4.395T111.035,33.3ZM124.526,31.4v7.945h1.512v2.074h-1.512V44H122V41.416H116.5V39.245q.729-.817,1.512-1.789t1.512-2q.729-1.028,1.358-2.07a20.749,20.749,0,0,0,1.068-1.991Zm-5.537,7.945H122v-4.4q-.308.571-.668,1.156t-.756,1.151q-.4.567-.8,1.1T118.989,39.342Z" transform="translate(725 2667)" fill="#12263f"/>
    </g>
    <g id="Grupo_946351" data-name="Grupo 946351" transform="translate(0 25)">
      <rect id="Rectángulo_337526" data-name="Rectángulo 337526" width="168" height="65" rx="15" transform="translate(937 2453)" fill="#f1cc4b"/>
      <path id="Trazado_723460" data-name="Trazado 723460" d="M54.513,19H51.647l-5.194-7.919a11.451,11.451,0,0,1-.633-1.046h-.035q.07.668.07,2.039V19H43.175V6.4h3.059l5,7.673q.343.519.633,1.028H51.9a13.476,13.476,0,0,1-.07-1.731V6.4h2.681Zm6.9.22a4.838,4.838,0,0,1-3.538-1.261,4.573,4.573,0,0,1-1.288-3.423,4.573,4.573,0,0,1,1.336-3.494A5.048,5.048,0,0,1,61.535,9.78a4.78,4.78,0,0,1,3.516,1.261,4.483,4.483,0,0,1,1.274,3.335,4.759,4.759,0,0,1-1.314,3.542A4.892,4.892,0,0,1,61.412,19.22Zm.07-7.312a1.852,1.852,0,0,0-1.529.677,2.984,2.984,0,0,0-.545,1.916q0,2.593,2.092,2.593,2,0,2-2.663Q63.5,11.907,61.482,11.907ZM74,12.5a2.409,2.409,0,0,0-1.169-.272,1.684,1.684,0,0,0-1.415.664A2.9,2.9,0,0,0,70.9,14.7V19H68.127V10H70.9v1.67h.035a2.4,2.4,0,0,1,2.373-1.828A1.788,1.788,0,0,1,74,9.947ZM89.634,19H86.865V13.867q0-1.96-1.441-1.96a1.324,1.324,0,0,0-1.116.589,2.42,2.42,0,0,0-.431,1.468V19H81.1V13.814q0-1.907-1.415-1.907a1.356,1.356,0,0,0-1.138.563A2.475,2.475,0,0,0,78.12,14v5H75.343V10H78.12v1.406h.035A3.41,3.41,0,0,1,81.064,9.78a2.592,2.592,0,0,1,2.61,1.679A3.329,3.329,0,0,1,86.7,9.78q2.936,0,2.936,3.621Zm9.686,0H96.691V17.708h-.035a2.933,2.933,0,0,1-2.681,1.512,2.8,2.8,0,0,1-2.061-.743,2.661,2.661,0,0,1-.751-1.982q0-2.619,3.1-3.023l2.443-.325q0-1.477-1.6-1.477a5.46,5.46,0,0,0-3.059.958V10.536a6.881,6.881,0,0,1,1.586-.527A8.339,8.339,0,0,1,95.47,9.78q3.85,0,3.85,3.841Zm-2.61-3.656v-.606l-1.635.211q-1.354.176-1.354,1.222a1.01,1.01,0,0,0,.33.778,1.266,1.266,0,0,0,.892.3,1.644,1.644,0,0,0,1.274-.541A1.952,1.952,0,0,0,96.709,15.344Zm4.219,3.419v-2.25a5.913,5.913,0,0,0,1.367.615,4.531,4.531,0,0,0,1.288.2,2.762,2.762,0,0,0,1.165-.2.653.653,0,0,0,.426-.615.569.569,0,0,0-.193-.439,1.8,1.8,0,0,0-.5-.308,5.635,5.635,0,0,0-.664-.237q-.36-.105-.694-.237a6.653,6.653,0,0,1-.945-.435,2.731,2.731,0,0,1-.686-.541,2.125,2.125,0,0,1-.422-.712,2.841,2.841,0,0,1-.145-.958,2.466,2.466,0,0,1,.33-1.3,2.692,2.692,0,0,1,.879-.892,4.016,4.016,0,0,1,1.257-.51,6.553,6.553,0,0,1,1.472-.163,8.168,8.168,0,0,1,1.213.092,9.053,9.053,0,0,1,1.213.268v2.145a4.383,4.383,0,0,0-1.129-.461,4.764,4.764,0,0,0-1.182-.154,2.619,2.619,0,0,0-.514.048,1.693,1.693,0,0,0-.426.141.783.783,0,0,0-.29.237.546.546,0,0,0-.105.33.609.609,0,0,0,.158.422,1.374,1.374,0,0,0,.413.3,4.078,4.078,0,0,0,.567.229q.312.1.62.207a8.056,8.056,0,0,1,1,.422,3.2,3.2,0,0,1,.769.536,2.105,2.105,0,0,1,.492.721,2.884,2.884,0,0,1-.176,2.351,2.78,2.78,0,0,1-.923.923,4.185,4.185,0,0,1-1.327.519,7.357,7.357,0,0,1-1.56.163A8.042,8.042,0,0,1,100.928,18.763ZM13.288,33.576a1.622,1.622,0,0,1-1.151-.417,1.345,1.345,0,0,1-.448-1.024,1.3,1.3,0,0,1,.448-1.02,1.676,1.676,0,0,1,1.151-.4,1.672,1.672,0,0,1,1.156.4,1.3,1.3,0,0,1,.444,1.02,1.34,1.34,0,0,1-.444,1.037A1.65,1.65,0,0,1,13.288,33.576ZM14.659,44H11.881V35h2.777Zm11.03,0H22.92V39q0-2.092-1.494-2.092a1.483,1.483,0,0,0-1.187.554,2.109,2.109,0,0,0-.466,1.406V44H17V35h2.777v1.424h.035A3.183,3.183,0,0,1,22.7,34.78q2.988,0,2.988,3.709Zm7.638-.105a4.105,4.105,0,0,1-1.854.325q-2.936,0-2.936-3.05V37.048H27.078V35h1.459V33.058l2.769-.791V35h2.021v2.048H31.305v3.639q0,1.406,1.116,1.406a1.882,1.882,0,0,0,.905-.255Zm9.58-3.6H37.036q.141,1.96,2.47,1.96a4.822,4.822,0,0,0,2.61-.7v2a6.858,6.858,0,0,1-3.243.668,4.189,4.189,0,0,1-4.588-4.579,4.816,4.816,0,0,1,1.3-3.551,4.334,4.334,0,0,1,3.2-1.31,3.933,3.933,0,0,1,3.045,1.169,4.5,4.5,0,0,1,1.077,3.173Zm-2.575-1.705q0-1.934-1.564-1.934a1.494,1.494,0,0,0-1.156.554,2.513,2.513,0,0,0-.593,1.38ZM50.43,37.5a2.409,2.409,0,0,0-1.169-.272,1.684,1.684,0,0,0-1.415.664,2.9,2.9,0,0,0-.51,1.806V44H44.559V35h2.777v1.67h.035a2.4,2.4,0,0,1,2.373-1.828,1.788,1.788,0,0,1,.686.105ZM60.467,44H57.7V39q0-2.092-1.494-2.092a1.483,1.483,0,0,0-1.187.554,2.109,2.109,0,0,0-.466,1.406V44H51.775V35h2.777v1.424h.035a3.183,3.183,0,0,1,2.892-1.644q2.988,0,2.988,3.709Zm9.686,0H67.525V42.708H67.49a2.933,2.933,0,0,1-2.681,1.512,2.8,2.8,0,0,1-2.061-.743A2.661,2.661,0,0,1,62,41.5q0-2.619,3.1-3.023l2.443-.325q0-1.477-1.6-1.477a5.46,5.46,0,0,0-3.059.958V35.536a6.881,6.881,0,0,1,1.586-.527A8.339,8.339,0,0,1,66.3,34.78q3.85,0,3.85,3.841Zm-2.61-3.656v-.606l-1.635.211q-1.354.176-1.354,1.222a1.01,1.01,0,0,0,.33.778,1.266,1.266,0,0,0,.892.3,1.644,1.644,0,0,0,1.274-.541A1.952,1.952,0,0,0,67.542,40.344ZM79.17,43.675a5.492,5.492,0,0,1-2.716.545A4.593,4.593,0,0,1,73.1,42.963a4.341,4.341,0,0,1-1.283-3.243A4.782,4.782,0,0,1,73.189,36.1a5.083,5.083,0,0,1,3.678-1.323,4.72,4.72,0,0,1,2.3.422v2.355a3.166,3.166,0,0,0-1.942-.65,2.559,2.559,0,0,0-1.894.7,2.607,2.607,0,0,0-.7,1.929,2.565,2.565,0,0,0,.668,1.876,2.455,2.455,0,0,0,1.837.681,3.666,3.666,0,0,0,2.03-.65Zm3.226-10.1a1.622,1.622,0,0,1-1.151-.417,1.345,1.345,0,0,1-.448-1.024,1.3,1.3,0,0,1,.448-1.02,1.88,1.88,0,0,1,2.307,0A1.3,1.3,0,0,1,84,32.135a1.34,1.34,0,0,1-.444,1.037A1.65,1.65,0,0,1,82.4,33.576ZM83.767,44H80.99V35h2.777Zm6.627.22a4.838,4.838,0,0,1-3.538-1.261,4.573,4.573,0,0,1-1.288-3.423A4.573,4.573,0,0,1,86.9,36.042a5.048,5.048,0,0,1,3.612-1.261,4.78,4.78,0,0,1,3.516,1.261,4.483,4.483,0,0,1,1.274,3.335,4.759,4.759,0,0,1-1.314,3.542A4.892,4.892,0,0,1,90.394,44.22Zm.07-7.312a1.852,1.852,0,0,0-1.529.677A2.984,2.984,0,0,0,88.39,39.5q0,2.593,2.092,2.593,2,0,2-2.663Q92.477,36.907,90.464,36.907ZM105.8,44h-2.769V39q0-2.092-1.494-2.092a1.483,1.483,0,0,0-1.187.554,2.109,2.109,0,0,0-.466,1.406V44H97.109V35h2.777v1.424h.035a3.183,3.183,0,0,1,2.892-1.644q2.988,0,2.988,3.709Zm9.686,0h-2.628V42.708h-.035a2.933,2.933,0,0,1-2.681,1.512,2.8,2.8,0,0,1-2.061-.743,2.661,2.661,0,0,1-.751-1.982q0-2.619,3.1-3.023l2.443-.325q0-1.477-1.6-1.477a5.46,5.46,0,0,0-3.059.958V35.536a6.881,6.881,0,0,1,1.586-.527,8.339,8.339,0,0,1,1.833-.229q3.85,0,3.85,3.841Zm-2.61-3.656v-.606l-1.635.211q-1.354.176-1.354,1.222a1.01,1.01,0,0,0,.33.778,1.266,1.266,0,0,0,.892.3,1.644,1.644,0,0,0,1.274-.541A1.952,1.952,0,0,0,112.876,40.344ZM120.461,44h-2.777V30.676h2.777Zm10.424-3.709h-5.871q.141,1.96,2.47,1.96a4.822,4.822,0,0,0,2.61-.7v2a6.858,6.858,0,0,1-3.243.668,4.189,4.189,0,0,1-4.588-4.579,4.816,4.816,0,0,1,1.3-3.551,4.334,4.334,0,0,1,3.2-1.31,3.933,3.933,0,0,1,3.045,1.169,4.5,4.5,0,0,1,1.077,3.173Zm-2.575-1.705q0-1.934-1.564-1.934a1.494,1.494,0,0,0-1.156.554,2.513,2.513,0,0,0-.593,1.38Zm3.639,5.177v-2.25a5.913,5.913,0,0,0,1.367.615,4.531,4.531,0,0,0,1.288.2,2.762,2.762,0,0,0,1.165-.2.653.653,0,0,0,.426-.615.569.569,0,0,0-.193-.439,1.8,1.8,0,0,0-.5-.308,5.635,5.635,0,0,0-.664-.237q-.36-.105-.694-.237a6.653,6.653,0,0,1-.945-.435,2.731,2.731,0,0,1-.686-.541,2.125,2.125,0,0,1-.422-.712,2.841,2.841,0,0,1-.145-.958,2.466,2.466,0,0,1,.33-1.3,2.692,2.692,0,0,1,.879-.892,4.016,4.016,0,0,1,1.257-.51,6.553,6.553,0,0,1,1.472-.163,8.168,8.168,0,0,1,1.213.092,9.053,9.053,0,0,1,1.213.268v2.145a4.383,4.383,0,0,0-1.129-.461A4.764,4.764,0,0,0,136,36.67a2.619,2.619,0,0,0-.514.048,1.693,1.693,0,0,0-.426.141.783.783,0,0,0-.29.237.546.546,0,0,0-.105.33.609.609,0,0,0,.158.422,1.374,1.374,0,0,0,.413.3,4.078,4.078,0,0,0,.567.229q.312.1.62.207a8.056,8.056,0,0,1,1,.422,3.2,3.2,0,0,1,.769.536,2.105,2.105,0,0,1,.492.721,2.884,2.884,0,0,1-.176,2.351,2.78,2.78,0,0,1-.923.923,4.185,4.185,0,0,1-1.327.519,7.357,7.357,0,0,1-1.56.163A8.042,8.042,0,0,1,131.949,43.763Z" transform="translate(946 2461)" fill="#12263f"/>
    </g>
  </g>
</svg>
