<svg xmlns="http://www.w3.org/2000/svg" xmlns:xlink="http://www.w3.org/1999/xlink" width="820" height="184.291" viewBox="0 0 820 184.291">
  <defs>
    <linearGradient id="linear-gradient" y1="0.5" x2="1" y2="0.5" gradientUnits="objectBoundingBox">
      <stop offset="0" stop-color="#ef1c24"/>
      <stop offset="0.022" stop-color="#ef1e24"/>
      <stop offset="0.037" stop-color="#ef2724"/>
      <stop offset="0.05" stop-color="#f03624"/>
      <stop offset="0.061" stop-color="#f14b24"/>
      <stop offset="0.072" stop-color="#f36724"/>
      <stop offset="0.094" stop-color="#f36923"/>
      <stop offset="0.111" stop-color="#f37322"/>
      <stop offset="0.125" stop-color="#f3831f"/>
      <stop offset="0.139" stop-color="#f4991c"/>
      <stop offset="0.151" stop-color="#f5b617"/>
      <stop offset="0.157" stop-color="#f6c615"/>
      <stop offset="0.179" stop-color="#f6c915"/>
      <stop offset="0.199" stop-color="#f6d418"/>
      <stop offset="0.219" stop-color="#f6e71c"/>
      <stop offset="0.225" stop-color="#f7ee1e"/>
      <stop offset="0.245" stop-color="#f1eb1f"/>
      <stop offset="0.269" stop-color="#e2e524"/>
      <stop offset="0.296" stop-color="#c9db2c"/>
      <stop offset="0.314" stop-color="#b6d333"/>
      <stop offset="0.336" stop-color="#abcf36"/>
      <stop offset="0.374" stop-color="#90c540"/>
      <stop offset="0.386" stop-color="#87c244"/>
      <stop offset="0.466" stop-color="#88c145"/>
      <stop offset="0.525" stop-color="#4fb849"/>
      <stop offset="0.576" stop-color="#35aa45"/>
      <stop offset="0.636" stop-color="#25b46f"/>
      <stop offset="0.699" stop-color="#0abab7"/>
      <stop offset="0.75" stop-color="#4690ce"/>
      <stop offset="0.801" stop-color="#3a54a2"/>
      <stop offset="0.877" stop-color="#59519d"/>
      <stop offset="0.936" stop-color="#64459d"/>
      <stop offset="1" stop-color="#462c82"/>
    </linearGradient>
  </defs>
  <g id="Grupo_946548" data-name="Grupo 946548" transform="translate(-390 -4035.854)">
    <g id="Grupo_946541" data-name="Grupo 946541" transform="translate(-156 154)">
      <g id="Grupo_946540" data-name="Grupo 946540" transform="translate(546 3913)">
        <g id="Grupo_946520" data-name="Grupo 946520" transform="translate(0 50.489)">
          <path id="Trazado_719164" data-name="Trazado 719164" d="M64.667,112.078A27.334,27.334,0,1,1,37.333,84.743,27.334,27.334,0,0,1,64.667,112.078Z" transform="translate(-10 -84.743)" fill="#ef1c24"/>
          <path id="Trazado_719165" data-name="Trazado 719165" d="M93.332,112.078A27.333,27.333,0,1,1,66,84.743,27.332,27.332,0,0,1,93.332,112.078Z" transform="translate(16 -84.743)" fill="#ff7a19"/>
          <path id="Trazado_719166" data-name="Trazado 719166" d="M122,112.078A27.335,27.335,0,1,1,94.668,84.743,27.334,27.334,0,0,1,122,112.078Z" transform="translate(42 -84.743)" fill="#f6c615"/>
          <path id="Trazado_719167" data-name="Trazado 719167" d="M150.666,112.078a27.333,27.333,0,1,1-27.333-27.335A27.332,27.332,0,0,1,150.666,112.078Z" transform="translate(68.001 -84.743)" fill="#f5e500"/>
          <path id="Trazado_719168" data-name="Trazado 719168" d="M179.334,112.078A27.334,27.334,0,1,1,152,84.743,27.332,27.332,0,0,1,179.334,112.078Z" transform="translate(94 -84.743)" fill="#b6d333"/>
          <path id="Trazado_719169" data-name="Trazado 719169" d="M208,112.078a27.334,27.334,0,1,1-27.333-27.335A27.332,27.332,0,0,1,208,112.078Z" transform="translate(120.001 -84.743)" fill="#86c144"/>
          <path id="Trazado_719170" data-name="Trazado 719170" d="M236.67,112.078a27.335,27.335,0,1,1-27.335-27.335A27.334,27.334,0,0,1,236.67,112.078Z" transform="translate(146.001 -84.743)" fill="#4fb849"/>
          <path id="Trazado_719171" data-name="Trazado 719171" d="M265.332,112.078A27.332,27.332,0,1,1,238,84.743,27.332,27.332,0,0,1,265.332,112.078Z" transform="translate(172.002 -84.743)" fill="#34a944"/>
          <path id="Trazado_719172" data-name="Trazado 719172" d="M294,112.078a27.335,27.335,0,1,1-27.333-27.335A27.334,27.334,0,0,1,294,112.078Z" transform="translate(198.001 -84.743)" fill="#25b46f"/>
          <path id="Trazado_719173" data-name="Trazado 719173" d="M322.669,112.078a27.334,27.334,0,1,1-27.333-27.335A27.334,27.334,0,0,1,322.669,112.078Z" transform="translate(224.002 -84.743)" fill="#0abab7"/>
          <path id="Trazado_719174" data-name="Trazado 719174" d="M351.336,112.078A27.334,27.334,0,1,1,324,84.743,27.334,27.334,0,0,1,351.336,112.078Z" transform="translate(250.002 -84.743)" fill="#4690ce"/>
          <path id="Trazado_719175" data-name="Trazado 719175" d="M380,112.078a27.332,27.332,0,1,1-27.333-27.335A27.334,27.334,0,0,1,380,112.078Z" transform="translate(276.002 -84.743)" fill="#3a54a2"/>
          <path id="Trazado_719176" data-name="Trazado 719176" d="M408.668,112.078a27.334,27.334,0,1,1-27.333-27.335A27.334,27.334,0,0,1,408.668,112.078Z" transform="translate(302.001 -84.743)" fill="#59519d"/>
          <path id="Trazado_719177" data-name="Trazado 719177" d="M437.335,112.078A27.334,27.334,0,1,1,410,84.743,27.334,27.334,0,0,1,437.335,112.078Z" transform="translate(328.001 -84.743)" fill="#64459d"/>
          <path id="Trazado_719178" data-name="Trazado 719178" d="M466,112.078a27.332,27.332,0,1,1-27.333-27.335A27.334,27.334,0,0,1,466,112.078Z" transform="translate(354.001 -84.743)" fill="#422e82"/>
        </g>
        <g id="Grupo_946521" data-name="Grupo 946521" transform="translate(25.902 0)">
          <path id="Trazado_719179" data-name="Trazado 719179" d="M354.447,103.035h-2.86V78.767a17.661,17.661,0,0,0-17.64-17.64H44.083a17.659,17.659,0,0,0-17.64,17.64v24.268h-2.86V78.767a20.522,20.522,0,0,1,20.5-20.5H333.947a20.522,20.522,0,0,1,20.5,20.5Z" transform="translate(-23.583 -58.267)" fill="gray"/>
        </g>
        <g id="Grupo_946522" data-name="Grupo 946522" transform="translate(463.237 0)">
          <path id="Trazado_719180" data-name="Trazado 719180" d="M583.781,103.035h-2.86V78.767a17.661,17.661,0,0,0-17.64-17.64H273.417a17.659,17.659,0,0,0-17.64,17.64v24.268h-2.86V78.767a20.522,20.522,0,0,1,20.5-20.5H563.281a20.522,20.522,0,0,1,20.5,20.5Z" transform="translate(-252.917 -58.267)" fill="gray"/>
        </g>
        <g id="Grupo_946523" data-name="Grupo 946523" transform="translate(408.574 1.43)">
          <rect id="Rect치ngulo_337604" data-name="Rect치ngulo 337604" width="2.86" height="43.338" fill="gray"/>
        </g>
        <g id="Grupo_946524" data-name="Grupo 946524" transform="translate(22.153 69.454)">
          <path id="Trazado_719181" data-name="Trazado 719181" d="M31.976,105.447a6.42,6.42,0,0,1-1.4,4.369,4.751,4.751,0,0,1-3.772,1.609,4.769,4.769,0,0,1-3.772-1.609,6.386,6.386,0,0,1-1.413-4.369v-4.783a6.432,6.432,0,0,1,1.4-4.357,4.727,4.727,0,0,1,3.761-1.619,4.772,4.772,0,0,1,3.783,1.619,6.4,6.4,0,0,1,1.413,4.357Zm-2.2-5.24a4.43,4.43,0,0,0-.784-2.771,2.624,2.624,0,0,0-2.212-1.016,2.581,2.581,0,0,0-2.189,1.016,4.477,4.477,0,0,0-.772,2.771V105.9a4.451,4.451,0,0,0,.789,2.78,2.865,2.865,0,0,0,4.4.006,4.518,4.518,0,0,0,.772-2.786Z" transform="translate(-21.617 -94.688)" fill="#fff"/>
        </g>
        <g id="Grupo_946525" data-name="Grupo 946525" transform="translate(77.738 69.454)">
          <path id="Trazado_719182" data-name="Trazado 719182" d="M56.518,111.191H54.306V96.955l-3.541.034v-1.7l5.753-.6Z" transform="translate(-50.765 -94.688)" fill="#fff"/>
        </g>
        <g id="Grupo_946526" data-name="Grupo 946526" transform="translate(131.766 69.454)">
          <path id="Trazado_719183" data-name="Trazado 719183" d="M89.334,111.191h-10.1v-1.508l5.107-6.089a15.514,15.514,0,0,0,1.848-2.632,4.4,4.4,0,0,0,.486-1.974,2.635,2.635,0,0,0-.658-1.848,2.346,2.346,0,0,0-1.821-.721A2.729,2.729,0,0,0,82,97.3a3.272,3.272,0,0,0-.753,2.2H79.12l-.021-.067a4.384,4.384,0,0,1,1.329-3.37,5.1,5.1,0,0,1,3.766-1.379,4.73,4.73,0,0,1,3.429,1.205,4.137,4.137,0,0,1,1.253,3.118,4.952,4.952,0,0,1-.711,2.513A27.717,27.717,0,0,1,86,104.61l-4.1,4.8.023.057h7.409Z" transform="translate(-79.097 -94.688)" fill="#fff"/>
        </g>
        <g id="Grupo_946527" data-name="Grupo 946527" transform="translate(186.232 69.454)">
          <path id="Trazado_719184" data-name="Trazado 719184" d="M112.79,101.938a2.577,2.577,0,0,0,2.082-.732,3.112,3.112,0,0,0,.61-2.05,2.9,2.9,0,0,0-.666-1.983,2.492,2.492,0,0,0-1.972-.753,2.94,2.94,0,0,0-2.107.788,2.6,2.6,0,0,0-.831,1.972h-2.1l-.032-.067a3.884,3.884,0,0,1,1.384-3.129,5.308,5.308,0,0,1,3.688-1.295,5.153,5.153,0,0,1,3.553,1.144,4.281,4.281,0,0,1,1.285,3.37,3.812,3.812,0,0,1-.6,2.079,4.022,4.022,0,0,1-1.671,1.463,3.859,3.859,0,0,1,1.871,1.491,4.38,4.38,0,0,1,.643,2.42,4.469,4.469,0,0,1-1.413,3.5,5.292,5.292,0,0,1-3.671,1.268,5.809,5.809,0,0,1-3.66-1.224,3.747,3.747,0,0,1-1.526-3.234l.023-.067h2.1a2.643,2.643,0,0,0,.856,1.995,3.075,3.075,0,0,0,2.206.81,2.734,2.734,0,0,0,2.111-.833,3.069,3.069,0,0,0,.772-2.174,3.253,3.253,0,0,0-.709-2.29,2.927,2.927,0,0,0-2.229-.759h-1.812v-1.711Z" transform="translate(-107.658 -94.688)" fill="#fff"/>
        </g>
        <g id="Grupo_946528" data-name="Grupo 946528" transform="translate(240.365 69.689)">
          <path id="Trazado_719185" data-name="Trazado 719185" d="M145.218,105.6h2.246v1.72h-2.246v3.755h-2.189v-3.755h-6.983v-1.24l6.85-11.274h2.323Zm-6.816,0h4.626V97.973l-.067-.011-.214.559Z" transform="translate(-136.045 -94.811)" fill="#fff"/>
        </g>
        <g id="Grupo_946529" data-name="Grupo 946529" transform="translate(295.98 69.689)">
          <path id="Trazado_719186" data-name="Trazado 719186" d="M165.411,103.85l.94-9.039H174.5v1.955h-6.291l-.524,4.682a5.007,5.007,0,0,1,1.161-.643,4.094,4.094,0,0,1,1.453-.263,4.433,4.433,0,0,1,3.536,1.415,6.626,6.626,0,0,1-.032,7.872,4.84,4.84,0,0,1-3.827,1.486,5.241,5.241,0,0,1-3.442-1.129,3.9,3.9,0,0,1-1.318-3.318l.023-.067h1.989a2.713,2.713,0,0,0,.765,2.061,2.751,2.751,0,0,0,1.983.732,2.6,2.6,0,0,0,2.168-.984,4.262,4.262,0,0,0,.77-2.693,3.885,3.885,0,0,0-.776-2.515,2.626,2.626,0,0,0-2.163-.959,3.448,3.448,0,0,0-1.876.391,2.285,2.285,0,0,0-.862,1.205Z" transform="translate(-165.209 -94.811)" fill="#fff"/>
        </g>
        <g id="Grupo_946530" data-name="Grupo 946530" transform="translate(350.426 69.454)">
          <path id="Trazado_719187" data-name="Trazado 719187" d="M199.391,94.688a9.6,9.6,0,0,1,1.9.189,6.944,6.944,0,0,1,1.552.481l-.469,1.688a8.022,8.022,0,0,0-1.341-.452,6.873,6.873,0,0,0-1.642-.174,2.947,2.947,0,0,0-2.487,1.306,5.46,5.46,0,0,0-.955,3.309V102.3a5,5,0,0,1,1.615-1.074,5.161,5.161,0,0,1,2.006-.391,4.179,4.179,0,0,1,3.324,1.407,5.448,5.448,0,0,1,1.222,3.7,5.685,5.685,0,0,1-1.367,4,4.771,4.771,0,0,1-3.694,1.491,4.843,4.843,0,0,1-3.776-1.714,6.812,6.812,0,0,1-1.52-4.687V101.28a6.939,6.939,0,0,1,1.625-4.727A5.113,5.113,0,0,1,199.391,94.688Zm-.526,7.788a3.432,3.432,0,0,0-1.781.441,2.947,2.947,0,0,0-1.135,1.19v1.129a5.333,5.333,0,0,0,.9,3.269,2.675,2.675,0,0,0,2.206,1.2,2.44,2.44,0,0,0,2.117-1.045,4.593,4.593,0,0,0,.744-2.721,3.767,3.767,0,0,0-.8-2.525A2.8,2.8,0,0,0,198.865,102.476Z" transform="translate(-193.76 -94.688)" fill="#fff"/>
        </g>
        <g id="Grupo_946531" data-name="Grupo 946531" transform="translate(404.645 69.689)">
          <path id="Trazado_719188" data-name="Trazado 719188" d="M232.986,96.543a24.191,24.191,0,0,0-4.167,6.468,17.332,17.332,0,0,0-1.083,6.291v1.777h-2.2V109.3a15.747,15.747,0,0,1,1.358-6.642,29.086,29.086,0,0,1,3.928-6.118h-8.627V94.811h10.794Z" transform="translate(-222.192 -94.811)" fill="#fff"/>
        </g>
        <g id="Grupo_946532" data-name="Grupo 946532" transform="translate(459.37 69.454)">
          <path id="Trazado_719189" data-name="Trazado 719189" d="M261.034,99.078a3.664,3.664,0,0,1-.715,2.241,4.331,4.331,0,0,1-1.9,1.447,4.761,4.761,0,0,1,2.224,1.531,3.774,3.774,0,0,1,.837,2.424,4.3,4.3,0,0,1-1.457,3.475,5.568,5.568,0,0,1-3.717,1.23,5.99,5.99,0,0,1-3.9-1.23,4.216,4.216,0,0,1-1.514-3.475,3.727,3.727,0,0,1,.854-2.424,4.92,4.92,0,0,1,2.307-1.543,4.281,4.281,0,0,1-1.978-1.436,3.625,3.625,0,0,1-.727-2.241,3.986,3.986,0,0,1,1.369-3.263,5.431,5.431,0,0,1,3.57-1.127,5.1,5.1,0,0,1,3.414,1.133A4.037,4.037,0,0,1,261.034,99.078Zm-1.743,7.6a2.957,2.957,0,0,0-.866-2.191,2.916,2.916,0,0,0-2.14-.86,3.185,3.185,0,0,0-2.29.86,2.89,2.89,0,0,0-.906,2.191,2.843,2.843,0,0,0,.9,2.2,3.288,3.288,0,0,0,2.317.828,2.89,2.89,0,0,0,2.984-3.028Zm-.458-7.565a2.675,2.675,0,0,0-.732-1.934,2.422,2.422,0,0,0-1.815-.759,2.752,2.752,0,0,0-1.968.73,2.582,2.582,0,0,0-.77,1.962,2.658,2.658,0,0,0,2.759,2.782,2.373,2.373,0,0,0,1.806-.77A2.831,2.831,0,0,0,258.833,99.112Z" transform="translate(-250.889 -94.688)" fill="#fff"/>
        </g>
        <g id="Grupo_946533" data-name="Grupo 946533" transform="translate(513.936 69.454)">
          <path id="Trazado_719190" data-name="Trazado 719190" d="M284.063,109.705a3.273,3.273,0,0,0,2.563-1.1,4.506,4.506,0,0,0,.978-3.106v-1.384a3.57,3.57,0,0,1-1.335,1.2,3.808,3.808,0,0,1-1.749.408,4.761,4.761,0,0,1-3.682-1.447,6.549,6.549,0,0,1,.084-8.034,4.553,4.553,0,0,1,3.509-1.558,5.185,5.185,0,0,1,3.911,1.529,5.984,5.984,0,0,1,1.474,4.325v4.939a5.829,5.829,0,0,1-1.609,4.375,5.682,5.682,0,0,1-4.144,1.569,8.938,8.938,0,0,1-1.76-.179,7.905,7.905,0,0,1-1.682-.524l.336-1.676a6.242,6.242,0,0,0,1.445.507A8.015,8.015,0,0,0,284.063,109.705Zm.458-5.7a3.407,3.407,0,0,0,1.937-.524,3.078,3.078,0,0,0,1.146-1.341v-1.922a4.309,4.309,0,0,0-.816-2.811,2.8,2.8,0,0,0-2.29-.988,2.406,2.406,0,0,0-1.995,1.066,5.282,5.282,0,0,0-.061,5.486A2.4,2.4,0,0,0,284.52,104.005Z" transform="translate(-279.503 -94.688)" fill="#fff"/>
        </g>
        <g id="Grupo_946534" data-name="Grupo 946534" transform="translate(563.302 69.454)">
          <path id="Trazado_719191" data-name="Trazado 719191" d="M311.143,111.191h-2.212V96.955l-3.541.034v-1.7l5.753-.6Z" transform="translate(-305.39 -94.688)" fill="#fff"/>
          <path id="Trazado_719192" data-name="Trazado 719192" d="M322.024,105.447a6.411,6.411,0,0,1-1.4,4.369,5.223,5.223,0,0,1-7.542,0,6.386,6.386,0,0,1-1.413-4.369v-4.783a6.432,6.432,0,0,1,1.4-4.357,5.2,5.2,0,0,1,7.542,0,6.39,6.39,0,0,1,1.415,4.357Zm-2.2-5.24a4.43,4.43,0,0,0-.782-2.771,2.624,2.624,0,0,0-2.212-1.016,2.581,2.581,0,0,0-2.189,1.016,4.477,4.477,0,0,0-.772,2.771V105.9a4.463,4.463,0,0,0,.788,2.78,2.867,2.867,0,0,0,4.4.006,4.517,4.517,0,0,0,.77-2.786Z" transform="translate(-299.699 -94.688)" fill="#fff"/>
        </g>
        <g id="Grupo_946535" data-name="Grupo 946535" transform="translate(617.969 69.454)">
          <path id="Trazado_719193" data-name="Trazado 719193" d="M339.81,111.191H337.6V96.955l-3.541.034v-1.7l5.753-.6Z" transform="translate(-334.057 -94.688)" fill="#fff"/>
          <path id="Trazado_719194" data-name="Trazado 719194" d="M346.567,111.191h-2.212V96.955l-3.543.034v-1.7l5.755-.6Z" transform="translate(-327.93 -94.688)" fill="#fff"/>
        </g>
        <g id="Grupo_946536" data-name="Grupo 946536" transform="translate(672.636 69.454)">
          <path id="Trazado_719195" data-name="Trazado 719195" d="M368.477,111.191h-2.212V96.955l-3.541.034v-1.7l5.753-.6Z" transform="translate(-362.724 -94.688)" fill="#fff"/>
          <path id="Trazado_719196" data-name="Trazado 719196" d="M379.383,111.191h-10.1v-1.508l5.107-6.089a15.517,15.517,0,0,0,1.848-2.632,4.4,4.4,0,0,0,.486-1.974,2.628,2.628,0,0,0-.66-1.848,2.341,2.341,0,0,0-1.821-.721,2.725,2.725,0,0,0-2.195.883,3.264,3.264,0,0,0-.755,2.2h-2.122l-.023-.067a4.393,4.393,0,0,1,1.331-3.37,5.1,5.1,0,0,1,3.764-1.379,4.731,4.731,0,0,1,3.431,1.205,4.136,4.136,0,0,1,1.251,3.118,4.968,4.968,0,0,1-.709,2.513,28.263,28.263,0,0,1-2.161,3.085l-4.1,4.8.023.057h7.409Z" transform="translate(-356.901 -94.688)" fill="#fff"/>
        </g>
        <g id="Grupo_946537" data-name="Grupo 946537" transform="translate(727.304 69.454)">
          <path id="Trazado_719197" data-name="Trazado 719197" d="M397.144,111.191h-2.212V96.955l-3.541.034v-1.7l5.753-.6Z" transform="translate(-391.391 -94.688)" fill="#fff"/>
          <path id="Trazado_719198" data-name="Trazado 719198" d="M402.836,101.938a2.579,2.579,0,0,0,2.084-.732,3.112,3.112,0,0,0,.61-2.05,2.9,2.9,0,0,0-.666-1.983,2.5,2.5,0,0,0-1.972-.753,2.937,2.937,0,0,0-2.107.788,2.6,2.6,0,0,0-.831,1.972h-2.1l-.032-.067a3.884,3.884,0,0,1,1.384-3.129,5.308,5.308,0,0,1,3.688-1.295,5.153,5.153,0,0,1,3.553,1.144,4.281,4.281,0,0,1,1.285,3.37,3.8,3.8,0,0,1-.6,2.079,4.022,4.022,0,0,1-1.67,1.463,3.856,3.856,0,0,1,1.873,1.491,4.4,4.4,0,0,1,.643,2.42,4.469,4.469,0,0,1-1.413,3.5,5.3,5.3,0,0,1-3.671,1.268,5.809,5.809,0,0,1-3.659-1.224,3.742,3.742,0,0,1-1.526-3.234l.023-.067h2.1a2.643,2.643,0,0,0,.856,1.995,3.074,3.074,0,0,0,2.206.81,2.736,2.736,0,0,0,2.111-.833,3.067,3.067,0,0,0,.77-2.174,3.252,3.252,0,0,0-.709-2.29,2.921,2.921,0,0,0-2.229-.759h-1.81v-1.711Z" transform="translate(-385.663 -94.688)" fill="#fff"/>
        </g>
        <g id="Grupo_946538" data-name="Grupo 946538" transform="translate(781.971 69.454)">
          <path id="Trazado_719199" data-name="Trazado 719199" d="M425.811,111.191H423.6V96.955l-3.541.034v-1.7l5.753-.6Z" transform="translate(-420.058 -94.688)" fill="#fff"/>
          <path id="Trazado_719200" data-name="Trazado 719200" d="M435.266,105.6h2.246v1.72h-2.246v3.755h-2.189v-3.755h-6.983v-1.24l6.85-11.274h2.323Zm-6.816,0h4.626V97.973l-.067-.011-.214.559Z" transform="translate(-414.584 -94.576)" fill="#fff"/>
        </g>
        <g id="Grupo_946539" data-name="Grupo 946539" transform="translate(27.333 149.915)">
          <rect id="Rect치ngulo_337605" data-name="Rect치ngulo 337605" width="765.342" height="3.229" fill="url(#linear-gradient)"/>
        </g>
      </g>
    </g>
    <path id="Trazado_723458" data-name="Trazado 723458" d="M24.193,19H22.558l-1.336-3.533H15.878L14.622,19H12.978L17.812,6.4h1.529Zm-3.454-4.86L18.761,8.77a5.142,5.142,0,0,1-.193-.844h-.035a4.708,4.708,0,0,1-.2.844l-1.96,5.37ZM20.4,2.354,18.1,5.236H16.986l1.96-2.883ZM31.989,18.587a4.684,4.684,0,0,1-2.461.624,4.074,4.074,0,0,1-3.107-1.252,4.539,4.539,0,0,1-1.182-3.248,4.99,4.99,0,0,1,1.274-3.573,4.458,4.458,0,0,1,3.4-1.349,4.735,4.735,0,0,1,2.092.439v1.477a3.665,3.665,0,0,0-2.145-.7,2.9,2.9,0,0,0-2.263.989,3.752,3.752,0,0,0-.883,2.6,3.573,3.573,0,0,0,.831,2.5A2.863,2.863,0,0,0,29.774,18a3.613,3.613,0,0,0,2.215-.782ZM34.907,7.715a.913.913,0,0,1-.659-.264.89.89,0,0,1-.272-.668.923.923,0,0,1,.932-.94.931.931,0,0,1,.672.268.939.939,0,0,1,0,1.332A.923.923,0,0,1,34.907,7.715ZM35.61,19H34.168V10H35.61Zm10.6,0H44.768V17.471h-.035a3.327,3.327,0,0,1-3.094,1.74A3.362,3.362,0,0,1,38.928,18a4.958,4.958,0,0,1-1.015-3.292,5.394,5.394,0,0,1,1.125-3.577,3.71,3.71,0,0,1,3-1.345,2.885,2.885,0,0,1,2.7,1.459h.035V5.676h1.441Zm-1.441-4.069V13.6a2.575,2.575,0,0,0-.721-1.846A2.417,2.417,0,0,0,42.219,11a2.489,2.489,0,0,0-2.074.967,4.237,4.237,0,0,0-.756,2.672,3.81,3.81,0,0,0,.725,2.457,2.37,2.37,0,0,0,1.947.9,2.462,2.462,0,0,0,1.956-.87A3.242,3.242,0,0,0,44.768,14.931Zm8.121,4.28A4.175,4.175,0,0,1,49.7,17.95a4.672,4.672,0,0,1-1.191-3.344,4.867,4.867,0,0,1,1.239-3.542A4.455,4.455,0,0,1,53.1,9.789a4.037,4.037,0,0,1,3.142,1.239,4.914,4.914,0,0,1,1.129,3.437,4.835,4.835,0,0,1-1.217,3.45A4.265,4.265,0,0,1,52.889,19.211ZM52.995,11a2.742,2.742,0,0,0-2.2.945,3.88,3.88,0,0,0-.809,2.606,3.67,3.67,0,0,0,.817,2.522A2.778,2.778,0,0,0,52.995,18a2.635,2.635,0,0,0,2.149-.905,3.928,3.928,0,0,0,.751-2.575,4,4,0,0,0-.751-2.6A2.623,2.623,0,0,0,52.995,11Z" transform="translate(546.169 4033.5)" fill="#12263f"/>
    <path id="Trazado_723460" data-name="Trazado 723460" d="M18.461,19H16.826L15.49,15.467H10.146L8.89,19H7.246L12.08,6.4h1.529Zm-3.454-4.86L13.029,8.77a5.142,5.142,0,0,1-.193-.844H12.8a4.708,4.708,0,0,1-.2.844l-1.96,5.37ZM21.563,19H20.122V5.676h1.441Zm9.053-.413a4.684,4.684,0,0,1-2.461.624,4.074,4.074,0,0,1-3.107-1.252,4.539,4.539,0,0,1-1.182-3.248,4.99,4.99,0,0,1,1.274-3.573,4.458,4.458,0,0,1,3.4-1.349,4.735,4.735,0,0,1,2.092.439v1.477a3.665,3.665,0,0,0-2.145-.7,2.9,2.9,0,0,0-2.263.989,3.752,3.752,0,0,0-.883,2.6,3.573,3.573,0,0,0,.831,2.5A2.863,2.863,0,0,0,28.4,18a3.613,3.613,0,0,0,2.215-.782ZM39.238,19H37.8V17.594h-.035a3.018,3.018,0,0,1-2.769,1.617,2.959,2.959,0,0,1-2.1-.712,2.466,2.466,0,0,1-.76-1.89q0-2.522,2.971-2.936l2.7-.378Q37.8,11,35.942,11a4.431,4.431,0,0,0-2.936,1.107V10.633a5.577,5.577,0,0,1,3.059-.844q3.173,0,3.173,3.357ZM37.8,14.447l-2.171.3a3.525,3.525,0,0,0-1.512.5A1.432,1.432,0,0,0,33.6,16.5a1.374,1.374,0,0,0,.47,1.077A1.817,1.817,0,0,0,35.327,18a2.314,2.314,0,0,0,1.771-.751,2.685,2.685,0,0,0,.7-1.9ZM43.4,19H41.954V5.676H43.4ZM47.052,7.715a.913.913,0,0,1-.659-.264.89.89,0,0,1-.272-.668.923.923,0,0,1,.932-.94.931.931,0,0,1,.672.268.939.939,0,0,1,0,1.332A.923.923,0,0,1,47.052,7.715ZM47.755,19H46.313V10h1.441Zm10.389,0H56.7V13.867Q56.7,11,54.61,11a2.269,2.269,0,0,0-1.789.813,3.013,3.013,0,0,0-.708,2.052V19H50.673V10h1.441v1.494h.035A3.248,3.248,0,0,1,55.1,9.789a2.753,2.753,0,0,1,2.259.954,4.248,4.248,0,0,1,.782,2.755Zm6.478.211a4.175,4.175,0,0,1-3.186-1.261,4.672,4.672,0,0,1-1.191-3.344,4.867,4.867,0,0,1,1.239-3.542,4.455,4.455,0,0,1,3.349-1.274,4.037,4.037,0,0,1,3.142,1.239A4.914,4.914,0,0,1,69.1,14.465a4.835,4.835,0,0,1-1.217,3.45A4.265,4.265,0,0,1,64.621,19.211ZM64.727,11a2.742,2.742,0,0,0-2.2.945,3.88,3.88,0,0,0-.809,2.606,3.67,3.67,0,0,0,.817,2.522A2.778,2.778,0,0,0,64.727,18a2.635,2.635,0,0,0,2.149-.905,3.928,3.928,0,0,0,.751-2.575,4,4,0,0,0-.751-2.6A2.623,2.623,0,0,0,64.727,11Z" transform="translate(978.169 4033.5)" fill="#12263f"/>
    <path id="Trazado_723459" data-name="Trazado 723459" d="M20.843,19H19.032L12.546,8.954a4.2,4.2,0,0,1-.4-.791h-.053a12.976,12.976,0,0,1,.07,1.731V19H10.683V6.4H12.6l6.311,9.888q.4.615.51.844h.035a13.335,13.335,0,0,1-.088-1.854V6.4h1.477Zm10.345-4.14H24.833a3.366,3.366,0,0,0,.809,2.32A2.788,2.788,0,0,0,27.769,18a4.422,4.422,0,0,0,2.795-1V18.35a5.224,5.224,0,0,1-3.138.861,3.8,3.8,0,0,1-3-1.226,5.018,5.018,0,0,1-1.09-3.45,4.921,4.921,0,0,1,1.191-3.423,3.819,3.819,0,0,1,2.958-1.323,3.384,3.384,0,0,1,2.733,1.143,4.764,4.764,0,0,1,.967,3.173Zm-1.477-1.222a2.933,2.933,0,0,0-.6-1.942A2.051,2.051,0,0,0,27.461,11a2.328,2.328,0,0,0-1.731.729,3.31,3.31,0,0,0-.879,1.907ZM40.645,19H39.2V17.576h-.035a2.96,2.96,0,0,1-2.777,1.635q-3.217,0-3.217-3.832V10h1.433v5.15q0,2.848,2.18,2.848a2.205,2.205,0,0,0,1.736-.778,2.976,2.976,0,0,0,.681-2.035V10h1.441Zm7.084-.088a2.779,2.779,0,0,1-1.345.281q-2.364,0-2.364-2.637V11.23H42.473V10H44.02V7.8l1.441-.466V10h2.268v1.23H45.461V16.3a2.1,2.1,0,0,0,.308,1.292,1.228,1.228,0,0,0,1.02.387,1.515,1.515,0,0,0,.94-.3Zm6.618-7.453a1.763,1.763,0,0,0-1.09-.29,1.839,1.839,0,0,0-1.542.87,4.023,4.023,0,0,0-.62,2.373V19H49.653V10h1.441v1.854h.035a3.143,3.143,0,0,1,.94-1.481,2.144,2.144,0,0,1,1.415-.532,2.353,2.353,0,0,1,.861.123ZM62.354,19H60.912V17.594h-.035a3.018,3.018,0,0,1-2.769,1.617A2.959,2.959,0,0,1,56,18.5a2.466,2.466,0,0,1-.76-1.89q0-2.522,2.971-2.936l2.7-.378Q60.912,11,59.058,11a4.431,4.431,0,0,0-2.936,1.107V10.633a5.577,5.577,0,0,1,3.059-.844q3.173,0,3.173,3.357Zm-1.441-4.553-2.171.3a3.525,3.525,0,0,0-1.512.5,1.432,1.432,0,0,0-.51,1.261,1.374,1.374,0,0,0,.47,1.077A1.817,1.817,0,0,0,58.442,18a2.314,2.314,0,0,0,1.771-.751,2.685,2.685,0,0,0,.7-1.9ZM66.511,19H65.069V5.676h1.441Z" transform="translate(761.5 4033.5)" fill="#12263f"/>
  </g>
</svg>
