<svg xmlns="http://www.w3.org/2000/svg" width="105" height="105" viewBox="0 0 105 105">
  <g id="Grupo_956486" data-name="Grupo 956486" transform="translate(1186 -542)">
    <circle id="Elipse_7678" data-name="Elipse 7678" cx="52.5" cy="52.5" r="52.5" transform="translate(-1186 542)" fill="#adc46c"/>
    <g id="cl" transform="translate(-1169.697 571)">
      <g id="Grupo_956435" data-name="Grupo 956435" transform="translate(15.361 0.664)">
        <path id="Trazado_721741" data-name="Trazado 721741" d="M26.86,215.267H23.876a1.684,1.684,0,0,0-.782,3.174l4.682,2.457,2.874,17.688a2.728,2.728,0,0,0,2.692,2.29h16.74a2.728,2.728,0,0,0,2.693-2.29l3.789-23.319Z" transform="translate(-22.192 -196.871)" fill="#f2fbff"/>
        <path id="Trazado_721742" data-name="Trazado 721742" d="M298.108,215.267l-3.789,23.319a2.064,2.064,0,0,1-2.25,2.29h3.993a2.728,2.728,0,0,0,2.693-2.29l3.789-23.319Z" transform="translate(-268.174 -196.871)" fill="#dff6fd"/>
        <path id="Trazado_721743" data-name="Trazado 721743" d="M155.214,406.271l-.972,5.98a.066.066,0,0,1-.065.056h-16.74a.067.067,0,0,1-.065-.056l-.972-5.98Z" transform="translate(-126.289 -370.963)" fill="#a2e62e"/>
        <path id="Trazado_721744" data-name="Trazado 721744" d="M318.16,412.308h1.683a.067.067,0,0,0,.065-.056l.972-5.98h-1.739Z" transform="translate(-291.954 -370.964)" fill="#97d729"/>
        <g id="Grupo_956432" data-name="Grupo 956432" transform="translate(8.208 0)">
          <path id="Trazado_721745" data-name="Trazado 721745" d="M114.894,9.417v10.9a1.917,1.917,0,0,0,1.917,1.917h6.9l1.755,5.17a.548.548,0,0,0,1.038,0l1.755-5.17h6.9a1.917,1.917,0,0,0,1.917-1.917V9.417A1.917,1.917,0,0,0,135.149,7.5H116.811A1.917,1.917,0,0,0,114.894,9.417Z" transform="translate(-114.894 -7.5)" fill="#26a6fe"/>
        </g>
        <g id="Grupo_956433" data-name="Grupo 956433" transform="translate(25.8)">
          <path id="Trazado_721746" data-name="Trazado 721746" d="M316.244,7.5h-2.663A1.917,1.917,0,0,1,315.5,9.417v10.9a1.917,1.917,0,0,1-1.917,1.917h2.663a1.917,1.917,0,0,0,1.917-1.917V9.417A1.917,1.917,0,0,0,316.244,7.5Z" transform="translate(-313.581 -7.5)" fill="#0598e2"/>
        </g>
        <g id="Grupo_956434" data-name="Grupo 956434" transform="translate(33.942 18.396)">
          <path id="Trazado_721747" data-name="Trazado 721747" d="M411.661,230.941a1.331,1.331,0,0,1-1.331-1.331V218.937a1.008,1.008,0,0,0-1.008-1.008H405.53l.428-2.662h3.364a3.67,3.67,0,0,1,3.67,3.67V229.61A1.331,1.331,0,0,1,411.661,230.941Z" transform="translate(-405.53 -215.267)" fill="#c8effe"/>
        </g>
      </g>
      <g id="Grupo_956436" data-name="Grupo 956436" transform="translate(14.697 0)">
        <path id="Trazado_721748" data-name="Trazado 721748" d="M204.649,77.418a.664.664,0,0,0-1.018-.853,1.048,1.048,0,0,1-.106.109,1.061,1.061,0,0,1-.73.256,1.471,1.471,0,1,1,.822-2.69.664.664,0,1,0,.743-1.1,2.8,2.8,0,1,0-1.565,5.119,2.345,2.345,0,0,0,1.854-.84Z" transform="translate(-183.589 -66.227)"/>
        <path id="Trazado_721749" data-name="Trazado 721749" d="M265.868,56.672a.664.664,0,0,0,.664-.664V49.642a.664.664,0,0,0-1.328,0v6.366A.664.664,0,0,0,265.868,56.672Z" transform="translate(-243.023 -44.641)"/>
        <path id="Trazado_721750" data-name="Trazado 721750" d="M129.059,399a.664.664,0,0,0-.15.537l.972,5.982a.728.728,0,0,0,.72.611h16.74a.729.729,0,0,0,.72-.613l.972-5.98a.664.664,0,0,0-.655-.771h-6.031a.664.664,0,1,0,0,1.328h5.25l-.765,4.707H131.11l-.765-4.707h8.891a.664.664,0,1,0,0-1.328h-9.672A.665.665,0,0,0,129.059,399Z" transform="translate(-118.789 -363.461)"/>
        <path id="Trazado_721751" data-name="Trazado 721751" d="M53.095,18.4H36.613l.791-2.332h6.419a2.584,2.584,0,0,0,2.581-2.581V2.581A2.584,2.584,0,0,0,43.824,0H25.486A2.584,2.584,0,0,0,22.9,2.581v10.9a2.584,2.584,0,0,0,2.581,2.581h6.419l1.6,4.719a1.2,1.2,0,0,0,1.148.822h0a1.2,1.2,0,0,0,1.148-.822l.36-1.06H48.95L45.287,42.273a2.056,2.056,0,0,1-2.037,1.733H26.509a2.056,2.056,0,0,1-2.037-1.733L21.6,24.585a.664.664,0,0,0-.347-.481l-4.681-2.457a1.019,1.019,0,0,1,.474-1.922H30.459a.664.664,0,1,0,0-1.328H17.044a2.348,2.348,0,0,0-1.091,4.426l4.388,2.3,2.821,17.361a3.379,3.379,0,0,0,3.348,2.848H43.25A3.379,3.379,0,0,0,46.6,42.486l3.266-20.1h3.231a.344.344,0,0,1,.344.344V33.4a2,2,0,0,0,3.99,0V22.73A4.339,4.339,0,0,0,53.095,18.4ZM33.01,15.188a.664.664,0,0,0-.629-.451h-6.9a1.255,1.255,0,0,1-1.253-1.253V2.581a1.255,1.255,0,0,1,1.253-1.253H43.824a1.255,1.255,0,0,1,1.253,1.253v10.9a1.255,1.255,0,0,1-1.253,1.253h-6.9a.664.664,0,0,0-.629.451l-1.645,4.846ZM56.1,33.4a.667.667,0,0,1-1.334,0V22.73a1.674,1.674,0,0,0-1.672-1.672H50.082l.215-1.334h2.8A3.009,3.009,0,0,1,56.1,22.73V33.4Z" transform="translate(-14.697 0)"/>
        <path id="Trazado_721752" data-name="Trazado 721752" d="M228.883,297.863h.776a.664.664,0,1,0,0-1.328h-.776a.664.664,0,1,0,0,1.328Z" transform="translate(-209.313 -270.279)"/>
        <path id="Trazado_721753" data-name="Trazado 721753" d="M228.883,331.943h2.433a.664.664,0,1,0,0-1.328h-2.433a.664.664,0,1,0,0,1.328Z" transform="translate(-209.313 -301.341)"/>
        <path id="Trazado_721754" data-name="Trazado 721754" d="M228.883,366.022h.776a.664.664,0,1,0,0-1.328h-.776a.664.664,0,1,0,0,1.328Z" transform="translate(-209.313 -332.403)"/>
        <path id="Trazado_721755" data-name="Trazado 721755" d="M231.315,432.853h-2.433a.664.664,0,1,0,0,1.328h2.433a.664.664,0,0,0,0-1.328Z" transform="translate(-209.312 -394.527)"/>
      </g>
    </g>
  </g>
</svg>
