<svg xmlns="http://www.w3.org/2000/svg" width="105" height="105" viewBox="0 0 105 105">
  <g id="Grupo_956488" data-name="Grupo 956488" transform="translate(485 -542)">
    <circle id="Elipse_7677" data-name="Elipse 7677" cx="52.5" cy="52.5" r="52.5" transform="translate(-485 542)" fill="#adc46c"/>
    <g id="cl-2" transform="translate(-455 571)">
      <g id="XMLID_249_" transform="translate(9.946 20.445)">
        <path id="Trazado_721756" data-name="Trazado 721756" d="M133.506,252.266H113.878l-1.532-21.327h22.515Z" transform="translate(-112.346 -230.939)" fill="#b2f0fb"/>
      </g>
      <g id="Grupo_956437" data-name="Grupo 956437" transform="translate(0 0)">
        <path id="Trazado_721757" data-name="Trazado 721757" d="M185.628,44.186a.885.885,0,0,0-1.247.109.884.884,0,0,1-.722.311,1.337,1.337,0,1,1,.747-2.446.885.885,0,1,0,.991-1.467,3.108,3.108,0,1,0-1.738,5.684,2.649,2.649,0,0,0,2.078-.944A.885.885,0,0,0,185.628,44.186Z" transform="translate(-164.567 -36.606)" fill="#020288"/>
        <path id="Trazado_721758" data-name="Trazado 721758" d="M263.315,44.6l-.666,0V41.048a.885.885,0,1,0-1.771,0v4.441a.885.885,0,0,0,.736.873,3.693,3.693,0,0,0,.607.017l1.1,0a.885.885,0,1,0-.01-1.771Z" transform="translate(-237.782 -36.607)" fill="#020288"/>
        <path id="Trazado_721759" data-name="Trazado 721759" d="M165.984,134.08a.885.885,0,0,0,0-1.771h-2.67v-.892a.885.885,0,1,0-1.771,0v8h0a.885.885,0,0,0,0,1.771h0v15.115a.885.885,0,1,0,1.771,0v-.893h2.67a.885.885,0,1,0,0-1.771h-2.67v-1.785h.892a.885.885,0,0,0,0-1.771h-.892V148.3h2.67a.885.885,0,0,0,0-1.771h-2.67v-1.785h.892a.885.885,0,0,0,0-1.771h-.892v-1.785h1.781a.885.885,0,0,0,0-1.771h-1.781v-1.785h.892a.885.885,0,0,0,0-1.771h-.892V134.08h2.67Z" transform="translate(-146.431 -118.976)" fill="#020288"/>
        <path id="Trazado_721760" data-name="Trazado 721760" d="M41.776,6.222H36.928l.155-2.445A3.555,3.555,0,0,0,33.539,0H.886A.885.885,0,0,0,.281,1.532L4.856,5.816a1.776,1.776,0,0,1,.559,1.173L7.932,42.03a3.565,3.565,0,0,0,3.543,3.3H31.109A3.559,3.559,0,0,0,34.654,42l.636-10.007h2.575a6.272,6.272,0,0,0,6.254-5.76l1.2-16.2a3.554,3.554,0,0,0-3.542-3.815ZM36.59,11.549h2.9L38.6,25a1.787,1.787,0,0,1-1.778,1.664h-1.19ZM31.109,43.557H11.475A1.788,1.788,0,0,1,9.7,41.9L7.181,6.862A3.543,3.543,0,0,0,6.066,4.524L3.126,1.771H33.539a1.78,1.78,0,0,1,1.778,1.894l-2.43,38.224A1.785,1.785,0,0,1,31.109,43.557ZM43.552,9.906l-1.2,16.2a4.494,4.494,0,0,1-4.488,4.12H35.4l.113-1.785h1.3a3.562,3.562,0,0,0,3.545-3.318l.954-14.4a.886.886,0,0,0-.883-.944H36.7l.113-1.785h4.961a1.779,1.779,0,0,1,1.776,1.913Z" transform="translate(0 0)" fill="#020288"/>
      </g>
    </g>
  </g>
</svg>
