<svg xmlns="http://www.w3.org/2000/svg" width="315" height="37" viewBox="0 0 315 37">
  <g id="Grupo_957291" data-name="Grupo 957291" transform="translate(-180 -2769.887)">
    <rect id="Rectángulo_337601" data-name="Rectángulo 337601" width="297.99" height="37" transform="translate(180 2769.887)" fill="#dff2ed"/>
    <g id="hidrogeno" transform="translate(458.004 2769.887)">
      <circle id="Elipse_5451" data-name="Elipse 5451" cx="17.862" cy="17.862" r="17.862" transform="translate(0.639 0.383)" fill="#fff"/>
      <path id="Trazado_719121" data-name="Trazado 719121" d="M21.5,40.4A18.5,18.5,0,0,1,5.851,12.031l1.116.721A16.988,16.988,0,0,0,4.32,21.9,17.191,17.191,0,1,0,12.345,7.374l-.708-1.129A18.5,18.5,0,1,1,21.5,40.4Z" transform="translate(-2.999 -3.4)" fill="#0d3b66"/>
      <circle id="Elipse_5449" data-name="Elipse 5449" cx="4.465" cy="4.465" r="4.465" transform="translate(1.595 1.34)" fill="#e45f56"/>
      <circle id="Elipse_5450" data-name="Elipse 5450" cx="7.655" cy="7.655" r="7.655" transform="translate(10.845 10.59)" fill="#7accc8"/>
      <path id="Trazado_719122" data-name="Trazado 719122" d="M31.828,26v3.19H29.276V26H28v7.655h1.276v-3.19h2.552v3.19H33.1V26Z" transform="translate(-12.051 -11.583)" fill="#0d3b66"/>
    </g>
  </g>
</svg>
