<svg xmlns="http://www.w3.org/2000/svg" width="96" height="96" viewBox="0 0 96 96">
  <g id="Grupo_957297" data-name="Grupo 957297" transform="translate(-752 -866)">
    <circle id="Elipse_7690" data-name="Elipse 7690" cx="48" cy="48" r="48" transform="translate(752 866)" fill="#adc46c"/>
    <g id="Layer_79" transform="translate(771 885)">
      <g id="Grupo_956566" data-name="Grupo 956566" transform="translate(0)">
        <g id="Grupo_956498" data-name="Grupo 956498" transform="translate(0.558 27.237)">
          <g id="Grupo_956497" data-name="Grupo 956497">
            <path id="Trazado_721846" data-name="Trazado 721846" d="M37.925,137.462c-4.758-3.244-6.208-15.132-13.386-15.326-3.512-.1-8.73,4.268-10.767,9.777-2.263,6.119-3.007,6.325-6.887,10.011a52.3,52.3,0,0,0-4.128,4.514,1.133,1.133,0,0,0-.258.723v3.25a1.019,1.019,0,0,0,1.019,1.019H51.5c-7.178-2.716-5.044-8.148-13.58-13.967Z" transform="translate(-2.5 -122.135)" fill="#fed690"/>
          </g>
        </g>
        <g id="Grupo_956500" data-name="Grupo 956500" transform="translate(29.919 19.297)">
          <g id="Grupo_956499" data-name="Grupo 956499">
            <path id="Trazado_721847" data-name="Trazado 721847" d="M160.639,99.351l-.146-.392c-2.589-7-9.221-12.547-13.685-12.427-6.552.177-9.35,8.021-12.646,13.956,1.981,3.524,3.567,7.607,6.064,9.31,8.536,5.82,6.4,11.252,13.58,13.968h5.95a1.019,1.019,0,0,0,1.019-1.019V100.1a2.148,2.148,0,0,0-.136-.749Z" transform="translate(-134.162 -86.53)" fill="#feb872"/>
          </g>
        </g>
        <g id="Grupo_956502" data-name="Grupo 956502" transform="translate(0.882 39.304)">
          <g id="Grupo_956501" data-name="Grupo 956501">
            <path id="Trazado_721848" data-name="Trazado 721848" d="M39.054,179.508a10.477,10.477,0,0,1-2.8-3.26c-.638.025-1.27.07-1.885.142-4.362.5-7.152,2.065-11.3,2.763a38.094,38.094,0,0,1-9.381.231c-.4-.036-.794-.077-1.19-.121-1.044,1.612-2.239,2.582-4.476,4.707A51.928,51.928,0,0,0,3.953,188.4c2.508.371,4.977,1.15,7.483,1.609a23.415,23.415,0,0,0,11.458-.569c5.07-1.719,8.477-5.561,13.805-6.8a16.848,16.848,0,0,1,5.825-.265A22.942,22.942,0,0,0,39.054,179.508Z" transform="translate(-3.953 -176.248)" fill="#feb872"/>
          </g>
        </g>
        <g id="Grupo_956504" data-name="Grupo 956504" transform="translate(11.13 28.957)">
          <g id="Grupo_956503" data-name="Grupo 956503">
            <path id="Trazado_721849" data-name="Trazado 721849" d="M65.5,129.849c-2.181,2.3-4.2,5.011-6.732,6.558a10.757,10.757,0,0,1-8.046,1.206c-.038.1-.078.2-.115.294-.25.676-.481,1.277-.7,1.821a18.915,18.915,0,0,0,8.86-.554c3.676-1.246,6.285-3.855,9.864-5.142A16.3,16.3,0,0,0,65.5,129.849Z" transform="translate(-49.909 -129.849)" fill="#fce4be"/>
          </g>
        </g>
        <g id="Grupo_956506" data-name="Grupo 956506" transform="translate(27.645 48.064)">
          <g id="Grupo_956505" data-name="Grupo 956505">
            <path id="Trazado_721850" data-name="Trazado 721850" d="M137.95,215.529a17.235,17.235,0,0,0-9.526,4.734A45.721,45.721,0,0,1,123.965,224h21.917C141.05,222.168,140.438,219.109,137.95,215.529Z" transform="translate(-123.965 -215.529)" fill="#feb872"/>
          </g>
        </g>
        <g id="Grupo_956508" data-name="Grupo 956508" transform="translate(30.721 34.74)">
          <g id="Grupo_956507" data-name="Grupo 956507">
            <path id="Trazado_721851" data-name="Trazado 721851" d="M152.916,159.368c-5.275-.887-8.822-2.87-14.366-3.512-.26-.03-.526-.052-.791-.075,1.634,3.122,3.11,6.357,5.261,7.824a21.381,21.381,0,0,1,6.908,7.486,24.807,24.807,0,0,0,3.2,1.357,27.6,27.6,0,0,0,10.441,1.224V159.761A47.1,47.1,0,0,1,152.916,159.368Z" transform="translate(-137.76 -155.782)" fill="#d68649"/>
          </g>
        </g>
        <g id="Grupo_956510" data-name="Grupo 956510" transform="translate(33.34 21.483)">
          <g id="Grupo_956509" data-name="Grupo 956509">
            <path id="Trazado_721852" data-name="Trazado 721852" d="M172.561,106.97l-.147-.394c-.046-.125-.1-.249-.146-.374a13.673,13.673,0,0,1-10.226-1.533c-3.213-1.967-5.784-5.413-8.556-8.336a20.72,20.72,0,0,0-3.981,5.317c4.548,1.637,7.865,4.952,12.537,6.536a23.739,23.739,0,0,0,10.654.793v-1.264A2.126,2.126,0,0,0,172.561,106.97Z" transform="translate(-149.505 -96.334)" fill="#fed690"/>
          </g>
        </g>
        <g id="Grupo_956512" data-name="Grupo 956512" transform="translate(3.172 45.086)">
          <g id="Grupo_956511" data-name="Grupo 956511">
            <path id="Trazado_721853" data-name="Trazado 721853" d="M29.767,202.952c-1.057-1.056-2.556-.734-11.776-.714-.565.537-1.216,1.136-2,1.878-.591.562-1.187,1.175-1.772,1.807,6.534.9,10.872,1.367,14.668-.516C30.025,204.844,30.5,203.689,29.767,202.952Z" transform="translate(-14.222 -202.177)" fill="#d68649"/>
          </g>
        </g>
        <g id="Grupo_956514" data-name="Grupo 956514" transform="translate(47.048 41.984)">
          <g id="Grupo_956513" data-name="Grupo 956513">
            <path id="Trazado_721854" data-name="Trazado 721854" d="M211.424,189.252c-.936.936-.328,2.405,1.115,3.121a17.5,17.5,0,0,0,7.92,1.654V188.3c-6.526-.075-7.961-.123-9.035.951Z" transform="translate(-210.976 -188.267)" fill="#a57453"/>
          </g>
        </g>
        <g id="Grupo_956517" data-name="Grupo 956517" transform="translate(0 26.679)">
          <g id="Grupo_956516" data-name="Grupo 956516">
            <g id="Grupo_956515" data-name="Grupo 956515">
              <path id="Trazado_721855" data-name="Trazado 721855" d="M49.759,148.966c-3.485-1.319-4.636-3.271-6.093-5.743a22.325,22.325,0,0,0-7.37-8.164c-1.775-1.211-3.1-3.774-4.494-6.488-2.127-4.129-4.538-8.809-9.191-8.935-3.976-.112-9.268,4.631-11.3,10.141-1.97,5.328-2.735,6.043-5.581,8.7-.356.332-.742.694-1.167,1.1a52.059,52.059,0,0,0-4.174,4.563A1.691,1.691,0,0,0,0,145.218v3.25a1.578,1.578,0,0,0,1.576,1.577H49.562a.558.558,0,0,0,.2-1.079ZM1.576,148.93a.462.462,0,0,1-.461-.461v-3.25a.577.577,0,0,1,.131-.368,51.03,51.03,0,0,1,4.082-4.465c.422-.4.807-.76,1.16-1.091,2.922-2.731,3.8-3.555,5.866-9.131,2.009-5.433,6.97-9.414,10.129-9.414h.1c3.993.108,6.147,4.288,8.229,8.331,1.464,2.843,2.848,5.528,4.857,6.9a21.365,21.365,0,0,1,7.038,7.809c1.171,1.987,2.218,3.763,4.437,5.14H1.576Z" transform="translate(0 -119.635)"/>
            </g>
          </g>
        </g>
        <g id="Grupo_956519" data-name="Grupo 956519" transform="translate(29.434 18.739)">
          <g id="Grupo_956518" data-name="Grupo 956518">
            <path id="Trazado_721856" data-name="Trazado 721856" d="M159.473,97.214l-.145-.39a23.111,23.111,0,0,0-6.293-9.109c-2.716-2.4-5.611-3.743-7.93-3.682-5.824.157-8.736,5.809-11.552,11.275-.487.946-.991,1.925-1.494,2.835a.558.558,0,0,0,.976.539c.51-.925,1.018-1.91,1.509-2.864,2.667-5.178,5.425-10.532,10.591-10.671l.129,0c4.067,0,10.444,5.1,13.018,12.065l.146.393a1.575,1.575,0,0,1,.1.554V120.8a.462.462,0,0,1-.462.462h-5.95a.558.558,0,1,0,0,1.115h5.95a1.579,1.579,0,0,0,1.577-1.577V98.158a2.674,2.674,0,0,0-.171-.944Z" transform="translate(-131.99 -84.031)"/>
          </g>
        </g>
        <g id="Grupo_956521" data-name="Grupo 956521" transform="translate(35.356 3.165)">
          <g id="Grupo_956520" data-name="Grupo 956520">
            <path id="Trazado_721857" data-name="Trazado 721857" d="M169.919,18.078a.408.408,0,0,1-.287-.236,2.2,2.2,0,0,0-2.018-1.291c-.075,0-.149,0-.222.012a.408.408,0,0,1-.426-.248,3.4,3.4,0,0,0-6.314.043.416.416,0,0,1-.307.265,2.205,2.205,0,0,0-1.8,2.2A2.24,2.24,0,0,0,160.814,21l8.782-.045a1.478,1.478,0,0,0,1.486-1.451A1.451,1.451,0,0,0,169.919,18.078Z" transform="translate(-158.544 -14.191)" fill="#dae6f1"/>
          </g>
        </g>
        <g id="Grupo_956523" data-name="Grupo 956523" transform="translate(16.139 5.85)">
          <g id="Grupo_956522" data-name="Grupo 956522">
            <path id="Trazado_721858" data-name="Trazado 721858" d="M85.09,30.579a.456.456,0,0,1-.321-.264,2.464,2.464,0,0,0-2.5-1.43.456.456,0,0,1-.476-.277,3.8,3.8,0,0,0-7.06.048.466.466,0,0,1-.343.3,2.466,2.466,0,0,0-2.014,2.46,2.505,2.505,0,0,0,2.538,2.429l9.82-.05a1.653,1.653,0,0,0,1.661-1.622,1.622,1.622,0,0,0-1.3-1.59Z" transform="translate(-72.371 -26.233)" fill="#dae6f1"/>
          </g>
        </g>
        <g id="Grupo_956525" data-name="Grupo 956525" transform="translate(3.603 8.797)">
          <g id="Grupo_956524" data-name="Grupo 956524">
            <path id="Trazado_721859" data-name="Trazado 721859" d="M35.494,44.171l-.11-.084-4.153.021a2.5,2.5,0,0,1-2.538-2.429,2.458,2.458,0,0,1,.972-1.995l-.059-.045a5.614,5.614,0,0,0-6.673,3.345.675.675,0,0,1-.7.413c-.12-.012-.243-.018-.366-.018a3.644,3.644,0,0,0-3.325,2.151.674.674,0,0,1-.472.393,2.4,2.4,0,0,0-1.91,2.36,2.443,2.443,0,0,0,2.468,2.385H33.141a3.7,3.7,0,0,0,3.733-3.61,3.635,3.635,0,0,0-1.38-2.887Z" transform="translate(-16.157 -39.446)" fill="#c7d7e5"/>
          </g>
        </g>
        <g id="Grupo_956528" data-name="Grupo 956528" transform="translate(34.798 2.607)">
          <g id="Grupo_956527" data-name="Grupo 956527">
            <g id="Grupo_956526" data-name="Grupo 956526">
              <path id="Trazado_721860" data-name="Trazado 721860" d="M168.167,15.608a2.767,2.767,0,0,0-2.484-1.556c-.062,0-.126,0-.188.006a3.93,3.93,0,0,0-3.619-2.366h-.021a3.93,3.93,0,0,0-3.64,2.459,2.754,2.754,0,0,0-2.172,2.739,2.8,2.8,0,0,0,2.815,2.722h.015l8.782-.045a2.034,2.034,0,0,0,2.04-2.008A2.013,2.013,0,0,0,168.167,15.608Zm-.517,2.844-8.782.045h-.009a1.68,1.68,0,0,1-1.7-1.623A1.642,1.642,0,0,1,158.5,15.23a.967.967,0,0,0,.726-.612,2.822,2.822,0,0,1,2.632-1.811h.015a2.823,2.823,0,0,1,2.63,1.775.972.972,0,0,0,1,.593c.056-.006.114-.007.173-.009a1.651,1.651,0,0,1,1.5.965.969.969,0,0,0,.684.551.9.9,0,0,1,.715.876A.917.917,0,0,1,167.65,18.452Z" transform="translate(-156.043 -11.692)"/>
            </g>
          </g>
        </g>
        <g id="Grupo_956531" data-name="Grupo 956531" transform="translate(15.581 5.292)">
          <g id="Grupo_956530" data-name="Grupo 956530">
            <g id="Grupo_956529" data-name="Grupo 956529">
              <path id="Trazado_721861" data-name="Trazado 721861" d="M83.314,28.1a3.028,3.028,0,0,0-2.733-1.731h-.016c-.078,0-.157,0-.236.01a4.33,4.33,0,0,0-4-2.649H76.3a4.33,4.33,0,0,0-4.023,2.741,3.014,3.014,0,0,0-2.41,3,3.062,3.062,0,0,0,3.082,2.978h.016l9.82-.05A2.209,2.209,0,0,0,85,30.226,2.185,2.185,0,0,0,83.314,28.1Zm-.533,3.188-9.82.05h-.01a1.944,1.944,0,0,1-1.967-1.879,1.9,1.9,0,0,1,1.558-1.9,1.016,1.016,0,0,0,.761-.643,3.221,3.221,0,0,1,3-2.067h.017a3.222,3.222,0,0,1,3,2.027,1.019,1.019,0,0,0,1.051.622q.095-.01.193-.01h.01A1.912,1.912,0,0,1,82.317,28.6a1.018,1.018,0,0,0,.718.58,1.067,1.067,0,0,1,.853,1.043A1.091,1.091,0,0,1,82.781,31.29Z" transform="translate(-69.869 -23.732)"/>
            </g>
          </g>
        </g>
        <g id="Grupo_956533" data-name="Grupo 956533" transform="translate(3.046 8.239)">
          <g id="Grupo_956532" data-name="Grupo 956532">
            <path id="Trazado_721862" data-name="Trazado 721862" d="M33.9,41.792a.557.557,0,1,0-.694.873,3.068,3.068,0,0,1,1.169,2.445A3.142,3.142,0,0,1,31.2,48.168H16.682a1.88,1.88,0,0,1-1.91-1.831,1.844,1.844,0,0,1,1.465-1.811,1.238,1.238,0,0,0,.868-.71,3.088,3.088,0,0,1,3.127-1.807,1.239,1.239,0,0,0,1.276-.762,5.057,5.057,0,0,1,6.011-3.013.557.557,0,1,0,.289-1.077,6.171,6.171,0,0,0-7.336,3.678.123.123,0,0,1-.128.064c-.14-.014-.282-.021-.423-.021a4.21,4.21,0,0,0-3.833,2.48.124.124,0,0,1-.077.076,2.962,2.962,0,0,0-2.354,2.909,3,3,0,0,0,3.025,2.94H31.2a4.26,4.26,0,0,0,4.291-4.162,4.175,4.175,0,0,0-1.59-3.329Z" transform="translate(-13.657 -36.946)"/>
          </g>
        </g>
        <g id="Grupo_956535" data-name="Grupo 956535" transform="translate(6.272 30.557)">
          <g id="Grupo_956534" data-name="Grupo 956534">
            <path id="Trazado_721863" data-name="Trazado 721863" d="M30.974,138.4a1.738,1.738,0,0,1-1.383-1.36c0-.022-.067-.022-.067,0a1.738,1.738,0,0,1-1.383,1.36c-.022,0-.022.045,0,.067a1.738,1.738,0,0,1,1.383,1.36c0,.022.067.022.067,0a1.738,1.738,0,0,1,1.383-1.36C31,138.447,31,138.4,30.974,138.4Z" transform="translate(-28.125 -137.025)" fill="#70d6f9"/>
          </g>
        </g>
        <g id="Grupo_956537" data-name="Grupo 956537" transform="translate(49.439 14.272)">
          <g id="Grupo_956536" data-name="Grupo 956536">
            <path id="Trazado_721864" data-name="Trazado 721864" d="M224.885,65.227h-.535v-.513a.7.7,0,0,0-.714-.714.714.714,0,0,0-.714.691v.535h-.513a.7.7,0,0,0-.714.714.691.691,0,0,0,.714.714h.513v.513a.7.7,0,0,0,.714.714.714.714,0,0,0,.714-.691v-.535h.513a.7.7,0,0,0,.714-.714A.714.714,0,0,0,224.885,65.227Z" transform="translate(-221.695 -64)" fill="#fc657e"/>
          </g>
        </g>
        <g id="Grupo_956539" data-name="Grupo 956539" transform="translate(53.722 20.628)">
          <g id="Grupo_956538" data-name="Grupo 956538">
            <path id="Trazado_721865" data-name="Trazado 721865" d="M241.658,92.5a.758.758,0,1,0,.758.758A.758.758,0,0,0,241.658,92.5Z" transform="translate(-240.9 -92.5)" fill="#f5c84c"/>
          </g>
        </g>
        <g id="Grupo_956541" data-name="Grupo 956541" transform="translate(19.379)">
          <g id="Grupo_956540" data-name="Grupo 956540">
            <path id="Trazado_721866" data-name="Trazado 721866" d="M87.658,0a.758.758,0,1,0,.758.758A.758.758,0,0,0,87.658,0Z" transform="translate(-86.9)" fill="#87d147"/>
          </g>
        </g>
        <g id="Grupo_956543" data-name="Grupo 956543" transform="translate(11.942 1.639)">
          <g id="Grupo_956542" data-name="Grupo 956542">
            <path id="Trazado_721867" data-name="Trazado 721867" d="M57.642,9.324a2.475,2.475,0,0,1-1.985-1.94c0-.045-.089-.045-.089,0a2.475,2.475,0,0,1-1.985,1.94c-.045,0-.045.067,0,.089a2.475,2.475,0,0,1,1.985,1.94c0,.045.089.045.089,0a2.475,2.475,0,0,1,1.985-1.94C57.687,9.39,57.687,9.324,57.642,9.324Z" transform="translate(-53.55 -7.35)" fill="#f5c84c"/>
          </g>
        </g>
        <g id="Grupo_956545" data-name="Grupo 956545" transform="translate(0.41 44.739)">
          <g id="Grupo_956544" data-name="Grupo 956544">
            <path id="Trazado_721868" data-name="Trazado 721868" d="M40.84,200.744a17.448,17.448,0,0,0-5.911.288,25.612,25.612,0,0,0-7.758,3.66,29.716,29.716,0,0,1-6.1,3.16,22.782,22.782,0,0,1-11.179.548c-1.089-.2-2.2-.467-3.267-.725-1.352-.326-2.75-.663-4.147-.875a.558.558,0,1,0-.167,1.1c1.351.2,2.724.536,4.053.856,1.086.262,2.208.532,3.328.737a27.356,27.356,0,0,0,4.916.454,21.392,21.392,0,0,0,6.822-1.044,30.564,30.564,0,0,0,6.331-3.268,24.382,24.382,0,0,1,7.422-3.521,16.342,16.342,0,0,1,5.529-.266.558.558,0,0,0,.129-1.108Z" transform="translate(-1.836 -200.618)"/>
          </g>
        </g>
        <g id="Grupo_956547" data-name="Grupo 956547" transform="translate(8.962 38.75)">
          <g id="Grupo_956546" data-name="Grupo 956546">
            <path id="Trazado_721869" data-name="Trazado 721869" d="M64.3,173.765c-.643.027-1.264.074-1.846.142a33.506,33.506,0,0,0-6.314,1.479,37.749,37.749,0,0,1-5.016,1.288,37.424,37.424,0,0,1-9.238.226q-.541-.05-1.08-.109a.558.558,0,1,0-.121,1.109q.549.06,1.1.111c1.346.122,2.69.183,3.992.183a33.927,33.927,0,0,0,5.532-.419,38.686,38.686,0,0,0,5.16-1.322,32.148,32.148,0,0,1,6.114-1.437c.555-.064,1.148-.109,1.764-.135a.558.558,0,0,0,.534-.58A.566.566,0,0,0,64.3,173.765Z" transform="translate(-40.187 -173.764)"/>
          </g>
        </g>
        <g id="Grupo_956549" data-name="Grupo 956549" transform="translate(11.526 28.483)">
          <g id="Grupo_956548" data-name="Grupo 956548">
            <path id="Trazado_721870" data-name="Trazado 721870" d="M67.186,127.876a.558.558,0,0,0-.788.023c-.531.564-1.06,1.158-1.572,1.732a24.189,24.189,0,0,1-4.966,4.65,10.138,10.138,0,0,1-7.5,1.165.558.558,0,0,0-.228,1.092,12.744,12.744,0,0,0,2.606.276,10.812,10.812,0,0,0,5.706-1.582,24.984,24.984,0,0,0,5.216-4.859c.506-.569,1.03-1.157,1.551-1.709A.558.558,0,0,0,67.186,127.876Z" transform="translate(-51.687 -127.725)"/>
          </g>
        </g>
        <g id="Grupo_956551" data-name="Grupo 956551" transform="translate(10.722 32.63)">
          <g id="Grupo_956550" data-name="Grupo 956550">
            <path id="Trazado_721871" data-name="Trazado 721871" d="M67.605,146.682a.558.558,0,0,0-.717-.329,26.455,26.455,0,0,0-4.746,2.513,24.279,24.279,0,0,1-4.974,2.576,18.325,18.325,0,0,1-8.448.554.558.558,0,1,0-.168,1.1,22.284,22.284,0,0,0,3.346.256,17.682,17.682,0,0,0,5.627-.857,25.115,25.115,0,0,0,5.2-2.685,25.238,25.238,0,0,1,4.545-2.415A.557.557,0,0,0,67.605,146.682Z" transform="translate(-48.08 -146.319)"/>
          </g>
        </g>
        <g id="Grupo_956553" data-name="Grupo 956553" transform="translate(27.208 47.533)">
          <g id="Grupo_956552" data-name="Grupo 956552">
            <path id="Trazado_721872" data-name="Trazado 721872" d="M136.792,213.622a.556.556,0,0,0-.635-.468,17.8,17.8,0,0,0-9.639,4.853,45.718,45.718,0,0,1-4.285,3.6.558.558,0,0,0,.659.9,46.86,46.86,0,0,0,4.39-3.689,16.71,16.71,0,0,1,9.042-4.562A.557.557,0,0,0,136.792,213.622Z" transform="translate(-122.005 -213.148)"/>
          </g>
        </g>
        <g id="Grupo_956555" data-name="Grupo 956555" transform="translate(42.392 49.522)">
          <g id="Grupo_956554" data-name="Grupo 956554">
            <path id="Trazado_721873" data-name="Trazado 721873" d="M204.006,224.632a27,27,0,0,1-10.035-1.207,24.073,24.073,0,0,1-3.07-1.3.557.557,0,0,0-.5,1,25.167,25.167,0,0,0,3.211,1.357,27.069,27.069,0,0,0,8.618,1.315q.91,0,1.836-.051a.557.557,0,0,0-.062-1.113Z" transform="translate(-190.094 -222.068)"/>
          </g>
        </g>
        <g id="Grupo_956557" data-name="Grupo 956557" transform="translate(30.272 34.192)">
          <g id="Grupo_956556" data-name="Grupo 956556">
            <path id="Trazado_721874" data-name="Trazado 721874" d="M161.768,157.308a45.873,45.873,0,0,1-10.324-.4,48.1,48.1,0,0,1-6.4-1.642,42.445,42.445,0,0,0-8-1.874c-.217-.025-.437-.044-.657-.063l-.041,0a.557.557,0,1,0-.1,1.111l.041,0c.209.018.419.036.625.06a40.956,40.956,0,0,1,7.8,1.832,49.047,49.047,0,0,0,6.54,1.676,42.553,42.553,0,0,0,6.973.532c1.175,0,2.383-.039,3.608-.118a.558.558,0,0,0-.072-1.113Z" transform="translate(-135.746 -153.323)"/>
          </g>
        </g>
        <g id="Grupo_956559" data-name="Grupo 956559" transform="translate(36.884 21.052)">
          <g id="Grupo_956558" data-name="Grupo 956558">
            <path id="Trazado_721875" data-name="Trazado 721875" d="M185.034,104.613a.557.557,0,0,0-.661-.43,13.041,13.041,0,0,1-9.693-1.49,30.845,30.845,0,0,1-6.345-5.937c-.644-.723-1.309-1.47-1.976-2.179a.558.558,0,0,0-.812.764c.657.7,1.317,1.439,1.956,2.156a31.64,31.64,0,0,0,6.6,6.147,13.587,13.587,0,0,0,7.173,1.989,16.077,16.077,0,0,0,3.334-.359.557.557,0,0,0,.429-.661Z" transform="translate(-165.395 -94.401)"/>
          </g>
        </g>
        <g id="Grupo_956561" data-name="Grupo 956561" transform="translate(32.891 26.282)">
          <g id="Grupo_956560" data-name="Grupo 956560">
            <path id="Trazado_721876" data-name="Trazado 721876" d="M171.551,125.645a.559.559,0,0,0-.626-.479,22.928,22.928,0,0,1-10.269-.786,30.956,30.956,0,0,1-6.353-3.289,33.248,33.248,0,0,0-6.063-3.2.557.557,0,0,0-.384,1.047,31.925,31.925,0,0,1,5.859,3.1,31.817,31.817,0,0,0,6.584,3.4,22.055,22.055,0,0,0,7.059,1.086,28.341,28.341,0,0,0,3.715-.25.558.558,0,0,0,.48-.626Z" transform="translate(-147.49 -117.853)"/>
          </g>
        </g>
        <g id="Grupo_956563" data-name="Grupo 956563" transform="translate(2.765 44.529)">
          <g id="Grupo_956562" data-name="Grupo 956562">
            <path id="Trazado_721877" data-name="Trazado 721877" d="M28.746,200.618c-.988-.988-2.161-.973-7.093-.917-1.312.015-2.945.034-4.919.039a.558.558,0,0,0,0,1.115h0c1.979,0,3.614-.024,4.928-.039,4.743-.056,5.656-.045,6.292.59a.587.587,0,0,1,.18.54,1.588,1.588,0,0,1-.911,1.022c-3.585,1.779-7.754,1.369-14.193.484a.557.557,0,1,0-.152,1.1,63.161,63.161,0,0,0,8.24.769,14.337,14.337,0,0,0,6.6-1.359,2.642,2.642,0,0,0,1.516-1.84,1.7,1.7,0,0,0-.492-1.509Z" transform="translate(-12.4 -199.68)"/>
          </g>
        </g>
        <g id="Grupo_956565" data-name="Grupo 956565" transform="translate(46.49 41.427)">
          <g id="Grupo_956564" data-name="Grupo 956564">
            <path id="Trazado_721878" data-name="Trazado 721878" d="M218.4,191.528a16.87,16.87,0,0,1-7.557-1.594,2.14,2.14,0,0,1-1.24-1.41.9.9,0,0,1,.271-.818c.851-.851,2.024-.865,8.108-.794l.415,0h.007a.558.558,0,0,0,.006-1.115l-.415,0c-6.22-.072-7.7-.089-8.91,1.121a2.009,2.009,0,0,0-.583,1.786,3.206,3.206,0,0,0,1.844,2.229,17.931,17.931,0,0,0,8.041,1.711h.006a.558.558,0,0,0,.006-1.115Z" transform="translate(-208.474 -185.77)"/>
          </g>
        </g>
      </g>
    </g>
  </g>
</svg>
