<svg xmlns="http://www.w3.org/2000/svg" xmlns:xlink="http://www.w3.org/1999/xlink" width="111.999" height="111.999" viewBox="0 0 111.999 111.999">
  <defs>
    <linearGradient id="linear-gradient" y1="0.5" x2="1" y2="0.5" gradientUnits="objectBoundingBox">
      <stop offset="0" stop-color="#2bc4f3"/>
      <stop offset="0.5" stop-color="#00aeee"/>
      <stop offset="1" stop-color="#0095da"/>
    </linearGradient>
    <linearGradient id="linear-gradient-2" x1="-0.016" y1="0.148" x2="0.772" y2="0.844" gradientUnits="objectBoundingBox">
      <stop offset="0"/>
      <stop offset="1" stop-opacity="0"/>
    </linearGradient>
  </defs>
  <g id="numero-2" transform="translate(-0.433 -0.396)">
    <circle id="Elipse_5490" data-name="Elipse 5490" cx="56" cy="56" r="56" transform="translate(0.433 0.396)" fill="url(#linear-gradient)"/>
    <path id="Trazado_719536" data-name="Trazado 719536" d="M238.405,172.943l-38.84-38.84c-3.577-3.755-9.028-5.974-15.595-5.974-12.334,0-19.8,7.529-19.8,18.92v1.043l15.147,15.147c-3.77,4.681-8.953,10.857-16.055,19.234V185.9L190.5,213.14A56.522,56.522,0,0,0,238.405,172.943Z" transform="translate(-127.06 -102.127)" opacity="0.49" fill="url(#linear-gradient-2)"/>
    <path id="Trazado_719537" data-name="Trazado 719537" d="M205.161,172.541V185.9h-41.9v-3.429c22.666-26.734,25.788-31.054,25.788-35.891a4.759,4.759,0,0,0-4.9-5.1c-3.163,0-5.091,2.133-5.091,5.524v1.089H164.17v-1.042c0-11.391,7.466-18.92,19.8-18.92,11.95,0,20.2,7.347,20.2,17.924,0,7.089-2.623,12.531-14.672,26.488Z" transform="translate(-127.06 -102.127)" fill="#fff"/>
  </g>
</svg>
