<svg xmlns="http://www.w3.org/2000/svg" xmlns:xlink="http://www.w3.org/1999/xlink" width="288.244" height="260.745" viewBox="0 0 288.244 260.745">
  <defs>
    <clipPath id="clip-path">
      <ellipse id="Elipse_7701" data-name="Elipse 7701" cx="62.207" cy="128.677" rx="62.207" ry="128.677" fill="none" stroke="#000" stroke-miterlimit="10" stroke-width="3.392"/>
    </clipPath>
  </defs>
  <g id="Grupo_957296" data-name="Grupo 957296" transform="translate(-477 -1162.373)">
    <g id="Grupo_956596" data-name="Grupo 956596" transform="translate(478 1177.135)">
      <g id="Grupo_956594" data-name="Grupo 956594" transform="translate(4.944 95.596)">
        <g id="Grupo_956593" data-name="Grupo 956593">
          <path id="Trazado_721912" data-name="Trazado 721912" d="M449.7,723.04V840.149a4.687,4.687,0,0,0,.036.531,3.642,3.642,0,0,0-.036.468s3.746,17.949,8.369,17.949,8.368-17.949,8.368-17.949a3.642,3.642,0,0,0-.036-.468,4.687,4.687,0,0,0,.036-.531V723.04a27.974,27.974,0,0,1-16.737,0Z" transform="translate(-449.703 -723.04)" fill="silver"/>
        </g>
      </g>
      <path id="Trazado_721913" data-name="Trazado 721913" d="M466.942,596.56a8.352,8.352,0,0,0-3.53-6.82c0-.083.012-.164.012-.248v-5.337a4.851,4.851,0,1,0-9.7,0v5.337c0,.084.009.165.013.248a8.35,8.35,0,0,0-3.53,6.82V785.374c0,.242.016.48.036.716-.02.209-.036.419-.036.632,0,0,3.747,24.234,8.369,24.234s8.369-24.234,8.369-24.234c0-.214-.017-.424-.037-.632.02-.236.037-.474.037-.716Z" transform="translate(-444.927 -579.304)" fill="none" stroke="#000" stroke-miterlimit="10" stroke-width="1"/>
      <line id="Línea_2850" data-name="Línea 2850" x2="16.737" transform="translate(5.278 202.637)" fill="none" stroke="#000" stroke-miterlimit="10" stroke-width="1"/>
      <line id="Línea_2851" data-name="Línea 2851" x2="16.737" transform="translate(5.242 184.936)" fill="none" stroke="#000" stroke-miterlimit="10" stroke-width="1"/>
      <line id="Línea_2852" data-name="Línea 2852" x2="16.737" transform="translate(5.242 150.435)" fill="none" stroke="#000" stroke-miterlimit="10" stroke-width="1"/>
      <line id="Línea_2853" data-name="Línea 2853" x2="16.737" transform="translate(5.242 132.564)" fill="none" stroke="#000" stroke-miterlimit="10" stroke-width="1"/>
      <line id="Línea_2854" data-name="Línea 2854" x2="16.737" transform="translate(5.242 114.663)" fill="none" stroke="#000" stroke-miterlimit="10" stroke-width="1"/>
      <line id="Línea_2855" data-name="Línea 2855" x2="16.737" transform="translate(5.242 80.294)" fill="none" stroke="#000" stroke-miterlimit="10" stroke-width="1"/>
      <line id="Línea_2856" data-name="Línea 2856" x2="16.737" transform="translate(5.242 62.238)" fill="none" stroke="#000" stroke-miterlimit="10" stroke-width="1"/>
      <line id="Línea_2857" data-name="Línea 2857" x2="16.737" transform="translate(5.242 27.657)" fill="none" stroke="#000" stroke-miterlimit="10" stroke-width="1"/>
      <line id="Línea_2858" data-name="Línea 2858" x2="16.44" transform="translate(5.575 97.123)" fill="none" stroke="#000" stroke-miterlimit="10" stroke-width="1.137"/>
      <line id="Línea_2859" data-name="Línea 2859" x2="16.404" transform="translate(5.575 45.332)" fill="none" stroke="#000" stroke-miterlimit="10" stroke-width="1.136"/>
      <g id="Grupo_956595" data-name="Grupo 956595" transform="translate(12.909 17.035)">
        <text id="_0" data-name="0" transform="translate(2.498 7)" fill="#a20b00" font-size="7" font-family="SegoeUI, Segoe UI"><tspan x="0" y="0">0</tspan></text>
        <text id="_1" data-name="1" transform="translate(4.301 24)" font-size="7" font-family="SegoeUI, Segoe UI"><tspan x="0" y="0">1</tspan></text>
        <text id="_2" data-name="2" transform="translate(4.301 42.837)" font-size="7" font-family="SegoeUI, Segoe UI"><tspan x="0" y="0">2</tspan></text>
        <text id="_3" data-name="3" transform="translate(4.301 59.993)" font-size="7" font-family="SegoeUI, Segoe UI"><tspan x="0" y="0">3</tspan></text>
        <text id="_4" data-name="4" transform="translate(4.301 76.915)" font-size="7" font-family="SegoeUI, Segoe UI"><tspan x="0" y="0">4</tspan></text>
        <text id="_5" data-name="5" transform="translate(4.301 94.52)" font-size="7" font-family="SegoeUI, Segoe UI"><tspan x="0" y="0">5</tspan></text>
        <text id="_6" data-name="6" transform="translate(4.301 112.771)" font-size="7" font-family="SegoeUI, Segoe UI"><tspan x="0" y="0">6</tspan></text>
        <text id="_7" data-name="7" transform="translate(4.301 129.589)" font-size="7" font-family="SegoeUI, Segoe UI"><tspan x="0" y="0">7</tspan></text>
        <text id="_8" data-name="8" transform="translate(4.301 147.395)" font-size="7" font-family="SegoeUI, Segoe UI"><tspan x="0" y="0">8</tspan></text>
        <text id="_9" data-name="9" transform="translate(4.301 165.441)" font-size="7" font-family="SegoeUI, Segoe UI"><tspan x="0" y="0">9</tspan></text>
        <text id="_10" data-name="10" transform="translate(0 183.826)" font-size="8" font-family="SegoeUI, Segoe UI"><tspan x="0" y="0">10</tspan></text>
      </g>
      <ellipse id="Elipse_7700" data-name="Elipse 7700" cx="13.753" cy="28.449" rx="13.753" ry="28.449" transform="translate(0 77.045)" fill="none" stroke="#000" stroke-miterlimit="10" stroke-width="2"/>
    </g>
    <g id="Grupo_956602" data-name="Grupo 956602" transform="translate(639.134 1164.069)">
      <g id="Grupo_956601" data-name="Grupo 956601" clip-path="url(#clip-path)">
        <g id="Grupo_956600" data-name="Grupo 956600" transform="translate(22.361 -348.48)">
          <g id="Grupo_956598" data-name="Grupo 956598" transform="translate(0 432.387)">
            <g id="Grupo_956597" data-name="Grupo 956597">
              <path id="Trazado_721914" data-name="Trazado 721914" d="M718.168,685.82v529.692a21.109,21.109,0,0,0,.164,2.4,16.467,16.467,0,0,0-.164,2.117s16.947,81.187,37.852,81.187,37.852-81.187,37.852-81.187a16.467,16.467,0,0,0-.164-2.117,21.109,21.109,0,0,0,.164-2.4V685.82a126.521,126.521,0,0,1-75.7,0Z" transform="translate(-718.168 -685.82)" fill="silver"/>
            </g>
          </g>
          <path id="Trazado_721915" data-name="Trazado 721915" d="M796.143,113.745A37.775,37.775,0,0,0,780.179,82.9c.019-.374.057-.744.057-1.123V57.638a21.944,21.944,0,1,0-43.887,0V81.776c0,.38.038.749.057,1.123a37.774,37.774,0,0,0-15.965,30.846v854.02c0,1.094.073,2.169.164,3.24-.09.944-.164,1.893-.164,2.858,0,0,16.947,109.614,37.852,109.614s37.851-109.614,37.851-109.614c0-.965-.073-1.914-.163-2.858.09-1.071.163-2.146.163-3.24Z" transform="translate(-718.929 -35.694)" fill="none" stroke="#000" stroke-miterlimit="10" stroke-width="4.523"/>
          <line id="Línea_2860" data-name="Línea 2860" x2="75.703" transform="translate(1.511 916.539)" fill="none" stroke="#000" stroke-miterlimit="10" stroke-width="4.523"/>
          <line id="Línea_2861" data-name="Línea 2861" x2="75.703" transform="translate(1.351 836.478)" fill="none" stroke="#000" stroke-miterlimit="10" stroke-width="4.523"/>
          <line id="Línea_2862" data-name="Línea 2862" x2="75.703" transform="translate(1.351 680.429)" fill="none" stroke="#000" stroke-miterlimit="10" stroke-width="4.523"/>
          <line id="Línea_2863" data-name="Línea 2863" x2="75.703" transform="translate(1.351 599.597)" fill="none" stroke="#000" stroke-miterlimit="10" stroke-width="4.523"/>
          <line id="Línea_2864" data-name="Línea 2864" x2="75.703" transform="translate(1.351 518.626)" fill="none" stroke="#000" stroke-miterlimit="10" stroke-width="4.523"/>
          <line id="Línea_2865" data-name="Línea 2865" x2="75.703" transform="translate(1.351 363.173)" fill="none" stroke="#000" stroke-miterlimit="10" stroke-width="4.523"/>
          <line id="Línea_2866" data-name="Línea 2866" x2="75.703" transform="translate(1.351 281.507)" fill="none" stroke="#000" stroke-miterlimit="10" stroke-width="4.523"/>
          <line id="Línea_2867" data-name="Línea 2867" x2="75.703" transform="translate(1.351 125.093)" fill="none" stroke="#000" stroke-miterlimit="10" stroke-width="4.523"/>
          <line id="Línea_2868" data-name="Línea 2868" x2="74.358" transform="translate(2.856 439.293)" fill="none" stroke="#000" stroke-miterlimit="10" stroke-width="5.142"/>
          <line id="Línea_2869" data-name="Línea 2869" x2="74.198" transform="translate(2.856 205.038)" fill="none" stroke="#000" stroke-miterlimit="10" stroke-width="5.136"/>
          <g id="Grupo_956599" data-name="Grupo 956599" transform="translate(36.024 78.248)">
            <text id="_0-2" data-name="0" transform="translate(11.299 37)" fill="#a20b00" font-size="35" font-family="SegoeUI, Segoe UI"><tspan x="0" y="0">0</tspan></text>
            <text id="_1-2" data-name="1" transform="translate(19.456 113.89)" font-size="35" font-family="SegoeUI, Segoe UI"><tspan x="0" y="0">1</tspan></text>
            <text id="_2-2" data-name="2" transform="translate(19.456 199.094)" font-size="35" font-family="SegoeUI, Segoe UI"><tspan x="0" y="0">2</tspan></text>
            <text id="_3-2" data-name="3" transform="translate(19.456 276.691)" font-size="35" font-family="SegoeUI, Segoe UI"><tspan x="0" y="0">3</tspan></text>
            <text id="_4-2" data-name="4" transform="translate(19.456 353.229)" font-size="35" font-family="SegoeUI, Segoe UI"><tspan x="0" y="0">4</tspan></text>
            <text id="_5-2" data-name="5" transform="translate(19.456 432.86)" font-size="35" font-family="SegoeUI, Segoe UI"><tspan x="0" y="0">5</tspan></text>
            <text id="_6-2" data-name="6" transform="translate(19.456 515.408)" font-size="35" font-family="SegoeUI, Segoe UI"><tspan x="0" y="0">6</tspan></text>
            <text id="_7-2" data-name="7" transform="translate(19.456 591.477)" font-size="35" font-family="SegoeUI, Segoe UI"><tspan x="0" y="0">7</tspan></text>
            <text id="_8-2" data-name="8" transform="translate(19.456 672.014)" font-size="35" font-family="SegoeUI, Segoe UI"><tspan x="0" y="0">8</tspan></text>
            <text id="_9-2" data-name="9" transform="translate(19.456 753.637)" font-size="35" font-family="SegoeUI, Segoe UI"><tspan x="0" y="0">9</tspan></text>
            <text id="_10-2" data-name="10" transform="translate(0 832.274)" font-size="35" font-family="SegoeUI, Segoe UI"><tspan x="0" y="0">10</tspan></text>
          </g>
        </g>
      </g>
      <ellipse id="Elipse_7702" data-name="Elipse 7702" cx="62.207" cy="128.677" rx="62.207" ry="128.677" fill="none" stroke="#000" stroke-miterlimit="10" stroke-width="3.392"/>
    </g>
    <line id="Línea_2972" data-name="Línea 2972" y1="86.645" x2="195.201" transform="translate(491.753 1167.535)" fill="none" stroke="#000" stroke-miterlimit="10" stroke-width="2"/>
    <line id="Línea_2973" data-name="Línea 2973" x2="195.201" y2="106.886" transform="translate(491.753 1311.078)" fill="none" stroke="#000" stroke-miterlimit="10" stroke-width="2"/>
  </g>
</svg>
