<svg xmlns="http://www.w3.org/2000/svg" width="55" height="55" viewBox="0 0 55 55">
  <g id="Grupo_948337" data-name="Grupo 948337" transform="translate(-704 -1361)">
    <circle id="Elipse_4814" data-name="Elipse 4814" cx="27.5" cy="27.5" r="27.5" transform="translate(704 1361)" fill="#80cab6"/>
    <g id="Artboard_10" data-name="Artboard 10" transform="translate(710.366 1367.826)">
      <path id="Trazado_684002" data-name="Trazado 684002" d="M36.76,11h-7.6L26,16.7l3.165,5.7h7.6l.924-1.658L39.925,16.7Z" transform="translate(-8.126 -3.67)" fill="#c64635"/>
      <path id="Trazado_684003" data-name="Trazado 684003" d="M19.76,20h-7.6L9,25.7l3.165,5.7h7.6l.924-1.658L22.925,25.7Z" transform="translate(-1.886 -6.974)" fill="#953528"/>
      <path id="Trazado_684004" data-name="Trazado 684004" d="M36.76,29h-7.6L26,34.7l3.165,5.7h7.6l.924-1.658L39.925,34.7Z" transform="translate(-8.126 -10.277)" fill="#d16b5d"/>
      <path id="Trazado_684005" data-name="Trazado 684005" d="M32,31h6.33v1.266H32Z" transform="translate(-10.328 -11.011)" fill="#98fbfe"/>
      <path id="Trazado_684006" data-name="Trazado 684006" d="M15,22h6.33v1.266H15Z" transform="translate(-4.088 -7.708)" fill="#98fbfe"/>
      <path id="Trazado_684007" data-name="Trazado 684007" d="M31.8,6.064A2.532,2.532,0,1,0,29.666,4.88L28.318,6.7H23.482A2.532,2.532,0,1,0,19.3,9.159l-1.8,3.234H10.538l-1.9-1.9a2.563,2.563,0,1,0-.892.905l1.734,1.734L6.563,18.413a.633.633,0,0,0,0,.633l2.931,5.279L7.747,26.046a2.563,2.563,0,1,0,.905.905l1.9-1.9h4.893a2.532,2.532,0,0,0,2.431,1.9,2.589,2.589,0,0,0,.633-.089l1.747,3.165-1.747,1.715a2.563,2.563,0,1,0,.905.905l1.9-1.9h5.424V29.483H21.412l-1.8-3.234a2.532,2.532,0,0,0,0-3.658l1.8-3.234H28V18.09H21.412L18.6,13.026l1.81-3.253a2.589,2.589,0,0,0,.633.089H28V8.6H23.216a2.437,2.437,0,0,0,.266-.633h4.779l2.817,5.064-2.994,5.386,1.1.633,3.165-5.7a.633.633,0,0,0,0-.633L29.388,7.38,30.6,5.747A2.532,2.532,0,0,0,31.8,6.064ZM17.241,35.18a1.266,1.266,0,1,1,1.266-1.266A1.266,1.266,0,0,1,17.241,35.18ZM5.215,9.228a1.266,1.266,0,1,1,1.266,1.266A1.266,1.266,0,0,1,5.215,9.228ZM6.481,29.483a1.266,1.266,0,1,1,1.266-1.266A1.266,1.266,0,0,1,6.481,29.483Zm10.127-5.064a1.266,1.266,0,1,1,1.266,1.266A1.266,1.266,0,0,1,16.608,24.419Zm1.9-2.443a2.589,2.589,0,0,0-.633-.089,2.532,2.532,0,0,0-2.443,1.9H10.652L7.835,18.723l2.817-5.064H17.5l2.817,5.064ZM31.8,2.266a1.266,1.266,0,1,1-1.266,1.266A1.266,1.266,0,0,1,31.8,2.266ZM19.773,7.33A1.266,1.266,0,1,1,21.039,8.6,1.266,1.266,0,0,1,19.773,7.33Z" transform="translate(0)" fill="#98fbfe"/>
      <path id="Trazado_684008" data-name="Trazado 684008" d="M38.7,22.532v10.76L33,42.154v3.165l1.266,1.266H48.191l1.266-1.266V42.154l-5.7-8.861V22.532h1.9V20H36.8v2.532Z" transform="translate(-10.695 -6.974)" fill="#a9e3e2"/>
      <path id="Trazado_684009" data-name="Trazado 684009" d="M41.228,21.9H38.7a.633.633,0,0,1-.633-.633V20H36.8v2.532h1.9v10.76L33,42.154v3.165l1.266,1.266h1.266l-1.266-1.266V42.154l5.7-8.861V23.8a.633.633,0,0,1,.633-.633h.633a.633.633,0,0,0,0-1.266Z" transform="translate(-10.695 -6.974)" fill="#2ba09f"/>
      <path id="Trazado_684010" data-name="Trazado 684010" d="M49.082,26A1.582,1.582,0,0,0,47.5,27.582v7.912a1.569,1.569,0,0,0,.253.854L53.2,44.818v2.07a1.576,1.576,0,0,0,.829,1.386l.753-.753V44.356l-5.7-8.861Z" transform="translate(-16.017 -9.176)" fill="#ddf4f3"/>
      <path id="Trazado_684011" data-name="Trazado 684011" d="M40.165,47h5.064l3.165,5.064V54.6H37V52.064Z" transform="translate(-12.163 -16.884)" fill="#953528"/>
      <path id="Trazado_684012" data-name="Trazado 684012" d="M46,26h2.532v1.266H46Z" transform="translate(-15.467 -9.176)" fill="#2ba09f"/>
      <path id="Trazado_684013" data-name="Trazado 684013" d="M44,29h3.8v1.266H44Z" transform="translate(-14.733 -10.277)" fill="#2ba09f"/>
      <path id="Trazado_684014" data-name="Trazado 684014" d="M46,32h2.532v1.266H46Z" transform="translate(-15.467 -11.378)" fill="#2ba09f"/>
      <path id="Trazado_684015" data-name="Trazado 684015" d="M44,35h3.8v1.266H44Z" transform="translate(-14.733 -12.479)" fill="#2ba09f"/>
      <path id="Trazado_684016" data-name="Trazado 684016" d="M46,38h2.532v1.266H46Z" transform="translate(-15.467 -13.581)" fill="#2ba09f"/>
      <path id="Trazado_684017" data-name="Trazado 684017" d="M43.771,47,41.3,50.95a1.968,1.968,0,0,0,1.671,3.013H49.86v-1.9L46.7,47Z" transform="translate(-13.63 -16.884)" fill="#c64635"/>
      <path id="Trazado_684018" data-name="Trazado 684018" d="M44.266,21.266H49.33V20H43A1.266,1.266,0,0,0,44.266,21.266Z" transform="translate(-14.366 -6.974)" fill="#ddf4f3"/>
      <g id="Grupo_945651" data-name="Grupo 945651" transform="translate(4.582 1.633)">
        <circle id="Elipse_5403" data-name="Elipse 5403" cx="1.899" cy="1.899" r="1.899" transform="translate(25.318)" fill="#f1f1f3"/>
        <circle id="Elipse_5404" data-name="Elipse 5404" cx="1.899" cy="1.899" r="1.899" transform="translate(14.558 3.798)" fill="#f1f1f3"/>
        <circle id="Elipse_5405" data-name="Elipse 5405" cx="1.899" cy="1.899" r="1.899" transform="translate(0 5.697)" fill="#f1f1f3"/>
        <circle id="Elipse_5406" data-name="Elipse 5406" cx="1.899" cy="1.899" r="1.899" transform="translate(11.393 20.888)" fill="#f1f1f3"/>
        <circle id="Elipse_5407" data-name="Elipse 5407" cx="1.899" cy="1.899" r="1.899" transform="translate(10.76 30.382)" fill="#f1f1f3"/>
        <circle id="Elipse_5408" data-name="Elipse 5408" cx="1.899" cy="1.899" r="1.899" transform="translate(0 24.685)" fill="#f1f1f3"/>
      </g>
    </g>
  </g>
</svg>
