<svg xmlns="http://www.w3.org/2000/svg" width="55" height="55" viewBox="0 0 55 55">
  <g id="Grupo_944949" data-name="Grupo 944949" transform="translate(-286 -1575)">
    <circle id="Elipse_4813" data-name="Elipse 4813" cx="27.5" cy="27.5" r="27.5" transform="translate(286 1575)" fill="#80cab6"/>
    <g id="la-contaminacion-del-aire" transform="translate(295 1585)">
      <path id="Trazado_683368" data-name="Trazado 683368" d="M209.054,243.6a3.427,3.427,0,0,0-3.352-2.718h-3.1l-1.715-2.283.411-2.609-.175-.657a3.411,3.411,0,0,0-.145-.43,3.508,3.508,0,0,0-3.245-2.174h-5.4c-8.2,0-8.034,16.3.525,16.3,3.183,0,1.617,0,0,0h0l13.01,0a3.425,3.425,0,0,0,3.257-3.258c0-.054,0-.109,0-.164v-1.3A3.439,3.439,0,0,0,209.054,243.6Z" transform="translate(-173.251 -216.419)" fill="#fb6a7d"/>
      <path id="Trazado_683369" data-name="Trazado 683369" d="M124.391,237.35a14.365,14.365,0,0,1,2.9-4.623H122.4a3.509,3.509,0,0,0-3.18,2.024l-2.062,4.419a14.693,14.693,0,0,0-.8,3.816v2.623c0,.055,0,.109,0,.164a3.425,3.425,0,0,0,3.257,3.258h8.19a4.908,4.908,0,0,0-1.547-3.575,7.411,7.411,0,0,1-1.878-8.106Z" transform="translate(-108.21 -216.419)" fill="#f74960"/>
      <circle id="Elipse_5368" data-name="Elipse 5368" cx="1.631" cy="1.631" r="1.631" transform="translate(16.308 0)" fill="#eceafd"/>
      <path id="Trazado_683370" data-name="Trazado 683370" d="M44.271,84.754a2.175,2.175,0,1,0,.606-4.253.537.537,0,0,1-.473-.271,3.823,3.823,0,0,0-.328-.479.539.539,0,0,1,0-.674,3.8,3.8,0,0,0,.746-3.216.541.541,0,0,1,.321-.62,4.9,4.9,0,0,0,2.81-3.066.545.545,0,0,1,.49-.383,4.892,4.892,0,1,0-.538-9.769c-7.358,2.629-11.634,18.912-5.292,23.6a3.809,3.809,0,0,0,1.127-.747A.538.538,0,0,1,44.271,84.754Z" transform="translate(-36.76 -57.671)" fill="#eceafd"/>
      <path id="Trazado_683371" data-name="Trazado 683371" d="M5.57,35.367A22.381,22.381,0,0,1,11.145,26a4.914,4.914,0,0,0-1.236.233.542.542,0,0,1-.65-.27A4.892,4.892,0,1,0,1.9,32.037a.544.544,0,0,1,.155.655,4.887,4.887,0,0,0,.135,4.272.541.541,0,0,1-.156.682,3.805,3.805,0,0,0-.658,5.4.541.541,0,0,1,0,.678A3.8,3.8,0,0,0,5.852,49.6c-1.735-3.627-1.967-8.885-.283-14.232Z" transform="translate(0 -21.643)" fill="#dbd7f7"/>
      <path id="Trazado_683372" data-name="Trazado 683372" d="M483.143,388.585v1.3c0,.055,0,.109,0,.164H481.73a.761.761,0,0,1-.761-.761v-.652a.761.761,0,0,1,.761-.761h1.34A3.442,3.442,0,0,1,483.143,388.585Z" transform="translate(-447.266 -360.699)" fill="#f1cd5e"/>
      <path id="Trazado_683373" data-name="Trazado 683373" d="M118.537,388.639v.652a.761.761,0,0,1-.761.761h-1.409c0-.054,0-.109,0-.164v-2.011h1.413A.761.761,0,0,1,118.537,388.639Z" transform="translate(-108.209 -360.699)" fill="#ecb438"/>
      <path id="Trazado_683374" data-name="Trazado 683374" d="M395.479,425.784a3.262,3.262,0,0,0-1.957-2.989,3.005,3.005,0,1,0,0,5.979A3.262,3.262,0,0,0,395.479,425.784Z" transform="translate(-362.864 -393.169)" fill="#5c576e"/>
      <path id="Trazado_683375" data-name="Trazado 683375" d="M374.973,422.171v0a3.262,3.262,0,0,1,1.957-2.986,3.262,3.262,0,0,0-4.566,2.986v0a3.262,3.262,0,0,0,4.566,2.989A3.262,3.262,0,0,1,374.973,422.171Z" transform="translate(-346.272 -389.556)" fill="#474556"/>
      <path id="Trazado_683376" data-name="Trazado 683376" d="M186.024,425.784a3.262,3.262,0,0,0-1.957-2.989,3.005,3.005,0,1,0,0,5.979A3.262,3.262,0,0,0,186.024,425.784Z" transform="translate(-168.085 -393.169)" fill="#5c576e"/>
      <path id="Trazado_683377" data-name="Trazado 683377" d="M165.518,422.171v0a3.262,3.262,0,0,1,1.957-2.986,3.262,3.262,0,0,0-4.566,2.986v0a3.262,3.262,0,0,0,4.566,2.989A3.262,3.262,0,0,1,165.518,422.171Z" transform="translate(-151.493 -389.556)" fill="#474556"/>
      <circle id="Elipse_5369" data-name="Elipse 5369" cx="1.087" cy="1.087" r="1.087" transform="translate(28.267 31.528)" fill="#353544"/>
      <circle id="Elipse_5370" data-name="Elipse 5370" cx="1.087" cy="1.087" r="1.087" transform="translate(13.59 31.528)" fill="#353544"/>
      <path id="Trazado_683378" data-name="Trazado 683378" d="M324.547,281.991l.58,2.174H319.37a1.311,1.311,0,0,1-1.31-1.31v-2.271a1.311,1.311,0,0,1,1.31-1.31h4.452Z" transform="translate(-295.773 -259.704)" fill="#84eafd"/>
      <g id="Grupo_944878" data-name="Grupo 944878" transform="translate(2.175 4.349)">
        <path id="Trazado_683379" data-name="Trazado 683379" d="M33.205,66.41a2.174,2.174,0,1,1,0-4.349.544.544,0,0,1,0,1.087,1.087,1.087,0,1,0,0,2.174.544.544,0,1,1,0,1.087Z" transform="translate(-31.031 -62.061)" fill="#d2c9fc"/>
      </g>
      <g id="Grupo_944879" data-name="Grupo 944879" transform="translate(6.523 13.59)">
        <path id="Trazado_683380" data-name="Trazado 683380" d="M93.634,196.112a.544.544,0,0,1,0-1.087.544.544,0,0,0,.544-.544.544.544,0,0,1,1.087,0A1.633,1.633,0,0,1,93.634,196.112Z" transform="translate(-93.09 -193.938)" fill="#dbd7f7"/>
      </g>
      <g id="Grupo_944880" data-name="Grupo 944880" transform="translate(12.394 19.569)">
        <path id="Trazado_683381" data-name="Trazado 683381" d="M205.032,284.165h2.529a1.311,1.311,0,0,0,1.31-1.31v-2.271a1.311,1.311,0,0,0-1.31-1.31H206.1C203.514,279.434,202.493,283.259,205.032,284.165Z" transform="translate(-201.696 -279.273)" fill="#84eafd"/>
        <path id="Trazado_683382" data-name="Trazado 683382" d="M178.353,279.826l-1.389,2.973a.96.96,0,0,0,.87,1.366h2.375a7.224,7.224,0,0,1,.451-3.531q.275-.7.614-1.361h-2.051A.961.961,0,0,0,178.353,279.826Z" transform="translate(-176.872 -279.273)" fill="#74ccfc"/>
      </g>
    </g>
  </g>
</svg>
