<svg xmlns="http://www.w3.org/2000/svg" width="55" height="55" viewBox="0 0 55 55">
  <g id="Grupo_944950" data-name="Grupo 944950" transform="translate(-286 -2368)">
    <circle id="Elipse_4814" data-name="Elipse 4814" cx="27.5" cy="27.5" r="27.5" transform="translate(286 2368)" fill="#80cab6"/>
    <g id="orina-oscura" transform="translate(269.246 2377.717)">
      <g id="Grupo_944944" data-name="Grupo 944944" transform="translate(27.609 3.249)">
        <path id="Trazado_683509" data-name="Trazado 683509" d="M67.105,156.224H54.79a3.342,3.342,0,0,1-3.32-2.931l-.644-5.249,0-5.936-1.461-5.936-.882-7.187H73.409l-2.985,24.307A3.342,3.342,0,0,1,67.105,156.224Z" transform="translate(-47.001 -123.062)" fill="#e3f2ff"/>
        <path id="Trazado_683510" data-name="Trazado 683510" d="M275.4,128.985l-2.985,24.307a3.342,3.342,0,0,1-3.32,2.931h2.93a3.342,3.342,0,0,0,3.32-2.931l2.985-24.307H275.4Z" transform="translate(-251.924 -123.061)" fill="#cfe9ff"/>
        <g id="Grupo_944940" data-name="Grupo 944940" transform="translate(3.836 19.543)">
          <path id="Trazado_683511" data-name="Trazado 683511" d="M82.186,331.18a3.342,3.342,0,0,0,3.32,2.931H97.821a3.342,3.342,0,0,0,3.32-2.931l1.312-10.688H89.978l-8.425,5.438Z" transform="translate(-81.553 -320.492)" fill="#ffbe30"/>
        </g>
        <path id="Trazado_683512" data-name="Trazado 683512" d="M273.729,320.492l-1.312,10.688a3.342,3.342,0,0,1-3.32,2.931h2.93a3.342,3.342,0,0,0,3.32-2.931l1.312-10.688h-2.93Z" transform="translate(-251.924 -300.949)" fill="#ffaf00"/>
        <g id="Grupo_944942" data-name="Grupo 944942" transform="translate(2.383 13.108)">
          <path id="Trazado_683513" data-name="Trazado 683513" d="M70.024,241.887H62.57l-1.453-11.873h8.907a2,2,0,0,1,2.007,2v7.869A2,2,0,0,1,70.024,241.887Z" transform="translate(-61.117 -230.014)" fill="#fff"/>
          <g id="Grupo_944941" data-name="Grupo 944941" transform="translate(0.441 3.601)">
            <path id="Trazado_683514" data-name="Trazado 683514" d="M73.769,281.2a.549.549,0,0,0-.549-.549H67.314l.135,1.1h5.771A.55.55,0,0,0,73.769,281.2Z" transform="translate(-67.314 -280.646)" fill="#99caf7"/>
            <path id="Trazado_683515" data-name="Trazado 683515" d="M79.407,330.776a.549.549,0,0,0-.549-.549H73.384l.135,1.1h5.339A.55.55,0,0,0,79.407,330.776Z" transform="translate(-72.952 -326.701)" fill="#99caf7"/>
          </g>
        </g>
        <path id="Trazado_683516" data-name="Trazado 683516" d="M54.166,52.943H28.945a1.336,1.336,0,0,1-1.336-1.336V47.021a1.336,1.336,0,0,1,1.336-1.336h25.22A1.336,1.336,0,0,1,55.5,47.021v4.586A1.336,1.336,0,0,1,54.166,52.943Z" transform="translate(-27.609 -45.685)" fill="#ff4c30"/>
        <g id="Grupo_944943" data-name="Grupo 944943" transform="translate(2.151 1.482)">
          <path id="Trazado_683517" data-name="Trazado 683517" d="M58.405,66.523a.549.549,0,0,0-.549.549v3.2a.549.549,0,1,0,1.1,0v-3.2A.549.549,0,0,0,58.405,66.523Z" transform="translate(-57.856 -66.523)" fill="#db0606"/>
          <path id="Trazado_683518" data-name="Trazado 683518" d="M97.94,66.523a.549.549,0,0,0-.549.549v3.2a.549.549,0,0,0,1.1,0v-3.2A.549.549,0,0,0,97.94,66.523Z" transform="translate(-94.579 -66.523)" fill="#db0606"/>
          <path id="Trazado_683519" data-name="Trazado 683519" d="M137.474,66.523a.549.549,0,0,0-.549.549v3.2a.549.549,0,1,0,1.1,0v-3.2A.549.549,0,0,0,137.474,66.523Z" transform="translate(-131.302 -66.523)" fill="#db0606"/>
          <path id="Trazado_683520" data-name="Trazado 683520" d="M177.009,66.523a.549.549,0,0,0-.549.549v3.2a.549.549,0,1,0,1.1,0v-3.2A.549.549,0,0,0,177.009,66.523Z" transform="translate(-168.026 -66.523)" fill="#db0606"/>
          <path id="Trazado_683521" data-name="Trazado 683521" d="M216.543,66.523a.549.549,0,0,0-.549.549v3.2a.549.549,0,1,0,1.1,0v-3.2A.549.549,0,0,0,216.543,66.523Z" transform="translate(-204.748 -66.523)" fill="#db0606"/>
          <path id="Trazado_683522" data-name="Trazado 683522" d="M256.077,66.523a.549.549,0,0,0-.549.549v3.2a.549.549,0,1,0,1.1,0v-3.2A.549.549,0,0,0,256.077,66.523Z" transform="translate(-241.471 -66.523)" fill="#db0606"/>
          <path id="Trazado_683523" data-name="Trazado 683523" d="M295.611,66.523a.549.549,0,0,0-.549.549v3.2a.549.549,0,0,0,1.1,0v-3.2A.549.549,0,0,0,295.611,66.523Z" transform="translate(-278.193 -66.523)" fill="#db0606"/>
          <path id="Trazado_683524" data-name="Trazado 683524" d="M335.145,66.523a.549.549,0,0,0-.549.549v3.2a.549.549,0,0,0,1.1,0v-3.2A.549.549,0,0,0,335.145,66.523Z" transform="translate(-314.916 -66.523)" fill="#db0606"/>
          <path id="Trazado_683525" data-name="Trazado 683525" d="M374.68,66.523a.549.549,0,0,0-.549.549v3.2a.549.549,0,0,0,1.1,0v-3.2A.549.549,0,0,0,374.68,66.523Z" transform="translate(-351.639 -66.523)" fill="#db0606"/>
        </g>
      </g>
      <path id="Trazado_683526" data-name="Trazado 683526" d="M371.331,0s-4.168,4.941-4.168,8.68a4.168,4.168,0,0,0,8.337,0c0-3.46-4.168-8.68-4.168-8.68Z" transform="translate(-315.407)" fill="#ffbe30"/>
      <path id="Trazado_683527" data-name="Trazado 683527" d="M406.29,0s-.681.807-1.492,2.015c1.205,1.836,2.73,4.572,2.73,6.665a4.16,4.16,0,0,1-2.7,3.893,4.171,4.171,0,0,0,5.634-3.893c0-3.46-4.168-8.68-4.168-8.68Z" transform="translate(-350.365)" fill="#ffaf00"/>
      <path id="Trazado_683528" data-name="Trazado 683528" d="M396.139,116.838a1.1,1.1,0,0,1-1.1-1.1.549.549,0,0,0-1.1,0,2.2,2.2,0,0,0,2.2,2.2.549.549,0,1,0,0-1.1Z" transform="translate(-340.275 -106.996)" fill="#ff9500"/>
    </g>
  </g>
</svg>
