<svg xmlns="http://www.w3.org/2000/svg" width="55" height="55" viewBox="0 0 55 55">
  <g id="Grupo_957291" data-name="Grupo 957291" transform="translate(-210 -746.318)">
    <circle id="Elipse_4814" data-name="Elipse 4814" cx="27.5" cy="27.5" r="27.5" transform="translate(210 746.318)" fill="#80cab6"/>
    <g id="dieta" transform="translate(219.898 728.076)">
      <rect id="Rectángulo_337379" data-name="Rectángulo 337379" width="3.954" height="2.638" transform="translate(4.643 30.958)" fill="#48c1e1"/>
      <path id="Trazado_683421" data-name="Trazado 683421" d="M55.708,30.668a.394.394,0,0,1-.393.393h-4.8a.394.394,0,0,1-.393-.393V27.832a.394.394,0,0,1,.393-.393h4.8a.394.394,0,0,1,.393.393v2.835Z" transform="translate(-46.295)" fill="#046699"/>
      <g id="Grupo_944903" data-name="Grupo 944903" transform="translate(3.828 27.439)" opacity="0.1">
        <path id="Trazado_683422" data-name="Trazado 683422" d="M51.764,30.668V27.832a.394.394,0,0,1,.393-.393H50.516a.394.394,0,0,0-.393.393v2.835a.394.394,0,0,0,.393.393h1.641A.4.4,0,0,1,51.764,30.668Z" transform="translate(-50.123 -27.439)"/>
      </g>
      <path id="Trazado_683423" data-name="Trazado 683423" d="M26.536,125.358a.076.076,0,0,0,.037-.108.344.344,0,0,1-.049-.169c0-.421.934-.872,2.324-.872a5.3,5.3,0,0,1,1.261.144l.018,0a.076.076,0,0,0,.074-.095,14.1,14.1,0,0,1-.414-2.981c0-.012,0-.024,0-.036q-.007-.218-.007-.437a.319.319,0,0,1,.319-.319h.69a.076.076,0,0,0,.076-.085,2.365,2.365,0,0,1-.017-.266A2.441,2.441,0,0,1,32.56,117.8a.076.076,0,0,0,.046-.106,2.3,2.3,0,0,1,1.116-3.1.076.076,0,0,0,.04-.1,2.3,2.3,0,0,1,.687-2.539v-3.28a2.2,2.2,0,0,0-2.19-2.2H27.22a2.2,2.2,0,0,0-2.19,2.2v17.586A5.707,5.707,0,0,1,26.536,125.358Z" transform="translate(-23.118 -73.012)" fill="#a2dff9"/>
      <path id="Trazado_683424" data-name="Trazado 683424" d="M32.56,166.153a.076.076,0,0,0,.046-.106,2.3,2.3,0,0,1,1.116-3.1.076.076,0,0,0,.04-.1,2.3,2.3,0,0,1,.687-2.539V158.84H25.03v8.126h6.348A2.441,2.441,0,0,1,32.56,166.153Z" transform="translate(-23.118 -121.366)" fill="#046699"/>
      <path id="Trazado_683425" data-name="Trazado 683425" d="M27.4,124.405V108.682a2.2,2.2,0,0,1,2.19-2.2H27.22a2.2,2.2,0,0,0-2.19,2.2v17.586a5.709,5.709,0,0,1,1.506-.911.076.076,0,0,0,.037-.108.344.344,0,0,1-.049-.169C26.524,124.833,26.847,124.576,27.4,124.405Z" transform="translate(-23.118 -73.011)" opacity="0.1"/>
      <path id="Trazado_683426" data-name="Trazado 683426" d="M238.055,135.109a2.33,2.33,0,0,1,.034.393.076.076,0,0,0,.07.076,2.306,2.306,0,0,1,2.034,1.733.076.076,0,0,0,.052.055.075.075,0,0,0,.022,0,.076.076,0,0,0,.052-.021,2.418,2.418,0,0,1,1.434-.646.076.076,0,0,0,.069-.074,4.193,4.193,0,0,1,1.226-2.836l.048-.046a5.261,5.261,0,0,0-1.477-2.911.412.412,0,0,0-.583,0l-3.352,3.36A2.308,2.308,0,0,1,238.055,135.109Z" transform="translate(-219.532 -95.389)" fill="#ef5050"/>
      <g id="Grupo_944904" data-name="Grupo 944904" transform="translate(19.92 36.941)">
        <path id="Trazado_683427" data-name="Trazado 683427" d="M261.581,200.595a.076.076,0,0,0,.052.055.075.075,0,0,0,.022,0,.077.077,0,0,0,.052-.021,2.442,2.442,0,0,1,.648-.435.571.571,0,0,0-.143-.24l-.556-.557a.573.573,0,0,0-.81,0l0,.005A2.3,2.3,0,0,1,261.581,200.595Z" transform="translate(-260.841 -195.614)" fill="#c0272d"/>
        <path id="Trazado_683428" data-name="Trazado 683428" d="M269.688,181.025H268.9a.573.573,0,1,1,0-1.146h.786a.573.573,0,1,1,0,1.146Z" transform="translate(-267.757 -177.739)" fill="#c0272d"/>
        <path id="Trazado_683429" data-name="Trazado 683429" d="M267.449,153.564a.573.573,0,0,1-.405-.977l.556-.557a.573.573,0,0,1,.811.809l-.556.557A.571.571,0,0,1,267.449,153.564Z" transform="translate(-266.415 -151.862)" fill="#c0272d"/>
      </g>
      <path id="Trazado_683430" data-name="Trazado 683430" d="M296.758,154.269a.136.136,0,0,0-.076-.076,4.272,4.272,0,0,0-5.848,3.915c.079-.008.16-.012.241-.012a2.452,2.452,0,0,1,2.4,1.98,4.279,4.279,0,0,0,3.283-5.806Z" transform="translate(-268.623 -116.793)" fill="#89c947"/>
      <path id="Trazado_683431" data-name="Trazado 683431" d="M307.7,182.847a.573.573,0,0,0-.81,0l-1.981,1.986a2.453,2.453,0,0,1,.969.65l1.823-1.827A.573.573,0,0,0,307.7,182.847Z" transform="translate(-281.622 -143.385)" fill="#d5e962"/>
      <g id="Grupo_944905" data-name="Grupo 944905" transform="translate(7.653 40.383)">
        <path id="Trazado_683432" data-name="Trazado 683432" d="M354.879,200.581a2.087,2.087,0,0,1,.03.354.076.076,0,0,0,.07.076,2.06,2.06,0,0,1,.878.286.076.076,0,0,0,.1-.015c.065-.075.121-.135.176-.19a3.826,3.826,0,0,1,1.626-.972,2.523,2.523,0,1,0-4.886-1.258A2.071,2.071,0,0,1,354.879,200.581Z" transform="translate(-333.574 -196.929)" fill="#ffc502"/>
        <path id="Trazado_683433" data-name="Trazado 683433" d="M104.223,256.08a3.936,3.936,0,0,1-.48-1.462,2.3,2.3,0,0,1-1.7-1.268,2.513,2.513,0,0,0-1.819,2.729h4Z" transform="translate(-100.206 -249.041)" fill="#ffc502"/>
      </g>
      <path id="Trazado_683434" data-name="Trazado 683434" d="M392.84,238.477a2.06,2.06,0,0,1-.169,1.243h3.241a3.935,3.935,0,0,0,.453-3.733.126.126,0,0,0-.07-.07,3.913,3.913,0,0,0-4.222.873c-.081.081-.157.166-.229.253A2.076,2.076,0,0,1,392.84,238.477Z" transform="translate(-361.918 -192.299)" fill="#89c947"/>
      <path id="Trazado_683435" data-name="Trazado 683435" d="M402.678,263.577h.708l1.13-1.132a.573.573,0,0,0-.811-.809l-.839.841A2.057,2.057,0,0,1,402.678,263.577Z" transform="translate(-371.926 -216.156)" fill="#d5e962"/>
      <path id="Trazado_683436" data-name="Trazado 683436" d="M131.8,166.43a2.383,2.383,0,0,0-2.115-1.853,2.388,2.388,0,0,0-4.38-1.31,2.388,2.388,0,0,0-3.682,2.714,2.384,2.384,0,0,0,.617,4.52,3.849,3.849,0,0,1,.235-1.973.049.049,0,0,1,.011-.017.05.05,0,0,1,.016-.011,3.836,3.836,0,0,1,4.14.856c.053.053.1.107.152.163a5.261,5.261,0,0,1-.062-.8.336.336,0,0,1,.336-.337h4c0-.053-.006-.107-.006-.161A2.524,2.524,0,0,1,131.8,166.43Z" transform="translate(-111.056 -124.465)" fill="#368c0e"/>
      <g id="Grupo_944906" data-name="Grupo 944906" transform="translate(11.811 39.819)">
        <path id="Trazado_683437" data-name="Trazado 683437" d="M155.225,191.922h-.01a.573.573,0,0,1-.563-.582,1.822,1.822,0,0,1,1.819-1.788h.029a1.823,1.823,0,0,1,1.313.591.573.573,0,0,1-.846.773.664.664,0,0,0-.485-.218.674.674,0,0,0-.685.661A.573.573,0,0,1,155.225,191.922Z" transform="translate(-154.652 -189.552)" fill="#89c947"/>
        <path id="Trazado_683438" data-name="Trazado 683438" d="M196.631,210.989a.573.573,0,0,1-.537-.772,1.668,1.668,0,0,1,3.1-.074.573.573,0,0,1-1.054.448.516.516,0,0,0-.3-.285.524.524,0,0,0-.672.309A.573.573,0,0,1,196.631,210.989Z" transform="translate(-192.896 -207.634)" fill="#89c947"/>
      </g>
      <path id="Trazado_683439" data-name="Trazado 683439" d="M324.6,222.878h-.021c0,.005,0,.011,0,.016h.767a.412.412,0,0,1,.412.413,5.259,5.259,0,0,1-1,3.084h5.781a2.15,2.15,0,0,0-1.771-3.033,8.771,8.771,0,0,1-4.283-1.384,2.448,2.448,0,0,1,.117.75C324.6,222.774,324.6,222.825,324.6,222.878Z" transform="translate(-299.705 -178.969)" fill="#368c0e"/>
      <path id="Trazado_683440" data-name="Trazado 683440" d="M266,210.652c0-.053.006-.107.006-.161a2.523,2.523,0,1,0-5.045,0c0,.054,0,.108.006.161Z" transform="translate(-241.03 -166.737)" fill="#f7931e"/>
      <path id="Trazado_683441" data-name="Trazado 683441" d="M149.579,241.334a3.913,3.913,0,0,0-4.222-.873.128.128,0,0,0-.042.028.125.125,0,0,0-.028.042,3.935,3.935,0,0,0,.232,3.386h5.2a5.27,5.27,0,0,1-1.009-2.447Q149.645,241.4,149.579,241.334Z" transform="translate(-133.935 -196.496)" fill="#89c947"/>
      <path id="Trazado_683442" data-name="Trazado 683442" d="M171.7,267.775h1.618l-1.591-1.594a.573.573,0,0,0-.811.809Z" transform="translate(-157.712 -220.353)" fill="#d5e962"/>
      <path id="Trazado_683443" data-name="Trazado 683443" d="M213.809,245.757a5.264,5.264,0,0,0,1.059-3.17.412.412,0,0,0-.412-.413h-9.724a.412.412,0,0,0-.412.413,5.263,5.263,0,0,0,1.059,3.17Z" transform="translate(-188.716 -198.336)" fill="#ef5050"/>
      <g id="Grupo_944907" data-name="Grupo 944907" transform="translate(16.897 44.731)">
        <path id="Trazado_683444" data-name="Trazado 683444" d="M267.3,277.372v-.4a.573.573,0,0,0-1.146,0v.4Z" transform="translate(-262.721 -274.682)" fill="#c0272d"/>
        <path id="Trazado_683445" data-name="Trazado 683445" d="M287.3,271.037h.891a.573.573,0,0,0-.038-.767l-.556-.557a.573.573,0,0,0-.811.809Z" transform="translate(-281.624 -268.347)" fill="#c0272d"/>
        <path id="Trazado_683446" data-name="Trazado 683446" d="M238.24,271.038l.514-.515a.573.573,0,0,0-.811-.809l-.556.557a.573.573,0,0,0-.038.767Z" transform="translate(-236.001 -268.348)" fill="#c0272d"/>
        <path id="Trazado_683447" data-name="Trazado 683447" d="M222.609,255.011h-.786a.573.573,0,1,1,0-1.146h.786a.573.573,0,1,1,0,1.146Z" transform="translate(-221.25 -253.865)" fill="#c0272d"/>
        <path id="Trazado_683448" data-name="Trazado 683448" d="M301.566,255.011h-.787a.573.573,0,0,1,0-1.146h.787a.573.573,0,1,1,0,1.146Z" transform="translate(-294.177 -253.865)" fill="#c0272d"/>
      </g>
      <path id="Trazado_683449" data-name="Trazado 683449" d="M86.737,292.779l.021,0a.076.076,0,0,0,.076-.076v-.969a.5.5,0,0,1,.993,0v.969a.076.076,0,0,0,.076.076.073.073,0,0,0,.021,0,5.148,5.148,0,0,1,1.371-.173c1.39,0,2.324.451,2.324.872a.345.345,0,0,1-.049.169.076.076,0,0,0,.037.108,5.291,5.291,0,0,1,3.292,4.062.076.076,0,0,0,.076.066.079.079,0,0,0,.027,0l12.057-4.58a2.043,2.043,0,0,1,2.736,1.531l.105.567a.076.076,0,0,0,.114.052l4.054-2.393a14.2,14.2,0,0,0,.525-3.85.4.4,0,0,0-.395-.4H86.616a.4.4,0,0,0-.395.4,14.239,14.239,0,0,0,.447,3.557Z" transform="translate(-79.636 -241.408)" fill="#e6e9ed"/>
      <path id="Trazado_683450" data-name="Trazado 683450" d="M86.737,292.779l.021,0a.076.076,0,0,0,.076-.076v-.969a.5.5,0,0,1,.993,0v.969a.076.076,0,0,0,.076.076.075.075,0,0,0,.021,0,4.97,4.97,0,0,1,1.158-.169,14.262,14.262,0,0,1-.408-3.406.4.4,0,0,1,.395-.4H86.616a.4.4,0,0,0-.395.4,14.239,14.239,0,0,0,.447,3.557Z" transform="translate(-79.636 -241.408)" opacity="0.1"/>
      <path id="Trazado_683451" data-name="Trazado 683451" d="M93.825,321.536a2.655,2.655,0,0,1,.573-.227v-1.088a.573.573,0,0,0-1.146,0v1.088A2.647,2.647,0,0,1,93.825,321.536Z" transform="translate(-86.13 -269.893)" fill="#89c947"/>
      <path id="Trazado_683452" data-name="Trazado 683452" d="M13.546,362.292H11.476a2.039,2.039,0,0,1-2.008-1.664l-.02-.11a2.032,2.032,0,0,1,1.28-2.268L15.35,356.5a5.342,5.342,0,0,0-3.421-4.229,2.3,2.3,0,0,1-1.6.656.076.076,0,0,0-.039.135,1.683,1.683,0,0,1,.7.937.29.29,0,0,1-.069.229.736.736,0,0,1-.554.168h0a4.2,4.2,0,0,1-1.865-.577,4.7,4.7,0,0,1-.76-.517.076.076,0,0,0-.1,0,4.691,4.691,0,0,1-.76.517,4.2,4.2,0,0,1-1.865.577.736.736,0,0,1-.554-.168.29.29,0,0,1-.069-.229,1.684,1.684,0,0,1,.7-.937.076.076,0,0,0-.039-.135,2.3,2.3,0,0,1-1.6-.656A5.277,5.277,0,0,0,0,357.1a5.512,5.512,0,0,0,5.728,5.266H13.67C13.756,362.369,13.69,362.339,13.546,362.292Z" transform="translate(0 -300.02)" fill="#ef5050"/>
      <path id="Trazado_683453" data-name="Trazado 683453" d="M2.478,357.1a5.133,5.133,0,0,1,2.3-4.221,2.01,2.01,0,0,1-1.321-.615A5.277,5.277,0,0,0,0,357.1a5.512,5.512,0,0,0,5.728,5.266H8.206A5.512,5.512,0,0,1,2.478,357.1Z" transform="translate(0 -300.021)" opacity="0.1"/>
      <path id="Trazado_683454" data-name="Trazado 683454" d="M52.325,338.487c0-.524-1.075-.948-2.4-.948a4.257,4.257,0,0,0-1.964.4,4.256,4.256,0,0,0-1.964-.4c-1.326,0-2.4.424-2.4.948,0,.43.724.792,1.717.909-.607.486-.885,1-.638,1.276.328.37,1.453.194,2.513-.392a4.79,4.79,0,0,0,.772-.526,4.806,4.806,0,0,0,.772.526c1.06.587,2.185.762,2.513.392.248-.279-.03-.79-.638-1.276C51.6,339.279,52.325,338.917,52.325,338.487Z" transform="translate(-40.266 -286.418)" fill="#368c0e"/>
      <path id="Trazado_683455" data-name="Trazado 683455" d="M404.956,340.894l-.154-.83a.529.529,0,0,0-.617-.423l-5.936,1.09,3.79-2.534a.525.525,0,0,0,.166-.7l-.429-.76a.531.531,0,0,0-.731-.2l-4.931,2.911.933,5.036,5.655,1.016a.529.529,0,0,0,.618-.441l.128-.858a.521.521,0,0,0,0-.173.528.528,0,0,0-.4-.418L398.6,342.6l5.936-1.091A.527.527,0,0,0,404.956,340.894Z" transform="translate(-365.864 -285.434)" fill="#89c947"/>
      <path id="Trazado_683456" data-name="Trazado 683456" d="M122.324,353.784a2.116,2.116,0,0,0,2.084,1.727l17.868-.007a2.112,2.112,0,0,0,2.082-2.492l-1.194-6.445a2.119,2.119,0,0,0-2.838-1.588l-16.694,6.342a2.108,2.108,0,0,0-1.328,2.353Z" transform="translate(-112.931 -293.162)" fill="#f7931e"/>
      <g id="Grupo_944908" data-name="Grupo 944908" transform="translate(9.338 51.679)" opacity="0.1">
        <path id="Trazado_683457" data-name="Trazado 683457" d="M122.324,353.785a2.1,2.1,0,0,0,.134.439,2.206,2.206,0,0,1,1.141-.981l17.434-6.623a2.21,2.21,0,0,1,2.208.37l-.078-.422a2.119,2.119,0,0,0-2.838-1.588l-16.694,6.342a2.108,2.108,0,0,0-1.328,2.353Z" transform="translate(-122.269 -344.842)"/>
      </g>
      <g id="Grupo_944909" data-name="Grupo 944909" transform="translate(13.102 53.583)">
        <path id="Trazado_683458" data-name="Trazado 683458" d="M357.105,443.762a.573.573,0,1,0-1.125.215l.472,2.465h1.166Z" transform="translate(-341.887 -437.682)" fill="#ffc502"/>
        <path id="Trazado_683459" data-name="Trazado 683459" d="M316.447,452.637a.573.573,0,1,0-1.126.212l.337,1.79h1.166Z" transform="translate(-304.333 -445.878)" fill="#ffc502"/>
        <path id="Trazado_683460" data-name="Trazado 683460" d="M284.241,372.225a.573.573,0,0,0,1.111-.28l-.545-2.165-1.078.41Z" transform="translate(-275.163 -369.78)" fill="#ffc502"/>
        <path id="Trazado_683461" data-name="Trazado 683461" d="M237.667,446.047a.573.573,0,0,0-1.127.2l.415,2.3h1.164Z" transform="translate(-231.569 -439.787)" fill="#ffc502"/>
        <path id="Trazado_683462" data-name="Trazado 683462" d="M171.881,414.3a.573.573,0,0,0,1.121-.235l-.357-1.7-1.084.412Z" transform="translate(-171.561 -409.112)" fill="#ffc502"/>
      </g>
    </g>
  </g>
</svg>
