<svg xmlns="http://www.w3.org/2000/svg" width="55" height="55" viewBox="0 0 55 55">
  <g id="Grupo_944948" data-name="Grupo 944948" transform="translate(-285 -1663)">
    <circle id="Elipse_4814" data-name="Elipse 4814" cx="27.5" cy="27.5" r="27.5" transform="translate(285 1663)" fill="#80cab6"/>
    <g id="ampolla" transform="translate(256.19 1674)">
      <g id="Grupo_944891" data-name="Grupo 944891" transform="translate(43.81 0)">
        <g id="Grupo_944887" data-name="Grupo 944887" transform="translate(0)">
          <path id="Trazado_683383" data-name="Trazado 683383" d="M55.947,72.07V69.657a3.352,3.352,0,0,0-1.512-2.8,3.4,3.4,0,0,1-1.562-2.83v-.071h-5.99v.071a3.4,3.4,0,0,1-1.562,2.83,3.352,3.352,0,0,0-1.512,2.8V72.07Z" transform="translate(-43.81 -59.924)" fill="#c9f0fd"/>
          <path id="Trazado_683384" data-name="Trazado 683384" d="M43.81,431.011v3.423a1.678,1.678,0,0,0,1.678,1.678h8.781a1.678,1.678,0,0,0,1.678-1.678v-3.423Z" transform="translate(-43.81 -403.86)" fill="#c9f0fd"/>
          <g id="Grupo_944881" data-name="Grupo 944881" transform="translate(1.909 4.029)">
            <path id="Trazado_683385" data-name="Trazado 683385" d="M82.433,66.549a3.366,3.366,0,0,1-1.165-2.525v-.071h-5.99v.071a3.366,3.366,0,0,1-1.165,2.525Z" transform="translate(-74.113 -63.953)" fill="#9ce6fb"/>
            <path id="Trazado_683386" data-name="Trazado 683386" d="M150.184,66.853a3.352,3.352,0,0,1,1.512,2.8v2.413h2.461V69.656a3.352,3.352,0,0,0-1.511-2.8,3.4,3.4,0,0,1-1.562-2.831v-.07h-2.461v.07A3.4,3.4,0,0,0,150.184,66.853Z" transform="translate(-143.928 -63.952)" fill="#9ce6fb"/>
            <path id="Trazado_683387" data-name="Trazado 683387" d="M172.448,431.011v3.423a1.678,1.678,0,0,1-1.678,1.678h2.461a1.678,1.678,0,0,0,1.678-1.678v-3.423Z" transform="translate(-164.681 -407.888)" fill="#9ce6fb"/>
          </g>
          <g id="Grupo_944883" data-name="Grupo 944883" transform="translate(0 11.447)">
            <path id="Trazado_683388" data-name="Trazado 683388" d="M43.81,181.723H55.947v16.268H43.81Z" transform="translate(-43.81 -181.723)" fill="#f5f7f8"/>
            <g id="Grupo_944882" data-name="Grupo 944882" transform="translate(0)">
              <path id="Trazado_683389" data-name="Trazado 683389" d="M47.372,181.723H43.81v8.711h2.905a.657.657,0,0,0,.657-.657Z" transform="translate(-43.81 -181.723)" fill="#64b9fc"/>
              <path id="Trazado_683390" data-name="Trazado 683390" d="M60.6,181.722v8.055a.657.657,0,0,1-.657.657H57.923a.657.657,0,0,0,.657-.657v-8.055Z" transform="translate(-57.034 -181.722)" fill="#31a7fb"/>
            </g>
            <path id="Trazado_683391" data-name="Trazado 683391" d="M197.413,181.723h2.461v16.268h-2.461Z" transform="translate(-187.737 -181.723)" fill="#d9e7eb"/>
          </g>
          <g id="Grupo_944886" data-name="Grupo 944886" transform="translate(0.241)">
            <g id="Grupo_944884" data-name="Grupo 944884" transform="translate(0.753 2.528)">
              <path id="Trazado_683392" data-name="Trazado 683392" d="M68.943,42.664H60.4a.8.8,0,0,1-.8-.8v-.933a.8.8,0,0,1,.8-.8h8.54a.8.8,0,0,1,.8.8v.933A.8.8,0,0,1,68.943,42.664Z" transform="translate(-59.599 -40.123)" fill="#b7c4ce"/>
              <path id="Trazado_683393" data-name="Trazado 683393" d="M179.778,40.93v.933a.8.8,0,0,1-.8.8h-1.946a.8.8,0,0,0,.8-.8V40.93a.8.8,0,0,0-.8-.8h1.946A.8.8,0,0,1,179.778,40.93Z" transform="translate(-169.63 -40.126)" fill="#a0acb9"/>
            </g>
            <g id="Grupo_944885" data-name="Grupo 944885">
              <path id="Trazado_683394" data-name="Trazado 683394" d="M58.491,3.045H48.444a.8.8,0,0,1-.8-.8V.808a.8.8,0,0,1,.8-.8H58.491a.8.8,0,0,1,.8.8V2.241a.8.8,0,0,1-.8.8Z" transform="translate(-47.64 -0.004)" fill="#d9e7eb"/>
              <path id="Trazado_683395" data-name="Trazado 683395" d="M191.729.8V2.237a.8.8,0,0,1-.8.8h-1.947a.8.8,0,0,0,.8-.8V.8a.8.8,0,0,0-.8-.8h1.947a.805.805,0,0,1,.8.8Z" transform="translate(-180.074 0)" fill="#c5d3dd"/>
            </g>
          </g>
        </g>
        <path id="Trazado_683396" data-name="Trazado 683396" d="M144.913,218.168h-3.53a.487.487,0,1,1,0-.973h3.53a.487.487,0,0,1,0,.973Z" transform="translate(-134.78 -203.513)" fill="#31a7fb"/>
        <path id="Trazado_683397" data-name="Trazado 683397" d="M177.595,244.612h-1.333a.487.487,0,1,1,0-.973h1.333a.487.487,0,1,1,0,.973Z" transform="translate(-167.462 -228.291)" fill="#31a7fb"/>
        <g id="Grupo_944890" data-name="Grupo 944890" transform="translate(2.159 22.093)">
          <g id="Grupo_944888" data-name="Grupo 944888">
            <path id="Trazado_683398" data-name="Trazado 683398" d="M81.655,351.681H78.577a.487.487,0,0,1,0-.973h3.078a.487.487,0,0,1,0,.973Z" transform="translate(-78.09 -350.708)" fill="#c5d3dd"/>
            <path id="Trazado_683399" data-name="Trazado 683399" d="M81.655,375.762H78.577a.487.487,0,0,1,0-.973h3.078a.487.487,0,0,1,0,.973Z" transform="translate(-78.09 -373.272)" fill="#c5d3dd"/>
            <path id="Trazado_683400" data-name="Trazado 683400" d="M80.116,399.843H78.577a.487.487,0,1,1,0-.973h1.539a.487.487,0,0,1,0,.973Z" transform="translate(-78.09 -395.836)" fill="#c5d3dd"/>
          </g>
          <g id="Grupo_944889" data-name="Grupo 944889" transform="translate(5.491 0.41)">
            <path id="Trazado_683401" data-name="Trazado 683401" d="M166.437,360.407h-.527a.657.657,0,0,1-.657-.657v-1.873a.657.657,0,0,1,.657-.657h.527a.657.657,0,0,1,.657.657v1.873A.657.657,0,0,1,166.437,360.407Z" transform="translate(-165.253 -357.22)" fill="#27e19d"/>
          </g>
        </g>
      </g>
      <g id="Grupo_944902" data-name="Grupo 944902" transform="translate(58.406 0)">
        <g id="Grupo_944898" data-name="Grupo 944898" transform="translate(0)">
          <path id="Trazado_683402" data-name="Trazado 683402" d="M287.652,72.07V69.657a3.352,3.352,0,0,0-1.512-2.8,3.4,3.4,0,0,1-1.562-2.83v-.071h-5.99v.071a3.4,3.4,0,0,1-1.562,2.83,3.352,3.352,0,0,0-1.512,2.8V72.07Z" transform="translate(-275.515 -59.924)" fill="#c9f0fd"/>
          <path id="Trazado_683403" data-name="Trazado 683403" d="M275.515,431.011v3.423a1.678,1.678,0,0,0,1.678,1.678h8.781a1.678,1.678,0,0,0,1.678-1.678v-3.423Z" transform="translate(-275.515 -403.86)" fill="#c9f0fd"/>
          <g id="Grupo_944892" data-name="Grupo 944892" transform="translate(1.909 4.029)">
            <path id="Trazado_683404" data-name="Trazado 683404" d="M314.137,66.549a3.366,3.366,0,0,1-1.165-2.525v-.071h-5.99v.071a3.366,3.366,0,0,1-1.165,2.525Z" transform="translate(-305.818 -63.953)" fill="#9ce6fb"/>
            <path id="Trazado_683405" data-name="Trazado 683405" d="M404.153,431.011v3.423a1.678,1.678,0,0,1-1.678,1.678h2.461a1.678,1.678,0,0,0,1.678-1.678v-3.423Z" transform="translate(-396.386 -407.888)" fill="#9ce6fb"/>
            <path id="Trazado_683406" data-name="Trazado 683406" d="M381.889,66.853a3.352,3.352,0,0,1,1.512,2.8v2.413h2.461V69.656a3.352,3.352,0,0,0-1.511-2.8,3.4,3.4,0,0,1-1.562-2.831v-.07h-2.461v.07A3.4,3.4,0,0,0,381.889,66.853Z" transform="translate(-375.633 -63.952)" fill="#9ce6fb"/>
          </g>
          <g id="Grupo_944894" data-name="Grupo 944894" transform="translate(0 11.447)">
            <path id="Trazado_683407" data-name="Trazado 683407" d="M275.515,181.723h12.137v16.268H275.515Z" transform="translate(-275.515 -181.723)" fill="#f5f7f8"/>
            <g id="Grupo_944893" data-name="Grupo 944893">
              <path id="Trazado_683408" data-name="Trazado 683408" d="M279.077,181.723h-3.562v8.711h2.905a.657.657,0,0,0,.657-.657v-8.055Z" transform="translate(-275.515 -181.723)" fill="#64b9fc"/>
              <path id="Trazado_683409" data-name="Trazado 683409" d="M292.3,181.722v8.055a.657.657,0,0,1-.657.657h-2.017a.657.657,0,0,0,.657-.657v-8.055Z" transform="translate(-288.738 -181.722)" fill="#31a7fb"/>
            </g>
            <path id="Trazado_683410" data-name="Trazado 683410" d="M429.118,181.723h2.461v16.268h-2.461Z" transform="translate(-419.442 -181.723)" fill="#d9e7eb"/>
          </g>
          <g id="Grupo_944897" data-name="Grupo 944897" transform="translate(0.241)">
            <g id="Grupo_944895" data-name="Grupo 944895" transform="translate(0.753 2.528)">
              <path id="Trazado_683411" data-name="Trazado 683411" d="M300.648,42.664h-8.54a.8.8,0,0,1-.8-.8v-.933a.8.8,0,0,1,.8-.8h8.54a.8.8,0,0,1,.8.8v.933A.8.8,0,0,1,300.648,42.664Z" transform="translate(-291.304 -40.123)" fill="#b7c4ce"/>
              <path id="Trazado_683412" data-name="Trazado 683412" d="M411.483,40.93v.933a.8.8,0,0,1-.8.8h-1.946a.8.8,0,0,0,.8-.8V40.93a.8.8,0,0,0-.8-.8h1.946A.8.8,0,0,1,411.483,40.93Z" transform="translate(-401.335 -40.126)" fill="#a0acb9"/>
            </g>
            <g id="Grupo_944896" data-name="Grupo 944896">
              <path id="Trazado_683413" data-name="Trazado 683413" d="M290.2,3.045H280.149a.8.8,0,0,1-.8-.8V.808a.8.8,0,0,1,.8-.8H290.2a.8.8,0,0,1,.8.8V2.241a.8.8,0,0,1-.8.8Z" transform="translate(-279.345 -0.004)" fill="#d9e7eb"/>
              <path id="Trazado_683414" data-name="Trazado 683414" d="M423.433.8V2.237a.8.8,0,0,1-.8.8h-1.947a.8.8,0,0,0,.8-.8V.8a.8.8,0,0,0-.8-.8h1.947a.805.805,0,0,1,.8.8Z" transform="translate(-411.778 0)" fill="#c5d3dd"/>
            </g>
          </g>
        </g>
        <path id="Trazado_683415" data-name="Trazado 683415" d="M376.618,218.168h-3.53a.487.487,0,0,1,0-.973h3.53a.487.487,0,1,1,0,.973Z" transform="translate(-366.485 -203.513)" fill="#31a7fb"/>
        <path id="Trazado_683416" data-name="Trazado 683416" d="M409.3,244.612h-1.333a.487.487,0,0,1,0-.973H409.3a.487.487,0,1,1,0,.973Z" transform="translate(-399.167 -228.291)" fill="#31a7fb"/>
        <g id="Grupo_944901" data-name="Grupo 944901" transform="translate(2.159 22.093)">
          <g id="Grupo_944899" data-name="Grupo 944899">
            <path id="Trazado_683417" data-name="Trazado 683417" d="M313.36,351.681h-3.078a.487.487,0,0,1,0-.973h3.078a.487.487,0,0,1,0,.973Z" transform="translate(-309.795 -350.708)" fill="#c5d3dd"/>
            <path id="Trazado_683418" data-name="Trazado 683418" d="M313.36,375.762h-3.078a.487.487,0,0,1,0-.973h3.078a.487.487,0,0,1,0,.973Z" transform="translate(-309.795 -373.272)" fill="#c5d3dd"/>
            <path id="Trazado_683419" data-name="Trazado 683419" d="M311.821,399.843h-1.539a.487.487,0,1,1,0-.973h1.539a.487.487,0,1,1,0,.973Z" transform="translate(-309.795 -395.836)" fill="#c5d3dd"/>
          </g>
          <g id="Grupo_944900" data-name="Grupo 944900" transform="translate(5.491 0.41)">
            <path id="Trazado_683420" data-name="Trazado 683420" d="M398.141,360.407h-.527a.657.657,0,0,1-.657-.657v-1.873a.657.657,0,0,1,.657-.657h.527a.657.657,0,0,1,.657.657v1.873A.657.657,0,0,1,398.141,360.407Z" transform="translate(-396.957 -357.22)" fill="#27e19d"/>
          </g>
        </g>
      </g>
    </g>
  </g>
</svg>
