<svg xmlns="http://www.w3.org/2000/svg" width="55" height="55" viewBox="0 0 55 55">
  <g id="Grupo_944946" data-name="Grupo 944946" transform="translate(-286 -1947)">
    <circle id="Elipse_4813" data-name="Elipse 4813" cx="27.5" cy="27.5" r="27.5" transform="translate(286 1947)" fill="#80cab6"/>
    <g id="Page-1" transform="translate(296.333 1957.331)">
      <g id="_009---Molten-Metal-Mould" data-name="009---Molten-Metal-Mould">
        <path id="Shape" d="M0,49.64l13.812-1.89,12.939,1.89v4.071H0Z" transform="translate(0 -19.981)" fill="#95a5a5"/>
        <path id="Shape-2" data-name="Shape" d="M39.9,31.267a6.436,6.436,0,0,1-2.443.455.283.283,0,0,1-.07-.006,1.15,1.15,0,0,1-.965-.8l2.094-.889Z" transform="translate(-15.242 -12.566)" fill="#2c2f38"/>
        <path id="Shape-3" data-name="Shape" d="M49.982,5.889l-2.035-.166L46.76,4.249a1.148,1.148,0,0,1,1.192-.029.05.05,0,0,1,.035.017C48.255,4.424,49.865,5.5,49.982,5.889Z" transform="translate(-19.567 -1.702)" fill="#2c2f38"/>
        <path id="Shape-4" data-name="Shape" d="M15.365,4.437a.02.02,0,0,0-.006.012c-.506.9.779.57.47,1.657-.023.081-1.75,1.483-1.767,1.564L0,1.855V0H4.629Z" fill="#95a5a5"/>
        <path id="Shape-5" data-name="Shape" d="M36.554,1.16,40.3,3.033l.994.494.8.4H42.1c.268.861,1.413,2.018,1.361,2.629a21.935,21.935,0,0,1-1.721,6.508,18.319,18.319,0,0,1-3.03,5.182c-.227.256-1.692.558-2.035.82h-.006l-1.151-.11-1.221-.116-2.972-.291Z" transform="translate(-13.106 -0.485)" fill="#95a5a5"/>
        <path id="Shape-6" data-name="Shape" d="M52.318,16.344c-.983,3.466-3.367,5.92-5.682,6.095h-.029l-.977-.1c.006,0,.006,0,.012-.006h.006c.669-.465.047-1.308.419-1.814a19.207,19.207,0,0,0,2.443-4.635,18.659,18.659,0,0,0,1.268-5.321c.041-.593,1.25-1.512,1.053-2.274C52.6,9.721,53.272,12.977,52.318,16.344Z" transform="translate(-19.094 -3.469)" fill="#95a5a5"/>
        <path id="Shape-7" data-name="Shape" d="M38.09,32.93a.283.283,0,0,0,.07.006h-.07Z" transform="translate(-15.939 -13.78)" fill="#5e5f62"/>
        <path id="Shape-8" data-name="Shape" d="M15,38h4.811a1.163,1.163,0,0,1,.888.412l6.049,7.148H0l6.048-7.148A1.163,1.163,0,0,1,6.937,38Z" transform="translate(0 -15.901)" fill="#bdc3c7"/>
        <path id="Shape-9" data-name="Shape" d="M18.547,42.047C16.512,42.17,15,42.629,15,43.176s1.483.994,3.489,1.122c.372.029.762.041,1.163.041.2,0,.39-.006.582-.012,2.3-.07,4.071-.558,4.071-1.151,0-.57-1.64-1.041-3.8-1.146" transform="translate(-6.277 -17.587)" fill="#e57e25"/>
        <circle id="Oval" cx="1.163" cy="1.163" r="1.163" transform="translate(7.56 15.12)" fill="#f3d55b"/>
        <circle id="Oval-2" data-name="Oval" cx="0.582" cy="0.582" r="0.582" transform="translate(4.652 12.794)" fill="#f29c1f"/>
        <circle id="Oval-3" data-name="Oval" cx="0.582" cy="0.582" r="0.582" transform="translate(6.397 9.886)" fill="#f29c1f"/>
        <path id="Shape-10" data-name="Shape" d="M35.835,8.785c0,.006,0,.006-.006.012a13.19,13.19,0,0,1-.4,1.937,13.37,13.37,0,0,1-1.75,3.815c0,.006-.006.006-.006.012a9.837,9.837,0,0,1-2.117,2.291A5.33,5.33,0,0,1,28,18.1h-.017a3.15,3.15,0,0,1-.657-.1l-3.332-3.28a11.712,11.712,0,0,1-.145-7.013c.017-.081.041-.157.064-.238a13.608,13.608,0,0,1,1.233-2.983.02.02,0,0,1,.006-.012C26.914,1.341,29.706-.456,32.177.242A4.042,4.042,0,0,1,33.213.7c.006.006.012.012.017.012a6.584,6.584,0,0,1,2.623,4.815v.006A12.435,12.435,0,0,1,35.835,8.785Z" transform="translate(-9.782 -0.039)" fill="#bdc3c7"/>
        <path id="Shape-11" data-name="Shape" d="M35.055,11.547a11.1,11.1,0,0,1-.733,1.907,22.932,22.932,0,0,0-2.762-.9c-3.257-.82-4.036.047-4.036.047a5.861,5.861,0,0,0-.6.8,10.5,10.5,0,0,1,.372-4.053c1.041-3.67,3.623-6.153,5.769-5.548a2.47,2.47,0,0,1,.971.541C35.445,5.574,35.922,8.488,35.055,11.547Z" transform="translate(-11.241 -1.55)" fill="#f3d55b"/>
        <path id="Shape-12" data-name="Shape" d="M31.869,19.568A7.831,7.831,0,0,1,29.4,22.632a10.219,10.219,0,0,0-1.646,1.349c-.122.128-.244.256-.366.39v.006c-.349.384-.709.8-1.064,1.25-1.82,2.3-3.582,5.4-3.582,8.787H21a32.306,32.306,0,0,1,1.995-12.061v-.006a15.559,15.559,0,0,1,1.471-2.838,5.861,5.861,0,0,1,.6-.8s.779-.867,4.036-.047A22.932,22.932,0,0,1,31.869,19.568Z" transform="translate(-8.787 -7.663)" fill="#f29c1f"/>
        <path id="Shape-13" data-name="Shape" d="M47.835,8.919a18.659,18.659,0,0,1-1.268,5.321,19.207,19.207,0,0,1-2.443,4.635,7.743,7.743,0,0,1-1.582,1.814h-.006c-.006.006-.006.006-.012.006a1.6,1.6,0,0,1-.948.32l-3.367-.035a2.376,2.376,0,0,0,1.338-.576h.006a6.329,6.329,0,0,0,.872-.82,18.319,18.319,0,0,0,3.03-5.182A21.935,21.935,0,0,0,45.177,7.9a7.726,7.726,0,0,0-.2-2.629h-.006a1.628,1.628,0,0,0-.564-.907l2.4,1.064a1.649,1.649,0,0,1,.913,1.221h.006A7.529,7.529,0,0,1,47.835,8.919Z" transform="translate(-15.989 -1.824)" fill="#5e5f62"/>
      </g>
    </g>
  </g>
</svg>
