<svg xmlns="http://www.w3.org/2000/svg" width="55" height="55" viewBox="0 0 55 55">
  <g id="Grupo_944951" data-name="Grupo 944951" transform="translate(-286 -2263)">
    <circle id="Elipse_4813" data-name="Elipse 4813" cx="27.5" cy="27.5" r="27.5" transform="translate(286 2263)" fill="#80cab6"/>
    <g id="pala" transform="translate(294.584 2249.039)">
      <g id="Grupo_944939" data-name="Grupo 944939" transform="translate(0 25.7)">
        <g id="XMLID_518_" transform="translate(1.477 1.209)">
          <g id="XMLID_30_" transform="translate(4.982)">
            <path id="Trazado_683491" data-name="Trazado 683491" d="M90.367,48.315A9.143,9.143,0,0,0,86.583,41.2,9.156,9.156,0,0,0,82.8,48.315a6.515,6.515,0,0,0,.9,3.261,3.331,3.331,0,0,0,5.765,0A6.465,6.465,0,0,0,90.367,48.315Z" transform="translate(-82.8 -41.2)" fill="#a2d962"/>
          </g>
          <g id="XMLID_525_" transform="translate(0 12.5)">
            <path id="Trazado_683492" data-name="Trazado 683492" d="M24.529,203.222a6.513,6.513,0,0,0-5.484-1.677,6.521,6.521,0,0,0,1.677,5.484,4.668,4.668,0,0,0,2.091,1.194,2.371,2.371,0,0,0,2.9-2.9A4.567,4.567,0,0,0,24.529,203.222Z" transform="translate(-18.93 -201.43)" fill="#a2d962"/>
          </g>
          <g id="XMLID_43_" transform="translate(1.991 4.712)">
            <g id="XMLID_47_" transform="translate(8.657 7.788)">
              <path id="Trazado_683493" data-name="Trazado 683493" d="M156.692,203.222a6.513,6.513,0,0,1,5.484-1.677,6.521,6.521,0,0,1-1.677,5.484,4.668,4.668,0,0,1-2.091,1.194,2.371,2.371,0,0,1-2.9-2.9A4.567,4.567,0,0,1,156.692,203.222Z" transform="translate(-155.423 -201.43)" fill="#a2d962"/>
            </g>
            <path id="Trazado_683494" data-name="Trazado 683494" d="M57.972,113.528a.392.392,0,0,0-.437-.335l-.936.117.96-.96A.392.392,0,1,0,57,111.8l-.96.96.117-.936a.392.392,0,0,0-.335-.437.388.388,0,0,0-.437.335l-.25,1.935-3.526,3.526V105.906l1.708-2.215a.389.389,0,0,0-.616-.476l-1.092,1.42V101.99a.39.39,0,1,0-.78,0v2.645l-1.092-1.42a.389.389,0,0,0-.616.476l1.708,2.215v11.3l-3.549-3.549-.25-1.935a.389.389,0,0,0-.772.1l.117.936-.96-.96a.392.392,0,1,0-.554.554l.96.96-.936-.117a.388.388,0,0,0-.437.335.392.392,0,0,0,.335.437l1.935.25,4.1,4.1v4.486a.39.39,0,1,0,.78,0V118.3l4.08-4.08,1.935-.25A.406.406,0,0,0,57.972,113.528Z" transform="translate(-44.449 -101.6)" fill="#77bc4d"/>
          </g>
        </g>
        <g id="Grupo_944921" data-name="Grupo 944921" transform="translate(19.48 0)">
          <g id="Grupo_944911" data-name="Grupo 944911" transform="translate(0 16.686)">
            <path id="Trazado_683495" data-name="Trazado 683495" d="M260.7,243.625,252.07,239.6l-1.552,3.315a8.554,8.554,0,0,0,.3,7.824,2.028,2.028,0,0,0,2.145,1,8.565,8.565,0,0,0,6.186-4.8Z" transform="translate(-249.716 -239.6)" fill="#ffcf57"/>
          </g>
          <g id="Grupo_944913" data-name="Grupo 944913" transform="translate(0 16.679)">
            <g id="Grupo_944912" data-name="Grupo 944912">
              <path id="Trazado_683496" data-name="Trazado 683496" d="M252.39,251.358a8.578,8.578,0,0,1-.3-7.824l1.537-3.3-1.568-.733-1.537,3.323a8.554,8.554,0,0,0,.3,7.824,2.022,2.022,0,0,0,1.8,1.03A1.988,1.988,0,0,1,252.39,251.358Z" transform="translate(-249.716 -239.5)" fill="#ffb81a"/>
            </g>
          </g>
          <g id="Grupo_944914" data-name="Grupo 944914" transform="translate(4.555 4.15)">
            <path id="Trazado_683497" data-name="Trazado 683497" d="M317.914,80l-2.348-1.1-7.466,16,.491,2.106,1.857-1.014Z" transform="translate(-308.1 -78.9)" fill="#fec"/>
          </g>
          <g id="Grupo_944916" data-name="Grupo 944916" transform="translate(4.555 4.15)">
            <g id="Grupo_944915" data-name="Grupo 944915">
              <path id="Trazado_683498" data-name="Trazado 683498" d="M316.728,79.446l-1.162-.546-7.466,16,.491,2.106,1.256-.686-.328-1.42Z" transform="translate(-308.1 -78.9)" fill="#ffddab"/>
            </g>
          </g>
          <g id="Grupo_944917" data-name="Grupo 944917" transform="translate(11.676)">
            <path id="Trazado_683499" data-name="Trazado 683499" d="M404.737,27.666,400.524,25.7l-.882,1.9a2.176,2.176,0,0,0-.187.7l-.07.952a.617.617,0,0,0,.351.6l2.325,1.084a.61.61,0,0,0,.686-.117l.686-.671a2.106,2.106,0,0,0,.421-.593Z" transform="translate(-399.384 -25.7)" fill="#f95a66"/>
          </g>
          <g id="Grupo_944919" data-name="Grupo 944919" transform="translate(12.09 0.008)">
            <g id="Grupo_944918" data-name="Grupo 944918">
              <path id="Trazado_683500" data-name="Trazado 683500" d="M408.9,29.295l.008.023.725-1.56L405.425,25.8l-.725,1.56.023-.016Z" transform="translate(-404.7 -25.8)" fill="#ed3252"/>
            </g>
          </g>
          <g id="Grupo_944920" data-name="Grupo 944920" transform="translate(5.039 14.753)">
            <path id="Trazado_683501" data-name="Trazado 683501" d="M319.523,217.839a.419.419,0,0,1-.164-.039l-4.821-2.247a.387.387,0,0,1,.328-.7l4.821,2.247A.391.391,0,0,1,319.523,217.839Z" transform="translate(-314.313 -214.813)" fill="#f2c391"/>
          </g>
        </g>
        <g id="Grupo_944925" data-name="Grupo 944925" transform="translate(0 24.213)">
          <g id="Grupo_944922" data-name="Grupo 944922" transform="translate(2.403)">
            <path id="Trazado_683502" data-name="Trazado 683502" d="M61.84,343.278s0-3.542-4.384-2.988c0,0-2.223-4.8-7.466-1.958a4.115,4.115,0,0,0-7.333,0c-5.4-2.84-7.466,1.958-7.466,1.958-4.384-.562-4.384,2.988-4.384,2.988l-.008.686H61.832Z" transform="translate(-30.8 -336.084)" fill="#cc8769"/>
          </g>
          <g id="Grupo_944923" data-name="Grupo 944923" transform="translate(2.403)">
            <path id="Trazado_683503" data-name="Trazado 683503" d="M61.84,343.278s0-3.542-4.384-2.988c0,0-2.223-4.8-7.466-1.958a4.115,4.115,0,0,0-7.333,0c-5.4-2.84-7.466,1.958-7.466,1.958-4.384-.562-4.384,2.988-4.384,2.988l-.008.686h1.194c.047-1.326.125-1.521.242-1.716a2.211,2.211,0,0,1,2.067-.913c.679.039,1.607.218,1.911-.608a3.768,3.768,0,0,1,3.261-2.192,5.8,5.8,0,0,1,2.676.772l.023.016a1.081,1.081,0,0,0,1.506-.569,2.744,2.744,0,0,1,2.535-1.568h.218a2.76,2.76,0,0,1,2.535,1.56l.008.023a1.08,1.08,0,0,0,1.513.538l.023-.016a5.55,5.55,0,0,1,2.606-.764,3.963,3.963,0,0,1,3.339,2.223c.32.8,1.225.608,1.9.577a2.219,2.219,0,0,1,2.067.913c.117.187.2.39.242,1.716H61.84Z" transform="translate(-30.8 -336.084)" fill="#c67154"/>
          </g>
          <g id="Grupo_944924" data-name="Grupo 944924" transform="translate(0 7.506)">
            <path id="Trazado_683504" data-name="Trazado 683504" d="M35.83,433.08H.39a.39.39,0,0,1,0-.78H35.83a.386.386,0,0,1,.39.39A.391.391,0,0,1,35.83,433.08Z" transform="translate(0 -432.3)" fill="#e0e0e0"/>
          </g>
        </g>
        <g id="Grupo_944938" data-name="Grupo 944938" transform="translate(1.225 0.694)">
          <g id="Grupo_944928" data-name="Grupo 944928" transform="translate(0.85 22.342)">
            <g id="Grupo_944926" data-name="Grupo 944926">
              <circle id="Elipse_5377" data-name="Elipse 5377" cx="1.178" cy="1.178" r="1.178" fill="#fec"/>
            </g>
            <g id="Grupo_944927" data-name="Grupo 944927" transform="translate(0.008)">
              <path id="Trazado_683505" data-name="Trazado 683505" d="M28.876,321.554a1.178,1.178,0,1,0-1,1.8.444.444,0,0,0,.1-.008,1.144,1.144,0,0,1-.179-.624A1.172,1.172,0,0,1,28.876,321.554Z" transform="translate(-26.7 -321)" fill="#ffddab"/>
            </g>
          </g>
          <g id="Grupo_944931" data-name="Grupo 944931">
            <g id="Grupo_944929" data-name="Grupo 944929" transform="translate(0)">
              <circle id="Elipse_5378" data-name="Elipse 5378" cx="1.178" cy="1.178" r="1.178" fill="#fec"/>
            </g>
            <g id="Grupo_944930" data-name="Grupo 944930" transform="translate(0 0)">
              <path id="Trazado_683506" data-name="Trazado 683506" d="M17.876,35.154a1.178,1.178,0,1,0-1,1.8.445.445,0,0,0,.1-.008,1.144,1.144,0,0,1-.179-.624A1.173,1.173,0,0,1,17.876,35.154Z" transform="translate(-15.7 -34.6)" fill="#ffddab"/>
            </g>
          </g>
          <g id="Grupo_944934" data-name="Grupo 944934" transform="translate(18.652 7.364)">
            <g id="Grupo_944932" data-name="Grupo 944932">
              <circle id="Elipse_5379" data-name="Elipse 5379" cx="1.178" cy="1.178" r="1.178" fill="#fec"/>
            </g>
            <g id="Grupo_944933" data-name="Grupo 944933" transform="translate(0.008)">
              <path id="Trazado_683507" data-name="Trazado 683507" d="M257.076,129.554a1.178,1.178,0,1,0-1,1.8.444.444,0,0,0,.1-.008,1.144,1.144,0,0,1-.179-.624A1.172,1.172,0,0,1,257.076,129.554Z" transform="translate(-254.9 -129)" fill="#ffddab"/>
            </g>
          </g>
          <g id="Grupo_944937" data-name="Grupo 944937" transform="translate(31.04 23.075)">
            <g id="Grupo_944935" data-name="Grupo 944935">
              <circle id="Elipse_5380" data-name="Elipse 5380" cx="1.178" cy="1.178" r="1.178" fill="#fec"/>
            </g>
            <g id="Grupo_944936" data-name="Grupo 944936">
              <path id="Trazado_683508" data-name="Trazado 683508" d="M415.776,330.954a1.178,1.178,0,1,0-1,1.8.445.445,0,0,0,.1-.008,1.144,1.144,0,0,1-.179-.624A1.173,1.173,0,0,1,415.776,330.954Z" transform="translate(-413.6 -330.4)" fill="#ffddab"/>
            </g>
          </g>
        </g>
      </g>
    </g>
  </g>
</svg>
